  0
SECTION
  2
HEADER
  9
$ACADVER
  1
AC1032
  9
$ACADMAINTVER
 90
4
  9
$DWGCODEPAGE
  3
ANSI_1252
  9
$LASTSAVEDBY
  1
ezdxf
  9
$REQUIREDVERSIONS
160
0
  9
$INSBASE
 10
0.0
 20
0.0
 30
0.0
  9
$EXTMIN
 10
1e+20
 20
1e+20
 30
1e+20
  9
$EXTMAX
 10
-1e+20
 20
-1e+20
 30
-1e+20
  9
$LIMMIN
 10
0.0
 20
0.0
  9
$LIMMAX
 10
420.0
 20
297.0
  9
$ORTHOMODE
 70
0
  9
$REGENMODE
 70
1
  9
$FILLMODE
 70
1
  9
$QTEXTMODE
 70
0
  9
$MIRRTEXT
 70
1
  9
$LTSCALE
 40
1.0
  9
$ATTMODE
 70
1
  9
$TEXTSIZE
 40
2.5
  9
$TRACEWID
 40
1.0
  9
$TEXTSTYLE
  7
OpenSans
  9
$CLAYER
  8
0
  9
$CELTYPE
  6
ByLayer
  9
$CECOLOR
 62
256
  9
$CELTSCALE
 40
1.0
  9
$DISPSILH
 70
0
  9
$DIMSCALE
 40
1.0
  9
$DIMASZ
 40
0.175
  9
$DIMEXO
 40
0.125
  9
$DIMDLI
 40
3.75
  9
$DIMRND
 40
0.0
  9
$DIMDLE
 40
0.0
  9
$DIMEXE
 40
0.375
  9
$DIMTP
 40
0.0
  9
$DIMTM
 40
0.0
  9
$DIMTXT
 40
0.25
  9
$DIMCEN
 40
2.5
  9
$DIMTSZ
 40
0.0
  9
$DIMTOL
 70
0
  9
$DIMLIM
 70
0
  9
$DIMTIH
 70
0
  9
$DIMTOH
 70
0
  9
$DIMSE1
 70
0
  9
$DIMSE2
 70
0
  9
$DIMTAD
 70
1
  9
$DIMZIN
 70
12
  9
$DIMBLK
  1
ARCHTICK
  9
$DIMASO
 70
1
  9
$DIMSHO
 70
1
  9
$DIMPOST
  1

  9
$DIMAPOST
  1

  9
$DIMALT
 70
0
  9
$DIMALTD
 70
3
  9
$DIMALTF
 40
0.03937007874
  9
$DIMLFAC
 40
100.0
  9
$DIMTOFL
 70
1
  9
$DIMTVP
 40
0.0
  9
$DIMTIX
 70
0
  9
$DIMSOXD
 70
0
  9
$DIMSAH
 70
0
  9
$DIMBLK1
  1

  9
$DIMBLK2
  1

  9
$DIMSTYLE
  2
EZDXF
  9
$DIMCLRD
 70
0
  9
$DIMCLRE
 70
0
  9
$DIMCLRT
 70
0
  9
$DIMTFAC
 40
0.5
  9
$DIMGAP
 40
0.1
  9
$DIMJUST
 70
0
  9
$DIMSD1
 70
0
  9
$DIMSD2
 70
0
  9
$DIMTOLJ
 70
0
  9
$DIMTZIN
 70
8
  9
$DIMALTZ
 70
0
  9
$DIMALTTZ
 70
0
  9
$DIMUPT
 70
1
  9
$DIMDEC
 70
2
  9
$DIMTDEC
 70
2
  9
$DIMALTU
 70
2
  9
$DIMALTTD
 70
3
  9
$DIMTXSTY
  7
OpenSansCondensed-Light
  9
$DIMAUNIT
 70
0
  9
$DIMADEC
 70
2
  9
$DIMALTRND
 40
0.0
  9
$DIMAZIN
 70
3
  9
$DIMDSEP
 70
46
  9
$DIMATFIT
 70
3
  9
$DIMFRAC
 70
0
  9
$DIMLDRBLK
  1

  9
$DIMLUNIT
 70
2
  9
$DIMLWD
 70
-2
  9
$DIMLWE
 70
-2
  9
$DIMTMOVE
 70
2
  9
$DIMFXL
 40
1.0
  9
$DIMFXLON
 70
0
  9
$DIMJOGANG
 40
0.785398163397
  9
$DIMTFILL
 70
0
  9
$DIMTFILLCLR
 70
0
  9
$DIMARCSYM
 70
0
  9
$DIMLTYPE
  6

  9
$DIMLTEX1
  6

  9
$DIMLTEX2
  6

  9
$DIMTXTDIRECTION
 70
0
  9
$LUNITS
 70
2
  9
$LUPREC
 70
4
  9
$SKETCHINC
 40
1.0
  9
$FILLETRAD
 40
10.0
  9
$AUNITS
 70
0
  9
$AUPREC
 70
2
  9
$MENU
  1
.
  9
$ELEVATION
 40
0.0
  9
$PELEVATION
 40
0.0
  9
$THICKNESS
 40
0.0
  9
$LIMCHECK
 70
0
  9
$CHAMFERA
 40
0.0
  9
$CHAMFERB
 40
0.0
  9
$CHAMFERC
 40
0.0
  9
$CHAMFERD
 40
0.0
  9
$SKPOLY
 70
0
  9
$TDCREATE
 40
2461318.769791667
  9
$TDUCREATE
 40
2458532.153996898
  9
$TDUPDATE
 40
2461318.769791667
  9
$TDUUPDATE
 40
2458532.1544311
  9
$TDINDWG
 40
0.0
  9
$TDUSRTIMER
 40
0.0
  9
$USRTIMER
 70
1
  9
$ANGBASE
 50
0.0
  9
$ANGDIR
 70
0
  9
$PDMODE
 70
0
  9
$PDSIZE
 40
0.0
  9
$PLINEWID
 40
0.0
  9
$SPLFRAME
 70
0
  9
$SPLINETYPE
 70
6
  9
$SPLINESEGS
 70
8
  9
$HANDSEED
  5
24F
  9
$SURFTAB1
 70
6
  9
$SURFTAB2
 70
6
  9
$SURFTYPE
 70
6
  9
$SURFU
 70
6
  9
$SURFV
 70
6
  9
$UCSBASE
  2

  9
$UCSNAME
  2

  9
$UCSORG
 10
0.0
 20
0.0
 30
0.0
  9
$UCSXDIR
 10
1.0
 20
0.0
 30
0.0
  9
$UCSYDIR
 10
0.0
 20
1.0
 30
0.0
  9
$UCSORTHOREF
  2

  9
$UCSORTHOVIEW
 70
0
  9
$UCSORGTOP
 10
0.0
 20
0.0
 30
0.0
  9
$UCSORGBOTTOM
 10
0.0
 20
0.0
 30
0.0
  9
$UCSORGLEFT
 10
0.0
 20
0.0
 30
0.0
  9
$UCSORGRIGHT
 10
0.0
 20
0.0
 30
0.0
  9
$UCSORGFRONT
 10
0.0
 20
0.0
 30
0.0
  9
$UCSORGBACK
 10
0.0
 20
0.0
 30
0.0
  9
$PUCSBASE
  2

  9
$PUCSNAME
  2

  9
$PUCSORG
 10
0.0
 20
0.0
 30
0.0
  9
$PUCSXDIR
 10
1.0
 20
0.0
 30
0.0
  9
$PUCSYDIR
 10
0.0
 20
1.0
 30
0.0
  9
$PUCSORTHOREF
  2

  9
$PUCSORTHOVIEW
 70
0
  9
$PUCSORGTOP
 10
0.0
 20
0.0
 30
0.0
  9
$PUCSORGBOTTOM
 10
0.0
 20
0.0
 30
0.0
  9
$PUCSORGLEFT
 10
0.0
 20
0.0
 30
0.0
  9
$PUCSORGRIGHT
 10
0.0
 20
0.0
 30
0.0
  9
$PUCSORGFRONT
 10
0.0
 20
0.0
 30
0.0
  9
$PUCSORGBACK
 10
0.0
 20
0.0
 30
0.0
  9
$USERI1
 70
0
  9
$USERI2
 70
0
  9
$USERI3
 70
0
  9
$USERI4
 70
0
  9
$USERI5
 70
0
  9
$USERR1
 40
0.0
  9
$USERR2
 40
0.0
  9
$USERR3
 40
0.0
  9
$USERR4
 40
0.0
  9
$USERR5
 40
0.0
  9
$WORLDVIEW
 70
1
  9
$SHADEDGE
 70
3
  9
$SHADEDIF
 70
70
  9
$TILEMODE
 70
1
  9
$MAXACTVP
 70
64
  9
$PINSBASE
 10
0.0
 20
0.0
 30
0.0
  9
$PLIMCHECK
 70
0
  9
$PEXTMIN
 10
1e+20
 20
1e+20
 30
1e+20
  9
$PEXTMAX
 10
-1e+20
 20
-1e+20
 30
-1e+20
  9
$PLIMMIN
 10
0.0
 20
0.0
  9
$PLIMMAX
 10
420.0
 20
297.0
  9
$UNITMODE
 70
0
  9
$VISRETAIN
 70
1
  9
$PLINEGEN
 70
0
  9
$PSLTSCALE
 70
1
  9
$TREEDEPTH
 70
3020
  9
$CMLSTYLE
  2
Standard
  9
$CMLJUST
 70
0
  9
$CMLSCALE
 40
20.0
  9
$PROXYGRAPHICS
 70
1
  9
$MEASUREMENT
 70
1
  9
$CELWEIGHT
370
-1
  9
$ENDCAPS
280
0
  9
$JOINSTYLE
280
0
  9
$LWDISPLAY
290
0
  9
$INSUNITS
 70
6
  9
$HYPERLINKBASE
  1

  9
$STYLESHEET
  1

  9
$XEDIT
290
1
  9
$CEPSNTYPE
380
0
  9
$PSTYLEMODE
290
1
  9
$FINGERPRINTGUID
  2
{6579E631-665B-4721-AA48-A5D1A019BE62}
  9
$VERSIONGUID
  2
{674E98D9-B8D4-4077-BB7A-9D7A15747BFF}
  9
$EXTNAMES
290
1
  9
$PSVPSCALE
 40
0.0
  9
$OLESTARTUP
290
0
  9
$SORTENTS
280
127
  9
$INDEXCTL
280
0
  9
$HIDETEXT
280
1
  9
$XCLIPFRAME
280
1
  9
$HALOGAP
280
0
  9
$OBSCOLOR
 70
257
  9
$OBSLTYPE
280
0
  9
$INTERSECTIONDISPLAY
280
0
  9
$INTERSECTIONCOLOR
 70
257
  9
$DIMASSOC
280
2
  9
$PROJECTNAME
  1

  9
$CAMERADISPLAY
290
0
  9
$LENSLENGTH
 40
50.0
  9
$CAMERAHEIGHT
 40
0.0
  9
$STEPSPERSEC
 40
24.0
  9
$STEPSIZE
 40
100.0
  9
$3DDWFPREC
 40
2.0
  9
$PSOLWIDTH
 40
0.005
  9
$PSOLHEIGHT
 40
0.08
  9
$LOFTANG1
 40
1.570796326795
  9
$LOFTANG2
 40
1.570796326795
  9
$LOFTMAG1
 40
0.0
  9
$LOFTMAG2
 40
0.0
  9
$LOFTPARAM
 70
7
  9
$LOFTNORMALS
280
1
  9
$LATITUDE
 40
37.795
  9
$LONGITUDE
 40
-122.394
  9
$NORTHDIRECTION
 40
0.0
  9
$TIMEZONE
 70
-8000
  9
$LIGHTGLYPHDISPLAY
280
1
  9
$TILEMODELIGHTSYNCH
280
1
  9
$CMATERIAL
347
20
  9
$SOLIDHIST
280
0
  9
$SHOWHIST
280
1
  9
$DWFFRAME
280
2
  9
$DGNFRAME
280
2
  9
$REALWORLDSCALE
290
1
  9
$INTERFERECOLOR
 62
256
  9
$CSHADOW
280
0
  9
$SHADOWPLANELOCATION
 40
0.0
  0
ENDSEC
  0
SECTION
  2
CLASSES
  0
CLASS
  1
ACDBDICTIONARYWDFLT
  2
AcDbDictionaryWithDefault
  3
ObjectDBX Classes
 90
0
 91
0
280
0
281
0
  0
CLASS
  1
SUN
  2
AcDbSun
  3
SCENEOE
 90
1153
 91
0
280
0
281
0
  0
CLASS
  1
VISUALSTYLE
  2
AcDbVisualStyle
  3
ObjectDBX Classes
 90
4095
 91
0
280
0
281
0
  0
CLASS
  1
MATERIAL
  2
AcDbMaterial
  3
ObjectDBX Classes
 90
1153
 91
0
280
0
281
0
  0
CLASS
  1
SCALE
  2
AcDbScale
  3
ObjectDBX Classes
 90
1153
 91
0
280
0
281
0
  0
CLASS
  1
TABLESTYLE
  2
AcDbTableStyle
  3
ObjectDBX Classes
 90
4095
 91
0
280
0
281
0
  0
CLASS
  1
MLEADERSTYLE
  2
AcDbMLeaderStyle
  3
ACDB_MLEADERSTYLE_CLASS
 90
4095
 91
0
280
0
281
0
  0
CLASS
  1
DICTIONARYVAR
  2
AcDbDictionaryVar
  3
ObjectDBX Classes
 90
0
 91
0
280
0
281
0
  0
CLASS
  1
CELLSTYLEMAP
  2
AcDbCellStyleMap
  3
ObjectDBX Classes
 90
1152
 91
0
280
0
281
0
  0
CLASS
  1
MENTALRAYRENDERSETTINGS
  2
AcDbMentalRayRenderSettings
  3
SCENEOE
 90
1024
 91
0
280
0
281
0
  0
CLASS
  1
ACDBDETAILVIEWSTYLE
  2
AcDbDetailViewStyle
  3
ObjectDBX Classes
 90
1025
 91
0
280
0
281
0
  0
CLASS
  1
ACDBSECTIONVIEWSTYLE
  2
AcDbSectionViewStyle
  3
ObjectDBX Classes
 90
1025
 91
0
280
0
281
0
  0
CLASS
  1
RASTERVARIABLES
  2
AcDbRasterVariables
  3
ISM
 90
0
 91
0
280
0
281
0
  0
CLASS
  1
LAYOUT
  2
AcDbLayout
  3
ObjectDBX Classes
 90
0
 91
0
280
0
281
0
  0
CLASS
  1
ACDBPLACEHOLDER
  2
AcDbPlaceHolder
  3
ObjectDBX Classes
 90
0
 91
0
280
0
281
0
  0
ENDSEC
  0
SECTION
  2
TABLES
  0
TABLE
  2
VPORT
  5
8
330
0
100
AcDbSymbolTable
 70
1
  0
VPORT
  5
23
330
8
100
AcDbSymbolTableRecord
100
AcDbViewportTableRecord
  2
*Active
 70
0
 10
0.0
 20
0.0
 11
1.0
 21
1.0
 12
0.0
 22
0.0
 13
0.0
 23
0.0
 14
0.5
 24
0.5
 15
0.5
 25
0.5
 16
0.0
 26
0.0
 36
1.0
 17
0.0
 27
0.0
 37
0.0
 40
1000.0
 41
1.34
 42
50.0
 43
0.0
 44
0.0
 50
0.0
 51
0.0
 71
0
 72
1000
 73
1
 74
3
 75
0
 76
0
 77
0
 78
0
281
0
 65
0
146
0.0
  0
ENDTAB
  0
TABLE
  2
LTYPE
  5
2
330
0
100
AcDbSymbolTable
 70
21
  0
LTYPE
  5
24
330
2
100
AcDbSymbolTableRecord
100
AcDbLinetypeTableRecord
  2
ByBlock
 70
0
  3

 72
65
 73
0
 40
0.0
  0
LTYPE
  5
25
330
2
100
AcDbSymbolTableRecord
100
AcDbLinetypeTableRecord
  2
ByLayer
 70
0
  3

 72
65
 73
0
 40
0.0
  0
LTYPE
  5
26
330
2
100
AcDbSymbolTableRecord
100
AcDbLinetypeTableRecord
  2
Continuous
 70
0
  3

 72
65
 73
0
 40
0.0
  0
LTYPE
  5
2F
330
2
100
AcDbSymbolTableRecord
100
AcDbLinetypeTableRecord
  2
CENTER
 70
0
  3
Center ____ _ ____ _ ____ _ ____ _ ____ _ ____
 72
65
 73
4
 40
5.08
 49
3.175
 74
0
 49
-0.635
 74
0
 49
0.635
 74
0
 49
-0.635
 74
0
  0
LTYPE
  5
30
330
2
100
AcDbSymbolTableRecord
100
AcDbLinetypeTableRecord
  2
CENTERX2
 70
0
  3
Center (2x) ________  __  ________  __  ________
 72
65
 73
4
 40
8.89
 49
6.35
 74
0
 49
-0.635
 74
0
 49
1.27
 74
0
 49
-0.635
 74
0
  0
LTYPE
  5
31
330
2
100
AcDbSymbolTableRecord
100
AcDbLinetypeTableRecord
  2
CENTER2
 70
0
  3
Center (.5x) ____ _ ____ _ ____ _ ____ _ ____
 72
65
 73
4
 40
2.54
 49
1.587
 74
0
 49
-0.318
 74
0
 49
0.318
 74
0
 49
-0.318
 74
0
  0
LTYPE
  5
32
330
2
100
AcDbSymbolTableRecord
100
AcDbLinetypeTableRecord
  2
DASHED
 70
0
  3
Dashed __ __ __ __ __ __ __ __ __ __ __ __ __ _
 72
65
 73
2
 40
1.524
 49
1.27
 74
0
 49
-0.254
 74
0
  0
LTYPE
  5
33
330
2
100
AcDbSymbolTableRecord
100
AcDbLinetypeTableRecord
  2
DASHEDX2
 70
0
  3
Dashed (2x) ____  ____  ____  ____  ____  ____
 72
65
 73
2
 40
3.048
 49
2.54
 74
0
 49
-0.508
 74
0
  0
LTYPE
  5
34
330
2
100
AcDbSymbolTableRecord
100
AcDbLinetypeTableRecord
  2
DASHED2
 70
0
  3
Dashed (.5x) _ _ _ _ _ _ _ _ _ _ _ _ _ _
 72
65
 73
2
 40
0.762
 49
0.635
 74
0
 49
-0.127
 74
0
  0
LTYPE
  5
35
330
2
100
AcDbSymbolTableRecord
100
AcDbLinetypeTableRecord
  2
PHANTOM
 70
0
  3
Phantom ______  __  __  ______  __  __  ______
 72
65
 73
6
 40
6.35
 49
3.175
 74
0
 49
-0.635
 74
0
 49
0.635
 74
0
 49
-0.635
 74
0
 49
0.635
 74
0
 49
-0.635
 74
0
  0
LTYPE
  5
36
330
2
100
AcDbSymbolTableRecord
100
AcDbLinetypeTableRecord
  2
PHANTOMX2
 70
0
  3
Phantom (2x)____________    ____    ____    ____________
 72
65
 73
6
 40
10.795
 49
6.35
 74
0
 49
-0.635
 74
0
 49
1.27
 74
0
 49
-0.635
 74
0
 49
1.27
 74
0
 49
-0.635
 74
0
  0
LTYPE
  5
37
330
2
100
AcDbSymbolTableRecord
100
AcDbLinetypeTableRecord
  2
PHANTOM2
 70
0
  3
Phantom (.5x) ___ _ _ ___ _ _ ___ _ _ ___ _ _ ___
 72
65
 73
6
 40
3.175
 49
1.587
 74
0
 49
-0.318
 74
0
 49
0.318
 74
0
 49
-0.318
 74
0
 49
0.318
 74
0
 49
-0.318
 74
0
  0
LTYPE
  5
38
330
2
100
AcDbSymbolTableRecord
100
AcDbLinetypeTableRecord
  2
DASHDOT
 70
0
  3
Dash dot __ . __ . __ . __ . __ . __ . __ . __
 72
65
 73
4
 40
3.556
 49
2.54
 74
0
 49
-0.508
 74
0
 49
0.0
 74
0
 49
-0.508
 74
0
  0
LTYPE
  5
39
330
2
100
AcDbSymbolTableRecord
100
AcDbLinetypeTableRecord
  2
DASHDOTX2
 70
0
  3
Dash dot (2x) ____  .  ____  .  ____  .  ____
 72
65
 73
4
 40
6.096
 49
5.08
 74
0
 49
-0.508
 74
0
 49
0.0
 74
0
 49
-0.508
 74
0
  0
LTYPE
  5
3A
330
2
100
AcDbSymbolTableRecord
100
AcDbLinetypeTableRecord
  2
DASHDOT2
 70
0
  3
Dash dot (.5x) _ . _ . _ . _ . _ . _ . _ . _
 72
65
 73
4
 40
1.778
 49
1.27
 74
0
 49
-0.254
 74
0
 49
0.0
 74
0
 49
-0.254
 74
0
  0
LTYPE
  5
3B
330
2
100
AcDbSymbolTableRecord
100
AcDbLinetypeTableRecord
  2
DOT
 70
0
  3
Dot .  .  .  .  .  .  .  .  .  .  .  .  .  .  .  .
 72
65
 73
2
 40
0.508
 49
0.0
 74
0
 49
-0.508
 74
0
  0
LTYPE
  5
3C
330
2
100
AcDbSymbolTableRecord
100
AcDbLinetypeTableRecord
  2
DOTX2
 70
0
  3
Dot (2x) .    .    .    .    .    .    .    . 
 72
65
 73
2
 40
1.016
 49
0.0
 74
0
 49
-1.016
 74
0
  0
LTYPE
  5
3D
330
2
100
AcDbSymbolTableRecord
100
AcDbLinetypeTableRecord
  2
DOT2
 70
0
  3
Dot (.5) . . . . . . . . . . . . . . . . . . . 
 72
65
 73
2
 40
0.254
 49
0.0
 74
0
 49
-0.254
 74
0
  0
LTYPE
  5
3E
330
2
100
AcDbSymbolTableRecord
100
AcDbLinetypeTableRecord
  2
DIVIDE
 70
0
  3
Divide __ . . __ . . __ . . __ . . __ . . __
 72
65
 73
6
 40
4.064
 49
2.54
 74
0
 49
-0.508
 74
0
 49
0.0
 74
0
 49
-0.508
 74
0
 49
0.0
 74
0
 49
-0.508
 74
0
  0
LTYPE
  5
3F
330
2
100
AcDbSymbolTableRecord
100
AcDbLinetypeTableRecord
  2
DIVIDEX2
 70
0
  3
Divide (2x) ____  . .  ____  . .  ____  . .  ____
 72
65
 73
6
 40
6.604
 49
5.08
 74
0
 49
-0.508
 74
0
 49
0.0
 74
0
 49
-0.508
 74
0
 49
0.0
 74
0
 49
-0.508
 74
0
  0
LTYPE
  5
40
330
2
100
AcDbSymbolTableRecord
100
AcDbLinetypeTableRecord
  2
DIVIDE2
 70
0
  3
Divide(.5x) _ . _ . _ . _ . _ . _ . _ . _
 72
65
 73
6
 40
2.032
 49
1.27
 74
0
 49
-0.254
 74
0
 49
0.0
 74
0
 49
-0.254
 74
0
 49
0.0
 74
0
 49
-0.254
 74
0
  0
ENDTAB
  0
TABLE
  2
LAYER
  5
1
330
0
100
AcDbSymbolTable
 70
12
  0
LAYER
  5
27
330
1
100
AcDbSymbolTableRecord
100
AcDbLayerTableRecord
  2
0
 70
0
 62
7
  6
Continuous
370
-3
390
13
347
21
  0
LAYER
  5
28
330
1
100
AcDbSymbolTableRecord
100
AcDbLayerTableRecord
  2
Defpoints
 70
0
 62
7
  6
Continuous
290
0
370
-3
390
13
347
21
  0
LAYER
  5
8A
330
1
100
AcDbSymbolTableRecord
100
AcDbLayerTableRecord
  2
A-CUT
 70
0
 62
7
  6
Continuous
370
50
390
13
347
21
  0
LAYER
  5
8B
330
1
100
AcDbSymbolTableRecord
100
AcDbLayerTableRecord
  2
A-MAIN
 70
0
 62
7
  6
Continuous
370
35
390
13
347
21
  0
LAYER
  5
8C
330
1
100
AcDbSymbolTableRecord
100
AcDbLayerTableRecord
  2
A-THIN
 70
0
 62
8
  6
Continuous
370
18
390
13
347
21
  0
LAYER
  5
8D
330
1
100
AcDbSymbolTableRecord
100
AcDbLayerTableRecord
  2
A-HIDDEN
 70
0
 62
8
  6
DASHED
370
18
390
13
347
21
  0
LAYER
  5
8E
330
1
100
AcDbSymbolTableRecord
100
AcDbLayerTableRecord
  2
A-HATCH
 70
0
 62
8
  6
Continuous
370
9
390
13
347
21
  0
LAYER
  5
8F
330
1
100
AcDbSymbolTableRecord
100
AcDbLayerTableRecord
  2
A-TEXT
 70
0
 62
7
  6
Continuous
370
18
390
13
347
21
  0
LAYER
  5
90
330
1
100
AcDbSymbolTableRecord
100
AcDbLayerTableRecord
  2
A-DIMS
 70
0
 62
1
  6
Continuous
370
13
390
13
347
21
  0
LAYER
  5
91
330
1
100
AcDbSymbolTableRecord
100
AcDbLayerTableRecord
  2
A-FURN
 70
0
 62
9
  6
Continuous
370
13
390
13
347
21
  0
LAYER
  5
92
330
1
100
AcDbSymbolTableRecord
100
AcDbLayerTableRecord
  2
A-GRID
 70
0
 62
1
  6
Continuous
370
13
390
13
347
21
  0
LAYER
  5
93
330
1
100
AcDbSymbolTableRecord
100
AcDbLayerTableRecord
  2
A-SITE
 70
0
 62
3
  6
Continuous
370
18
390
13
347
21
  0
ENDTAB
  0
TABLE
  2
STYLE
  5
5
330
0
100
AcDbSymbolTable
 70
26
  0
STYLE
  5
29
330
5
100
AcDbSymbolTableRecord
100
AcDbTextStyleTableRecord
  2
Standard
 70
0
 40
0.0
 41
1.0
 50
0.0
 71
0
 42
2.5
  3
txt
  4

  0
STYLE
  5
41
330
5
100
AcDbSymbolTableRecord
100
AcDbTextStyleTableRecord
  2
OpenSans-Light
 70
0
 40
0.0
 41
1.0
 50
0.0
 71
0
 42
2.5
  3
OpenSans-Light.ttf
  4

  0
STYLE
  5
42
330
5
100
AcDbSymbolTableRecord
100
AcDbTextStyleTableRecord
  2
OpenSans-Light-Italic
 70
0
 40
0.0
 41
1.0
 50
0.0
 71
0
 42
2.5
  3
OpenSans-LightItalic.ttf
  4

  0
STYLE
  5
43
330
5
100
AcDbSymbolTableRecord
100
AcDbTextStyleTableRecord
  2
OpenSans
 70
0
 40
0.0
 41
1.0
 50
0.0
 71
0
 42
2.5
  3
OpenSans-Regular.ttf
  4

  0
STYLE
  5
44
330
5
100
AcDbSymbolTableRecord
100
AcDbTextStyleTableRecord
  2
OpenSans-Italic
 70
0
 40
0.0
 41
1.0
 50
0.0
 71
0
 42
2.5
  3
OpenSans-Italic.ttf
  4

  0
STYLE
  5
45
330
5
100
AcDbSymbolTableRecord
100
AcDbTextStyleTableRecord
  2
OpenSans-SemiBold
 70
0
 40
0.0
 41
1.0
 50
0.0
 71
0
 42
2.5
  3
OpenSans-SemiBold.ttf
  4

  0
STYLE
  5
46
330
5
100
AcDbSymbolTableRecord
100
AcDbTextStyleTableRecord
  2
OpenSans-SemiBoldItalic
 70
0
 40
0.0
 41
1.0
 50
0.0
 71
0
 42
2.5
  3
OpenSans-SemiBoldItalic.ttf
  4

  0
STYLE
  5
47
330
5
100
AcDbSymbolTableRecord
100
AcDbTextStyleTableRecord
  2
OpenSans-Bold
 70
0
 40
0.0
 41
1.0
 50
0.0
 71
0
 42
2.5
  3
OpenSans-Bold.ttf
  4

  0
STYLE
  5
48
330
5
100
AcDbSymbolTableRecord
100
AcDbTextStyleTableRecord
  2
OpenSans-BoldItalic
 70
0
 40
0.0
 41
1.0
 50
0.0
 71
0
 42
2.5
  3
OpenSans-BoldItalic.ttf
  4

  0
STYLE
  5
49
330
5
100
AcDbSymbolTableRecord
100
AcDbTextStyleTableRecord
  2
OpenSans-ExtraBold
 70
0
 40
0.0
 41
1.0
 50
0.0
 71
0
 42
2.5
  3
OpenSans-ExtraBold.ttf
  4

  0
STYLE
  5
4A
330
5
100
AcDbSymbolTableRecord
100
AcDbTextStyleTableRecord
  2
OpenSans-ExtraBoldItalic
 70
0
 40
0.0
 41
1.0
 50
0.0
 71
0
 42
2.5
  3
OpenSans-ExtraBoldItalic.ttf
  4

  0
STYLE
  5
4B
330
5
100
AcDbSymbolTableRecord
100
AcDbTextStyleTableRecord
  2
OpenSansCondensed-Bold
 70
0
 40
0.0
 41
1.0
 50
0.0
 71
0
 42
2.5
  3
OpenSansCondensed-Bold.ttf
  4

  0
STYLE
  5
4C
330
5
100
AcDbSymbolTableRecord
100
AcDbTextStyleTableRecord
  2
OpenSansCondensed-Light
 70
0
 40
0.0
 41
1.0
 50
0.0
 71
0
 42
2.5
  3
OpenSansCondensed-Light.ttf
  4

  0
STYLE
  5
4D
330
5
100
AcDbSymbolTableRecord
100
AcDbTextStyleTableRecord
  2
OpenSansCondensed-Italic
 70
0
 40
0.0
 41
1.0
 50
0.0
 71
0
 42
2.5
  3
OpenSansCondensed-LightItalic.ttf
  4

  0
STYLE
  5
4E
330
5
100
AcDbSymbolTableRecord
100
AcDbTextStyleTableRecord
  2
LiberationSans
 70
0
 40
0.0
 41
1.0
 50
0.0
 71
0
 42
2.5
  3
LiberationSans-Regular.ttf
  4

  0
STYLE
  5
4F
330
5
100
AcDbSymbolTableRecord
100
AcDbTextStyleTableRecord
  2
LiberationSans-Bold
 70
0
 40
0.0
 41
1.0
 50
0.0
 71
0
 42
2.5
  3
LiberationSans-Bold.ttf
  4

  0
STYLE
  5
50
330
5
100
AcDbSymbolTableRecord
100
AcDbTextStyleTableRecord
  2
LiberationSans-BoldItalic
 70
0
 40
0.0
 41
1.0
 50
0.0
 71
0
 42
2.5
  3
LiberationSans-BoldItalic.ttf
  4

  0
STYLE
  5
51
330
5
100
AcDbSymbolTableRecord
100
AcDbTextStyleTableRecord
  2
LiberationSans-Italic
 70
0
 40
0.0
 41
1.0
 50
0.0
 71
0
 42
2.5
  3
LiberationSans-Italic.ttf
  4

  0
STYLE
  5
52
330
5
100
AcDbSymbolTableRecord
100
AcDbTextStyleTableRecord
  2
LiberationSerif
 70
0
 40
0.0
 41
1.0
 50
0.0
 71
0
 42
2.5
  3
LiberationSerif-Regular.ttf
  4

  0
STYLE
  5
53
330
5
100
AcDbSymbolTableRecord
100
AcDbTextStyleTableRecord
  2
LiberationSerif-Bold
 70
0
 40
0.0
 41
1.0
 50
0.0
 71
0
 42
2.5
  3
LiberationSerif-Bold.ttf
  4

  0
STYLE
  5
54
330
5
100
AcDbSymbolTableRecord
100
AcDbTextStyleTableRecord
  2
LiberationSerif-BoldItalic
 70
0
 40
0.0
 41
1.0
 50
0.0
 71
0
 42
2.5
  3
LiberationSerif-BoldItalic.ttf
  4

  0
STYLE
  5
55
330
5
100
AcDbSymbolTableRecord
100
AcDbTextStyleTableRecord
  2
LiberationSerif-Italic
 70
0
 40
0.0
 41
1.0
 50
0.0
 71
0
 42
2.5
  3
LiberationSerif-Italic.ttf
  4

  0
STYLE
  5
56
330
5
100
AcDbSymbolTableRecord
100
AcDbTextStyleTableRecord
  2
LiberationMono
 70
0
 40
0.0
 41
1.0
 50
0.0
 71
0
 42
2.5
  3
LiberationMono-Regular.ttf
  4

  0
STYLE
  5
57
330
5
100
AcDbSymbolTableRecord
100
AcDbTextStyleTableRecord
  2
LiberationMono-Bold
 70
0
 40
0.0
 41
1.0
 50
0.0
 71
0
 42
2.5
  3
LiberationMono-Bold.ttf
  4

  0
STYLE
  5
58
330
5
100
AcDbSymbolTableRecord
100
AcDbTextStyleTableRecord
  2
LiberationMono-BoldItalic
 70
0
 40
0.0
 41
1.0
 50
0.0
 71
0
 42
2.5
  3
LiberationMono-BoldItalic.ttf
  4

  0
STYLE
  5
59
330
5
100
AcDbSymbolTableRecord
100
AcDbTextStyleTableRecord
  2
LiberationMono-Italic
 70
0
 40
0.0
 41
1.0
 50
0.0
 71
0
 42
2.5
  3
LiberationMono-Italic.ttf
  4

  0
ENDTAB
  0
TABLE
  2
VIEW
  5
7
330
0
100
AcDbSymbolTable
 70
0
  0
ENDTAB
  0
TABLE
  2
UCS
  5
6
330
0
100
AcDbSymbolTable
 70
0
  0
ENDTAB
  0
TABLE
  2
APPID
  5
3
330
0
100
AcDbSymbolTable
 70
3
  0
APPID
  5
2A
330
3
100
AcDbSymbolTableRecord
100
AcDbRegAppTableRecord
  2
ACAD
 70
0
  0
APPID
  5
24C
330
3
100
AcDbSymbolTableRecord
100
AcDbRegAppTableRecord
  2
HATCHBACKGROUNDCOLOR
 70
0
  0
APPID
  5
24D
330
3
100
AcDbSymbolTableRecord
100
AcDbRegAppTableRecord
  2
EZDXF
 70
0
  0
ENDTAB
  0
TABLE
  2
DIMSTYLE
  5
4
330
0
100
AcDbSymbolTable
 70
12
100
AcDbDimStyleTable
  0
DIMSTYLE
105
2B
330
4
100
AcDbSymbolTableRecord
100
AcDbDimStyleTableRecord
  2
Standard
 70
0
 40
1.0
 41
2.5
 42
0.625
 43
3.75
 44
1.25
 45
0.0
 46
0.0
 47
0.0
 48
0.0
 49
2.5
140
2.5
141
2.5
142
0.0
143
0.03937007874
144
1.0
145
0.0
146
1.0
147
0.625
148
0.0
 69
0
 70
0
 71
0
 72
0
 73
0
 74
0
 75
0
 76
0
 77
1
 78
8
 79
3
170
0
171
3
172
1
173
0
174
0
175
0
176
0
177
0
178
0
179
2
271
2
272
2
273
2
274
3
275
0
276
0
277
2
278
44
279
0
280
0
281
0
282
0
283
0
284
8
285
0
286
0
288
0
289
3
290
0
371
-2
372
-2
  0
DIMSTYLE
105
73
330
4
100
AcDbSymbolTableRecord
100
AcDbDimStyleTableRecord
  2
EZDXF
 70
0
 40
1.0
 41
0.175
 42
0.125
 43
3.75
 44
0.375
 45
0.0
 46
0.0
 47
0.0
 48
0.0
 49
2.5
140
0.25
141
2.5
142
0.0
143
0.03937007874
144
100.0
145
0.0
146
0.5
147
0.1
148
0.0
 69
0
 70
0
 71
0
 72
0
 73
0
 74
0
 75
0
 76
0
 77
1
 78
12
 79
3
170
0
171
3
172
1
173
0
174
0
175
0
176
0
177
0
178
0
179
2
271
2
272
2
273
2
274
3
275
0
276
0
277
2
278
46
279
2
280
0
281
0
282
0
283
0
284
8
285
0
286
0
288
1
289
3
290
0
340
4C
342
74
371
-2
372
-2
  0
DIMSTYLE
105
7C
330
4
100
AcDbSymbolTableRecord
100
AcDbDimStyleTableRecord
  2
EZ_M_100_H25_CM
 70
0
 40
1.0
 41
0.25
 42
0.125
 43
3.75
 44
0.375
 45
0.0
 46
0.0
 47
0.0
 48
0.0
 49
2.5
140
0.25
141
2.5
142
0.125
143
0.03937007874
144
100.0
145
0.0
146
0.5
147
0.1
148
0.0
 69
0
 70
0
 71
0
 72
0
 73
0
 74
0
 75
0
 76
0
 77
1
 78
12
 79
3
170
0
171
3
172
1
173
0
174
0
175
0
176
0
177
0
178
0
179
2
271
2
272
2
273
2
274
3
275
0
276
0
277
2
278
46
279
2
280
0
281
0
282
0
283
0
284
8
285
0
286
0
288
1
289
3
290
0
340
4C
371
-2
372
-2
  0
DIMSTYLE
105
7D
330
4
100
AcDbSymbolTableRecord
100
AcDbDimStyleTableRecord
  2
EZ_M_50_H25_CM
 70
0
 40
1.0
 41
0.125
 42
0.0625
 43
3.75
 44
0.1875
 45
0.0
 46
0.0
 47
0.0
 48
0.0
 49
2.5
140
0.125
141
2.5
142
0.0625
143
0.03937007874
144
100.0
145
0.0
146
0.5
147
0.05
148
0.0
 69
0
 70
0
 71
0
 72
0
 73
0
 74
0
 75
0
 76
0
 77
1
 78
12
 79
3
170
0
171
3
172
1
173
0
174
0
175
0
176
0
177
0
178
0
179
2
271
2
272
2
273
2
274
3
275
0
276
0
277
2
278
46
279
2
280
0
281
0
282
0
283
0
284
8
285
0
286
0
288
1
289
3
290
0
340
4C
371
-2
372
-2
  0
DIMSTYLE
105
7E
330
4
100
AcDbSymbolTableRecord
100
AcDbDimStyleTableRecord
  2
EZ_M_25_H25_CM
 70
0
 40
1.0
 41
0.0625
 42
0.03125
 43
3.75
 44
0.09375
 45
0.0
 46
0.0
 47
0.0
 48
0.0
 49
2.5
140
0.0625
141
2.5
142
0.03125
143
0.03937007874
144
100.0
145
0.0
146
0.5
147
0.025
148
0.0
 69
0
 70
0
 71
0
 72
0
 73
0
 74
0
 75
0
 76
0
 77
1
 78
12
 79
3
170
0
171
3
172
1
173
0
174
0
175
0
176
0
177
0
178
0
179
2
271
2
272
2
273
2
274
3
275
0
276
0
277
2
278
46
279
2
280
0
281
0
282
0
283
0
284
8
285
0
286
0
288
1
289
3
290
0
340
4C
371
-2
372
-2
  0
DIMSTYLE
105
7F
330
4
100
AcDbSymbolTableRecord
100
AcDbDimStyleTableRecord
  2
EZ_M_20_H25_CM
 70
0
 40
1.0
 41
0.05
 42
0.025
 43
3.75
 44
0.07500000000000001
 45
0.0
 46
0.0
 47
0.0
 48
0.0
 49
2.5
140
0.05
141
2.5
142
0.025
143
0.03937007874
144
100.0
145
0.0
146
0.5
147
0.020000000000000004
148
0.0
 69
0
 70
0
 71
0
 72
0
 73
0
 74
0
 75
0
 76
0
 77
1
 78
12
 79
3
170
0
171
3
172
1
173
0
174
0
175
0
176
0
177
0
178
0
179
2
271
2
272
2
273
2
274
3
275
0
276
0
277
2
278
46
279
2
280
0
281
0
282
0
283
0
284
8
285
0
286
0
288
1
289
3
290
0
340
4C
371
-2
372
-2
  0
DIMSTYLE
105
80
330
4
100
AcDbSymbolTableRecord
100
AcDbDimStyleTableRecord
  2
EZ_M_10_H25_CM
 70
0
 40
1.0
 41
0.025
 42
0.0125
 43
3.75
 44
0.037500000000000006
 45
0.0
 46
0.0
 47
0.0
 48
0.0
 49
2.5
140
0.025
141
2.5
142
0.0125
143
0.03937007874
144
100.0
145
0.0
146
0.5
147
0.010000000000000002
148
0.0
 69
0
 70
0
 71
0
 72
0
 73
0
 74
0
 75
0
 76
0
 77
1
 78
12
 79
3
170
0
171
3
172
1
173
0
174
0
175
0
176
0
177
0
178
0
179
2
271
2
272
2
273
2
274
3
275
0
276
0
277
2
278
46
279
2
280
0
281
0
282
0
283
0
284
8
285
0
286
0
288
1
289
3
290
0
340
4C
371
-2
372
-2
  0
DIMSTYLE
105
81
330
4
100
AcDbSymbolTableRecord
100
AcDbDimStyleTableRecord
  2
EZ_M_5_H25_CM
 70
0
 40
1.0
 41
0.0125
 42
0.00625
 43
3.75
 44
0.018750000000000003
 45
0.0
 46
0.0
 47
0.0
 48
0.0
 49
2.5
140
0.0125
141
2.5
142
0.00625
143
0.03937007874
144
100.0
145
0.0
146
0.5
147
0.005000000000000001
148
0.0
 69
0
 70
0
 71
0
 72
0
 73
0
 74
0
 75
0
 76
0
 77
1
 78
12
 79
3
170
0
171
3
172
1
173
0
174
0
175
0
176
0
177
0
178
0
179
2
271
2
272
2
273
2
274
3
275
0
276
0
277
2
278
46
279
2
280
0
281
0
282
0
283
0
284
8
285
0
286
0
288
1
289
3
290
0
340
4C
371
-2
372
-2
  0
DIMSTYLE
105
82
330
4
100
AcDbSymbolTableRecord
100
AcDbDimStyleTableRecord
  2
EZ_M_1_H25_CM
 70
0
 40
1.0
 41
0.0025
 42
0.00125
 43
3.75
 44
0.00375
 45
0.0
 46
0.0
 47
0.0
 48
0.0
 49
2.5
140
0.0025
141
2.5
142
0.00125
143
0.03937007874
144
100.0
145
0.0
146
0.5
147
0.001
148
0.0
 69
0
 70
0
 71
0
 72
0
 73
0
 74
0
 75
0
 76
0
 77
1
 78
12
 79
3
170
0
171
3
172
1
173
0
174
0
175
0
176
0
177
0
178
0
179
2
271
2
272
2
273
2
274
3
275
0
276
0
277
2
278
46
279
2
280
0
281
0
282
0
283
0
284
8
285
0
286
0
288
1
289
3
290
0
340
4C
371
-2
372
-2
  0
DIMSTYLE
105
83
330
4
100
AcDbSymbolTableRecord
100
AcDbDimStyleTableRecord
  2
EZ_RADIUS
 70
0
 40
1.0
 41
0.25
 42
0.125
 43
3.75
 44
0.375
 45
0.0
 46
0.0
 47
0.0
 48
0.0
 49
2.5
140
0.25
141
0.0
142
0.0
143
0.03937007874
144
100.0
145
0.0
146
0.5
147
0.1
148
0.0
 69
0
 70
0
 71
0
 72
0
 73
0
 74
0
 75
0
 76
0
 77
1
 78
12
 79
3
170
0
171
3
172
0
173
0
174
0
175
0
176
0
177
0
178
0
179
2
271
2
272
2
273
2
274
3
275
0
276
0
277
2
278
46
279
1
280
0
281
0
282
0
283
0
284
8
285
0
286
0
288
1
289
3
290
0
340
4C
342
84
371
-2
372
-2
  0
DIMSTYLE
105
88
330
4
100
AcDbSymbolTableRecord
100
AcDbDimStyleTableRecord
  2
EZ_RADIUS_INSIDE
 70
0
 40
1.0
 41
0.25
 42
0.125
 43
3.75
 44
0.375
 45
0.0
 46
0.0
 47
0.0
 48
0.0
 49
2.5
140
0.25
141
0.0
142
0.0
143
0.03937007874
144
100.0
145
0.0
146
0.5
147
0.1
148
0.0
 69
0
 70
0
 71
0
 72
0
 73
0
 74
0
 75
0
 76
0
 77
0
 78
12
 79
3
170
0
171
3
172
0
173
0
174
1
175
0
176
0
177
0
178
0
179
2
271
2
272
2
273
2
274
3
275
0
276
0
277
2
278
46
279
0
280
0
281
0
282
0
283
0
284
8
285
0
286
0
288
1
289
0
290
0
340
4C
342
84
371
-2
372
-2
  0
DIMSTYLE
105
89
330
4
100
AcDbSymbolTableRecord
100
AcDbDimStyleTableRecord
  2
EZ_CURVED
 70
0
 40
1.0
 41
0.25
 42
0.125
 43
3.75
 44
0.375
 45
0.0
 46
0.0
 47
0.0
 48
0.0
 49
2.5
140
0.25
141
2.5
142
0.0
143
0.03937007874
144
100.0
145
0.0
146
0.5
147
0.1
148
0.0
 69
0
 70
0
 71
0
 72
0
 73
0
 74
0
 75
0
 76
0
 77
1
 78
12
 79
2
 90
2
170
0
171
3
172
1
173
0
174
0
175
0
176
0
177
0
178
0
179
2
271
2
272
2
273
2
274
3
275
0
276
0
277
2
278
46
279
2
280
0
281
0
282
0
283
0
284
8
285
0
286
0
288
1
289
3
290
0
340
4C
371
-2
372
-2
  0
ENDTAB
  0
TABLE
  2
BLOCK_RECORD
  5
9
330
0
100
AcDbSymbolTable
 70
5
  0
BLOCK_RECORD
  5
17
330
9
100
AcDbSymbolTableRecord
100
AcDbBlockTableRecord
  2
*Model_Space
340
1A
 70
0
280
1
281
0
  0
BLOCK_RECORD
  5
1B
330
9
100
AcDbSymbolTableRecord
100
AcDbBlockTableRecord
  2
*Paper_Space
340
1E
 70
0
280
1
281
0
  0
BLOCK_RECORD
  5
74
330
9
100
AcDbSymbolTableRecord
100
AcDbBlockTableRecord
  2
_ARCHTICK
340
0
 70
0
280
1
281
0
  0
BLOCK_RECORD
  5
78
330
9
100
AcDbSymbolTableRecord
100
AcDbBlockTableRecord
  2
_CLOSEDFILLED
340
0
 70
0
280
1
281
0
  0
BLOCK_RECORD
  5
84
330
9
100
AcDbSymbolTableRecord
100
AcDbBlockTableRecord
  2
_CLOSEDBLANK
340
0
 70
0
280
1
281
0
  0
ENDTAB
  0
ENDSEC
  0
SECTION
  2
BLOCKS
  0
BLOCK
  5
18
330
17
100
AcDbEntity
  8
0
100
AcDbBlockBegin
  2
*Model_Space
 70
0
 10
0.0
 20
0.0
 30
0.0
  3
*Model_Space
  1

  0
ENDBLK
  5
19
330
17
100
AcDbEntity
  8
0
100
AcDbBlockEnd
  0
BLOCK
  5
1C
330
1B
100
AcDbEntity
  8
0
100
AcDbBlockBegin
  2
*Paper_Space
 70
0
 10
0.0
 20
0.0
 30
0.0
  3
*Paper_Space
  1

  0
ENDBLK
  5
1D
330
1B
100
AcDbEntity
  8
0
100
AcDbBlockEnd
  0
BLOCK
  5
75
330
74
100
AcDbEntity
  8
0
100
AcDbBlockBegin
  2
_ARCHTICK
 70
0
 10
0.0
 20
0.0
 30
0.0
  3
_ARCHTICK
  1

  0
LWPOLYLINE
  5
77
330
74
100
AcDbEntity
  8
0
  6
BYBLOCK
 62
0
100
AcDbPolyline
 90
2
 70
0
 43
0.15
 10
-0.5
 20
-0.5
 10
0.5
 20
0.5
  0
ENDBLK
  5
76
330
74
100
AcDbEntity
  8
0
100
AcDbBlockEnd
  0
BLOCK
  5
79
330
78
100
AcDbEntity
  8
0
100
AcDbBlockBegin
  2
_CLOSEDFILLED
 70
0
 10
0.0
 20
0.0
 30
0.0
  3
_CLOSEDFILLED
  1

  0
SOLID
  5
7B
330
78
100
AcDbEntity
  8
0
  6
BYBLOCK
 62
0
100
AcDbTrace
 10
-1.0
 20
0.16439898372402537
 30
0.0
 11
0.0
 21
0.0
 31
0.0
 12
-1.0
 22
-0.16439898372402537
 32
0.0
 13
-1.0
 23
-0.16439898372402537
 33
0.0
  0
ENDBLK
  5
7A
330
78
100
AcDbEntity
  8
0
100
AcDbBlockEnd
  0
BLOCK
  5
85
330
84
100
AcDbEntity
  8
0
100
AcDbBlockBegin
  2
_CLOSEDBLANK
 70
0
 10
0.0
 20
0.0
 30
0.0
  3
_CLOSEDBLANK
  1

  0
LWPOLYLINE
  5
87
330
84
100
AcDbEntity
  8
0
  6
BYBLOCK
 62
0
100
AcDbPolyline
 90
3
 70
1
 10
-1.0
 20
0.16439898372402537
 10
0.0
 20
0.0
 10
-1.0
 20
-0.16439898372402537
  0
ENDBLK
  5
86
330
84
100
AcDbEntity
  8
0
100
AcDbBlockEnd
  0
ENDSEC
  0
SECTION
  2
ENTITIES
  0
HATCH
  5
94
330
17
100
AcDbEntity
  8
A-HATCH
 62
7
100
AcDbHatch
 10
0.0
 20
0.0
 30
0.0
210
0.0
220
0.0
230
1.0
  2
LINE
 70
0
 71
0
 91
1
 92
3
 72
0
 73
1
 93
4
 10
6.0
 20
16.0
 10
13.0
 20
16.0
 10
13.0
 20
21.0
 10
6.0
 20
21.0
 97
0
 75
1
 76
1
 52
0.0
 41
0.075
 77
0
 78
1
 53
0.0
 43
0.0
 44
0.0
 45
0.0
 46
0.238125
 79
0
 98
0
  0
LWPOLYLINE
  5
95
330
17
100
AcDbEntity
  8
A-THIN
100
AcDbPolyline
 90
4
 70
1
 10
6.0
 20
16.0
 10
13.0
 20
16.0
 10
13.0
 20
21.0
 10
6.0
 20
21.0
  0
HATCH
  5
96
330
17
100
AcDbEntity
  8
A-HATCH
 62
7
100
AcDbHatch
 10
0.0
 20
0.0
 30
0.0
210
0.0
220
0.0
230
1.0
  2
LINE
 70
0
 71
0
 91
1
 92
3
 72
0
 73
1
 93
4
 10
13.0
 20
19.6
 10
21.8
 20
19.6
 10
21.8
 20
21.0
 10
13.0
 20
21.0
 97
0
 75
1
 76
1
 52
0.0
 41
0.075
 77
0
 78
1
 53
0.0
 43
0.0
 44
0.0
 45
0.0
 46
0.238125
 79
0
 98
0
  0
LWPOLYLINE
  5
97
330
17
100
AcDbEntity
  8
A-THIN
100
AcDbPolyline
 90
4
 70
1
 10
13.0
 20
19.6
 10
21.8
 20
19.6
 10
21.8
 20
21.0
 10
13.0
 20
21.0
  0
HATCH
  5
98
330
17
100
AcDbEntity
  8
A-HATCH
 62
7
100
AcDbHatch
 10
0.0
 20
0.0
 30
0.0
210
0.0
220
0.0
230
1.0
  2
NET
 70
0
 71
0
 91
1
 92
3
 72
0
 73
1
 93
4
 10
21.8
 20
16.8
 10
25.0
 20
16.8
 10
25.0
 20
21.0
 10
21.8
 20
21.0
 97
0
 75
1
 76
1
 52
0.0
 41
0.3
 77
0
 78
2
 53
0.0
 43
0.0
 44
0.0
 45
0.0
 46
0.9525
 79
0
 53
90.0
 43
0.0
 44
0.0
 45
-0.9525
 46
0.0
 79
0
 98
0
  0
LWPOLYLINE
  5
99
330
17
100
AcDbEntity
  8
A-THIN
100
AcDbPolyline
 90
4
 70
1
 10
21.8
 20
16.8
 10
25.0
 20
16.8
 10
25.0
 20
21.0
 10
21.8
 20
21.0
  0
LWPOLYLINE
  5
9A
330
17
100
AcDbEntity
  8
A-THIN
100
AcDbPolyline
 90
4
 70
1
 10
14.0
 20
17.0
 10
21.5
 20
17.0
 10
21.5
 20
19.6
 10
14.0
 20
19.6
  0
LINE
  5
9B
330
17
100
AcDbEntity
  8
A-THIN
100
AcDbLine
 10
14.0
 20
17.0
 30
0.0
 11
21.5
 21
19.6
 31
0.0
  0
LINE
  5
9C
330
17
100
AcDbEntity
  8
A-THIN
100
AcDbLine
 10
14.0
 20
19.6
 30
0.0
 11
21.5
 21
17.0
 31
0.0
  0
TEXT
  5
9D
330
17
100
AcDbEntity
  8
A-TEXT
100
AcDbText
 10
17.75
 20
18.1
 30
0.0
 40
0.13
  1
חלל פטיו שקוע
 11
17.75
 21
18.1
 31
0.0
100
AcDbText
  0
HATCH
  5
9E
330
17
100
AcDbEntity
  8
A-HATCH
 62
7
100
AcDbHatch
 10
0.0
 20
0.0
 30
0.0
210
0.0
220
0.0
230
1.0
  2
NET
 70
0
 71
0
 91
1
 92
3
 72
0
 73
1
 93
4
 10
25.0
 20
28.8
 10
27.6
 20
28.8
 10
27.6
 20
30.8
 10
25.0
 20
30.8
 97
0
 75
1
 76
1
 52
0.0
 41
0.3
 77
0
 78
2
 53
0.0
 43
0.0
 44
0.0
 45
0.0
 46
0.9525
 79
0
 53
90.0
 43
0.0
 44
0.0
 45
-0.9525
 46
0.0
 79
0
 98
0
  0
LWPOLYLINE
  5
9F
330
17
100
AcDbEntity
  8
A-THIN
100
AcDbPolyline
 90
4
 70
1
 10
25.0
 20
28.8
 10
27.6
 20
28.8
 10
27.6
 20
30.8
 10
25.0
 20
30.8
  0
LWPOLYLINE
  5
A0
330
17
100
AcDbEntity
  8
A-FURN
100
AcDbPolyline
 90
4
 70
1
 10
12.0
 20
26.7
 10
12.0
 20
30.599999999999998
 10
7.0
 20
30.599999999999998
 10
7.0
 20
26.7
  0
LWPOLYLINE
  5
A1
330
17
100
AcDbEntity
  8
A-FURN
100
AcDbPolyline
 90
6
 70
1
 10
11.4
 20
28.6
 10
10.4
 20
28.6
 10
10.4
 20
27.0
 10
7.2
 20
27.0
 10
7.2
 20
26.0
 10
11.4
 20
26.0
  0
LWPOLYLINE
  5
A2
330
17
100
AcDbEntity
  8
A-FURN
100
AcDbPolyline
 90
3
 70
0
 10
11.18
 20
28.55
 10
11.18
 20
26.220000000000002
 10
7.25
 20
26.220000000000002
  0
LWPOLYLINE
  5
A3
330
17
100
AcDbEntity
  8
A-FURN
100
AcDbPolyline
 90
2
 70
0
 10
9.72
 20
26.950000000000003
 10
9.72
 20
26.220000000000002
  0
LWPOLYLINE
  5
A4
330
17
100
AcDbEntity
  8
A-FURN
100
AcDbPolyline
 90
2
 70
0
 10
8.46
 20
26.950000000000003
 10
8.46
 20
26.220000000000002
  0
LWPOLYLINE
  5
A5
330
17
100
AcDbEntity
  8
A-FURN
100
AcDbPolyline
 90
2
 70
0
 10
11.15
 20
27.0
 10
10.4
 20
27.0
  0
LWPOLYLINE
  5
A6
330
17
100
AcDbEntity
  8
A-FURN
100
AcDbPolyline
 90
28
 70
1
 10
10.299999999999999
 20
29.759999999999998
 10
10.29863703305156
 20
29.770352761804098
 10
10.294641016151376
 20
29.779999999999998
 10
10.288284271247461
 20
29.78828427124746
 10
10.28
 20
29.794641016151377
 10
10.2703527618041
 20
29.798637033051563
 10
10.26
 20
29.799999999999997
 10
8.739999999999998
 20
29.799999999999997
 10
8.729647238195898
 20
29.798637033051563
 10
8.719999999999999
 20
29.794641016151377
 10
8.711715728752537
 20
29.78828427124746
 10
8.70535898384862
 20
29.779999999999998
 10
8.701362966948436
 20
29.770352761804098
 10
8.7
 20
29.759999999999998
 10
8.7
 20
28.939999999999998
 10
8.701362966948436
 20
28.929647238195898
 10
8.70535898384862
 20
28.919999999999998
 10
8.711715728752537
 20
28.911715728752537
 10
8.719999999999999
 20
28.905358983848622
 10
8.729647238195898
 20
28.901362966948437
 10
8.739999999999998
 20
28.9
 10
10.26
 20
28.9
 10
10.2703527618041
 20
28.901362966948437
 10
10.28
 20
28.905358983848622
 10
10.288284271247461
 20
28.911715728752537
 10
10.294641016151376
 20
28.919999999999998
 10
10.29863703305156
 20
28.929647238195898
 10
10.299999999999999
 20
28.939999999999998
  0
LWPOLYLINE
  5
A7
330
17
100
AcDbEntity
  8
A-FURN
100
AcDbPolyline
 90
28
 70
1
 10
11.4
 20
28.68
 10
11.402725933896875
 20
28.6592944763918
 10
11.410717967697245
 20
28.64
 10
11.423431457505076
 20
28.623431457505077
 10
11.44
 20
28.610717967697244
 10
11.459294476391799
 20
28.602725933896874
 10
11.48
 20
28.6
 10
12.22
 20
28.6
 10
12.240705523608202
 20
28.602725933896874
 10
12.26
 20
28.610717967697244
 10
12.276568542494925
 20
28.623431457505077
 10
12.289282032302756
 20
28.64
 10
12.297274066103126
 20
28.6592944763918
 10
12.3
 20
28.68
 10
12.3
 20
29.42
 10
12.297274066103126
 20
29.4407055236082
 10
12.289282032302756
 20
29.46
 10
12.276568542494925
 20
29.476568542494924
 10
12.26
 20
29.489282032302754
 10
12.240705523608202
 20
29.497274066103124
 10
12.22
 20
29.5
 10
11.48
 20
29.5
 10
11.459294476391799
 20
29.497274066103124
 10
11.44
 20
29.489282032302754
 10
11.423431457505076
 20
29.476568542494924
 10
11.410717967697245
 20
29.46
 10
11.402725933896875
 20
29.4407055236082
 10
11.4
 20
29.42
  0
LWPOLYLINE
  5
A8
330
17
100
AcDbEntity
  8
A-FURN
100
AcDbPolyline
 90
4
 70
1
 10
12.1
 20
29.38
 10
12.1
 20
28.72
 10
12.3
 20
28.72
 10
12.3
 20
29.38
  0
LWPOLYLINE
  5
A9
330
17
100
AcDbEntity
  8
A-FURN
100
AcDbPolyline
 90
4
 70
1
 10
11.450000000000001
 20
29.5
 10
11.450000000000001
 20
29.38
 10
12.3
 20
29.38
 10
12.3
 20
29.5
  0
LWPOLYLINE
  5
AA
330
17
100
AcDbEntity
  8
A-FURN
100
AcDbPolyline
 90
4
 70
1
 10
11.450000000000001
 20
28.72
 10
11.450000000000001
 20
28.6
 10
12.3
 20
28.6
 10
12.3
 20
28.72
  0
LWPOLYLINE
  5
AB
330
17
100
AcDbEntity
  8
A-FURN
100
AcDbPolyline
 90
4
 70
1
 10
8.45
 20
31.15
 10
10.85
 20
31.15
 10
10.85
 20
31.7
 10
8.45
 20
31.7
  0
LWPOLYLINE
  5
AC
330
17
100
AcDbEntity
  8
A-FURN
100
AcDbPolyline
 90
4
 70
1
 10
8.649999999999999
 20
31.209999999999997
 10
10.649999999999999
 20
31.209999999999997
 10
10.649999999999999
 20
31.424999999999997
 10
8.649999999999999
 20
31.424999999999997
  0
LWPOLYLINE
  5
AD
330
17
100
AcDbEntity
  8
A-FURN
100
AcDbPolyline
 90
11
 70
0
 10
8.75
 20
31.27
 10
8.93
 20
31.389999999999997
 10
9.11
 20
31.27
 10
9.29
 20
31.389999999999997
 10
9.469999999999999
 20
31.27
 10
9.649999999999999
 20
31.389999999999997
 10
9.829999999999998
 20
31.27
 10
10.01
 20
31.389999999999997
 10
10.19
 20
31.27
 10
10.37
 20
31.389999999999997
 10
10.549999999999999
 20
31.27
  0
LWPOLYLINE
  5
AE
330
17
100
AcDbEntity
  8
A-FURN
100
AcDbPolyline
 90
4
 70
1
 10
12.25
 20
30.6
 10
12.25
 20
26.0
 10
12.7
 20
26.0
 10
12.7
 20
30.6
  0
LWPOLYLINE
  5
AF
330
17
100
AcDbEntity
  8
A-FURN
100
AcDbPolyline
 90
2
 70
0
 10
12.475
 20
30.57
 10
12.475
 20
26.03
  0
LWPOLYLINE
  5
B0
330
17
100
AcDbEntity
  8
A-FURN
100
AcDbPolyline
 90
2
 70
0
 10
12.25
 20
30.6
 10
12.31
 20
30.6
  0
LWPOLYLINE
  5
B1
330
17
100
AcDbEntity
  8
A-FURN
100
AcDbPolyline
 90
2
 70
0
 10
12.25
 20
30.08888888888889
 10
12.31
 20
30.08888888888889
  0
LWPOLYLINE
  5
B2
330
17
100
AcDbEntity
  8
A-FURN
100
AcDbPolyline
 90
2
 70
0
 10
12.25
 20
29.57777777777778
 10
12.31
 20
29.57777777777778
  0
LWPOLYLINE
  5
B3
330
17
100
AcDbEntity
  8
A-FURN
100
AcDbPolyline
 90
2
 70
0
 10
12.25
 20
29.06666666666667
 10
12.31
 20
29.06666666666667
  0
LWPOLYLINE
  5
B4
330
17
100
AcDbEntity
  8
A-FURN
100
AcDbPolyline
 90
2
 70
0
 10
12.25
 20
28.555555555555557
 10
12.31
 20
28.555555555555557
  0
LWPOLYLINE
  5
B5
330
17
100
AcDbEntity
  8
A-FURN
100
AcDbPolyline
 90
2
 70
0
 10
12.25
 20
28.044444444444444
 10
12.31
 20
28.044444444444444
  0
LWPOLYLINE
  5
B6
330
17
100
AcDbEntity
  8
A-FURN
100
AcDbPolyline
 90
2
 70
0
 10
12.25
 20
27.533333333333335
 10
12.31
 20
27.533333333333335
  0
LWPOLYLINE
  5
B7
330
17
100
AcDbEntity
  8
A-FURN
100
AcDbPolyline
 90
2
 70
0
 10
12.25
 20
27.022222222222226
 10
12.31
 20
27.022222222222226
  0
LWPOLYLINE
  5
B8
330
17
100
AcDbEntity
  8
A-FURN
100
AcDbPolyline
 90
2
 70
0
 10
12.25
 20
26.511111111111113
 10
12.31
 20
26.511111111111113
  0
LWPOLYLINE
  5
B9
330
17
100
AcDbEntity
  8
A-FURN
100
AcDbPolyline
 90
2
 70
0
 10
12.25
 20
26.0
 10
12.31
 20
26.0
  0
LWPOLYLINE
  5
BA
330
17
100
AcDbEntity
  8
A-FURN
100
AcDbPolyline
 90
2
 70
0
 10
12.355
 20
30.540000000000003
 10
12.595
 20
30.520000000000003
  0
LWPOLYLINE
  5
BB
330
17
100
AcDbEntity
  8
A-FURN
100
AcDbPolyline
 90
2
 70
0
 10
12.355
 20
30.42
 10
12.595
 20
30.400000000000002
  0
LWPOLYLINE
  5
BC
330
17
100
AcDbEntity
  8
A-FURN
100
AcDbPolyline
 90
2
 70
0
 10
12.355
 20
30.3
 10
12.595
 20
30.28
  0
LWPOLYLINE
  5
BD
330
17
100
AcDbEntity
  8
A-FURN
100
AcDbPolyline
 90
2
 70
0
 10
12.355
 20
30.18
 10
12.595
 20
30.16
  0
LWPOLYLINE
  5
BE
330
17
100
AcDbEntity
  8
A-FURN
100
AcDbPolyline
 90
2
 70
0
 10
12.355
 20
30.060000000000002
 10
12.595
 20
30.040000000000003
  0
LWPOLYLINE
  5
BF
330
17
100
AcDbEntity
  8
A-FURN
100
AcDbPolyline
 90
2
 70
0
 10
12.355
 20
29.94
 10
12.595
 20
29.92
  0
LWPOLYLINE
  5
C0
330
17
100
AcDbEntity
  8
A-FURN
100
AcDbPolyline
 90
2
 70
0
 10
12.355
 20
29.82
 10
12.595
 20
29.8
  0
LWPOLYLINE
  5
C1
330
17
100
AcDbEntity
  8
A-FURN
100
AcDbPolyline
 90
2
 70
0
 10
12.355
 20
29.700000000000003
 10
12.595
 20
29.68
  0
LWPOLYLINE
  5
C2
330
17
100
AcDbEntity
  8
A-FURN
100
AcDbPolyline
 90
2
 70
0
 10
12.355
 20
29.580000000000002
 10
12.595
 20
29.560000000000002
  0
LWPOLYLINE
  5
C3
330
17
100
AcDbEntity
  8
A-FURN
100
AcDbPolyline
 90
2
 70
0
 10
12.355
 20
29.46
 10
12.595
 20
29.44
  0
LWPOLYLINE
  5
C4
330
17
100
AcDbEntity
  8
A-FURN
100
AcDbPolyline
 90
2
 70
0
 10
12.355
 20
29.34
 10
12.595
 20
29.32
  0
LWPOLYLINE
  5
C5
330
17
100
AcDbEntity
  8
A-FURN
100
AcDbPolyline
 90
2
 70
0
 10
12.355
 20
29.220000000000002
 10
12.595
 20
29.200000000000003
  0
LWPOLYLINE
  5
C6
330
17
100
AcDbEntity
  8
A-FURN
100
AcDbPolyline
 90
2
 70
0
 10
12.355
 20
29.1
 10
12.595
 20
29.080000000000002
  0
LWPOLYLINE
  5
C7
330
17
100
AcDbEntity
  8
A-FURN
100
AcDbPolyline
 90
2
 70
0
 10
12.355
 20
28.98
 10
12.595
 20
28.96
  0
LWPOLYLINE
  5
C8
330
17
100
AcDbEntity
  8
A-FURN
100
AcDbPolyline
 90
2
 70
0
 10
12.355
 20
28.860000000000003
 10
12.595
 20
28.84
  0
LWPOLYLINE
  5
C9
330
17
100
AcDbEntity
  8
A-FURN
100
AcDbPolyline
 90
2
 70
0
 10
12.355
 20
28.740000000000002
 10
12.595
 20
28.720000000000002
  0
LWPOLYLINE
  5
CA
330
17
100
AcDbEntity
  8
A-FURN
100
AcDbPolyline
 90
2
 70
0
 10
12.355
 20
28.62
 10
12.595
 20
28.6
  0
LWPOLYLINE
  5
CB
330
17
100
AcDbEntity
  8
A-FURN
100
AcDbPolyline
 90
2
 70
0
 10
12.355
 20
28.5
 10
12.595
 20
28.48
  0
LWPOLYLINE
  5
CC
330
17
100
AcDbEntity
  8
A-FURN
100
AcDbPolyline
 90
2
 70
0
 10
12.355
 20
28.380000000000003
 10
12.595
 20
28.36
  0
LWPOLYLINE
  5
CD
330
17
100
AcDbEntity
  8
A-FURN
100
AcDbPolyline
 90
2
 70
0
 10
12.355
 20
28.26
 10
12.595
 20
28.240000000000002
  0
LWPOLYLINE
  5
CE
330
17
100
AcDbEntity
  8
A-FURN
100
AcDbPolyline
 90
2
 70
0
 10
12.355
 20
28.14
 10
12.595
 20
28.12
  0
LWPOLYLINE
  5
CF
330
17
100
AcDbEntity
  8
A-FURN
100
AcDbPolyline
 90
2
 70
0
 10
12.355
 20
28.020000000000003
 10
12.595
 20
28.0
  0
LWPOLYLINE
  5
D0
330
17
100
AcDbEntity
  8
A-FURN
100
AcDbPolyline
 90
2
 70
0
 10
12.355
 20
27.900000000000002
 10
12.595
 20
27.880000000000003
  0
LWPOLYLINE
  5
D1
330
17
100
AcDbEntity
  8
A-FURN
100
AcDbPolyline
 90
2
 70
0
 10
12.355
 20
27.78
 10
12.595
 20
27.76
  0
LWPOLYLINE
  5
D2
330
17
100
AcDbEntity
  8
A-FURN
100
AcDbPolyline
 90
2
 70
0
 10
12.355
 20
27.66
 10
12.595
 20
27.64
  0
LWPOLYLINE
  5
D3
330
17
100
AcDbEntity
  8
A-FURN
100
AcDbPolyline
 90
2
 70
0
 10
12.355
 20
27.540000000000003
 10
12.595
 20
27.520000000000003
  0
LWPOLYLINE
  5
D4
330
17
100
AcDbEntity
  8
A-FURN
100
AcDbPolyline
 90
2
 70
0
 10
12.355
 20
27.42
 10
12.595
 20
27.400000000000002
  0
LWPOLYLINE
  5
D5
330
17
100
AcDbEntity
  8
A-FURN
100
AcDbPolyline
 90
2
 70
0
 10
12.355
 20
27.3
 10
12.595
 20
27.28
  0
LWPOLYLINE
  5
D6
330
17
100
AcDbEntity
  8
A-FURN
100
AcDbPolyline
 90
2
 70
0
 10
12.355
 20
27.18
 10
12.595
 20
27.16
  0
LWPOLYLINE
  5
D7
330
17
100
AcDbEntity
  8
A-FURN
100
AcDbPolyline
 90
2
 70
0
 10
12.355
 20
27.060000000000002
 10
12.595
 20
27.040000000000003
  0
LWPOLYLINE
  5
D8
330
17
100
AcDbEntity
  8
A-FURN
100
AcDbPolyline
 90
2
 70
0
 10
12.355
 20
26.94
 10
12.595
 20
26.92
  0
LWPOLYLINE
  5
D9
330
17
100
AcDbEntity
  8
A-FURN
100
AcDbPolyline
 90
2
 70
0
 10
12.355
 20
26.82
 10
12.595
 20
26.8
  0
LWPOLYLINE
  5
DA
330
17
100
AcDbEntity
  8
A-FURN
100
AcDbPolyline
 90
2
 70
0
 10
12.355
 20
26.700000000000003
 10
12.595
 20
26.68
  0
LWPOLYLINE
  5
DB
330
17
100
AcDbEntity
  8
A-FURN
100
AcDbPolyline
 90
2
 70
0
 10
12.355
 20
26.580000000000002
 10
12.595
 20
26.560000000000002
  0
LWPOLYLINE
  5
DC
330
17
100
AcDbEntity
  8
A-FURN
100
AcDbPolyline
 90
2
 70
0
 10
12.355
 20
26.46
 10
12.595
 20
26.44
  0
LWPOLYLINE
  5
DD
330
17
100
AcDbEntity
  8
A-FURN
100
AcDbPolyline
 90
2
 70
0
 10
12.355
 20
26.340000000000003
 10
12.595
 20
26.32
  0
LWPOLYLINE
  5
DE
330
17
100
AcDbEntity
  8
A-FURN
100
AcDbPolyline
 90
2
 70
0
 10
12.355
 20
26.220000000000002
 10
12.595
 20
26.200000000000003
  0
LWPOLYLINE
  5
DF
330
17
100
AcDbEntity
  8
A-FURN
100
AcDbPolyline
 90
2
 70
0
 10
12.355
 20
26.1
 10
12.595
 20
26.080000000000002
  0
LWPOLYLINE
  5
E0
330
17
100
AcDbEntity
  8
A-FURN
100
AcDbPolyline
 90
28
 70
1
 10
8.02
 20
22.4
 10
8.040705523608201
 20
22.402725933896875
 10
8.06
 20
22.410717967697245
 10
8.076568542494924
 20
22.423431457505075
 10
8.089282032302755
 20
22.439999999999998
 10
8.097274066103125
 20
22.459294476391797
 10
8.1
 20
22.479999999999997
 10
8.1
 20
23.22
 10
8.097274066103125
 20
23.2407055236082
 10
8.089282032302755
 20
23.259999999999998
 10
8.076568542494924
 20
23.27656854249492
 10
8.06
 20
23.289282032302754
 10
8.040705523608201
 20
23.297274066103125
 10
8.02
 20
23.299999999999997
 10
7.28
 20
23.299999999999997
 10
7.259294476391799
 20
23.297274066103125
 10
7.24
 20
23.289282032302754
 10
7.223431457505076
 20
23.27656854249492
 10
7.210717967697245
 20
23.259999999999998
 10
7.2027259338968745
 20
23.2407055236082
 10
7.2
 20
23.22
 10
7.2
 20
22.479999999999997
 10
7.2027259338968745
 20
22.459294476391797
 10
7.210717967697245
 20
22.439999999999998
 10
7.223431457505076
 20
22.423431457505075
 10
7.24
 20
22.410717967697245
 10
7.259294476391799
 20
22.402725933896875
 10
7.28
 20
22.4
  0
LWPOLYLINE
  5
E1
330
17
100
AcDbEntity
  8
A-FURN
100
AcDbPolyline
 90
4
 70
1
 10
7.32
 20
23.099999999999998
 10
7.98
 20
23.099999999999998
 10
7.98
 20
23.299999999999997
 10
7.32
 20
23.299999999999997
  0
LWPOLYLINE
  5
E2
330
17
100
AcDbEntity
  8
A-FURN
100
AcDbPolyline
 90
4
 70
1
 10
7.2
 20
22.45
 10
7.32
 20
22.45
 10
7.32
 20
23.299999999999997
 10
7.2
 20
23.299999999999997
  0
LWPOLYLINE
  5
E3
330
17
100
AcDbEntity
  8
A-FURN
100
AcDbPolyline
 90
4
 70
1
 10
7.98
 20
22.45
 10
8.1
 20
22.45
 10
8.1
 20
23.299999999999997
 10
7.98
 20
23.299999999999997
  0
LWPOLYLINE
  5
E4
330
17
100
AcDbEntity
  8
A-FURN
100
AcDbPolyline
 90
28
 70
1
 10
9.32
 20
22.4
 10
9.340705523608202
 20
22.402725933896875
 10
9.36
 20
22.410717967697245
 10
9.376568542494924
 20
22.423431457505075
 10
9.389282032302756
 20
22.439999999999998
 10
9.397274066103126
 20
22.459294476391797
 10
9.4
 20
22.479999999999997
 10
9.4
 20
23.22
 10
9.397274066103126
 20
23.2407055236082
 10
9.389282032302756
 20
23.259999999999998
 10
9.376568542494924
 20
23.27656854249492
 10
9.36
 20
23.289282032302754
 10
9.340705523608202
 20
23.297274066103125
 10
9.32
 20
23.299999999999997
 10
8.58
 20
23.299999999999997
 10
8.559294476391798
 20
23.297274066103125
 10
8.54
 20
23.289282032302754
 10
8.523431457505076
 20
23.27656854249492
 10
8.510717967697245
 20
23.259999999999998
 10
8.502725933896874
 20
23.2407055236082
 10
8.5
 20
23.22
 10
8.5
 20
22.479999999999997
 10
8.502725933896874
 20
22.459294476391797
 10
8.510717967697245
 20
22.439999999999998
 10
8.523431457505076
 20
22.423431457505075
 10
8.54
 20
22.410717967697245
 10
8.559294476391798
 20
22.402725933896875
 10
8.58
 20
22.4
  0
LWPOLYLINE
  5
E5
330
17
100
AcDbEntity
  8
A-FURN
100
AcDbPolyline
 90
4
 70
1
 10
8.62
 20
23.099999999999998
 10
9.28
 20
23.099999999999998
 10
9.28
 20
23.299999999999997
 10
8.62
 20
23.299999999999997
  0
LWPOLYLINE
  5
E6
330
17
100
AcDbEntity
  8
A-FURN
100
AcDbPolyline
 90
4
 70
1
 10
8.5
 20
22.45
 10
8.62
 20
22.45
 10
8.62
 20
23.299999999999997
 10
8.5
 20
23.299999999999997
  0
LWPOLYLINE
  5
E7
330
17
100
AcDbEntity
  8
A-FURN
100
AcDbPolyline
 90
4
 70
1
 10
9.28
 20
22.45
 10
9.4
 20
22.45
 10
9.4
 20
23.299999999999997
 10
9.28
 20
23.299999999999997
  0
LWPOLYLINE
  5
E8
330
17
100
AcDbEntity
  8
A-FURN
100
AcDbPolyline
 90
28
 70
1
 10
8.55
 20
24.11
 10
8.548637033051563
 20
24.120352761804103
 10
8.544641016151377
 20
24.13
 10
8.538284271247463
 20
24.138284271247464
 10
8.530000000000001
 20
24.14464101615138
 10
8.520352761804102
 20
24.148637033051564
 10
8.510000000000002
 20
24.150000000000002
 10
7.790000000000001
 20
24.150000000000002
 10
7.7796472381959
 20
24.148637033051564
 10
7.7700000000000005
 20
24.14464101615138
 10
7.761715728752539
 20
24.138284271247464
 10
7.755358983848623
 20
24.13
 10
7.751362966948438
 20
24.120352761804103
 10
7.750000000000001
 20
24.11
 10
7.750000000000001
 20
23.59
 10
7.751362966948438
 20
23.5796472381959
 10
7.755358983848623
 20
23.57
 10
7.761715728752539
 20
23.56171572875254
 10
7.7700000000000005
 20
23.555358983848624
 10
7.7796472381959
 20
23.55136296694844
 10
7.790000000000001
 20
23.55
 10
8.510000000000002
 20
23.55
 10
8.520352761804102
 20
23.55136296694844
 10
8.530000000000001
 20
23.555358983848624
 10
8.538284271247463
 20
23.56171572875254
 10
8.544641016151377
 20
23.57
 10
8.548637033051563
 20
23.5796472381959
 10
8.55
 20
23.59
  0
LWPOLYLINE
  5
E9
330
17
100
AcDbEntity
  8
A-FURN
100
AcDbPolyline
 90
6
 70
1
 10
10.6
 20
23.9
 10
12.1
 20
23.9
 10
12.1
 20
22.855
 10
11.725
 20
22.19
 10
11.125
 20
22.0
 10
10.6
 20
22.665
  0
LWPOLYLINE
  5
EA
330
17
100
AcDbEntity
  8
A-FURN
100
AcDbPolyline
 90
4
 70
1
 10
10.65
 20
23.72
 10
12.049999999999999
 20
23.72
 10
12.049999999999999
 20
23.87
 10
10.65
 20
23.87
  0
LWPOLYLINE
  5
EB
330
17
100
AcDbEntity
  8
A-FURN
100
AcDbPolyline
 90
4
 70
1
 10
14.4
 20
22.65
 10
17.8
 20
22.65
 10
17.8
 20
23.849999999999998
 10
14.4
 20
23.849999999999998
  0
LWPOLYLINE
  5
EC
330
17
100
AcDbEntity
  8
A-FURN
100
AcDbPolyline
 90
28
 70
1
 10
14.98
 20
22.119999999999997
 10
14.995529142706152
 20
22.122044450422653
 10
15.01
 20
22.128038475772932
 10
15.022426406871194
 20
22.137573593128806
 10
15.031961524227066
 20
22.15
 10
15.037955549577344
 20
22.164470857293846
 10
15.040000000000001
 20
22.18
 10
15.040000000000001
 20
22.479999999999997
 10
15.037955549577344
 20
22.49552914270615
 10
15.031961524227066
 20
22.509999999999998
 10
15.022426406871194
 20
22.52242640687119
 10
15.01
 20
22.531961524227064
 10
14.995529142706152
 20
22.537955549577344
 10
14.98
 20
22.54
 10
14.66
 20
22.54
 10
14.644470857293848
 20
22.537955549577344
 10
14.63
 20
22.531961524227064
 10
14.617573593128807
 20
22.52242640687119
 10
14.608038475772934
 20
22.509999999999998
 10
14.602044450422657
 20
22.49552914270615
 10
14.6
 20
22.479999999999997
 10
14.6
 20
22.18
 10
14.602044450422657
 20
22.164470857293846
 10
14.608038475772934
 20
22.15
 10
14.617573593128807
 20
22.137573593128806
 10
14.63
 20
22.128038475772932
 10
14.644470857293848
 20
22.122044450422653
 10
14.66
 20
22.119999999999997
  0
LWPOLYLINE
  5
ED
330
17
100
AcDbEntity
  8
A-FURN
100
AcDbPolyline
 90
2
 70
0
 10
14.620000000000001
 20
22.119999999999997
 10
15.02
 20
22.119999999999997
  0
LWPOLYLINE
  5
EE
330
17
100
AcDbEntity
  8
A-FURN
100
AcDbPolyline
 90
28
 70
1
 10
15.620000000000001
 20
22.119999999999997
 10
15.635529142706151
 20
22.122044450422653
 10
15.65
 20
22.128038475772932
 10
15.662426406871193
 20
22.137573593128806
 10
15.671961524227067
 20
22.15
 10
15.677955549577344
 20
22.164470857293846
 10
15.68
 20
22.18
 10
15.68
 20
22.479999999999997
 10
15.677955549577344
 20
22.49552914270615
 10
15.671961524227067
 20
22.509999999999998
 10
15.662426406871193
 20
22.52242640687119
 10
15.65
 20
22.531961524227064
 10
15.635529142706151
 20
22.537955549577344
 10
15.620000000000001
 20
22.54
 10
15.3
 20
22.54
 10
15.284470857293849
 20
22.537955549577344
 10
15.27
 20
22.531961524227064
 10
15.257573593128807
 20
22.52242640687119
 10
15.248038475772933
 20
22.509999999999998
 10
15.242044450422656
 20
22.49552914270615
 10
15.24
 20
22.479999999999997
 10
15.24
 20
22.18
 10
15.242044450422656
 20
22.164470857293846
 10
15.248038475772933
 20
22.15
 10
15.257573593128807
 20
22.137573593128806
 10
15.27
 20
22.128038475772932
 10
15.284470857293849
 20
22.122044450422653
 10
15.3
 20
22.119999999999997
  0
LWPOLYLINE
  5
EF
330
17
100
AcDbEntity
  8
A-FURN
100
AcDbPolyline
 90
2
 70
0
 10
15.26
 20
22.119999999999997
 10
15.66
 20
22.119999999999997
  0
LWPOLYLINE
  5
F0
330
17
100
AcDbEntity
  8
A-FURN
100
AcDbPolyline
 90
28
 70
1
 10
16.26
 20
22.119999999999997
 10
16.27552914270615
 20
22.122044450422653
 10
16.29
 20
22.128038475772932
 10
16.30242640687119
 20
22.137573593128806
 10
16.311961524227065
 20
22.15
 10
16.317955549577345
 20
22.164470857293846
 10
16.32
 20
22.18
 10
16.32
 20
22.479999999999997
 10
16.317955549577345
 20
22.49552914270615
 10
16.311961524227065
 20
22.509999999999998
 10
16.30242640687119
 20
22.52242640687119
 10
16.29
 20
22.531961524227064
 10
16.27552914270615
 20
22.537955549577344
 10
16.26
 20
22.54
 10
15.94
 20
22.54
 10
15.92447085729385
 20
22.537955549577344
 10
15.91
 20
22.531961524227064
 10
15.897573593128808
 20
22.52242640687119
 10
15.888038475772934
 20
22.509999999999998
 10
15.882044450422656
 20
22.49552914270615
 10
15.88
 20
22.479999999999997
 10
15.88
 20
22.18
 10
15.882044450422656
 20
22.164470857293846
 10
15.888038475772934
 20
22.15
 10
15.897573593128808
 20
22.137573593128806
 10
15.91
 20
22.128038475772932
 10
15.92447085729385
 20
22.122044450422653
 10
15.94
 20
22.119999999999997
  0
LWPOLYLINE
  5
F1
330
17
100
AcDbEntity
  8
A-FURN
100
AcDbPolyline
 90
2
 70
0
 10
15.9
 20
22.119999999999997
 10
16.3
 20
22.119999999999997
  0
LWPOLYLINE
  5
F2
330
17
100
AcDbEntity
  8
A-FURN
100
AcDbPolyline
 90
28
 70
1
 10
16.9
 20
22.119999999999997
 10
16.915529142706152
 20
22.122044450422653
 10
16.93
 20
22.128038475772932
 10
16.942426406871192
 20
22.137573593128806
 10
16.951961524227066
 20
22.15
 10
16.957955549577346
 20
22.164470857293846
 10
16.96
 20
22.18
 10
16.96
 20
22.479999999999997
 10
16.957955549577346
 20
22.49552914270615
 10
16.951961524227066
 20
22.509999999999998
 10
16.942426406871192
 20
22.52242640687119
 10
16.93
 20
22.531961524227064
 10
16.915529142706152
 20
22.537955549577344
 10
16.9
 20
22.54
 10
16.58
 20
22.54
 10
16.56447085729385
 20
22.537955549577344
 10
16.55
 20
22.531961524227064
 10
16.53757359312881
 20
22.52242640687119
 10
16.528038475772934
 20
22.509999999999998
 10
16.522044450422655
 20
22.49552914270615
 10
16.52
 20
22.479999999999997
 10
16.52
 20
22.18
 10
16.522044450422655
 20
22.164470857293846
 10
16.528038475772934
 20
22.15
 10
16.53757359312881
 20
22.137573593128806
 10
16.55
 20
22.128038475772932
 10
16.56447085729385
 20
22.122044450422653
 10
16.58
 20
22.119999999999997
  0
LWPOLYLINE
  5
F3
330
17
100
AcDbEntity
  8
A-FURN
100
AcDbPolyline
 90
2
 70
0
 10
16.54
 20
22.119999999999997
 10
16.94
 20
22.119999999999997
  0
LWPOLYLINE
  5
F4
330
17
100
AcDbEntity
  8
A-FURN
100
AcDbPolyline
 90
28
 70
1
 10
17.54
 20
22.119999999999997
 10
17.555529142706153
 20
22.122044450422653
 10
17.57
 20
22.128038475772932
 10
17.582426406871193
 20
22.137573593128806
 10
17.591961524227067
 20
22.15
 10
17.597955549577343
 20
22.164470857293846
 10
17.6
 20
22.18
 10
17.6
 20
22.479999999999997
 10
17.597955549577343
 20
22.49552914270615
 10
17.591961524227067
 20
22.509999999999998
 10
17.582426406871193
 20
22.52242640687119
 10
17.57
 20
22.531961524227064
 10
17.555529142706153
 20
22.537955549577344
 10
17.54
 20
22.54
 10
17.22
 20
22.54
 10
17.20447085729385
 20
22.537955549577344
 10
17.19
 20
22.531961524227064
 10
17.177573593128805
 20
22.52242640687119
 10
17.168038475772935
 20
22.509999999999998
 10
17.162044450422655
 20
22.49552914270615
 10
17.16
 20
22.479999999999997
 10
17.16
 20
22.18
 10
17.162044450422655
 20
22.164470857293846
 10
17.168038475772935
 20
22.15
 10
17.177573593128805
 20
22.137573593128806
 10
17.189999999999998
 20
22.128038475772932
 10
17.20447085729385
 20
22.122044450422653
 10
17.22
 20
22.119999999999997
  0
LWPOLYLINE
  5
F5
330
17
100
AcDbEntity
  8
A-FURN
100
AcDbPolyline
 90
2
 70
0
 10
17.18
 20
22.119999999999997
 10
17.58
 20
22.119999999999997
  0
LWPOLYLINE
  5
F6
330
17
100
AcDbEntity
  8
A-FURN
100
AcDbPolyline
 90
28
 70
1
 10
14.98
 20
23.959999999999997
 10
14.995529142706152
 20
23.962044450422656
 10
15.01
 20
23.968038475772932
 10
15.022426406871194
 20
23.977573593128806
 10
15.031961524227066
 20
23.99
 10
15.037955549577344
 20
24.004470857293846
 10
15.040000000000001
 20
24.02
 10
15.040000000000001
 20
24.32
 10
15.037955549577344
 20
24.33552914270615
 10
15.031961524227066
 20
24.349999999999998
 10
15.022426406871194
 20
24.36242640687119
 10
15.01
 20
24.371961524227064
 10
14.995529142706152
 20
24.377955549577344
 10
14.98
 20
24.38
 10
14.66
 20
24.38
 10
14.644470857293848
 20
24.377955549577344
 10
14.63
 20
24.371961524227064
 10
14.617573593128807
 20
24.36242640687119
 10
14.608038475772934
 20
24.349999999999998
 10
14.602044450422657
 20
24.33552914270615
 10
14.6
 20
24.32
 10
14.6
 20
24.02
 10
14.602044450422657
 20
24.004470857293846
 10
14.608038475772934
 20
23.99
 10
14.617573593128807
 20
23.977573593128806
 10
14.63
 20
23.968038475772932
 10
14.644470857293848
 20
23.962044450422656
 10
14.66
 20
23.959999999999997
  0
LWPOLYLINE
  5
F7
330
17
100
AcDbEntity
  8
A-FURN
100
AcDbPolyline
 90
2
 70
0
 10
14.620000000000001
 20
24.38
 10
15.02
 20
24.38
  0
LWPOLYLINE
  5
F8
330
17
100
AcDbEntity
  8
A-FURN
100
AcDbPolyline
 90
28
 70
1
 10
15.620000000000001
 20
23.959999999999997
 10
15.635529142706151
 20
23.962044450422656
 10
15.65
 20
23.968038475772932
 10
15.662426406871193
 20
23.977573593128806
 10
15.671961524227067
 20
23.99
 10
15.677955549577344
 20
24.004470857293846
 10
15.68
 20
24.02
 10
15.68
 20
24.32
 10
15.677955549577344
 20
24.33552914270615
 10
15.671961524227067
 20
24.349999999999998
 10
15.662426406871193
 20
24.36242640687119
 10
15.65
 20
24.371961524227064
 10
15.635529142706151
 20
24.377955549577344
 10
15.620000000000001
 20
24.38
 10
15.3
 20
24.38
 10
15.284470857293849
 20
24.377955549577344
 10
15.27
 20
24.371961524227064
 10
15.257573593128807
 20
24.36242640687119
 10
15.248038475772933
 20
24.349999999999998
 10
15.242044450422656
 20
24.33552914270615
 10
15.24
 20
24.32
 10
15.24
 20
24.02
 10
15.242044450422656
 20
24.004470857293846
 10
15.248038475772933
 20
23.99
 10
15.257573593128807
 20
23.977573593128806
 10
15.27
 20
23.968038475772932
 10
15.284470857293849
 20
23.962044450422656
 10
15.3
 20
23.959999999999997
  0
LWPOLYLINE
  5
F9
330
17
100
AcDbEntity
  8
A-FURN
100
AcDbPolyline
 90
2
 70
0
 10
15.26
 20
24.38
 10
15.66
 20
24.38
  0
LWPOLYLINE
  5
FA
330
17
100
AcDbEntity
  8
A-FURN
100
AcDbPolyline
 90
28
 70
1
 10
16.26
 20
23.959999999999997
 10
16.27552914270615
 20
23.962044450422656
 10
16.29
 20
23.968038475772932
 10
16.30242640687119
 20
23.977573593128806
 10
16.311961524227065
 20
23.99
 10
16.317955549577345
 20
24.004470857293846
 10
16.32
 20
24.02
 10
16.32
 20
24.32
 10
16.317955549577345
 20
24.33552914270615
 10
16.311961524227065
 20
24.349999999999998
 10
16.30242640687119
 20
24.36242640687119
 10
16.29
 20
24.371961524227064
 10
16.27552914270615
 20
24.377955549577344
 10
16.26
 20
24.38
 10
15.94
 20
24.38
 10
15.92447085729385
 20
24.377955549577344
 10
15.91
 20
24.371961524227064
 10
15.897573593128808
 20
24.36242640687119
 10
15.888038475772934
 20
24.349999999999998
 10
15.882044450422656
 20
24.33552914270615
 10
15.88
 20
24.32
 10
15.88
 20
24.02
 10
15.882044450422656
 20
24.004470857293846
 10
15.888038475772934
 20
23.99
 10
15.897573593128808
 20
23.977573593128806
 10
15.91
 20
23.968038475772932
 10
15.92447085729385
 20
23.962044450422656
 10
15.94
 20
23.959999999999997
  0
LWPOLYLINE
  5
FB
330
17
100
AcDbEntity
  8
A-FURN
100
AcDbPolyline
 90
2
 70
0
 10
15.9
 20
24.38
 10
16.3
 20
24.38
  0
LWPOLYLINE
  5
FC
330
17
100
AcDbEntity
  8
A-FURN
100
AcDbPolyline
 90
28
 70
1
 10
16.9
 20
23.959999999999997
 10
16.915529142706152
 20
23.962044450422656
 10
16.93
 20
23.968038475772932
 10
16.942426406871192
 20
23.977573593128806
 10
16.951961524227066
 20
23.99
 10
16.957955549577346
 20
24.004470857293846
 10
16.96
 20
24.02
 10
16.96
 20
24.32
 10
16.957955549577346
 20
24.33552914270615
 10
16.951961524227066
 20
24.349999999999998
 10
16.942426406871192
 20
24.36242640687119
 10
16.93
 20
24.371961524227064
 10
16.915529142706152
 20
24.377955549577344
 10
16.9
 20
24.38
 10
16.58
 20
24.38
 10
16.56447085729385
 20
24.377955549577344
 10
16.55
 20
24.371961524227064
 10
16.53757359312881
 20
24.36242640687119
 10
16.528038475772934
 20
24.349999999999998
 10
16.522044450422655
 20
24.33552914270615
 10
16.52
 20
24.32
 10
16.52
 20
24.02
 10
16.522044450422655
 20
24.004470857293846
 10
16.528038475772934
 20
23.99
 10
16.53757359312881
 20
23.977573593128806
 10
16.55
 20
23.968038475772932
 10
16.56447085729385
 20
23.962044450422656
 10
16.58
 20
23.959999999999997
  0
LWPOLYLINE
  5
FD
330
17
100
AcDbEntity
  8
A-FURN
100
AcDbPolyline
 90
2
 70
0
 10
16.54
 20
24.38
 10
16.94
 20
24.38
  0
LWPOLYLINE
  5
FE
330
17
100
AcDbEntity
  8
A-FURN
100
AcDbPolyline
 90
28
 70
1
 10
17.54
 20
23.959999999999997
 10
17.555529142706153
 20
23.962044450422656
 10
17.57
 20
23.968038475772932
 10
17.582426406871193
 20
23.977573593128806
 10
17.591961524227067
 20
23.99
 10
17.597955549577343
 20
24.004470857293846
 10
17.6
 20
24.02
 10
17.6
 20
24.32
 10
17.597955549577343
 20
24.33552914270615
 10
17.591961524227067
 20
24.349999999999998
 10
17.582426406871193
 20
24.36242640687119
 10
17.57
 20
24.371961524227064
 10
17.555529142706153
 20
24.377955549577344
 10
17.54
 20
24.38
 10
17.22
 20
24.38
 10
17.20447085729385
 20
24.377955549577344
 10
17.19
 20
24.371961524227064
 10
17.177573593128805
 20
24.36242640687119
 10
17.168038475772935
 20
24.349999999999998
 10
17.162044450422655
 20
24.33552914270615
 10
17.16
 20
24.32
 10
17.16
 20
24.02
 10
17.162044450422655
 20
24.004470857293846
 10
17.168038475772935
 20
23.99
 10
17.177573593128805
 20
23.977573593128806
 10
17.189999999999998
 20
23.968038475772932
 10
17.20447085729385
 20
23.962044450422656
 10
17.22
 20
23.959999999999997
  0
LWPOLYLINE
  5
FF
330
17
100
AcDbEntity
  8
A-FURN
100
AcDbPolyline
 90
2
 70
0
 10
17.18
 20
24.38
 10
17.58
 20
24.38
  0
LWPOLYLINE
  5
100
330
17
100
AcDbEntity
  8
A-FURN
100
AcDbPolyline
 90
4
 70
1
 10
24.08
 20
25.05
 10
24.08
 20
21.45
 10
24.7
 20
21.45
 10
24.7
 20
25.05
  0
LWPOLYLINE
  5
101
330
17
100
AcDbEntity
  8
A-FURN
100
AcDbPolyline
 90
2
 70
0
 10
24.13
 20
25.05
 10
24.13
 20
21.45
  0
LWPOLYLINE
  5
102
330
17
100
AcDbEntity
  8
A-FURN
100
AcDbPolyline
 90
28
 70
1
 10
24.18
 20
23.66
 10
24.181362966948434
 20
23.6496472381959
 10
24.18535898384862
 20
23.64
 10
24.191715728752538
 20
23.63171572875254
 10
24.2
 20
23.625358983848624
 10
24.2096472381959
 20
23.62136296694844
 10
24.22
 20
23.62
 10
24.56
 20
23.62
 10
24.5703527618041
 20
23.62136296694844
 10
24.58
 20
23.625358983848624
 10
24.58828427124746
 20
23.63171572875254
 10
24.594641016151375
 20
23.64
 10
24.59863703305156
 20
23.6496472381959
 10
24.599999999999998
 20
23.66
 10
24.599999999999998
 20
24.28
 10
24.59863703305156
 20
24.2903527618041
 10
24.594641016151375
 20
24.3
 10
24.58828427124746
 20
24.308284271247462
 10
24.58
 20
24.314641016151377
 10
24.5703527618041
 20
24.318637033051562
 10
24.56
 20
24.32
 10
24.22
 20
24.32
 10
24.2096472381959
 20
24.318637033051562
 10
24.2
 20
24.314641016151377
 10
24.191715728752538
 20
24.308284271247462
 10
24.18535898384862
 20
24.3
 10
24.181362966948434
 20
24.2903527618041
 10
24.18
 20
24.28
  0
LWPOLYLINE
  5
103
330
17
100
AcDbEntity
  8
A-FURN
100
AcDbPolyline
 90
24
 70
1
 10
24.27
 20
22.528
 10
24.2907055236082
 20
22.530725933896875
 10
24.31
 20
22.538717967697245
 10
24.326568542494922
 20
22.55143145750508
 10
24.339282032302755
 20
22.568
 10
24.347274066103125
 20
22.587294476391797
 10
24.349999999999998
 20
22.608
 10
24.347274066103125
 20
22.628705523608204
 10
24.339282032302755
 20
22.648
 10
24.326568542494922
 20
22.664568542494923
 10
24.31
 20
22.677282032302756
 10
24.2907055236082
 20
22.685274066103126
 10
24.27
 20
22.688000000000002
 10
24.249294476391796
 20
22.685274066103126
 10
24.229999999999997
 20
22.677282032302756
 10
24.213431457505074
 20
22.664568542494923
 10
24.200717967697244
 20
22.648
 10
24.192725933896874
 20
22.628705523608204
 10
24.189999999999998
 20
22.608
 10
24.192725933896874
 20
22.587294476391797
 10
24.200717967697244
 20
22.568
 10
24.213431457505074
 20
22.55143145750508
 10
24.229999999999997
 20
22.538717967697245
 10
24.249294476391796
 20
22.530725933896875
  0
LWPOLYLINE
  5
104
330
17
100
AcDbEntity
  8
A-FURN
100
AcDbPolyline
 90
24
 70
1
 10
24.27
 20
22.228
 10
24.2907055236082
 20
22.230725933896874
 10
24.31
 20
22.238717967697244
 10
24.326568542494922
 20
22.251431457505078
 10
24.339282032302755
 20
22.268
 10
24.347274066103125
 20
22.2872944763918
 10
24.349999999999998
 20
22.308
 10
24.347274066103125
 20
22.328705523608203
 10
24.339282032302755
 20
22.348
 10
24.326568542494922
 20
22.364568542494926
 10
24.31
 20
22.377282032302755
 10
24.2907055236082
 20
22.385274066103126
 10
24.27
 20
22.388
 10
24.249294476391796
 20
22.385274066103126
 10
24.229999999999997
 20
22.377282032302755
 10
24.213431457505074
 20
22.364568542494926
 10
24.200717967697244
 20
22.348
 10
24.192725933896874
 20
22.328705523608203
 10
24.189999999999998
 20
22.308
 10
24.192725933896874
 20
22.2872944763918
 10
24.200717967697244
 20
22.268
 10
24.213431457505074
 20
22.251431457505078
 10
24.229999999999997
 20
22.238717967697244
 10
24.249294476391796
 20
22.230725933896874
  0
LWPOLYLINE
  5
105
330
17
100
AcDbEntity
  8
A-FURN
100
AcDbPolyline
 90
24
 70
1
 10
24.509999999999998
 20
22.528
 10
24.5307055236082
 20
22.530725933896875
 10
24.549999999999997
 20
22.538717967697245
 10
24.56656854249492
 20
22.55143145750508
 10
24.579282032302753
 20
22.568
 10
24.587274066103124
 20
22.587294476391797
 10
24.59
 20
22.608
 10
24.587274066103124
 20
22.628705523608204
 10
24.579282032302753
 20
22.648
 10
24.566568542494924
 20
22.664568542494923
 10
24.549999999999997
 20
22.677282032302756
 10
24.5307055236082
 20
22.685274066103126
 10
24.509999999999998
 20
22.688000000000002
 10
24.489294476391798
 20
22.685274066103126
 10
24.47
 20
22.677282032302756
 10
24.453431457505076
 20
22.664568542494923
 10
24.440717967697243
 20
22.648
 10
24.432725933896872
 20
22.628705523608204
 10
24.43
 20
22.608
 10
24.432725933896872
 20
22.587294476391797
 10
24.440717967697243
 20
22.568
 10
24.453431457505076
 20
22.55143145750508
 10
24.47
 20
22.538717967697245
 10
24.489294476391798
 20
22.530725933896875
  0
LWPOLYLINE
  5
106
330
17
100
AcDbEntity
  8
A-FURN
100
AcDbPolyline
 90
24
 70
1
 10
24.509999999999998
 20
22.228
 10
24.5307055236082
 20
22.230725933896874
 10
24.549999999999997
 20
22.238717967697244
 10
24.56656854249492
 20
22.251431457505078
 10
24.579282032302753
 20
22.268
 10
24.587274066103124
 20
22.2872944763918
 10
24.59
 20
22.308
 10
24.587274066103124
 20
22.328705523608203
 10
24.579282032302753
 20
22.348
 10
24.566568542494924
 20
22.364568542494926
 10
24.549999999999997
 20
22.377282032302755
 10
24.5307055236082
 20
22.385274066103126
 10
24.509999999999998
 20
22.388
 10
24.489294476391798
 20
22.385274066103126
 10
24.47
 20
22.377282032302755
 10
24.453431457505076
 20
22.364568542494926
 10
24.440717967697243
 20
22.348
 10
24.432725933896872
 20
22.328705523608203
 10
24.43
 20
22.308
 10
24.432725933896872
 20
22.2872944763918
 10
24.440717967697243
 20
22.268
 10
24.453431457505076
 20
22.251431457505078
 10
24.47
 20
22.238717967697244
 10
24.489294476391798
 20
22.230725933896874
  0
LWPOLYLINE
  5
107
330
17
100
AcDbEntity
  8
A-FURN
100
AcDbPolyline
 90
4
 70
1
 10
22.1
 20
24.43
 10
23.0
 20
24.43
 10
23.0
 20
25.05
 10
22.1
 20
25.05
  0
LWPOLYLINE
  5
108
330
17
100
AcDbEntity
  8
A-FURN
100
AcDbPolyline
 90
2
 70
0
 10
22.1
 20
24.43
 10
23.0
 20
25.05
  0
LWPOLYLINE
  5
109
330
17
100
AcDbEntity
  8
A-FURN
100
AcDbPolyline
 90
2
 70
0
 10
23.0
 20
24.43
 10
22.1
 20
25.05
  0
LWPOLYLINE
  5
10A
330
17
100
AcDbEntity
  8
A-FURN
100
AcDbPolyline
 90
4
 70
1
 10
23.0
 20
24.43
 10
24.08
 20
24.43
 10
24.08
 20
25.05
 10
23.0
 20
25.05
  0
LWPOLYLINE
  5
10B
330
17
100
AcDbEntity
  8
A-FURN
100
AcDbPolyline
 90
2
 70
0
 10
23.03
 20
24.74
 10
24.05
 20
24.74
  0
LWPOLYLINE
  5
10C
330
17
100
AcDbEntity
  8
A-FURN
100
AcDbPolyline
 90
2
 70
0
 10
23.0
 20
24.43
 10
23.0
 20
24.49
  0
LWPOLYLINE
  5
10D
330
17
100
AcDbEntity
  8
A-FURN
100
AcDbPolyline
 90
2
 70
0
 10
23.54
 20
24.43
 10
23.54
 20
24.49
  0
LWPOLYLINE
  5
10E
330
17
100
AcDbEntity
  8
A-FURN
100
AcDbPolyline
 90
2
 70
0
 10
24.08
 20
24.43
 10
24.08
 20
24.49
  0
LWPOLYLINE
  5
10F
330
17
100
AcDbEntity
  8
A-FURN
100
AcDbPolyline
 90
2
 70
0
 10
23.06
 20
24.62
 10
23.08
 20
24.86
  0
LWPOLYLINE
  5
110
330
17
100
AcDbEntity
  8
A-FURN
100
AcDbPolyline
 90
2
 70
0
 10
23.18
 20
24.62
 10
23.2
 20
24.86
  0
LWPOLYLINE
  5
111
330
17
100
AcDbEntity
  8
A-FURN
100
AcDbPolyline
 90
2
 70
0
 10
23.3
 20
24.62
 10
23.32
 20
24.86
  0
LWPOLYLINE
  5
112
330
17
100
AcDbEntity
  8
A-FURN
100
AcDbPolyline
 90
2
 70
0
 10
23.42
 20
24.62
 10
23.44
 20
24.86
  0
LWPOLYLINE
  5
113
330
17
100
AcDbEntity
  8
A-FURN
100
AcDbPolyline
 90
2
 70
0
 10
23.54
 20
24.62
 10
23.56
 20
24.86
  0
LWPOLYLINE
  5
114
330
17
100
AcDbEntity
  8
A-FURN
100
AcDbPolyline
 90
2
 70
0
 10
23.66
 20
24.62
 10
23.68
 20
24.86
  0
LWPOLYLINE
  5
115
330
17
100
AcDbEntity
  8
A-FURN
100
AcDbPolyline
 90
2
 70
0
 10
23.78
 20
24.62
 10
23.8
 20
24.86
  0
LWPOLYLINE
  5
116
330
17
100
AcDbEntity
  8
A-FURN
100
AcDbPolyline
 90
2
 70
0
 10
23.9
 20
24.62
 10
23.92
 20
24.86
  0
LWPOLYLINE
  5
117
330
17
100
AcDbEntity
  8
A-FURN
100
AcDbPolyline
 90
2
 70
0
 10
24.02
 20
24.62
 10
24.04
 20
24.86
  0
LWPOLYLINE
  5
118
330
17
100
AcDbEntity
  8
A-FURN
100
AcDbPolyline
 90
4
 70
1
 10
19.2
 20
24.43
 10
21.0
 20
24.43
 10
21.0
 20
25.05
 10
19.2
 20
25.05
  0
LWPOLYLINE
  5
119
330
17
100
AcDbEntity
  8
A-FURN
100
AcDbPolyline
 90
2
 70
0
 10
19.2
 20
24.48
 10
21.0
 20
24.48
  0
LWPOLYLINE
  5
11A
330
17
100
AcDbEntity
  8
A-FURN
100
AcDbPolyline
 90
4
 70
1
 10
20.4
 20
22.2
 10
23.0
 20
22.2
 10
23.0
 20
23.3
 10
20.4
 20
23.3
  0
LWPOLYLINE
  5
11B
330
17
100
AcDbEntity
  8
A-FURN
100
AcDbPolyline
 90
4
 70
1
 10
20.45
 20
22.25
 10
22.95
 20
22.25
 10
22.95
 20
23.25
 10
20.45
 20
23.25
  0
LWPOLYLINE
  5
11C
330
17
100
AcDbEntity
  8
A-FURN
100
AcDbPolyline
 90
28
 70
1
 10
22.06
 20
22.8
 10
22.0703527618041
 20
22.801362966948435
 10
22.08
 20
22.80535898384862
 10
22.08828427124746
 20
22.81171572875254
 10
22.094641016151375
 20
22.82
 10
22.09863703305156
 20
22.8296472381959
 10
22.099999999999998
 20
22.84
 10
22.099999999999998
 20
23.14
 10
22.09863703305156
 20
23.1503527618041
 10
22.094641016151375
 20
23.16
 10
22.08828427124746
 20
23.16828427124746
 10
22.08
 20
23.174641016151377
 10
22.0703527618041
 20
23.17863703305156
 10
22.06
 20
23.18
 10
21.34
 20
23.18
 10
21.329647238195896
 20
23.17863703305156
 10
21.32
 20
23.174641016151377
 10
21.311715728752535
 20
23.16828427124746
 10
21.30535898384862
 20
23.16
 10
21.301362966948435
 20
23.1503527618041
 10
21.299999999999997
 20
23.14
 10
21.299999999999997
 20
22.84
 10
21.301362966948435
 20
22.8296472381959
 10
21.30535898384862
 20
22.82
 10
21.311715728752535
 20
22.81171572875254
 10
21.32
 20
22.80535898384862
 10
21.329647238195896
 20
22.801362966948435
 10
21.34
 20
22.8
  0
LWPOLYLINE
  5
11D
330
17
100
AcDbEntity
  8
A-FURN
100
AcDbPolyline
 90
24
 70
1
 10
21.724999999999998
 20
23.24
 10
21.724148145657225
 20
23.246470476127563
 10
21.72165063509461
 20
23.252499999999998
 10
21.717677669529664
 20
23.257677669529663
 10
21.7125
 20
23.26165063509461
 10
21.706470476127564
 20
23.264148145657227
 10
21.7
 20
23.265
 10
21.693529523872435
 20
23.264148145657227
 10
21.6875
 20
23.26165063509461
 10
21.682322330470335
 20
23.257677669529663
 10
21.678349364905387
 20
23.252499999999998
 10
21.67585185434277
 20
23.246470476127563
 10
21.674999999999997
 20
23.24
 10
21.67585185434277
 20
23.233529523872438
 10
21.678349364905387
 20
23.2275
 10
21.682322330470335
 20
23.222322330470334
 10
21.6875
 20
23.21834936490539
 10
21.693529523872435
 20
23.215851854342773
 10
21.7
 20
23.215
 10
21.70647047612756
 20
23.215851854342773
 10
21.7125
 20
23.21834936490539
 10
21.717677669529664
 20
23.222322330470334
 10
21.72165063509461
 20
23.2275
 10
21.724148145657225
 20
23.233529523872438
  0
LWPOLYLINE
  5
11E
330
17
100
AcDbEntity
  8
A-FURN
100
AcDbPolyline
 90
24
 70
1
 10
20.904999999999998
 20
21.9
 10
20.89886664873203
 20
21.946587428118452
 10
20.880884572681197
 20
21.99
 10
20.85227922061358
 20
22.02727922061358
 10
20.814999999999998
 20
22.055884572681197
 10
20.77158742811845
 20
22.073866648732032
 10
20.724999999999998
 20
22.08
 10
20.678412571881545
 20
22.073866648732032
 10
20.634999999999998
 20
22.055884572681197
 10
20.59772077938642
 20
22.02727922061358
 10
20.5691154273188
 20
21.99
 10
20.551133351267968
 20
21.946587428118452
 10
20.544999999999998
 20
21.9
 10
20.551133351267968
 20
21.853412571881545
 10
20.5691154273188
 20
21.81
 10
20.59772077938642
 20
21.77272077938642
 10
20.634999999999998
 20
21.7441154273188
 10
20.678412571881545
 20
21.72613335126797
 10
20.724999999999998
 20
21.72
 10
20.77158742811845
 20
21.72613335126797
 10
20.814999999999998
 20
21.7441154273188
 10
20.85227922061358
 20
21.77272077938642
 10
20.880884572681197
 20
21.81
 10
20.89886664873203
 20
21.853412571881545
  0
LWPOLYLINE
  5
11F
330
17
100
AcDbEntity
  8
A-FURN
100
AcDbPolyline
 90
24
 70
1
 10
21.555
 20
21.9
 10
21.54886664873203
 20
21.946587428118452
 10
21.5308845726812
 20
21.99
 10
21.502279220613577
 20
22.02727922061358
 10
21.465
 20
22.055884572681197
 10
21.421587428118453
 20
22.073866648732032
 10
21.375
 20
22.08
 10
21.328412571881543
 20
22.073866648732032
 10
21.285
 20
22.055884572681197
 10
21.24772077938642
 20
22.02727922061358
 10
21.2191154273188
 20
21.99
 10
21.201133351267966
 20
21.946587428118452
 10
21.195
 20
21.9
 10
21.201133351267966
 20
21.853412571881545
 10
21.2191154273188
 20
21.81
 10
21.24772077938642
 20
21.77272077938642
 10
21.285
 20
21.7441154273188
 10
21.328412571881543
 20
21.72613335126797
 10
21.375
 20
21.72
 10
21.421587428118453
 20
21.72613335126797
 10
21.465
 20
21.7441154273188
 10
21.502279220613577
 20
21.77272077938642
 10
21.5308845726812
 20
21.81
 10
21.54886664873203
 20
21.853412571881545
  0
LWPOLYLINE
  5
120
330
17
100
AcDbEntity
  8
A-FURN
100
AcDbPolyline
 90
24
 70
1
 10
22.205
 20
21.9
 10
22.198866648732032
 20
21.946587428118452
 10
22.180884572681197
 20
21.99
 10
22.15227922061358
 20
22.02727922061358
 10
22.115
 20
22.055884572681197
 10
22.071587428118452
 20
22.073866648732032
 10
22.025
 20
22.08
 10
21.978412571881545
 20
22.073866648732032
 10
21.935
 20
22.055884572681197
 10
21.897720779386418
 20
22.02727922061358
 10
21.8691154273188
 20
21.99
 10
21.851133351267965
 20
21.946587428118452
 10
21.845
 20
21.9
 10
21.851133351267965
 20
21.853412571881545
 10
21.8691154273188
 20
21.81
 10
21.897720779386418
 20
21.77272077938642
 10
21.935
 20
21.7441154273188
 10
21.978412571881545
 20
21.72613335126797
 10
22.025
 20
21.72
 10
22.071587428118452
 20
21.72613335126797
 10
22.115
 20
21.7441154273188
 10
22.152279220613575
 20
21.77272077938642
 10
22.180884572681197
 20
21.81
 10
22.198866648732032
 20
21.853412571881545
  0
LWPOLYLINE
  5
121
330
17
100
AcDbEntity
  8
A-FURN
100
AcDbPolyline
 90
24
 70
1
 10
22.854999999999997
 20
21.9
 10
22.84886664873203
 20
21.946587428118452
 10
22.830884572681196
 20
21.99
 10
22.802279220613578
 20
22.02727922061358
 10
22.764999999999997
 20
22.055884572681197
 10
22.721587428118454
 20
22.073866648732032
 10
22.674999999999997
 20
22.08
 10
22.628412571881544
 20
22.073866648732032
 10
22.584999999999997
 20
22.055884572681197
 10
22.54772077938642
 20
22.02727922061358
 10
22.5191154273188
 20
21.99
 10
22.501133351267967
 20
21.946587428118452
 10
22.494999999999997
 20
21.9
 10
22.501133351267967
 20
21.853412571881545
 10
22.5191154273188
 20
21.81
 10
22.54772077938642
 20
21.77272077938642
 10
22.584999999999997
 20
21.7441154273188
 10
22.628412571881544
 20
21.72613335126797
 10
22.674999999999997
 20
21.72
 10
22.721587428118454
 20
21.72613335126797
 10
22.764999999999997
 20
21.7441154273188
 10
22.802279220613578
 20
21.77272077938642
 10
22.830884572681196
 20
21.81
 10
22.84886664873203
 20
21.853412571881545
  0
LWPOLYLINE
  5
122
330
17
100
AcDbEntity
  8
A-FURN
100
AcDbPolyline
 90
4
 70
1
 10
24.6
 20
27.05
 10
24.6
 20
27.650000000000002
 10
21.1
 20
27.650000000000002
 10
21.1
 20
27.05
  0
LWPOLYLINE
  5
123
330
17
100
AcDbEntity
  8
A-FURN
100
AcDbPolyline
 90
2
 70
0
 10
24.55
 20
27.05
 10
24.55
 20
27.650000000000002
  0
LWPOLYLINE
  5
124
330
17
100
AcDbEntity
  8
A-FURN
100
AcDbPolyline
 90
4
 70
1
 10
19.8
 20
27.520000000000003
 10
20.2
 20
27.520000000000003
 10
20.2
 20
27.700000000000003
 10
19.8
 20
27.700000000000003
  0
LWPOLYLINE
  5
125
330
17
100
AcDbEntity
  8
A-FURN
100
AcDbPolyline
 90
24
 70
1
 10
20.18
 20
27.330000000000002
 10
20.173866648732034
 20
27.38952838037358
 10
20.1558845726812
 20
27.445
 10
20.12727922061358
 20
27.492634559672908
 10
20.09
 20
27.529185842870422
 10
20.046587428118453
 20
27.552162940046486
 10
20.0
 20
27.560000000000002
 10
19.953412571881547
 20
27.552162940046486
 10
19.91
 20
27.529185842870422
 10
19.872720779386423
 20
27.492634559672908
 10
19.8441154273188
 20
27.445
 10
19.82613335126797
 20
27.38952838037358
 10
19.82
 20
27.330000000000002
 10
19.82613335126797
 20
27.27047161962642
 10
19.8441154273188
 20
27.215
 10
19.872720779386423
 20
27.167365440327096
 10
19.91
 20
27.13081415712958
 10
19.953412571881547
 20
27.107837059953514
 10
20.0
 20
27.1
 10
20.046587428118453
 20
27.107837059953514
 10
20.09
 20
27.13081415712958
 10
20.12727922061358
 20
27.167365440327096
 10
20.1558845726812
 20
27.215
 10
20.173866648732034
 20
27.27047161962642
  0
LWPOLYLINE
  5
126
330
17
100
AcDbEntity
  8
A-FURN
100
AcDbPolyline
 90
4
 70
1
 10
20.45
 20
26.200000000000003
 10
20.45
 20
25.6
 10
20.9
 20
25.6
 10
20.9
 20
26.200000000000003
  0
LWPOLYLINE
  5
127
330
17
100
AcDbEntity
  8
A-FURN
100
AcDbPolyline
 90
24
 70
1
 10
20.675
 20
25.69
 10
20.70994057108884
 20
25.697155576479297
 10
20.7425
 20
25.71813466520527
 10
20.770459415460184
 20
25.75150757595083
 10
20.7919134295109
 20
25.795
 10
20.805399986549023
 20
25.845648000528474
 10
20.81
 20
25.900000000000002
 10
20.805399986549023
 20
25.954351999471534
 10
20.7919134295109
 20
26.005000000000003
 10
20.770459415460184
 20
26.04849242404918
 10
20.7425
 20
26.081865334794735
 10
20.70994057108884
 20
26.102844423520708
 10
20.675
 20
26.110000000000003
 10
20.640059428911158
 20
26.102844423520708
 10
20.607499999999998
 20
26.081865334794735
 10
20.579540584539814
 20
26.04849242404918
 10
20.5580865704891
 20
26.005000000000003
 10
20.544600013450975
 20
25.954351999471534
 10
20.54
 20
25.900000000000002
 10
20.544600013450975
 20
25.845648000528474
 10
20.5580865704891
 20
25.795
 10
20.579540584539814
 20
25.75150757595083
 10
20.607499999999998
 20
25.71813466520527
 10
20.640059428911158
 20
25.697155576479297
  0
LWPOLYLINE
  5
128
330
17
100
AcDbEntity
  8
A-FURN
100
AcDbPolyline
 90
4
 70
1
 10
19.3
 20
31.650000000000002
 10
19.3
 20
31.05
 10
22.900000000000002
 20
31.05
 10
22.900000000000002
 20
31.650000000000002
  0
LWPOLYLINE
  5
129
330
17
100
AcDbEntity
  8
A-FURN
100
AcDbPolyline
 90
2
 70
0
 10
21.1
 20
31.62
 10
21.1
 20
31.080000000000002
  0
LWPOLYLINE
  5
12A
330
17
100
AcDbEntity
  8
A-FURN
100
AcDbPolyline
 90
2
 70
0
 10
19.3
 20
31.650000000000002
 10
19.36
 20
31.650000000000002
  0
LWPOLYLINE
  5
12B
330
17
100
AcDbEntity
  8
A-FURN
100
AcDbPolyline
 90
2
 70
0
 10
19.3
 20
31.05
 10
19.36
 20
31.05
  0
LWPOLYLINE
  5
12C
330
17
100
AcDbEntity
  8
A-FURN
100
AcDbPolyline
 90
2
 70
0
 10
20.98
 20
31.590000000000003
 10
21.22
 20
31.570000000000004
  0
LWPOLYLINE
  5
12D
330
17
100
AcDbEntity
  8
A-FURN
100
AcDbPolyline
 90
2
 70
0
 10
20.98
 20
31.470000000000002
 10
21.22
 20
31.450000000000003
  0
LWPOLYLINE
  5
12E
330
17
100
AcDbEntity
  8
A-FURN
100
AcDbPolyline
 90
2
 70
0
 10
20.98
 20
31.35
 10
21.22
 20
31.330000000000002
  0
LWPOLYLINE
  5
12F
330
17
100
AcDbEntity
  8
A-FURN
100
AcDbPolyline
 90
2
 70
0
 10
20.98
 20
31.23
 10
21.22
 20
31.21
  0
LWPOLYLINE
  5
130
330
17
100
AcDbEntity
  8
A-FURN
100
AcDbPolyline
 90
2
 70
0
 10
20.98
 20
31.110000000000003
 10
21.22
 20
31.090000000000003
  0
LWPOLYLINE
  5
131
330
17
100
AcDbEntity
  8
A-FURN
100
AcDbPolyline
 90
28
 70
1
 10
23.0
 20
31.189999999999998
 10
23.001362966948438
 20
31.179647238195898
 10
23.005358983848623
 20
31.169999999999998
 10
23.011715728752538
 20
31.161715728752537
 10
23.02
 20
31.155358983848622
 10
23.0296472381959
 20
31.151362966948437
 10
23.04
 20
31.15
 10
24.46
 20
31.15
 10
24.4703527618041
 20
31.151362966948437
 10
24.48
 20
31.155358983848622
 10
24.488284271247462
 20
31.161715728752537
 10
24.494641016151377
 20
31.169999999999998
 10
24.498637033051562
 20
31.179647238195898
 10
24.5
 20
31.189999999999998
 10
24.5
 20
31.56
 10
24.498637033051562
 20
31.5703527618041
 10
24.494641016151377
 20
31.58
 10
24.488284271247462
 20
31.58828427124746
 10
24.48
 20
31.594641016151375
 10
24.4703527618041
 20
31.59863703305156
 10
24.46
 20
31.599999999999998
 10
23.04
 20
31.599999999999998
 10
23.0296472381959
 20
31.59863703305156
 10
23.02
 20
31.594641016151375
 10
23.011715728752538
 20
31.58828427124746
 10
23.005358983848623
 20
31.58
 10
23.001362966948438
 20
31.5703527618041
 10
23.0
 20
31.56
  0
LWPOLYLINE
  5
132
330
17
100
AcDbEntity
  8
A-FURN
100
AcDbPolyline
 90
4
 70
1
 10
17.62
 20
30.3
 10
17.62
 20
29.75
 10
19.0
 20
29.75
 10
19.0
 20
30.3
  0
LWPOLYLINE
  5
133
330
17
100
AcDbEntity
  8
A-FURN
100
AcDbPolyline
 90
2
 70
0
 10
18.310000000000002
 20
30.27
 10
18.310000000000002
 20
29.78
  0
LWPOLYLINE
  5
134
330
17
100
AcDbEntity
  8
A-FURN
100
AcDbPolyline
 90
2
 70
0
 10
17.62
 20
30.3
 10
17.68
 20
30.3
  0
LWPOLYLINE
  5
135
330
17
100
AcDbEntity
  8
A-FURN
100
AcDbPolyline
 90
2
 70
0
 10
17.62
 20
29.75
 10
17.68
 20
29.75
  0
LWPOLYLINE
  5
136
330
17
100
AcDbEntity
  8
A-FURN
100
AcDbPolyline
 90
2
 70
0
 10
18.19
 20
30.240000000000002
 10
18.43
 20
30.220000000000002
  0
LWPOLYLINE
  5
137
330
17
100
AcDbEntity
  8
A-FURN
100
AcDbPolyline
 90
2
 70
0
 10
18.19
 20
30.12
 10
18.43
 20
30.1
  0
LWPOLYLINE
  5
138
330
17
100
AcDbEntity
  8
A-FURN
100
AcDbPolyline
 90
2
 70
0
 10
18.19
 20
30.0
 10
18.43
 20
29.98
  0
LWPOLYLINE
  5
139
330
17
100
AcDbEntity
  8
A-FURN
100
AcDbPolyline
 90
2
 70
0
 10
18.19
 20
29.88
 10
18.43
 20
29.86
  0
LWPOLYLINE
  5
13A
330
17
100
AcDbEntity
  8
A-FURN
100
AcDbPolyline
 90
4
 70
1
 10
8.0
 20
18.4
 10
11.0
 20
18.4
 10
11.0
 20
19.5
 10
8.0
 20
19.5
  0
LWPOLYLINE
  5
13B
330
17
100
AcDbEntity
  8
A-FURN
100
AcDbPolyline
 90
28
 70
1
 10
8.61
 20
17.869999999999997
 10
8.625529142706151
 20
17.872044450422653
 10
8.64
 20
17.878038475772932
 10
8.652426406871193
 20
17.887573593128806
 10
8.661961524227067
 20
17.9
 10
8.667955549577345
 20
17.914470857293846
 10
8.67
 20
17.93
 10
8.67
 20
18.229999999999997
 10
8.667955549577345
 20
18.24552914270615
 10
8.661961524227067
 20
18.259999999999998
 10
8.652426406871193
 20
18.27242640687119
 10
8.64
 20
18.281961524227064
 10
8.625529142706151
 20
18.287955549577344
 10
8.61
 20
18.29
 10
8.29
 20
18.29
 10
8.27447085729385
 20
18.287955549577344
 10
8.26
 20
18.281961524227064
 10
8.247573593128807
 20
18.27242640687119
 10
8.238038475772933
 20
18.259999999999998
 10
8.232044450422656
 20
18.24552914270615
 10
8.23
 20
18.229999999999997
 10
8.23
 20
17.93
 10
8.232044450422656
 20
17.914470857293846
 10
8.238038475772933
 20
17.9
 10
8.247573593128807
 20
17.887573593128806
 10
8.26
 20
17.878038475772932
 10
8.27447085729385
 20
17.872044450422653
 10
8.29
 20
17.869999999999997
  0
LWPOLYLINE
  5
13C
330
17
100
AcDbEntity
  8
A-FURN
100
AcDbPolyline
 90
2
 70
0
 10
8.25
 20
17.869999999999997
 10
8.65
 20
17.869999999999997
  0
LWPOLYLINE
  5
13D
330
17
100
AcDbEntity
  8
A-FURN
100
AcDbPolyline
 90
28
 70
1
 10
9.31
 20
17.869999999999997
 10
9.32552914270615
 20
17.872044450422653
 10
9.34
 20
17.878038475772932
 10
9.352426406871192
 20
17.887573593128806
 10
9.361961524227066
 20
17.9
 10
9.367955549577344
 20
17.914470857293846
 10
9.37
 20
17.93
 10
9.37
 20
18.229999999999997
 10
9.367955549577344
 20
18.24552914270615
 10
9.361961524227066
 20
18.259999999999998
 10
9.352426406871192
 20
18.27242640687119
 10
9.34
 20
18.281961524227064
 10
9.32552914270615
 20
18.287955549577344
 10
9.31
 20
18.29
 10
8.99
 20
18.29
 10
8.974470857293849
 20
18.287955549577344
 10
8.96
 20
18.281961524227064
 10
8.947573593128807
 20
18.27242640687119
 10
8.938038475772935
 20
18.259999999999998
 10
8.932044450422655
 20
18.24552914270615
 10
8.93
 20
18.229999999999997
 10
8.93
 20
17.93
 10
8.932044450422655
 20
17.914470857293846
 10
8.938038475772935
 20
17.9
 10
8.947573593128807
 20
17.887573593128806
 10
8.96
 20
17.878038475772932
 10
8.974470857293849
 20
17.872044450422653
 10
8.99
 20
17.869999999999997
  0
LWPOLYLINE
  5
13E
330
17
100
AcDbEntity
  8
A-FURN
100
AcDbPolyline
 90
2
 70
0
 10
8.95
 20
17.869999999999997
 10
9.35
 20
17.869999999999997
  0
LWPOLYLINE
  5
13F
330
17
100
AcDbEntity
  8
A-FURN
100
AcDbPolyline
 90
28
 70
1
 10
10.01
 20
17.869999999999997
 10
10.025529142706151
 20
17.872044450422653
 10
10.04
 20
17.878038475772932
 10
10.052426406871193
 20
17.887573593128806
 10
10.061961524227065
 20
17.9
 10
10.067955549577345
 20
17.914470857293846
 10
10.07
 20
17.93
 10
10.07
 20
18.229999999999997
 10
10.067955549577345
 20
18.24552914270615
 10
10.061961524227065
 20
18.259999999999998
 10
10.052426406871193
 20
18.27242640687119
 10
10.04
 20
18.281961524227064
 10
10.025529142706151
 20
18.287955549577344
 10
10.01
 20
18.29
 10
9.69
 20
18.29
 10
9.67447085729385
 20
18.287955549577344
 10
9.66
 20
18.281961524227064
 10
9.647573593128808
 20
18.27242640687119
 10
9.638038475772934
 20
18.259999999999998
 10
9.632044450422656
 20
18.24552914270615
 10
9.63
 20
18.229999999999997
 10
9.63
 20
17.93
 10
9.632044450422656
 20
17.914470857293846
 10
9.638038475772934
 20
17.9
 10
9.647573593128808
 20
17.887573593128806
 10
9.66
 20
17.878038475772932
 10
9.67447085729385
 20
17.872044450422653
 10
9.69
 20
17.869999999999997
  0
LWPOLYLINE
  5
140
330
17
100
AcDbEntity
  8
A-FURN
100
AcDbPolyline
 90
2
 70
0
 10
9.65
 20
17.869999999999997
 10
10.05
 20
17.869999999999997
  0
LWPOLYLINE
  5
141
330
17
100
AcDbEntity
  8
A-FURN
100
AcDbPolyline
 90
28
 70
1
 10
10.71
 20
17.869999999999997
 10
10.72552914270615
 20
17.872044450422653
 10
10.74
 20
17.878038475772932
 10
10.752426406871193
 20
17.887573593128806
 10
10.761961524227067
 20
17.9
 10
10.767955549577344
 20
17.914470857293846
 10
10.77
 20
17.93
 10
10.77
 20
18.229999999999997
 10
10.767955549577344
 20
18.24552914270615
 10
10.761961524227067
 20
18.259999999999998
 10
10.752426406871193
 20
18.27242640687119
 10
10.74
 20
18.281961524227064
 10
10.72552914270615
 20
18.287955549577344
 10
10.71
 20
18.29
 10
10.39
 20
18.29
 10
10.374470857293849
 20
18.287955549577344
 10
10.36
 20
18.281961524227064
 10
10.347573593128807
 20
18.27242640687119
 10
10.338038475772933
 20
18.259999999999998
 10
10.332044450422655
 20
18.24552914270615
 10
10.33
 20
18.229999999999997
 10
10.33
 20
17.93
 10
10.332044450422655
 20
17.914470857293846
 10
10.338038475772933
 20
17.9
 10
10.347573593128807
 20
17.887573593128806
 10
10.36
 20
17.878038475772932
 10
10.374470857293849
 20
17.872044450422653
 10
10.39
 20
17.869999999999997
  0
LWPOLYLINE
  5
142
330
17
100
AcDbEntity
  8
A-FURN
100
AcDbPolyline
 90
2
 70
0
 10
10.35
 20
17.869999999999997
 10
10.75
 20
17.869999999999997
  0
LWPOLYLINE
  5
143
330
17
100
AcDbEntity
  8
A-FURN
100
AcDbPolyline
 90
28
 70
1
 10
8.61
 20
19.61
 10
8.625529142706151
 20
19.612044450422655
 10
8.64
 20
19.618038475772934
 10
8.652426406871193
 20
19.627573593128805
 10
8.661961524227067
 20
19.64
 10
8.667955549577345
 20
19.65447085729385
 10
8.67
 20
19.669999999999998
 10
8.67
 20
19.97
 10
8.667955549577345
 20
19.98552914270615
 10
8.661961524227067
 20
20.0
 10
8.652426406871193
 20
20.012426406871192
 10
8.64
 20
20.021961524227066
 10
8.625529142706151
 20
20.027955549577342
 10
8.61
 20
20.029999999999998
 10
8.29
 20
20.029999999999998
 10
8.27447085729385
 20
20.027955549577342
 10
8.26
 20
20.021961524227066
 10
8.247573593128807
 20
20.012426406871192
 10
8.238038475772933
 20
20.0
 10
8.232044450422656
 20
19.98552914270615
 10
8.23
 20
19.97
 10
8.23
 20
19.669999999999998
 10
8.232044450422656
 20
19.65447085729385
 10
8.238038475772933
 20
19.64
 10
8.247573593128807
 20
19.627573593128805
 10
8.26
 20
19.618038475772934
 10
8.27447085729385
 20
19.612044450422655
 10
8.29
 20
19.61
  0
LWPOLYLINE
  5
144
330
17
100
AcDbEntity
  8
A-FURN
100
AcDbPolyline
 90
2
 70
0
 10
8.25
 20
20.029999999999998
 10
8.65
 20
20.029999999999998
  0
LWPOLYLINE
  5
145
330
17
100
AcDbEntity
  8
A-FURN
100
AcDbPolyline
 90
28
 70
1
 10
9.31
 20
19.61
 10
9.32552914270615
 20
19.612044450422655
 10
9.34
 20
19.618038475772934
 10
9.352426406871192
 20
19.627573593128805
 10
9.361961524227066
 20
19.64
 10
9.367955549577344
 20
19.65447085729385
 10
9.37
 20
19.669999999999998
 10
9.37
 20
19.97
 10
9.367955549577344
 20
19.98552914270615
 10
9.361961524227066
 20
20.0
 10
9.352426406871192
 20
20.012426406871192
 10
9.34
 20
20.021961524227066
 10
9.32552914270615
 20
20.027955549577342
 10
9.31
 20
20.029999999999998
 10
8.99
 20
20.029999999999998
 10
8.974470857293849
 20
20.027955549577342
 10
8.96
 20
20.021961524227066
 10
8.947573593128807
 20
20.012426406871192
 10
8.938038475772935
 20
20.0
 10
8.932044450422655
 20
19.98552914270615
 10
8.93
 20
19.97
 10
8.93
 20
19.669999999999998
 10
8.932044450422655
 20
19.65447085729385
 10
8.938038475772935
 20
19.64
 10
8.947573593128807
 20
19.627573593128805
 10
8.96
 20
19.618038475772934
 10
8.974470857293849
 20
19.612044450422655
 10
8.99
 20
19.61
  0
LWPOLYLINE
  5
146
330
17
100
AcDbEntity
  8
A-FURN
100
AcDbPolyline
 90
2
 70
0
 10
8.95
 20
20.029999999999998
 10
9.35
 20
20.029999999999998
  0
LWPOLYLINE
  5
147
330
17
100
AcDbEntity
  8
A-FURN
100
AcDbPolyline
 90
28
 70
1
 10
10.01
 20
19.61
 10
10.025529142706151
 20
19.612044450422655
 10
10.04
 20
19.618038475772934
 10
10.052426406871193
 20
19.627573593128805
 10
10.061961524227065
 20
19.64
 10
10.067955549577345
 20
19.65447085729385
 10
10.07
 20
19.669999999999998
 10
10.07
 20
19.97
 10
10.067955549577345
 20
19.98552914270615
 10
10.061961524227065
 20
20.0
 10
10.052426406871193
 20
20.012426406871192
 10
10.04
 20
20.021961524227066
 10
10.025529142706151
 20
20.027955549577342
 10
10.01
 20
20.029999999999998
 10
9.69
 20
20.029999999999998
 10
9.67447085729385
 20
20.027955549577342
 10
9.66
 20
20.021961524227066
 10
9.647573593128808
 20
20.012426406871192
 10
9.638038475772934
 20
20.0
 10
9.632044450422656
 20
19.98552914270615
 10
9.63
 20
19.97
 10
9.63
 20
19.669999999999998
 10
9.632044450422656
 20
19.65447085729385
 10
9.638038475772934
 20
19.64
 10
9.647573593128808
 20
19.627573593128805
 10
9.66
 20
19.618038475772934
 10
9.67447085729385
 20
19.612044450422655
 10
9.69
 20
19.61
  0
LWPOLYLINE
  5
148
330
17
100
AcDbEntity
  8
A-FURN
100
AcDbPolyline
 90
2
 70
0
 10
9.65
 20
20.029999999999998
 10
10.05
 20
20.029999999999998
  0
LWPOLYLINE
  5
149
330
17
100
AcDbEntity
  8
A-FURN
100
AcDbPolyline
 90
28
 70
1
 10
10.71
 20
19.61
 10
10.72552914270615
 20
19.612044450422655
 10
10.74
 20
19.618038475772934
 10
10.752426406871193
 20
19.627573593128805
 10
10.761961524227067
 20
19.64
 10
10.767955549577344
 20
19.65447085729385
 10
10.77
 20
19.669999999999998
 10
10.77
 20
19.97
 10
10.767955549577344
 20
19.98552914270615
 10
10.761961524227067
 20
20.0
 10
10.752426406871193
 20
20.012426406871192
 10
10.74
 20
20.021961524227066
 10
10.72552914270615
 20
20.027955549577342
 10
10.71
 20
20.029999999999998
 10
10.39
 20
20.029999999999998
 10
10.374470857293849
 20
20.027955549577342
 10
10.36
 20
20.021961524227066
 10
10.347573593128807
 20
20.012426406871192
 10
10.338038475772933
 20
20.0
 10
10.332044450422655
 20
19.98552914270615
 10
10.33
 20
19.97
 10
10.33
 20
19.669999999999998
 10
10.332044450422655
 20
19.65447085729385
 10
10.338038475772933
 20
19.64
 10
10.347573593128807
 20
19.627573593128805
 10
10.36
 20
19.618038475772934
 10
10.374470857293849
 20
19.612044450422655
 10
10.39
 20
19.61
  0
LWPOLYLINE
  5
14A
330
17
100
AcDbEntity
  8
A-FURN
100
AcDbPolyline
 90
2
 70
0
 10
10.35
 20
20.029999999999998
 10
10.75
 20
20.029999999999998
  0
LWPOLYLINE
  5
14B
330
17
100
AcDbEntity
  8
A-FURN
100
AcDbPolyline
 90
28
 70
1
 10
9.7
 20
12.94
 10
9.697955549577344
 20
12.955529142706151
 10
9.691961524227066
 20
12.97
 10
9.682426406871192
 20
12.982426406871193
 10
9.67
 20
12.991961524227067
 10
9.65552914270615
 20
12.997955549577345
 10
9.639999999999999
 20
13.0
 10
9.059999999999999
 20
13.0
 10
9.044470857293849
 20
12.997955549577345
 10
9.03
 20
12.991961524227067
 10
9.017573593128807
 20
12.982426406871193
 10
9.008038475772933
 20
12.97
 10
9.002044450422655
 20
12.955529142706151
 10
9.0
 20
12.94
 10
9.0
 20
11.06
 10
9.002044450422655
 20
11.044470857293849
 10
9.008038475772933
 20
11.03
 10
9.017573593128807
 20
11.017573593128807
 10
9.03
 20
11.008038475772933
 10
9.044470857293849
 20
11.002044450422655
 10
9.059999999999999
 20
11.0
 10
9.639999999999999
 20
11.0
 10
9.65552914270615
 20
11.002044450422655
 10
9.67
 20
11.008038475772933
 10
9.682426406871192
 20
11.017573593128807
 10
9.691961524227066
 20
11.03
 10
9.697955549577344
 20
11.044470857293849
 10
9.7
 20
11.06
  0
LWPOLYLINE
  5
14C
330
17
100
AcDbEntity
  8
A-FURN
100
AcDbPolyline
 90
2
 70
0
 10
9.209999999999999
 20
11.0
 10
9.209999999999999
 20
13.0
  0
LWPOLYLINE
  5
14D
330
17
100
AcDbEntity
  8
A-THIN
100
AcDbPolyline
 90
4
 70
1
 10
13.2
 20
27.7
 10
14.299999999999999
 20
27.7
 10
14.299999999999999
 20
27.98
 10
13.2
 20
27.98
  0
LWPOLYLINE
  5
14E
330
17
100
AcDbEntity
  8
A-THIN
100
AcDbPolyline
 90
4
 70
1
 10
13.2
 20
27.98
 10
14.299999999999999
 20
27.98
 10
14.299999999999999
 20
28.259999999999998
 10
13.2
 20
28.259999999999998
  0
LWPOLYLINE
  5
14F
330
17
100
AcDbEntity
  8
A-THIN
100
AcDbPolyline
 90
4
 70
1
 10
13.2
 20
28.259999999999998
 10
14.299999999999999
 20
28.259999999999998
 10
14.299999999999999
 20
28.54
 10
13.2
 20
28.54
  0
LWPOLYLINE
  5
150
330
17
100
AcDbEntity
  8
A-THIN
100
AcDbPolyline
 90
4
 70
1
 10
13.2
 20
28.54
 10
14.299999999999999
 20
28.54
 10
14.299999999999999
 20
28.82
 10
13.2
 20
28.82
  0
LWPOLYLINE
  5
151
330
17
100
AcDbEntity
  8
A-THIN
100
AcDbPolyline
 90
4
 70
1
 10
13.2
 20
28.82
 10
14.299999999999999
 20
28.82
 10
14.299999999999999
 20
29.099999999999998
 10
13.2
 20
29.099999999999998
  0
LWPOLYLINE
  5
152
330
17
100
AcDbEntity
  8
A-THIN
100
AcDbPolyline
 90
4
 70
1
 10
13.2
 20
29.099999999999998
 10
14.299999999999999
 20
29.099999999999998
 10
14.299999999999999
 20
29.38
 10
13.2
 20
29.38
  0
LWPOLYLINE
  5
153
330
17
100
AcDbEntity
  8
A-THIN
100
AcDbPolyline
 90
4
 70
1
 10
13.2
 20
29.38
 10
14.299999999999999
 20
29.38
 10
14.299999999999999
 20
29.66
 10
13.2
 20
29.66
  0
LWPOLYLINE
  5
154
330
17
100
AcDbEntity
  8
A-THIN
100
AcDbPolyline
 90
4
 70
1
 10
13.2
 20
29.66
 10
14.299999999999999
 20
29.66
 10
14.299999999999999
 20
29.939999999999998
 10
13.2
 20
29.939999999999998
  0
LWPOLYLINE
  5
155
330
17
100
AcDbEntity
  8
A-THIN
100
AcDbPolyline
 90
4
 70
1
 10
13.2
 20
29.939999999999998
 10
14.299999999999999
 20
29.939999999999998
 10
14.299999999999999
 20
30.22
 10
13.2
 20
30.22
  0
LWPOLYLINE
  5
156
330
17
100
AcDbEntity
  8
A-HIDDEN
100
AcDbPolyline
 90
4
 70
1
 10
13.2
 20
30.22
 10
14.299999999999999
 20
30.22
 10
14.299999999999999
 20
30.5
 10
13.2
 20
30.5
  0
LWPOLYLINE
  5
157
330
17
100
AcDbEntity
  8
A-THIN
100
AcDbPolyline
 90
6
 70
0
 10
13.149999999999999
 20
29.97
 10
13.6
 20
29.97
 10
13.75
 20
30.169999999999998
 10
13.799999999999999
 20
29.77
 10
13.95
 20
29.97
 10
14.35
 20
29.97
  0
LWPOLYLINE
  5
158
330
17
100
AcDbEntity
  8
A-HIDDEN
100
AcDbPolyline
 90
4
 70
1
 10
13.2
 20
30.5
 10
15.499999999999998
 20
30.5
 10
15.499999999999998
 20
31.7
 10
13.2
 20
31.7
  0
LWPOLYLINE
  5
159
330
17
100
AcDbEntity
  8
A-HIDDEN
100
AcDbPolyline
 90
4
 70
1
 10
14.399999999999999
 20
30.22
 10
15.499999999999998
 20
30.22
 10
15.499999999999998
 20
30.5
 10
14.399999999999999
 20
30.5
  0
LWPOLYLINE
  5
15A
330
17
100
AcDbEntity
  8
A-HIDDEN
100
AcDbPolyline
 90
4
 70
1
 10
14.399999999999999
 20
29.94
 10
15.499999999999998
 20
29.94
 10
15.499999999999998
 20
30.22
 10
14.399999999999999
 20
30.22
  0
LWPOLYLINE
  5
15B
330
17
100
AcDbEntity
  8
A-HIDDEN
100
AcDbPolyline
 90
4
 70
1
 10
14.399999999999999
 20
29.66
 10
15.499999999999998
 20
29.66
 10
15.499999999999998
 20
29.94
 10
14.399999999999999
 20
29.94
  0
LWPOLYLINE
  5
15C
330
17
100
AcDbEntity
  8
A-HIDDEN
100
AcDbPolyline
 90
4
 70
1
 10
14.399999999999999
 20
29.38
 10
15.499999999999998
 20
29.38
 10
15.499999999999998
 20
29.66
 10
14.399999999999999
 20
29.66
  0
LWPOLYLINE
  5
15D
330
17
100
AcDbEntity
  8
A-HIDDEN
100
AcDbPolyline
 90
4
 70
1
 10
14.399999999999999
 20
29.1
 10
15.499999999999998
 20
29.1
 10
15.499999999999998
 20
29.38
 10
14.399999999999999
 20
29.38
  0
LWPOLYLINE
  5
15E
330
17
100
AcDbEntity
  8
A-HIDDEN
100
AcDbPolyline
 90
4
 70
1
 10
14.399999999999999
 20
28.82
 10
15.499999999999998
 20
28.82
 10
15.499999999999998
 20
29.1
 10
14.399999999999999
 20
29.1
  0
LWPOLYLINE
  5
15F
330
17
100
AcDbEntity
  8
A-HIDDEN
100
AcDbPolyline
 90
4
 70
1
 10
14.399999999999999
 20
28.54
 10
15.499999999999998
 20
28.54
 10
15.499999999999998
 20
28.82
 10
14.399999999999999
 20
28.82
  0
LWPOLYLINE
  5
160
330
17
100
AcDbEntity
  8
A-HIDDEN
100
AcDbPolyline
 90
4
 70
1
 10
14.399999999999999
 20
28.259999999999998
 10
15.499999999999998
 20
28.259999999999998
 10
15.499999999999998
 20
28.54
 10
14.399999999999999
 20
28.54
  0
LWPOLYLINE
  5
161
330
17
100
AcDbEntity
  8
A-HIDDEN
100
AcDbPolyline
 90
4
 70
1
 10
14.399999999999999
 20
27.98
 10
15.499999999999998
 20
27.98
 10
15.499999999999998
 20
28.259999999999998
 10
14.399999999999999
 20
28.259999999999998
  0
LWPOLYLINE
  5
162
330
17
100
AcDbEntity
  8
A-THIN
100
AcDbPolyline
 90
2
 70
0
 10
13.75
 20
27.8
 10
13.75
 20
29.72
  0
LWPOLYLINE
  5
163
330
17
100
AcDbEntity
  8
A-THIN
100
AcDbPolyline
 90
3
 70
1
 10
13.66
 20
29.54
 10
13.84
 20
29.54
 10
13.75
 20
29.72
  0
CIRCLE
  5
164
330
17
100
AcDbEntity
  8
A-THIN
100
AcDbCircle
 10
13.75
 20
27.8
 30
0.0
 40
0.05
  0
TEXT
  5
165
330
17
100
AcDbEntity
  8
A-TEXT
100
AcDbText
 10
13.75
 20
27.4
 30
0.0
 40
0.11000000000000001
  1
עולה
 11
13.75
 21
27.4
 31
0.0
100
AcDbText
  0
TEXT
  5
166
330
17
100
AcDbEntity
  8
A-TEXT
100
AcDbText
 10
14.4
 20
28.599999999999998
 30
0.0
 40
0.09
  1
21×17.1/28
 11
14.4
 21
28.599999999999998
 31
0.0
100
AcDbText
  0
LWPOLYLINE
  5
167
330
17
100
AcDbEntity
  8
A-THIN
100
AcDbPolyline
 90
4
 70
1
 10
14.399999999999999
 20
30.22
 10
15.499999999999998
 20
30.22
 10
15.499999999999998
 20
30.5
 10
14.399999999999999
 20
30.5
  0
LWPOLYLINE
  5
168
330
17
100
AcDbEntity
  8
A-THIN
100
AcDbPolyline
 90
4
 70
1
 10
14.399999999999999
 20
29.94
 10
15.499999999999998
 20
29.94
 10
15.499999999999998
 20
30.22
 10
14.399999999999999
 20
30.22
  0
LWPOLYLINE
  5
169
330
17
100
AcDbEntity
  8
A-THIN
100
AcDbPolyline
 90
4
 70
1
 10
14.399999999999999
 20
29.66
 10
15.499999999999998
 20
29.66
 10
15.499999999999998
 20
29.94
 10
14.399999999999999
 20
29.94
  0
LWPOLYLINE
  5
16A
330
17
100
AcDbEntity
  8
A-THIN
100
AcDbPolyline
 90
4
 70
1
 10
14.399999999999999
 20
29.38
 10
15.499999999999998
 20
29.38
 10
15.499999999999998
 20
29.66
 10
14.399999999999999
 20
29.66
  0
LWPOLYLINE
  5
16B
330
17
100
AcDbEntity
  8
A-THIN
100
AcDbPolyline
 90
4
 70
1
 10
14.399999999999999
 20
29.1
 10
15.499999999999998
 20
29.1
 10
15.499999999999998
 20
29.38
 10
14.399999999999999
 20
29.38
  0
LWPOLYLINE
  5
16C
330
17
100
AcDbEntity
  8
A-THIN
100
AcDbPolyline
 90
4
 70
1
 10
14.399999999999999
 20
28.82
 10
15.499999999999998
 20
28.82
 10
15.499999999999998
 20
29.1
 10
14.399999999999999
 20
29.1
  0
LWPOLYLINE
  5
16D
330
17
100
AcDbEntity
  8
A-THIN
100
AcDbPolyline
 90
4
 70
1
 10
14.399999999999999
 20
28.54
 10
15.499999999999998
 20
28.54
 10
15.499999999999998
 20
28.82
 10
14.399999999999999
 20
28.82
  0
LWPOLYLINE
  5
16E
330
17
100
AcDbEntity
  8
A-THIN
100
AcDbPolyline
 90
4
 70
1
 10
14.399999999999999
 20
28.259999999999998
 10
15.499999999999998
 20
28.259999999999998
 10
15.499999999999998
 20
28.54
 10
14.399999999999999
 20
28.54
  0
LWPOLYLINE
  5
16F
330
17
100
AcDbEntity
  8
A-THIN
100
AcDbPolyline
 90
4
 70
1
 10
14.399999999999999
 20
27.98
 10
15.499999999999998
 20
27.98
 10
15.499999999999998
 20
28.259999999999998
 10
14.399999999999999
 20
28.259999999999998
  0
LWPOLYLINE
  5
170
330
17
100
AcDbEntity
  8
A-THIN
100
AcDbPolyline
 90
2
 70
0
 10
14.95
 20
28.080000000000002
 10
14.95
 20
30.2
  0
LWPOLYLINE
  5
171
330
17
100
AcDbEntity
  8
A-THIN
100
AcDbPolyline
 90
3
 70
1
 10
14.86
 20
30.02
 10
15.04
 20
30.02
 10
14.95
 20
30.2
  0
TEXT
  5
172
330
17
100
AcDbEntity
  8
A-TEXT
100
AcDbText
 10
14.95
 20
27.68
 30
0.0
 40
0.11000000000000001
  1
יורד
 11
14.95
 21
27.68
 31
0.0
100
AcDbText
  0
LINE
  5
173
330
17
100
AcDbEntity
  8
A-MAIN
100
AcDbLine
 10
14.35
 20
27.7
 30
0.0
 11
14.35
 21
30.5
 31
0.0
  0
LWPOLYLINE
  5
174
330
17
100
AcDbEntity
  8
A-THIN
100
AcDbPolyline
 90
4
 70
1
 10
15.95
 20
29.979999999999997
 10
17.25
 20
29.979999999999997
 10
17.25
 20
31.65
 10
15.95
 20
31.65
  0
LINE
  5
175
330
17
100
AcDbEntity
  8
A-THIN
100
AcDbLine
 10
15.95
 20
29.979999999999997
 30
0.0
 11
17.25
 21
31.65
 31
0.0
  0
LINE
  5
176
330
17
100
AcDbEntity
  8
A-THIN
100
AcDbLine
 10
17.25
 20
29.979999999999997
 30
0.0
 11
15.95
 21
31.65
 31
0.0
  0
TEXT
  5
177
330
17
100
AcDbEntity
  8
A-TEXT
100
AcDbText
 10
16.6
 20
31.049999999999997
 30
0.0
 40
0.11000000000000001
  1
מעלית
 11
16.6
 21
31.049999999999997
 31
0.0
100
AcDbText
  0
HATCH
  5
178
330
17
100
AcDbEntity
  8
A-HATCH
 62
7
100
AcDbHatch
 10
0.0
 20
0.0
 30
0.0
210
0.0
220
0.0
230
1.0
  2
ANSI31
 70
0
 71
0
 91
1
 92
3
 72
0
 73
1
 93
5
 10
21.8
 20
21.299999999999997
 10
22.3
 20
21.299999999999997
 10
22.3
 20
21.099999999999998
 10
21.8
 20
21.099999999999998
 10
21.8
 20
21.299999999999997
 97
0
 75
1
 76
1
 52
0.0
 41
0.125
 77
0
 78
1
 53
45.0
 43
0.0
 44
0.0
 45
-0.2806330038
 46
0.2806330038
 79
0
 98
0
  0
HATCH
  5
179
330
17
100
AcDbEntity
  8
A-HATCH
 62
7
100
AcDbHatch
 10
0.0
 20
0.0
 30
0.0
210
0.0
220
0.0
230
1.0
  2
ANSI31
 70
0
 71
0
 91
1
 92
3
 72
0
 73
1
 93
5
 10
25.0
 20
21.299999999999997
 10
25.0
 20
21.099999999999998
 10
24.4
 20
21.099999999999998
 10
24.4
 20
21.299999999999997
 10
25.0
 20
21.299999999999997
 97
0
 75
1
 76
1
 52
0.0
 41
0.125
 77
0
 78
1
 53
45.0
 43
0.0
 44
0.0
 45
-0.2806330038
 46
0.2806330038
 79
0
 98
0
  0
HATCH
  5
17A
330
17
100
AcDbEntity
  8
A-HATCH
 62
7
100
AcDbHatch
 10
0.0
 20
0.0
 30
0.0
210
0.0
220
0.0
230
1.0
  2
ANSI31
 70
0
 71
0
 91
1
 92
3
 72
0
 73
1
 93
5
 10
18.8
 20
21.299999999999997
 10
19.4
 20
21.299999999999997
 10
19.4
 20
21.099999999999998
 10
18.8
 20
21.099999999999998
 10
18.8
 20
21.299999999999997
 97
0
 75
1
 76
1
 52
0.0
 41
0.125
 77
0
 78
1
 53
45.0
 43
0.0
 44
0.0
 45
-0.2806330038
 46
0.2806330038
 79
0
 98
0
  0
HATCH
  5
17B
330
17
100
AcDbEntity
  8
A-HATCH
 62
7
100
AcDbHatch
 10
0.0
 20
0.0
 30
0.0
210
0.0
220
0.0
230
1.0
  2
ANSI31
 70
0
 71
0
 91
1
 92
3
 72
0
 73
1
 93
5
 10
13.3
 20
21.299999999999997
 10
13.3
 20
21.099999999999998
 10
12.7
 20
21.099999999999998
 10
12.7
 20
21.299999999999997
 10
13.3
 20
21.299999999999997
 97
0
 75
1
 76
1
 52
0.0
 41
0.125
 77
0
 78
1
 53
45.0
 43
0.0
 44
0.0
 45
-0.2806330038
 46
0.2806330038
 79
0
 98
0
  0
HATCH
  5
17C
330
17
100
AcDbEntity
  8
A-HATCH
 62
7
100
AcDbHatch
 10
0.0
 20
0.0
 30
0.0
210
0.0
220
0.0
230
1.0
  2
ANSI31
 70
0
 71
0
 91
1
 92
3
 72
0
 73
1
 93
5
 10
6.45
 20
21.099999999999998
 10
6.0
 20
21.099999999999998
 10
6.0
 20
21.299999999999997
 10
6.45
 20
21.299999999999997
 10
6.45
 20
21.099999999999998
 97
0
 75
1
 76
1
 52
0.0
 41
0.125
 77
0
 78
1
 53
45.0
 43
0.0
 44
0.0
 45
-0.2806330038
 46
0.2806330038
 79
0
 98
0
  0
HATCH
  5
17D
330
17
100
AcDbEntity
  8
A-HATCH
 62
7
100
AcDbHatch
 10
0.0
 20
0.0
 30
0.0
210
0.0
220
0.0
230
1.0
  2
ANSI32
 70
0
 71
0
 91
1
 92
3
 72
0
 73
1
 93
5
 10
21.8
 20
21.099999999999998
 10
22.3
 20
21.099999999999998
 10
22.3
 20
21.0
 10
21.8
 20
21.0
 10
21.8
 20
21.099999999999998
 97
0
 75
1
 76
1
 52
0.0
 41
0.1
 77
0
 78
2
 53
45.0
 43
0.0
 44
0.0
 45
-0.6735192091
 46
0.6735192091
 79
0
 53
45.0
 43
0.4490128053
 44
0.0
 45
-0.6735192091
 46
0.6735192091
 79
0
 98
0
  0
LWPOLYLINE
  5
17E
330
17
100
AcDbEntity
  8
A-THIN
100
AcDbPolyline
 90
5
 70
1
 10
21.8
 20
21.099999999999998
 10
22.3
 20
21.099999999999998
 10
22.3
 20
21.0
 10
21.8
 20
21.0
 10
21.8
 20
21.099999999999998
  0
HATCH
  5
17F
330
17
100
AcDbEntity
  8
A-HATCH
 62
7
100
AcDbHatch
 10
0.0
 20
0.0
 30
0.0
210
0.0
220
0.0
230
1.0
  2
ANSI32
 70
0
 71
0
 91
1
 92
3
 72
0
 73
1
 93
5
 10
25.0
 20
21.099999999999998
 10
25.0
 20
21.0
 10
24.4
 20
21.0
 10
24.4
 20
21.099999999999998
 10
25.0
 20
21.099999999999998
 97
0
 75
1
 76
1
 52
0.0
 41
0.1
 77
0
 78
2
 53
45.0
 43
0.0
 44
0.0
 45
-0.6735192091
 46
0.6735192091
 79
0
 53
45.0
 43
0.4490128053
 44
0.0
 45
-0.6735192091
 46
0.6735192091
 79
0
 98
0
  0
LWPOLYLINE
  5
180
330
17
100
AcDbEntity
  8
A-THIN
100
AcDbPolyline
 90
5
 70
1
 10
25.0
 20
21.099999999999998
 10
25.0
 20
21.0
 10
24.4
 20
21.0
 10
24.4
 20
21.099999999999998
 10
25.0
 20
21.099999999999998
  0
HATCH
  5
181
330
17
100
AcDbEntity
  8
A-HATCH
 62
7
100
AcDbHatch
 10
0.0
 20
0.0
 30
0.0
210
0.0
220
0.0
230
1.0
  2
ANSI32
 70
0
 71
0
 91
1
 92
3
 72
0
 73
1
 93
5
 10
18.8
 20
21.099999999999998
 10
19.4
 20
21.099999999999998
 10
19.4
 20
21.0
 10
18.8
 20
21.0
 10
18.8
 20
21.099999999999998
 97
0
 75
1
 76
1
 52
0.0
 41
0.1
 77
0
 78
2
 53
45.0
 43
0.0
 44
0.0
 45
-0.6735192091
 46
0.6735192091
 79
0
 53
45.0
 43
0.4490128053
 44
0.0
 45
-0.6735192091
 46
0.6735192091
 79
0
 98
0
  0
LWPOLYLINE
  5
182
330
17
100
AcDbEntity
  8
A-THIN
100
AcDbPolyline
 90
5
 70
1
 10
18.8
 20
21.099999999999998
 10
19.4
 20
21.099999999999998
 10
19.4
 20
21.0
 10
18.8
 20
21.0
 10
18.8
 20
21.099999999999998
  0
HATCH
  5
183
330
17
100
AcDbEntity
  8
A-HATCH
 62
7
100
AcDbHatch
 10
0.0
 20
0.0
 30
0.0
210
0.0
220
0.0
230
1.0
  2
ANSI32
 70
0
 71
0
 91
1
 92
3
 72
0
 73
1
 93
5
 10
13.3
 20
21.099999999999998
 10
13.3
 20
21.0
 10
12.7
 20
21.0
 10
12.7
 20
21.099999999999998
 10
13.3
 20
21.099999999999998
 97
0
 75
1
 76
1
 52
0.0
 41
0.1
 77
0
 78
2
 53
45.0
 43
0.0
 44
0.0
 45
-0.6735192091
 46
0.6735192091
 79
0
 53
45.0
 43
0.4490128053
 44
0.0
 45
-0.6735192091
 46
0.6735192091
 79
0
 98
0
  0
LWPOLYLINE
  5
184
330
17
100
AcDbEntity
  8
A-THIN
100
AcDbPolyline
 90
5
 70
1
 10
13.3
 20
21.099999999999998
 10
13.3
 20
21.0
 10
12.7
 20
21.0
 10
12.7
 20
21.099999999999998
 10
13.3
 20
21.099999999999998
  0
HATCH
  5
185
330
17
100
AcDbEntity
  8
A-HATCH
 62
7
100
AcDbHatch
 10
0.0
 20
0.0
 30
0.0
210
0.0
220
0.0
230
1.0
  2
ANSI32
 70
0
 71
0
 91
1
 92
3
 72
0
 73
1
 93
5
 10
6.45
 20
21.0
 10
6.0
 20
21.0
 10
6.0
 20
21.099999999999998
 10
6.45
 20
21.099999999999998
 10
6.45
 20
21.0
 97
0
 75
1
 76
1
 52
0.0
 41
0.1
 77
0
 78
2
 53
45.0
 43
0.0
 44
0.0
 45
-0.6735192091
 46
0.6735192091
 79
0
 53
45.0
 43
0.4490128053
 44
0.0
 45
-0.6735192091
 46
0.6735192091
 79
0
 98
0
  0
LWPOLYLINE
  5
186
330
17
100
AcDbEntity
  8
A-THIN
100
AcDbPolyline
 90
5
 70
1
 10
6.45
 20
21.0
 10
6.0
 20
21.0
 10
6.0
 20
21.099999999999998
 10
6.45
 20
21.099999999999998
 10
6.45
 20
21.0
  0
HATCH
  5
187
330
17
100
AcDbEntity
  8
A-HATCH
 62
7
100
AcDbHatch
 10
0.0
 20
0.0
 30
0.0
210
0.0
220
0.0
230
1.0
  2
ANSI31
 70
0
 71
0
 91
1
 92
3
 72
0
 73
1
 93
5
 10
24.900000000000002
 20
22.0
 10
24.900000000000002
 20
21.0
 10
24.700000000000003
 20
21.0
 10
24.700000000000003
 20
22.0
 10
24.900000000000002
 20
22.0
 97
0
 75
1
 76
1
 52
0.0
 41
0.125
 77
0
 78
1
 53
45.0
 43
0.0
 44
0.0
 45
-0.2806330038
 46
0.2806330038
 79
0
 98
0
  0
HATCH
  5
188
330
17
100
AcDbEntity
  8
A-HATCH
 62
7
100
AcDbHatch
 10
0.0
 20
0.0
 30
0.0
210
0.0
220
0.0
230
1.0
  2
ANSI31
 70
0
 71
0
 91
1
 92
3
 72
0
 73
1
 93
5
 10
24.700000000000003
 20
30.5
 10
24.700000000000003
 20
30.6
 10
24.900000000000002
 20
30.6
 10
24.900000000000002
 20
30.5
 10
24.700000000000003
 20
30.5
 97
0
 75
1
 76
1
 52
0.0
 41
0.125
 77
0
 78
1
 53
45.0
 43
0.0
 44
0.0
 45
-0.2806330038
 46
0.2806330038
 79
0
 98
0
  0
HATCH
  5
189
330
17
100
AcDbEntity
  8
A-HATCH
 62
7
100
AcDbHatch
 10
0.0
 20
0.0
 30
0.0
210
0.0
220
0.0
230
1.0
  2
ANSI31
 70
0
 71
0
 91
1
 92
3
 72
0
 73
1
 93
5
 10
24.700000000000003
 20
32.0
 10
24.900000000000002
 20
32.0
 10
24.900000000000002
 20
31.5
 10
24.700000000000003
 20
31.5
 10
24.700000000000003
 20
32.0
 97
0
 75
1
 76
1
 52
0.0
 41
0.125
 77
0
 78
1
 53
45.0
 43
0.0
 44
0.0
 45
-0.2806330038
 46
0.2806330038
 79
0
 98
0
  0
HATCH
  5
18A
330
17
100
AcDbEntity
  8
A-HATCH
 62
7
100
AcDbHatch
 10
0.0
 20
0.0
 30
0.0
210
0.0
220
0.0
230
1.0
  2
ANSI31
 70
0
 71
0
 91
1
 92
3
 72
0
 73
1
 93
5
 10
24.700000000000003
 20
26.4
 10
24.700000000000003
 20
29.1
 10
24.900000000000002
 20
29.1
 10
24.900000000000002
 20
26.4
 10
24.700000000000003
 20
26.4
 97
0
 75
1
 76
1
 52
0.0
 41
0.125
 77
0
 78
1
 53
45.0
 43
0.0
 44
0.0
 45
-0.2806330038
 46
0.2806330038
 79
0
 98
0
  0
HATCH
  5
18B
330
17
100
AcDbEntity
  8
A-HATCH
 62
7
100
AcDbHatch
 10
0.0
 20
0.0
 30
0.0
210
0.0
220
0.0
230
1.0
  2
ANSI31
 70
0
 71
0
 91
1
 92
3
 72
0
 73
1
 93
5
 10
24.700000000000003
 20
25.5
 10
24.900000000000002
 20
25.5
 10
24.900000000000002
 20
25.0
 10
24.700000000000003
 20
25.0
 10
24.700000000000003
 20
25.5
 97
0
 75
1
 76
1
 52
0.0
 41
0.125
 77
0
 78
1
 53
45.0
 43
0.0
 44
0.0
 45
-0.2806330038
 46
0.2806330038
 79
0
 98
0
  0
HATCH
  5
18C
330
17
100
AcDbEntity
  8
A-HATCH
 62
7
100
AcDbHatch
 10
0.0
 20
0.0
 30
0.0
210
0.0
220
0.0
230
1.0
  2
ANSI32
 70
0
 71
0
 91
1
 92
3
 72
0
 73
1
 93
5
 10
25.0
 20
22.0
 10
25.0
 20
21.0
 10
24.900000000000002
 20
21.0
 10
24.900000000000002
 20
22.0
 10
25.0
 20
22.0
 97
0
 75
1
 76
1
 52
0.0
 41
0.1
 77
0
 78
2
 53
45.0
 43
0.0
 44
0.0
 45
-0.6735192091
 46
0.6735192091
 79
0
 53
45.0
 43
0.4490128053
 44
0.0
 45
-0.6735192091
 46
0.6735192091
 79
0
 98
0
  0
LWPOLYLINE
  5
18D
330
17
100
AcDbEntity
  8
A-THIN
100
AcDbPolyline
 90
5
 70
1
 10
25.0
 20
22.0
 10
25.0
 20
21.0
 10
24.900000000000002
 20
21.0
 10
24.900000000000002
 20
22.0
 10
25.0
 20
22.0
  0
HATCH
  5
18E
330
17
100
AcDbEntity
  8
A-HATCH
 62
7
100
AcDbHatch
 10
0.0
 20
0.0
 30
0.0
210
0.0
220
0.0
230
1.0
  2
ANSI32
 70
0
 71
0
 91
1
 92
3
 72
0
 73
1
 93
5
 10
24.900000000000002
 20
30.5
 10
24.900000000000002
 20
30.6
 10
25.0
 20
30.6
 10
25.0
 20
30.5
 10
24.900000000000002
 20
30.5
 97
0
 75
1
 76
1
 52
0.0
 41
0.1
 77
0
 78
2
 53
45.0
 43
0.0
 44
0.0
 45
-0.6735192091
 46
0.6735192091
 79
0
 53
45.0
 43
0.4490128053
 44
0.0
 45
-0.6735192091
 46
0.6735192091
 79
0
 98
0
  0
LWPOLYLINE
  5
18F
330
17
100
AcDbEntity
  8
A-THIN
100
AcDbPolyline
 90
5
 70
1
 10
24.900000000000002
 20
30.5
 10
24.900000000000002
 20
30.6
 10
25.0
 20
30.6
 10
25.0
 20
30.5
 10
24.900000000000002
 20
30.5
  0
HATCH
  5
190
330
17
100
AcDbEntity
  8
A-HATCH
 62
7
100
AcDbHatch
 10
0.0
 20
0.0
 30
0.0
210
0.0
220
0.0
230
1.0
  2
ANSI32
 70
0
 71
0
 91
1
 92
3
 72
0
 73
1
 93
5
 10
24.900000000000002
 20
32.0
 10
25.0
 20
32.0
 10
25.0
 20
31.5
 10
24.900000000000002
 20
31.5
 10
24.900000000000002
 20
32.0
 97
0
 75
1
 76
1
 52
0.0
 41
0.1
 77
0
 78
2
 53
45.0
 43
0.0
 44
0.0
 45
-0.6735192091
 46
0.6735192091
 79
0
 53
45.0
 43
0.4490128053
 44
0.0
 45
-0.6735192091
 46
0.6735192091
 79
0
 98
0
  0
LWPOLYLINE
  5
191
330
17
100
AcDbEntity
  8
A-THIN
100
AcDbPolyline
 90
5
 70
1
 10
24.900000000000002
 20
32.0
 10
25.0
 20
32.0
 10
25.0
 20
31.5
 10
24.900000000000002
 20
31.5
 10
24.900000000000002
 20
32.0
  0
HATCH
  5
192
330
17
100
AcDbEntity
  8
A-HATCH
 62
7
100
AcDbHatch
 10
0.0
 20
0.0
 30
0.0
210
0.0
220
0.0
230
1.0
  2
ANSI32
 70
0
 71
0
 91
1
 92
3
 72
0
 73
1
 93
5
 10
24.900000000000002
 20
26.4
 10
24.900000000000002
 20
29.1
 10
25.0
 20
29.1
 10
25.0
 20
26.4
 10
24.900000000000002
 20
26.4
 97
0
 75
1
 76
1
 52
0.0
 41
0.1
 77
0
 78
2
 53
45.0
 43
0.0
 44
0.0
 45
-0.6735192091
 46
0.6735192091
 79
0
 53
45.0
 43
0.4490128053
 44
0.0
 45
-0.6735192091
 46
0.6735192091
 79
0
 98
0
  0
LWPOLYLINE
  5
193
330
17
100
AcDbEntity
  8
A-THIN
100
AcDbPolyline
 90
5
 70
1
 10
24.900000000000002
 20
26.4
 10
24.900000000000002
 20
29.1
 10
25.0
 20
29.1
 10
25.0
 20
26.4
 10
24.900000000000002
 20
26.4
  0
HATCH
  5
194
330
17
100
AcDbEntity
  8
A-HATCH
 62
7
100
AcDbHatch
 10
0.0
 20
0.0
 30
0.0
210
0.0
220
0.0
230
1.0
  2
ANSI32
 70
0
 71
0
 91
1
 92
3
 72
0
 73
1
 93
5
 10
24.900000000000002
 20
25.5
 10
25.0
 20
25.5
 10
25.0
 20
25.0
 10
24.900000000000002
 20
25.0
 10
24.900000000000002
 20
25.5
 97
0
 75
1
 76
1
 52
0.0
 41
0.1
 77
0
 78
2
 53
45.0
 43
0.0
 44
0.0
 45
-0.6735192091
 46
0.6735192091
 79
0
 53
45.0
 43
0.4490128053
 44
0.0
 45
-0.6735192091
 46
0.6735192091
 79
0
 98
0
  0
LWPOLYLINE
  5
195
330
17
100
AcDbEntity
  8
A-THIN
100
AcDbPolyline
 90
5
 70
1
 10
24.900000000000002
 20
25.5
 10
25.0
 20
25.5
 10
25.0
 20
25.0
 10
24.900000000000002
 20
25.0
 10
24.900000000000002
 20
25.5
  0
HATCH
  5
196
330
17
100
AcDbEntity
  8
A-HATCH
 62
7
100
AcDbHatch
 10
0.0
 20
0.0
 30
0.0
210
0.0
220
0.0
230
1.0
  2
ANSI31
 70
0
 71
0
 91
1
 92
3
 72
0
 73
1
 93
5
 10
15.3
 20
31.900000000000002
 10
19.6
 20
31.900000000000002
 10
19.6
 20
31.700000000000003
 10
15.3
 20
31.700000000000003
 10
15.3
 20
31.900000000000002
 97
0
 75
1
 76
1
 52
0.0
 41
0.125
 77
0
 78
1
 53
45.0
 43
0.0
 44
0.0
 45
-0.2806330038
 46
0.2806330038
 79
0
 98
0
  0
HATCH
  5
197
330
17
100
AcDbEntity
  8
A-HATCH
 62
7
100
AcDbHatch
 10
0.0
 20
0.0
 30
0.0
210
0.0
220
0.0
230
1.0
  2
ANSI31
 70
0
 71
0
 91
1
 92
3
 72
0
 73
1
 93
5
 10
25.0
 20
31.900000000000002
 10
25.0
 20
31.700000000000003
 10
24.4
 20
31.700000000000003
 10
24.4
 20
31.900000000000002
 10
25.0
 20
31.900000000000002
 97
0
 75
1
 76
1
 52
0.0
 41
0.125
 77
0
 78
1
 53
45.0
 43
0.0
 44
0.0
 45
-0.2806330038
 46
0.2806330038
 79
0
 98
0
  0
HATCH
  5
198
330
17
100
AcDbEntity
  8
A-HATCH
 62
7
100
AcDbHatch
 10
0.0
 20
0.0
 30
0.0
210
0.0
220
0.0
230
1.0
  2
ANSI31
 70
0
 71
0
 91
1
 92
3
 72
0
 73
1
 93
5
 10
12.1
 20
31.900000000000002
 10
13.4
 20
31.900000000000002
 10
13.4
 20
31.700000000000003
 10
12.1
 20
31.700000000000003
 10
12.1
 20
31.900000000000002
 97
0
 75
1
 76
1
 52
0.0
 41
0.125
 77
0
 78
1
 53
45.0
 43
0.0
 44
0.0
 45
-0.2806330038
 46
0.2806330038
 79
0
 98
0
  0
HATCH
  5
199
330
17
100
AcDbEntity
  8
A-HATCH
 62
7
100
AcDbHatch
 10
0.0
 20
0.0
 30
0.0
210
0.0
220
0.0
230
1.0
  2
ANSI31
 70
0
 71
0
 91
1
 92
3
 72
0
 73
1
 93
5
 10
11.5
 20
31.900000000000002
 10
11.5
 20
31.700000000000003
 10
7.8
 20
31.700000000000003
 10
7.8
 20
31.900000000000002
 10
11.5
 20
31.900000000000002
 97
0
 75
1
 76
1
 52
0.0
 41
0.125
 77
0
 78
1
 53
45.0
 43
0.0
 44
0.0
 45
-0.2806330038
 46
0.2806330038
 79
0
 98
0
  0
HATCH
  5
19A
330
17
100
AcDbEntity
  8
A-HATCH
 62
7
100
AcDbHatch
 10
0.0
 20
0.0
 30
0.0
210
0.0
220
0.0
230
1.0
  2
ANSI31
 70
0
 71
0
 91
1
 92
3
 72
0
 73
1
 93
5
 10
7.2
 20
31.700000000000003
 10
6.0
 20
31.700000000000003
 10
6.0
 20
31.900000000000002
 10
7.2
 20
31.900000000000002
 10
7.2
 20
31.700000000000003
 97
0
 75
1
 76
1
 52
0.0
 41
0.125
 77
0
 78
1
 53
45.0
 43
0.0
 44
0.0
 45
-0.2806330038
 46
0.2806330038
 79
0
 98
0
  0
HATCH
  5
19B
330
17
100
AcDbEntity
  8
A-HATCH
 62
7
100
AcDbHatch
 10
0.0
 20
0.0
 30
0.0
210
0.0
220
0.0
230
1.0
  2
ANSI32
 70
0
 71
0
 91
1
 92
3
 72
0
 73
1
 93
5
 10
15.3
 20
32.0
 10
19.6
 20
32.0
 10
19.6
 20
31.900000000000002
 10
15.3
 20
31.900000000000002
 10
15.3
 20
32.0
 97
0
 75
1
 76
1
 52
0.0
 41
0.1
 77
0
 78
2
 53
45.0
 43
0.0
 44
0.0
 45
-0.6735192091
 46
0.6735192091
 79
0
 53
45.0
 43
0.4490128053
 44
0.0
 45
-0.6735192091
 46
0.6735192091
 79
0
 98
0
  0
LWPOLYLINE
  5
19C
330
17
100
AcDbEntity
  8
A-THIN
100
AcDbPolyline
 90
5
 70
1
 10
15.3
 20
32.0
 10
19.6
 20
32.0
 10
19.6
 20
31.900000000000002
 10
15.3
 20
31.900000000000002
 10
15.3
 20
32.0
  0
HATCH
  5
19D
330
17
100
AcDbEntity
  8
A-HATCH
 62
7
100
AcDbHatch
 10
0.0
 20
0.0
 30
0.0
210
0.0
220
0.0
230
1.0
  2
ANSI32
 70
0
 71
0
 91
1
 92
3
 72
0
 73
1
 93
5
 10
25.0
 20
32.0
 10
25.0
 20
31.900000000000002
 10
24.4
 20
31.900000000000002
 10
24.4
 20
32.0
 10
25.0
 20
32.0
 97
0
 75
1
 76
1
 52
0.0
 41
0.1
 77
0
 78
2
 53
45.0
 43
0.0
 44
0.0
 45
-0.6735192091
 46
0.6735192091
 79
0
 53
45.0
 43
0.4490128053
 44
0.0
 45
-0.6735192091
 46
0.6735192091
 79
0
 98
0
  0
LWPOLYLINE
  5
19E
330
17
100
AcDbEntity
  8
A-THIN
100
AcDbPolyline
 90
5
 70
1
 10
25.0
 20
32.0
 10
25.0
 20
31.900000000000002
 10
24.4
 20
31.900000000000002
 10
24.4
 20
32.0
 10
25.0
 20
32.0
  0
HATCH
  5
19F
330
17
100
AcDbEntity
  8
A-HATCH
 62
7
100
AcDbHatch
 10
0.0
 20
0.0
 30
0.0
210
0.0
220
0.0
230
1.0
  2
ANSI32
 70
0
 71
0
 91
1
 92
3
 72
0
 73
1
 93
5
 10
12.1
 20
32.0
 10
13.4
 20
32.0
 10
13.4
 20
31.900000000000002
 10
12.1
 20
31.900000000000002
 10
12.1
 20
32.0
 97
0
 75
1
 76
1
 52
0.0
 41
0.1
 77
0
 78
2
 53
45.0
 43
0.0
 44
0.0
 45
-0.6735192091
 46
0.6735192091
 79
0
 53
45.0
 43
0.4490128053
 44
0.0
 45
-0.6735192091
 46
0.6735192091
 79
0
 98
0
  0
LWPOLYLINE
  5
1A0
330
17
100
AcDbEntity
  8
A-THIN
100
AcDbPolyline
 90
5
 70
1
 10
12.1
 20
32.0
 10
13.4
 20
32.0
 10
13.4
 20
31.900000000000002
 10
12.1
 20
31.900000000000002
 10
12.1
 20
32.0
  0
HATCH
  5
1A1
330
17
100
AcDbEntity
  8
A-HATCH
 62
7
100
AcDbHatch
 10
0.0
 20
0.0
 30
0.0
210
0.0
220
0.0
230
1.0
  2
ANSI32
 70
0
 71
0
 91
1
 92
3
 72
0
 73
1
 93
5
 10
11.5
 20
32.0
 10
11.5
 20
31.900000000000002
 10
7.8
 20
31.900000000000002
 10
7.8
 20
32.0
 10
11.5
 20
32.0
 97
0
 75
1
 76
1
 52
0.0
 41
0.1
 77
0
 78
2
 53
45.0
 43
0.0
 44
0.0
 45
-0.6735192091
 46
0.6735192091
 79
0
 53
45.0
 43
0.4490128053
 44
0.0
 45
-0.6735192091
 46
0.6735192091
 79
0
 98
0
  0
LWPOLYLINE
  5
1A2
330
17
100
AcDbEntity
  8
A-THIN
100
AcDbPolyline
 90
5
 70
1
 10
11.5
 20
32.0
 10
11.5
 20
31.900000000000002
 10
7.8
 20
31.900000000000002
 10
7.8
 20
32.0
 10
11.5
 20
32.0
  0
HATCH
  5
1A3
330
17
100
AcDbEntity
  8
A-HATCH
 62
7
100
AcDbHatch
 10
0.0
 20
0.0
 30
0.0
210
0.0
220
0.0
230
1.0
  2
ANSI32
 70
0
 71
0
 91
1
 92
3
 72
0
 73
1
 93
5
 10
7.2
 20
31.900000000000002
 10
6.0
 20
31.900000000000002
 10
6.0
 20
32.0
 10
7.2
 20
32.0
 10
7.2
 20
31.900000000000002
 97
0
 75
1
 76
1
 52
0.0
 41
0.1
 77
0
 78
2
 53
45.0
 43
0.0
 44
0.0
 45
-0.6735192091
 46
0.6735192091
 79
0
 53
45.0
 43
0.4490128053
 44
0.0
 45
-0.6735192091
 46
0.6735192091
 79
0
 98
0
  0
LWPOLYLINE
  5
1A4
330
17
100
AcDbEntity
  8
A-THIN
100
AcDbPolyline
 90
5
 70
1
 10
7.2
 20
31.900000000000002
 10
6.0
 20
31.900000000000002
 10
6.0
 20
32.0
 10
7.2
 20
32.0
 10
7.2
 20
31.900000000000002
  0
HATCH
  5
1A5
330
17
100
AcDbEntity
  8
A-HATCH
 62
7
100
AcDbHatch
 10
0.0
 20
0.0
 30
0.0
210
0.0
220
0.0
230
1.0
  2
ANSI31
 70
0
 71
0
 91
1
 92
3
 72
0
 73
1
 93
5
 10
6.1000000000000005
 20
21.0
 10
6.1000000000000005
 20
21.45
 10
6.300000000000001
 20
21.45
 10
6.300000000000001
 20
21.0
 10
6.1000000000000005
 20
21.0
 97
0
 75
1
 76
1
 52
0.0
 41
0.125
 77
0
 78
1
 53
45.0
 43
0.0
 44
0.0
 45
-0.2806330038
 46
0.2806330038
 79
0
 98
0
  0
HATCH
  5
1A6
330
17
100
AcDbEntity
  8
A-HATCH
 62
7
100
AcDbHatch
 10
0.0
 20
0.0
 30
0.0
210
0.0
220
0.0
230
1.0
  2
ANSI31
 70
0
 71
0
 91
1
 92
3
 72
0
 73
1
 93
5
 10
6.300000000000001
 20
32.0
 10
6.300000000000001
 20
29.6
 10
6.1000000000000005
 20
29.6
 10
6.1000000000000005
 20
32.0
 10
6.300000000000001
 20
32.0
 97
0
 75
1
 76
1
 52
0.0
 41
0.125
 77
0
 78
1
 53
45.0
 43
0.0
 44
0.0
 45
-0.2806330038
 46
0.2806330038
 79
0
 98
0
  0
HATCH
  5
1A7
330
17
100
AcDbEntity
  8
A-HATCH
 62
7
100
AcDbHatch
 10
0.0
 20
0.0
 30
0.0
210
0.0
220
0.0
230
1.0
  2
ANSI31
 70
0
 71
0
 91
1
 92
3
 72
0
 73
1
 93
5
 10
6.300000000000001
 20
25.6
 10
6.1000000000000005
 20
25.6
 10
6.1000000000000005
 20
26.4
 10
6.300000000000001
 20
26.4
 10
6.300000000000001
 20
25.6
 97
0
 75
1
 76
1
 52
0.0
 41
0.125
 77
0
 78
1
 53
45.0
 43
0.0
 44
0.0
 45
-0.2806330038
 46
0.2806330038
 79
0
 98
0
  0
HATCH
  5
1A8
330
17
100
AcDbEntity
  8
A-HATCH
 62
7
100
AcDbHatch
 10
0.0
 20
0.0
 30
0.0
210
0.0
220
0.0
230
1.0
  2
ANSI32
 70
0
 71
0
 91
1
 92
3
 72
0
 73
1
 93
5
 10
6.0
 20
21.0
 10
6.0
 20
21.45
 10
6.1000000000000005
 20
21.45
 10
6.1000000000000005
 20
21.0
 10
6.0
 20
21.0
 97
0
 75
1
 76
1
 52
0.0
 41
0.1
 77
0
 78
2
 53
45.0
 43
0.0
 44
0.0
 45
-0.6735192091
 46
0.6735192091
 79
0
 53
45.0
 43
0.4490128053
 44
0.0
 45
-0.6735192091
 46
0.6735192091
 79
0
 98
0
  0
LWPOLYLINE
  5
1A9
330
17
100
AcDbEntity
  8
A-THIN
100
AcDbPolyline
 90
5
 70
1
 10
6.0
 20
21.0
 10
6.0
 20
21.45
 10
6.1000000000000005
 20
21.45
 10
6.1000000000000005
 20
21.0
 10
6.0
 20
21.0
  0
HATCH
  5
1AA
330
17
100
AcDbEntity
  8
A-HATCH
 62
7
100
AcDbHatch
 10
0.0
 20
0.0
 30
0.0
210
0.0
220
0.0
230
1.0
  2
ANSI32
 70
0
 71
0
 91
1
 92
3
 72
0
 73
1
 93
5
 10
6.1000000000000005
 20
32.0
 10
6.1000000000000005
 20
29.6
 10
6.0
 20
29.6
 10
6.0
 20
32.0
 10
6.1000000000000005
 20
32.0
 97
0
 75
1
 76
1
 52
0.0
 41
0.1
 77
0
 78
2
 53
45.0
 43
0.0
 44
0.0
 45
-0.6735192091
 46
0.6735192091
 79
0
 53
45.0
 43
0.4490128053
 44
0.0
 45
-0.6735192091
 46
0.6735192091
 79
0
 98
0
  0
LWPOLYLINE
  5
1AB
330
17
100
AcDbEntity
  8
A-THIN
100
AcDbPolyline
 90
5
 70
1
 10
6.1000000000000005
 20
32.0
 10
6.1000000000000005
 20
29.6
 10
6.0
 20
29.6
 10
6.0
 20
32.0
 10
6.1000000000000005
 20
32.0
  0
HATCH
  5
1AC
330
17
100
AcDbEntity
  8
A-HATCH
 62
7
100
AcDbHatch
 10
0.0
 20
0.0
 30
0.0
210
0.0
220
0.0
230
1.0
  2
ANSI32
 70
0
 71
0
 91
1
 92
3
 72
0
 73
1
 93
5
 10
6.1000000000000005
 20
25.6
 10
6.0
 20
25.6
 10
6.0
 20
26.4
 10
6.1000000000000005
 20
26.4
 10
6.1000000000000005
 20
25.6
 97
0
 75
1
 76
1
 52
0.0
 41
0.1
 77
0
 78
2
 53
45.0
 43
0.0
 44
0.0
 45
-0.6735192091
 46
0.6735192091
 79
0
 53
45.0
 43
0.4490128053
 44
0.0
 45
-0.6735192091
 46
0.6735192091
 79
0
 98
0
  0
LWPOLYLINE
  5
1AD
330
17
100
AcDbEntity
  8
A-THIN
100
AcDbPolyline
 90
5
 70
1
 10
6.1000000000000005
 20
25.6
 10
6.0
 20
25.6
 10
6.0
 20
26.4
 10
6.1000000000000005
 20
26.4
 10
6.1000000000000005
 20
25.6
  0
HATCH
  5
1AE
330
17
100
AcDbEntity
  8
A-HATCH
 62
7
100
AcDbHatch
 10
0.0
 20
0.0
 30
0.0
210
0.0
220
0.0
230
1.0
  2
ANSI31
 70
0
 71
0
 91
1
 92
3
 72
0
 73
1
 93
5
 10
13.0
 20
25.15
 10
13.0
 20
31.7
 10
12.7
 20
31.7
 10
12.7
 20
25.15
 10
13.0
 20
25.15
 97
0
 75
1
 76
1
 52
0.0
 41
0.2
 77
0
 78
1
 53
45.0
 43
0.0
 44
0.0
 45
-0.4490128061
 46
0.4490128061
 79
0
 98
0
  0
HATCH
  5
1AF
330
17
100
AcDbEntity
  8
A-HATCH
 62
7
100
AcDbHatch
 10
0.0
 20
0.0
 30
0.0
210
0.0
220
0.0
230
1.0
  2
ANSI37
 70
0
 71
0
 91
1
 92
3
 72
0
 73
1
 93
5
 10
19.119999999999997
 20
25.15
 10
19.0
 20
25.15
 10
19.0
 20
25.4
 10
19.119999999999997
 20
25.4
 10
19.119999999999997
 20
25.15
 97
0
 75
1
 76
1
 52
0.0
 41
0.1
 77
0
 78
2
 53
45.0
 43
0.0
 44
0.0
 45
-0.224506403
 46
0.224506403
 79
0
 53
135.0
 43
0.0
 44
0.0
 45
-0.224506403
 46
-0.224506403
 79
0
 98
0
  0
HATCH
  5
1B0
330
17
100
AcDbEntity
  8
A-HATCH
 62
7
100
AcDbHatch
 10
0.0
 20
0.0
 30
0.0
210
0.0
220
0.0
230
1.0
  2
ANSI37
 70
0
 71
0
 91
1
 92
3
 72
0
 73
1
 93
5
 10
19.0
 20
27.76
 10
19.119999999999997
 20
27.76
 10
19.119999999999997
 20
26.2
 10
19.0
 20
26.2
 10
19.0
 20
27.76
 97
0
 75
1
 76
1
 52
0.0
 41
0.1
 77
0
 78
2
 53
45.0
 43
0.0
 44
0.0
 45
-0.224506403
 46
0.224506403
 79
0
 53
135.0
 43
0.0
 44
0.0
 45
-0.224506403
 46
-0.224506403
 79
0
 98
0
  0
HATCH
  5
1B1
330
17
100
AcDbEntity
  8
A-HATCH
 62
7
100
AcDbHatch
 10
0.0
 20
0.0
 30
0.0
210
0.0
220
0.0
230
1.0
  2
ANSI37
 70
0
 71
0
 91
1
 92
3
 72
0
 73
1
 93
5
 10
24.7
 20
25.25
 10
24.7
 20
25.049999999999997
 10
22.0
 20
25.049999999999997
 10
22.0
 20
25.25
 10
24.7
 20
25.25
 97
0
 75
1
 76
1
 52
0.0
 41
0.1
 77
0
 78
2
 53
45.0
 43
0.0
 44
0.0
 45
-0.224506403
 46
0.224506403
 79
0
 53
135.0
 43
0.0
 44
0.0
 45
-0.224506403
 46
-0.224506403
 79
0
 98
0
  0
HATCH
  5
1B2
330
17
100
AcDbEntity
  8
A-HATCH
 62
7
100
AcDbHatch
 10
0.0
 20
0.0
 30
0.0
210
0.0
220
0.0
230
1.0
  2
ANSI37
 70
0
 71
0
 91
1
 92
3
 72
0
 73
1
 93
5
 10
19.06
 20
25.049999999999997
 10
19.06
 20
25.25
 10
21.2
 20
25.25
 10
21.2
 20
25.049999999999997
 10
19.06
 20
25.049999999999997
 97
0
 75
1
 76
1
 52
0.0
 41
0.1
 77
0
 78
2
 53
45.0
 43
0.0
 44
0.0
 45
-0.224506403
 46
0.224506403
 79
0
 53
135.0
 43
0.0
 44
0.0
 45
-0.224506403
 46
-0.224506403
 79
0
 98
0
  0
HATCH
  5
1B3
330
17
100
AcDbEntity
  8
A-HATCH
 62
7
100
AcDbHatch
 10
0.0
 20
0.0
 30
0.0
210
0.0
220
0.0
230
1.0
  2
ANSI37
 70
0
 71
0
 91
1
 92
3
 72
0
 73
1
 93
5
 10
21.02
 20
25.25
 10
21.02
 20
27.76
 10
20.900000000000002
 20
27.76
 10
20.900000000000002
 20
25.25
 10
21.02
 20
25.25
 97
0
 75
1
 76
1
 52
0.0
 41
0.1
 77
0
 78
2
 53
45.0
 43
0.0
 44
0.0
 45
-0.224506403
 46
0.224506403
 79
0
 53
135.0
 43
0.0
 44
0.0
 45
-0.224506403
 46
-0.224506403
 79
0
 98
0
  0
HATCH
  5
1B4
330
17
100
AcDbEntity
  8
A-HATCH
 62
7
100
AcDbHatch
 10
0.0
 20
0.0
 30
0.0
210
0.0
220
0.0
230
1.0
  2
ANSI37
 70
0
 71
0
 91
1
 92
3
 72
0
 73
1
 93
5
 10
24.7
 20
27.700000000000003
 10
24.7
 20
27.82
 10
19.12
 20
27.82
 10
19.12
 20
27.700000000000003
 10
24.7
 20
27.700000000000003
 97
0
 75
1
 76
1
 52
0.0
 41
0.1
 77
0
 78
2
 53
45.0
 43
0.0
 44
0.0
 45
-0.224506403
 46
0.224506403
 79
0
 53
135.0
 43
0.0
 44
0.0
 45
-0.224506403
 46
-0.224506403
 79
0
 98
0
  0
HATCH
  5
1B5
330
17
100
AcDbEntity
  8
A-HATCH
 62
7
100
AcDbHatch
 10
0.0
 20
0.0
 30
0.0
210
0.0
220
0.0
230
1.0
  2
ANSI37
 70
0
 71
0
 91
1
 92
3
 72
0
 73
1
 93
5
 10
17.619999999999997
 20
29.7
 10
17.619999999999997
 20
31.7
 10
17.5
 20
31.7
 10
17.5
 20
29.7
 10
17.619999999999997
 20
29.7
 97
0
 75
1
 76
1
 52
0.0
 41
0.1
 77
0
 78
2
 53
45.0
 43
0.0
 44
0.0
 45
-0.224506403
 46
0.224506403
 79
0
 53
135.0
 43
0.0
 44
0.0
 45
-0.224506403
 46
-0.224506403
 79
0
 98
0
  0
HATCH
  5
1B6
330
17
100
AcDbEntity
  8
A-HATCH
 62
7
100
AcDbHatch
 10
0.0
 20
0.0
 30
0.0
210
0.0
220
0.0
230
1.0
  2
ANSI31
 70
0
 71
0
 91
1
 92
3
 72
0
 73
1
 93
5
 10
15.899999999999999
 20
29.7
 10
15.899999999999999
 20
31.7
 10
15.7
 20
31.7
 10
15.7
 20
29.7
 10
15.899999999999999
 20
29.7
 97
0
 75
1
 76
1
 52
0.0
 41
0.2
 77
0
 78
1
 53
45.0
 43
0.0
 44
0.0
 45
-0.4490128061
 46
0.4490128061
 79
0
 98
0
  0
HATCH
  5
1B7
330
17
100
AcDbEntity
  8
A-HATCH
 62
7
100
AcDbHatch
 10
0.0
 20
0.0
 30
0.0
210
0.0
220
0.0
230
1.0
  2
ANSI31
 70
0
 71
0
 91
1
 92
3
 72
0
 73
1
 93
5
 10
17.5
 20
29.7
 10
17.5
 20
31.7
 10
17.299999999999997
 20
31.7
 10
17.299999999999997
 20
29.7
 10
17.5
 20
29.7
 97
0
 75
1
 76
1
 52
0.0
 41
0.2
 77
0
 78
1
 53
45.0
 43
0.0
 44
0.0
 45
-0.4490128061
 46
0.4490128061
 79
0
 98
0
  0
HATCH
  5
1B8
330
17
100
AcDbEntity
  8
A-HATCH
 62
7
100
AcDbHatch
 10
0.0
 20
0.0
 30
0.0
210
0.0
220
0.0
230
1.0
  2
ANSI31
 70
0
 71
0
 91
1
 92
3
 72
0
 73
1
 93
5
 10
16.3
 20
29.7
 10
16.3
 20
29.900000000000002
 10
15.7
 20
29.900000000000002
 10
15.7
 20
29.7
 10
16.3
 20
29.7
 97
0
 75
1
 76
1
 52
0.0
 41
0.2
 77
0
 78
1
 53
45.0
 43
0.0
 44
0.0
 45
-0.4490128061
 46
0.4490128061
 79
0
 98
0
  0
HATCH
  5
1B9
330
17
100
AcDbEntity
  8
A-HATCH
 62
7
100
AcDbHatch
 10
0.0
 20
0.0
 30
0.0
210
0.0
220
0.0
230
1.0
  2
ANSI31
 70
0
 71
0
 91
1
 92
3
 72
0
 73
1
 93
5
 10
17.5
 20
29.7
 10
17.5
 20
29.900000000000002
 10
16.9
 20
29.900000000000002
 10
16.9
 20
29.7
 10
17.5
 20
29.7
 97
0
 75
1
 76
1
 52
0.0
 41
0.2
 77
0
 78
1
 53
45.0
 43
0.0
 44
0.0
 45
-0.4490128061
 46
0.4490128061
 79
0
 98
0
  0
LWPOLYLINE
  5
1BA
330
17
100
AcDbEntity
  8
A-CUT
100
AcDbPolyline
 90
13
 70
1
 10
6.0
 20
21.299999999999997
 10
6.0
 20
21.45
 10
6.1000000000000005
 20
21.45
 10
6.300000000000001
 20
21.45
 10
6.300000000000001
 20
21.299999999999997
 10
6.45
 20
21.299999999999997
 10
6.45
 20
21.099999999999998
 10
6.45
 20
21.0
 10
6.300000000000001
 20
21.0
 10
6.1000000000000005
 20
21.0
 10
6.0
 20
21.0
 10
6.0
 20
21.099999999999998
 10
6.0
 20
21.299999999999997
  0
LWPOLYLINE
  5
1BB
330
17
100
AcDbEntity
  8
A-CUT
100
AcDbPolyline
 90
9
 70
1
 10
12.7
 20
21.099999999999998
 10
12.7
 20
21.299999999999997
 10
13.0
 20
21.299999999999997
 10
13.3
 20
21.299999999999997
 10
13.3
 20
21.099999999999998
 10
13.3
 20
21.0
 10
13.0
 20
21.0
 10
12.7
 20
21.0
 10
12.7
 20
21.099999999999998
  0
LWPOLYLINE
  5
1BC
330
17
100
AcDbEntity
  8
A-CUT
100
AcDbPolyline
 90
9
 70
1
 10
13.0
 20
31.7
 10
13.0
 20
25.299999999999997
 10
13.0
 20
25.15
 10
13.0
 20
25.0
 10
12.7
 20
25.0
 10
12.7
 20
25.15
 10
12.7
 20
25.299999999999997
 10
12.7
 20
31.7
 10
13.0
 20
31.7
  0
LWPOLYLINE
  5
1BD
330
17
100
AcDbEntity
  8
A-CUT
100
AcDbPolyline
 90
7
 70
1
 10
6.1000000000000005
 20
25.6
 10
6.0
 20
25.6
 10
6.0
 20
26.4
 10
6.1000000000000005
 20
26.4
 10
6.300000000000001
 20
26.4
 10
6.300000000000001
 20
25.6
 10
6.1000000000000005
 20
25.6
  0
LWPOLYLINE
  5
1BE
330
17
100
AcDbEntity
  8
A-CUT
100
AcDbPolyline
 90
13
 70
1
 10
7.2
 20
32.0
 10
7.2
 20
31.900000000000002
 10
7.2
 20
31.700000000000003
 10
6.300000000000001
 20
31.700000000000003
 10
6.300000000000001
 20
29.6
 10
6.1000000000000005
 20
29.6
 10
6.0
 20
29.6
 10
6.0
 20
31.700000000000003
 10
6.0
 20
31.900000000000002
 10
6.0
 20
32.0
 10
6.1000000000000005
 20
32.0
 10
6.300000000000001
 20
32.0
 10
7.2
 20
32.0
  0
LWPOLYLINE
  5
1BF
330
17
100
AcDbEntity
  8
A-CUT
100
AcDbPolyline
 90
7
 70
1
 10
7.8
 20
31.700000000000003
 10
7.8
 20
31.900000000000002
 10
7.8
 20
32.0
 10
11.5
 20
32.0
 10
11.5
 20
31.900000000000002
 10
11.5
 20
31.700000000000003
 10
7.8
 20
31.700000000000003
  0
LWPOLYLINE
  5
1C0
330
17
100
AcDbEntity
  8
A-CUT
100
AcDbPolyline
 90
7
 70
1
 10
12.1
 20
32.0
 10
13.4
 20
32.0
 10
13.4
 20
31.900000000000002
 10
13.4
 20
31.700000000000003
 10
12.1
 20
31.700000000000003
 10
12.1
 20
31.900000000000002
 10
12.1
 20
32.0
  0
LWPOLYLINE
  5
1C1
330
17
100
AcDbEntity
  8
A-CUT
100
AcDbPolyline
 90
11
 70
1
 10
18.91
 20
21.299999999999997
 10
19.209999999999997
 20
21.299999999999997
 10
19.4
 20
21.299999999999997
 10
19.4
 20
21.099999999999998
 10
19.4
 20
21.0
 10
19.209999999999997
 20
21.0
 10
18.91
 20
21.0
 10
18.8
 20
21.0
 10
18.8
 20
21.099999999999998
 10
18.8
 20
21.299999999999997
 10
18.91
 20
21.299999999999997
  0
LWPOLYLINE
  5
1C2
330
17
100
AcDbEntity
  8
A-CUT
100
AcDbPolyline
 90
21
 70
1
 10
18.91
 20
25.299999999999997
 10
19.0
 20
25.299999999999997
 10
19.0
 20
25.4
 10
19.119999999999997
 20
25.4
 10
19.119999999999997
 20
25.299999999999997
 10
19.209999999999997
 20
25.299999999999997
 10
19.209999999999997
 20
25.25
 10
20.900000000000002
 20
25.25
 10
20.900000000000002
 20
27.700000000000003
 10
19.12
 20
27.700000000000003
 10
19.12
 20
27.82
 10
24.7
 20
27.82
 10
24.7
 20
27.700000000000003
 10
21.02
 20
27.700000000000003
 10
21.02
 20
25.25
 10
21.2
 20
25.25
 10
21.2
 20
25.049999999999997
 10
19.209999999999997
 20
25.049999999999997
 10
19.209999999999997
 20
25.0
 10
18.91
 20
25.0
 10
18.91
 20
25.299999999999997
  0
LWPOLYLINE
  5
1C3
330
17
100
AcDbEntity
  8
A-CUT
100
AcDbPolyline
 90
5
 70
1
 10
19.119999999999997
 20
27.76
 10
19.119999999999997
 20
26.2
 10
19.0
 20
26.2
 10
19.0
 20
27.76
 10
19.119999999999997
 20
27.76
  0
LWPOLYLINE
  5
1C4
330
17
100
AcDbEntity
  8
A-CUT
100
AcDbPolyline
 90
10
 70
1
 10
17.619999999999997
 20
31.7
 10
17.619999999999997
 20
29.7
 10
17.5
 20
29.7
 10
17.299999999999997
 20
29.7
 10
16.9
 20
29.7
 10
16.9
 20
29.900000000000002
 10
17.299999999999997
 20
29.900000000000002
 10
17.299999999999997
 20
31.7
 10
17.5
 20
31.7
 10
17.619999999999997
 20
31.7
  0
LWPOLYLINE
  5
1C5
330
17
100
AcDbEntity
  8
A-CUT
100
AcDbPolyline
 90
9
 70
1
 10
15.899999999999999
 20
29.7
 10
15.7
 20
29.7
 10
15.7
 20
29.900000000000002
 10
15.7
 20
31.7
 10
15.899999999999999
 20
31.7
 10
15.899999999999999
 20
29.900000000000002
 10
16.3
 20
29.900000000000002
 10
16.3
 20
29.7
 10
15.899999999999999
 20
29.7
  0
LWPOLYLINE
  5
1C6
330
17
100
AcDbEntity
  8
A-CUT
100
AcDbPolyline
 90
7
 70
1
 10
19.6
 20
31.900000000000002
 10
19.6
 20
31.700000000000003
 10
15.3
 20
31.700000000000003
 10
15.3
 20
31.900000000000002
 10
15.3
 20
32.0
 10
19.6
 20
32.0
 10
19.6
 20
31.900000000000002
  0
LWPOLYLINE
  5
1C7
330
17
100
AcDbEntity
  8
A-CUT
100
AcDbPolyline
 90
7
 70
1
 10
22.3
 20
21.299999999999997
 10
22.3
 20
21.099999999999998
 10
22.3
 20
21.0
 10
21.8
 20
21.0
 10
21.8
 20
21.099999999999998
 10
21.8
 20
21.299999999999997
 10
22.3
 20
21.299999999999997
  0
LWPOLYLINE
  5
1C8
330
17
100
AcDbEntity
  8
A-CUT
100
AcDbPolyline
 90
13
 70
1
 10
25.0
 20
21.0
 10
24.900000000000002
 20
21.0
 10
24.700000000000003
 20
21.0
 10
24.4
 20
21.0
 10
24.4
 20
21.099999999999998
 10
24.4
 20
21.299999999999997
 10
24.700000000000003
 20
21.299999999999997
 10
24.700000000000003
 20
22.0
 10
24.900000000000002
 20
22.0
 10
25.0
 20
22.0
 10
25.0
 20
21.299999999999997
 10
25.0
 20
21.099999999999998
 10
25.0
 20
21.0
  0
LWPOLYLINE
  5
1C9
330
17
100
AcDbEntity
  8
A-CUT
100
AcDbPolyline
 90
5
 70
1
 10
22.0
 20
25.049999999999997
 10
22.0
 20
25.25
 10
24.7
 20
25.25
 10
24.7
 20
25.049999999999997
 10
22.0
 20
25.049999999999997
  0
LWPOLYLINE
  5
1CA
330
17
100
AcDbEntity
  8
A-CUT
100
AcDbPolyline
 90
7
 70
1
 10
24.900000000000002
 20
25.5
 10
25.0
 20
25.5
 10
25.0
 20
25.0
 10
24.900000000000002
 20
25.0
 10
24.700000000000003
 20
25.0
 10
24.700000000000003
 20
25.5
 10
24.900000000000002
 20
25.5
  0
LWPOLYLINE
  5
1CB
330
17
100
AcDbEntity
  8
A-CUT
100
AcDbPolyline
 90
7
 70
1
 10
24.900000000000002
 20
29.1
 10
25.0
 20
29.1
 10
25.0
 20
26.4
 10
24.900000000000002
 20
26.4
 10
24.700000000000003
 20
26.4
 10
24.700000000000003
 20
29.1
 10
24.900000000000002
 20
29.1
  0
LWPOLYLINE
  5
1CC
330
17
100
AcDbEntity
  8
A-CUT
100
AcDbPolyline
 90
7
 70
1
 10
24.700000000000003
 20
30.5
 10
24.700000000000003
 20
30.6
 10
24.900000000000002
 20
30.6
 10
25.0
 20
30.6
 10
25.0
 20
30.5
 10
24.900000000000002
 20
30.5
 10
24.700000000000003
 20
30.5
  0
LWPOLYLINE
  5
1CD
330
17
100
AcDbEntity
  8
A-CUT
100
AcDbPolyline
 90
13
 70
1
 10
24.900000000000002
 20
31.5
 10
24.700000000000003
 20
31.5
 10
24.700000000000003
 20
31.700000000000003
 10
24.4
 20
31.700000000000003
 10
24.4
 20
31.900000000000002
 10
24.4
 20
32.0
 10
24.700000000000003
 20
32.0
 10
24.900000000000002
 20
32.0
 10
25.0
 20
32.0
 10
25.0
 20
31.900000000000002
 10
25.0
 20
31.700000000000003
 10
25.0
 20
31.5
 10
24.900000000000002
 20
31.5
  0
LINE
  5
1CE
330
17
100
AcDbEntity
  8
A-THIN
100
AcDbLine
 10
6.45
 20
21.0
 30
0.0
 11
12.7
 21
21.0
 31
0.0
  0
LINE
  5
1CF
330
17
100
AcDbEntity
  8
A-THIN
100
AcDbLine
 10
6.45
 20
21.299999999999997
 30
0.0
 11
12.7
 21
21.299999999999997
 31
0.0
  0
LINE
  5
1D0
330
17
100
AcDbEntity
  8
A-MAIN
100
AcDbLine
 10
6.45
 20
21.139999999999997
 30
0.0
 11
8.583333333333334
 21
21.139999999999997
 31
0.0
  0
LINE
  5
1D1
330
17
100
AcDbEntity
  8
A-MAIN
100
AcDbLine
 10
8.483333333333333
 20
21.2
 30
0.0
 11
10.666666666666668
 21
21.2
 31
0.0
  0
LINE
  5
1D2
330
17
100
AcDbEntity
  8
A-MAIN
100
AcDbLine
 10
10.566666666666666
 20
21.139999999999997
 30
0.0
 11
12.7
 21
21.139999999999997
 31
0.0
  0
LINE
  5
1D3
330
17
100
AcDbEntity
  8
A-THIN
100
AcDbLine
 10
7.191666666666667
 20
21.29
 30
0.0
 11
7.791666666666667
 21
21.29
 31
0.0
  0
LINE
  5
1D4
330
17
100
AcDbEntity
  8
A-THIN
100
AcDbLine
 10
13.3
 20
21.0
 30
0.0
 11
18.8
 21
21.0
 31
0.0
  0
LINE
  5
1D5
330
17
100
AcDbEntity
  8
A-THIN
100
AcDbLine
 10
13.3
 20
21.299999999999997
 30
0.0
 11
18.8
 21
21.299999999999997
 31
0.0
  0
LINE
  5
1D6
330
17
100
AcDbEntity
  8
A-MAIN
100
AcDbLine
 10
13.3
 20
21.139999999999997
 30
0.0
 11
16.1
 21
21.139999999999997
 31
0.0
  0
LINE
  5
1D7
330
17
100
AcDbEntity
  8
A-MAIN
100
AcDbLine
 10
16.0
 20
21.2
 30
0.0
 11
18.8
 21
21.2
 31
0.0
  0
LINE
  5
1D8
330
17
100
AcDbEntity
  8
A-THIN
100
AcDbLine
 10
14.375
 20
21.29
 30
0.0
 11
14.975000000000001
 21
21.29
 31
0.0
  0
LINE
  5
1D9
330
17
100
AcDbEntity
  8
A-THIN
100
AcDbLine
 10
19.4
 20
21.0
 30
0.0
 11
21.8
 21
21.0
 31
0.0
  0
LINE
  5
1DA
330
17
100
AcDbEntity
  8
A-THIN
100
AcDbLine
 10
19.4
 20
21.299999999999997
 30
0.0
 11
21.8
 21
21.299999999999997
 31
0.0
  0
LINE
  5
1DB
330
17
100
AcDbEntity
  8
A-MAIN
100
AcDbLine
 10
19.4
 20
21.139999999999997
 30
0.0
 11
20.650000000000002
 21
21.139999999999997
 31
0.0
  0
LINE
  5
1DC
330
17
100
AcDbEntity
  8
A-MAIN
100
AcDbLine
 10
20.55
 20
21.2
 30
0.0
 11
21.8
 21
21.2
 31
0.0
  0
LINE
  5
1DD
330
17
100
AcDbEntity
  8
A-THIN
100
AcDbLine
 10
19.7
 20
21.29
 30
0.0
 11
20.3
 21
21.29
 31
0.0
  0
LINE
  5
1DE
330
17
100
AcDbEntity
  8
A-THIN
100
AcDbLine
 10
22.3
 20
21.0
 30
0.0
 11
24.4
 21
21.0
 31
0.0
  0
LINE
  5
1DF
330
17
100
AcDbEntity
  8
A-THIN
100
AcDbLine
 10
22.3
 20
21.299999999999997
 30
0.0
 11
24.4
 21
21.299999999999997
 31
0.0
  0
LINE
  5
1E0
330
17
100
AcDbEntity
  8
A-THIN
100
AcDbLine
 10
22.3
 20
21.15
 30
0.0
 11
24.4
 21
21.15
 31
0.0
  0
LINE
  5
1E1
330
17
100
AcDbEntity
  8
A-THIN
100
AcDbLine
 10
22.3
 20
21.189999999999998
 30
0.0
 11
24.4
 21
21.189999999999998
 31
0.0
  0
LINE
  5
1E2
330
17
100
AcDbEntity
  8
A-THIN
100
AcDbLine
 10
24.700000000000003
 20
22.0
 30
0.0
 11
24.700000000000003
 21
25.0
 31
0.0
  0
LINE
  5
1E3
330
17
100
AcDbEntity
  8
A-THIN
100
AcDbLine
 10
25.0
 20
22.0
 30
0.0
 11
25.0
 21
25.0
 31
0.0
  0
LINE
  5
1E4
330
17
100
AcDbEntity
  8
A-THIN
100
AcDbLine
 10
24.810000000000002
 20
22.0
 30
0.0
 11
24.810000000000002
 21
25.0
 31
0.0
  0
LINE
  5
1E5
330
17
100
AcDbEntity
  8
A-THIN
100
AcDbLine
 10
24.85
 20
22.0
 30
0.0
 11
24.85
 21
25.0
 31
0.0
  0
LINE
  5
1E6
330
17
100
AcDbEntity
  8
A-MAIN
100
AcDbLine
 10
25.0
 20
25.5
 30
0.0
 11
25.9
 21
25.5
 31
0.0
  0
ARC
  5
1E7
330
17
100
AcDbEntity
  8
A-THIN
100
AcDbCircle
 10
25.0
 20
25.5
 30
0.0
 40
0.8999999999999986
100
AcDbArc
 50
0.0
 51
90.0
  0
LINE
  5
1E8
330
17
100
AcDbEntity
  8
A-THIN
100
AcDbLine
 10
24.700000000000003
 20
25.5
 30
0.0
 11
25.0
 21
25.5
 31
0.0
  0
LINE
  5
1E9
330
17
100
AcDbEntity
  8
A-THIN
100
AcDbLine
 10
24.700000000000003
 20
26.4
 30
0.0
 11
25.0
 21
26.4
 31
0.0
  0
LINE
  5
1EA
330
17
100
AcDbEntity
  8
A-MAIN
100
AcDbLine
 10
24.85
 20
29.352
 30
0.0
 11
23.741117151420152
 21
29.649124263777693
 31
0.0
  0
ARC
  5
1EB
330
17
100
AcDbEntity
  8
A-THIN
100
AcDbCircle
 10
24.85
 20
29.352
 30
0.0
 40
1.1479999999999997
100
AcDbArc
 50
90.0
 51
165.00000000000003
  0
LINE
  5
1EC
330
17
100
AcDbEntity
  8
A-MAIN
100
AcDbLine
 10
24.85
 20
29.352
 30
0.0
 11
25.093413308224847
 21
29.286777600634167
 31
0.0
  0
LINE
  5
1ED
330
17
100
AcDbEntity
  8
A-THIN
100
AcDbLine
 10
24.700000000000003
 20
30.6
 30
0.0
 11
24.700000000000003
 21
31.5
 31
0.0
  0
LINE
  5
1EE
330
17
100
AcDbEntity
  8
A-THIN
100
AcDbLine
 10
25.0
 20
30.6
 30
0.0
 11
25.0
 21
31.5
 31
0.0
  0
LINE
  5
1EF
330
17
100
AcDbEntity
  8
A-THIN
100
AcDbLine
 10
24.810000000000002
 20
30.6
 30
0.0
 11
24.810000000000002
 21
31.5
 31
0.0
  0
LINE
  5
1F0
330
17
100
AcDbEntity
  8
A-THIN
100
AcDbLine
 10
24.85
 20
30.6
 30
0.0
 11
24.85
 21
31.5
 31
0.0
  0
LINE
  5
1F1
330
17
100
AcDbEntity
  8
A-THIN
100
AcDbLine
 10
7.2
 20
31.700000000000003
 30
0.0
 11
7.8
 21
31.700000000000003
 31
0.0
  0
LINE
  5
1F2
330
17
100
AcDbEntity
  8
A-THIN
100
AcDbLine
 10
7.2
 20
32.0
 30
0.0
 11
7.8
 21
32.0
 31
0.0
  0
LINE
  5
1F3
330
17
100
AcDbEntity
  8
A-THIN
100
AcDbLine
 10
7.2
 20
31.810000000000002
 30
0.0
 11
7.8
 21
31.810000000000002
 31
0.0
  0
LINE
  5
1F4
330
17
100
AcDbEntity
  8
A-THIN
100
AcDbLine
 10
7.2
 20
31.85
 30
0.0
 11
7.8
 21
31.85
 31
0.0
  0
LINE
  5
1F5
330
17
100
AcDbEntity
  8
A-THIN
100
AcDbLine
 10
11.5
 20
31.700000000000003
 30
0.0
 11
12.1
 21
31.700000000000003
 31
0.0
  0
LINE
  5
1F6
330
17
100
AcDbEntity
  8
A-THIN
100
AcDbLine
 10
11.5
 20
32.0
 30
0.0
 11
12.1
 21
32.0
 31
0.0
  0
LINE
  5
1F7
330
17
100
AcDbEntity
  8
A-THIN
100
AcDbLine
 10
11.5
 20
31.810000000000002
 30
0.0
 11
12.1
 21
31.810000000000002
 31
0.0
  0
LINE
  5
1F8
330
17
100
AcDbEntity
  8
A-THIN
100
AcDbLine
 10
11.5
 20
31.85
 30
0.0
 11
12.1
 21
31.85
 31
0.0
  0
LINE
  5
1F9
330
17
100
AcDbEntity
  8
A-THIN
100
AcDbLine
 10
13.4
 20
31.700000000000003
 30
0.0
 11
15.3
 21
31.700000000000003
 31
0.0
  0
LINE
  5
1FA
330
17
100
AcDbEntity
  8
A-THIN
100
AcDbLine
 10
13.4
 20
32.0
 30
0.0
 11
15.3
 21
32.0
 31
0.0
  0
LINE
  5
1FB
330
17
100
AcDbEntity
  8
A-THIN
100
AcDbLine
 10
13.4
 20
31.810000000000002
 30
0.0
 11
15.3
 21
31.810000000000002
 31
0.0
  0
LINE
  5
1FC
330
17
100
AcDbEntity
  8
A-THIN
100
AcDbLine
 10
13.4
 20
31.85
 30
0.0
 11
15.3
 21
31.85
 31
0.0
  0
LINE
  5
1FD
330
17
100
AcDbEntity
  8
A-THIN
100
AcDbLine
 10
19.6
 20
31.700000000000003
 30
0.0
 11
24.4
 21
31.700000000000003
 31
0.0
  0
LINE
  5
1FE
330
17
100
AcDbEntity
  8
A-THIN
100
AcDbLine
 10
19.6
 20
32.0
 30
0.0
 11
24.4
 21
32.0
 31
0.0
  0
LINE
  5
1FF
330
17
100
AcDbEntity
  8
A-THIN
100
AcDbLine
 10
19.6
 20
31.810000000000002
 30
0.0
 11
24.4
 21
31.810000000000002
 31
0.0
  0
LINE
  5
200
330
17
100
AcDbEntity
  8
A-THIN
100
AcDbLine
 10
19.6
 20
31.85
 30
0.0
 11
24.4
 21
31.85
 31
0.0
  0
LINE
  5
201
330
17
100
AcDbEntity
  8
A-THIN
100
AcDbLine
 10
6.0
 20
21.45
 30
0.0
 11
6.0
 21
25.6
 31
0.0
  0
LINE
  5
202
330
17
100
AcDbEntity
  8
A-THIN
100
AcDbLine
 10
6.300000000000001
 20
21.45
 30
0.0
 11
6.300000000000001
 21
25.6
 31
0.0
  0
LINE
  5
203
330
17
100
AcDbEntity
  8
A-MAIN
100
AcDbLine
 10
6.140000000000001
 20
21.45
 30
0.0
 11
6.140000000000001
 21
23.575
 31
0.0
  0
LINE
  5
204
330
17
100
AcDbEntity
  8
A-MAIN
100
AcDbLine
 10
6.2
 20
23.474999999999998
 30
0.0
 11
6.2
 21
25.6
 31
0.0
  0
LINE
  5
205
330
17
100
AcDbEntity
  8
A-THIN
100
AcDbLine
 10
6.29
 20
22.1875
 30
0.0
 11
6.29
 21
22.7875
 31
0.0
  0
LINE
  5
206
330
17
100
AcDbEntity
  8
A-THIN
100
AcDbLine
 10
6.0
 20
26.4
 30
0.0
 11
6.0
 21
29.6
 31
0.0
  0
LINE
  5
207
330
17
100
AcDbEntity
  8
A-THIN
100
AcDbLine
 10
6.300000000000001
 20
26.4
 30
0.0
 11
6.300000000000001
 21
29.6
 31
0.0
  0
LINE
  5
208
330
17
100
AcDbEntity
  8
A-THIN
100
AcDbLine
 10
6.15
 20
26.4
 30
0.0
 11
6.15
 21
29.6
 31
0.0
  0
LINE
  5
209
330
17
100
AcDbEntity
  8
A-THIN
100
AcDbLine
 10
6.19
 20
26.4
 30
0.0
 11
6.19
 21
29.6
 31
0.0
  0
LINE
  5
20A
330
17
100
AcDbEntity
  8
A-MAIN
100
AcDbLine
 10
19.119999999999997
 20
25.4
 30
0.0
 11
19.919999999999998
 21
25.4
 31
0.0
  0
ARC
  5
20B
330
17
100
AcDbEntity
  8
A-THIN
100
AcDbCircle
 10
19.119999999999997
 20
25.4
 30
0.0
 40
0.8000000000000007
100
AcDbArc
 50
0.0
 51
90.0
  0
LINE
  5
20C
330
17
100
AcDbEntity
  8
A-THIN
100
AcDbLine
 10
19.0
 20
25.4
 30
0.0
 11
19.119999999999997
 21
25.4
 31
0.0
  0
LINE
  5
20D
330
17
100
AcDbEntity
  8
A-THIN
100
AcDbLine
 10
19.0
 20
26.2
 30
0.0
 11
19.119999999999997
 21
26.2
 31
0.0
  0
LINE
  5
20E
330
17
100
AcDbEntity
  8
A-MAIN
100
AcDbLine
 10
21.2
 20
25.25
 30
0.0
 11
21.2
 21
26.05
 31
0.0
  0
ARC
  5
20F
330
17
100
AcDbEntity
  8
A-THIN
100
AcDbCircle
 10
21.2
 20
25.25
 30
0.0
 40
0.8000000000000007
100
AcDbArc
 50
0.0
 51
90.0
  0
LINE
  5
210
330
17
100
AcDbEntity
  8
A-THIN
100
AcDbLine
 10
21.2
 20
25.049999999999997
 30
0.0
 11
21.2
 21
25.25
 31
0.0
  0
LINE
  5
211
330
17
100
AcDbEntity
  8
A-THIN
100
AcDbLine
 10
22.0
 20
25.049999999999997
 30
0.0
 11
22.0
 21
25.25
 31
0.0
  0
LWPOLYLINE
  5
212
330
17
100
AcDbEntity
  8
A-HIDDEN
100
AcDbPolyline
 90
5
 70
1
 10
13.0
 20
16.0
 10
6.0
 20
16.0
 10
6.0
 20
21.0
 10
13.0
 20
21.0
 10
13.0
 20
16.0
  0
LWPOLYLINE
  5
213
330
17
100
AcDbEntity
  8
A-HIDDEN
100
AcDbPolyline
 90
4
 70
1
 10
24.9
 20
28.4
 10
27.2
 20
28.4
 10
27.2
 20
31.8
 10
24.9
 20
31.8
  0
LWPOLYLINE
  5
214
330
17
100
AcDbEntity
  8
A-HIDDEN
100
AcDbPolyline
 90
4
 70
1
 10
25.3
 20
15.8
 10
29.8
 20
15.8
 10
29.8
 20
21.8
 10
25.3
 20
21.8
  0
LWPOLYLINE
  5
215
330
17
100
AcDbEntity
  8
A-HIDDEN
100
AcDbPolyline
 90
4
 70
1
 10
21.8
 20
16.8
 10
25.0
 20
16.8
 10
25.0
 20
21.0
 10
21.8
 20
21.0
  0
LINE
  5
216
330
17
100
AcDbEntity
  8
A-HIDDEN
100
AcDbLine
 10
6.15
 20
13.075
 30
0.0
 11
6.15
 21
32.6
 31
0.0
  0
LINE
  5
217
330
17
100
AcDbEntity
  8
A-HIDDEN
100
AcDbLine
 10
12.85
 20
13.075
 30
0.0
 11
12.85
 21
32.6
 31
0.0
  0
LINE
  5
218
330
17
100
AcDbEntity
  8
A-HIDDEN
100
AcDbLine
 10
19.06
 20
13.075
 30
0.0
 11
19.06
 21
32.6
 31
0.0
  0
LINE
  5
219
330
17
100
AcDbEntity
  8
A-HIDDEN
100
AcDbLine
 10
24.85
 20
13.075
 30
0.0
 11
24.85
 21
32.6
 31
0.0
  0
LINE
  5
21A
330
17
100
AcDbEntity
  8
A-HIDDEN
100
AcDbLine
 10
3.0749999999999993
 20
21.15
 30
0.0
 11
28.3
 21
21.15
 31
0.0
  0
LINE
  5
21B
330
17
100
AcDbEntity
  8
A-HIDDEN
100
AcDbLine
 10
3.0749999999999993
 20
25.15
 30
0.0
 11
28.3
 21
25.15
 31
0.0
  0
LINE
  5
21C
330
17
100
AcDbEntity
  8
A-HIDDEN
100
AcDbLine
 10
3.0749999999999993
 20
31.85
 30
0.0
 11
28.3
 21
31.85
 31
0.0
  0
LINE
  5
21D
330
17
100
AcDbEntity
  8
A-DIMS
100
AcDbLine
 10
6.0
 20
14.9
 30
0.0
 11
25.0
 21
14.9
 31
0.0
  0
LINE
  5
21E
330
17
100
AcDbEntity
  8
A-DIMS
100
AcDbLine
 10
6.0
 20
15.7
 30
0.0
 11
6.0
 21
14.6
 31
0.0
  0
LINE
  5
21F
330
17
100
AcDbEntity
  8
A-DIMS
100
AcDbLine
 10
6.45
 20
15.7
 30
0.0
 11
6.45
 21
14.6
 31
0.0
  0
LINE
  5
220
330
17
100
AcDbEntity
  8
A-DIMS
100
AcDbLine
 10
12.7
 20
15.7
 30
0.0
 11
12.7
 21
14.6
 31
0.0
  0
LINE
  5
221
330
17
100
AcDbEntity
  8
A-DIMS
100
AcDbLine
 10
13.3
 20
15.7
 30
0.0
 11
13.3
 21
14.6
 31
0.0
  0
LINE
  5
222
330
17
100
AcDbEntity
  8
A-DIMS
100
AcDbLine
 10
18.8
 20
15.7
 30
0.0
 11
18.8
 21
14.6
 31
0.0
  0
LINE
  5
223
330
17
100
AcDbEntity
  8
A-DIMS
100
AcDbLine
 10
19.4
 20
15.7
 30
0.0
 11
19.4
 21
14.6
 31
0.0
  0
LINE
  5
224
330
17
100
AcDbEntity
  8
A-DIMS
100
AcDbLine
 10
21.8
 20
15.7
 30
0.0
 11
21.8
 21
14.6
 31
0.0
  0
LINE
  5
225
330
17
100
AcDbEntity
  8
A-DIMS
100
AcDbLine
 10
22.3
 20
15.7
 30
0.0
 11
22.3
 21
14.6
 31
0.0
  0
LINE
  5
226
330
17
100
AcDbEntity
  8
A-DIMS
100
AcDbLine
 10
24.4
 20
15.7
 30
0.0
 11
24.4
 21
14.6
 31
0.0
  0
LINE
  5
227
330
17
100
AcDbEntity
  8
A-DIMS
100
AcDbLine
 10
25.0
 20
15.7
 30
0.0
 11
25.0
 21
14.6
 31
0.0
  0
LINE
  5
228
330
17
100
AcDbEntity
  8
A-DIMS
100
AcDbLine
 10
6.0
 20
13.7
 30
0.0
 11
25.0
 21
13.7
 31
0.0
  0
LINE
  5
229
330
17
100
AcDbEntity
  8
A-DIMS
100
AcDbLine
 10
6.0
 20
33.1
 30
0.0
 11
25.0
 21
33.1
 31
0.0
  0
LINE
  5
22A
330
17
100
AcDbEntity
  8
A-DIMS
100
AcDbLine
 10
6.0
 20
32.3
 30
0.0
 11
6.0
 21
33.4
 31
0.0
  0
LINE
  5
22B
330
17
100
AcDbEntity
  8
A-DIMS
100
AcDbLine
 10
7.2
 20
32.3
 30
0.0
 11
7.2
 21
33.4
 31
0.0
  0
LINE
  5
22C
330
17
100
AcDbEntity
  8
A-DIMS
100
AcDbLine
 10
7.8
 20
32.3
 30
0.0
 11
7.8
 21
33.4
 31
0.0
  0
LINE
  5
22D
330
17
100
AcDbEntity
  8
A-DIMS
100
AcDbLine
 10
11.5
 20
32.3
 30
0.0
 11
11.5
 21
33.4
 31
0.0
  0
LINE
  5
22E
330
17
100
AcDbEntity
  8
A-DIMS
100
AcDbLine
 10
12.1
 20
32.3
 30
0.0
 11
12.1
 21
33.4
 31
0.0
  0
LINE
  5
22F
330
17
100
AcDbEntity
  8
A-DIMS
100
AcDbLine
 10
13.4
 20
32.3
 30
0.0
 11
13.4
 21
33.4
 31
0.0
  0
LINE
  5
230
330
17
100
AcDbEntity
  8
A-DIMS
100
AcDbLine
 10
15.3
 20
32.3
 30
0.0
 11
15.3
 21
33.4
 31
0.0
  0
LINE
  5
231
330
17
100
AcDbEntity
  8
A-DIMS
100
AcDbLine
 10
19.6
 20
32.3
 30
0.0
 11
19.6
 21
33.4
 31
0.0
  0
LINE
  5
232
330
17
100
AcDbEntity
  8
A-DIMS
100
AcDbLine
 10
24.4
 20
32.3
 30
0.0
 11
24.4
 21
33.4
 31
0.0
  0
LINE
  5
233
330
17
100
AcDbEntity
  8
A-DIMS
100
AcDbLine
 10
25.0
 20
32.3
 30
0.0
 11
25.0
 21
33.4
 31
0.0
  0
LINE
  5
234
330
17
100
AcDbEntity
  8
A-DIMS
100
AcDbLine
 10
6.0
 20
34.3
 30
0.0
 11
25.0
 21
34.3
 31
0.0
  0
LINE
  5
235
330
17
100
AcDbEntity
  8
A-DIMS
100
AcDbLine
 10
4.9
 20
21.0
 30
0.0
 11
4.9
 21
32.0
 31
0.0
  0
LINE
  5
236
330
17
100
AcDbEntity
  8
A-DIMS
100
AcDbLine
 10
5.7
 20
21.0
 30
0.0
 11
4.6000000000000005
 21
21.0
 31
0.0
  0
LINE
  5
237
330
17
100
AcDbEntity
  8
A-DIMS
100
AcDbLine
 10
5.7
 20
21.45
 30
0.0
 11
4.6000000000000005
 21
21.45
 31
0.0
  0
LINE
  5
238
330
17
100
AcDbEntity
  8
A-DIMS
100
AcDbLine
 10
5.7
 20
25.6
 30
0.0
 11
4.6000000000000005
 21
25.6
 31
0.0
  0
LINE
  5
239
330
17
100
AcDbEntity
  8
A-DIMS
100
AcDbLine
 10
5.7
 20
26.4
 30
0.0
 11
4.6000000000000005
 21
26.4
 31
0.0
  0
LINE
  5
23A
330
17
100
AcDbEntity
  8
A-DIMS
100
AcDbLine
 10
5.7
 20
29.6
 30
0.0
 11
4.6000000000000005
 21
29.6
 31
0.0
  0
LINE
  5
23B
330
17
100
AcDbEntity
  8
A-DIMS
100
AcDbLine
 10
5.7
 20
32.0
 30
0.0
 11
4.6000000000000005
 21
32.0
 31
0.0
  0
LINE
  5
23C
330
17
100
AcDbEntity
  8
A-DIMS
100
AcDbLine
 10
3.6999999999999997
 20
21.0
 30
0.0
 11
3.6999999999999997
 21
32.0
 31
0.0
  0
LINE
  5
23D
330
17
100
AcDbEntity
  8
A-DIMS
100
AcDbLine
 10
28.8
 20
21.0
 30
0.0
 11
28.8
 21
32.0
 31
0.0
  0
LINE
  5
23E
330
17
100
AcDbEntity
  8
A-DIMS
100
AcDbLine
 10
28.0
 20
21.0
 30
0.0
 11
29.1
 21
21.0
 31
0.0
  0
LINE
  5
23F
330
17
100
AcDbEntity
  8
A-DIMS
100
AcDbLine
 10
28.0
 20
22.0
 30
0.0
 11
29.1
 21
22.0
 31
0.0
  0
LINE
  5
240
330
17
100
AcDbEntity
  8
A-DIMS
100
AcDbLine
 10
28.0
 20
25.0
 30
0.0
 11
29.1
 21
25.0
 31
0.0
  0
LINE
  5
241
330
17
100
AcDbEntity
  8
A-DIMS
100
AcDbLine
 10
28.0
 20
25.5
 30
0.0
 11
29.1
 21
25.5
 31
0.0
  0
LINE
  5
242
330
17
100
AcDbEntity
  8
A-DIMS
100
AcDbLine
 10
28.0
 20
26.4
 30
0.0
 11
29.1
 21
26.4
 31
0.0
  0
LINE
  5
243
330
17
100
AcDbEntity
  8
A-DIMS
100
AcDbLine
 10
28.0
 20
29.1
 30
0.0
 11
29.1
 21
29.1
 31
0.0
  0
LINE
  5
244
330
17
100
AcDbEntity
  8
A-DIMS
100
AcDbLine
 10
28.0
 20
30.5
 30
0.0
 11
29.1
 21
30.5
 31
0.0
  0
LINE
  5
245
330
17
100
AcDbEntity
  8
A-DIMS
100
AcDbLine
 10
28.0
 20
30.6
 30
0.0
 11
29.1
 21
30.6
 31
0.0
  0
LINE
  5
246
330
17
100
AcDbEntity
  8
A-DIMS
100
AcDbLine
 10
28.0
 20
31.5
 30
0.0
 11
29.1
 21
31.5
 31
0.0
  0
LINE
  5
247
330
17
100
AcDbEntity
  8
A-DIMS
100
AcDbLine
 10
28.0
 20
32.0
 30
0.0
 11
29.1
 21
32.0
 31
0.0
  0
LINE
  5
248
330
17
100
AcDbEntity
  8
A-DIMS
100
AcDbLine
 10
30.0
 20
21.0
 30
0.0
 11
30.0
 21
32.0
 31
0.0
  0
LINE
  5
249
330
17
100
AcDbEntity
  8
A-DIMS
100
AcDbLine
 10
12.7
 20
28.9
 30
0.0
 11
25.0
 21
28.9
 31
0.0
  0
LINE
  5
24A
330
17
100
AcDbEntity
  8
A-DIMS
100
AcDbLine
 10
9.0
 20
31.7
 30
0.0
 11
9.0
 21
32.0
 31
0.0
  0
LINE
  5
24B
330
17
100
AcDbEntity
  8
A-DIMS
100
AcDbLine
 10
21.9
 20
21.0
 30
0.0
 11
21.9
 21
27.82
 31
0.0
  0
ENDSEC
  0
SECTION
  2
OBJECTS
  0
DICTIONARY
  5
A
330
0
100
AcDbDictionary
281
1
  3
ACAD_COLOR
350
B
  3
ACAD_GROUP
350
C
  3
ACAD_LAYOUT
350
D
  3
ACAD_MATERIAL
350
E
  3
ACAD_MLEADERSTYLE
350
F
  3
ACAD_MLINESTYLE
350
10
  3
ACAD_PLOTSETTINGS
350
11
  3
ACAD_PLOTSTYLENAME
350
12
  3
ACAD_SCALELIST
350
14
  3
ACAD_TABLESTYLE
350
15
  3
ACAD_VISUALSTYLE
350
16
  3
EZDXF_META
350
2D
  0
DICTIONARY
  5
B
330
A
100
AcDbDictionary
281
1
  0
DICTIONARY
  5
C
330
A
100
AcDbDictionary
281
1
  0
DICTIONARY
  5
D
330
A
100
AcDbDictionary
281
1
  3
Model
350
1A
  3
Layout1
350
1E
  0
DICTIONARY
  5
E
330
A
100
AcDbDictionary
281
1
  3
ByBlock
350
1F
  3
ByLayer
350
20
  3
Global
350
21
  0
DICTIONARY
  5
F
330
A
100
AcDbDictionary
281
1
  3
Standard
350
2C
  0
DICTIONARY
  5
10
330
A
100
AcDbDictionary
281
1
  3
Standard
350
22
  0
DICTIONARY
  5
11
330
A
100
AcDbDictionary
281
1
  0
ACDBDICTIONARYWDFLT
  5
12
330
A
100
AcDbDictionary
281
1
  3
Normal
350
13
100
AcDbDictionaryWithDefault
340
13
  0
ACDBPLACEHOLDER
  5
13
330
12
  0
DICTIONARY
  5
14
330
A
100
AcDbDictionary
281
1
  0
DICTIONARY
  5
15
330
A
100
AcDbDictionary
281
1
  0
DICTIONARY
  5
16
330
A
100
AcDbDictionary
281
1
  3
2dWireframe
350
5A
  3
Basic
350
5B
  3
Brighten
350
5C
  3
ColorChange
350
5D
  3
Conceptual
350
5E
  3
Dim
350
5F
  3
EdgeColorOff
350
60
  3
Facepattern
350
61
  3
Flat
350
62
  3
FlatWithEdges
350
63
  3
Gouraud
350
64
  3
GouraudWithEdges
350
65
  3
Hidden
350
66
  3
JitterOff
350
67
  3
Linepattern
350
68
  3
Modeling
350
69
  3
OverhangOff
350
6A
  3
Realistic
350
6B
  3
Shaded
350
6C
  3
Shaded with edges
350
6D
  3
Shades of Gray
350
6E
  3
Sketchy
350
6F
  3
Thicken
350
70
  3
Wireframe
350
71
  3
X-Ray
350
72
  0
LAYOUT
  5
1A
330
D
100
AcDbPlotSettings
  1

  4
A3
  6

 40
7.5
 41
20.0
 42
7.5
 43
20.0
 44
420.0
 45
297.0
 46
0.0
 47
0.0
 48
0.0
 49
0.0
140
0.0
141
0.0
142
1.0
143
1.0
 70
1024
 72
1
 73
0
 74
5
  7

 75
16
 76
0
 77
2
 78
300
147
1.0
148
0.0
149
0.0
100
AcDbLayout
  1
Model
 70
1
 71
0
 10
0.0
 20
0.0
 11
420.0
 21
297.0
 12
0.0
 22
0.0
 32
0.0
 14
1e+20
 24
1e+20
 34
1e+20
 15
-1e+20
 25
-1e+20
 35
-1e+20
146
0.0
 13
0.0
 23
0.0
 33
0.0
 16
1.0
 26
0.0
 36
0.0
 17
0.0
 27
1.0
 37
0.0
 76
1
330
17
  0
LAYOUT
  5
1E
330
D
100
AcDbPlotSettings
  1

  4
A3
  6

 40
7.5
 41
20.0
 42
7.5
 43
20.0
 44
420.0
 45
297.0
 46
0.0
 47
0.0
 48
0.0
 49
0.0
140
0.0
141
0.0
142
1.0
143
1.0
 70
0
 72
1
 73
0
 74
5
  7

 75
16
 76
0
 77
2
 78
300
147
1.0
148
0.0
149
0.0
100
AcDbLayout
  1
Layout1
 70
1
 71
1
 10
0.0
 20
0.0
 11
420.0
 21
297.0
 12
0.0
 22
0.0
 32
0.0
 14
1e+20
 24
1e+20
 34
1e+20
 15
-1e+20
 25
-1e+20
 35
-1e+20
146
0.0
 13
0.0
 23
0.0
 33
0.0
 16
1.0
 26
0.0
 36
0.0
 17
0.0
 27
1.0
 37
0.0
 76
1
330
1B
  0
MATERIAL
  5
1F
102
{ACAD_REACTORS
330
E
102
}
330
E
100
AcDbMaterial
  1
ByBlock
  2

 70
0
 40
1.0
 71
1
 41
1.0
 91
-1023410177
 42
1.0
 72
1
  3

 73
1
 74
1
 75
1
 44
0.5
 73
0
 45
1.0
 46
1.0
 77
1
  4

 78
1
 79
1
170
1
 48
1.0
171
1
  6

172
1
173
1
174
1
140
1.0
141
1.0
175
1
  7

176
1
177
1
178
1
143
1.0
179
1
  8

270
1
271
1
272
1
145
1.0
146
1.0
273
1
  9

274
1
275
1
276
1
 42
1.0
 72
1
  3

 73
1
 74
1
 75
1
 94
63
  0
MATERIAL
  5
20
102
{ACAD_REACTORS
330
E
102
}
330
E
100
AcDbMaterial
  1
ByLayer
  2

 70
0
 40
1.0
 71
1
 41
1.0
 91
-1023410177
 42
1.0
 72
1
  3

 73
1
 74
1
 75
1
 44
0.5
 73
0
 45
1.0
 46
1.0
 77
1
  4

 78
1
 79
1
170
1
 48
1.0
171
1
  6

172
1
173
1
174
1
140
1.0
141
1.0
175
1
  7

176
1
177
1
178
1
143
1.0
179
1
  8

270
1
271
1
272
1
145
1.0
146
1.0
273
1
  9

274
1
275
1
276
1
 42
1.0
 72
1
  3

 73
1
 74
1
 75
1
 94
63
  0
MATERIAL
  5
21
102
{ACAD_REACTORS
330
E
102
}
330
E
100
AcDbMaterial
  1
Global
  2

 70
0
 40
1.0
 71
1
 41
1.0
 91
-1023410177
 42
1.0
 72
1
  3

 73
1
 74
1
 75
1
 44
0.5
 73
0
 45
1.0
 46
1.0
 77
1
  4

 78
1
 79
1
170
1
 48
1.0
171
1
  6

172
1
173
1
174
1
140
1.0
141
1.0
175
1
  7

176
1
177
1
178
1
143
1.0
179
1
  8

270
1
271
1
272
1
145
1.0
146
1.0
273
1
  9

274
1
275
1
276
1
 42
1.0
 72
1
  3

 73
1
 74
1
 75
1
 94
63
  0
MLINESTYLE
  5
22
102
{ACAD_REACTORS
330
10
102
}
330
10
100
AcDbMlineStyle
  2
Standard
 70
0
  3

 62
256
 51
90.0
 52
90.0
 71
2
 49
0.5
 62
256
  6
BYLAYER
 49
-0.5
 62
256
  6
BYLAYER
  0
MLEADERSTYLE
  5
2C
102
{ACAD_REACTORS
330
F
102
}
330
F
100
AcDbMLeaderStyle
179
2
170
2
171
1
172
0
 90
2
 40
0.0
 41
0.0
173
1
 91
-1056964608
 92
-2
290
1
 42
2.0
291
1
 43
8.0
  3
Standard
 44
4.0
300

342
29
174
1
175
1
176
0
178
1
 93
-1056964608
 45
4.0
292
0
297
0
 46
4.0
 94
-1056964608
 47
1.0
 49
1.0
140
1.0
294
1
141
0.0
177
0
142
1.0
295
0
296
0
143
3.75
271
0
272
9
273
9
  0
DICTIONARY
  5
2D
330
A
100
AcDbDictionary
280
1
281
1
  3
CREATED_BY_EZDXF
350
2E
  3
WRITTEN_BY_EZDXF
350
24E
  0
DICTIONARYVAR
  5
2E
330
2D
100
DictionaryVariables
280
0
  1
1.4.4 @ 2026-10-04T18:28:30.395018+00:00
  0
VISUALSTYLE
  5
5A
102
{ACAD_REACTORS
330
16
102
}
330
16
100
AcDbVisualStyle
  2
2dWireframe
 70
4
177
3
291
0
 70
58
 90
2
176
1
 90
2
176
1
 90
0
176
1
 90
0
176
1
 40
0.6
176
1
 40
30.0
176
1
 62
7
420
16777215
176
1
 90
1
176
1
 90
4
176
1
 62
7
176
1
 62
257
176
1
 90
1
176
1
 90
1
176
1
 40
1.0
176
1
 90
8
176
1
 62
7
176
1
 40
1.0
176
1
 90
1
176
1
 90
6
176
1
 90
2
176
1
 62
7
176
1
 90
5
176
1
 90
0
176
1
 90
0
176
1
290
0
176
1
 90
1
176
1
 40
0.0
176
1
 90
0
176
1
290
1
176
1
290
1
176
1
290
0
176
1
290
0
176
1
290
0
176
1
290
0
176
1
290
0
176
1
290
0
176
1
290
0
176
1
 90
50
176
1
 40
0.0
176
1
 40
1.0
176
1
 90
0
176
1
 62
18
420
0
176
1
 90
50
176
1
 90
3
176
1
 62
5
420
255
176
1
290
0
176
1
 90
50
176
1
 90
50
176
1
 90
50
176
1
290
0
176
1
 90
50
176
1
 62
256
176
0
 40
1.0
176
0
 90
2
176
1
  1
strokes_ogs.tif
176
1
290
0
176
1
 40
1.0
176
1
 40
1.0
176
1
  0
VISUALSTYLE
  5
5B
102
{ACAD_REACTORS
330
16
102
}
330
16
100
AcDbVisualStyle
  2
Basic
 70
7
177
3
291
1
 70
58
 90
2
176
1
 90
2
176
1
 90
0
176
1
 90
1
176
1
 40
0.6
176
1
 40
30.0
176
1
 62
7
420
16777215
176
1
 90
1
176
1
 90
4
176
1
 62
7
176
1
 62
257
176
1
 90
1
176
1
 90
1
176
1
 40
1.0
176
1
 90
8
176
1
 62
7
176
1
 40
1.0
176
1
 90
1
176
1
 90
6
176
1
 90
2
176
1
 62
7
176
1
 90
5
176
1
 90
0
176
1
 90
0
176
1
290
0
176
1
 90
1
176
1
 40
0.0
176
1
 90
0
176
1
290
0
176
1
290
1
176
1
290
1
176
1
290
0
176
1
290
0
176
1
290
0
176
1
290
0
176
1
290
0
176
1
290
0
176
1
 90
50
176
1
 40
0.0
176
1
 40
1.0
176
1
 90
0
176
1
 62
18
420
0
176
1
 90
50
176
1
 90
3
176
1
 62
5
420
255
176
1
290
0
176
1
 90
50
176
1
 90
50
176
1
 90
50
176
1
290
0
176
1
 90
50
176
1
 62
256
176
0
 40
1.0
176
0
 90
2
176
1
  1
strokes_ogs.tif
176
1
290
0
176
1
 40
1.0
176
1
 40
1.0
176
1
  0
VISUALSTYLE
  5
5C
102
{ACAD_REACTORS
330
16
102
}
330
16
100
AcDbVisualStyle
  2
Brighten
 70
12
177
3
291
1
 70
58
 90
2
176
1
 90
2
176
1
 90
0
176
1
 90
2
176
1
 40
0.6
176
1
 40
30.0
176
1
 62
7
420
16777215
176
1
 90
1
176
1
 90
4
176
1
 62
7
176
1
 62
257
176
1
 90
1
176
1
 90
1
176
1
 40
1.0
176
1
 90
8
176
1
 62
7
176
1
 40
1.0
176
1
 90
1
176
1
 90
6
176
1
 90
2
176
1
 62
7
176
1
 90
5
176
1
 90
0
176
1
 90
0
176
1
290
0
176
1
 90
1
176
1
 40
0.0
176
1
 90
0
176
1
290
0
176
1
290
1
176
1
290
1
176
1
290
0
176
1
290
0
176
1
290
0
176
1
290
0
176
1
290
0
176
1
290
0
176
1
 90
50
176
1
 40
0.0
176
1
 40
1.0
176
1
 90
0
176
1
 62
18
420
0
176
1
 90
50
176
1
 90
3
176
1
 62
5
420
255
176
1
290
0
176
1
 90
50
176
1
 90
50
176
1
 90
50
176
1
290
0
176
1
 90
50
176
1
 62
256
176
0
 40
1.0
176
0
 90
2
176
1
  1
strokes_ogs.tif
176
1
290
0
176
1
 40
1.0
176
1
 40
1.0
176
1
  0
VISUALSTYLE
  5
5D
102
{ACAD_REACTORS
330
16
102
}
330
16
100
AcDbVisualStyle
  2
ColorChange
 70
16
177
3
291
1
 70
58
 90
2
176
1
 90
2
176
1
 90
0
176
1
 90
2
176
1
 40
0.6
176
1
 40
30.0
176
1
 62
7
420
16777215
176
1
 90
1
176
1
 90
4
176
1
 62
7
176
1
 62
257
176
1
 90
1
176
1
 90
1
176
1
 40
1.0
176
1
 90
8
176
1
 62
7
176
1
 40
1.0
176
1
 90
1
176
1
 90
6
176
1
 90
2
176
1
 62
7
176
1
 90
5
176
1
 90
0
176
1
 90
0
176
1
290
0
176
1
 90
1
176
1
 40
0.0
176
1
 90
0
176
1
290
0
176
1
290
1
176
1
290
1
176
1
290
0
176
1
290
0
176
1
290
0
176
1
290
0
176
1
290
0
176
1
290
0
176
1
 90
50
176
1
 40
0.0
176
1
 40
1.0
176
1
 90
0
176
1
 62
18
420
0
176
1
 90
50
176
1
 90
3
176
1
 62
5
420
255
176
1
290
0
176
1
 90
50
176
1
 90
50
176
1
 90
50
176
1
290
0
176
1
 90
50
176
1
 62
256
176
0
 40
1.0
176
0
 90
2
176
1
  1
strokes_ogs.tif
176
1
290
0
176
1
 40
1.0
176
1
 40
1.0
176
1
  0
VISUALSTYLE
  5
5E
102
{ACAD_REACTORS
330
16
102
}
330
16
100
AcDbVisualStyle
  2
Conceptual
 70
9
177
3
291
0
 70
58
 90
2
176
1
 90
2
176
1
 90
0
176
1
 90
3
176
1
 40
0.6
176
1
 40
30.0
176
1
 62
7
420
16777215
176
1
 90
1
176
1
 90
4
176
1
 62
7
176
1
 62
257
176
1
 90
1
176
1
 90
1
176
1
 40
1.0
176
1
 90
8
176
1
 62
7
176
1
 40
1.0
176
1
 90
1
176
1
 90
6
176
1
 90
2
176
1
 62
7
176
1
 90
5
176
1
 90
0
176
1
 90
0
176
1
290
0
176
1
 90
1
176
1
 40
0.0
176
1
 90
0
176
1
290
0
176
1
290
1
176
1
290
1
176
1
290
0
176
1
290
0
176
1
290
0
176
1
290
0
176
1
290
0
176
1
290
0
176
1
 90
50
176
1
 40
0.0
176
1
 40
1.0
176
1
 90
0
176
1
 62
18
420
0
176
1
 90
50
176
1
 90
3
176
1
 62
5
420
255
176
1
290
0
176
1
 90
50
176
1
 90
50
176
1
 90
50
176
1
290
0
176
1
 90
50
176
1
 62
256
176
0
 40
1.0
176
0
 90
2
176
1
  1
strokes_ogs.tif
176
1
290
0
176
1
 40
1.0
176
1
 40
1.0
176
1
  0
VISUALSTYLE
  5
5F
102
{ACAD_REACTORS
330
16
102
}
330
16
100
AcDbVisualStyle
  2
Dim
 70
11
177
3
291
1
 70
58
 90
2
176
1
 90
2
176
1
 90
0
176
1
 90
2
176
1
 40
0.6
176
1
 40
30.0
176
1
 62
7
420
16777215
176
1
 90
1
176
1
 90
4
176
1
 62
7
176
1
 62
257
176
1
 90
1
176
1
 90
1
176
1
 40
1.0
176
1
 90
8
176
1
 62
7
176
1
 40
1.0
176
1
 90
1
176
1
 90
6
176
1
 90
2
176
1
 62
7
176
1
 90
5
176
1
 90
0
176
1
 90
0
176
1
290
0
176
1
 90
1
176
1
 40
0.0
176
1
 90
0
176
1
290
0
176
1
290
1
176
1
290
1
176
1
290
0
176
1
290
0
176
1
290
0
176
1
290
0
176
1
290
0
176
1
290
0
176
1
 90
50
176
1
 40
0.0
176
1
 40
1.0
176
1
 90
0
176
1
 62
18
420
0
176
1
 90
50
176
1
 90
3
176
1
 62
5
420
255
176
1
290
0
176
1
 90
50
176
1
 90
50
176
1
 90
50
176
1
290
0
176
1
 90
50
176
1
 62
256
176
0
 40
1.0
176
0
 90
2
176
1
  1
strokes_ogs.tif
176
1
290
0
176
1
 40
1.0
176
1
 40
1.0
176
1
  0
VISUALSTYLE
  5
60
102
{ACAD_REACTORS
330
16
102
}
330
16
100
AcDbVisualStyle
  2
EdgeColorOff
 70
22
177
3
291
1
 70
58
 90
2
176
1
 90
2
176
1
 90
0
176
1
 90
2
176
1
 40
0.6
176
1
 40
30.0
176
1
 62
7
420
16777215
176
1
 90
1
176
1
 90
4
176
1
 62
7
176
1
 62
257
176
1
 90
1
176
1
 90
1
176
1
 40
1.0
176
1
 90
8
176
1
 62
7
176
1
 40
1.0
176
1
 90
1
176
1
 90
6
176
1
 90
2
176
1
 62
7
176
1
 90
5
176
1
 90
0
176
1
 90
0
176
1
290
0
176
1
 90
1
176
1
 40
0.0
176
1
 90
0
176
1
290
0
176
1
290
1
176
1
290
1
176
1
290
0
176
1
290
0
176
1
290
0
176
1
290
0
176
1
290
0
176
1
290
0
176
1
 90
50
176
1
 40
0.0
176
1
 40
1.0
176
1
 90
0
176
1
 62
18
420
0
176
1
 90
50
176
1
 90
3
176
1
 62
5
420
255
176
1
290
0
176
1
 90
50
176
1
 90
50
176
1
 90
50
176
1
290
0
176
1
 90
50
176
1
 62
256
176
0
 40
1.0
176
0
 90
2
176
1
  1
strokes_ogs.tif
176
1
290
0
176
1
 40
1.0
176
1
 40
1.0
176
1
  0
VISUALSTYLE
  5
61
102
{ACAD_REACTORS
330
16
102
}
330
16
100
AcDbVisualStyle
  2
Facepattern
 70
15
177
3
291
1
 70
58
 90
2
176
1
 90
2
176
1
 90
0
176
1
 90
2
176
1
 40
0.6
176
1
 40
30.0
176
1
 62
7
420
16777215
176
1
 90
1
176
1
 90
4
176
1
 62
7
176
1
 62
257
176
1
 90
1
176
1
 90
1
176
1
 40
1.0
176
1
 90
8
176
1
 62
7
176
1
 40
1.0
176
1
 90
1
176
1
 90
6
176
1
 90
2
176
1
 62
7
176
1
 90
5
176
1
 90
0
176
1
 90
0
176
1
290
0
176
1
 90
1
176
1
 40
0.0
176
1
 90
0
176
1
290
0
176
1
290
1
176
1
290
1
176
1
290
0
176
1
290
0
176
1
290
0
176
1
290
0
176
1
290
0
176
1
290
0
176
1
 90
50
176
1
 40
0.0
176
1
 40
1.0
176
1
 90
0
176
1
 62
18
420
0
176
1
 90
50
176
1
 90
3
176
1
 62
5
420
255
176
1
290
0
176
1
 90
50
176
1
 90
50
176
1
 90
50
176
1
290
0
176
1
 90
50
176
1
 62
256
176
0
 40
1.0
176
0
 90
2
176
1
  1
strokes_ogs.tif
176
1
290
0
176
1
 40
1.0
176
1
 40
1.0
176
1
  0
VISUALSTYLE
  5
62
102
{ACAD_REACTORS
330
16
102
}
330
16
100
AcDbVisualStyle
  2
Flat
 70
0
177
3
291
1
 70
58
 90
2
176
1
 90
2
176
1
 90
0
176
1
 90
2
176
1
 40
0.6
176
1
 40
30.0
176
1
 62
7
420
16777215
176
1
 90
1
176
1
 90
4
176
1
 62
7
176
1
 62
257
176
1
 90
1
176
1
 90
1
176
1
 40
1.0
176
1
 90
8
176
1
 62
7
176
1
 40
1.0
176
1
 90
1
176
1
 90
6
176
1
 90
2
176
1
 62
7
176
1
 90
5
176
1
 90
0
176
1
 90
0
176
1
290
0
176
1
 90
1
176
1
 40
0.0
176
1
 90
0
176
1
290
0
176
1
290
1
176
1
290
1
176
1
290
0
176
1
290
0
176
1
290
0
176
1
290
0
176
1
290
0
176
1
290
0
176
1
 90
50
176
1
 40
0.0
176
1
 40
1.0
176
1
 90
0
176
1
 62
18
420
0
176
1
 90
50
176
1
 90
3
176
1
 62
5
420
255
176
1
290
0
176
1
 90
50
176
1
 90
50
176
1
 90
50
176
1
290
0
176
1
 90
50
176
1
 62
256
176
0
 40
1.0
176
0
 90
2
176
1
  1
strokes_ogs.tif
176
1
290
0
176
1
 40
1.0
176
1
 40
1.0
176
1
  0
VISUALSTYLE
  5
63
102
{ACAD_REACTORS
330
16
102
}
330
16
100
AcDbVisualStyle
  2
FlatWithEdges
 70
1
177
3
291
1
 70
58
 90
2
176
1
 90
2
176
1
 90
0
176
1
 90
2
176
1
 40
0.6
176
1
 40
30.0
176
1
 62
7
420
16777215
176
1
 90
1
176
1
 90
4
176
1
 62
7
176
1
 62
257
176
1
 90
1
176
1
 90
1
176
1
 40
1.0
176
1
 90
8
176
1
 62
7
176
1
 40
1.0
176
1
 90
1
176
1
 90
6
176
1
 90
2
176
1
 62
7
176
1
 90
5
176
1
 90
0
176
1
 90
0
176
1
290
0
176
1
 90
1
176
1
 40
0.0
176
1
 90
0
176
1
290
0
176
1
290
1
176
1
290
1
176
1
290
0
176
1
290
0
176
1
290
0
176
1
290
0
176
1
290
0
176
1
290
0
176
1
 90
50
176
1
 40
0.0
176
1
 40
1.0
176
1
 90
0
176
1
 62
18
420
0
176
1
 90
50
176
1
 90
3
176
1
 62
5
420
255
176
1
290
0
176
1
 90
50
176
1
 90
50
176
1
 90
50
176
1
290
0
176
1
 90
50
176
1
 62
256
176
0
 40
1.0
176
0
 90
2
176
1
  1
strokes_ogs.tif
176
1
290
0
176
1
 40
1.0
176
1
 40
1.0
176
1
  0
VISUALSTYLE
  5
64
102
{ACAD_REACTORS
330
16
102
}
330
16
100
AcDbVisualStyle
  2
Gouraud
 70
2
177
3
291
1
 70
58
 90
2
176
1
 90
2
176
1
 90
0
176
1
 90
2
176
1
 40
0.6
176
1
 40
30.0
176
1
 62
7
420
16777215
176
1
 90
1
176
1
 90
4
176
1
 62
7
176
1
 62
257
176
1
 90
1
176
1
 90
1
176
1
 40
1.0
176
1
 90
8
176
1
 62
7
176
1
 40
1.0
176
1
 90
1
176
1
 90
6
176
1
 90
2
176
1
 62
7
176
1
 90
5
176
1
 90
0
176
1
 90
0
176
1
290
0
176
1
 90
1
176
1
 40
0.0
176
1
 90
0
176
1
290
0
176
1
290
1
176
1
290
1
176
1
290
0
176
1
290
0
176
1
290
0
176
1
290
0
176
1
290
0
176
1
290
0
176
1
 90
50
176
1
 40
0.0
176
1
 40
1.0
176
1
 90
0
176
1
 62
18
420
0
176
1
 90
50
176
1
 90
3
176
1
 62
5
420
255
176
1
290
0
176
1
 90
50
176
1
 90
50
176
1
 90
50
176
1
290
0
176
1
 90
50
176
1
 62
256
176
0
 40
1.0
176
0
 90
2
176
1
  1
strokes_ogs.tif
176
1
290
0
176
1
 40
1.0
176
1
 40
1.0
176
1
  0
VISUALSTYLE
  5
65
102
{ACAD_REACTORS
330
16
102
}
330
16
100
AcDbVisualStyle
  2
GouraudWithEdges
 70
3
177
3
291
1
 70
58
 90
2
176
1
 90
2
176
1
 90
0
176
1
 90
2
176
1
 40
0.6
176
1
 40
30.0
176
1
 62
7
420
16777215
176
1
 90
1
176
1
 90
4
176
1
 62
7
176
1
 62
257
176
1
 90
1
176
1
 90
1
176
1
 40
1.0
176
1
 90
8
176
1
 62
7
176
1
 40
1.0
176
1
 90
1
176
1
 90
6
176
1
 90
2
176
1
 62
7
176
1
 90
5
176
1
 90
0
176
1
 90
0
176
1
290
0
176
1
 90
1
176
1
 40
0.0
176
1
 90
0
176
1
290
0
176
1
290
1
176
1
290
1
176
1
290
0
176
1
290
0
176
1
290
0
176
1
290
0
176
1
290
0
176
1
290
0
176
1
 90
50
176
1
 40
0.0
176
1
 40
1.0
176
1
 90
0
176
1
 62
18
420
0
176
1
 90
50
176
1
 90
3
176
1
 62
5
420
255
176
1
290
0
176
1
 90
50
176
1
 90
50
176
1
 90
50
176
1
290
0
176
1
 90
50
176
1
 62
256
176
0
 40
1.0
176
0
 90
2
176
1
  1
strokes_ogs.tif
176
1
290
0
176
1
 40
1.0
176
1
 40
1.0
176
1
  0
VISUALSTYLE
  5
66
102
{ACAD_REACTORS
330
16
102
}
330
16
100
AcDbVisualStyle
  2
Hidden
 70
6
177
3
291
0
 70
58
 90
2
176
1
 90
2
176
1
 90
0
176
1
 90
1
176
1
 40
0.6
176
1
 40
30.0
176
1
 62
7
420
16777215
176
1
 90
1
176
1
 90
4
176
1
 62
7
176
1
 62
257
176
1
 90
1
176
1
 90
1
176
1
 40
1.0
176
1
 90
8
176
1
 62
7
176
1
 40
1.0
176
1
 90
1
176
1
 90
6
176
1
 90
2
176
1
 62
7
176
1
 90
5
176
1
 90
0
176
1
 90
0
176
1
290
0
176
1
 90
1
176
1
 40
0.0
176
1
 90
0
176
1
290
0
176
1
290
1
176
1
290
1
176
1
290
0
176
1
290
0
176
1
290
0
176
1
290
0
176
1
290
0
176
1
290
0
176
1
 90
50
176
1
 40
0.0
176
1
 40
1.0
176
1
 90
0
176
1
 62
18
420
0
176
1
 90
50
176
1
 90
3
176
1
 62
5
420
255
176
1
290
0
176
1
 90
50
176
1
 90
50
176
1
 90
50
176
1
290
0
176
1
 90
50
176
1
 62
256
176
0
 40
1.0
176
0
 90
2
176
1
  1
strokes_ogs.tif
176
1
290
0
176
1
 40
1.0
176
1
 40
1.0
176
1
  0
VISUALSTYLE
  5
67
102
{ACAD_REACTORS
330
16
102
}
330
16
100
AcDbVisualStyle
  2
JitterOff
 70
20
177
3
291
1
 70
58
 90
2
176
1
 90
2
176
1
 90
0
176
1
 90
2
176
1
 40
0.6
176
1
 40
30.0
176
1
 62
7
420
16777215
176
1
 90
1
176
1
 90
4
176
1
 62
7
176
1
 62
257
176
1
 90
1
176
1
 90
1
176
1
 40
1.0
176
1
 90
8
176
1
 62
7
176
1
 40
1.0
176
1
 90
1
176
1
 90
6
176
1
 90
2
176
1
 62
7
176
1
 90
5
176
1
 90
0
176
1
 90
0
176
1
290
0
176
1
 90
1
176
1
 40
0.0
176
1
 90
0
176
1
290
0
176
1
290
1
176
1
290
1
176
1
290
0
176
1
290
0
176
1
290
0
176
1
290
0
176
1
290
0
176
1
290
0
176
1
 90
50
176
1
 40
0.0
176
1
 40
1.0
176
1
 90
0
176
1
 62
18
420
0
176
1
 90
50
176
1
 90
3
176
1
 62
5
420
255
176
1
290
0
176
1
 90
50
176
1
 90
50
176
1
 90
50
176
1
290
0
176
1
 90
50
176
1
 62
256
176
0
 40
1.0
176
0
 90
2
176
1
  1
strokes_ogs.tif
176
1
290
0
176
1
 40
1.0
176
1
 40
1.0
176
1
  0
VISUALSTYLE
  5
68
102
{ACAD_REACTORS
330
16
102
}
330
16
100
AcDbVisualStyle
  2
Linepattern
 70
14
177
3
291
1
 70
58
 90
2
176
1
 90
2
176
1
 90
0
176
1
 90
2
176
1
 40
0.6
176
1
 40
30.0
176
1
 62
7
420
16777215
176
1
 90
1
176
1
 90
4
176
1
 62
7
176
1
 62
257
176
1
 90
1
176
1
 90
1
176
1
 40
1.0
176
1
 90
8
176
1
 62
7
176
1
 40
1.0
176
1
 90
1
176
1
 90
6
176
1
 90
2
176
1
 62
7
176
1
 90
5
176
1
 90
0
176
1
 90
0
176
1
290
0
176
1
 90
1
176
1
 40
0.0
176
1
 90
0
176
1
290
0
176
1
290
1
176
1
290
1
176
1
290
0
176
1
290
0
176
1
290
0
176
1
290
0
176
1
290
0
176
1
290
0
176
1
 90
50
176
1
 40
0.0
176
1
 40
1.0
176
1
 90
0
176
1
 62
18
420
0
176
1
 90
50
176
1
 90
3
176
1
 62
5
420
255
176
1
290
0
176
1
 90
50
176
1
 90
50
176
1
 90
50
176
1
290
0
176
1
 90
50
176
1
 62
256
176
0
 40
1.0
176
0
 90
2
176
1
  1
strokes_ogs.tif
176
1
290
0
176
1
 40
1.0
176
1
 40
1.0
176
1
  0
VISUALSTYLE
  5
69
102
{ACAD_REACTORS
330
16
102
}
330
16
100
AcDbVisualStyle
  2
Modeling
 70
10
177
3
291
0
 70
58
 90
2
176
1
 90
2
176
1
 90
0
176
1
 90
2
176
1
 40
0.6
176
1
 40
30.0
176
1
 62
7
420
16777215
176
1
 90
1
176
1
 90
4
176
1
 62
7
176
1
 62
257
176
1
 90
1
176
1
 90
1
176
1
 40
1.0
176
1
 90
8
176
1
 62
7
176
1
 40
1.0
176
1
 90
1
176
1
 90
6
176
1
 90
2
176
1
 62
7
176
1
 90
5
176
1
 90
0
176
1
 90
0
176
1
290
0
176
1
 90
1
176
1
 40
0.0
176
1
 90
0
176
1
290
0
176
1
290
1
176
1
290
1
176
1
290
0
176
1
290
0
176
1
290
0
176
1
290
0
176
1
290
0
176
1
290
0
176
1
 90
50
176
1
 40
0.0
176
1
 40
1.0
176
1
 90
0
176
1
 62
18
420
0
176
1
 90
50
176
1
 90
3
176
1
 62
5
420
255
176
1
290
0
176
1
 90
50
176
1
 90
50
176
1
 90
50
176
1
290
0
176
1
 90
50
176
1
 62
256
176
0
 40
1.0
176
0
 90
2
176
1
  1
strokes_ogs.tif
176
1
290
0
176
1
 40
1.0
176
1
 40
1.0
176
1
  0
VISUALSTYLE
  5
6A
102
{ACAD_REACTORS
330
16
102
}
330
16
100
AcDbVisualStyle
  2
OverhangOff
 70
21
177
3
291
1
 70
58
 90
2
176
1
 90
2
176
1
 90
0
176
1
 90
2
176
1
 40
0.6
176
1
 40
30.0
176
1
 62
7
420
16777215
176
1
 90
1
176
1
 90
4
176
1
 62
7
176
1
 62
257
176
1
 90
1
176
1
 90
1
176
1
 40
1.0
176
1
 90
8
176
1
 62
7
176
1
 40
1.0
176
1
 90
1
176
1
 90
6
176
1
 90
2
176
1
 62
7
176
1
 90
5
176
1
 90
0
176
1
 90
0
176
1
290
0
176
1
 90
1
176
1
 40
0.0
176
1
 90
0
176
1
290
0
176
1
290
1
176
1
290
1
176
1
290
0
176
1
290
0
176
1
290
0
176
1
290
0
176
1
290
0
176
1
290
0
176
1
 90
50
176
1
 40
0.0
176
1
 40
1.0
176
1
 90
0
176
1
 62
18
420
0
176
1
 90
50
176
1
 90
3
176
1
 62
5
420
255
176
1
290
0
176
1
 90
50
176
1
 90
50
176
1
 90
50
176
1
290
0
176
1
 90
50
176
1
 62
256
176
0
 40
1.0
176
0
 90
2
176
1
  1
strokes_ogs.tif
176
1
290
0
176
1
 40
1.0
176
1
 40
1.0
176
1
  0
VISUALSTYLE
  5
6B
102
{ACAD_REACTORS
330
16
102
}
330
16
100
AcDbVisualStyle
  2
Realistic
 70
8
177
3
291
0
 70
58
 90
2
176
1
 90
2
176
1
 90
0
176
1
 90
2
176
1
 40
0.6
176
1
 40
30.0
176
1
 62
7
420
16777215
176
1
 90
1
176
1
 90
4
176
1
 62
7
176
1
 62
257
176
1
 90
1
176
1
 90
1
176
1
 40
1.0
176
1
 90
8
176
1
 62
7
176
1
 40
1.0
176
1
 90
1
176
1
 90
6
176
1
 90
2
176
1
 62
7
176
1
 90
5
176
1
 90
0
176
1
 90
0
176
1
290
0
176
1
 90
1
176
1
 40
0.0
176
1
 90
0
176
1
290
0
176
1
290
1
176
1
290
1
176
1
290
0
176
1
290
0
176
1
290
0
176
1
290
0
176
1
290
0
176
1
290
0
176
1
 90
50
176
1
 40
0.0
176
1
 40
1.0
176
1
 90
0
176
1
 62
18
420
0
176
1
 90
50
176
1
 90
3
176
1
 62
5
420
255
176
1
290
0
176
1
 90
50
176
1
 90
50
176
1
 90
50
176
1
290
0
176
1
 90
50
176
1
 62
256
176
0
 40
1.0
176
0
 90
2
176
1
  1
strokes_ogs.tif
176
1
290
0
176
1
 40
1.0
176
1
 40
1.0
176
1
  0
VISUALSTYLE
  5
6C
102
{ACAD_REACTORS
330
16
102
}
330
16
100
AcDbVisualStyle
  2
Shaded
 70
27
177
3
291
0
 70
58
 90
2
176
1
 90
2
176
1
 90
0
176
1
 90
2
176
1
 40
0.6
176
1
 40
30.0
176
1
 62
7
420
16777215
176
1
 90
1
176
1
 90
4
176
1
 62
7
176
1
 62
257
176
1
 90
1
176
1
 90
1
176
1
 40
1.0
176
1
 90
8
176
1
 62
7
176
1
 40
1.0
176
1
 90
1
176
1
 90
6
176
1
 90
2
176
1
 62
7
176
1
 90
5
176
1
 90
0
176
1
 90
0
176
1
290
0
176
1
 90
1
176
1
 40
0.0
176
1
 90
0
176
1
290
0
176
1
290
1
176
1
290
1
176
1
290
0
176
1
290
0
176
1
290
0
176
1
290
0
176
1
290
0
176
1
290
0
176
1
 90
50
176
1
 40
0.0
176
1
 40
1.0
176
1
 90
0
176
1
 62
18
420
0
176
1
 90
50
176
1
 90
3
176
1
 62
5
420
255
176
1
290
0
176
1
 90
50
176
1
 90
50
176
1
 90
50
176
1
290
0
176
1
 90
50
176
1
 62
256
176
0
 40
1.0
176
0
 90
2
176
1
  1
strokes_ogs.tif
176
1
290
0
176
1
 40
1.0
176
1
 40
1.0
176
1
  0
VISUALSTYLE
  5
6D
102
{ACAD_REACTORS
330
16
102
}
330
16
100
AcDbVisualStyle
  2
Shaded with edges
 70
26
177
3
291
0
 70
58
 90
2
176
1
 90
2
176
1
 90
0
176
1
 90
2
176
1
 40
0.6
176
1
 40
30.0
176
1
 62
7
420
16777215
176
1
 90
1
176
1
 90
4
176
1
 62
7
176
1
 62
257
176
1
 90
1
176
1
 90
1
176
1
 40
1.0
176
1
 90
8
176
1
 62
7
176
1
 40
1.0
176
1
 90
1
176
1
 90
6
176
1
 90
2
176
1
 62
7
176
1
 90
5
176
1
 90
0
176
1
 90
0
176
1
290
0
176
1
 90
1
176
1
 40
0.0
176
1
 90
0
176
1
290
0
176
1
290
1
176
1
290
1
176
1
290
0
176
1
290
0
176
1
290
0
176
1
290
0
176
1
290
0
176
1
290
0
176
1
 90
50
176
1
 40
0.0
176
1
 40
1.0
176
1
 90
0
176
1
 62
18
420
0
176
1
 90
50
176
1
 90
3
176
1
 62
5
420
255
176
1
290
0
176
1
 90
50
176
1
 90
50
176
1
 90
50
176
1
290
0
176
1
 90
50
176
1
 62
256
176
0
 40
1.0
176
0
 90
2
176
1
  1
strokes_ogs.tif
176
1
290
0
176
1
 40
1.0
176
1
 40
1.0
176
1
  0
VISUALSTYLE
  5
6E
102
{ACAD_REACTORS
330
16
102
}
330
16
100
AcDbVisualStyle
  2
Shades of Gray
 70
23
177
3
291
0
 70
58
 90
2
176
1
 90
2
176
1
 90
0
176
1
 90
2
176
1
 40
0.6
176
1
 40
30.0
176
1
 62
7
420
16777215
176
1
 90
1
176
1
 90
4
176
1
 62
7
176
1
 62
257
176
1
 90
1
176
1
 90
1
176
1
 40
1.0
176
1
 90
8
176
1
 62
7
176
1
 40
1.0
176
1
 90
1
176
1
 90
6
176
1
 90
2
176
1
 62
7
176
1
 90
5
176
1
 90
0
176
1
 90
0
176
1
290
0
176
1
 90
1
176
1
 40
0.0
176
1
 90
0
176
1
290
0
176
1
290
1
176
1
290
1
176
1
290
0
176
1
290
0
176
1
290
0
176
1
290
0
176
1
290
0
176
1
290
0
176
1
 90
50
176
1
 40
0.0
176
1
 40
1.0
176
1
 90
0
176
1
 62
18
420
0
176
1
 90
50
176
1
 90
3
176
1
 62
5
420
255
176
1
290
0
176
1
 90
50
176
1
 90
50
176
1
 90
50
176
1
290
0
176
1
 90
50
176
1
 62
256
176
0
 40
1.0
176
0
 90
2
176
1
  1
strokes_ogs.tif
176
1
290
0
176
1
 40
1.0
176
1
 40
1.0
176
1
  0
VISUALSTYLE
  5
6F
102
{ACAD_REACTORS
330
16
102
}
330
16
100
AcDbVisualStyle
  2
Sketchy
 70
24
177
3
291
0
 70
58
 90
2
176
1
 90
2
176
1
 90
0
176
1
 90
1
176
1
 40
0.6
176
1
 40
30.0
176
1
 62
7
420
16777215
176
1
 90
1
176
1
 90
4
176
1
 62
7
176
1
 62
257
176
1
 90
1
176
1
 90
1
176
1
 40
1.0
176
1
 90
8
176
1
 62
7
176
1
 40
1.0
176
1
 90
1
176
1
 90
6
176
1
 90
2
176
1
 62
7
176
1
 90
5
176
1
 90
0
176
1
 90
0
176
1
290
0
176
1
 90
1
176
1
 40
0.0
176
1
 90
0
176
1
290
0
176
1
290
1
176
1
290
1
176
1
290
0
176
1
290
0
176
1
290
0
176
1
290
0
176
1
290
0
176
1
290
0
176
1
 90
50
176
1
 40
0.0
176
1
 40
1.0
176
1
 90
0
176
1
 62
18
420
0
176
1
 90
50
176
1
 90
3
176
1
 62
5
420
255
176
1
290
0
176
1
 90
50
176
1
 90
50
176
1
 90
50
176
1
290
0
176
1
 90
50
176
1
 62
256
176
0
 40
1.0
176
0
 90
2
176
1
  1
strokes_ogs.tif
176
1
290
0
176
1
 40
1.0
176
1
 40
1.0
176
1
  0
VISUALSTYLE
  5
70
102
{ACAD_REACTORS
330
16
102
}
330
16
100
AcDbVisualStyle
  2
Thicken
 70
13
177
3
291
1
 70
58
 90
2
176
1
 90
2
176
1
 90
0
176
1
 90
2
176
1
 40
0.6
176
1
 40
30.0
176
1
 62
7
420
16777215
176
1
 90
1
176
1
 90
4
176
1
 62
7
176
1
 62
257
176
1
 90
1
176
1
 90
1
176
1
 40
1.0
176
1
 90
8
176
1
 62
7
176
1
 40
1.0
176
1
 90
1
176
1
 90
6
176
1
 90
2
176
1
 62
7
176
1
 90
5
176
1
 90
0
176
1
 90
0
176
1
290
0
176
1
 90
1
176
1
 40
0.0
176
1
 90
0
176
1
290
0
176
1
290
1
176
1
290
1
176
1
290
0
176
1
290
0
176
1
290
0
176
1
290
0
176
1
290
0
176
1
290
0
176
1
 90
50
176
1
 40
0.0
176
1
 40
1.0
176
1
 90
0
176
1
 62
18
420
0
176
1
 90
50
176
1
 90
3
176
1
 62
5
420
255
176
1
290
0
176
1
 90
50
176
1
 90
50
176
1
 90
50
176
1
290
0
176
1
 90
50
176
1
 62
256
176
0
 40
1.0
176
0
 90
2
176
1
  1
strokes_ogs.tif
176
1
290
0
176
1
 40
1.0
176
1
 40
1.0
176
1
  0
VISUALSTYLE
  5
71
102
{ACAD_REACTORS
330
16
102
}
330
16
100
AcDbVisualStyle
  2
Wireframe
 70
5
177
3
291
0
 70
58
 90
2
176
1
 90
2
176
1
 90
0
176
1
 90
0
176
1
 40
0.6
176
1
 40
30.0
176
1
 62
7
420
16777215
176
1
 90
1
176
1
 90
4
176
1
 62
7
176
1
 62
257
176
1
 90
1
176
1
 90
1
176
1
 40
1.0
176
1
 90
8
176
1
 62
7
176
1
 40
1.0
176
1
 90
1
176
1
 90
6
176
1
 90
2
176
1
 62
7
176
1
 90
5
176
1
 90
0
176
1
 90
0
176
1
290
0
176
1
 90
1
176
1
 40
0.0
176
1
 90
0
176
1
290
0
176
1
290
1
176
1
290
1
176
1
290
0
176
1
290
0
176
1
290
0
176
1
290
0
176
1
290
0
176
1
290
0
176
1
 90
50
176
1
 40
0.0
176
1
 40
1.0
176
1
 90
0
176
1
 62
18
420
0
176
1
 90
50
176
1
 90
3
176
1
 62
5
420
255
176
1
290
0
176
1
 90
50
176
1
 90
50
176
1
 90
50
176
1
290
0
176
1
 90
50
176
1
 62
256
176
0
 40
1.0
176
0
 90
2
176
1
  1
strokes_ogs.tif
176
1
290
0
176
1
 40
1.0
176
1
 40
1.0
176
1
  0
VISUALSTYLE
  5
72
102
{ACAD_REACTORS
330
16
102
}
330
16
100
AcDbVisualStyle
  2
X-Ray
 70
25
177
3
291
0
 70
58
 90
2
176
1
 90
2
176
1
 90
0
176
1
 90
2
176
1
 40
0.5
176
1
 40
30.0
176
1
 62
7
420
16777215
176
1
 90
1
176
1
 90
4
176
1
 62
7
176
1
 62
257
176
1
 90
1
176
1
 90
1
176
1
 40
1.0
176
1
 90
8
176
1
 62
7
176
1
 40
1.0
176
1
 90
1
176
1
 90
6
176
1
 90
2
176
1
 62
7
176
1
 90
5
176
1
 90
0
176
1
 90
0
176
1
290
0
176
1
 90
1
176
1
 40
0.0
176
1
 90
0
176
1
290
0
176
1
290
1
176
1
290
1
176
1
290
0
176
1
290
0
176
1
290
0
176
1
290
0
176
1
290
0
176
1
290
0
176
1
 90
50
176
1
 40
0.0
176
1
 40
1.0
176
1
 90
0
176
1
 62
18
420
0
176
1
 90
50
176
1
 90
3
176
1
 62
5
420
255
176
1
290
0
176
1
 90
50
176
1
 90
50
176
1
 90
50
176
1
290
0
176
1
 90
50
176
1
 62
256
176
0
 40
1.0
176
0
 90
2
176
1
  1
strokes_ogs.tif
176
1
290
0
176
1
 40
1.0
176
1
 40
1.0
176
1
  0
DICTIONARYVAR
  5
24E
330
2D
100
DictionaryVariables
280
0
  1
1.4.4 @ 2026-10-04T18:28:30.437801+00:00
  0
ENDSEC
  0
EOF
