  0
SECTION
  2
HEADER
  9
$ACADVER
  1
AC1032
  9
$ACADMAINTVER
 90
4
  9
$DWGCODEPAGE
  3
ANSI_1252
  9
$LASTSAVEDBY
  1
ezdxf
  9
$REQUIREDVERSIONS
160
0
  9
$INSBASE
 10
0.0
 20
0.0
 30
0.0
  9
$EXTMIN
 10
1e+20
 20
1e+20
 30
1e+20
  9
$EXTMAX
 10
-1e+20
 20
-1e+20
 30
-1e+20
  9
$LIMMIN
 10
0.0
 20
0.0
  9
$LIMMAX
 10
420.0
 20
297.0
  9
$ORTHOMODE
 70
0
  9
$REGENMODE
 70
1
  9
$FILLMODE
 70
1
  9
$QTEXTMODE
 70
0
  9
$MIRRTEXT
 70
1
  9
$LTSCALE
 40
1.0
  9
$ATTMODE
 70
1
  9
$TEXTSIZE
 40
2.5
  9
$TRACEWID
 40
1.0
  9
$TEXTSTYLE
  7
OpenSans
  9
$CLAYER
  8
0
  9
$CELTYPE
  6
ByLayer
  9
$CECOLOR
 62
256
  9
$CELTSCALE
 40
1.0
  9
$DISPSILH
 70
0
  9
$DIMSCALE
 40
1.0
  9
$DIMASZ
 40
0.175
  9
$DIMEXO
 40
0.125
  9
$DIMDLI
 40
3.75
  9
$DIMRND
 40
0.0
  9
$DIMDLE
 40
0.0
  9
$DIMEXE
 40
0.375
  9
$DIMTP
 40
0.0
  9
$DIMTM
 40
0.0
  9
$DIMTXT
 40
0.25
  9
$DIMCEN
 40
2.5
  9
$DIMTSZ
 40
0.0
  9
$DIMTOL
 70
0
  9
$DIMLIM
 70
0
  9
$DIMTIH
 70
0
  9
$DIMTOH
 70
0
  9
$DIMSE1
 70
0
  9
$DIMSE2
 70
0
  9
$DIMTAD
 70
1
  9
$DIMZIN
 70
12
  9
$DIMBLK
  1
ARCHTICK
  9
$DIMASO
 70
1
  9
$DIMSHO
 70
1
  9
$DIMPOST
  1

  9
$DIMAPOST
  1

  9
$DIMALT
 70
0
  9
$DIMALTD
 70
3
  9
$DIMALTF
 40
0.03937007874
  9
$DIMLFAC
 40
100.0
  9
$DIMTOFL
 70
1
  9
$DIMTVP
 40
0.0
  9
$DIMTIX
 70
0
  9
$DIMSOXD
 70
0
  9
$DIMSAH
 70
0
  9
$DIMBLK1
  1

  9
$DIMBLK2
  1

  9
$DIMSTYLE
  2
EZDXF
  9
$DIMCLRD
 70
0
  9
$DIMCLRE
 70
0
  9
$DIMCLRT
 70
0
  9
$DIMTFAC
 40
0.5
  9
$DIMGAP
 40
0.1
  9
$DIMJUST
 70
0
  9
$DIMSD1
 70
0
  9
$DIMSD2
 70
0
  9
$DIMTOLJ
 70
0
  9
$DIMTZIN
 70
8
  9
$DIMALTZ
 70
0
  9
$DIMALTTZ
 70
0
  9
$DIMUPT
 70
1
  9
$DIMDEC
 70
2
  9
$DIMTDEC
 70
2
  9
$DIMALTU
 70
2
  9
$DIMALTTD
 70
3
  9
$DIMTXSTY
  7
OpenSansCondensed-Light
  9
$DIMAUNIT
 70
0
  9
$DIMADEC
 70
2
  9
$DIMALTRND
 40
0.0
  9
$DIMAZIN
 70
3
  9
$DIMDSEP
 70
46
  9
$DIMATFIT
 70
3
  9
$DIMFRAC
 70
0
  9
$DIMLDRBLK
  1

  9
$DIMLUNIT
 70
2
  9
$DIMLWD
 70
-2
  9
$DIMLWE
 70
-2
  9
$DIMTMOVE
 70
2
  9
$DIMFXL
 40
1.0
  9
$DIMFXLON
 70
0
  9
$DIMJOGANG
 40
0.785398163397
  9
$DIMTFILL
 70
0
  9
$DIMTFILLCLR
 70
0
  9
$DIMARCSYM
 70
0
  9
$DIMLTYPE
  6

  9
$DIMLTEX1
  6

  9
$DIMLTEX2
  6

  9
$DIMTXTDIRECTION
 70
0
  9
$LUNITS
 70
2
  9
$LUPREC
 70
4
  9
$SKETCHINC
 40
1.0
  9
$FILLETRAD
 40
10.0
  9
$AUNITS
 70
0
  9
$AUPREC
 70
2
  9
$MENU
  1
.
  9
$ELEVATION
 40
0.0
  9
$PELEVATION
 40
0.0
  9
$THICKNESS
 40
0.0
  9
$LIMCHECK
 70
0
  9
$CHAMFERA
 40
0.0
  9
$CHAMFERB
 40
0.0
  9
$CHAMFERC
 40
0.0
  9
$CHAMFERD
 40
0.0
  9
$SKPOLY
 70
0
  9
$TDCREATE
 40
2461318.790636574
  9
$TDUCREATE
 40
2458532.153996898
  9
$TDUPDATE
 40
2461318.790636574
  9
$TDUUPDATE
 40
2458532.1544311
  9
$TDINDWG
 40
0.0
  9
$TDUSRTIMER
 40
0.0
  9
$USRTIMER
 70
1
  9
$ANGBASE
 50
0.0
  9
$ANGDIR
 70
0
  9
$PDMODE
 70
0
  9
$PDSIZE
 40
0.0
  9
$PLINEWID
 40
0.0
  9
$SPLFRAME
 70
0
  9
$SPLINETYPE
 70
6
  9
$SPLINESEGS
 70
8
  9
$HANDSEED
  5
281
  9
$SURFTAB1
 70
6
  9
$SURFTAB2
 70
6
  9
$SURFTYPE
 70
6
  9
$SURFU
 70
6
  9
$SURFV
 70
6
  9
$UCSBASE
  2

  9
$UCSNAME
  2

  9
$UCSORG
 10
0.0
 20
0.0
 30
0.0
  9
$UCSXDIR
 10
1.0
 20
0.0
 30
0.0
  9
$UCSYDIR
 10
0.0
 20
1.0
 30
0.0
  9
$UCSORTHOREF
  2

  9
$UCSORTHOVIEW
 70
0
  9
$UCSORGTOP
 10
0.0
 20
0.0
 30
0.0
  9
$UCSORGBOTTOM
 10
0.0
 20
0.0
 30
0.0
  9
$UCSORGLEFT
 10
0.0
 20
0.0
 30
0.0
  9
$UCSORGRIGHT
 10
0.0
 20
0.0
 30
0.0
  9
$UCSORGFRONT
 10
0.0
 20
0.0
 30
0.0
  9
$UCSORGBACK
 10
0.0
 20
0.0
 30
0.0
  9
$PUCSBASE
  2

  9
$PUCSNAME
  2

  9
$PUCSORG
 10
0.0
 20
0.0
 30
0.0
  9
$PUCSXDIR
 10
1.0
 20
0.0
 30
0.0
  9
$PUCSYDIR
 10
0.0
 20
1.0
 30
0.0
  9
$PUCSORTHOREF
  2

  9
$PUCSORTHOVIEW
 70
0
  9
$PUCSORGTOP
 10
0.0
 20
0.0
 30
0.0
  9
$PUCSORGBOTTOM
 10
0.0
 20
0.0
 30
0.0
  9
$PUCSORGLEFT
 10
0.0
 20
0.0
 30
0.0
  9
$PUCSORGRIGHT
 10
0.0
 20
0.0
 30
0.0
  9
$PUCSORGFRONT
 10
0.0
 20
0.0
 30
0.0
  9
$PUCSORGBACK
 10
0.0
 20
0.0
 30
0.0
  9
$USERI1
 70
0
  9
$USERI2
 70
0
  9
$USERI3
 70
0
  9
$USERI4
 70
0
  9
$USERI5
 70
0
  9
$USERR1
 40
0.0
  9
$USERR2
 40
0.0
  9
$USERR3
 40
0.0
  9
$USERR4
 40
0.0
  9
$USERR5
 40
0.0
  9
$WORLDVIEW
 70
1
  9
$SHADEDGE
 70
3
  9
$SHADEDIF
 70
70
  9
$TILEMODE
 70
1
  9
$MAXACTVP
 70
64
  9
$PINSBASE
 10
0.0
 20
0.0
 30
0.0
  9
$PLIMCHECK
 70
0
  9
$PEXTMIN
 10
1e+20
 20
1e+20
 30
1e+20
  9
$PEXTMAX
 10
-1e+20
 20
-1e+20
 30
-1e+20
  9
$PLIMMIN
 10
0.0
 20
0.0
  9
$PLIMMAX
 10
420.0
 20
297.0
  9
$UNITMODE
 70
0
  9
$VISRETAIN
 70
1
  9
$PLINEGEN
 70
0
  9
$PSLTSCALE
 70
1
  9
$TREEDEPTH
 70
3020
  9
$CMLSTYLE
  2
Standard
  9
$CMLJUST
 70
0
  9
$CMLSCALE
 40
20.0
  9
$PROXYGRAPHICS
 70
1
  9
$MEASUREMENT
 70
1
  9
$CELWEIGHT
370
-1
  9
$ENDCAPS
280
0
  9
$JOINSTYLE
280
0
  9
$LWDISPLAY
290
0
  9
$INSUNITS
 70
6
  9
$HYPERLINKBASE
  1

  9
$STYLESHEET
  1

  9
$XEDIT
290
1
  9
$CEPSNTYPE
380
0
  9
$PSTYLEMODE
290
1
  9
$FINGERPRINTGUID
  2
{F739AAE0-732C-4C65-98F5-C66B130FABF0}
  9
$VERSIONGUID
  2
{57B51D4A-1A6A-4B82-B97F-AF9C27C96F61}
  9
$EXTNAMES
290
1
  9
$PSVPSCALE
 40
0.0
  9
$OLESTARTUP
290
0
  9
$SORTENTS
280
127
  9
$INDEXCTL
280
0
  9
$HIDETEXT
280
1
  9
$XCLIPFRAME
280
1
  9
$HALOGAP
280
0
  9
$OBSCOLOR
 70
257
  9
$OBSLTYPE
280
0
  9
$INTERSECTIONDISPLAY
280
0
  9
$INTERSECTIONCOLOR
 70
257
  9
$DIMASSOC
280
2
  9
$PROJECTNAME
  1

  9
$CAMERADISPLAY
290
0
  9
$LENSLENGTH
 40
50.0
  9
$CAMERAHEIGHT
 40
0.0
  9
$STEPSPERSEC
 40
24.0
  9
$STEPSIZE
 40
100.0
  9
$3DDWFPREC
 40
2.0
  9
$PSOLWIDTH
 40
0.005
  9
$PSOLHEIGHT
 40
0.08
  9
$LOFTANG1
 40
1.570796326795
  9
$LOFTANG2
 40
1.570796326795
  9
$LOFTMAG1
 40
0.0
  9
$LOFTMAG2
 40
0.0
  9
$LOFTPARAM
 70
7
  9
$LOFTNORMALS
280
1
  9
$LATITUDE
 40
37.795
  9
$LONGITUDE
 40
-122.394
  9
$NORTHDIRECTION
 40
0.0
  9
$TIMEZONE
 70
-8000
  9
$LIGHTGLYPHDISPLAY
280
1
  9
$TILEMODELIGHTSYNCH
280
1
  9
$CMATERIAL
347
20
  9
$SOLIDHIST
280
0
  9
$SHOWHIST
280
1
  9
$DWFFRAME
280
2
  9
$DGNFRAME
280
2
  9
$REALWORLDSCALE
290
1
  9
$INTERFERECOLOR
 62
256
  9
$CSHADOW
280
0
  9
$SHADOWPLANELOCATION
 40
0.0
  0
ENDSEC
  0
SECTION
  2
CLASSES
  0
CLASS
  1
ACDBDICTIONARYWDFLT
  2
AcDbDictionaryWithDefault
  3
ObjectDBX Classes
 90
0
 91
0
280
0
281
0
  0
CLASS
  1
SUN
  2
AcDbSun
  3
SCENEOE
 90
1153
 91
0
280
0
281
0
  0
CLASS
  1
VISUALSTYLE
  2
AcDbVisualStyle
  3
ObjectDBX Classes
 90
4095
 91
0
280
0
281
0
  0
CLASS
  1
MATERIAL
  2
AcDbMaterial
  3
ObjectDBX Classes
 90
1153
 91
0
280
0
281
0
  0
CLASS
  1
SCALE
  2
AcDbScale
  3
ObjectDBX Classes
 90
1153
 91
0
280
0
281
0
  0
CLASS
  1
TABLESTYLE
  2
AcDbTableStyle
  3
ObjectDBX Classes
 90
4095
 91
0
280
0
281
0
  0
CLASS
  1
MLEADERSTYLE
  2
AcDbMLeaderStyle
  3
ACDB_MLEADERSTYLE_CLASS
 90
4095
 91
0
280
0
281
0
  0
CLASS
  1
DICTIONARYVAR
  2
AcDbDictionaryVar
  3
ObjectDBX Classes
 90
0
 91
0
280
0
281
0
  0
CLASS
  1
CELLSTYLEMAP
  2
AcDbCellStyleMap
  3
ObjectDBX Classes
 90
1152
 91
0
280
0
281
0
  0
CLASS
  1
MENTALRAYRENDERSETTINGS
  2
AcDbMentalRayRenderSettings
  3
SCENEOE
 90
1024
 91
0
280
0
281
0
  0
CLASS
  1
ACDBDETAILVIEWSTYLE
  2
AcDbDetailViewStyle
  3
ObjectDBX Classes
 90
1025
 91
0
280
0
281
0
  0
CLASS
  1
ACDBSECTIONVIEWSTYLE
  2
AcDbSectionViewStyle
  3
ObjectDBX Classes
 90
1025
 91
0
280
0
281
0
  0
CLASS
  1
RASTERVARIABLES
  2
AcDbRasterVariables
  3
ISM
 90
0
 91
0
280
0
281
0
  0
CLASS
  1
LAYOUT
  2
AcDbLayout
  3
ObjectDBX Classes
 90
0
 91
0
280
0
281
0
  0
CLASS
  1
ACDBPLACEHOLDER
  2
AcDbPlaceHolder
  3
ObjectDBX Classes
 90
0
 91
0
280
0
281
0
  0
ENDSEC
  0
SECTION
  2
TABLES
  0
TABLE
  2
VPORT
  5
8
330
0
100
AcDbSymbolTable
 70
1
  0
VPORT
  5
23
330
8
100
AcDbSymbolTableRecord
100
AcDbViewportTableRecord
  2
*Active
 70
0
 10
0.0
 20
0.0
 11
1.0
 21
1.0
 12
0.0
 22
0.0
 13
0.0
 23
0.0
 14
0.5
 24
0.5
 15
0.5
 25
0.5
 16
0.0
 26
0.0
 36
1.0
 17
0.0
 27
0.0
 37
0.0
 40
1000.0
 41
1.34
 42
50.0
 43
0.0
 44
0.0
 50
0.0
 51
0.0
 71
0
 72
1000
 73
1
 74
3
 75
0
 76
0
 77
0
 78
0
281
0
 65
0
146
0.0
  0
ENDTAB
  0
TABLE
  2
LTYPE
  5
2
330
0
100
AcDbSymbolTable
 70
21
  0
LTYPE
  5
24
330
2
100
AcDbSymbolTableRecord
100
AcDbLinetypeTableRecord
  2
ByBlock
 70
0
  3

 72
65
 73
0
 40
0.0
  0
LTYPE
  5
25
330
2
100
AcDbSymbolTableRecord
100
AcDbLinetypeTableRecord
  2
ByLayer
 70
0
  3

 72
65
 73
0
 40
0.0
  0
LTYPE
  5
26
330
2
100
AcDbSymbolTableRecord
100
AcDbLinetypeTableRecord
  2
Continuous
 70
0
  3

 72
65
 73
0
 40
0.0
  0
LTYPE
  5
2F
330
2
100
AcDbSymbolTableRecord
100
AcDbLinetypeTableRecord
  2
CENTER
 70
0
  3
Center ____ _ ____ _ ____ _ ____ _ ____ _ ____
 72
65
 73
4
 40
5.08
 49
3.175
 74
0
 49
-0.635
 74
0
 49
0.635
 74
0
 49
-0.635
 74
0
  0
LTYPE
  5
30
330
2
100
AcDbSymbolTableRecord
100
AcDbLinetypeTableRecord
  2
CENTERX2
 70
0
  3
Center (2x) ________  __  ________  __  ________
 72
65
 73
4
 40
8.89
 49
6.35
 74
0
 49
-0.635
 74
0
 49
1.27
 74
0
 49
-0.635
 74
0
  0
LTYPE
  5
31
330
2
100
AcDbSymbolTableRecord
100
AcDbLinetypeTableRecord
  2
CENTER2
 70
0
  3
Center (.5x) ____ _ ____ _ ____ _ ____ _ ____
 72
65
 73
4
 40
2.54
 49
1.587
 74
0
 49
-0.318
 74
0
 49
0.318
 74
0
 49
-0.318
 74
0
  0
LTYPE
  5
32
330
2
100
AcDbSymbolTableRecord
100
AcDbLinetypeTableRecord
  2
DASHED
 70
0
  3
Dashed __ __ __ __ __ __ __ __ __ __ __ __ __ _
 72
65
 73
2
 40
1.524
 49
1.27
 74
0
 49
-0.254
 74
0
  0
LTYPE
  5
33
330
2
100
AcDbSymbolTableRecord
100
AcDbLinetypeTableRecord
  2
DASHEDX2
 70
0
  3
Dashed (2x) ____  ____  ____  ____  ____  ____
 72
65
 73
2
 40
3.048
 49
2.54
 74
0
 49
-0.508
 74
0
  0
LTYPE
  5
34
330
2
100
AcDbSymbolTableRecord
100
AcDbLinetypeTableRecord
  2
DASHED2
 70
0
  3
Dashed (.5x) _ _ _ _ _ _ _ _ _ _ _ _ _ _
 72
65
 73
2
 40
0.762
 49
0.635
 74
0
 49
-0.127
 74
0
  0
LTYPE
  5
35
330
2
100
AcDbSymbolTableRecord
100
AcDbLinetypeTableRecord
  2
PHANTOM
 70
0
  3
Phantom ______  __  __  ______  __  __  ______
 72
65
 73
6
 40
6.35
 49
3.175
 74
0
 49
-0.635
 74
0
 49
0.635
 74
0
 49
-0.635
 74
0
 49
0.635
 74
0
 49
-0.635
 74
0
  0
LTYPE
  5
36
330
2
100
AcDbSymbolTableRecord
100
AcDbLinetypeTableRecord
  2
PHANTOMX2
 70
0
  3
Phantom (2x)____________    ____    ____    ____________
 72
65
 73
6
 40
10.795
 49
6.35
 74
0
 49
-0.635
 74
0
 49
1.27
 74
0
 49
-0.635
 74
0
 49
1.27
 74
0
 49
-0.635
 74
0
  0
LTYPE
  5
37
330
2
100
AcDbSymbolTableRecord
100
AcDbLinetypeTableRecord
  2
PHANTOM2
 70
0
  3
Phantom (.5x) ___ _ _ ___ _ _ ___ _ _ ___ _ _ ___
 72
65
 73
6
 40
3.175
 49
1.587
 74
0
 49
-0.318
 74
0
 49
0.318
 74
0
 49
-0.318
 74
0
 49
0.318
 74
0
 49
-0.318
 74
0
  0
LTYPE
  5
38
330
2
100
AcDbSymbolTableRecord
100
AcDbLinetypeTableRecord
  2
DASHDOT
 70
0
  3
Dash dot __ . __ . __ . __ . __ . __ . __ . __
 72
65
 73
4
 40
3.556
 49
2.54
 74
0
 49
-0.508
 74
0
 49
0.0
 74
0
 49
-0.508
 74
0
  0
LTYPE
  5
39
330
2
100
AcDbSymbolTableRecord
100
AcDbLinetypeTableRecord
  2
DASHDOTX2
 70
0
  3
Dash dot (2x) ____  .  ____  .  ____  .  ____
 72
65
 73
4
 40
6.096
 49
5.08
 74
0
 49
-0.508
 74
0
 49
0.0
 74
0
 49
-0.508
 74
0
  0
LTYPE
  5
3A
330
2
100
AcDbSymbolTableRecord
100
AcDbLinetypeTableRecord
  2
DASHDOT2
 70
0
  3
Dash dot (.5x) _ . _ . _ . _ . _ . _ . _ . _
 72
65
 73
4
 40
1.778
 49
1.27
 74
0
 49
-0.254
 74
0
 49
0.0
 74
0
 49
-0.254
 74
0
  0
LTYPE
  5
3B
330
2
100
AcDbSymbolTableRecord
100
AcDbLinetypeTableRecord
  2
DOT
 70
0
  3
Dot .  .  .  .  .  .  .  .  .  .  .  .  .  .  .  .
 72
65
 73
2
 40
0.508
 49
0.0
 74
0
 49
-0.508
 74
0
  0
LTYPE
  5
3C
330
2
100
AcDbSymbolTableRecord
100
AcDbLinetypeTableRecord
  2
DOTX2
 70
0
  3
Dot (2x) .    .    .    .    .    .    .    . 
 72
65
 73
2
 40
1.016
 49
0.0
 74
0
 49
-1.016
 74
0
  0
LTYPE
  5
3D
330
2
100
AcDbSymbolTableRecord
100
AcDbLinetypeTableRecord
  2
DOT2
 70
0
  3
Dot (.5) . . . . . . . . . . . . . . . . . . . 
 72
65
 73
2
 40
0.254
 49
0.0
 74
0
 49
-0.254
 74
0
  0
LTYPE
  5
3E
330
2
100
AcDbSymbolTableRecord
100
AcDbLinetypeTableRecord
  2
DIVIDE
 70
0
  3
Divide __ . . __ . . __ . . __ . . __ . . __
 72
65
 73
6
 40
4.064
 49
2.54
 74
0
 49
-0.508
 74
0
 49
0.0
 74
0
 49
-0.508
 74
0
 49
0.0
 74
0
 49
-0.508
 74
0
  0
LTYPE
  5
3F
330
2
100
AcDbSymbolTableRecord
100
AcDbLinetypeTableRecord
  2
DIVIDEX2
 70
0
  3
Divide (2x) ____  . .  ____  . .  ____  . .  ____
 72
65
 73
6
 40
6.604
 49
5.08
 74
0
 49
-0.508
 74
0
 49
0.0
 74
0
 49
-0.508
 74
0
 49
0.0
 74
0
 49
-0.508
 74
0
  0
LTYPE
  5
40
330
2
100
AcDbSymbolTableRecord
100
AcDbLinetypeTableRecord
  2
DIVIDE2
 70
0
  3
Divide(.5x) _ . _ . _ . _ . _ . _ . _ . _
 72
65
 73
6
 40
2.032
 49
1.27
 74
0
 49
-0.254
 74
0
 49
0.0
 74
0
 49
-0.254
 74
0
 49
0.0
 74
0
 49
-0.254
 74
0
  0
ENDTAB
  0
TABLE
  2
LAYER
  5
1
330
0
100
AcDbSymbolTable
 70
12
  0
LAYER
  5
27
330
1
100
AcDbSymbolTableRecord
100
AcDbLayerTableRecord
  2
0
 70
0
 62
7
  6
Continuous
370
-3
390
13
347
21
  0
LAYER
  5
28
330
1
100
AcDbSymbolTableRecord
100
AcDbLayerTableRecord
  2
Defpoints
 70
0
 62
7
  6
Continuous
290
0
370
-3
390
13
347
21
  0
LAYER
  5
8A
330
1
100
AcDbSymbolTableRecord
100
AcDbLayerTableRecord
  2
A-CUT
 70
0
 62
7
  6
Continuous
370
50
390
13
347
21
  0
LAYER
  5
8B
330
1
100
AcDbSymbolTableRecord
100
AcDbLayerTableRecord
  2
A-MAIN
 70
0
 62
7
  6
Continuous
370
35
390
13
347
21
  0
LAYER
  5
8C
330
1
100
AcDbSymbolTableRecord
100
AcDbLayerTableRecord
  2
A-THIN
 70
0
 62
8
  6
Continuous
370
18
390
13
347
21
  0
LAYER
  5
8D
330
1
100
AcDbSymbolTableRecord
100
AcDbLayerTableRecord
  2
A-HIDDEN
 70
0
 62
8
  6
DASHED
370
18
390
13
347
21
  0
LAYER
  5
8E
330
1
100
AcDbSymbolTableRecord
100
AcDbLayerTableRecord
  2
A-HATCH
 70
0
 62
8
  6
Continuous
370
9
390
13
347
21
  0
LAYER
  5
8F
330
1
100
AcDbSymbolTableRecord
100
AcDbLayerTableRecord
  2
A-TEXT
 70
0
 62
7
  6
Continuous
370
18
390
13
347
21
  0
LAYER
  5
90
330
1
100
AcDbSymbolTableRecord
100
AcDbLayerTableRecord
  2
A-DIMS
 70
0
 62
1
  6
Continuous
370
13
390
13
347
21
  0
LAYER
  5
91
330
1
100
AcDbSymbolTableRecord
100
AcDbLayerTableRecord
  2
A-FURN
 70
0
 62
9
  6
Continuous
370
13
390
13
347
21
  0
LAYER
  5
92
330
1
100
AcDbSymbolTableRecord
100
AcDbLayerTableRecord
  2
A-GRID
 70
0
 62
1
  6
Continuous
370
13
390
13
347
21
  0
LAYER
  5
93
330
1
100
AcDbSymbolTableRecord
100
AcDbLayerTableRecord
  2
A-SITE
 70
0
 62
3
  6
Continuous
370
18
390
13
347
21
  0
ENDTAB
  0
TABLE
  2
STYLE
  5
5
330
0
100
AcDbSymbolTable
 70
26
  0
STYLE
  5
29
330
5
100
AcDbSymbolTableRecord
100
AcDbTextStyleTableRecord
  2
Standard
 70
0
 40
0.0
 41
1.0
 50
0.0
 71
0
 42
2.5
  3
txt
  4

  0
STYLE
  5
41
330
5
100
AcDbSymbolTableRecord
100
AcDbTextStyleTableRecord
  2
OpenSans-Light
 70
0
 40
0.0
 41
1.0
 50
0.0
 71
0
 42
2.5
  3
OpenSans-Light.ttf
  4

  0
STYLE
  5
42
330
5
100
AcDbSymbolTableRecord
100
AcDbTextStyleTableRecord
  2
OpenSans-Light-Italic
 70
0
 40
0.0
 41
1.0
 50
0.0
 71
0
 42
2.5
  3
OpenSans-LightItalic.ttf
  4

  0
STYLE
  5
43
330
5
100
AcDbSymbolTableRecord
100
AcDbTextStyleTableRecord
  2
OpenSans
 70
0
 40
0.0
 41
1.0
 50
0.0
 71
0
 42
2.5
  3
OpenSans-Regular.ttf
  4

  0
STYLE
  5
44
330
5
100
AcDbSymbolTableRecord
100
AcDbTextStyleTableRecord
  2
OpenSans-Italic
 70
0
 40
0.0
 41
1.0
 50
0.0
 71
0
 42
2.5
  3
OpenSans-Italic.ttf
  4

  0
STYLE
  5
45
330
5
100
AcDbSymbolTableRecord
100
AcDbTextStyleTableRecord
  2
OpenSans-SemiBold
 70
0
 40
0.0
 41
1.0
 50
0.0
 71
0
 42
2.5
  3
OpenSans-SemiBold.ttf
  4

  0
STYLE
  5
46
330
5
100
AcDbSymbolTableRecord
100
AcDbTextStyleTableRecord
  2
OpenSans-SemiBoldItalic
 70
0
 40
0.0
 41
1.0
 50
0.0
 71
0
 42
2.5
  3
OpenSans-SemiBoldItalic.ttf
  4

  0
STYLE
  5
47
330
5
100
AcDbSymbolTableRecord
100
AcDbTextStyleTableRecord
  2
OpenSans-Bold
 70
0
 40
0.0
 41
1.0
 50
0.0
 71
0
 42
2.5
  3
OpenSans-Bold.ttf
  4

  0
STYLE
  5
48
330
5
100
AcDbSymbolTableRecord
100
AcDbTextStyleTableRecord
  2
OpenSans-BoldItalic
 70
0
 40
0.0
 41
1.0
 50
0.0
 71
0
 42
2.5
  3
OpenSans-BoldItalic.ttf
  4

  0
STYLE
  5
49
330
5
100
AcDbSymbolTableRecord
100
AcDbTextStyleTableRecord
  2
OpenSans-ExtraBold
 70
0
 40
0.0
 41
1.0
 50
0.0
 71
0
 42
2.5
  3
OpenSans-ExtraBold.ttf
  4

  0
STYLE
  5
4A
330
5
100
AcDbSymbolTableRecord
100
AcDbTextStyleTableRecord
  2
OpenSans-ExtraBoldItalic
 70
0
 40
0.0
 41
1.0
 50
0.0
 71
0
 42
2.5
  3
OpenSans-ExtraBoldItalic.ttf
  4

  0
STYLE
  5
4B
330
5
100
AcDbSymbolTableRecord
100
AcDbTextStyleTableRecord
  2
OpenSansCondensed-Bold
 70
0
 40
0.0
 41
1.0
 50
0.0
 71
0
 42
2.5
  3
OpenSansCondensed-Bold.ttf
  4

  0
STYLE
  5
4C
330
5
100
AcDbSymbolTableRecord
100
AcDbTextStyleTableRecord
  2
OpenSansCondensed-Light
 70
0
 40
0.0
 41
1.0
 50
0.0
 71
0
 42
2.5
  3
OpenSansCondensed-Light.ttf
  4

  0
STYLE
  5
4D
330
5
100
AcDbSymbolTableRecord
100
AcDbTextStyleTableRecord
  2
OpenSansCondensed-Italic
 70
0
 40
0.0
 41
1.0
 50
0.0
 71
0
 42
2.5
  3
OpenSansCondensed-LightItalic.ttf
  4

  0
STYLE
  5
4E
330
5
100
AcDbSymbolTableRecord
100
AcDbTextStyleTableRecord
  2
LiberationSans
 70
0
 40
0.0
 41
1.0
 50
0.0
 71
0
 42
2.5
  3
LiberationSans-Regular.ttf
  4

  0
STYLE
  5
4F
330
5
100
AcDbSymbolTableRecord
100
AcDbTextStyleTableRecord
  2
LiberationSans-Bold
 70
0
 40
0.0
 41
1.0
 50
0.0
 71
0
 42
2.5
  3
LiberationSans-Bold.ttf
  4

  0
STYLE
  5
50
330
5
100
AcDbSymbolTableRecord
100
AcDbTextStyleTableRecord
  2
LiberationSans-BoldItalic
 70
0
 40
0.0
 41
1.0
 50
0.0
 71
0
 42
2.5
  3
LiberationSans-BoldItalic.ttf
  4

  0
STYLE
  5
51
330
5
100
AcDbSymbolTableRecord
100
AcDbTextStyleTableRecord
  2
LiberationSans-Italic
 70
0
 40
0.0
 41
1.0
 50
0.0
 71
0
 42
2.5
  3
LiberationSans-Italic.ttf
  4

  0
STYLE
  5
52
330
5
100
AcDbSymbolTableRecord
100
AcDbTextStyleTableRecord
  2
LiberationSerif
 70
0
 40
0.0
 41
1.0
 50
0.0
 71
0
 42
2.5
  3
LiberationSerif-Regular.ttf
  4

  0
STYLE
  5
53
330
5
100
AcDbSymbolTableRecord
100
AcDbTextStyleTableRecord
  2
LiberationSerif-Bold
 70
0
 40
0.0
 41
1.0
 50
0.0
 71
0
 42
2.5
  3
LiberationSerif-Bold.ttf
  4

  0
STYLE
  5
54
330
5
100
AcDbSymbolTableRecord
100
AcDbTextStyleTableRecord
  2
LiberationSerif-BoldItalic
 70
0
 40
0.0
 41
1.0
 50
0.0
 71
0
 42
2.5
  3
LiberationSerif-BoldItalic.ttf
  4

  0
STYLE
  5
55
330
5
100
AcDbSymbolTableRecord
100
AcDbTextStyleTableRecord
  2
LiberationSerif-Italic
 70
0
 40
0.0
 41
1.0
 50
0.0
 71
0
 42
2.5
  3
LiberationSerif-Italic.ttf
  4

  0
STYLE
  5
56
330
5
100
AcDbSymbolTableRecord
100
AcDbTextStyleTableRecord
  2
LiberationMono
 70
0
 40
0.0
 41
1.0
 50
0.0
 71
0
 42
2.5
  3
LiberationMono-Regular.ttf
  4

  0
STYLE
  5
57
330
5
100
AcDbSymbolTableRecord
100
AcDbTextStyleTableRecord
  2
LiberationMono-Bold
 70
0
 40
0.0
 41
1.0
 50
0.0
 71
0
 42
2.5
  3
LiberationMono-Bold.ttf
  4

  0
STYLE
  5
58
330
5
100
AcDbSymbolTableRecord
100
AcDbTextStyleTableRecord
  2
LiberationMono-BoldItalic
 70
0
 40
0.0
 41
1.0
 50
0.0
 71
0
 42
2.5
  3
LiberationMono-BoldItalic.ttf
  4

  0
STYLE
  5
59
330
5
100
AcDbSymbolTableRecord
100
AcDbTextStyleTableRecord
  2
LiberationMono-Italic
 70
0
 40
0.0
 41
1.0
 50
0.0
 71
0
 42
2.5
  3
LiberationMono-Italic.ttf
  4

  0
ENDTAB
  0
TABLE
  2
VIEW
  5
7
330
0
100
AcDbSymbolTable
 70
0
  0
ENDTAB
  0
TABLE
  2
UCS
  5
6
330
0
100
AcDbSymbolTable
 70
0
  0
ENDTAB
  0
TABLE
  2
APPID
  5
3
330
0
100
AcDbSymbolTable
 70
3
  0
APPID
  5
2A
330
3
100
AcDbSymbolTableRecord
100
AcDbRegAppTableRecord
  2
ACAD
 70
0
  0
APPID
  5
27E
330
3
100
AcDbSymbolTableRecord
100
AcDbRegAppTableRecord
  2
HATCHBACKGROUNDCOLOR
 70
0
  0
APPID
  5
27F
330
3
100
AcDbSymbolTableRecord
100
AcDbRegAppTableRecord
  2
EZDXF
 70
0
  0
ENDTAB
  0
TABLE
  2
DIMSTYLE
  5
4
330
0
100
AcDbSymbolTable
 70
12
100
AcDbDimStyleTable
  0
DIMSTYLE
105
2B
330
4
100
AcDbSymbolTableRecord
100
AcDbDimStyleTableRecord
  2
Standard
 70
0
 40
1.0
 41
2.5
 42
0.625
 43
3.75
 44
1.25
 45
0.0
 46
0.0
 47
0.0
 48
0.0
 49
2.5
140
2.5
141
2.5
142
0.0
143
0.03937007874
144
1.0
145
0.0
146
1.0
147
0.625
148
0.0
 69
0
 70
0
 71
0
 72
0
 73
0
 74
0
 75
0
 76
0
 77
1
 78
8
 79
3
170
0
171
3
172
1
173
0
174
0
175
0
176
0
177
0
178
0
179
2
271
2
272
2
273
2
274
3
275
0
276
0
277
2
278
44
279
0
280
0
281
0
282
0
283
0
284
8
285
0
286
0
288
0
289
3
290
0
371
-2
372
-2
  0
DIMSTYLE
105
73
330
4
100
AcDbSymbolTableRecord
100
AcDbDimStyleTableRecord
  2
EZDXF
 70
0
 40
1.0
 41
0.175
 42
0.125
 43
3.75
 44
0.375
 45
0.0
 46
0.0
 47
0.0
 48
0.0
 49
2.5
140
0.25
141
2.5
142
0.0
143
0.03937007874
144
100.0
145
0.0
146
0.5
147
0.1
148
0.0
 69
0
 70
0
 71
0
 72
0
 73
0
 74
0
 75
0
 76
0
 77
1
 78
12
 79
3
170
0
171
3
172
1
173
0
174
0
175
0
176
0
177
0
178
0
179
2
271
2
272
2
273
2
274
3
275
0
276
0
277
2
278
46
279
2
280
0
281
0
282
0
283
0
284
8
285
0
286
0
288
1
289
3
290
0
340
4C
342
74
371
-2
372
-2
  0
DIMSTYLE
105
7C
330
4
100
AcDbSymbolTableRecord
100
AcDbDimStyleTableRecord
  2
EZ_M_100_H25_CM
 70
0
 40
1.0
 41
0.25
 42
0.125
 43
3.75
 44
0.375
 45
0.0
 46
0.0
 47
0.0
 48
0.0
 49
2.5
140
0.25
141
2.5
142
0.125
143
0.03937007874
144
100.0
145
0.0
146
0.5
147
0.1
148
0.0
 69
0
 70
0
 71
0
 72
0
 73
0
 74
0
 75
0
 76
0
 77
1
 78
12
 79
3
170
0
171
3
172
1
173
0
174
0
175
0
176
0
177
0
178
0
179
2
271
2
272
2
273
2
274
3
275
0
276
0
277
2
278
46
279
2
280
0
281
0
282
0
283
0
284
8
285
0
286
0
288
1
289
3
290
0
340
4C
371
-2
372
-2
  0
DIMSTYLE
105
7D
330
4
100
AcDbSymbolTableRecord
100
AcDbDimStyleTableRecord
  2
EZ_M_50_H25_CM
 70
0
 40
1.0
 41
0.125
 42
0.0625
 43
3.75
 44
0.1875
 45
0.0
 46
0.0
 47
0.0
 48
0.0
 49
2.5
140
0.125
141
2.5
142
0.0625
143
0.03937007874
144
100.0
145
0.0
146
0.5
147
0.05
148
0.0
 69
0
 70
0
 71
0
 72
0
 73
0
 74
0
 75
0
 76
0
 77
1
 78
12
 79
3
170
0
171
3
172
1
173
0
174
0
175
0
176
0
177
0
178
0
179
2
271
2
272
2
273
2
274
3
275
0
276
0
277
2
278
46
279
2
280
0
281
0
282
0
283
0
284
8
285
0
286
0
288
1
289
3
290
0
340
4C
371
-2
372
-2
  0
DIMSTYLE
105
7E
330
4
100
AcDbSymbolTableRecord
100
AcDbDimStyleTableRecord
  2
EZ_M_25_H25_CM
 70
0
 40
1.0
 41
0.0625
 42
0.03125
 43
3.75
 44
0.09375
 45
0.0
 46
0.0
 47
0.0
 48
0.0
 49
2.5
140
0.0625
141
2.5
142
0.03125
143
0.03937007874
144
100.0
145
0.0
146
0.5
147
0.025
148
0.0
 69
0
 70
0
 71
0
 72
0
 73
0
 74
0
 75
0
 76
0
 77
1
 78
12
 79
3
170
0
171
3
172
1
173
0
174
0
175
0
176
0
177
0
178
0
179
2
271
2
272
2
273
2
274
3
275
0
276
0
277
2
278
46
279
2
280
0
281
0
282
0
283
0
284
8
285
0
286
0
288
1
289
3
290
0
340
4C
371
-2
372
-2
  0
DIMSTYLE
105
7F
330
4
100
AcDbSymbolTableRecord
100
AcDbDimStyleTableRecord
  2
EZ_M_20_H25_CM
 70
0
 40
1.0
 41
0.05
 42
0.025
 43
3.75
 44
0.07500000000000001
 45
0.0
 46
0.0
 47
0.0
 48
0.0
 49
2.5
140
0.05
141
2.5
142
0.025
143
0.03937007874
144
100.0
145
0.0
146
0.5
147
0.020000000000000004
148
0.0
 69
0
 70
0
 71
0
 72
0
 73
0
 74
0
 75
0
 76
0
 77
1
 78
12
 79
3
170
0
171
3
172
1
173
0
174
0
175
0
176
0
177
0
178
0
179
2
271
2
272
2
273
2
274
3
275
0
276
0
277
2
278
46
279
2
280
0
281
0
282
0
283
0
284
8
285
0
286
0
288
1
289
3
290
0
340
4C
371
-2
372
-2
  0
DIMSTYLE
105
80
330
4
100
AcDbSymbolTableRecord
100
AcDbDimStyleTableRecord
  2
EZ_M_10_H25_CM
 70
0
 40
1.0
 41
0.025
 42
0.0125
 43
3.75
 44
0.037500000000000006
 45
0.0
 46
0.0
 47
0.0
 48
0.0
 49
2.5
140
0.025
141
2.5
142
0.0125
143
0.03937007874
144
100.0
145
0.0
146
0.5
147
0.010000000000000002
148
0.0
 69
0
 70
0
 71
0
 72
0
 73
0
 74
0
 75
0
 76
0
 77
1
 78
12
 79
3
170
0
171
3
172
1
173
0
174
0
175
0
176
0
177
0
178
0
179
2
271
2
272
2
273
2
274
3
275
0
276
0
277
2
278
46
279
2
280
0
281
0
282
0
283
0
284
8
285
0
286
0
288
1
289
3
290
0
340
4C
371
-2
372
-2
  0
DIMSTYLE
105
81
330
4
100
AcDbSymbolTableRecord
100
AcDbDimStyleTableRecord
  2
EZ_M_5_H25_CM
 70
0
 40
1.0
 41
0.0125
 42
0.00625
 43
3.75
 44
0.018750000000000003
 45
0.0
 46
0.0
 47
0.0
 48
0.0
 49
2.5
140
0.0125
141
2.5
142
0.00625
143
0.03937007874
144
100.0
145
0.0
146
0.5
147
0.005000000000000001
148
0.0
 69
0
 70
0
 71
0
 72
0
 73
0
 74
0
 75
0
 76
0
 77
1
 78
12
 79
3
170
0
171
3
172
1
173
0
174
0
175
0
176
0
177
0
178
0
179
2
271
2
272
2
273
2
274
3
275
0
276
0
277
2
278
46
279
2
280
0
281
0
282
0
283
0
284
8
285
0
286
0
288
1
289
3
290
0
340
4C
371
-2
372
-2
  0
DIMSTYLE
105
82
330
4
100
AcDbSymbolTableRecord
100
AcDbDimStyleTableRecord
  2
EZ_M_1_H25_CM
 70
0
 40
1.0
 41
0.0025
 42
0.00125
 43
3.75
 44
0.00375
 45
0.0
 46
0.0
 47
0.0
 48
0.0
 49
2.5
140
0.0025
141
2.5
142
0.00125
143
0.03937007874
144
100.0
145
0.0
146
0.5
147
0.001
148
0.0
 69
0
 70
0
 71
0
 72
0
 73
0
 74
0
 75
0
 76
0
 77
1
 78
12
 79
3
170
0
171
3
172
1
173
0
174
0
175
0
176
0
177
0
178
0
179
2
271
2
272
2
273
2
274
3
275
0
276
0
277
2
278
46
279
2
280
0
281
0
282
0
283
0
284
8
285
0
286
0
288
1
289
3
290
0
340
4C
371
-2
372
-2
  0
DIMSTYLE
105
83
330
4
100
AcDbSymbolTableRecord
100
AcDbDimStyleTableRecord
  2
EZ_RADIUS
 70
0
 40
1.0
 41
0.25
 42
0.125
 43
3.75
 44
0.375
 45
0.0
 46
0.0
 47
0.0
 48
0.0
 49
2.5
140
0.25
141
0.0
142
0.0
143
0.03937007874
144
100.0
145
0.0
146
0.5
147
0.1
148
0.0
 69
0
 70
0
 71
0
 72
0
 73
0
 74
0
 75
0
 76
0
 77
1
 78
12
 79
3
170
0
171
3
172
0
173
0
174
0
175
0
176
0
177
0
178
0
179
2
271
2
272
2
273
2
274
3
275
0
276
0
277
2
278
46
279
1
280
0
281
0
282
0
283
0
284
8
285
0
286
0
288
1
289
3
290
0
340
4C
342
84
371
-2
372
-2
  0
DIMSTYLE
105
88
330
4
100
AcDbSymbolTableRecord
100
AcDbDimStyleTableRecord
  2
EZ_RADIUS_INSIDE
 70
0
 40
1.0
 41
0.25
 42
0.125
 43
3.75
 44
0.375
 45
0.0
 46
0.0
 47
0.0
 48
0.0
 49
2.5
140
0.25
141
0.0
142
0.0
143
0.03937007874
144
100.0
145
0.0
146
0.5
147
0.1
148
0.0
 69
0
 70
0
 71
0
 72
0
 73
0
 74
0
 75
0
 76
0
 77
0
 78
12
 79
3
170
0
171
3
172
0
173
0
174
1
175
0
176
0
177
0
178
0
179
2
271
2
272
2
273
2
274
3
275
0
276
0
277
2
278
46
279
0
280
0
281
0
282
0
283
0
284
8
285
0
286
0
288
1
289
0
290
0
340
4C
342
84
371
-2
372
-2
  0
DIMSTYLE
105
89
330
4
100
AcDbSymbolTableRecord
100
AcDbDimStyleTableRecord
  2
EZ_CURVED
 70
0
 40
1.0
 41
0.25
 42
0.125
 43
3.75
 44
0.375
 45
0.0
 46
0.0
 47
0.0
 48
0.0
 49
2.5
140
0.25
141
2.5
142
0.0
143
0.03937007874
144
100.0
145
0.0
146
0.5
147
0.1
148
0.0
 69
0
 70
0
 71
0
 72
0
 73
0
 74
0
 75
0
 76
0
 77
1
 78
12
 79
2
 90
2
170
0
171
3
172
1
173
0
174
0
175
0
176
0
177
0
178
0
179
2
271
2
272
2
273
2
274
3
275
0
276
0
277
2
278
46
279
2
280
0
281
0
282
0
283
0
284
8
285
0
286
0
288
1
289
3
290
0
340
4C
371
-2
372
-2
  0
ENDTAB
  0
TABLE
  2
BLOCK_RECORD
  5
9
330
0
100
AcDbSymbolTable
 70
5
  0
BLOCK_RECORD
  5
17
330
9
100
AcDbSymbolTableRecord
100
AcDbBlockTableRecord
  2
*Model_Space
340
1A
 70
0
280
1
281
0
  0
BLOCK_RECORD
  5
1B
330
9
100
AcDbSymbolTableRecord
100
AcDbBlockTableRecord
  2
*Paper_Space
340
1E
 70
0
280
1
281
0
  0
BLOCK_RECORD
  5
74
330
9
100
AcDbSymbolTableRecord
100
AcDbBlockTableRecord
  2
_ARCHTICK
340
0
 70
0
280
1
281
0
  0
BLOCK_RECORD
  5
78
330
9
100
AcDbSymbolTableRecord
100
AcDbBlockTableRecord
  2
_CLOSEDFILLED
340
0
 70
0
280
1
281
0
  0
BLOCK_RECORD
  5
84
330
9
100
AcDbSymbolTableRecord
100
AcDbBlockTableRecord
  2
_CLOSEDBLANK
340
0
 70
0
280
1
281
0
  0
ENDTAB
  0
ENDSEC
  0
SECTION
  2
BLOCKS
  0
BLOCK
  5
18
330
17
100
AcDbEntity
  8
0
100
AcDbBlockBegin
  2
*Model_Space
 70
0
 10
0.0
 20
0.0
 30
0.0
  3
*Model_Space
  1

  0
ENDBLK
  5
19
330
17
100
AcDbEntity
  8
0
100
AcDbBlockEnd
  0
BLOCK
  5
1C
330
1B
100
AcDbEntity
  8
0
100
AcDbBlockBegin
  2
*Paper_Space
 70
0
 10
0.0
 20
0.0
 30
0.0
  3
*Paper_Space
  1

  0
ENDBLK
  5
1D
330
1B
100
AcDbEntity
  8
0
100
AcDbBlockEnd
  0
BLOCK
  5
75
330
74
100
AcDbEntity
  8
0
100
AcDbBlockBegin
  2
_ARCHTICK
 70
0
 10
0.0
 20
0.0
 30
0.0
  3
_ARCHTICK
  1

  0
LWPOLYLINE
  5
77
330
74
100
AcDbEntity
  8
0
  6
BYBLOCK
 62
0
100
AcDbPolyline
 90
2
 70
0
 43
0.15
 10
-0.5
 20
-0.5
 10
0.5
 20
0.5
  0
ENDBLK
  5
76
330
74
100
AcDbEntity
  8
0
100
AcDbBlockEnd
  0
BLOCK
  5
79
330
78
100
AcDbEntity
  8
0
100
AcDbBlockBegin
  2
_CLOSEDFILLED
 70
0
 10
0.0
 20
0.0
 30
0.0
  3
_CLOSEDFILLED
  1

  0
SOLID
  5
7B
330
78
100
AcDbEntity
  8
0
  6
BYBLOCK
 62
0
100
AcDbTrace
 10
-1.0
 20
0.16439898372402537
 30
0.0
 11
0.0
 21
0.0
 31
0.0
 12
-1.0
 22
-0.16439898372402537
 32
0.0
 13
-1.0
 23
-0.16439898372402537
 33
0.0
  0
ENDBLK
  5
7A
330
78
100
AcDbEntity
  8
0
100
AcDbBlockEnd
  0
BLOCK
  5
85
330
84
100
AcDbEntity
  8
0
100
AcDbBlockBegin
  2
_CLOSEDBLANK
 70
0
 10
0.0
 20
0.0
 30
0.0
  3
_CLOSEDBLANK
  1

  0
LWPOLYLINE
  5
87
330
84
100
AcDbEntity
  8
0
  6
BYBLOCK
 62
0
100
AcDbPolyline
 90
3
 70
1
 10
-1.0
 20
0.16439898372402537
 10
0.0
 20
0.0
 10
-1.0
 20
-0.16439898372402537
  0
ENDBLK
  5
86
330
84
100
AcDbEntity
  8
0
100
AcDbBlockEnd
  0
ENDSEC
  0
SECTION
  2
ENTITIES
  0
HATCH
  5
94
330
17
100
AcDbEntity
  8
A-HATCH
 62
7
100
AcDbHatch
 10
0.0
 20
0.0
 30
0.0
210
0.0
220
0.0
230
1.0
  2
LINE
 70
0
 71
0
 91
1
 92
3
 72
0
 73
1
 93
4
 10
13.0
 20
21.2
 10
24.8
 20
21.2
 10
24.8
 20
25.0
 10
13.0
 20
25.0
 97
0
 75
1
 76
1
 52
0.0
 41
0.15
 77
0
 78
1
 53
0.0
 43
0.0
 44
0.0
 45
0.0
 46
0.47625
 79
0
 98
0
  0
LWPOLYLINE
  5
95
330
17
100
AcDbEntity
  8
A-THIN
100
AcDbPolyline
 90
4
 70
1
 10
13.0
 20
21.2
 10
24.8
 20
21.2
 10
24.8
 20
25.0
 10
13.0
 20
25.0
  0
HATCH
  5
96
330
17
100
AcDbEntity
  8
A-HATCH
 62
7
100
AcDbHatch
 10
0.0
 20
0.0
 30
0.0
210
0.0
220
0.0
230
1.0
  2
GRASS
 70
0
 71
0
 91
1
 92
3
 72
0
 73
1
 93
4
 10
13.05
 20
21.2
 10
24.8
 20
21.2
 10
24.8
 20
21.8
 10
13.05
 20
21.8
 97
0
 75
1
 76
1
 52
0.0
 41
0.3
 77
0
 78
3
 53
90.0
 43
0.0
 44
0.0
 45
-5.388153672
 46
5.388153672
 79
2
 49
1.42875
 49
-9.347557344
 53
45.0
 43
0.0
 44
0.0
 45
-5.3881536726
 46
5.3881536726
 79
2
 49
1.42875
 49
-6.19125
 53
135.0
 43
0.0
 44
0.0
 45
-5.3881536726
 46
-5.3881536726
 79
2
 49
1.42875
 49
-6.19125
 98
0
  0
LWPOLYLINE
  5
97
330
17
100
AcDbEntity
  8
A-THIN
100
AcDbPolyline
 90
4
 70
1
 10
13.05
 20
21.2
 10
24.8
 20
21.2
 10
24.8
 20
21.8
 10
13.05
 20
21.8
  0
HATCH
  5
98
330
17
100
AcDbEntity
  8
A-HATCH
 62
7
100
AcDbHatch
 10
0.0
 20
0.0
 30
0.0
210
0.0
220
0.0
230
1.0
  2
LINE
 70
0
 71
0
 91
1
 92
3
 72
0
 73
1
 93
4
 10
6.3
 20
16.3
 10
12.7
 20
16.3
 10
12.7
 20
17.5
 10
6.3
 20
17.5
 97
0
 75
1
 76
1
 52
0.0
 41
0.15
 77
0
 78
1
 53
0.0
 43
0.0
 44
0.0
 45
0.0
 46
0.47625
 79
0
 98
0
  0
LWPOLYLINE
  5
99
330
17
100
AcDbEntity
  8
A-THIN
100
AcDbPolyline
 90
4
 70
1
 10
6.3
 20
16.3
 10
12.7
 20
16.3
 10
12.7
 20
17.5
 10
6.3
 20
17.5
  0
LWPOLYLINE
  5
9A
330
17
100
AcDbEntity
  8
A-FURN
100
AcDbPolyline
 90
4
 70
1
 10
8.5
 20
19.4
 10
10.5
 20
19.4
 10
10.5
 20
21.599999999999998
 10
8.5
 20
21.599999999999998
  0
LWPOLYLINE
  5
9B
330
17
100
AcDbEntity
  8
A-FURN
100
AcDbPolyline
 90
4
 70
1
 10
8.5
 20
21.52
 10
10.5
 20
21.52
 10
10.5
 20
21.599999999999998
 10
8.5
 20
21.599999999999998
  0
LWPOLYLINE
  5
9C
330
17
100
AcDbEntity
  8
A-FURN
100
AcDbPolyline
 90
28
 70
1
 10
9.4
 20
21.049999999999997
 10
9.418117333157177
 20
21.052385192159765
 10
9.435
 20
21.059378221735088
 10
9.449497474683058
 20
21.07050252531694
 10
9.46062177826491
 20
21.084999999999997
 10
9.467614807840235
 20
21.101882666842823
 10
9.47
 20
21.119999999999997
 10
9.47
 20
21.38
 10
9.467614807840235
 20
21.398117333157174
 10
9.46062177826491
 20
21.415
 10
9.449497474683058
 20
21.429497474683057
 10
9.435
 20
21.44062177826491
 10
9.418117333157177
 20
21.447614807840232
 10
9.4
 20
21.45
 10
8.75
 20
21.45
 10
8.731882666842823
 20
21.447614807840232
 10
8.715
 20
21.44062177826491
 10
8.700502525316942
 20
21.429497474683057
 10
8.689378221735089
 20
21.415
 10
8.682385192159765
 20
21.398117333157174
 10
8.68
 20
21.38
 10
8.68
 20
21.119999999999997
 10
8.682385192159765
 20
21.101882666842823
 10
8.689378221735089
 20
21.084999999999997
 10
8.700502525316942
 20
21.07050252531694
 10
8.715
 20
21.059378221735088
 10
8.731882666842823
 20
21.052385192159765
 10
8.75
 20
21.049999999999997
  0
LWPOLYLINE
  5
9D
330
17
100
AcDbEntity
  8
A-FURN
100
AcDbPolyline
 90
28
 70
1
 10
10.25
 20
21.049999999999997
 10
10.268117333157177
 20
21.052385192159765
 10
10.285
 20
21.059378221735088
 10
10.299497474683058
 20
21.07050252531694
 10
10.31062177826491
 20
21.084999999999997
 10
10.317614807840235
 20
21.101882666842823
 10
10.32
 20
21.119999999999997
 10
10.32
 20
21.38
 10
10.317614807840235
 20
21.398117333157174
 10
10.31062177826491
 20
21.415
 10
10.299497474683058
 20
21.429497474683057
 10
10.285
 20
21.44062177826491
 10
10.268117333157177
 20
21.447614807840232
 10
10.25
 20
21.45
 10
9.6
 20
21.45
 10
9.581882666842823
 20
21.447614807840232
 10
9.565
 20
21.44062177826491
 10
9.550502525316942
 20
21.429497474683057
 10
9.53937822173509
 20
21.415
 10
9.532385192159765
 20
21.398117333157174
 10
9.53
 20
21.38
 10
9.53
 20
21.119999999999997
 10
9.532385192159765
 20
21.101882666842823
 10
9.53937822173509
 20
21.084999999999997
 10
9.550502525316942
 20
21.07050252531694
 10
9.565
 20
21.059378221735088
 10
9.581882666842823
 20
21.052385192159765
 10
9.6
 20
21.049999999999997
  0
LWPOLYLINE
  5
9E
330
17
100
AcDbEntity
  8
A-FURN
100
AcDbPolyline
 90
2
 70
0
 10
8.5
 20
20.764
 10
10.5
 20
20.764
  0
LWPOLYLINE
  5
9F
330
17
100
AcDbEntity
  8
A-FURN
100
AcDbPolyline
 90
3
 70
0
 10
8.5
 20
20.764
 10
9.0
 20
20.5
 10
10.5
 20
20.764
  0
LWPOLYLINE
  5
A0
330
17
100
AcDbEntity
  8
A-FURN
100
AcDbPolyline
 90
28
 70
1
 10
8.4
 20
21.51
 10
8.398637033051562
 20
21.5203527618041
 10
8.394641016151377
 20
21.53
 10
8.388284271247462
 20
21.538284271247463
 10
8.38
 20
21.544641016151377
 10
8.370352761804101
 20
21.548637033051563
 10
8.360000000000001
 20
21.55
 10
7.94
 20
21.55
 10
7.9296472381959
 20
21.548637033051563
 10
7.92
 20
21.544641016151377
 10
7.911715728752538
 20
21.538284271247463
 10
7.905358983848623
 20
21.53
 10
7.9013629669484375
 20
21.5203527618041
 10
7.9
 20
21.51
 10
7.9
 20
21.09
 10
7.9013629669484375
 20
21.0796472381959
 10
7.905358983848623
 20
21.07
 10
7.911715728752538
 20
21.06171572875254
 10
7.92
 20
21.055358983848624
 10
7.9296472381959
 20
21.05136296694844
 10
7.94
 20
21.05
 10
8.360000000000001
 20
21.05
 10
8.370352761804101
 20
21.05136296694844
 10
8.38
 20
21.055358983848624
 10
8.388284271247462
 20
21.06171572875254
 10
8.394641016151377
 20
21.07
 10
8.398637033051562
 20
21.0796472381959
 10
8.4
 20
21.09
  0
LWPOLYLINE
  5
A1
330
17
100
AcDbEntity
  8
A-FURN
100
AcDbPolyline
 90
24
 70
1
 10
8.15
 20
21.425
 10
8.117647619362184
 20
21.420740728286134
 10
8.0875
 20
21.408253175473057
 10
8.061611652351681
 20
21.38838834764832
 10
8.041746824526946
 20
21.3625
 10
8.029259271713867
 20
21.332352380637815
 10
8.025
 20
21.3
 10
8.029259271713867
 20
21.267647619362187
 10
8.041746824526946
 20
21.2375
 10
8.061611652351681
 20
21.21161165235168
 10
8.0875
 20
21.191746824526945
 10
8.117647619362184
 20
21.179259271713867
 10
8.15
 20
21.175
 10
8.182352380637816
 20
21.179259271713867
 10
8.2125
 20
21.191746824526945
 10
8.23838834764832
 20
21.21161165235168
 10
8.258253175473055
 20
21.2375
 10
8.270740728286134
 20
21.267647619362187
 10
8.275
 20
21.3
 10
8.270740728286134
 20
21.332352380637815
 10
8.258253175473055
 20
21.3625
 10
8.23838834764832
 20
21.38838834764832
 10
8.2125
 20
21.408253175473057
 10
8.182352380637816
 20
21.420740728286134
  0
LWPOLYLINE
  5
A2
330
17
100
AcDbEntity
  8
A-FURN
100
AcDbPolyline
 90
28
 70
1
 10
11.1
 20
21.51
 10
11.098637033051562
 20
21.5203527618041
 10
11.094641016151376
 20
21.53
 10
11.088284271247462
 20
21.538284271247463
 10
11.08
 20
21.544641016151377
 10
11.0703527618041
 20
21.548637033051563
 10
11.06
 20
21.55
 10
10.639999999999999
 20
21.55
 10
10.629647238195899
 20
21.548637033051563
 10
10.62
 20
21.544641016151377
 10
10.611715728752538
 20
21.538284271247463
 10
10.605358983848623
 20
21.53
 10
10.601362966948438
 20
21.5203527618041
 10
10.6
 20
21.51
 10
10.6
 20
21.09
 10
10.601362966948438
 20
21.0796472381959
 10
10.605358983848623
 20
21.07
 10
10.611715728752538
 20
21.06171572875254
 10
10.62
 20
21.055358983848624
 10
10.629647238195899
 20
21.05136296694844
 10
10.639999999999999
 20
21.05
 10
11.06
 20
21.05
 10
11.0703527618041
 20
21.05136296694844
 10
11.08
 20
21.055358983848624
 10
11.088284271247462
 20
21.06171572875254
 10
11.094641016151376
 20
21.07
 10
11.098637033051562
 20
21.0796472381959
 10
11.1
 20
21.09
  0
LWPOLYLINE
  5
A3
330
17
100
AcDbEntity
  8
A-FURN
100
AcDbPolyline
 90
24
 70
1
 10
10.85
 20
21.425
 10
10.817647619362184
 20
21.420740728286134
 10
10.7875
 20
21.408253175473057
 10
10.76161165235168
 20
21.38838834764832
 10
10.741746824526945
 20
21.3625
 10
10.729259271713866
 20
21.332352380637815
 10
10.725
 20
21.3
 10
10.729259271713866
 20
21.267647619362187
 10
10.741746824526945
 20
21.2375
 10
10.76161165235168
 20
21.21161165235168
 10
10.7875
 20
21.191746824526945
 10
10.817647619362184
 20
21.179259271713867
 10
10.85
 20
21.175
 10
10.882352380637816
 20
21.179259271713867
 10
10.9125
 20
21.191746824526945
 10
10.938388347648319
 20
21.21161165235168
 10
10.958253175473054
 20
21.2375
 10
10.970740728286133
 20
21.267647619362187
 10
10.975
 20
21.3
 10
10.970740728286133
 20
21.332352380637815
 10
10.958253175473054
 20
21.3625
 10
10.938388347648319
 20
21.38838834764832
 10
10.9125
 20
21.408253175473057
 10
10.882352380637816
 20
21.420740728286134
  0
LWPOLYLINE
  5
A4
330
17
100
AcDbEntity
  8
A-FURN
100
AcDbPolyline
 90
28
 70
1
 10
11.4
 20
18.08
 10
11.402725933896875
 20
18.0592944763918
 10
11.410717967697245
 20
18.04
 10
11.423431457505076
 20
18.023431457505076
 10
11.44
 20
18.010717967697243
 10
11.459294476391799
 20
18.002725933896873
 10
11.48
 20
18.0
 10
12.22
 20
18.0
 10
12.240705523608202
 20
18.002725933896873
 10
12.26
 20
18.010717967697243
 10
12.276568542494925
 20
18.023431457505076
 10
12.289282032302756
 20
18.04
 10
12.297274066103126
 20
18.0592944763918
 10
12.3
 20
18.08
 10
12.3
 20
18.82
 10
12.297274066103126
 20
18.8407055236082
 10
12.289282032302756
 20
18.86
 10
12.276568542494925
 20
18.876568542494923
 10
12.26
 20
18.889282032302752
 10
12.240705523608202
 20
18.897274066103122
 10
12.22
 20
18.9
 10
11.48
 20
18.9
 10
11.459294476391799
 20
18.897274066103122
 10
11.44
 20
18.889282032302752
 10
11.423431457505076
 20
18.876568542494923
 10
11.410717967697245
 20
18.86
 10
11.402725933896875
 20
18.8407055236082
 10
11.4
 20
18.82
  0
LWPOLYLINE
  5
A5
330
17
100
AcDbEntity
  8
A-FURN
100
AcDbPolyline
 90
4
 70
1
 10
12.1
 20
18.779999999999998
 10
12.1
 20
18.119999999999997
 10
12.3
 20
18.119999999999997
 10
12.3
 20
18.779999999999998
  0
LWPOLYLINE
  5
A6
330
17
100
AcDbEntity
  8
A-FURN
100
AcDbPolyline
 90
4
 70
1
 10
11.450000000000001
 20
18.9
 10
11.450000000000001
 20
18.779999999999998
 10
12.3
 20
18.779999999999998
 10
12.3
 20
18.9
  0
LWPOLYLINE
  5
A7
330
17
100
AcDbEntity
  8
A-FURN
100
AcDbPolyline
 90
4
 70
1
 10
11.450000000000001
 20
18.119999999999997
 10
11.450000000000001
 20
18.0
 10
12.3
 20
18.0
 10
12.3
 20
18.119999999999997
  0
LWPOLYLINE
  5
A8
330
17
100
AcDbEntity
  8
A-FURN
100
AcDbPolyline
 90
28
 70
1
 10
7.25
 20
23.68
 10
7.2459110991546885
 20
23.711058285412303
 10
7.233923048454133
 20
23.740000000000002
 10
7.214852813742386
 20
23.764852813742387
 10
7.19
 20
23.783923048454135
 10
7.161058285412302
 20
23.795911099154686
 10
7.13
 20
23.8
 10
6.57
 20
23.8
 10
6.538941714587698
 20
23.795911099154686
 10
6.51
 20
23.783923048454135
 10
6.485147186257614
 20
23.764852813742387
 10
6.466076951545867
 20
23.740000000000002
 10
6.454088900845312
 20
23.711058285412303
 10
6.45
 20
23.68
 10
6.45
 20
22.12
 10
6.454088900845312
 20
22.088941714587698
 10
6.466076951545867
 20
22.06
 10
6.485147186257614
 20
22.035147186257614
 10
6.51
 20
22.016076951545866
 10
6.538941714587698
 20
22.00408890084531
 10
6.57
 20
22.0
 10
7.13
 20
22.0
 10
7.161058285412302
 20
22.00408890084531
 10
7.19
 20
22.016076951545866
 10
7.214852813742386
 20
22.035147186257614
 10
7.233923048454133
 20
22.06
 10
7.2459110991546885
 20
22.088941714587698
 10
7.25
 20
22.12
  0
LWPOLYLINE
  5
A9
330
17
100
AcDbEntity
  8
A-FURN
100
AcDbPolyline
 90
28
 70
1
 10
7.18
 20
23.48
 10
7.171481456572267
 20
23.54470476127563
 10
7.14650635094611
 20
23.605
 10
7.106776695296637
 20
23.656776695296635
 10
7.055
 20
23.69650635094611
 10
6.994704761275631
 20
23.721481456572267
 10
6.93
 20
23.73
 10
6.77
 20
23.73
 10
6.70529523872437
 20
23.721481456572267
 10
6.645
 20
23.69650635094611
 10
6.593223304703363
 20
23.656776695296635
 10
6.55349364905389
 20
23.605
 10
6.528518543427733
 20
23.54470476127563
 10
6.52
 20
23.48
 10
6.52
 20
22.32
 10
6.528518543427733
 20
22.25529523872437
 10
6.55349364905389
 20
22.195
 10
6.593223304703363
 20
22.143223304703362
 10
6.645
 20
22.103493649053892
 10
6.70529523872437
 20
22.078518543427734
 10
6.77
 20
22.07
 10
6.93
 20
22.07
 10
6.994704761275631
 20
22.078518543427734
 10
7.055
 20
22.103493649053892
 10
7.106776695296637
 20
22.143223304703362
 10
7.14650635094611
 20
22.195
 10
7.171481456572267
 20
22.25529523872437
 10
7.18
 20
22.32
  0
LWPOLYLINE
  5
AA
330
17
100
AcDbEntity
  8
A-FURN
100
AcDbPolyline
 90
24
 70
1
 10
6.7
 20
22.93
 10
6.692235428646924
 20
22.92897777478867
 10
6.685
 20
22.925980762113532
 10
6.678786796564403
 20
22.921213203435595
 10
6.6740192378864664
 20
22.915
 10
6.671022225211328
 20
22.907764571353077
 10
6.67
 20
22.9
 10
6.671022225211328
 20
22.892235428646924
 10
6.6740192378864664
 20
22.885
 10
6.678786796564403
 20
22.878786796564405
 10
6.685
 20
22.87401923788647
 10
6.692235428646924
 20
22.871022225211327
 10
6.7
 20
22.87
 10
6.707764571353076
 20
22.871022225211327
 10
6.715
 20
22.87401923788647
 10
6.721213203435596
 20
22.878786796564405
 10
6.725980762113533
 20
22.885
 10
6.728977774788672
 20
22.892235428646924
 10
6.73
 20
22.9
 10
6.728977774788672
 20
22.907764571353077
 10
6.725980762113533
 20
22.915
 10
6.721213203435596
 20
22.921213203435595
 10
6.715
 20
22.925980762113532
 10
6.707764571353076
 20
22.92897777478867
  0
LWPOLYLINE
  5
AB
330
17
100
AcDbEntity
  8
A-FURN
100
AcDbPolyline
 90
4
 70
1
 10
8.95
 20
24.05
 10
8.95
 20
21.85
 10
9.5
 20
21.85
 10
9.5
 20
24.05
  0
LWPOLYLINE
  5
AC
330
17
100
AcDbEntity
  8
A-FURN
100
AcDbPolyline
 90
24
 70
1
 10
9.1975
 20
23.25
 10
9.237358132945788
 20
23.258518543427734
 10
9.2745
 20
23.28349364905389
 10
9.306394444302727
 20
23.323223304703365
 10
9.330867912182804
 20
23.375
 10
9.346252577248515
 20
23.435295238724372
 10
9.3515
 20
23.5
 10
9.346252577248515
 20
23.56470476127563
 10
9.330867912182804
 20
23.625
 10
9.306394444302727
 20
23.67677669529664
 10
9.2745
 20
23.716506350946112
 10
9.237358132945788
 20
23.741481456572266
 10
9.1975
 20
23.75
 10
9.157641867054211
 20
23.741481456572266
 10
9.1205
 20
23.716506350946112
 10
9.08860555569727
 20
23.67677669529664
 10
9.064132087817196
 20
23.625
 10
9.048747422751482
 20
23.56470476127563
 10
9.0435
 20
23.5
 10
9.048747422751482
 20
23.435295238724372
 10
9.064132087817196
 20
23.375
 10
9.08860555569727
 20
23.323223304703365
 10
9.1205
 20
23.28349364905389
 10
9.157641867054211
 20
23.258518543427734
  0
LWPOLYLINE
  5
AD
330
17
100
AcDbEntity
  8
A-FURN
100
AcDbPolyline
 90
24
 70
1
 10
9.1975
 20
22.150000000000002
 10
9.237358132945788
 20
22.158518543427732
 10
9.2745
 20
22.18349364905389
 10
9.306394444302727
 20
22.223223304703364
 10
9.330867912182804
 20
22.275000000000002
 10
9.346252577248515
 20
22.33529523872437
 10
9.3515
 20
22.400000000000002
 10
9.346252577248515
 20
22.46470476127563
 10
9.330867912182804
 20
22.525000000000002
 10
9.306394444302727
 20
22.576776695296637
 10
9.2745
 20
22.61650635094611
 10
9.237358132945788
 20
22.64148145657227
 10
9.1975
 20
22.650000000000002
 10
9.157641867054211
 20
22.64148145657227
 10
9.1205
 20
22.61650635094611
 10
9.08860555569727
 20
22.576776695296637
 10
9.064132087817196
 20
22.525000000000002
 10
9.048747422751482
 20
22.46470476127563
 10
9.0435
 20
22.400000000000002
 10
9.048747422751482
 20
22.33529523872437
 10
9.064132087817196
 20
22.275000000000002
 10
9.08860555569727
 20
22.223223304703364
 10
9.1205
 20
22.18349364905389
 10
9.157641867054211
 20
22.158518543427732
  0
LWPOLYLINE
  5
AE
330
17
100
AcDbEntity
  8
A-FURN
100
AcDbPolyline
 90
4
 70
1
 10
7.85
 20
24.05
 10
7.85
 20
25.2
 10
6.35
 20
25.2
 10
6.35
 20
24.05
  0
LWPOLYLINE
  5
AF
330
17
100
AcDbEntity
  8
A-FURN
100
AcDbPolyline
 90
2
 70
0
 10
7.85
 20
24.05
 10
6.35
 20
25.2
  0
LWPOLYLINE
  5
B0
330
17
100
AcDbEntity
  8
A-FURN
100
AcDbPolyline
 90
2
 70
0
 10
7.85
 20
25.2
 10
6.35
 20
24.05
  0
LWPOLYLINE
  5
B1
330
17
100
AcDbEntity
  8
A-FURN
100
AcDbPolyline
 90
24
 70
1
 10
7.1
 20
24.675
 10
7.087059047744874
 20
24.673296291314454
 10
7.074999999999999
 20
24.66830127018922
 10
7.064644660940672
 20
24.66035533905933
 10
7.056698729810778
 20
24.650000000000002
 10
7.0517037086855465
 20
24.63794095225513
 10
7.05
 20
24.625
 10
7.0517037086855465
 20
24.612059047744875
 10
7.056698729810778
 20
24.6
 10
7.064644660940672
 20
24.589644660940674
 10
7.074999999999999
 20
24.58169872981078
 10
7.087059047744874
 20
24.576703708685546
 10
7.1
 20
24.575
 10
7.1129409522551255
 20
24.576703708685546
 10
7.125
 20
24.58169872981078
 10
7.135355339059327
 20
24.589644660940674
 10
7.143301270189221
 20
24.6
 10
7.148296291314453
 20
24.612059047744875
 10
7.1499999999999995
 20
24.625
 10
7.148296291314453
 20
24.63794095225513
 10
7.143301270189221
 20
24.650000000000002
 10
7.135355339059327
 20
24.66035533905933
 10
7.125
 20
24.66830127018922
 10
7.1129409522551255
 20
24.673296291314454
  0
LWPOLYLINE
  5
B2
330
17
100
AcDbEntity
  8
A-FURN
100
AcDbPolyline
 90
4
 70
1
 10
7.95
 20
25.060000000000002
 10
8.35
 20
25.060000000000002
 10
8.35
 20
25.240000000000002
 10
7.95
 20
25.240000000000002
  0
LWPOLYLINE
  5
B3
330
17
100
AcDbEntity
  8
A-FURN
100
AcDbPolyline
 90
24
 70
1
 10
8.33
 20
24.87
 10
8.323866648732032
 20
24.92952838037358
 10
8.3058845726812
 20
24.985
 10
8.277279220613579
 20
25.032634559672907
 10
8.24
 20
25.06918584287042
 10
8.196587428118454
 20
25.092162940046485
 10
8.15
 20
25.1
 10
8.103412571881547
 20
25.092162940046485
 10
8.06
 20
25.06918584287042
 10
8.022720779386422
 20
25.032634559672907
 10
7.9941154273188015
 20
24.985
 10
7.9761333512679675
 20
24.92952838037358
 10
7.97
 20
24.87
 10
7.9761333512679675
 20
24.81047161962642
 10
7.9941154273188015
 20
24.755
 10
8.022720779386422
 20
24.707365440327095
 10
8.06
 20
24.67081415712958
 10
8.103412571881547
 20
24.647837059953513
 10
8.15
 20
24.64
 10
8.196587428118454
 20
24.647837059953513
 10
8.24
 20
24.67081415712958
 10
8.277279220613579
 20
24.707365440327095
 10
8.3058845726812
 20
24.755
 10
8.323866648732032
 20
24.81047161962642
  0
LWPOLYLINE
  5
B4
330
17
100
AcDbEntity
  8
A-FURN
100
AcDbPolyline
 90
4
 70
1
 10
10.25
 20
21.8
 10
10.25
 20
24.0
 10
9.65
 20
24.0
 10
9.65
 20
21.8
  0
LWPOLYLINE
  5
B5
330
17
100
AcDbEntity
  8
A-FURN
100
AcDbPolyline
 90
2
 70
0
 10
9.95
 20
21.830000000000002
 10
9.95
 20
23.970000000000002
  0
LWPOLYLINE
  5
B6
330
17
100
AcDbEntity
  8
A-FURN
100
AcDbPolyline
 90
2
 70
0
 10
10.25
 20
21.8
 10
10.19
 20
21.8
  0
LWPOLYLINE
  5
B7
330
17
100
AcDbEntity
  8
A-FURN
100
AcDbPolyline
 90
2
 70
0
 10
10.25
 20
22.35
 10
10.19
 20
22.35
  0
LWPOLYLINE
  5
B8
330
17
100
AcDbEntity
  8
A-FURN
100
AcDbPolyline
 90
2
 70
0
 10
10.25
 20
22.900000000000002
 10
10.19
 20
22.900000000000002
  0
LWPOLYLINE
  5
B9
330
17
100
AcDbEntity
  8
A-FURN
100
AcDbPolyline
 90
2
 70
0
 10
10.25
 20
23.45
 10
10.19
 20
23.45
  0
LWPOLYLINE
  5
BA
330
17
100
AcDbEntity
  8
A-FURN
100
AcDbPolyline
 90
2
 70
0
 10
10.25
 20
24.0
 10
10.19
 20
24.0
  0
LWPOLYLINE
  5
BB
330
17
100
AcDbEntity
  8
A-FURN
100
AcDbPolyline
 90
2
 70
0
 10
10.07
 20
21.86
 10
9.83
 20
21.88
  0
LWPOLYLINE
  5
BC
330
17
100
AcDbEntity
  8
A-FURN
100
AcDbPolyline
 90
2
 70
0
 10
10.07
 20
21.98
 10
9.83
 20
22.0
  0
LWPOLYLINE
  5
BD
330
17
100
AcDbEntity
  8
A-FURN
100
AcDbPolyline
 90
2
 70
0
 10
10.07
 20
22.1
 10
9.83
 20
22.12
  0
LWPOLYLINE
  5
BE
330
17
100
AcDbEntity
  8
A-FURN
100
AcDbPolyline
 90
2
 70
0
 10
10.07
 20
22.220000000000002
 10
9.83
 20
22.240000000000002
  0
LWPOLYLINE
  5
BF
330
17
100
AcDbEntity
  8
A-FURN
100
AcDbPolyline
 90
2
 70
0
 10
10.07
 20
22.34
 10
9.83
 20
22.36
  0
LWPOLYLINE
  5
C0
330
17
100
AcDbEntity
  8
A-FURN
100
AcDbPolyline
 90
2
 70
0
 10
10.07
 20
22.46
 10
9.83
 20
22.48
  0
LWPOLYLINE
  5
C1
330
17
100
AcDbEntity
  8
A-FURN
100
AcDbPolyline
 90
2
 70
0
 10
10.07
 20
22.580000000000002
 10
9.83
 20
22.6
  0
LWPOLYLINE
  5
C2
330
17
100
AcDbEntity
  8
A-FURN
100
AcDbPolyline
 90
2
 70
0
 10
10.07
 20
22.7
 10
9.83
 20
22.72
  0
LWPOLYLINE
  5
C3
330
17
100
AcDbEntity
  8
A-FURN
100
AcDbPolyline
 90
2
 70
0
 10
10.07
 20
22.82
 10
9.83
 20
22.84
  0
LWPOLYLINE
  5
C4
330
17
100
AcDbEntity
  8
A-FURN
100
AcDbPolyline
 90
2
 70
0
 10
10.07
 20
22.94
 10
9.83
 20
22.96
  0
LWPOLYLINE
  5
C5
330
17
100
AcDbEntity
  8
A-FURN
100
AcDbPolyline
 90
2
 70
0
 10
10.07
 20
23.060000000000002
 10
9.83
 20
23.080000000000002
  0
LWPOLYLINE
  5
C6
330
17
100
AcDbEntity
  8
A-FURN
100
AcDbPolyline
 90
2
 70
0
 10
10.07
 20
23.18
 10
9.83
 20
23.2
  0
LWPOLYLINE
  5
C7
330
17
100
AcDbEntity
  8
A-FURN
100
AcDbPolyline
 90
2
 70
0
 10
10.07
 20
23.3
 10
9.83
 20
23.32
  0
LWPOLYLINE
  5
C8
330
17
100
AcDbEntity
  8
A-FURN
100
AcDbPolyline
 90
2
 70
0
 10
10.07
 20
23.42
 10
9.83
 20
23.44
  0
LWPOLYLINE
  5
C9
330
17
100
AcDbEntity
  8
A-FURN
100
AcDbPolyline
 90
2
 70
0
 10
10.07
 20
23.54
 10
9.83
 20
23.560000000000002
  0
LWPOLYLINE
  5
CA
330
17
100
AcDbEntity
  8
A-FURN
100
AcDbPolyline
 90
2
 70
0
 10
10.07
 20
23.66
 10
9.83
 20
23.68
  0
LWPOLYLINE
  5
CB
330
17
100
AcDbEntity
  8
A-FURN
100
AcDbPolyline
 90
2
 70
0
 10
10.07
 20
23.78
 10
9.83
 20
23.8
  0
LWPOLYLINE
  5
CC
330
17
100
AcDbEntity
  8
A-FURN
100
AcDbPolyline
 90
2
 70
0
 10
10.07
 20
23.900000000000002
 10
9.83
 20
23.92
  0
LWPOLYLINE
  5
CD
330
17
100
AcDbEntity
  8
A-FURN
100
AcDbPolyline
 90
4
 70
1
 10
12.05
 20
24.25
 10
12.05
 20
21.8
 10
12.65
 20
21.8
 10
12.65
 20
24.25
  0
LWPOLYLINE
  5
CE
330
17
100
AcDbEntity
  8
A-FURN
100
AcDbPolyline
 90
2
 70
0
 10
12.350000000000001
 20
24.22
 10
12.350000000000001
 20
21.83
  0
LWPOLYLINE
  5
CF
330
17
100
AcDbEntity
  8
A-FURN
100
AcDbPolyline
 90
2
 70
0
 10
12.05
 20
24.25
 10
12.110000000000001
 20
24.25
  0
LWPOLYLINE
  5
D0
330
17
100
AcDbEntity
  8
A-FURN
100
AcDbPolyline
 90
2
 70
0
 10
12.05
 20
23.76
 10
12.110000000000001
 20
23.76
  0
LWPOLYLINE
  5
D1
330
17
100
AcDbEntity
  8
A-FURN
100
AcDbPolyline
 90
2
 70
0
 10
12.05
 20
23.27
 10
12.110000000000001
 20
23.27
  0
LWPOLYLINE
  5
D2
330
17
100
AcDbEntity
  8
A-FURN
100
AcDbPolyline
 90
2
 70
0
 10
12.05
 20
22.78
 10
12.110000000000001
 20
22.78
  0
LWPOLYLINE
  5
D3
330
17
100
AcDbEntity
  8
A-FURN
100
AcDbPolyline
 90
2
 70
0
 10
12.05
 20
22.29
 10
12.110000000000001
 20
22.29
  0
LWPOLYLINE
  5
D4
330
17
100
AcDbEntity
  8
A-FURN
100
AcDbPolyline
 90
2
 70
0
 10
12.05
 20
21.8
 10
12.110000000000001
 20
21.8
  0
LWPOLYLINE
  5
D5
330
17
100
AcDbEntity
  8
A-FURN
100
AcDbPolyline
 90
2
 70
0
 10
12.23
 20
24.19
 10
12.47
 20
24.17
  0
LWPOLYLINE
  5
D6
330
17
100
AcDbEntity
  8
A-FURN
100
AcDbPolyline
 90
2
 70
0
 10
12.23
 20
24.07
 10
12.47
 20
24.05
  0
LWPOLYLINE
  5
D7
330
17
100
AcDbEntity
  8
A-FURN
100
AcDbPolyline
 90
2
 70
0
 10
12.23
 20
23.95
 10
12.47
 20
23.93
  0
LWPOLYLINE
  5
D8
330
17
100
AcDbEntity
  8
A-FURN
100
AcDbPolyline
 90
2
 70
0
 10
12.23
 20
23.83
 10
12.47
 20
23.81
  0
LWPOLYLINE
  5
D9
330
17
100
AcDbEntity
  8
A-FURN
100
AcDbPolyline
 90
2
 70
0
 10
12.23
 20
23.71
 10
12.47
 20
23.69
  0
LWPOLYLINE
  5
DA
330
17
100
AcDbEntity
  8
A-FURN
100
AcDbPolyline
 90
2
 70
0
 10
12.23
 20
23.59
 10
12.47
 20
23.57
  0
LWPOLYLINE
  5
DB
330
17
100
AcDbEntity
  8
A-FURN
100
AcDbPolyline
 90
2
 70
0
 10
12.23
 20
23.47
 10
12.47
 20
23.45
  0
LWPOLYLINE
  5
DC
330
17
100
AcDbEntity
  8
A-FURN
100
AcDbPolyline
 90
2
 70
0
 10
12.23
 20
23.35
 10
12.47
 20
23.33
  0
LWPOLYLINE
  5
DD
330
17
100
AcDbEntity
  8
A-FURN
100
AcDbPolyline
 90
2
 70
0
 10
12.23
 20
23.23
 10
12.47
 20
23.21
  0
LWPOLYLINE
  5
DE
330
17
100
AcDbEntity
  8
A-FURN
100
AcDbPolyline
 90
2
 70
0
 10
12.23
 20
23.11
 10
12.47
 20
23.09
  0
LWPOLYLINE
  5
DF
330
17
100
AcDbEntity
  8
A-FURN
100
AcDbPolyline
 90
2
 70
0
 10
12.23
 20
22.99
 10
12.47
 20
22.97
  0
LWPOLYLINE
  5
E0
330
17
100
AcDbEntity
  8
A-FURN
100
AcDbPolyline
 90
2
 70
0
 10
12.23
 20
22.87
 10
12.47
 20
22.85
  0
LWPOLYLINE
  5
E1
330
17
100
AcDbEntity
  8
A-FURN
100
AcDbPolyline
 90
2
 70
0
 10
12.23
 20
22.75
 10
12.47
 20
22.73
  0
LWPOLYLINE
  5
E2
330
17
100
AcDbEntity
  8
A-FURN
100
AcDbPolyline
 90
2
 70
0
 10
12.23
 20
22.63
 10
12.47
 20
22.61
  0
LWPOLYLINE
  5
E3
330
17
100
AcDbEntity
  8
A-FURN
100
AcDbPolyline
 90
2
 70
0
 10
12.23
 20
22.51
 10
12.47
 20
22.49
  0
LWPOLYLINE
  5
E4
330
17
100
AcDbEntity
  8
A-FURN
100
AcDbPolyline
 90
2
 70
0
 10
12.23
 20
22.39
 10
12.47
 20
22.37
  0
LWPOLYLINE
  5
E5
330
17
100
AcDbEntity
  8
A-FURN
100
AcDbPolyline
 90
2
 70
0
 10
12.23
 20
22.27
 10
12.47
 20
22.25
  0
LWPOLYLINE
  5
E6
330
17
100
AcDbEntity
  8
A-FURN
100
AcDbPolyline
 90
2
 70
0
 10
12.23
 20
22.15
 10
12.47
 20
22.13
  0
LWPOLYLINE
  5
E7
330
17
100
AcDbEntity
  8
A-FURN
100
AcDbPolyline
 90
2
 70
0
 10
12.23
 20
22.03
 10
12.47
 20
22.009999999999998
  0
LWPOLYLINE
  5
E8
330
17
100
AcDbEntity
  8
A-FURN
100
AcDbPolyline
 90
2
 70
0
 10
12.23
 20
21.91
 10
12.47
 20
21.89
  0
LWPOLYLINE
  5
E9
330
17
100
AcDbEntity
  8
A-FURN
100
AcDbPolyline
 90
4
 70
1
 10
7.0
 20
29.4
 10
8.2
 20
29.4
 10
8.2
 20
31.4
 10
7.0
 20
31.4
  0
LWPOLYLINE
  5
EA
330
17
100
AcDbEntity
  8
A-FURN
100
AcDbPolyline
 90
4
 70
1
 10
7.0
 20
31.32
 10
8.2
 20
31.32
 10
8.2
 20
31.4
 10
7.0
 20
31.4
  0
LWPOLYLINE
  5
EB
330
17
100
AcDbEntity
  8
A-FURN
100
AcDbPolyline
 90
28
 70
1
 10
7.949999999999999
 20
30.849999999999998
 10
7.968117333157176
 20
30.852385192159765
 10
7.984999999999999
 20
30.85937822173509
 10
7.999497474683058
 20
30.87050252531694
 10
8.01062177826491
 20
30.884999999999998
 10
8.017614807840234
 20
30.901882666842823
 10
8.02
 20
30.919999999999998
 10
8.02
 20
31.18
 10
8.017614807840234
 20
31.198117333157175
 10
8.01062177826491
 20
31.215
 10
7.999497474683058
 20
31.229497474683058
 10
7.984999999999999
 20
31.24062177826491
 10
7.968117333157176
 20
31.247614807840232
 10
7.949999999999999
 20
31.25
 10
7.25
 20
31.25
 10
7.231882666842823
 20
31.247614807840232
 10
7.215
 20
31.24062177826491
 10
7.200502525316942
 20
31.229497474683058
 10
7.1893782217350894
 20
31.215
 10
7.1823851921597655
 20
31.198117333157175
 10
7.18
 20
31.18
 10
7.18
 20
30.919999999999998
 10
7.1823851921597655
 20
30.901882666842823
 10
7.1893782217350894
 20
30.884999999999998
 10
7.200502525316941
 20
30.87050252531694
 10
7.215
 20
30.85937822173509
 10
7.231882666842823
 20
30.852385192159765
 10
7.25
 20
30.849999999999998
  0
LWPOLYLINE
  5
EC
330
17
100
AcDbEntity
  8
A-FURN
100
AcDbPolyline
 90
2
 70
0
 10
7.0
 20
30.639999999999997
 10
8.2
 20
30.639999999999997
  0
LWPOLYLINE
  5
ED
330
17
100
AcDbEntity
  8
A-FURN
100
AcDbPolyline
 90
3
 70
0
 10
7.0
 20
30.639999999999997
 10
7.3
 20
30.4
 10
8.2
 20
30.639999999999997
  0
LWPOLYLINE
  5
EE
330
17
100
AcDbEntity
  8
A-FURN
100
AcDbPolyline
 90
4
 70
1
 10
9.0
 20
30.95
 10
10.6
 20
30.95
 10
10.6
 20
31.55
 10
9.0
 20
31.55
  0
LWPOLYLINE
  5
EF
330
17
100
AcDbEntity
  8
A-FURN
100
AcDbPolyline
 90
28
 70
1
 10
9.95
 20
30.4
 10
9.975881904510253
 20
30.403407417371092
 10
10.0
 20
30.413397459621557
 10
10.020710678118654
 20
30.429289321881345
 10
10.036602540378444
 20
30.45
 10
10.046592582628907
 20
30.474118095489747
 10
10.05
 20
30.5
 10
10.05
 20
30.77
 10
10.046592582628907
 20
30.795881904510253
 10
10.036602540378444
 20
30.82
 10
10.020710678118654
 20
30.840710678118654
 10
10.0
 20
30.856602540378443
 10
9.975881904510253
 20
30.866592582628908
 10
9.95
 20
30.87
 10
9.65
 20
30.87
 10
9.624118095489749
 20
30.866592582628908
 10
9.6
 20
30.856602540378443
 10
9.579289321881346
 20
30.840710678118654
 10
9.563397459621557
 20
30.82
 10
9.553407417371094
 20
30.795881904510253
 10
9.55
 20
30.77
 10
9.55
 20
30.5
 10
9.553407417371094
 20
30.474118095489747
 10
9.563397459621557
 20
30.45
 10
9.579289321881346
 20
30.429289321881345
 10
9.6
 20
30.413397459621557
 10
9.624118095489749
 20
30.403407417371092
 10
9.65
 20
30.4
  0
LWPOLYLINE
  5
F0
330
17
100
AcDbEntity
  8
A-FURN
100
AcDbPolyline
 90
4
 70
1
 10
8.75
 20
28.0
 10
6.55
 20
28.0
 10
6.55
 20
27.4
 10
8.75
 20
27.4
  0
LWPOLYLINE
  5
F1
330
17
100
AcDbEntity
  8
A-FURN
100
AcDbPolyline
 90
2
 70
0
 10
8.72
 20
27.7
 10
6.58
 20
27.7
  0
LWPOLYLINE
  5
F2
330
17
100
AcDbEntity
  8
A-FURN
100
AcDbPolyline
 90
2
 70
0
 10
8.75
 20
28.0
 10
8.75
 20
27.94
  0
LWPOLYLINE
  5
F3
330
17
100
AcDbEntity
  8
A-FURN
100
AcDbPolyline
 90
2
 70
0
 10
8.2
 20
28.0
 10
8.2
 20
27.94
  0
LWPOLYLINE
  5
F4
330
17
100
AcDbEntity
  8
A-FURN
100
AcDbPolyline
 90
2
 70
0
 10
7.65
 20
28.0
 10
7.65
 20
27.94
  0
LWPOLYLINE
  5
F5
330
17
100
AcDbEntity
  8
A-FURN
100
AcDbPolyline
 90
2
 70
0
 10
7.1
 20
28.0
 10
7.1
 20
27.94
  0
LWPOLYLINE
  5
F6
330
17
100
AcDbEntity
  8
A-FURN
100
AcDbPolyline
 90
2
 70
0
 10
6.55
 20
28.0
 10
6.55
 20
27.94
  0
LWPOLYLINE
  5
F7
330
17
100
AcDbEntity
  8
A-FURN
100
AcDbPolyline
 90
2
 70
0
 10
8.69
 20
27.82
 10
8.67
 20
27.58
  0
LWPOLYLINE
  5
F8
330
17
100
AcDbEntity
  8
A-FURN
100
AcDbPolyline
 90
2
 70
0
 10
8.57
 20
27.82
 10
8.55
 20
27.58
  0
LWPOLYLINE
  5
F9
330
17
100
AcDbEntity
  8
A-FURN
100
AcDbPolyline
 90
2
 70
0
 10
8.45
 20
27.82
 10
8.43
 20
27.58
  0
LWPOLYLINE
  5
FA
330
17
100
AcDbEntity
  8
A-FURN
100
AcDbPolyline
 90
2
 70
0
 10
8.33
 20
27.82
 10
8.31
 20
27.58
  0
LWPOLYLINE
  5
FB
330
17
100
AcDbEntity
  8
A-FURN
100
AcDbPolyline
 90
2
 70
0
 10
8.21
 20
27.82
 10
8.19
 20
27.58
  0
LWPOLYLINE
  5
FC
330
17
100
AcDbEntity
  8
A-FURN
100
AcDbPolyline
 90
2
 70
0
 10
8.09
 20
27.82
 10
8.07
 20
27.58
  0
LWPOLYLINE
  5
FD
330
17
100
AcDbEntity
  8
A-FURN
100
AcDbPolyline
 90
2
 70
0
 10
7.97
 20
27.82
 10
7.95
 20
27.58
  0
LWPOLYLINE
  5
FE
330
17
100
AcDbEntity
  8
A-FURN
100
AcDbPolyline
 90
2
 70
0
 10
7.85
 20
27.82
 10
7.83
 20
27.58
  0
LWPOLYLINE
  5
FF
330
17
100
AcDbEntity
  8
A-FURN
100
AcDbPolyline
 90
2
 70
0
 10
7.73
 20
27.82
 10
7.71
 20
27.58
  0
LWPOLYLINE
  5
100
330
17
100
AcDbEntity
  8
A-FURN
100
AcDbPolyline
 90
2
 70
0
 10
7.609999999999999
 20
27.82
 10
7.59
 20
27.58
  0
LWPOLYLINE
  5
101
330
17
100
AcDbEntity
  8
A-FURN
100
AcDbPolyline
 90
2
 70
0
 10
7.49
 20
27.82
 10
7.47
 20
27.58
  0
LWPOLYLINE
  5
102
330
17
100
AcDbEntity
  8
A-FURN
100
AcDbPolyline
 90
2
 70
0
 10
7.37
 20
27.82
 10
7.35
 20
27.58
  0
LWPOLYLINE
  5
103
330
17
100
AcDbEntity
  8
A-FURN
100
AcDbPolyline
 90
2
 70
0
 10
7.25
 20
27.82
 10
7.23
 20
27.58
  0
LWPOLYLINE
  5
104
330
17
100
AcDbEntity
  8
A-FURN
100
AcDbPolyline
 90
2
 70
0
 10
7.13
 20
27.82
 10
7.109999999999999
 20
27.58
  0
LWPOLYLINE
  5
105
330
17
100
AcDbEntity
  8
A-FURN
100
AcDbPolyline
 90
2
 70
0
 10
7.01
 20
27.82
 10
6.99
 20
27.58
  0
LWPOLYLINE
  5
106
330
17
100
AcDbEntity
  8
A-FURN
100
AcDbPolyline
 90
2
 70
0
 10
6.890000000000001
 20
27.82
 10
6.87
 20
27.58
  0
LWPOLYLINE
  5
107
330
17
100
AcDbEntity
  8
A-FURN
100
AcDbPolyline
 90
2
 70
0
 10
6.77
 20
27.82
 10
6.75
 20
27.58
  0
LWPOLYLINE
  5
108
330
17
100
AcDbEntity
  8
A-FURN
100
AcDbPolyline
 90
2
 70
0
 10
6.65
 20
27.82
 10
6.63
 20
27.58
  0
LWPOLYLINE
  5
109
330
17
100
AcDbEntity
  8
A-FURN
100
AcDbPolyline
 90
4
 70
1
 10
12.4
 20
30.2
 10
12.4
 20
29.0
 10
12.950000000000001
 20
29.0
 10
12.950000000000001
 20
30.2
  0
LWPOLYLINE
  5
10A
330
17
100
AcDbEntity
  8
A-FURN
100
AcDbPolyline
 90
24
 70
1
 10
12.6475
 20
29.349999999999998
 10
12.68735813294579
 20
29.35851854342773
 10
12.7245
 20
29.38349364905389
 10
12.756394444302728
 20
29.423223304703363
 10
12.780867912182805
 20
29.474999999999998
 10
12.796252577248517
 20
29.53529523872437
 10
12.8015
 20
29.599999999999998
 10
12.796252577248517
 20
29.66470476127563
 10
12.780867912182805
 20
29.724999999999998
 10
12.756394444302728
 20
29.776776695296636
 10
12.7245
 20
29.81650635094611
 10
12.68735813294579
 20
29.841481456572268
 10
12.6475
 20
29.849999999999998
 10
12.607641867054213
 20
29.841481456572268
 10
12.570500000000001
 20
29.81650635094611
 10
12.538605555697272
 20
29.776776695296636
 10
12.514132087817197
 20
29.724999999999998
 10
12.498747422751483
 20
29.66470476127563
 10
12.493500000000001
 20
29.599999999999998
 10
12.498747422751483
 20
29.53529523872437
 10
12.514132087817197
 20
29.474999999999998
 10
12.538605555697272
 20
29.423223304703363
 10
12.570500000000001
 20
29.38349364905389
 10
12.607641867054213
 20
29.35851854342773
  0
LWPOLYLINE
  5
10B
330
17
100
AcDbEntity
  8
A-FURN
100
AcDbPolyline
 90
4
 70
1
 10
12.9
 20
30.4
 10
12.9
 20
31.599999999999998
 10
11.3
 20
31.599999999999998
 10
11.3
 20
30.4
  0
LWPOLYLINE
  5
10C
330
17
100
AcDbEntity
  8
A-FURN
100
AcDbPolyline
 90
2
 70
0
 10
12.9
 20
30.4
 10
11.3
 20
31.599999999999998
  0
LWPOLYLINE
  5
10D
330
17
100
AcDbEntity
  8
A-FURN
100
AcDbPolyline
 90
2
 70
0
 10
12.9
 20
31.599999999999998
 10
11.3
 20
30.4
  0
LWPOLYLINE
  5
10E
330
17
100
AcDbEntity
  8
A-FURN
100
AcDbPolyline
 90
24
 70
1
 10
12.1
 20
31.049999999999997
 10
12.087059047744875
 20
31.04829629131445
 10
12.075000000000001
 20
31.04330127018922
 10
12.064644660940672
 20
31.035355339059326
 10
12.056698729810778
 20
31.025
 10
12.051703708685547
 20
31.012940952255125
 10
12.05
 20
31.0
 10
12.051703708685547
 20
30.98705904774487
 10
12.056698729810778
 20
30.974999999999998
 10
12.064644660940672
 20
30.96464466094067
 10
12.075000000000001
 20
30.95669872981078
 10
12.087059047744875
 20
30.951703708685546
 10
12.1
 20
30.95
 10
12.112940952255126
 20
30.951703708685546
 10
12.125
 20
30.95669872981078
 10
12.135355339059327
 20
30.96464466094067
 10
12.143301270189223
 20
30.974999999999998
 10
12.148296291314454
 20
30.98705904774487
 10
12.15
 20
31.0
 10
12.148296291314454
 20
31.012940952255125
 10
12.143301270189223
 20
31.025
 10
12.135355339059327
 20
31.035355339059326
 10
12.125
 20
31.04330127018922
 10
12.112940952255126
 20
31.04829629131445
  0
LWPOLYLINE
  5
10F
330
17
100
AcDbEntity
  8
A-FURN
100
AcDbPolyline
 90
4
 70
1
 10
12.8
 20
27.28
 10
12.4
 20
27.28
 10
12.4
 20
27.1
 10
12.8
 20
27.1
  0
LWPOLYLINE
  5
110
330
17
100
AcDbEntity
  8
A-FURN
100
AcDbPolyline
 90
24
 70
1
 10
12.42
 20
27.470000000000002
 10
12.426133351267968
 20
27.410471619626424
 10
12.444115427318803
 20
27.355000000000004
 10
12.472720779386423
 20
27.307365440327096
 10
12.510000000000002
 20
27.270814157129582
 10
12.553412571881546
 20
27.24783705995352
 10
12.600000000000001
 20
27.240000000000002
 10
12.646587428118455
 20
27.24783705995352
 10
12.690000000000001
 20
27.270814157129582
 10
12.72727922061358
 20
27.307365440327096
 10
12.7558845726812
 20
27.355000000000004
 10
12.773866648732033
 20
27.410471619626424
 10
12.780000000000001
 20
27.470000000000002
 10
12.773866648732033
 20
27.529528380373584
 10
12.7558845726812
 20
27.585000000000004
 10
12.72727922061358
 20
27.63263455967291
 10
12.690000000000001
 20
27.669185842870423
 10
12.646587428118455
 20
27.69216294004649
 10
12.600000000000001
 20
27.700000000000003
 10
12.553412571881546
 20
27.69216294004649
 10
12.510000000000002
 20
27.669185842870423
 10
12.472720779386423
 20
27.63263455967291
 10
12.444115427318803
 20
27.585000000000004
 10
12.426133351267968
 20
27.529528380373584
  0
LWPOLYLINE
  5
111
330
17
100
AcDbEntity
  8
A-FURN
100
AcDbPolyline
 90
28
 70
1
 10
18.84
 20
26.45
 10
18.855529142706153
 20
26.452044450422655
 10
18.87
 20
26.458038475772934
 10
18.882426406871193
 20
26.467573593128808
 10
18.891961524227067
 20
26.48
 10
18.897955549577343
 20
26.494470857293848
 10
18.9
 20
26.509999999999998
 10
18.9
 20
27.34
 10
18.897955549577343
 20
27.35552914270615
 10
18.891961524227067
 20
27.369999999999997
 10
18.882426406871193
 20
27.382426406871193
 10
18.87
 20
27.391961524227064
 10
18.855529142706153
 20
27.397955549577343
 10
18.84
 20
27.4
 10
15.96
 20
27.4
 10
15.94447085729385
 20
27.397955549577343
 10
15.93
 20
27.391961524227064
 10
15.917573593128807
 20
27.382426406871193
 10
15.908038475772933
 20
27.369999999999997
 10
15.902044450422656
 20
27.35552914270615
 10
15.9
 20
27.34
 10
15.9
 20
26.509999999999998
 10
15.902044450422656
 20
26.494470857293848
 10
15.908038475772933
 20
26.48
 10
15.917573593128807
 20
26.467573593128808
 10
15.93
 20
26.458038475772934
 10
15.94447085729385
 20
26.452044450422655
 10
15.96
 20
26.45
  0
LWPOLYLINE
  5
112
330
17
100
AcDbEntity
  8
A-FURN
100
AcDbPolyline
 90
4
 70
1
 10
16.080000000000002
 20
27.18
 10
18.72
 20
27.18
 10
18.72
 20
27.4
 10
16.080000000000002
 20
27.4
  0
LWPOLYLINE
  5
113
330
17
100
AcDbEntity
  8
A-FURN
100
AcDbPolyline
 90
4
 70
1
 10
15.9
 20
26.45
 10
16.080000000000002
 20
26.45
 10
16.080000000000002
 20
27.4
 10
15.9
 20
27.4
  0
LWPOLYLINE
  5
114
330
17
100
AcDbEntity
  8
A-FURN
100
AcDbPolyline
 90
4
 70
1
 10
18.72
 20
26.45
 10
18.9
 20
26.45
 10
18.9
 20
27.4
 10
18.72
 20
27.4
  0
LWPOLYLINE
  5
115
330
17
100
AcDbEntity
  8
A-FURN
100
AcDbPolyline
 90
2
 70
0
 10
16.96
 20
26.5
 10
16.96
 20
27.18
  0
LWPOLYLINE
  5
116
330
17
100
AcDbEntity
  8
A-FURN
100
AcDbPolyline
 90
2
 70
0
 10
17.84
 20
26.5
 10
17.84
 20
27.18
  0
LWPOLYLINE
  5
117
330
17
100
AcDbEntity
  8
A-FURN
100
AcDbPolyline
 90
28
 70
1
 10
18.0
 20
26.11
 10
17.998637033051562
 20
26.120352761804103
 10
17.994641016151377
 20
26.13
 10
17.988284271247462
 20
26.138284271247464
 10
17.98
 20
26.14464101615138
 10
17.9703527618041
 20
26.148637033051564
 10
17.96
 20
26.150000000000002
 10
16.84
 20
26.150000000000002
 10
16.8296472381959
 20
26.148637033051564
 10
16.82
 20
26.14464101615138
 10
16.81171572875254
 20
26.138284271247464
 10
16.805358983848624
 20
26.13
 10
16.80136296694844
 20
26.120352761804103
 10
16.8
 20
26.11
 10
16.8
 20
25.59
 10
16.80136296694844
 20
25.5796472381959
 10
16.805358983848624
 20
25.57
 10
16.81171572875254
 20
25.56171572875254
 10
16.82
 20
25.555358983848624
 10
16.8296472381959
 20
25.55136296694844
 10
16.84
 20
25.55
 10
17.96
 20
25.55
 10
17.9703527618041
 20
25.55136296694844
 10
17.98
 20
25.555358983848624
 10
17.988284271247462
 20
25.56171572875254
 10
17.994641016151377
 20
25.57
 10
17.998637033051562
 20
25.5796472381959
 10
18.0
 20
25.59
  0
LWPOLYLINE
  5
118
330
17
100
AcDbEntity
  8
A-FURN
100
AcDbPolyline
 90
28
 70
1
 10
18.4
 20
27.88
 10
18.402725933896875
 20
27.8592944763918
 10
18.410717967697245
 20
27.84
 10
18.423431457505075
 20
27.823431457505077
 10
18.439999999999998
 20
27.810717967697244
 10
18.459294476391797
 20
27.802725933896873
 10
18.479999999999997
 20
27.8
 10
19.22
 20
27.8
 10
19.2407055236082
 20
27.802725933896873
 10
19.259999999999998
 20
27.810717967697244
 10
19.27656854249492
 20
27.823431457505077
 10
19.289282032302754
 20
27.84
 10
19.297274066103125
 20
27.8592944763918
 10
19.299999999999997
 20
27.88
 10
19.299999999999997
 20
28.62
 10
19.297274066103125
 20
28.6407055236082
 10
19.289282032302754
 20
28.66
 10
19.27656854249492
 20
28.676568542494923
 10
19.259999999999998
 20
28.689282032302753
 10
19.2407055236082
 20
28.697274066103123
 10
19.22
 20
28.7
 10
18.479999999999997
 20
28.7
 10
18.459294476391797
 20
28.697274066103123
 10
18.439999999999998
 20
28.689282032302753
 10
18.423431457505075
 20
28.676568542494923
 10
18.410717967697245
 20
28.66
 10
18.402725933896875
 20
28.6407055236082
 10
18.4
 20
28.62
  0
LWPOLYLINE
  5
119
330
17
100
AcDbEntity
  8
A-FURN
100
AcDbPolyline
 90
4
 70
1
 10
19.099999999999998
 20
28.58
 10
19.099999999999998
 20
27.919999999999998
 10
19.299999999999997
 20
27.919999999999998
 10
19.299999999999997
 20
28.58
  0
LWPOLYLINE
  5
11A
330
17
100
AcDbEntity
  8
A-FURN
100
AcDbPolyline
 90
4
 70
1
 10
18.45
 20
28.7
 10
18.45
 20
28.58
 10
19.299999999999997
 20
28.58
 10
19.299999999999997
 20
28.7
  0
LWPOLYLINE
  5
11B
330
17
100
AcDbEntity
  8
A-FURN
100
AcDbPolyline
 90
4
 70
1
 10
18.45
 20
27.919999999999998
 10
18.45
 20
27.8
 10
19.299999999999997
 20
27.8
 10
19.299999999999997
 20
27.919999999999998
  0
LWPOLYLINE
  5
11C
330
17
100
AcDbEntity
  8
A-FURN
100
AcDbPolyline
 90
4
 70
1
 10
17.7
 20
31.05
 10
19.5
 20
31.05
 10
19.5
 20
31.650000000000002
 10
17.7
 20
31.650000000000002
  0
LWPOLYLINE
  5
11D
330
17
100
AcDbEntity
  8
A-FURN
100
AcDbPolyline
 90
2
 70
0
 10
17.7
 20
31.1
 10
19.5
 20
31.1
  0
LWPOLYLINE
  5
11E
330
17
100
AcDbEntity
  8
A-FURN
100
AcDbPolyline
 90
4
 70
1
 10
22.3
 20
27.4
 10
23.900000000000002
 20
27.4
 10
23.900000000000002
 20
29.4
 10
22.3
 20
29.4
  0
LWPOLYLINE
  5
11F
330
17
100
AcDbEntity
  8
A-FURN
100
AcDbPolyline
 90
4
 70
1
 10
22.3
 20
29.32
 10
23.900000000000002
 20
29.32
 10
23.900000000000002
 20
29.4
 10
22.3
 20
29.4
  0
LWPOLYLINE
  5
120
330
17
100
AcDbEntity
  8
A-FURN
100
AcDbPolyline
 90
28
 70
1
 10
23.0
 20
28.849999999999998
 10
23.01811733315718
 20
28.852385192159765
 10
23.035
 20
28.85937822173509
 10
23.049497474683058
 20
28.87050252531694
 10
23.06062177826491
 20
28.884999999999998
 10
23.067614807840236
 20
28.901882666842823
 10
23.07
 20
28.919999999999998
 10
23.07
 20
29.18
 10
23.067614807840236
 20
29.198117333157175
 10
23.06062177826491
 20
29.215
 10
23.049497474683058
 20
29.229497474683058
 10
23.035
 20
29.24062177826491
 10
23.01811733315718
 20
29.247614807840232
 10
23.0
 20
29.25
 10
22.55
 20
29.25
 10
22.531882666842826
 20
29.247614807840232
 10
22.515
 20
29.24062177826491
 10
22.500502525316943
 20
29.229497474683058
 10
22.48937822173509
 20
29.215
 10
22.482385192159764
 20
29.198117333157175
 10
22.48
 20
29.18
 10
22.48
 20
28.919999999999998
 10
22.482385192159764
 20
28.901882666842823
 10
22.48937822173509
 20
28.884999999999998
 10
22.500502525316943
 20
28.87050252531694
 10
22.515
 20
28.85937822173509
 10
22.531882666842826
 20
28.852385192159765
 10
22.55
 20
28.849999999999998
  0
LWPOLYLINE
  5
121
330
17
100
AcDbEntity
  8
A-FURN
100
AcDbPolyline
 90
28
 70
1
 10
23.650000000000002
 20
28.849999999999998
 10
23.668117333157177
 20
28.852385192159765
 10
23.685000000000002
 20
28.85937822173509
 10
23.69949747468306
 20
28.87050252531694
 10
23.710621778264912
 20
28.884999999999998
 10
23.717614807840235
 20
28.901882666842823
 10
23.72
 20
28.919999999999998
 10
23.72
 20
29.18
 10
23.717614807840235
 20
29.198117333157175
 10
23.710621778264912
 20
29.215
 10
23.69949747468306
 20
29.229497474683058
 10
23.685000000000002
 20
29.24062177826491
 10
23.668117333157177
 20
29.247614807840232
 10
23.650000000000002
 20
29.25
 10
23.2
 20
29.25
 10
23.181882666842824
 20
29.247614807840232
 10
23.165
 20
29.24062177826491
 10
23.15050252531694
 20
29.229497474683058
 10
23.13937822173509
 20
29.215
 10
23.132385192159767
 20
29.198117333157175
 10
23.130000000000003
 20
29.18
 10
23.130000000000003
 20
28.919999999999998
 10
23.132385192159767
 20
28.901882666842823
 10
23.13937822173509
 20
28.884999999999998
 10
23.15050252531694
 20
28.87050252531694
 10
23.165
 20
28.85937822173509
 10
23.181882666842824
 20
28.852385192159765
 10
23.2
 20
28.849999999999998
  0
LWPOLYLINE
  5
122
330
17
100
AcDbEntity
  8
A-FURN
100
AcDbPolyline
 90
2
 70
0
 10
22.3
 20
28.639999999999997
 10
23.900000000000002
 20
28.639999999999997
  0
LWPOLYLINE
  5
123
330
17
100
AcDbEntity
  8
A-FURN
100
AcDbPolyline
 90
3
 70
0
 10
22.3
 20
28.639999999999997
 10
22.7
 20
28.4
 10
23.900000000000002
 20
28.639999999999997
  0
LWPOLYLINE
  5
124
330
17
100
AcDbEntity
  8
A-FURN
100
AcDbPolyline
 90
28
 70
1
 10
22.25
 20
29.31
 10
22.248637033051562
 20
29.3203527618041
 10
22.244641016151377
 20
29.33
 10
22.238284271247462
 20
29.33828427124746
 10
22.23
 20
29.344641016151375
 10
22.2203527618041
 20
29.34863703305156
 10
22.21
 20
29.349999999999998
 10
21.79
 20
29.349999999999998
 10
21.7796472381959
 20
29.34863703305156
 10
21.77
 20
29.344641016151375
 10
21.761715728752538
 20
29.33828427124746
 10
21.755358983848623
 20
29.33
 10
21.751362966948438
 20
29.3203527618041
 10
21.75
 20
29.31
 10
21.75
 20
28.939999999999998
 10
21.751362966948438
 20
28.929647238195898
 10
21.755358983848623
 20
28.919999999999998
 10
21.761715728752538
 20
28.911715728752537
 10
21.77
 20
28.905358983848622
 10
21.7796472381959
 20
28.901362966948437
 10
21.79
 20
28.9
 10
22.21
 20
28.9
 10
22.2203527618041
 20
28.901362966948437
 10
22.23
 20
28.905358983848622
 10
22.238284271247462
 20
28.911715728752537
 10
22.244641016151377
 20
28.919999999999998
 10
22.248637033051562
 20
28.929647238195898
 10
22.25
 20
28.939999999999998
  0
LWPOLYLINE
  5
125
330
17
100
AcDbEntity
  8
A-FURN
100
AcDbPolyline
 90
24
 70
1
 10
22.0
 20
29.237499999999997
 10
21.970882857425966
 20
29.23366665545752
 10
21.94375
 20
29.222427857925748
 10
21.920450487116515
 20
29.204549512883485
 10
21.902572142074252
 20
29.18125
 10
21.89133334454248
 20
29.154117142574034
 10
21.8875
 20
29.125
 10
21.89133334454248
 20
29.095882857425966
 10
21.902572142074252
 20
29.068749999999998
 10
21.920450487116515
 20
29.04545048711651
 10
21.94375
 20
29.02757214207425
 10
21.970882857425966
 20
29.016333344542478
 10
22.0
 20
29.0125
 10
22.029117142574034
 20
29.016333344542478
 10
22.05625
 20
29.02757214207425
 10
22.079549512883485
 20
29.04545048711651
 10
22.097427857925748
 20
29.068749999999998
 10
22.10866665545752
 20
29.095882857425966
 10
22.1125
 20
29.125
 10
22.10866665545752
 20
29.154117142574034
 10
22.097427857925748
 20
29.18125
 10
22.079549512883485
 20
29.204549512883485
 10
22.05625
 20
29.222427857925748
 10
22.029117142574034
 20
29.23366665545752
  0
LWPOLYLINE
  5
126
330
17
100
AcDbEntity
  8
A-FURN
100
AcDbPolyline
 90
28
 70
1
 10
24.45
 20
29.31
 10
24.44863703305156
 20
29.3203527618041
 10
24.444641016151376
 20
29.33
 10
24.43828427124746
 20
29.33828427124746
 10
24.43
 20
29.344641016151375
 10
24.4203527618041
 20
29.34863703305156
 10
24.41
 20
29.349999999999998
 10
23.99
 20
29.349999999999998
 10
23.9796472381959
 20
29.34863703305156
 10
23.97
 20
29.344641016151375
 10
23.961715728752537
 20
29.33828427124746
 10
23.955358983848623
 20
29.33
 10
23.951362966948437
 20
29.3203527618041
 10
23.95
 20
29.31
 10
23.95
 20
28.939999999999998
 10
23.951362966948437
 20
28.929647238195898
 10
23.955358983848623
 20
28.919999999999998
 10
23.961715728752537
 20
28.911715728752537
 10
23.97
 20
28.905358983848622
 10
23.9796472381959
 20
28.901362966948437
 10
23.99
 20
28.9
 10
24.41
 20
28.9
 10
24.4203527618041
 20
28.901362966948437
 10
24.43
 20
28.905358983848622
 10
24.43828427124746
 20
28.911715728752537
 10
24.444641016151376
 20
28.919999999999998
 10
24.44863703305156
 20
28.929647238195898
 10
24.45
 20
28.939999999999998
  0
LWPOLYLINE
  5
127
330
17
100
AcDbEntity
  8
A-FURN
100
AcDbPolyline
 90
24
 70
1
 10
24.2
 20
29.237499999999997
 10
24.170882857425966
 20
29.23366665545752
 10
24.14375
 20
29.222427857925748
 10
24.120450487116514
 20
29.204549512883485
 10
24.10257214207425
 20
29.18125
 10
24.09133334454248
 20
29.154117142574034
 10
24.0875
 20
29.125
 10
24.09133334454248
 20
29.095882857425966
 10
24.10257214207425
 20
29.068749999999998
 10
24.120450487116514
 20
29.04545048711651
 10
24.14375
 20
29.02757214207425
 10
24.170882857425966
 20
29.016333344542478
 10
24.2
 20
29.0125
 10
24.229117142574033
 20
29.016333344542478
 10
24.256249999999998
 20
29.02757214207425
 10
24.279549512883484
 20
29.04545048711651
 10
24.297427857925747
 20
29.068749999999998
 10
24.308666655457518
 20
29.095882857425966
 10
24.3125
 20
29.125
 10
24.308666655457518
 20
29.154117142574034
 10
24.297427857925747
 20
29.18125
 10
24.279549512883484
 20
29.204549512883485
 10
24.256249999999998
 20
29.222427857925748
 10
24.229117142574033
 20
29.23366665545752
  0
LWPOLYLINE
  5
128
330
17
100
AcDbEntity
  8
A-FURN
100
AcDbPolyline
 90
4
 70
1
 10
20.35
 20
27.05
 10
20.35
 20
29.400000000000002
 10
19.75
 20
29.400000000000002
 10
19.75
 20
27.05
  0
LWPOLYLINE
  5
129
330
17
100
AcDbEntity
  8
A-FURN
100
AcDbPolyline
 90
2
 70
0
 10
20.05
 20
27.080000000000002
 10
20.05
 20
29.37
  0
LWPOLYLINE
  5
12A
330
17
100
AcDbEntity
  8
A-FURN
100
AcDbPolyline
 90
2
 70
0
 10
20.35
 20
27.05
 10
20.290000000000003
 20
27.05
  0
LWPOLYLINE
  5
12B
330
17
100
AcDbEntity
  8
A-FURN
100
AcDbPolyline
 90
2
 70
0
 10
20.35
 20
27.52
 10
20.290000000000003
 20
27.52
  0
LWPOLYLINE
  5
12C
330
17
100
AcDbEntity
  8
A-FURN
100
AcDbPolyline
 90
2
 70
0
 10
20.35
 20
27.990000000000002
 10
20.290000000000003
 20
27.990000000000002
  0
LWPOLYLINE
  5
12D
330
17
100
AcDbEntity
  8
A-FURN
100
AcDbPolyline
 90
2
 70
0
 10
20.35
 20
28.46
 10
20.290000000000003
 20
28.46
  0
LWPOLYLINE
  5
12E
330
17
100
AcDbEntity
  8
A-FURN
100
AcDbPolyline
 90
2
 70
0
 10
20.35
 20
28.93
 10
20.290000000000003
 20
28.93
  0
LWPOLYLINE
  5
12F
330
17
100
AcDbEntity
  8
A-FURN
100
AcDbPolyline
 90
2
 70
0
 10
20.35
 20
29.400000000000002
 10
20.290000000000003
 20
29.400000000000002
  0
LWPOLYLINE
  5
130
330
17
100
AcDbEntity
  8
A-FURN
100
AcDbPolyline
 90
2
 70
0
 10
20.17
 20
27.11
 10
19.93
 20
27.13
  0
LWPOLYLINE
  5
131
330
17
100
AcDbEntity
  8
A-FURN
100
AcDbPolyline
 90
2
 70
0
 10
20.17
 20
27.23
 10
19.93
 20
27.25
  0
LWPOLYLINE
  5
132
330
17
100
AcDbEntity
  8
A-FURN
100
AcDbPolyline
 90
2
 70
0
 10
20.17
 20
27.35
 10
19.93
 20
27.37
  0
LWPOLYLINE
  5
133
330
17
100
AcDbEntity
  8
A-FURN
100
AcDbPolyline
 90
2
 70
0
 10
20.17
 20
27.470000000000002
 10
19.93
 20
27.490000000000002
  0
LWPOLYLINE
  5
134
330
17
100
AcDbEntity
  8
A-FURN
100
AcDbPolyline
 90
2
 70
0
 10
20.17
 20
27.59
 10
19.93
 20
27.61
  0
LWPOLYLINE
  5
135
330
17
100
AcDbEntity
  8
A-FURN
100
AcDbPolyline
 90
2
 70
0
 10
20.17
 20
27.71
 10
19.93
 20
27.73
  0
LWPOLYLINE
  5
136
330
17
100
AcDbEntity
  8
A-FURN
100
AcDbPolyline
 90
2
 70
0
 10
20.17
 20
27.830000000000002
 10
19.93
 20
27.85
  0
LWPOLYLINE
  5
137
330
17
100
AcDbEntity
  8
A-FURN
100
AcDbPolyline
 90
2
 70
0
 10
20.17
 20
27.95
 10
19.93
 20
27.97
  0
LWPOLYLINE
  5
138
330
17
100
AcDbEntity
  8
A-FURN
100
AcDbPolyline
 90
2
 70
0
 10
20.17
 20
28.07
 10
19.93
 20
28.09
  0
LWPOLYLINE
  5
139
330
17
100
AcDbEntity
  8
A-FURN
100
AcDbPolyline
 90
2
 70
0
 10
20.17
 20
28.19
 10
19.93
 20
28.21
  0
LWPOLYLINE
  5
13A
330
17
100
AcDbEntity
  8
A-FURN
100
AcDbPolyline
 90
2
 70
0
 10
20.17
 20
28.310000000000002
 10
19.93
 20
28.330000000000002
  0
LWPOLYLINE
  5
13B
330
17
100
AcDbEntity
  8
A-FURN
100
AcDbPolyline
 90
2
 70
0
 10
20.17
 20
28.43
 10
19.93
 20
28.45
  0
LWPOLYLINE
  5
13C
330
17
100
AcDbEntity
  8
A-FURN
100
AcDbPolyline
 90
2
 70
0
 10
20.17
 20
28.55
 10
19.93
 20
28.57
  0
LWPOLYLINE
  5
13D
330
17
100
AcDbEntity
  8
A-FURN
100
AcDbPolyline
 90
2
 70
0
 10
20.17
 20
28.67
 10
19.93
 20
28.69
  0
LWPOLYLINE
  5
13E
330
17
100
AcDbEntity
  8
A-FURN
100
AcDbPolyline
 90
2
 70
0
 10
20.17
 20
28.79
 10
19.93
 20
28.810000000000002
  0
LWPOLYLINE
  5
13F
330
17
100
AcDbEntity
  8
A-FURN
100
AcDbPolyline
 90
2
 70
0
 10
20.17
 20
28.91
 10
19.93
 20
28.93
  0
LWPOLYLINE
  5
140
330
17
100
AcDbEntity
  8
A-FURN
100
AcDbPolyline
 90
2
 70
0
 10
20.17
 20
29.03
 10
19.93
 20
29.05
  0
LWPOLYLINE
  5
141
330
17
100
AcDbEntity
  8
A-FURN
100
AcDbPolyline
 90
2
 70
0
 10
20.17
 20
29.150000000000002
 10
19.93
 20
29.17
  0
LWPOLYLINE
  5
142
330
17
100
AcDbEntity
  8
A-FURN
100
AcDbPolyline
 90
2
 70
0
 10
20.17
 20
29.27
 10
19.93
 20
29.29
  0
LWPOLYLINE
  5
143
330
17
100
AcDbEntity
  8
A-FURN
100
AcDbPolyline
 90
4
 70
1
 10
24.1
 20
26.900000000000002
 10
24.1
 20
25.6
 10
24.700000000000003
 20
25.6
 10
24.700000000000003
 20
26.900000000000002
  0
LWPOLYLINE
  5
144
330
17
100
AcDbEntity
  8
A-FURN
100
AcDbPolyline
 90
28
 70
1
 10
23.55
 20
26.1
 10
23.553407417371094
 20
26.07411809548975
 10
23.56339745962156
 20
26.05
 10
23.579289321881348
 20
26.029289321881347
 10
23.6
 20
26.013397459621558
 10
23.62411809548975
 20
26.003407417371097
 10
23.650000000000002
 20
26.000000000000004
 10
23.92
 20
26.000000000000004
 10
23.945881904510255
 20
26.003407417371097
 10
23.970000000000002
 20
26.013397459621558
 10
23.990710678118656
 20
26.029289321881347
 10
24.006602540378445
 20
26.05
 10
24.01659258262891
 20
26.07411809548975
 10
24.020000000000003
 20
26.1
 10
24.020000000000003
 20
26.400000000000002
 10
24.01659258262891
 20
26.425881904510256
 10
24.006602540378445
 20
26.450000000000003
 10
23.990710678118656
 20
26.470710678118657
 10
23.970000000000002
 20
26.486602540378446
 10
23.945881904510255
 20
26.49659258262891
 10
23.92
 20
26.500000000000004
 10
23.650000000000002
 20
26.500000000000004
 10
23.62411809548975
 20
26.49659258262891
 10
23.6
 20
26.486602540378446
 10
23.579289321881348
 20
26.470710678118657
 10
23.56339745962156
 20
26.450000000000003
 10
23.553407417371094
 20
26.425881904510256
 10
23.55
 20
26.400000000000002
  0
LWPOLYLINE
  5
145
330
17
100
AcDbEntity
  8
A-FURN
100
AcDbPolyline
 90
4
 70
1
 10
21.25
 20
31.12
 10
22.65
 20
31.12
 10
22.65
 20
31.67
 10
21.25
 20
31.67
  0
LWPOLYLINE
  5
146
330
17
100
AcDbEntity
  8
A-FURN
100
AcDbPolyline
 90
24
 70
1
 10
22.2
 20
31.3675
 10
22.191481456572266
 20
31.407358132945788
 10
22.16650635094611
 20
31.4445
 10
22.126776695296638
 20
31.47639444430273
 10
22.075
 20
31.500867912182805
 10
22.01470476127563
 20
31.51625257724852
 10
21.95
 20
31.5215
 10
21.88529523872437
 20
31.51625257724852
 10
21.825
 20
31.500867912182805
 10
21.773223304703365
 20
31.47639444430273
 10
21.73349364905389
 20
31.4445
 10
21.708518543427733
 20
31.407358132945788
 10
21.7
 20
31.3675
 10
21.708518543427733
 20
31.32764186705421
 10
21.73349364905389
 20
31.2905
 10
21.773223304703365
 20
31.258605555697272
 10
21.825
 20
31.234132087817198
 10
21.88529523872437
 20
31.218747422751484
 10
21.95
 20
31.2135
 10
22.01470476127563
 20
31.218747422751484
 10
22.075
 20
31.234132087817198
 10
22.126776695296638
 20
31.258605555697272
 10
22.166506350946108
 20
31.2905
 10
22.191481456572266
 20
31.32764186705421
  0
LWPOLYLINE
  5
147
330
17
100
AcDbEntity
  8
A-FURN
100
AcDbPolyline
 90
4
 70
1
 10
24.650000000000002
 20
30.4
 10
24.650000000000002
 20
31.65
 10
23.1
 20
31.65
 10
23.1
 20
30.4
  0
LWPOLYLINE
  5
148
330
17
100
AcDbEntity
  8
A-FURN
100
AcDbPolyline
 90
2
 70
0
 10
24.650000000000002
 20
30.4
 10
23.1
 20
31.65
  0
LWPOLYLINE
  5
149
330
17
100
AcDbEntity
  8
A-FURN
100
AcDbPolyline
 90
2
 70
0
 10
24.650000000000002
 20
31.65
 10
23.1
 20
30.4
  0
LWPOLYLINE
  5
14A
330
17
100
AcDbEntity
  8
A-FURN
100
AcDbPolyline
 90
24
 70
1
 10
23.875000000000004
 20
31.075
 10
23.862059047744875
 20
31.073296291314453
 10
23.85
 20
31.06830127018922
 10
23.839644660940674
 20
31.060355339059328
 10
23.831698729810782
 20
31.049999999999997
 10
23.82670370868555
 20
31.037940952255124
 10
23.825000000000003
 20
31.025
 10
23.82670370868555
 20
31.012059047744874
 10
23.831698729810782
 20
31.0
 10
23.839644660940674
 20
30.98964466094067
 10
23.85
 20
30.981698729810777
 10
23.862059047744875
 20
30.976703708685545
 10
23.875000000000004
 20
30.974999999999998
 10
23.88794095225513
 20
30.976703708685545
 10
23.900000000000002
 20
30.981698729810777
 10
23.91035533905933
 20
30.98964466094067
 10
23.918301270189225
 20
31.0
 10
23.923296291314454
 20
31.012059047744874
 10
23.925
 20
31.025
 10
23.923296291314454
 20
31.037940952255124
 10
23.918301270189225
 20
31.049999999999997
 10
23.91035533905933
 20
31.060355339059328
 10
23.900000000000002
 20
31.06830127018922
 10
23.88794095225513
 20
31.073296291314453
  0
LWPOLYLINE
  5
14B
330
17
100
AcDbEntity
  8
A-FURN
100
AcDbPolyline
 90
4
 70
1
 10
19.93
 20
30.9
 10
19.93
 20
31.299999999999997
 10
19.75
 20
31.299999999999997
 10
19.75
 20
30.9
  0
LWPOLYLINE
  5
14C
330
17
100
AcDbEntity
  8
A-FURN
100
AcDbPolyline
 90
24
 70
1
 10
20.12
 20
31.279999999999998
 10
20.060471619626423
 20
31.27386664873203
 10
20.005000000000003
 20
31.255884572681197
 10
19.957365440327095
 20
31.22727922061358
 10
19.92081415712958
 20
31.189999999999998
 10
19.897837059953517
 20
31.14658742811845
 10
19.89
 20
31.099999999999998
 10
19.897837059953517
 20
31.053412571881545
 10
19.92081415712958
 20
31.009999999999998
 10
19.957365440327095
 20
30.97272077938642
 10
20.005000000000003
 20
30.9441154273188
 10
20.060471619626423
 20
30.926133351267968
 10
20.12
 20
30.919999999999998
 10
20.179528380373583
 20
30.926133351267968
 10
20.235000000000003
 20
30.9441154273188
 10
20.282634559672907
 20
30.97272077938642
 10
20.31918584287042
 20
31.009999999999998
 10
20.34216294004649
 20
31.053412571881545
 10
20.35
 20
31.099999999999998
 10
20.34216294004649
 20
31.14658742811845
 10
20.31918584287042
 20
31.189999999999998
 10
20.282634559672907
 20
31.22727922061358
 10
20.235000000000003
 20
31.255884572681197
 10
20.179528380373583
 20
31.27386664873203
  0
LWPOLYLINE
  5
14D
330
17
100
AcDbEntity
  8
A-FURN
100
AcDbPolyline
 90
28
 70
1
 10
14.899999999999999
 20
23.540000000000003
 10
14.897955549577343
 20
23.555529142706153
 10
14.891961524227066
 20
23.57
 10
14.882426406871192
 20
23.582426406871193
 10
14.87
 20
23.591961524227067
 10
14.85552914270615
 20
23.597955549577346
 10
14.839999999999998
 20
23.6
 10
14.259999999999998
 20
23.6
 10
14.244470857293848
 20
23.597955549577346
 10
14.229999999999999
 20
23.591961524227067
 10
14.217573593128806
 20
23.582426406871193
 10
14.208038475772932
 20
23.57
 10
14.202044450422655
 20
23.555529142706153
 10
14.2
 20
23.540000000000003
 10
14.2
 20
21.66
 10
14.202044450422655
 20
21.64447085729385
 10
14.208038475772932
 20
21.630000000000003
 10
14.217573593128806
 20
21.61757359312881
 10
14.229999999999999
 20
21.608038475772936
 10
14.244470857293848
 20
21.602044450422657
 10
14.259999999999998
 20
21.6
 10
14.839999999999998
 20
21.6
 10
14.85552914270615
 20
21.602044450422657
 10
14.87
 20
21.608038475772936
 10
14.882426406871192
 20
21.61757359312881
 10
14.891961524227066
 20
21.630000000000003
 10
14.897955549577343
 20
21.64447085729385
 10
14.899999999999999
 20
21.66
  0
LWPOLYLINE
  5
14E
330
17
100
AcDbEntity
  8
A-FURN
100
AcDbPolyline
 90
2
 70
0
 10
14.409999999999998
 20
21.6
 10
14.409999999999998
 20
23.6
  0
LWPOLYLINE
  5
14F
330
17
100
AcDbEntity
  8
A-FURN
100
AcDbPolyline
 90
28
 70
1
 10
15.899999999999999
 20
23.540000000000003
 10
15.897955549577343
 20
23.555529142706153
 10
15.891961524227066
 20
23.57
 10
15.882426406871192
 20
23.582426406871193
 10
15.87
 20
23.591961524227067
 10
15.85552914270615
 20
23.597955549577346
 10
15.839999999999998
 20
23.6
 10
15.259999999999998
 20
23.6
 10
15.244470857293848
 20
23.597955549577346
 10
15.229999999999999
 20
23.591961524227067
 10
15.217573593128806
 20
23.582426406871193
 10
15.208038475772932
 20
23.57
 10
15.202044450422655
 20
23.555529142706153
 10
15.2
 20
23.540000000000003
 10
15.2
 20
21.66
 10
15.202044450422655
 20
21.64447085729385
 10
15.208038475772932
 20
21.630000000000003
 10
15.217573593128806
 20
21.61757359312881
 10
15.229999999999999
 20
21.608038475772936
 10
15.244470857293848
 20
21.602044450422657
 10
15.259999999999998
 20
21.6
 10
15.839999999999998
 20
21.6
 10
15.85552914270615
 20
21.602044450422657
 10
15.87
 20
21.608038475772936
 10
15.882426406871192
 20
21.61757359312881
 10
15.891961524227066
 20
21.630000000000003
 10
15.897955549577343
 20
21.64447085729385
 10
15.899999999999999
 20
21.66
  0
LWPOLYLINE
  5
150
330
17
100
AcDbEntity
  8
A-FURN
100
AcDbPolyline
 90
2
 70
0
 10
15.409999999999998
 20
21.6
 10
15.409999999999998
 20
23.6
  0
LWPOLYLINE
  5
151
330
17
100
AcDbEntity
  8
A-FURN
100
AcDbPolyline
 90
24
 70
1
 10
21.599999999999998
 20
24.0
 10
21.444708572938488
 20
23.979555495773443
 10
21.3
 20
23.919615242270662
 10
21.17573593128807
 20
23.82426406871193
 10
21.080384757729338
 20
23.7
 10
21.020444504226557
 20
23.555291427061512
 10
21.0
 20
23.400000000000002
 10
21.020444504226557
 20
23.24470857293849
 10
21.080384757729338
 20
23.1
 10
21.17573593128807
 20
22.97573593128807
 10
21.3
 20
22.880384757729338
 10
21.444708572938488
 20
22.82044450422656
 10
21.599999999999998
 20
22.8
 10
21.75529142706151
 20
22.82044450422656
 10
21.9
 20
22.880384757729338
 10
22.02426406871193
 20
22.97573593128807
 10
22.119615242270662
 20
23.1
 10
22.17955549577344
 20
23.24470857293849
 10
22.2
 20
23.400000000000002
 10
22.17955549577344
 20
23.555291427061512
 10
22.119615242270662
 20
23.7
 10
22.02426406871193
 20
23.82426406871193
 10
21.9
 20
23.919615242270662
 10
21.75529142706151
 20
23.979555495773443
  0
LWPOLYLINE
  5
152
330
17
100
AcDbEntity
  8
A-FURN
100
AcDbPolyline
 90
24
 70
1
 10
20.963603896932106
 20
24.246396103067895
 10
20.909251897460578
 20
24.2392405265886
 10
20.858603896932106
 20
24.218261437862626
 10
20.815111472882933
 20
24.184888527117067
 10
20.781738562137374
 20
24.141396103067894
 10
20.7607594734114
 20
24.090748102539422
 10
20.753603896932105
 20
24.036396103067894
 10
20.7607594734114
 20
23.982044103596365
 10
20.781738562137374
 20
23.931396103067893
 10
20.815111472882933
 20
23.88790367901872
 10
20.858603896932106
 20
23.85453076827316
 10
20.909251897460578
 20
23.83355167954719
 10
20.963603896932106
 20
23.826396103067893
 10
21.017955896403635
 20
23.83355167954719
 10
21.068603896932107
 20
23.85453076827316
 10
21.11209632098128
 20
23.88790367901872
 10
21.14546923172684
 20
23.931396103067893
 10
21.16644832045281
 20
23.982044103596365
 10
21.173603896932107
 20
24.036396103067894
 10
21.16644832045281
 20
24.090748102539422
 10
21.14546923172684
 20
24.141396103067894
 10
21.11209632098128
 20
24.184888527117067
 10
21.068603896932107
 20
24.218261437862626
 10
21.017955896403635
 20
24.2392405265886
  0
LWPOLYLINE
  5
153
330
17
100
AcDbEntity
  8
A-FURN
100
AcDbPolyline
 90
24
 70
1
 10
20.963603896932106
 20
22.973603896932108
 10
20.909251897460578
 20
22.966448320452812
 10
20.858603896932106
 20
22.94546923172684
 10
20.815111472882933
 20
22.912096320981284
 10
20.781738562137374
 20
22.868603896932107
 10
20.7607594734114
 20
22.81795589640364
 10
20.753603896932105
 20
22.763603896932107
 10
20.7607594734114
 20
22.70925189746058
 10
20.781738562137374
 20
22.658603896932107
 10
20.815111472882933
 20
22.615111472882933
 10
20.858603896932106
 20
22.581738562137375
 10
20.909251897460578
 20
22.560759473411405
 10
20.963603896932106
 20
22.55360389693211
 10
21.017955896403635
 20
22.560759473411405
 10
21.068603896932107
 20
22.581738562137375
 10
21.11209632098128
 20
22.615111472882933
 10
21.14546923172684
 20
22.658603896932107
 10
21.16644832045281
 20
22.70925189746058
 10
21.173603896932107
 20
22.763603896932107
 10
21.16644832045281
 20
22.81795589640364
 10
21.14546923172684
 20
22.868603896932107
 10
21.11209632098128
 20
22.912096320981284
 10
21.068603896932107
 20
22.94546923172684
 10
21.017955896403635
 20
22.966448320452812
  0
LWPOLYLINE
  5
154
330
17
100
AcDbEntity
  8
A-FURN
100
AcDbPolyline
 90
24
 70
1
 10
22.236396103067893
 20
22.973603896932108
 10
22.18204410359636
 20
22.966448320452812
 10
22.131396103067893
 20
22.94546923172684
 10
22.087903679018716
 20
22.912096320981284
 10
22.05453076827316
 20
22.868603896932107
 10
22.033551679547188
 20
22.81795589640364
 10
22.026396103067892
 20
22.763603896932107
 10
22.033551679547188
 20
22.70925189746058
 10
22.05453076827316
 20
22.658603896932107
 10
22.087903679018716
 20
22.615111472882933
 10
22.131396103067893
 20
22.581738562137375
 10
22.18204410359636
 20
22.560759473411405
 10
22.236396103067893
 20
22.553603896932106
 10
22.29074810253942
 20
22.560759473411405
 10
22.341396103067893
 20
22.581738562137375
 10
22.384888527117067
 20
22.615111472882933
 10
22.418261437862625
 20
22.658603896932107
 10
22.439240526588595
 20
22.70925189746058
 10
22.44639610306789
 20
22.763603896932107
 10
22.439240526588595
 20
22.81795589640364
 10
22.418261437862625
 20
22.868603896932107
 10
22.384888527117067
 20
22.912096320981284
 10
22.341396103067893
 20
22.94546923172684
 10
22.29074810253942
 20
22.966448320452812
  0
LWPOLYLINE
  5
155
330
17
100
AcDbEntity
  8
A-FURN
100
AcDbPolyline
 90
24
 70
1
 10
22.236396103067893
 20
24.246396103067895
 10
22.18204410359636
 20
24.2392405265886
 10
22.131396103067893
 20
24.218261437862626
 10
22.087903679018716
 20
24.184888527117067
 10
22.05453076827316
 20
24.141396103067894
 10
22.033551679547188
 20
24.090748102539422
 10
22.026396103067892
 20
24.036396103067894
 10
22.033551679547188
 20
23.982044103596365
 10
22.05453076827316
 20
23.931396103067893
 10
22.087903679018716
 20
23.88790367901872
 10
22.131396103067893
 20
23.85453076827316
 10
22.18204410359636
 20
23.83355167954719
 10
22.236396103067893
 20
23.826396103067893
 10
22.29074810253942
 20
23.83355167954719
 10
22.341396103067893
 20
23.85453076827316
 10
22.384888527117067
 20
23.88790367901872
 10
22.418261437862625
 20
23.931396103067893
 10
22.439240526588595
 20
23.982044103596365
 10
22.446396103067894
 20
24.036396103067894
 10
22.439240526588595
 20
24.090748102539422
 10
22.418261437862625
 20
24.141396103067894
 10
22.384888527117067
 20
24.184888527117067
 10
22.341396103067893
 20
24.218261437862626
 10
22.29074810253942
 20
24.2392405265886
  0
LWPOLYLINE
  5
156
330
17
100
AcDbEntity
  8
A-THIN
100
AcDbPolyline
 90
4
 70
1
 10
13.1
 20
27.98
 10
14.299999999999999
 20
27.98
 10
14.299999999999999
 20
28.26
 10
13.1
 20
28.26
  0
LWPOLYLINE
  5
157
330
17
100
AcDbEntity
  8
A-THIN
100
AcDbPolyline
 90
4
 70
1
 10
13.1
 20
28.26
 10
14.299999999999999
 20
28.26
 10
14.299999999999999
 20
28.54
 10
13.1
 20
28.54
  0
LWPOLYLINE
  5
158
330
17
100
AcDbEntity
  8
A-THIN
100
AcDbPolyline
 90
4
 70
1
 10
13.1
 20
28.54
 10
14.299999999999999
 20
28.54
 10
14.299999999999999
 20
28.82
 10
13.1
 20
28.82
  0
LWPOLYLINE
  5
159
330
17
100
AcDbEntity
  8
A-THIN
100
AcDbPolyline
 90
4
 70
1
 10
13.1
 20
28.82
 10
14.299999999999999
 20
28.82
 10
14.299999999999999
 20
29.1
 10
13.1
 20
29.1
  0
LWPOLYLINE
  5
15A
330
17
100
AcDbEntity
  8
A-THIN
100
AcDbPolyline
 90
4
 70
1
 10
13.1
 20
29.1
 10
14.299999999999999
 20
29.1
 10
14.299999999999999
 20
29.38
 10
13.1
 20
29.38
  0
LWPOLYLINE
  5
15B
330
17
100
AcDbEntity
  8
A-THIN
100
AcDbPolyline
 90
4
 70
1
 10
13.1
 20
29.38
 10
14.299999999999999
 20
29.38
 10
14.299999999999999
 20
29.66
 10
13.1
 20
29.66
  0
LWPOLYLINE
  5
15C
330
17
100
AcDbEntity
  8
A-THIN
100
AcDbPolyline
 90
4
 70
1
 10
13.1
 20
29.66
 10
14.299999999999999
 20
29.66
 10
14.299999999999999
 20
29.94
 10
13.1
 20
29.94
  0
LWPOLYLINE
  5
15D
330
17
100
AcDbEntity
  8
A-THIN
100
AcDbPolyline
 90
4
 70
1
 10
13.1
 20
29.94
 10
14.299999999999999
 20
29.94
 10
14.299999999999999
 20
30.22
 10
13.1
 20
30.22
  0
LWPOLYLINE
  5
15E
330
17
100
AcDbEntity
  8
A-THIN
100
AcDbPolyline
 90
4
 70
1
 10
13.1
 20
30.22
 10
14.299999999999999
 20
30.22
 10
14.299999999999999
 20
30.5
 10
13.1
 20
30.5
  0
LWPOLYLINE
  5
15F
330
17
100
AcDbEntity
  8
A-HIDDEN
100
AcDbPolyline
 90
4
 70
1
 10
13.1
 20
30.5
 10
15.599999999999998
 20
30.5
 10
15.599999999999998
 20
31.7
 10
13.1
 20
31.7
  0
LWPOLYLINE
  5
160
330
17
100
AcDbEntity
  8
A-HIDDEN
100
AcDbPolyline
 90
4
 70
1
 10
14.399999999999999
 20
30.22
 10
15.599999999999998
 20
30.22
 10
15.599999999999998
 20
30.5
 10
14.399999999999999
 20
30.5
  0
LWPOLYLINE
  5
161
330
17
100
AcDbEntity
  8
A-HIDDEN
100
AcDbPolyline
 90
4
 70
1
 10
14.399999999999999
 20
29.94
 10
15.599999999999998
 20
29.94
 10
15.599999999999998
 20
30.22
 10
14.399999999999999
 20
30.22
  0
LWPOLYLINE
  5
162
330
17
100
AcDbEntity
  8
A-HIDDEN
100
AcDbPolyline
 90
4
 70
1
 10
14.399999999999999
 20
29.66
 10
15.599999999999998
 20
29.66
 10
15.599999999999998
 20
29.94
 10
14.399999999999999
 20
29.94
  0
LWPOLYLINE
  5
163
330
17
100
AcDbEntity
  8
A-HIDDEN
100
AcDbPolyline
 90
4
 70
1
 10
14.399999999999999
 20
29.38
 10
15.599999999999998
 20
29.38
 10
15.599999999999998
 20
29.66
 10
14.399999999999999
 20
29.66
  0
LWPOLYLINE
  5
164
330
17
100
AcDbEntity
  8
A-HIDDEN
100
AcDbPolyline
 90
4
 70
1
 10
14.399999999999999
 20
29.1
 10
15.599999999999998
 20
29.1
 10
15.599999999999998
 20
29.38
 10
14.399999999999999
 20
29.38
  0
LWPOLYLINE
  5
165
330
17
100
AcDbEntity
  8
A-HIDDEN
100
AcDbPolyline
 90
4
 70
1
 10
14.399999999999999
 20
28.82
 10
15.599999999999998
 20
28.82
 10
15.599999999999998
 20
29.1
 10
14.399999999999999
 20
29.1
  0
LWPOLYLINE
  5
166
330
17
100
AcDbEntity
  8
A-HIDDEN
100
AcDbPolyline
 90
4
 70
1
 10
14.399999999999999
 20
28.54
 10
15.599999999999998
 20
28.54
 10
15.599999999999998
 20
28.82
 10
14.399999999999999
 20
28.82
  0
LWPOLYLINE
  5
167
330
17
100
AcDbEntity
  8
A-HIDDEN
100
AcDbPolyline
 90
4
 70
1
 10
14.399999999999999
 20
28.259999999999998
 10
15.599999999999998
 20
28.259999999999998
 10
15.599999999999998
 20
28.54
 10
14.399999999999999
 20
28.54
  0
LWPOLYLINE
  5
168
330
17
100
AcDbEntity
  8
A-HIDDEN
100
AcDbPolyline
 90
4
 70
1
 10
14.399999999999999
 20
27.98
 10
15.599999999999998
 20
27.98
 10
15.599999999999998
 20
28.259999999999998
 10
14.399999999999999
 20
28.259999999999998
  0
LWPOLYLINE
  5
169
330
17
100
AcDbEntity
  8
A-THIN
100
AcDbPolyline
 90
2
 70
0
 10
13.7
 20
28.080000000000002
 10
13.7
 20
30.0
  0
LWPOLYLINE
  5
16A
330
17
100
AcDbEntity
  8
A-THIN
100
AcDbPolyline
 90
3
 70
1
 10
13.61
 20
29.82
 10
13.79
 20
29.82
 10
13.7
 20
30.0
  0
CIRCLE
  5
16B
330
17
100
AcDbEntity
  8
A-THIN
100
AcDbCircle
 10
13.7
 20
28.080000000000002
 30
0.0
 40
0.05
  0
TEXT
  5
16C
330
17
100
AcDbEntity
  8
A-TEXT
100
AcDbText
 10
13.7
 20
27.68
 30
0.0
 40
0.18
  1
עולה
 11
13.7
 21
27.68
 31
0.0
100
AcDbText
  0
LWPOLYLINE
  5
16D
330
17
100
AcDbEntity
  8
A-THIN
100
AcDbPolyline
 90
4
 70
1
 10
14.399999999999999
 20
30.22
 10
15.599999999999998
 20
30.22
 10
15.599999999999998
 20
30.5
 10
14.399999999999999
 20
30.5
  0
LWPOLYLINE
  5
16E
330
17
100
AcDbEntity
  8
A-THIN
100
AcDbPolyline
 90
4
 70
1
 10
14.399999999999999
 20
29.94
 10
15.599999999999998
 20
29.94
 10
15.599999999999998
 20
30.22
 10
14.399999999999999
 20
30.22
  0
LWPOLYLINE
  5
16F
330
17
100
AcDbEntity
  8
A-THIN
100
AcDbPolyline
 90
4
 70
1
 10
14.399999999999999
 20
29.66
 10
15.599999999999998
 20
29.66
 10
15.599999999999998
 20
29.94
 10
14.399999999999999
 20
29.94
  0
LWPOLYLINE
  5
170
330
17
100
AcDbEntity
  8
A-THIN
100
AcDbPolyline
 90
4
 70
1
 10
14.399999999999999
 20
29.38
 10
15.599999999999998
 20
29.38
 10
15.599999999999998
 20
29.66
 10
14.399999999999999
 20
29.66
  0
LWPOLYLINE
  5
171
330
17
100
AcDbEntity
  8
A-THIN
100
AcDbPolyline
 90
4
 70
1
 10
14.399999999999999
 20
29.1
 10
15.599999999999998
 20
29.1
 10
15.599999999999998
 20
29.38
 10
14.399999999999999
 20
29.38
  0
LWPOLYLINE
  5
172
330
17
100
AcDbEntity
  8
A-THIN
100
AcDbPolyline
 90
4
 70
1
 10
14.399999999999999
 20
28.82
 10
15.599999999999998
 20
28.82
 10
15.599999999999998
 20
29.1
 10
14.399999999999999
 20
29.1
  0
LWPOLYLINE
  5
173
330
17
100
AcDbEntity
  8
A-THIN
100
AcDbPolyline
 90
4
 70
1
 10
14.399999999999999
 20
28.54
 10
15.599999999999998
 20
28.54
 10
15.599999999999998
 20
28.82
 10
14.399999999999999
 20
28.82
  0
LWPOLYLINE
  5
174
330
17
100
AcDbEntity
  8
A-THIN
100
AcDbPolyline
 90
4
 70
1
 10
14.399999999999999
 20
28.259999999999998
 10
15.599999999999998
 20
28.259999999999998
 10
15.599999999999998
 20
28.54
 10
14.399999999999999
 20
28.54
  0
LWPOLYLINE
  5
175
330
17
100
AcDbEntity
  8
A-THIN
100
AcDbPolyline
 90
4
 70
1
 10
14.399999999999999
 20
27.98
 10
15.599999999999998
 20
27.98
 10
15.599999999999998
 20
28.259999999999998
 10
14.399999999999999
 20
28.259999999999998
  0
LWPOLYLINE
  5
176
330
17
100
AcDbEntity
  8
A-THIN
100
AcDbPolyline
 90
2
 70
0
 10
14.999999999999998
 20
28.080000000000002
 10
14.999999999999998
 20
30.2
  0
LWPOLYLINE
  5
177
330
17
100
AcDbEntity
  8
A-THIN
100
AcDbPolyline
 90
3
 70
1
 10
14.909999999999998
 20
30.02
 10
15.089999999999998
 20
30.02
 10
14.999999999999998
 20
30.2
  0
TEXT
  5
178
330
17
100
AcDbEntity
  8
A-TEXT
100
AcDbText
 10
14.999999999999998
 20
27.68
 30
0.0
 40
0.18
  1
יורד
 11
14.999999999999998
 21
27.68
 31
0.0
100
AcDbText
  0
LINE
  5
179
330
17
100
AcDbEntity
  8
A-MAIN
100
AcDbLine
 10
14.35
 20
27.98
 30
0.0
 11
14.35
 21
30.5
 31
0.0
  0
LWPOLYLINE
  5
17A
330
17
100
AcDbEntity
  8
A-THIN
100
AcDbPolyline
 90
4
 70
1
 10
15.95
 20
29.979999999999997
 10
17.25
 20
29.979999999999997
 10
17.25
 20
31.65
 10
15.95
 20
31.65
  0
LINE
  5
17B
330
17
100
AcDbEntity
  8
A-THIN
100
AcDbLine
 10
15.95
 20
29.979999999999997
 30
0.0
 11
17.25
 21
31.65
 31
0.0
  0
LINE
  5
17C
330
17
100
AcDbEntity
  8
A-THIN
100
AcDbLine
 10
17.25
 20
29.979999999999997
 30
0.0
 11
15.95
 21
31.65
 31
0.0
  0
TEXT
  5
17D
330
17
100
AcDbEntity
  8
A-TEXT
100
AcDbText
 10
16.6
 20
31.049999999999997
 30
0.0
 40
0.18
  1
מעלית
 11
16.6
 21
31.049999999999997
 31
0.0
100
AcDbText
  0
LWPOLYLINE
  5
17E
330
17
100
AcDbEntity
  8
A-THIN
100
AcDbPolyline
 90
5
 70
1
 10
25.0
 20
21.0
 10
25.0
 20
21.200000000000003
 10
13.0
 20
21.200000000000003
 10
13.0
 20
21.0
 10
25.0
 20
21.0
  0
LWPOLYLINE
  5
17F
330
17
100
AcDbEntity
  8
A-THIN
100
AcDbPolyline
 90
5
 70
1
 10
25.0
 20
21.0
 10
25.0
 20
25.0
 10
24.799999999999997
 20
25.0
 10
24.799999999999997
 20
21.0
 10
25.0
 20
21.0
  0
HATCH
  5
180
330
17
100
AcDbEntity
  8
A-HATCH
 62
7
100
AcDbHatch
 10
0.0
 20
0.0
 30
0.0
210
0.0
220
0.0
230
1.0
  2
ANSI31
 70
0
 71
0
 91
1
 92
3
 72
0
 73
1
 93
5
 10
13.0
 20
16.299999999999997
 10
13.0
 20
16.099999999999998
 10
12.7
 20
16.099999999999998
 10
12.7
 20
16.299999999999997
 10
13.0
 20
16.299999999999997
 97
0
 75
1
 76
1
 52
0.0
 41
0.25
 77
0
 78
1
 53
45.0
 43
0.0
 44
0.0
 45
-0.5612660076
 46
0.5612660076
 79
0
 98
0
  0
HATCH
  5
181
330
17
100
AcDbEntity
  8
A-HATCH
 62
7
100
AcDbHatch
 10
0.0
 20
0.0
 30
0.0
210
0.0
220
0.0
230
1.0
  2
ANSI31
 70
0
 71
0
 91
1
 92
3
 72
0
 73
1
 93
5
 10
6.0
 20
16.099999999999998
 10
6.0
 20
16.299999999999997
 10
6.3
 20
16.299999999999997
 10
6.3
 20
16.099999999999998
 10
6.0
 20
16.099999999999998
 97
0
 75
1
 76
1
 52
0.0
 41
0.25
 77
0
 78
1
 53
45.0
 43
0.0
 44
0.0
 45
-0.5612660076
 46
0.5612660076
 79
0
 98
0
  0
LWPOLYLINE
  5
182
330
17
100
AcDbEntity
  8
A-THIN
100
AcDbPolyline
 90
5
 70
1
 10
13.0
 20
16.099999999999998
 10
13.0
 20
15.999999999999998
 10
12.7
 20
15.999999999999998
 10
12.7
 20
16.099999999999998
 10
13.0
 20
16.099999999999998
  0
LWPOLYLINE
  5
183
330
17
100
AcDbEntity
  8
A-THIN
100
AcDbPolyline
 90
5
 70
1
 10
6.0
 20
15.999999999999998
 10
6.0
 20
16.099999999999998
 10
6.3
 20
16.099999999999998
 10
6.3
 20
15.999999999999998
 10
6.0
 20
15.999999999999998
  0
HATCH
  5
184
330
17
100
AcDbEntity
  8
A-HATCH
 62
7
100
AcDbHatch
 10
0.0
 20
0.0
 30
0.0
210
0.0
220
0.0
230
1.0
  2
ANSI31
 70
0
 71
0
 91
1
 92
3
 72
0
 73
1
 93
5
 10
12.7
 20
15.999999999999998
 10
12.7
 20
18.0
 10
12.9
 20
18.0
 10
12.9
 20
15.999999999999998
 10
12.7
 20
15.999999999999998
 97
0
 75
1
 76
1
 52
0.0
 41
0.25
 77
0
 78
1
 53
45.0
 43
0.0
 44
0.0
 45
-0.5612660076
 46
0.5612660076
 79
0
 98
0
  0
HATCH
  5
185
330
17
100
AcDbEntity
  8
A-HATCH
 62
7
100
AcDbHatch
 10
0.0
 20
0.0
 30
0.0
210
0.0
220
0.0
230
1.0
  2
ANSI31
 70
0
 71
0
 91
1
 92
3
 72
0
 73
1
 93
5
 10
12.9
 20
25.299999999999997
 10
12.9
 20
24.8
 10
12.7
 20
24.8
 10
12.7
 20
25.299999999999997
 10
12.9
 20
25.299999999999997
 97
0
 75
1
 76
1
 52
0.0
 41
0.25
 77
0
 78
1
 53
45.0
 43
0.0
 44
0.0
 45
-0.5612660076
 46
0.5612660076
 79
0
 98
0
  0
HATCH
  5
186
330
17
100
AcDbEntity
  8
A-HATCH
 62
7
100
AcDbHatch
 10
0.0
 20
0.0
 30
0.0
210
0.0
220
0.0
230
1.0
  2
ANSI31
 70
0
 71
0
 91
1
 92
3
 72
0
 73
1
 93
5
 10
12.9
 20
21.3
 10
12.7
 20
21.3
 10
12.7
 20
22.1
 10
12.9
 20
22.1
 10
12.9
 20
21.3
 97
0
 75
1
 76
1
 52
0.0
 41
0.25
 77
0
 78
1
 53
45.0
 43
0.0
 44
0.0
 45
-0.5612660076
 46
0.5612660076
 79
0
 98
0
  0
LWPOLYLINE
  5
187
330
17
100
AcDbEntity
  8
A-THIN
100
AcDbPolyline
 90
5
 70
1
 10
12.9
 20
15.999999999999998
 10
12.9
 20
18.0
 10
13.0
 20
18.0
 10
13.0
 20
15.999999999999998
 10
12.9
 20
15.999999999999998
  0
LWPOLYLINE
  5
188
330
17
100
AcDbEntity
  8
A-THIN
100
AcDbPolyline
 90
5
 70
1
 10
13.0
 20
25.299999999999997
 10
13.0
 20
24.8
 10
12.9
 20
24.8
 10
12.9
 20
25.299999999999997
 10
13.0
 20
25.299999999999997
  0
LWPOLYLINE
  5
189
330
17
100
AcDbEntity
  8
A-THIN
100
AcDbPolyline
 90
5
 70
1
 10
13.0
 20
21.3
 10
12.9
 20
21.3
 10
12.9
 20
22.1
 10
13.0
 20
22.1
 10
13.0
 20
21.3
  0
HATCH
  5
18A
330
17
100
AcDbEntity
  8
A-HATCH
 62
7
100
AcDbHatch
 10
0.0
 20
0.0
 30
0.0
210
0.0
220
0.0
230
1.0
  2
ANSI31
 70
0
 71
0
 91
1
 92
3
 72
0
 73
1
 93
5
 10
24.4
 20
25.099999999999998
 10
24.4
 20
25.299999999999997
 10
25.0
 20
25.299999999999997
 10
25.0
 20
25.099999999999998
 10
24.4
 20
25.099999999999998
 97
0
 75
1
 76
1
 52
0.0
 41
0.25
 77
0
 78
1
 53
45.0
 43
0.0
 44
0.0
 45
-0.5612660076
 46
0.5612660076
 79
0
 98
0
  0
HATCH
  5
18B
330
17
100
AcDbEntity
  8
A-HATCH
 62
7
100
AcDbHatch
 10
0.0
 20
0.0
 30
0.0
210
0.0
220
0.0
230
1.0
  2
ANSI31
 70
0
 71
0
 91
1
 92
3
 72
0
 73
1
 93
5
 10
19.4
 20
25.099999999999998
 10
19.4
 20
25.299999999999997
 10
20.0
 20
25.299999999999997
 10
20.0
 20
25.099999999999998
 10
19.4
 20
25.099999999999998
 97
0
 75
1
 76
1
 52
0.0
 41
0.25
 77
0
 78
1
 53
45.0
 43
0.0
 44
0.0
 45
-0.5612660076
 46
0.5612660076
 79
0
 98
0
  0
HATCH
  5
18C
330
17
100
AcDbEntity
  8
A-HATCH
 62
7
100
AcDbHatch
 10
0.0
 20
0.0
 30
0.0
210
0.0
220
0.0
230
1.0
  2
ANSI31
 70
0
 71
0
 91
1
 92
3
 72
0
 73
1
 93
5
 10
15.5
 20
25.299999999999997
 10
15.8
 20
25.299999999999997
 10
15.8
 20
25.099999999999998
 10
15.5
 20
25.099999999999998
 10
15.5
 20
25.299999999999997
 97
0
 75
1
 76
1
 52
0.0
 41
0.25
 77
0
 78
1
 53
45.0
 43
0.0
 44
0.0
 45
-0.5612660076
 46
0.5612660076
 79
0
 98
0
  0
HATCH
  5
18D
330
17
100
AcDbEntity
  8
A-HATCH
 62
7
100
AcDbHatch
 10
0.0
 20
0.0
 30
0.0
210
0.0
220
0.0
230
1.0
  2
ANSI31
 70
0
 71
0
 91
1
 92
3
 72
0
 73
1
 93
5
 10
13.4
 20
25.299999999999997
 10
13.4
 20
25.099999999999998
 10
12.7
 20
25.099999999999998
 10
12.7
 20
25.299999999999997
 10
13.4
 20
25.299999999999997
 97
0
 75
1
 76
1
 52
0.0
 41
0.25
 77
0
 78
1
 53
45.0
 43
0.0
 44
0.0
 45
-0.5612660076
 46
0.5612660076
 79
0
 98
0
  0
LWPOLYLINE
  5
18E
330
17
100
AcDbEntity
  8
A-THIN
100
AcDbPolyline
 90
5
 70
1
 10
24.4
 20
25.0
 10
24.4
 20
25.099999999999998
 10
25.0
 20
25.099999999999998
 10
25.0
 20
25.0
 10
24.4
 20
25.0
  0
LWPOLYLINE
  5
18F
330
17
100
AcDbEntity
  8
A-THIN
100
AcDbPolyline
 90
5
 70
1
 10
19.4
 20
25.0
 10
19.4
 20
25.099999999999998
 10
20.0
 20
25.099999999999998
 10
20.0
 20
25.0
 10
19.4
 20
25.0
  0
LWPOLYLINE
  5
190
330
17
100
AcDbEntity
  8
A-THIN
100
AcDbPolyline
 90
5
 70
1
 10
15.5
 20
25.099999999999998
 10
15.8
 20
25.099999999999998
 10
15.8
 20
25.0
 10
15.5
 20
25.0
 10
15.5
 20
25.099999999999998
  0
LWPOLYLINE
  5
191
330
17
100
AcDbEntity
  8
A-THIN
100
AcDbPolyline
 90
5
 70
1
 10
13.4
 20
25.099999999999998
 10
13.4
 20
25.0
 10
12.7
 20
25.0
 10
12.7
 20
25.099999999999998
 10
13.4
 20
25.099999999999998
  0
HATCH
  5
192
330
17
100
AcDbEntity
  8
A-HATCH
 62
7
100
AcDbHatch
 10
0.0
 20
0.0
 30
0.0
210
0.0
220
0.0
230
1.0
  2
ANSI31
 70
0
 71
0
 91
1
 92
3
 72
0
 73
1
 93
5
 10
24.900000000000002
 20
25.0
 10
24.700000000000003
 20
25.0
 10
24.700000000000003
 20
25.7
 10
24.900000000000002
 20
25.7
 10
24.900000000000002
 20
25.0
 97
0
 75
1
 76
1
 52
0.0
 41
0.25
 77
0
 78
1
 53
45.0
 43
0.0
 44
0.0
 45
-0.5612660076
 46
0.5612660076
 79
0
 98
0
  0
HATCH
  5
193
330
17
100
AcDbEntity
  8
A-HATCH
 62
7
100
AcDbHatch
 10
0.0
 20
0.0
 30
0.0
210
0.0
220
0.0
230
1.0
  2
ANSI31
 70
0
 71
0
 91
1
 92
3
 72
0
 73
1
 93
5
 10
24.700000000000003
 20
32.0
 10
24.900000000000002
 20
32.0
 10
24.900000000000002
 20
28.7
 10
24.700000000000003
 20
28.7
 10
24.700000000000003
 20
32.0
 97
0
 75
1
 76
1
 52
0.0
 41
0.25
 77
0
 78
1
 53
45.0
 43
0.0
 44
0.0
 45
-0.5612660076
 46
0.5612660076
 79
0
 98
0
  0
LWPOLYLINE
  5
194
330
17
100
AcDbEntity
  8
A-THIN
100
AcDbPolyline
 90
5
 70
1
 10
25.0
 20
25.0
 10
24.900000000000002
 20
25.0
 10
24.900000000000002
 20
25.7
 10
25.0
 20
25.7
 10
25.0
 20
25.0
  0
LWPOLYLINE
  5
195
330
17
100
AcDbEntity
  8
A-THIN
100
AcDbPolyline
 90
5
 70
1
 10
24.900000000000002
 20
32.0
 10
25.0
 20
32.0
 10
25.0
 20
28.7
 10
24.900000000000002
 20
28.7
 10
24.900000000000002
 20
32.0
  0
HATCH
  5
196
330
17
100
AcDbEntity
  8
A-HATCH
 62
7
100
AcDbHatch
 10
0.0
 20
0.0
 30
0.0
210
0.0
220
0.0
230
1.0
  2
ANSI31
 70
0
 71
0
 91
1
 92
3
 72
0
 73
1
 93
5
 10
11.2
 20
31.700000000000003
 10
11.2
 20
31.900000000000002
 10
6.0
 20
31.900000000000002
 10
6.0
 20
31.700000000000003
 10
11.2
 20
31.700000000000003
 97
0
 75
1
 76
1
 52
0.0
 41
0.4
 77
0
 78
1
 53
45.0
 43
0.0
 44
0.0
 45
-0.8980256121
 46
0.8980256121
 79
0
 98
0
  0
LWPOLYLINE
  5
197
330
17
100
AcDbEntity
  8
A-THIN
100
AcDbPolyline
 90
5
 70
1
 10
11.2
 20
31.900000000000002
 10
11.2
 20
32.0
 10
6.0
 20
32.0
 10
6.0
 20
31.900000000000002
 10
11.2
 20
31.900000000000002
  0
HATCH
  5
198
330
17
100
AcDbEntity
  8
A-HATCH
 62
7
100
AcDbHatch
 10
0.0
 20
0.0
 30
0.0
210
0.0
220
0.0
230
1.0
  2
ANSI31
 70
0
 71
0
 91
1
 92
3
 72
0
 73
1
 93
5
 10
19.2
 20
31.900000000000002
 10
22.3
 20
31.900000000000002
 10
22.3
 20
31.700000000000003
 10
19.2
 20
31.700000000000003
 10
19.2
 20
31.900000000000002
 97
0
 75
1
 76
1
 52
0.0
 41
0.25
 77
0
 78
1
 53
45.0
 43
0.0
 44
0.0
 45
-0.5612660076
 46
0.5612660076
 79
0
 98
0
  0
HATCH
  5
199
330
17
100
AcDbEntity
  8
A-HATCH
 62
7
100
AcDbHatch
 10
0.0
 20
0.0
 30
0.0
210
0.0
220
0.0
230
1.0
  2
ANSI31
 70
0
 71
0
 91
1
 92
3
 72
0
 73
1
 93
5
 10
25.0
 20
31.900000000000002
 10
25.0
 20
31.700000000000003
 10
24.2
 20
31.700000000000003
 10
24.2
 20
31.900000000000002
 10
25.0
 20
31.900000000000002
 97
0
 75
1
 76
1
 52
0.0
 41
0.25
 77
0
 78
1
 53
45.0
 43
0.0
 44
0.0
 45
-0.5612660076
 46
0.5612660076
 79
0
 98
0
  0
HATCH
  5
19A
330
17
100
AcDbEntity
  8
A-HATCH
 62
7
100
AcDbHatch
 10
0.0
 20
0.0
 30
0.0
210
0.0
220
0.0
230
1.0
  2
ANSI31
 70
0
 71
0
 91
1
 92
3
 72
0
 73
1
 93
5
 10
15.3
 20
31.900000000000002
 10
17.9
 20
31.900000000000002
 10
17.9
 20
31.700000000000003
 10
15.3
 20
31.700000000000003
 10
15.3
 20
31.900000000000002
 97
0
 75
1
 76
1
 52
0.0
 41
0.25
 77
0
 78
1
 53
45.0
 43
0.0
 44
0.0
 45
-0.5612660076
 46
0.5612660076
 79
0
 98
0
  0
HATCH
  5
19B
330
17
100
AcDbEntity
  8
A-HATCH
 62
7
100
AcDbHatch
 10
0.0
 20
0.0
 30
0.0
210
0.0
220
0.0
230
1.0
  2
ANSI31
 70
0
 71
0
 91
1
 92
3
 72
0
 73
1
 93
5
 10
13.4
 20
31.900000000000002
 10
13.4
 20
31.700000000000003
 10
12.7
 20
31.700000000000003
 10
12.7
 20
31.900000000000002
 10
13.4
 20
31.900000000000002
 97
0
 75
1
 76
1
 52
0.0
 41
0.25
 77
0
 78
1
 53
45.0
 43
0.0
 44
0.0
 45
-0.5612660076
 46
0.5612660076
 79
0
 98
0
  0
HATCH
  5
19C
330
17
100
AcDbEntity
  8
A-HATCH
 62
7
100
AcDbHatch
 10
0.0
 20
0.0
 30
0.0
210
0.0
220
0.0
230
1.0
  2
ANSI31
 70
0
 71
0
 91
1
 92
3
 72
0
 73
1
 93
5
 10
11.7
 20
31.700000000000003
 10
11.2
 20
31.700000000000003
 10
11.2
 20
31.900000000000002
 10
11.7
 20
31.900000000000002
 10
11.7
 20
31.700000000000003
 97
0
 75
1
 76
1
 52
0.0
 41
0.25
 77
0
 78
1
 53
45.0
 43
0.0
 44
0.0
 45
-0.5612660076
 46
0.5612660076
 79
0
 98
0
  0
LWPOLYLINE
  5
19D
330
17
100
AcDbEntity
  8
A-THIN
100
AcDbPolyline
 90
5
 70
1
 10
19.2
 20
32.0
 10
22.3
 20
32.0
 10
22.3
 20
31.900000000000002
 10
19.2
 20
31.900000000000002
 10
19.2
 20
32.0
  0
LWPOLYLINE
  5
19E
330
17
100
AcDbEntity
  8
A-THIN
100
AcDbPolyline
 90
5
 70
1
 10
25.0
 20
32.0
 10
25.0
 20
31.900000000000002
 10
24.2
 20
31.900000000000002
 10
24.2
 20
32.0
 10
25.0
 20
32.0
  0
LWPOLYLINE
  5
19F
330
17
100
AcDbEntity
  8
A-THIN
100
AcDbPolyline
 90
5
 70
1
 10
15.3
 20
32.0
 10
17.9
 20
32.0
 10
17.9
 20
31.900000000000002
 10
15.3
 20
31.900000000000002
 10
15.3
 20
32.0
  0
LWPOLYLINE
  5
1A0
330
17
100
AcDbEntity
  8
A-THIN
100
AcDbPolyline
 90
5
 70
1
 10
13.4
 20
32.0
 10
13.4
 20
31.900000000000002
 10
12.7
 20
31.900000000000002
 10
12.7
 20
32.0
 10
13.4
 20
32.0
  0
LWPOLYLINE
  5
1A1
330
17
100
AcDbEntity
  8
A-THIN
100
AcDbPolyline
 90
5
 70
1
 10
11.7
 20
31.900000000000002
 10
11.2
 20
31.900000000000002
 10
11.2
 20
32.0
 10
11.7
 20
32.0
 10
11.7
 20
31.900000000000002
  0
HATCH
  5
1A2
330
17
100
AcDbEntity
  8
A-HATCH
 62
7
100
AcDbHatch
 10
0.0
 20
0.0
 30
0.0
210
0.0
220
0.0
230
1.0
  2
ANSI31
 70
0
 71
0
 91
1
 92
3
 72
0
 73
1
 93
5
 10
6.1000000000000005
 20
17.9
 10
6.300000000000001
 20
17.9
 10
6.300000000000001
 20
15.999999999999998
 10
6.1000000000000005
 20
15.999999999999998
 10
6.1000000000000005
 20
17.9
 97
0
 75
1
 76
1
 52
0.0
 41
0.25
 77
0
 78
1
 53
45.0
 43
0.0
 44
0.0
 45
-0.5612660076
 46
0.5612660076
 79
0
 98
0
  0
HATCH
  5
1A3
330
17
100
AcDbEntity
  8
A-HATCH
 62
7
100
AcDbHatch
 10
0.0
 20
0.0
 30
0.0
210
0.0
220
0.0
230
1.0
  2
ANSI31
 70
0
 71
0
 91
1
 92
3
 72
0
 73
1
 93
5
 10
6.300000000000001
 20
26.75
 10
6.1000000000000005
 20
26.75
 10
6.1000000000000005
 20
26.96
 10
6.300000000000001
 20
26.96
 10
6.300000000000001
 20
26.75
 97
0
 75
1
 76
1
 52
0.0
 41
0.25
 77
0
 78
1
 53
45.0
 43
0.0
 44
0.0
 45
-0.5612660076
 46
0.5612660076
 79
0
 98
0
  0
HATCH
  5
1A4
330
17
100
AcDbEntity
  8
A-HATCH
 62
7
100
AcDbHatch
 10
0.0
 20
0.0
 30
0.0
210
0.0
220
0.0
230
1.0
  2
ANSI31
 70
0
 71
0
 91
1
 92
3
 72
0
 73
1
 93
5
 10
6.300000000000001
 20
24.6
 10
6.1000000000000005
 20
24.6
 10
6.1000000000000005
 20
25.5
 10
6.300000000000001
 20
25.5
 10
6.300000000000001
 20
24.6
 97
0
 75
1
 76
1
 52
0.0
 41
0.25
 77
0
 78
1
 53
45.0
 43
0.0
 44
0.0
 45
-0.5612660076
 46
0.5612660076
 79
0
 98
0
  0
HATCH
  5
1A5
330
17
100
AcDbEntity
  8
A-HATCH
 62
7
100
AcDbHatch
 10
0.0
 20
0.0
 30
0.0
210
0.0
220
0.0
230
1.0
  2
ANSI31
 70
0
 71
0
 91
1
 92
3
 72
0
 73
1
 93
5
 10
6.1000000000000005
 20
21.4
 10
6.1000000000000005
 20
22.2
 10
6.300000000000001
 20
22.2
 10
6.300000000000001
 20
21.4
 10
6.1000000000000005
 20
21.4
 97
0
 75
1
 76
1
 52
0.0
 41
0.25
 77
0
 78
1
 53
45.0
 43
0.0
 44
0.0
 45
-0.5612660076
 46
0.5612660076
 79
0
 98
0
  0
LWPOLYLINE
  5
1A6
330
17
100
AcDbEntity
  8
A-THIN
100
AcDbPolyline
 90
5
 70
1
 10
6.0
 20
17.9
 10
6.1000000000000005
 20
17.9
 10
6.1000000000000005
 20
15.999999999999998
 10
6.0
 20
15.999999999999998
 10
6.0
 20
17.9
  0
LWPOLYLINE
  5
1A7
330
17
100
AcDbEntity
  8
A-THIN
100
AcDbPolyline
 90
5
 70
1
 10
6.1000000000000005
 20
26.75
 10
6.0
 20
26.75
 10
6.0
 20
26.96
 10
6.1000000000000005
 20
26.96
 10
6.1000000000000005
 20
26.75
  0
LWPOLYLINE
  5
1A8
330
17
100
AcDbEntity
  8
A-THIN
100
AcDbPolyline
 90
5
 70
1
 10
6.1000000000000005
 20
24.6
 10
6.0
 20
24.6
 10
6.0
 20
25.5
 10
6.1000000000000005
 20
25.5
 10
6.1000000000000005
 20
24.6
  0
LWPOLYLINE
  5
1A9
330
17
100
AcDbEntity
  8
A-THIN
100
AcDbPolyline
 90
5
 70
1
 10
6.0
 20
21.4
 10
6.0
 20
22.2
 10
6.1000000000000005
 20
22.2
 10
6.1000000000000005
 20
21.4
 10
6.0
 20
21.4
  0
HATCH
  5
1AA
330
17
100
AcDbEntity
  8
A-HATCH
 62
7
100
AcDbHatch
 10
0.0
 20
0.0
 30
0.0
210
0.0
220
0.0
230
1.0
  2
ANSI31
 70
0
 71
0
 91
1
 92
3
 72
0
 73
1
 93
5
 10
6.300000000000001
 20
26.96
 10
6.1000000000000005
 20
26.96
 10
6.1000000000000005
 20
28.6
 10
6.300000000000001
 20
28.6
 10
6.300000000000001
 20
26.96
 97
0
 75
1
 76
1
 52
0.0
 41
0.4
 77
0
 78
1
 53
45.0
 43
0.0
 44
0.0
 45
-0.8980256121
 46
0.8980256121
 79
0
 98
0
  0
HATCH
  5
1AB
330
17
100
AcDbEntity
  8
A-HATCH
 62
7
100
AcDbHatch
 10
0.0
 20
0.0
 30
0.0
210
0.0
220
0.0
230
1.0
  2
ANSI31
 70
0
 71
0
 91
1
 92
3
 72
0
 73
1
 93
5
 10
6.1000000000000005
 20
32.0
 10
6.300000000000001
 20
32.0
 10
6.300000000000001
 20
29.6
 10
6.1000000000000005
 20
29.6
 10
6.1000000000000005
 20
32.0
 97
0
 75
1
 76
1
 52
0.0
 41
0.4
 77
0
 78
1
 53
45.0
 43
0.0
 44
0.0
 45
-0.8980256121
 46
0.8980256121
 79
0
 98
0
  0
LWPOLYLINE
  5
1AC
330
17
100
AcDbEntity
  8
A-THIN
100
AcDbPolyline
 90
5
 70
1
 10
6.1000000000000005
 20
26.96
 10
6.0
 20
26.96
 10
6.0
 20
28.6
 10
6.1000000000000005
 20
28.6
 10
6.1000000000000005
 20
26.96
  0
LWPOLYLINE
  5
1AD
330
17
100
AcDbEntity
  8
A-THIN
100
AcDbPolyline
 90
5
 70
1
 10
6.0
 20
32.0
 10
6.1000000000000005
 20
32.0
 10
6.1000000000000005
 20
29.6
 10
6.0
 20
29.6
 10
6.0
 20
32.0
  0
HATCH
  5
1AE
330
17
100
AcDbEntity
  8
A-HATCH
 62
7
100
AcDbHatch
 10
0.0
 20
0.0
 30
0.0
210
0.0
220
0.0
230
1.0
  2
ANSI37
 70
0
 71
0
 91
1
 92
3
 72
0
 73
1
 93
5
 10
12.7
 20
17.700000000000003
 10
12.7
 20
17.5
 10
12.6
 20
17.5
 10
12.6
 20
17.700000000000003
 10
12.7
 20
17.700000000000003
 97
0
 75
1
 76
1
 52
0.0
 41
0.2
 77
0
 78
2
 53
45.0
 43
0.0
 44
0.0
 45
-0.4490128061
 46
0.4490128061
 79
0
 53
135.0
 43
0.0
 44
0.0
 45
-0.4490128061
 46
-0.4490128061
 79
0
 98
0
  0
HATCH
  5
1AF
330
17
100
AcDbEntity
  8
A-HATCH
 62
7
100
AcDbHatch
 10
0.0
 20
0.0
 30
0.0
210
0.0
220
0.0
230
1.0
  2
ANSI37
 70
0
 71
0
 91
1
 92
3
 72
0
 73
1
 93
5
 10
6.3
 20
17.5
 10
6.3
 20
17.700000000000003
 10
6.4
 20
17.700000000000003
 10
6.4
 20
17.5
 10
6.3
 20
17.5
 97
0
 75
1
 76
1
 52
0.0
 41
0.2
 77
0
 78
2
 53
45.0
 43
0.0
 44
0.0
 45
-0.4490128061
 46
0.4490128061
 79
0
 53
135.0
 43
0.0
 44
0.0
 45
-0.4490128061
 46
-0.4490128061
 79
0
 98
0
  0
HATCH
  5
1B0
330
17
100
AcDbEntity
  8
A-HATCH
 62
7
100
AcDbHatch
 10
0.0
 20
0.0
 30
0.0
210
0.0
220
0.0
230
1.0
  2
ANSI37
 70
0
 71
0
 91
1
 92
3
 72
0
 73
1
 93
5
 10
12.7
 20
21.72
 10
12.7
 20
21.6
 10
12.4
 20
21.6
 10
12.4
 20
21.72
 10
12.7
 20
21.72
 97
0
 75
1
 76
1
 52
0.0
 41
0.2
 77
0
 78
2
 53
45.0
 43
0.0
 44
0.0
 45
-0.4490128061
 46
0.4490128061
 79
0
 53
135.0
 43
0.0
 44
0.0
 45
-0.4490128061
 46
-0.4490128061
 79
0
 98
0
  0
HATCH
  5
1B1
330
17
100
AcDbEntity
  8
A-HATCH
 62
7
100
AcDbHatch
 10
0.0
 20
0.0
 30
0.0
210
0.0
220
0.0
230
1.0
  2
ANSI37
 70
0
 71
0
 91
1
 92
3
 72
0
 73
1
 93
5
 10
6.3
 20
21.6
 10
6.3
 20
21.72
 10
10.6
 20
21.72
 10
10.6
 20
21.6
 10
6.3
 20
21.6
 97
0
 75
1
 76
1
 52
0.0
 41
0.2
 77
0
 78
2
 53
45.0
 43
0.0
 44
0.0
 45
-0.4490128061
 46
0.4490128061
 79
0
 53
135.0
 43
0.0
 44
0.0
 45
-0.4490128061
 46
-0.4490128061
 79
0
 98
0
  0
HATCH
  5
1B2
330
17
100
AcDbEntity
  8
A-HATCH
 62
7
100
AcDbHatch
 10
0.0
 20
0.0
 30
0.0
210
0.0
220
0.0
230
1.0
  2
ANSI37
 70
0
 71
0
 91
1
 92
3
 72
0
 73
1
 93
5
 10
9.620000000000001
 20
21.72
 10
9.5
 20
21.72
 10
9.5
 20
24.2
 10
9.620000000000001
 20
24.2
 10
9.620000000000001
 20
21.72
 97
0
 75
1
 76
1
 52
0.0
 41
0.2
 77
0
 78
2
 53
45.0
 43
0.0
 44
0.0
 45
-0.4490128061
 46
0.4490128061
 79
0
 53
135.0
 43
0.0
 44
0.0
 45
-0.4490128061
 46
-0.4490128061
 79
0
 98
0
  0
HATCH
  5
1B3
330
17
100
AcDbEntity
  8
A-HATCH
 62
7
100
AcDbHatch
 10
0.0
 20
0.0
 30
0.0
210
0.0
220
0.0
230
1.0
  2
ANSI37
 70
0
 71
0
 91
1
 92
3
 72
0
 73
1
 93
5
 10
9.5
 20
25.24
 10
9.620000000000001
 20
25.24
 10
9.620000000000001
 20
25.0
 10
9.5
 20
25.0
 10
9.5
 20
25.24
 97
0
 75
1
 76
1
 52
0.0
 41
0.2
 77
0
 78
2
 53
45.0
 43
0.0
 44
0.0
 45
-0.4490128061
 46
0.4490128061
 79
0
 53
135.0
 43
0.0
 44
0.0
 45
-0.4490128061
 46
-0.4490128061
 79
0
 98
0
  0
HATCH
  5
1B4
330
17
100
AcDbEntity
  8
A-HATCH
 62
7
100
AcDbHatch
 10
0.0
 20
0.0
 30
0.0
210
0.0
220
0.0
230
1.0
  2
ANSI37
 70
0
 71
0
 91
1
 92
3
 72
0
 73
1
 93
5
 10
12.7
 20
25.36
 10
12.7
 20
25.240000000000002
 10
12.4
 20
25.240000000000002
 10
12.4
 20
25.36
 10
12.7
 20
25.36
 97
0
 75
1
 76
1
 52
0.0
 41
0.2
 77
0
 78
2
 53
45.0
 43
0.0
 44
0.0
 45
-0.4490128061
 46
0.4490128061
 79
0
 53
135.0
 43
0.0
 44
0.0
 45
-0.4490128061
 46
-0.4490128061
 79
0
 98
0
  0
HATCH
  5
1B5
330
17
100
AcDbEntity
  8
A-HATCH
 62
7
100
AcDbHatch
 10
0.0
 20
0.0
 30
0.0
210
0.0
220
0.0
230
1.0
  2
ANSI37
 70
0
 71
0
 91
1
 92
3
 72
0
 73
1
 93
5
 10
6.3
 20
25.240000000000002
 10
6.3
 20
25.36
 10
11.5
 20
25.36
 10
11.5
 20
25.240000000000002
 10
6.3
 20
25.240000000000002
 97
0
 75
1
 76
1
 52
0.0
 41
0.2
 77
0
 78
2
 53
45.0
 43
0.0
 44
0.0
 45
-0.4490128061
 46
0.4490128061
 79
0
 53
135.0
 43
0.0
 44
0.0
 45
-0.4490128061
 46
-0.4490128061
 79
0
 98
0
  0
HATCH
  5
1B6
330
17
100
AcDbEntity
  8
A-HATCH
 62
7
100
AcDbHatch
 10
0.0
 20
0.0
 30
0.0
210
0.0
220
0.0
230
1.0
  2
ANSI37
 70
0
 71
0
 91
1
 92
3
 72
0
 73
1
 93
5
 10
13.12
 20
27.02
 10
13.12
 20
26.900000000000002
 10
12.2
 20
26.900000000000002
 10
12.2
 20
27.02
 10
13.12
 20
27.02
 97
0
 75
1
 76
1
 52
0.0
 41
0.2
 77
0
 78
2
 53
45.0
 43
0.0
 44
0.0
 45
-0.4490128061
 46
0.4490128061
 79
0
 53
135.0
 43
0.0
 44
0.0
 45
-0.4490128061
 46
-0.4490128061
 79
0
 98
0
  0
HATCH
  5
1B7
330
17
100
AcDbEntity
  8
A-HATCH
 62
7
100
AcDbHatch
 10
0.0
 20
0.0
 30
0.0
210
0.0
220
0.0
230
1.0
  2
ANSI37
 70
0
 71
0
 91
1
 92
3
 72
0
 73
1
 93
5
 10
11.2
 20
26.900000000000002
 10
11.2
 20
27.02
 10
11.4
 20
27.02
 10
11.4
 20
26.900000000000002
 10
11.2
 20
26.900000000000002
 97
0
 75
1
 76
1
 52
0.0
 41
0.2
 77
0
 78
2
 53
45.0
 43
0.0
 44
0.0
 45
-0.4490128061
 46
0.4490128061
 79
0
 53
135.0
 43
0.0
 44
0.0
 45
-0.4490128061
 46
-0.4490128061
 79
0
 98
0
  0
HATCH
  5
1B8
330
17
100
AcDbEntity
  8
A-HATCH
 62
7
100
AcDbHatch
 10
0.0
 20
0.0
 30
0.0
210
0.0
220
0.0
230
1.0
  2
ANSI31
 70
0
 71
0
 91
1
 92
3
 72
0
 73
1
 93
5
 10
11.200000000000001
 20
26.96
 10
11.200000000000001
 20
31.7
 10
10.9
 20
31.7
 10
10.9
 20
26.96
 10
11.200000000000001
 20
26.96
 97
0
 75
1
 76
1
 52
0.0
 41
0.4
 77
0
 78
1
 53
45.0
 43
0.0
 44
0.0
 45
-0.8980256121
 46
0.8980256121
 79
0
 98
0
  0
HATCH
  5
1B9
330
17
100
AcDbEntity
  8
A-HATCH
 62
7
100
AcDbHatch
 10
0.0
 20
0.0
 30
0.0
210
0.0
220
0.0
230
1.0
  2
ANSI31
 70
0
 71
0
 91
1
 92
3
 72
0
 73
1
 93
5
 10
10.9
 20
27.259999999999998
 10
10.9
 20
26.96
 10
9.8
 20
26.96
 10
9.8
 20
27.259999999999998
 10
10.9
 20
27.259999999999998
 97
0
 75
1
 76
1
 52
0.0
 41
0.4
 77
0
 78
1
 53
45.0
 43
0.0
 44
0.0
 45
-0.8980256121
 46
0.8980256121
 79
0
 98
0
  0
HATCH
  5
1BA
330
17
100
AcDbEntity
  8
A-HATCH
 62
7
100
AcDbHatch
 10
0.0
 20
0.0
 30
0.0
210
0.0
220
0.0
230
1.0
  2
ANSI31
 70
0
 71
0
 91
1
 92
3
 72
0
 73
1
 93
5
 10
6.3
 20
26.96
 10
6.3
 20
27.259999999999998
 10
9.0
 20
27.259999999999998
 10
9.0
 20
26.96
 10
6.3
 20
26.96
 97
0
 75
1
 76
1
 52
0.0
 41
0.4
 77
0
 78
1
 53
45.0
 43
0.0
 44
0.0
 45
-0.8980256121
 46
0.8980256121
 79
0
 98
0
  0
HATCH
  5
1BB
330
17
100
AcDbEntity
  8
A-HATCH
 62
7
100
AcDbHatch
 10
0.0
 20
0.0
 30
0.0
210
0.0
220
0.0
230
1.0
  2
ANSI31
 70
0
 71
0
 91
1
 92
3
 72
0
 73
1
 93
5
 10
6.3999999999999995
 20
27.26
 10
6.3999999999999995
 20
31.6
 10
6.3
 20
31.6
 10
6.3
 20
27.26
 10
6.3999999999999995
 20
27.26
 97
0
 75
1
 76
1
 52
0.0
 41
0.4
 77
0
 78
1
 53
45.0
 43
0.0
 44
0.0
 45
-0.8980256121
 46
0.8980256121
 79
0
 98
0
  0
HATCH
  5
1BC
330
17
100
AcDbEntity
  8
A-HATCH
 62
7
100
AcDbHatch
 10
0.0
 20
0.0
 30
0.0
210
0.0
220
0.0
230
1.0
  2
ANSI31
 70
0
 71
0
 91
1
 92
3
 72
0
 73
1
 93
5
 10
10.9
 20
31.599999999999998
 10
10.9
 20
31.7
 10
6.3
 20
31.7
 10
6.3
 20
31.599999999999998
 10
10.9
 20
31.599999999999998
 97
0
 75
1
 76
1
 52
0.0
 41
0.4
 77
0
 78
1
 53
45.0
 43
0.0
 44
0.0
 45
-0.8980256121
 46
0.8980256121
 79
0
 98
0
  0
HATCH
  5
1BD
330
17
100
AcDbEntity
  8
A-HATCH
 62
7
100
AcDbHatch
 10
0.0
 20
0.0
 30
0.0
210
0.0
220
0.0
230
1.0
  2
ANSI37
 70
0
 71
0
 91
1
 92
3
 72
0
 73
1
 93
5
 10
13.1
 20
26.96
 10
13.1
 20
31.7
 10
12.979999999999999
 20
31.7
 10
12.979999999999999
 20
26.96
 10
13.1
 20
26.96
 97
0
 75
1
 76
1
 52
0.0
 41
0.2
 77
0
 78
2
 53
45.0
 43
0.0
 44
0.0
 45
-0.4490128061
 46
0.4490128061
 79
0
 53
135.0
 43
0.0
 44
0.0
 45
-0.4490128061
 46
-0.4490128061
 79
0
 98
0
  0
HATCH
  5
1BE
330
17
100
AcDbEntity
  8
A-HATCH
 62
7
100
AcDbHatch
 10
0.0
 20
0.0
 30
0.0
210
0.0
220
0.0
230
1.0
  2
ANSI37
 70
0
 71
0
 91
1
 92
3
 72
0
 73
1
 93
5
 10
17.619999999999997
 20
29.7
 10
17.619999999999997
 20
31.7
 10
17.5
 20
31.7
 10
17.5
 20
29.7
 10
17.619999999999997
 20
29.7
 97
0
 75
1
 76
1
 52
0.0
 41
0.2
 77
0
 78
2
 53
45.0
 43
0.0
 44
0.0
 45
-0.4490128061
 46
0.4490128061
 79
0
 53
135.0
 43
0.0
 44
0.0
 45
-0.4490128061
 46
-0.4490128061
 79
0
 98
0
  0
HATCH
  5
1BF
330
17
100
AcDbEntity
  8
A-HATCH
 62
7
100
AcDbHatch
 10
0.0
 20
0.0
 30
0.0
210
0.0
220
0.0
230
1.0
  2
ANSI37
 70
0
 71
0
 91
1
 92
3
 72
0
 73
1
 93
5
 10
19.72
 20
25.3
 10
19.6
 20
25.3
 10
19.6
 20
26.0
 10
19.72
 20
26.0
 10
19.72
 20
25.3
 97
0
 75
1
 76
1
 52
0.0
 41
0.2
 77
0
 78
2
 53
45.0
 43
0.0
 44
0.0
 45
-0.4490128061
 46
0.4490128061
 79
0
 53
135.0
 43
0.0
 44
0.0
 45
-0.4490128061
 46
-0.4490128061
 79
0
 98
0
  0
HATCH
  5
1C0
330
17
100
AcDbEntity
  8
A-HATCH
 62
7
100
AcDbHatch
 10
0.0
 20
0.0
 30
0.0
210
0.0
220
0.0
230
1.0
  2
ANSI37
 70
0
 71
0
 91
1
 92
3
 72
0
 73
1
 93
5
 10
19.6
 20
31.7
 10
19.72
 20
31.7
 10
19.72
 20
26.9
 10
19.6
 20
26.9
 10
19.6
 20
31.7
 97
0
 75
1
 76
1
 52
0.0
 41
0.2
 77
0
 78
2
 53
45.0
 43
0.0
 44
0.0
 45
-0.4490128061
 46
0.4490128061
 79
0
 53
135.0
 43
0.0
 44
0.0
 45
-0.4490128061
 46
-0.4490128061
 79
0
 98
0
  0
HATCH
  5
1C1
330
17
100
AcDbEntity
  8
A-HATCH
 62
7
100
AcDbHatch
 10
0.0
 20
0.0
 30
0.0
210
0.0
220
0.0
230
1.0
  2
ANSI37
 70
0
 71
0
 91
1
 92
3
 72
0
 73
1
 93
5
 10
19.66
 20
29.7
 10
19.66
 20
29.580000000000002
 10
19.1
 20
29.580000000000002
 10
19.1
 20
29.7
 10
19.66
 20
29.7
 97
0
 75
1
 76
1
 52
0.0
 41
0.2
 77
0
 78
2
 53
45.0
 43
0.0
 44
0.0
 45
-0.4490128061
 46
0.4490128061
 79
0
 53
135.0
 43
0.0
 44
0.0
 45
-0.4490128061
 46
-0.4490128061
 79
0
 98
0
  0
HATCH
  5
1C2
330
17
100
AcDbEntity
  8
A-HATCH
 62
7
100
AcDbHatch
 10
0.0
 20
0.0
 30
0.0
210
0.0
220
0.0
230
1.0
  2
ANSI37
 70
0
 71
0
 91
1
 92
3
 72
0
 73
1
 93
5
 10
17.56
 20
29.580000000000002
 10
17.56
 20
29.7
 10
18.3
 20
29.7
 10
18.3
 20
29.580000000000002
 10
17.56
 20
29.580000000000002
 97
0
 75
1
 76
1
 52
0.0
 41
0.2
 77
0
 78
2
 53
45.0
 43
0.0
 44
0.0
 45
-0.4490128061
 46
0.4490128061
 79
0
 53
135.0
 43
0.0
 44
0.0
 45
-0.4490128061
 46
-0.4490128061
 79
0
 98
0
  0
HATCH
  5
1C3
330
17
100
AcDbEntity
  8
A-HATCH
 62
7
100
AcDbHatch
 10
0.0
 20
0.0
 30
0.0
210
0.0
220
0.0
230
1.0
  2
ANSI37
 70
0
 71
0
 91
1
 92
3
 72
0
 73
1
 93
5
 10
24.7
 20
29.52
 10
24.7
 20
29.400000000000002
 10
21.3
 20
29.400000000000002
 10
21.3
 20
29.52
 10
24.7
 20
29.52
 97
0
 75
1
 76
1
 52
0.0
 41
0.2
 77
0
 78
2
 53
45.0
 43
0.0
 44
0.0
 45
-0.4490128061
 46
0.4490128061
 79
0
 53
135.0
 43
0.0
 44
0.0
 45
-0.4490128061
 46
-0.4490128061
 79
0
 98
0
  0
HATCH
  5
1C4
330
17
100
AcDbEntity
  8
A-HATCH
 62
7
100
AcDbHatch
 10
0.0
 20
0.0
 30
0.0
210
0.0
220
0.0
230
1.0
  2
ANSI37
 70
0
 71
0
 91
1
 92
3
 72
0
 73
1
 93
5
 10
19.72
 20
29.400000000000002
 10
19.72
 20
29.52
 10
20.5
 20
29.52
 10
20.5
 20
29.400000000000002
 10
19.72
 20
29.400000000000002
 97
0
 75
1
 76
1
 52
0.0
 41
0.2
 77
0
 78
2
 53
45.0
 43
0.0
 44
0.0
 45
-0.4490128061
 46
0.4490128061
 79
0
 53
135.0
 43
0.0
 44
0.0
 45
-0.4490128061
 46
-0.4490128061
 79
0
 98
0
  0
HATCH
  5
1C5
330
17
100
AcDbEntity
  8
A-HATCH
 62
7
100
AcDbHatch
 10
0.0
 20
0.0
 30
0.0
210
0.0
220
0.0
230
1.0
  2
ANSI31
 70
0
 71
0
 91
1
 92
3
 72
0
 73
1
 93
5
 10
15.899999999999999
 20
29.7
 10
15.899999999999999
 20
31.7
 10
15.7
 20
31.7
 10
15.7
 20
29.7
 10
15.899999999999999
 20
29.7
 97
0
 75
1
 76
1
 52
0.0
 41
0.4
 77
0
 78
1
 53
45.0
 43
0.0
 44
0.0
 45
-0.8980256121
 46
0.8980256121
 79
0
 98
0
  0
HATCH
  5
1C6
330
17
100
AcDbEntity
  8
A-HATCH
 62
7
100
AcDbHatch
 10
0.0
 20
0.0
 30
0.0
210
0.0
220
0.0
230
1.0
  2
ANSI31
 70
0
 71
0
 91
1
 92
3
 72
0
 73
1
 93
5
 10
17.5
 20
29.7
 10
17.5
 20
31.7
 10
17.299999999999997
 20
31.7
 10
17.299999999999997
 20
29.7
 10
17.5
 20
29.7
 97
0
 75
1
 76
1
 52
0.0
 41
0.4
 77
0
 78
1
 53
45.0
 43
0.0
 44
0.0
 45
-0.8980256121
 46
0.8980256121
 79
0
 98
0
  0
HATCH
  5
1C7
330
17
100
AcDbEntity
  8
A-HATCH
 62
7
100
AcDbHatch
 10
0.0
 20
0.0
 30
0.0
210
0.0
220
0.0
230
1.0
  2
ANSI31
 70
0
 71
0
 91
1
 92
3
 72
0
 73
1
 93
5
 10
16.15
 20
29.7
 10
16.15
 20
29.900000000000002
 10
15.7
 20
29.900000000000002
 10
15.7
 20
29.7
 10
16.15
 20
29.7
 97
0
 75
1
 76
1
 52
0.0
 41
0.4
 77
0
 78
1
 53
45.0
 43
0.0
 44
0.0
 45
-0.8980256121
 46
0.8980256121
 79
0
 98
0
  0
HATCH
  5
1C8
330
17
100
AcDbEntity
  8
A-HATCH
 62
7
100
AcDbHatch
 10
0.0
 20
0.0
 30
0.0
210
0.0
220
0.0
230
1.0
  2
ANSI31
 70
0
 71
0
 91
1
 92
3
 72
0
 73
1
 93
5
 10
17.5
 20
29.7
 10
17.5
 20
29.900000000000002
 10
17.05
 20
29.900000000000002
 10
17.05
 20
29.7
 10
17.5
 20
29.7
 97
0
 75
1
 76
1
 52
0.0
 41
0.4
 77
0
 78
1
 53
45.0
 43
0.0
 44
0.0
 45
-0.8980256121
 46
0.8980256121
 79
0
 98
0
  0
LWPOLYLINE
  5
1C9
330
17
100
AcDbEntity
  8
A-CUT
100
AcDbPolyline
 90
14
 70
1
 10
6.300000000000001
 20
17.700000000000003
 10
6.4
 20
17.700000000000003
 10
6.4
 20
17.5
 10
6.300000000000001
 20
17.5
 10
6.300000000000001
 20
15.999999999999998
 10
6.3
 20
15.999999999999998
 10
6.1000000000000005
 20
15.999999999999998
 10
6.0
 20
15.999999999999998
 10
6.0
 20
16.099999999999998
 10
6.0
 20
16.299999999999997
 10
6.0
 20
17.9
 10
6.1000000000000005
 20
17.9
 10
6.300000000000001
 20
17.9
 10
6.300000000000001
 20
17.700000000000003
  0
LWPOLYLINE
  5
1CA
330
17
100
AcDbEntity
  8
A-CUT
100
AcDbPolyline
 90
15
 70
1
 10
10.6
 20
21.72
 10
10.6
 20
21.6
 10
6.300000000000001
 20
21.6
 10
6.300000000000001
 20
21.4
 10
6.1000000000000005
 20
21.4
 10
6.0
 20
21.4
 10
6.0
 20
22.2
 10
6.1000000000000005
 20
22.2
 10
6.300000000000001
 20
22.2
 10
6.300000000000001
 20
21.72
 10
9.5
 20
21.72
 10
9.5
 20
24.2
 10
9.620000000000001
 20
24.2
 10
9.620000000000001
 20
21.72
 10
10.6
 20
21.72
  0
LWPOLYLINE
  5
1CB
330
17
100
AcDbEntity
  8
A-CUT
100
AcDbPolyline
 90
11
 70
1
 10
11.5
 20
25.36
 10
11.5
 20
25.240000000000002
 10
6.300000000000001
 20
25.240000000000002
 10
6.300000000000001
 20
24.6
 10
6.1000000000000005
 20
24.6
 10
6.0
 20
24.6
 10
6.0
 20
25.5
 10
6.1000000000000005
 20
25.5
 10
6.300000000000001
 20
25.5
 10
6.300000000000001
 20
25.36
 10
11.5
 20
25.36
  0
LWPOLYLINE
  5
1CC
330
17
100
AcDbEntity
  8
A-CUT
100
AcDbPolyline
 90
5
 70
1
 10
9.620000000000001
 20
25.0
 10
9.5
 20
25.0
 10
9.5
 20
25.24
 10
9.620000000000001
 20
25.24
 10
9.620000000000001
 20
25.0
  0
LWPOLYLINE
  5
1CD
330
17
100
AcDbEntity
  8
A-CUT
100
AcDbPolyline
 90
42
 70
1
 10
6.3
 20
29.6
 10
6.1000000000000005
 20
29.6
 10
6.0
 20
29.6
 10
6.0
 20
31.700000000000003
 10
6.0
 20
31.900000000000002
 10
6.0
 20
32.0
 10
6.1000000000000005
 20
32.0
 10
6.300000000000001
 20
32.0
 10
11.2
 20
32.0
 10
11.7
 20
32.0
 10
11.7
 20
31.900000000000002
 10
11.7
 20
31.700000000000003
 10
11.2
 20
31.700000000000003
 10
6.300000000000001
 20
31.700000000000003
 10
6.300000000000001
 20
31.7
 10
10.9
 20
31.7
 10
11.200000000000001
 20
31.7
 10
11.200000000000001
 20
27.02
 10
11.4
 20
27.02
 10
11.4
 20
26.900000000000002
 10
11.2
 20
26.900000000000002
 10
11.2
 20
26.96
 10
10.9
 20
26.96
 10
9.8
 20
26.96
 10
9.8
 20
27.259999999999998
 10
10.9
 20
27.259999999999998
 10
10.9
 20
31.599999999999998
 10
6.3999999999999995
 20
31.599999999999998
 10
6.3999999999999995
 20
27.26
 10
6.300000000000001
 20
27.26
 10
6.300000000000001
 20
27.259999999999998
 10
9.0
 20
27.259999999999998
 10
9.0
 20
26.96
 10
6.300000000000001
 20
26.96
 10
6.300000000000001
 20
26.75
 10
6.1000000000000005
 20
26.75
 10
6.0
 20
26.75
 10
6.0
 20
26.96
 10
6.0
 20
28.6
 10
6.1000000000000005
 20
28.6
 10
6.3
 20
28.6
 10
6.3
 20
29.6
  0
LWPOLYLINE
  5
1CE
330
17
100
AcDbEntity
  8
A-CUT
100
AcDbPolyline
 90
15
 70
1
 10
12.9
 20
15.999999999999998
 10
12.7
 20
15.999999999999998
 10
12.7
 20
16.099999999999998
 10
12.7
 20
16.299999999999997
 10
12.7
 20
17.5
 10
12.6
 20
17.5
 10
12.6
 20
17.700000000000003
 10
12.7
 20
17.700000000000003
 10
12.7
 20
18.0
 10
12.9
 20
18.0
 10
13.0
 20
18.0
 10
13.0
 20
16.299999999999997
 10
13.0
 20
16.099999999999998
 10
13.0
 20
15.999999999999998
 10
12.9
 20
15.999999999999998
  0
LWPOLYLINE
  5
1CF
330
17
100
AcDbEntity
  8
A-CUT
100
AcDbPolyline
 90
11
 70
1
 10
12.9
 20
22.1
 10
13.0
 20
22.1
 10
13.0
 20
21.3
 10
12.9
 20
21.3
 10
12.7
 20
21.3
 10
12.7
 20
21.6
 10
12.4
 20
21.6
 10
12.4
 20
21.72
 10
12.7
 20
21.72
 10
12.7
 20
22.1
 10
12.9
 20
22.1
  0
LWPOLYLINE
  5
1D0
330
17
100
AcDbEntity
  8
A-CUT
100
AcDbPolyline
 90
7
 70
1
 10
15.8
 20
25.0
 10
15.5
 20
25.0
 10
15.5
 20
25.099999999999998
 10
15.5
 20
25.299999999999997
 10
15.8
 20
25.299999999999997
 10
15.8
 20
25.099999999999998
 10
15.8
 20
25.0
  0
LWPOLYLINE
  5
1D1
330
17
100
AcDbEntity
  8
A-CUT
100
AcDbPolyline
 90
17
 70
1
 10
12.7
 20
25.240000000000002
 10
12.4
 20
25.240000000000002
 10
12.4
 20
25.36
 10
12.7
 20
25.36
 10
12.7
 20
25.299999999999997
 10
12.9
 20
25.299999999999997
 10
13.0
 20
25.299999999999997
 10
13.4
 20
25.299999999999997
 10
13.4
 20
25.099999999999998
 10
13.4
 20
25.0
 10
13.0
 20
25.0
 10
13.0
 20
24.8
 10
12.9
 20
24.8
 10
12.7
 20
24.8
 10
12.7
 20
25.0
 10
12.7
 20
25.099999999999998
 10
12.7
 20
25.240000000000002
  0
LWPOLYLINE
  5
1D2
330
17
100
AcDbEntity
  8
A-CUT
100
AcDbPolyline
 90
9
 70
1
 10
13.1
 20
31.7
 10
13.1
 20
27.02
 10
13.12
 20
27.02
 10
13.12
 20
26.900000000000002
 10
12.2
 20
26.900000000000002
 10
12.2
 20
27.02
 10
12.979999999999999
 20
27.02
 10
12.979999999999999
 20
31.7
 10
13.1
 20
31.7
  0
LWPOLYLINE
  5
1D3
330
17
100
AcDbEntity
  8
A-CUT
100
AcDbPolyline
 90
9
 70
1
 10
15.7
 20
29.900000000000002
 10
15.7
 20
31.7
 10
15.899999999999999
 20
31.7
 10
15.899999999999999
 20
29.900000000000002
 10
16.15
 20
29.900000000000002
 10
16.15
 20
29.7
 10
15.899999999999999
 20
29.7
 10
15.7
 20
29.7
 10
15.7
 20
29.900000000000002
  0
LWPOLYLINE
  5
1D4
330
17
100
AcDbEntity
  8
A-CUT
100
AcDbPolyline
 90
7
 70
1
 10
13.4
 20
31.900000000000002
 10
13.4
 20
31.700000000000003
 10
12.7
 20
31.700000000000003
 10
12.7
 20
31.900000000000002
 10
12.7
 20
32.0
 10
13.4
 20
32.0
 10
13.4
 20
31.900000000000002
  0
LWPOLYLINE
  5
1D5
330
17
100
AcDbEntity
  8
A-CUT
100
AcDbPolyline
 90
7
 70
1
 10
20.0
 20
25.299999999999997
 10
20.0
 20
25.099999999999998
 10
20.0
 20
25.0
 10
19.4
 20
25.0
 10
19.4
 20
25.099999999999998
 10
19.4
 20
25.299999999999997
 10
20.0
 20
25.299999999999997
  0
LWPOLYLINE
  5
1D6
330
17
100
AcDbEntity
  8
A-CUT
100
AcDbPolyline
 90
13
 70
1
 10
24.900000000000002
 20
25.0
 10
24.700000000000003
 20
25.0
 10
24.4
 20
25.0
 10
24.4
 20
25.099999999999998
 10
24.4
 20
25.299999999999997
 10
24.700000000000003
 20
25.299999999999997
 10
24.700000000000003
 20
25.7
 10
24.900000000000002
 20
25.7
 10
25.0
 20
25.7
 10
25.0
 20
25.299999999999997
 10
25.0
 20
25.099999999999998
 10
25.0
 20
25.0
 10
24.900000000000002
 20
25.0
  0
LWPOLYLINE
  5
1D7
330
17
100
AcDbEntity
  8
A-CUT
100
AcDbPolyline
 90
5
 70
1
 10
19.6
 20
26.0
 10
19.72
 20
26.0
 10
19.72
 20
25.3
 10
19.6
 20
25.3
 10
19.6
 20
26.0
  0
LWPOLYLINE
  5
1D8
330
17
100
AcDbEntity
  8
A-CUT
100
AcDbPolyline
 90
13
 70
1
 10
19.1
 20
29.7
 10
19.6
 20
29.7
 10
19.6
 20
31.7
 10
19.72
 20
31.7
 10
19.72
 20
29.52
 10
20.5
 20
29.52
 10
20.5
 20
29.400000000000002
 10
19.72
 20
29.400000000000002
 10
19.72
 20
26.9
 10
19.6
 20
26.9
 10
19.6
 20
29.580000000000002
 10
19.1
 20
29.580000000000002
 10
19.1
 20
29.7
  0
LWPOLYLINE
  5
1D9
330
17
100
AcDbEntity
  8
A-CUT
100
AcDbPolyline
 90
5
 70
1
 10
21.3
 20
29.400000000000002
 10
21.3
 20
29.52
 10
24.7
 20
29.52
 10
24.7
 20
29.400000000000002
 10
21.3
 20
29.400000000000002
  0
LWPOLYLINE
  5
1DA
330
17
100
AcDbEntity
  8
A-CUT
100
AcDbPolyline
 90
14
 70
1
 10
17.5
 20
29.7
 10
17.299999999999997
 20
29.7
 10
17.05
 20
29.7
 10
17.05
 20
29.900000000000002
 10
17.299999999999997
 20
29.900000000000002
 10
17.299999999999997
 20
31.7
 10
17.5
 20
31.7
 10
17.619999999999997
 20
31.7
 10
17.619999999999997
 20
29.7
 10
18.3
 20
29.7
 10
18.3
 20
29.580000000000002
 10
17.56
 20
29.580000000000002
 10
17.56
 20
29.7
 10
17.5
 20
29.7
  0
LWPOLYLINE
  5
1DB
330
17
100
AcDbEntity
  8
A-CUT
100
AcDbPolyline
 90
13
 70
1
 10
24.700000000000003
 20
28.7
 10
24.700000000000003
 20
31.700000000000003
 10
24.2
 20
31.700000000000003
 10
24.2
 20
31.900000000000002
 10
24.2
 20
32.0
 10
24.700000000000003
 20
32.0
 10
24.900000000000002
 20
32.0
 10
25.0
 20
32.0
 10
25.0
 20
31.900000000000002
 10
25.0
 20
31.700000000000003
 10
25.0
 20
28.7
 10
24.900000000000002
 20
28.7
 10
24.700000000000003
 20
28.7
  0
LWPOLYLINE
  5
1DC
330
17
100
AcDbEntity
  8
A-CUT
100
AcDbPolyline
 90
7
 70
1
 10
22.3
 20
32.0
 10
22.3
 20
31.900000000000002
 10
22.3
 20
31.700000000000003
 10
19.2
 20
31.700000000000003
 10
19.2
 20
31.900000000000002
 10
19.2
 20
32.0
 10
22.3
 20
32.0
  0
LWPOLYLINE
  5
1DD
330
17
100
AcDbEntity
  8
A-CUT
100
AcDbPolyline
 90
7
 70
1
 10
17.9
 20
32.0
 10
17.9
 20
31.900000000000002
 10
17.9
 20
31.700000000000003
 10
15.3
 20
31.700000000000003
 10
15.3
 20
31.900000000000002
 10
15.3
 20
32.0
 10
17.9
 20
32.0
  0
LWPOLYLINE
  5
1DE
330
17
100
AcDbEntity
  8
A-THIN
100
AcDbPolyline
 90
4
 70
1
 10
12.4
 20
31.4
 10
12.7
 20
31.4
 10
12.7
 20
31.7
 10
12.4
 20
31.7
  0
LINE
  5
1DF
330
17
100
AcDbEntity
  8
A-THIN
100
AcDbLine
 10
12.4
 20
31.4
 30
0.0
 11
12.7
 21
31.7
 31
0.0
  0
LINE
  5
1E0
330
17
100
AcDbEntity
  8
A-THIN
100
AcDbLine
 10
12.4
 20
31.7
 30
0.0
 11
12.7
 21
31.4
 31
0.0
  0
LWPOLYLINE
  5
1E1
330
17
100
AcDbEntity
  8
A-THIN
100
AcDbPolyline
 90
4
 70
1
 10
19.72
 20
31.4
 10
20.02
 20
31.4
 10
20.02
 20
31.7
 10
19.72
 20
31.7
  0
LINE
  5
1E2
330
17
100
AcDbEntity
  8
A-THIN
100
AcDbLine
 10
19.72
 20
31.4
 30
0.0
 11
20.02
 21
31.7
 31
0.0
  0
LINE
  5
1E3
330
17
100
AcDbEntity
  8
A-THIN
100
AcDbLine
 10
19.72
 20
31.7
 30
0.0
 11
20.02
 21
31.4
 31
0.0
  0
LINE
  5
1E4
330
17
100
AcDbEntity
  8
A-HIDDEN
100
AcDbLine
 10
6.3
 20
16.15
 30
0.0
 11
12.7
 21
16.15
 31
0.0
  0
LINE
  5
1E5
330
17
100
AcDbEntity
  8
A-THIN
100
AcDbLine
 10
12.7
 20
18.0
 30
0.0
 11
12.7
 21
21.3
 31
0.0
  0
LINE
  5
1E6
330
17
100
AcDbEntity
  8
A-THIN
100
AcDbLine
 10
13.0
 20
18.0
 30
0.0
 11
13.0
 21
21.3
 31
0.0
  0
LINE
  5
1E7
330
17
100
AcDbEntity
  8
A-THIN
100
AcDbLine
 10
12.81
 20
18.0
 30
0.0
 11
12.81
 21
21.3
 31
0.0
  0
LINE
  5
1E8
330
17
100
AcDbEntity
  8
A-THIN
100
AcDbLine
 10
12.85
 20
18.0
 30
0.0
 11
12.85
 21
21.3
 31
0.0
  0
LINE
  5
1E9
330
17
100
AcDbEntity
  8
A-THIN
100
AcDbLine
 10
12.7
 20
22.1
 30
0.0
 11
12.7
 21
24.8
 31
0.0
  0
LINE
  5
1EA
330
17
100
AcDbEntity
  8
A-THIN
100
AcDbLine
 10
13.0
 20
22.1
 30
0.0
 11
13.0
 21
24.8
 31
0.0
  0
LINE
  5
1EB
330
17
100
AcDbEntity
  8
A-THIN
100
AcDbLine
 10
12.81
 20
22.1
 30
0.0
 11
12.81
 21
24.8
 31
0.0
  0
LINE
  5
1EC
330
17
100
AcDbEntity
  8
A-THIN
100
AcDbLine
 10
12.85
 20
22.1
 30
0.0
 11
12.85
 21
24.8
 31
0.0
  0
LINE
  5
1ED
330
17
100
AcDbEntity
  8
A-THIN
100
AcDbLine
 10
13.4
 20
25.0
 30
0.0
 11
15.5
 21
25.0
 31
0.0
  0
LINE
  5
1EE
330
17
100
AcDbEntity
  8
A-THIN
100
AcDbLine
 10
13.4
 20
25.299999999999997
 30
0.0
 11
15.5
 21
25.299999999999997
 31
0.0
  0
LINE
  5
1EF
330
17
100
AcDbEntity
  8
A-THIN
100
AcDbLine
 10
13.4
 20
25.15
 30
0.0
 11
15.5
 21
25.15
 31
0.0
  0
LINE
  5
1F0
330
17
100
AcDbEntity
  8
A-THIN
100
AcDbLine
 10
13.4
 20
25.189999999999998
 30
0.0
 11
15.5
 21
25.189999999999998
 31
0.0
  0
LINE
  5
1F1
330
17
100
AcDbEntity
  8
A-THIN
100
AcDbLine
 10
15.8
 20
25.0
 30
0.0
 11
19.4
 21
25.0
 31
0.0
  0
LINE
  5
1F2
330
17
100
AcDbEntity
  8
A-THIN
100
AcDbLine
 10
15.8
 20
25.299999999999997
 30
0.0
 11
19.4
 21
25.299999999999997
 31
0.0
  0
LINE
  5
1F3
330
17
100
AcDbEntity
  8
A-MAIN
100
AcDbLine
 10
15.8
 20
25.139999999999997
 30
0.0
 11
17.650000000000002
 21
25.139999999999997
 31
0.0
  0
LINE
  5
1F4
330
17
100
AcDbEntity
  8
A-MAIN
100
AcDbLine
 10
17.55
 20
25.2
 30
0.0
 11
19.4
 21
25.2
 31
0.0
  0
LINE
  5
1F5
330
17
100
AcDbEntity
  8
A-THIN
100
AcDbLine
 10
20.0
 20
25.0
 30
0.0
 11
24.4
 21
25.0
 31
0.0
  0
LINE
  5
1F6
330
17
100
AcDbEntity
  8
A-THIN
100
AcDbLine
 10
20.0
 20
25.299999999999997
 30
0.0
 11
24.4
 21
25.299999999999997
 31
0.0
  0
LINE
  5
1F7
330
17
100
AcDbEntity
  8
A-MAIN
100
AcDbLine
 10
20.0
 20
25.139999999999997
 30
0.0
 11
22.25
 21
25.139999999999997
 31
0.0
  0
LINE
  5
1F8
330
17
100
AcDbEntity
  8
A-MAIN
100
AcDbLine
 10
22.15
 20
25.2
 30
0.0
 11
24.4
 21
25.2
 31
0.0
  0
LINE
  5
1F9
330
17
100
AcDbEntity
  8
A-THIN
100
AcDbLine
 10
24.700000000000003
 20
25.7
 30
0.0
 11
24.700000000000003
 21
28.7
 31
0.0
  0
LINE
  5
1FA
330
17
100
AcDbEntity
  8
A-THIN
100
AcDbLine
 10
25.0
 20
25.7
 30
0.0
 11
25.0
 21
28.7
 31
0.0
  0
LINE
  5
1FB
330
17
100
AcDbEntity
  8
A-THIN
100
AcDbLine
 10
24.810000000000002
 20
25.7
 30
0.0
 11
24.810000000000002
 21
28.7
 31
0.0
  0
LINE
  5
1FC
330
17
100
AcDbEntity
  8
A-THIN
100
AcDbLine
 10
24.85
 20
25.7
 30
0.0
 11
24.85
 21
28.7
 31
0.0
  0
LINE
  5
1FD
330
17
100
AcDbEntity
  8
A-THIN
100
AcDbLine
 10
11.7
 20
31.700000000000003
 30
0.0
 11
12.7
 21
31.700000000000003
 31
0.0
  0
LINE
  5
1FE
330
17
100
AcDbEntity
  8
A-THIN
100
AcDbLine
 10
11.7
 20
32.0
 30
0.0
 11
12.7
 21
32.0
 31
0.0
  0
LINE
  5
1FF
330
17
100
AcDbEntity
  8
A-THIN
100
AcDbLine
 10
11.7
 20
31.810000000000002
 30
0.0
 11
12.7
 21
31.810000000000002
 31
0.0
  0
LINE
  5
200
330
17
100
AcDbEntity
  8
A-THIN
100
AcDbLine
 10
11.7
 20
31.85
 30
0.0
 11
12.7
 21
31.85
 31
0.0
  0
LINE
  5
201
330
17
100
AcDbEntity
  8
A-THIN
100
AcDbLine
 10
13.4
 20
31.700000000000003
 30
0.0
 11
15.3
 21
31.700000000000003
 31
0.0
  0
LINE
  5
202
330
17
100
AcDbEntity
  8
A-THIN
100
AcDbLine
 10
13.4
 20
32.0
 30
0.0
 11
15.3
 21
32.0
 31
0.0
  0
LINE
  5
203
330
17
100
AcDbEntity
  8
A-THIN
100
AcDbLine
 10
13.4
 20
31.810000000000002
 30
0.0
 11
15.3
 21
31.810000000000002
 31
0.0
  0
LINE
  5
204
330
17
100
AcDbEntity
  8
A-THIN
100
AcDbLine
 10
13.4
 20
31.85
 30
0.0
 11
15.3
 21
31.85
 31
0.0
  0
LINE
  5
205
330
17
100
AcDbEntity
  8
A-THIN
100
AcDbLine
 10
17.9
 20
31.700000000000003
 30
0.0
 11
19.2
 21
31.700000000000003
 31
0.0
  0
LINE
  5
206
330
17
100
AcDbEntity
  8
A-THIN
100
AcDbLine
 10
17.9
 20
32.0
 30
0.0
 11
19.2
 21
32.0
 31
0.0
  0
LINE
  5
207
330
17
100
AcDbEntity
  8
A-THIN
100
AcDbLine
 10
17.9
 20
31.810000000000002
 30
0.0
 11
19.2
 21
31.810000000000002
 31
0.0
  0
LINE
  5
208
330
17
100
AcDbEntity
  8
A-THIN
100
AcDbLine
 10
17.9
 20
31.85
 30
0.0
 11
19.2
 21
31.85
 31
0.0
  0
LINE
  5
209
330
17
100
AcDbEntity
  8
A-THIN
100
AcDbLine
 10
22.3
 20
31.700000000000003
 30
0.0
 11
24.2
 21
31.700000000000003
 31
0.0
  0
LINE
  5
20A
330
17
100
AcDbEntity
  8
A-THIN
100
AcDbLine
 10
22.3
 20
32.0
 30
0.0
 11
24.2
 21
32.0
 31
0.0
  0
LINE
  5
20B
330
17
100
AcDbEntity
  8
A-THIN
100
AcDbLine
 10
22.3
 20
31.810000000000002
 30
0.0
 11
24.2
 21
31.810000000000002
 31
0.0
  0
LINE
  5
20C
330
17
100
AcDbEntity
  8
A-THIN
100
AcDbLine
 10
22.3
 20
31.85
 30
0.0
 11
24.2
 21
31.85
 31
0.0
  0
LINE
  5
20D
330
17
100
AcDbEntity
  8
A-THIN
100
AcDbLine
 10
6.0
 20
17.9
 30
0.0
 11
6.0
 21
21.4
 31
0.0
  0
LINE
  5
20E
330
17
100
AcDbEntity
  8
A-THIN
100
AcDbLine
 10
6.300000000000001
 20
17.9
 30
0.0
 11
6.300000000000001
 21
21.4
 31
0.0
  0
LINE
  5
20F
330
17
100
AcDbEntity
  8
A-MAIN
100
AcDbLine
 10
6.140000000000001
 20
17.9
 30
0.0
 11
6.140000000000001
 21
19.7
 31
0.0
  0
LINE
  5
210
330
17
100
AcDbEntity
  8
A-MAIN
100
AcDbLine
 10
6.2
 20
19.599999999999998
 30
0.0
 11
6.2
 21
21.4
 31
0.0
  0
LINE
  5
211
330
17
100
AcDbEntity
  8
A-THIN
100
AcDbLine
 10
6.0
 20
22.2
 30
0.0
 11
6.0
 21
24.6
 31
0.0
  0
LINE
  5
212
330
17
100
AcDbEntity
  8
A-THIN
100
AcDbLine
 10
6.300000000000001
 20
22.2
 30
0.0
 11
6.300000000000001
 21
24.6
 31
0.0
  0
LINE
  5
213
330
17
100
AcDbEntity
  8
A-THIN
100
AcDbLine
 10
6.15
 20
22.2
 30
0.0
 11
6.15
 21
24.6
 31
0.0
  0
LINE
  5
214
330
17
100
AcDbEntity
  8
A-THIN
100
AcDbLine
 10
6.19
 20
22.2
 30
0.0
 11
6.19
 21
24.6
 31
0.0
  0
LINE
  5
215
330
17
100
AcDbEntity
  8
A-THIN
100
AcDbLine
 10
6.0
 20
25.5
 30
0.0
 11
6.0
 21
26.75
 31
0.0
  0
LINE
  5
216
330
17
100
AcDbEntity
  8
A-THIN
100
AcDbLine
 10
6.300000000000001
 20
25.5
 30
0.0
 11
6.300000000000001
 21
26.75
 31
0.0
  0
LINE
  5
217
330
17
100
AcDbEntity
  8
A-THIN
100
AcDbLine
 10
6.15
 20
25.5
 30
0.0
 11
6.15
 21
26.75
 31
0.0
  0
LINE
  5
218
330
17
100
AcDbEntity
  8
A-THIN
100
AcDbLine
 10
6.19
 20
25.5
 30
0.0
 11
6.19
 21
26.75
 31
0.0
  0
LINE
  5
219
330
17
100
AcDbEntity
  8
A-THIN
100
AcDbLine
 10
6.0
 20
28.6
 30
0.0
 11
6.0
 21
29.6
 31
0.0
  0
LINE
  5
21A
330
17
100
AcDbEntity
  8
A-THIN
100
AcDbLine
 10
6.300000000000001
 20
28.6
 30
0.0
 11
6.300000000000001
 21
29.6
 31
0.0
  0
LINE
  5
21B
330
17
100
AcDbEntity
  8
A-MAIN
100
AcDbLine
 10
6.17
 20
28.6
 30
0.0
 11
6.17
 21
29.6
 31
0.0
  0
LINE
  5
21C
330
17
100
AcDbEntity
  8
A-MAIN
100
AcDbLine
 10
6.03
 20
28.55
 30
0.0
 11
6.03
 21
29.650000000000002
 31
0.0
  0
LINE
  5
21D
330
17
100
AcDbEntity
  8
A-THIN
100
AcDbLine
 10
6.4
 20
17.5
 30
0.0
 11
12.6
 21
17.5
 31
0.0
  0
LINE
  5
21E
330
17
100
AcDbEntity
  8
A-THIN
100
AcDbLine
 10
6.4
 20
17.700000000000003
 30
0.0
 11
12.6
 21
17.700000000000003
 31
0.0
  0
LINE
  5
21F
330
17
100
AcDbEntity
  8
A-MAIN
100
AcDbLine
 10
6.4
 20
17.57
 30
0.0
 11
8.516666666666667
 21
17.57
 31
0.0
  0
LINE
  5
220
330
17
100
AcDbEntity
  8
A-MAIN
100
AcDbLine
 10
8.416666666666666
 20
17.630000000000003
 30
0.0
 11
10.583333333333334
 21
17.630000000000003
 31
0.0
  0
LINE
  5
221
330
17
100
AcDbEntity
  8
A-MAIN
100
AcDbLine
 10
10.483333333333333
 20
17.57
 30
0.0
 11
12.6
 21
17.57
 31
0.0
  0
LINE
  5
222
330
17
100
AcDbEntity
  8
A-HIDDEN
100
AcDbLine
 10
10.6
 20
21.66
 30
0.0
 11
12.4
 21
21.66
 31
0.0
  0
LINE
  5
223
330
17
100
AcDbEntity
  8
A-MAIN
100
AcDbLine
 10
9.5
 20
25.0
 30
0.0
 11
8.7
 21
25.0
 31
0.0
  0
ARC
  5
224
330
17
100
AcDbEntity
  8
A-THIN
100
AcDbCircle
 10
9.5
 20
25.0
 30
0.0
 40
0.8000000000000007
100
AcDbArc
 50
180.0
 51
270.0
  0
LINE
  5
225
330
17
100
AcDbEntity
  8
A-THIN
100
AcDbLine
 10
9.5
 20
24.2
 30
0.0
 11
9.620000000000001
 21
24.2
 31
0.0
  0
LINE
  5
226
330
17
100
AcDbEntity
  8
A-THIN
100
AcDbLine
 10
9.5
 20
25.0
 30
0.0
 11
9.620000000000001
 21
25.0
 31
0.0
  0
LINE
  5
227
330
17
100
AcDbEntity
  8
A-MAIN
100
AcDbLine
 10
11.5
 20
25.240000000000002
 30
0.0
 11
11.5
 21
24.340000000000003
 31
0.0
  0
ARC
  5
228
330
17
100
AcDbEntity
  8
A-THIN
100
AcDbCircle
 10
11.5
 20
25.240000000000002
 30
0.0
 40
0.9000000000000004
100
AcDbArc
 50
270.0
 51
360.0
  0
LINE
  5
229
330
17
100
AcDbEntity
  8
A-THIN
100
AcDbLine
 10
11.5
 20
25.240000000000002
 30
0.0
 11
11.5
 21
25.36
 31
0.0
  0
LINE
  5
22A
330
17
100
AcDbEntity
  8
A-THIN
100
AcDbLine
 10
12.4
 20
25.240000000000002
 30
0.0
 11
12.4
 21
25.36
 31
0.0
  0
LINE
  5
22B
330
17
100
AcDbEntity
  8
A-MAIN
100
AcDbLine
 10
11.4
 20
27.02
 30
0.0
 11
11.4
 21
27.82
 31
0.0
  0
ARC
  5
22C
330
17
100
AcDbEntity
  8
A-THIN
100
AcDbCircle
 10
11.4
 20
27.02
 30
0.0
 40
0.7999999999999989
100
AcDbArc
 50
0.0
 51
90.0
  0
LINE
  5
22D
330
17
100
AcDbEntity
  8
A-THIN
100
AcDbLine
 10
11.4
 20
26.900000000000002
 30
0.0
 11
11.4
 21
27.02
 31
0.0
  0
LINE
  5
22E
330
17
100
AcDbEntity
  8
A-THIN
100
AcDbLine
 10
12.2
 20
26.900000000000002
 30
0.0
 11
12.2
 21
27.02
 31
0.0
  0
LINE
  5
22F
330
17
100
AcDbEntity
  8
A-MAIN
100
AcDbLine
 10
9.8
 20
26.96
 30
0.0
 11
9.8
 21
26.16
 31
0.0
  0
ARC
  5
230
330
17
100
AcDbEntity
  8
A-THIN
100
AcDbCircle
 10
9.8
 20
26.96
 30
0.0
 40
0.8000000000000007
100
AcDbArc
 50
180.0
 51
270.0
  0
LINE
  5
231
330
17
100
AcDbEntity
  8
A-THIN
100
AcDbLine
 10
9.0
 20
26.96
 30
0.0
 11
9.0
 21
27.259999999999998
 31
0.0
  0
LINE
  5
232
330
17
100
AcDbEntity
  8
A-THIN
100
AcDbLine
 10
9.8
 20
26.96
 30
0.0
 11
9.8
 21
27.259999999999998
 31
0.0
  0
LINE
  5
233
330
17
100
AcDbEntity
  8
A-MAIN
100
AcDbLine
 10
19.72
 20
26.0
 30
0.0
 11
20.619999999999997
 21
26.0
 31
0.0
  0
ARC
  5
234
330
17
100
AcDbEntity
  8
A-THIN
100
AcDbCircle
 10
19.72
 20
26.0
 30
0.0
 40
0.8999999999999986
100
AcDbArc
 50
0.0
 51
90.0
  0
LINE
  5
235
330
17
100
AcDbEntity
  8
A-THIN
100
AcDbLine
 10
19.6
 20
26.0
 30
0.0
 11
19.72
 21
26.0
 31
0.0
  0
LINE
  5
236
330
17
100
AcDbEntity
  8
A-THIN
100
AcDbLine
 10
19.6
 20
26.9
 30
0.0
 11
19.72
 21
26.9
 31
0.0
  0
LINE
  5
237
330
17
100
AcDbEntity
  8
A-MAIN
100
AcDbLine
 10
18.3
 20
29.7
 30
0.0
 11
18.3
 21
30.5
 31
0.0
  0
ARC
  5
238
330
17
100
AcDbEntity
  8
A-THIN
100
AcDbCircle
 10
18.3
 20
29.7
 30
0.0
 40
0.8000000000000007
100
AcDbArc
 50
0.0
 51
90.0
  0
LINE
  5
239
330
17
100
AcDbEntity
  8
A-THIN
100
AcDbLine
 10
18.3
 20
29.580000000000002
 30
0.0
 11
18.3
 21
29.7
 31
0.0
  0
LINE
  5
23A
330
17
100
AcDbEntity
  8
A-THIN
100
AcDbLine
 10
19.1
 20
29.580000000000002
 30
0.0
 11
19.1
 21
29.7
 31
0.0
  0
LINE
  5
23B
330
17
100
AcDbEntity
  8
A-MAIN
100
AcDbLine
 10
20.5
 20
29.52
 30
0.0
 11
20.5
 21
30.32
 31
0.0
  0
ARC
  5
23C
330
17
100
AcDbEntity
  8
A-THIN
100
AcDbCircle
 10
20.5
 20
29.52
 30
0.0
 40
0.8000000000000007
100
AcDbArc
 50
0.0
 51
90.0
  0
LINE
  5
23D
330
17
100
AcDbEntity
  8
A-THIN
100
AcDbLine
 10
20.5
 20
29.400000000000002
 30
0.0
 11
20.5
 21
29.52
 31
0.0
  0
LINE
  5
23E
330
17
100
AcDbEntity
  8
A-THIN
100
AcDbLine
 10
21.3
 20
29.400000000000002
 30
0.0
 11
21.3
 21
29.52
 31
0.0
  0
LINE
  5
23F
330
17
100
AcDbEntity
  8
A-HIDDEN
100
AcDbLine
 10
6.15
 20
12.100000000000001
 30
0.0
 11
6.15
 21
32.6
 31
0.0
  0
LINE
  5
240
330
17
100
AcDbEntity
  8
A-HIDDEN
100
AcDbLine
 10
12.85
 20
12.100000000000001
 30
0.0
 11
12.85
 21
32.6
 31
0.0
  0
LINE
  5
241
330
17
100
AcDbEntity
  8
A-HIDDEN
100
AcDbLine
 10
19.06
 20
12.100000000000001
 30
0.0
 11
19.06
 21
32.6
 31
0.0
  0
LINE
  5
242
330
17
100
AcDbEntity
  8
A-HIDDEN
100
AcDbLine
 10
24.85
 20
12.100000000000001
 30
0.0
 11
24.85
 21
32.6
 31
0.0
  0
LINE
  5
243
330
17
100
AcDbEntity
  8
A-HIDDEN
100
AcDbLine
 10
2.0999999999999996
 20
16.15
 30
0.0
 11
25.6
 21
16.15
 31
0.0
  0
LINE
  5
244
330
17
100
AcDbEntity
  8
A-HIDDEN
100
AcDbLine
 10
2.0999999999999996
 20
21.15
 30
0.0
 11
25.6
 21
21.15
 31
0.0
  0
LINE
  5
245
330
17
100
AcDbEntity
  8
A-HIDDEN
100
AcDbLine
 10
2.0999999999999996
 20
25.15
 30
0.0
 11
25.6
 21
25.15
 31
0.0
  0
LINE
  5
246
330
17
100
AcDbEntity
  8
A-HIDDEN
100
AcDbLine
 10
2.0999999999999996
 20
31.85
 30
0.0
 11
25.6
 21
31.85
 31
0.0
  0
LINE
  5
247
330
17
100
AcDbEntity
  8
A-DIMS
100
AcDbLine
 10
6.0
 20
14.25
 30
0.0
 11
25.0
 21
14.25
 31
0.0
  0
LINE
  5
248
330
17
100
AcDbEntity
  8
A-DIMS
100
AcDbLine
 10
6.0
 20
15.7
 30
0.0
 11
6.0
 21
14.1
 31
0.0
  0
LINE
  5
249
330
17
100
AcDbEntity
  8
A-DIMS
100
AcDbLine
 10
6.3
 20
15.7
 30
0.0
 11
6.3
 21
14.1
 31
0.0
  0
LINE
  5
24A
330
17
100
AcDbEntity
  8
A-DIMS
100
AcDbLine
 10
12.7
 20
15.7
 30
0.0
 11
12.7
 21
14.1
 31
0.0
  0
LINE
  5
24B
330
17
100
AcDbEntity
  8
A-DIMS
100
AcDbLine
 10
13.0
 20
15.7
 30
0.0
 11
13.0
 21
14.1
 31
0.0
  0
LINE
  5
24C
330
17
100
AcDbEntity
  8
A-DIMS
100
AcDbLine
 10
13.4
 20
15.7
 30
0.0
 11
13.4
 21
14.1
 31
0.0
  0
LINE
  5
24D
330
17
100
AcDbEntity
  8
A-DIMS
100
AcDbLine
 10
15.5
 20
15.7
 30
0.0
 11
15.5
 21
14.1
 31
0.0
  0
LINE
  5
24E
330
17
100
AcDbEntity
  8
A-DIMS
100
AcDbLine
 10
15.8
 20
15.7
 30
0.0
 11
15.8
 21
14.1
 31
0.0
  0
LINE
  5
24F
330
17
100
AcDbEntity
  8
A-DIMS
100
AcDbLine
 10
19.4
 20
15.7
 30
0.0
 11
19.4
 21
14.1
 31
0.0
  0
LINE
  5
250
330
17
100
AcDbEntity
  8
A-DIMS
100
AcDbLine
 10
20.0
 20
15.7
 30
0.0
 11
20.0
 21
14.1
 31
0.0
  0
LINE
  5
251
330
17
100
AcDbEntity
  8
A-DIMS
100
AcDbLine
 10
24.4
 20
15.7
 30
0.0
 11
24.4
 21
14.1
 31
0.0
  0
LINE
  5
252
330
17
100
AcDbEntity
  8
A-DIMS
100
AcDbLine
 10
25.0
 20
15.7
 30
0.0
 11
25.0
 21
14.1
 31
0.0
  0
LINE
  5
253
330
17
100
AcDbEntity
  8
A-DIMS
100
AcDbLine
 10
6.0
 20
13.5
 30
0.0
 11
25.0
 21
13.5
 31
0.0
  0
LINE
  5
254
330
17
100
AcDbEntity
  8
A-DIMS
100
AcDbLine
 10
6.0
 20
12.75
 30
0.0
 11
25.0
 21
12.75
 31
0.0
  0
LINE
  5
255
330
17
100
AcDbEntity
  8
A-DIMS
100
AcDbLine
 10
6.0
 20
33.75
 30
0.0
 11
25.0
 21
33.75
 31
0.0
  0
LINE
  5
256
330
17
100
AcDbEntity
  8
A-DIMS
100
AcDbLine
 10
6.0
 20
32.3
 30
0.0
 11
6.0
 21
33.9
 31
0.0
  0
LINE
  5
257
330
17
100
AcDbEntity
  8
A-DIMS
100
AcDbLine
 10
11.2
 20
32.3
 30
0.0
 11
11.2
 21
33.9
 31
0.0
  0
LINE
  5
258
330
17
100
AcDbEntity
  8
A-DIMS
100
AcDbLine
 10
11.7
 20
32.3
 30
0.0
 11
11.7
 21
33.9
 31
0.0
  0
LINE
  5
259
330
17
100
AcDbEntity
  8
A-DIMS
100
AcDbLine
 10
12.7
 20
32.3
 30
0.0
 11
12.7
 21
33.9
 31
0.0
  0
LINE
  5
25A
330
17
100
AcDbEntity
  8
A-DIMS
100
AcDbLine
 10
13.4
 20
32.3
 30
0.0
 11
13.4
 21
33.9
 31
0.0
  0
LINE
  5
25B
330
17
100
AcDbEntity
  8
A-DIMS
100
AcDbLine
 10
15.3
 20
32.3
 30
0.0
 11
15.3
 21
33.9
 31
0.0
  0
LINE
  5
25C
330
17
100
AcDbEntity
  8
A-DIMS
100
AcDbLine
 10
17.9
 20
32.3
 30
0.0
 11
17.9
 21
33.9
 31
0.0
  0
LINE
  5
25D
330
17
100
AcDbEntity
  8
A-DIMS
100
AcDbLine
 10
19.2
 20
32.3
 30
0.0
 11
19.2
 21
33.9
 31
0.0
  0
LINE
  5
25E
330
17
100
AcDbEntity
  8
A-DIMS
100
AcDbLine
 10
22.3
 20
32.3
 30
0.0
 11
22.3
 21
33.9
 31
0.0
  0
LINE
  5
25F
330
17
100
AcDbEntity
  8
A-DIMS
100
AcDbLine
 10
24.2
 20
32.3
 30
0.0
 11
24.2
 21
33.9
 31
0.0
  0
LINE
  5
260
330
17
100
AcDbEntity
  8
A-DIMS
100
AcDbLine
 10
25.0
 20
32.3
 30
0.0
 11
25.0
 21
33.9
 31
0.0
  0
LINE
  5
261
330
17
100
AcDbEntity
  8
A-DIMS
100
AcDbLine
 10
6.0
 20
34.5
 30
0.0
 11
25.0
 21
34.5
 31
0.0
  0
LINE
  5
262
330
17
100
AcDbEntity
  8
A-DIMS
100
AcDbLine
 10
6.0
 20
35.25
 30
0.0
 11
25.0
 21
35.25
 31
0.0
  0
LINE
  5
263
330
17
100
AcDbEntity
  8
A-DIMS
100
AcDbLine
 10
4.25
 20
16.0
 30
0.0
 11
4.25
 21
32.0
 31
0.0
  0
LINE
  5
264
330
17
100
AcDbEntity
  8
A-DIMS
100
AcDbLine
 10
5.7
 20
16.0
 30
0.0
 11
4.1
 21
16.0
 31
0.0
  0
LINE
  5
265
330
17
100
AcDbEntity
  8
A-DIMS
100
AcDbLine
 10
5.7
 20
17.9
 30
0.0
 11
4.1
 21
17.9
 31
0.0
  0
LINE
  5
266
330
17
100
AcDbEntity
  8
A-DIMS
100
AcDbLine
 10
5.7
 20
21.4
 30
0.0
 11
4.1
 21
21.4
 31
0.0
  0
LINE
  5
267
330
17
100
AcDbEntity
  8
A-DIMS
100
AcDbLine
 10
5.7
 20
22.2
 30
0.0
 11
4.1
 21
22.2
 31
0.0
  0
LINE
  5
268
330
17
100
AcDbEntity
  8
A-DIMS
100
AcDbLine
 10
5.7
 20
24.6
 30
0.0
 11
4.1
 21
24.6
 31
0.0
  0
LINE
  5
269
330
17
100
AcDbEntity
  8
A-DIMS
100
AcDbLine
 10
5.7
 20
25.5
 30
0.0
 11
4.1
 21
25.5
 31
0.0
  0
LINE
  5
26A
330
17
100
AcDbEntity
  8
A-DIMS
100
AcDbLine
 10
5.7
 20
26.75
 30
0.0
 11
4.1
 21
26.75
 31
0.0
  0
LINE
  5
26B
330
17
100
AcDbEntity
  8
A-DIMS
100
AcDbLine
 10
5.7
 20
26.96
 30
0.0
 11
4.1
 21
26.96
 31
0.0
  0
LINE
  5
26C
330
17
100
AcDbEntity
  8
A-DIMS
100
AcDbLine
 10
5.7
 20
28.6
 30
0.0
 11
4.1
 21
28.6
 31
0.0
  0
LINE
  5
26D
330
17
100
AcDbEntity
  8
A-DIMS
100
AcDbLine
 10
5.7
 20
29.6
 30
0.0
 11
4.1
 21
29.6
 31
0.0
  0
LINE
  5
26E
330
17
100
AcDbEntity
  8
A-DIMS
100
AcDbLine
 10
5.7
 20
32.0
 30
0.0
 11
4.1
 21
32.0
 31
0.0
  0
LINE
  5
26F
330
17
100
AcDbEntity
  8
A-DIMS
100
AcDbLine
 10
3.5
 20
16.0
 30
0.0
 11
3.5
 21
32.0
 31
0.0
  0
LINE
  5
270
330
17
100
AcDbEntity
  8
A-DIMS
100
AcDbLine
 10
2.75
 20
16.0
 30
0.0
 11
2.75
 21
32.0
 31
0.0
  0
LINE
  5
271
330
17
100
AcDbEntity
  8
A-DIMS
100
AcDbLine
 10
26.75
 20
16.0
 30
0.0
 11
26.75
 21
32.0
 31
0.0
  0
LINE
  5
272
330
17
100
AcDbEntity
  8
A-DIMS
100
AcDbLine
 10
25.3
 20
16.0
 30
0.0
 11
26.9
 21
16.0
 31
0.0
  0
LINE
  5
273
330
17
100
AcDbEntity
  8
A-DIMS
100
AcDbLine
 10
25.3
 20
18.0
 30
0.0
 11
26.9
 21
18.0
 31
0.0
  0
LINE
  5
274
330
17
100
AcDbEntity
  8
A-DIMS
100
AcDbLine
 10
25.3
 20
21.3
 30
0.0
 11
26.9
 21
21.3
 31
0.0
  0
LINE
  5
275
330
17
100
AcDbEntity
  8
A-DIMS
100
AcDbLine
 10
25.3
 20
22.1
 30
0.0
 11
26.9
 21
22.1
 31
0.0
  0
LINE
  5
276
330
17
100
AcDbEntity
  8
A-DIMS
100
AcDbLine
 10
25.3
 20
24.8
 30
0.0
 11
26.9
 21
24.8
 31
0.0
  0
LINE
  5
277
330
17
100
AcDbEntity
  8
A-DIMS
100
AcDbLine
 10
25.3
 20
25.0
 30
0.0
 11
26.9
 21
25.0
 31
0.0
  0
LINE
  5
278
330
17
100
AcDbEntity
  8
A-DIMS
100
AcDbLine
 10
25.3
 20
25.3
 30
0.0
 11
26.9
 21
25.3
 31
0.0
  0
LINE
  5
279
330
17
100
AcDbEntity
  8
A-DIMS
100
AcDbLine
 10
25.3
 20
25.7
 30
0.0
 11
26.9
 21
25.7
 31
0.0
  0
LINE
  5
27A
330
17
100
AcDbEntity
  8
A-DIMS
100
AcDbLine
 10
25.3
 20
28.7
 30
0.0
 11
26.9
 21
28.7
 31
0.0
  0
LINE
  5
27B
330
17
100
AcDbEntity
  8
A-DIMS
100
AcDbLine
 10
25.3
 20
32.0
 30
0.0
 11
26.9
 21
32.0
 31
0.0
  0
LINE
  5
27C
330
17
100
AcDbEntity
  8
A-DIMS
100
AcDbLine
 10
27.5
 20
16.0
 30
0.0
 11
27.5
 21
32.0
 31
0.0
  0
LINE
  5
27D
330
17
100
AcDbEntity
  8
A-DIMS
100
AcDbLine
 10
28.25
 20
16.0
 30
0.0
 11
28.25
 21
32.0
 31
0.0
  0
ENDSEC
  0
SECTION
  2
OBJECTS
  0
DICTIONARY
  5
A
330
0
100
AcDbDictionary
281
1
  3
ACAD_COLOR
350
B
  3
ACAD_GROUP
350
C
  3
ACAD_LAYOUT
350
D
  3
ACAD_MATERIAL
350
E
  3
ACAD_MLEADERSTYLE
350
F
  3
ACAD_MLINESTYLE
350
10
  3
ACAD_PLOTSETTINGS
350
11
  3
ACAD_PLOTSTYLENAME
350
12
  3
ACAD_SCALELIST
350
14
  3
ACAD_TABLESTYLE
350
15
  3
ACAD_VISUALSTYLE
350
16
  3
EZDXF_META
350
2D
  0
DICTIONARY
  5
B
330
A
100
AcDbDictionary
281
1
  0
DICTIONARY
  5
C
330
A
100
AcDbDictionary
281
1
  0
DICTIONARY
  5
D
330
A
100
AcDbDictionary
281
1
  3
Model
350
1A
  3
Layout1
350
1E
  0
DICTIONARY
  5
E
330
A
100
AcDbDictionary
281
1
  3
ByBlock
350
1F
  3
ByLayer
350
20
  3
Global
350
21
  0
DICTIONARY
  5
F
330
A
100
AcDbDictionary
281
1
  3
Standard
350
2C
  0
DICTIONARY
  5
10
330
A
100
AcDbDictionary
281
1
  3
Standard
350
22
  0
DICTIONARY
  5
11
330
A
100
AcDbDictionary
281
1
  0
ACDBDICTIONARYWDFLT
  5
12
330
A
100
AcDbDictionary
281
1
  3
Normal
350
13
100
AcDbDictionaryWithDefault
340
13
  0
ACDBPLACEHOLDER
  5
13
330
12
  0
DICTIONARY
  5
14
330
A
100
AcDbDictionary
281
1
  0
DICTIONARY
  5
15
330
A
100
AcDbDictionary
281
1
  0
DICTIONARY
  5
16
330
A
100
AcDbDictionary
281
1
  3
2dWireframe
350
5A
  3
Basic
350
5B
  3
Brighten
350
5C
  3
ColorChange
350
5D
  3
Conceptual
350
5E
  3
Dim
350
5F
  3
EdgeColorOff
350
60
  3
Facepattern
350
61
  3
Flat
350
62
  3
FlatWithEdges
350
63
  3
Gouraud
350
64
  3
GouraudWithEdges
350
65
  3
Hidden
350
66
  3
JitterOff
350
67
  3
Linepattern
350
68
  3
Modeling
350
69
  3
OverhangOff
350
6A
  3
Realistic
350
6B
  3
Shaded
350
6C
  3
Shaded with edges
350
6D
  3
Shades of Gray
350
6E
  3
Sketchy
350
6F
  3
Thicken
350
70
  3
Wireframe
350
71
  3
X-Ray
350
72
  0
LAYOUT
  5
1A
330
D
100
AcDbPlotSettings
  1

  4
A3
  6

 40
7.5
 41
20.0
 42
7.5
 43
20.0
 44
420.0
 45
297.0
 46
0.0
 47
0.0
 48
0.0
 49
0.0
140
0.0
141
0.0
142
1.0
143
1.0
 70
1024
 72
1
 73
0
 74
5
  7

 75
16
 76
0
 77
2
 78
300
147
1.0
148
0.0
149
0.0
100
AcDbLayout
  1
Model
 70
1
 71
0
 10
0.0
 20
0.0
 11
420.0
 21
297.0
 12
0.0
 22
0.0
 32
0.0
 14
1e+20
 24
1e+20
 34
1e+20
 15
-1e+20
 25
-1e+20
 35
-1e+20
146
0.0
 13
0.0
 23
0.0
 33
0.0
 16
1.0
 26
0.0
 36
0.0
 17
0.0
 27
1.0
 37
0.0
 76
1
330
17
  0
LAYOUT
  5
1E
330
D
100
AcDbPlotSettings
  1

  4
A3
  6

 40
7.5
 41
20.0
 42
7.5
 43
20.0
 44
420.0
 45
297.0
 46
0.0
 47
0.0
 48
0.0
 49
0.0
140
0.0
141
0.0
142
1.0
143
1.0
 70
0
 72
1
 73
0
 74
5
  7

 75
16
 76
0
 77
2
 78
300
147
1.0
148
0.0
149
0.0
100
AcDbLayout
  1
Layout1
 70
1
 71
1
 10
0.0
 20
0.0
 11
420.0
 21
297.0
 12
0.0
 22
0.0
 32
0.0
 14
1e+20
 24
1e+20
 34
1e+20
 15
-1e+20
 25
-1e+20
 35
-1e+20
146
0.0
 13
0.0
 23
0.0
 33
0.0
 16
1.0
 26
0.0
 36
0.0
 17
0.0
 27
1.0
 37
0.0
 76
1
330
1B
  0
MATERIAL
  5
1F
102
{ACAD_REACTORS
330
E
102
}
330
E
100
AcDbMaterial
  1
ByBlock
  2

 70
0
 40
1.0
 71
1
 41
1.0
 91
-1023410177
 42
1.0
 72
1
  3

 73
1
 74
1
 75
1
 44
0.5
 73
0
 45
1.0
 46
1.0
 77
1
  4

 78
1
 79
1
170
1
 48
1.0
171
1
  6

172
1
173
1
174
1
140
1.0
141
1.0
175
1
  7

176
1
177
1
178
1
143
1.0
179
1
  8

270
1
271
1
272
1
145
1.0
146
1.0
273
1
  9

274
1
275
1
276
1
 42
1.0
 72
1
  3

 73
1
 74
1
 75
1
 94
63
  0
MATERIAL
  5
20
102
{ACAD_REACTORS
330
E
102
}
330
E
100
AcDbMaterial
  1
ByLayer
  2

 70
0
 40
1.0
 71
1
 41
1.0
 91
-1023410177
 42
1.0
 72
1
  3

 73
1
 74
1
 75
1
 44
0.5
 73
0
 45
1.0
 46
1.0
 77
1
  4

 78
1
 79
1
170
1
 48
1.0
171
1
  6

172
1
173
1
174
1
140
1.0
141
1.0
175
1
  7

176
1
177
1
178
1
143
1.0
179
1
  8

270
1
271
1
272
1
145
1.0
146
1.0
273
1
  9

274
1
275
1
276
1
 42
1.0
 72
1
  3

 73
1
 74
1
 75
1
 94
63
  0
MATERIAL
  5
21
102
{ACAD_REACTORS
330
E
102
}
330
E
100
AcDbMaterial
  1
Global
  2

 70
0
 40
1.0
 71
1
 41
1.0
 91
-1023410177
 42
1.0
 72
1
  3

 73
1
 74
1
 75
1
 44
0.5
 73
0
 45
1.0
 46
1.0
 77
1
  4

 78
1
 79
1
170
1
 48
1.0
171
1
  6

172
1
173
1
174
1
140
1.0
141
1.0
175
1
  7

176
1
177
1
178
1
143
1.0
179
1
  8

270
1
271
1
272
1
145
1.0
146
1.0
273
1
  9

274
1
275
1
276
1
 42
1.0
 72
1
  3

 73
1
 74
1
 75
1
 94
63
  0
MLINESTYLE
  5
22
102
{ACAD_REACTORS
330
10
102
}
330
10
100
AcDbMlineStyle
  2
Standard
 70
0
  3

 62
256
 51
90.0
 52
90.0
 71
2
 49
0.5
 62
256
  6
BYLAYER
 49
-0.5
 62
256
  6
BYLAYER
  0
MLEADERSTYLE
  5
2C
102
{ACAD_REACTORS
330
F
102
}
330
F
100
AcDbMLeaderStyle
179
2
170
2
171
1
172
0
 90
2
 40
0.0
 41
0.0
173
1
 91
-1056964608
 92
-2
290
1
 42
2.0
291
1
 43
8.0
  3
Standard
 44
4.0
300

342
29
174
1
175
1
176
0
178
1
 93
-1056964608
 45
4.0
292
0
297
0
 46
4.0
 94
-1056964608
 47
1.0
 49
1.0
140
1.0
294
1
141
0.0
177
0
142
1.0
295
0
296
0
143
3.75
271
0
272
9
273
9
  0
DICTIONARY
  5
2D
330
A
100
AcDbDictionary
280
1
281
1
  3
CREATED_BY_EZDXF
350
2E
  3
WRITTEN_BY_EZDXF
350
280
  0
DICTIONARYVAR
  5
2E
330
2D
100
DictionaryVariables
280
0
  1
1.4.4 @ 2026-10-04T18:58:31.917593+00:00
  0
VISUALSTYLE
  5
5A
102
{ACAD_REACTORS
330
16
102
}
330
16
100
AcDbVisualStyle
  2
2dWireframe
 70
4
177
3
291
0
 70
58
 90
2
176
1
 90
2
176
1
 90
0
176
1
 90
0
176
1
 40
0.6
176
1
 40
30.0
176
1
 62
7
420
16777215
176
1
 90
1
176
1
 90
4
176
1
 62
7
176
1
 62
257
176
1
 90
1
176
1
 90
1
176
1
 40
1.0
176
1
 90
8
176
1
 62
7
176
1
 40
1.0
176
1
 90
1
176
1
 90
6
176
1
 90
2
176
1
 62
7
176
1
 90
5
176
1
 90
0
176
1
 90
0
176
1
290
0
176
1
 90
1
176
1
 40
0.0
176
1
 90
0
176
1
290
1
176
1
290
1
176
1
290
0
176
1
290
0
176
1
290
0
176
1
290
0
176
1
290
0
176
1
290
0
176
1
290
0
176
1
 90
50
176
1
 40
0.0
176
1
 40
1.0
176
1
 90
0
176
1
 62
18
420
0
176
1
 90
50
176
1
 90
3
176
1
 62
5
420
255
176
1
290
0
176
1
 90
50
176
1
 90
50
176
1
 90
50
176
1
290
0
176
1
 90
50
176
1
 62
256
176
0
 40
1.0
176
0
 90
2
176
1
  1
strokes_ogs.tif
176
1
290
0
176
1
 40
1.0
176
1
 40
1.0
176
1
  0
VISUALSTYLE
  5
5B
102
{ACAD_REACTORS
330
16
102
}
330
16
100
AcDbVisualStyle
  2
Basic
 70
7
177
3
291
1
 70
58
 90
2
176
1
 90
2
176
1
 90
0
176
1
 90
1
176
1
 40
0.6
176
1
 40
30.0
176
1
 62
7
420
16777215
176
1
 90
1
176
1
 90
4
176
1
 62
7
176
1
 62
257
176
1
 90
1
176
1
 90
1
176
1
 40
1.0
176
1
 90
8
176
1
 62
7
176
1
 40
1.0
176
1
 90
1
176
1
 90
6
176
1
 90
2
176
1
 62
7
176
1
 90
5
176
1
 90
0
176
1
 90
0
176
1
290
0
176
1
 90
1
176
1
 40
0.0
176
1
 90
0
176
1
290
0
176
1
290
1
176
1
290
1
176
1
290
0
176
1
290
0
176
1
290
0
176
1
290
0
176
1
290
0
176
1
290
0
176
1
 90
50
176
1
 40
0.0
176
1
 40
1.0
176
1
 90
0
176
1
 62
18
420
0
176
1
 90
50
176
1
 90
3
176
1
 62
5
420
255
176
1
290
0
176
1
 90
50
176
1
 90
50
176
1
 90
50
176
1
290
0
176
1
 90
50
176
1
 62
256
176
0
 40
1.0
176
0
 90
2
176
1
  1
strokes_ogs.tif
176
1
290
0
176
1
 40
1.0
176
1
 40
1.0
176
1
  0
VISUALSTYLE
  5
5C
102
{ACAD_REACTORS
330
16
102
}
330
16
100
AcDbVisualStyle
  2
Brighten
 70
12
177
3
291
1
 70
58
 90
2
176
1
 90
2
176
1
 90
0
176
1
 90
2
176
1
 40
0.6
176
1
 40
30.0
176
1
 62
7
420
16777215
176
1
 90
1
176
1
 90
4
176
1
 62
7
176
1
 62
257
176
1
 90
1
176
1
 90
1
176
1
 40
1.0
176
1
 90
8
176
1
 62
7
176
1
 40
1.0
176
1
 90
1
176
1
 90
6
176
1
 90
2
176
1
 62
7
176
1
 90
5
176
1
 90
0
176
1
 90
0
176
1
290
0
176
1
 90
1
176
1
 40
0.0
176
1
 90
0
176
1
290
0
176
1
290
1
176
1
290
1
176
1
290
0
176
1
290
0
176
1
290
0
176
1
290
0
176
1
290
0
176
1
290
0
176
1
 90
50
176
1
 40
0.0
176
1
 40
1.0
176
1
 90
0
176
1
 62
18
420
0
176
1
 90
50
176
1
 90
3
176
1
 62
5
420
255
176
1
290
0
176
1
 90
50
176
1
 90
50
176
1
 90
50
176
1
290
0
176
1
 90
50
176
1
 62
256
176
0
 40
1.0
176
0
 90
2
176
1
  1
strokes_ogs.tif
176
1
290
0
176
1
 40
1.0
176
1
 40
1.0
176
1
  0
VISUALSTYLE
  5
5D
102
{ACAD_REACTORS
330
16
102
}
330
16
100
AcDbVisualStyle
  2
ColorChange
 70
16
177
3
291
1
 70
58
 90
2
176
1
 90
2
176
1
 90
0
176
1
 90
2
176
1
 40
0.6
176
1
 40
30.0
176
1
 62
7
420
16777215
176
1
 90
1
176
1
 90
4
176
1
 62
7
176
1
 62
257
176
1
 90
1
176
1
 90
1
176
1
 40
1.0
176
1
 90
8
176
1
 62
7
176
1
 40
1.0
176
1
 90
1
176
1
 90
6
176
1
 90
2
176
1
 62
7
176
1
 90
5
176
1
 90
0
176
1
 90
0
176
1
290
0
176
1
 90
1
176
1
 40
0.0
176
1
 90
0
176
1
290
0
176
1
290
1
176
1
290
1
176
1
290
0
176
1
290
0
176
1
290
0
176
1
290
0
176
1
290
0
176
1
290
0
176
1
 90
50
176
1
 40
0.0
176
1
 40
1.0
176
1
 90
0
176
1
 62
18
420
0
176
1
 90
50
176
1
 90
3
176
1
 62
5
420
255
176
1
290
0
176
1
 90
50
176
1
 90
50
176
1
 90
50
176
1
290
0
176
1
 90
50
176
1
 62
256
176
0
 40
1.0
176
0
 90
2
176
1
  1
strokes_ogs.tif
176
1
290
0
176
1
 40
1.0
176
1
 40
1.0
176
1
  0
VISUALSTYLE
  5
5E
102
{ACAD_REACTORS
330
16
102
}
330
16
100
AcDbVisualStyle
  2
Conceptual
 70
9
177
3
291
0
 70
58
 90
2
176
1
 90
2
176
1
 90
0
176
1
 90
3
176
1
 40
0.6
176
1
 40
30.0
176
1
 62
7
420
16777215
176
1
 90
1
176
1
 90
4
176
1
 62
7
176
1
 62
257
176
1
 90
1
176
1
 90
1
176
1
 40
1.0
176
1
 90
8
176
1
 62
7
176
1
 40
1.0
176
1
 90
1
176
1
 90
6
176
1
 90
2
176
1
 62
7
176
1
 90
5
176
1
 90
0
176
1
 90
0
176
1
290
0
176
1
 90
1
176
1
 40
0.0
176
1
 90
0
176
1
290
0
176
1
290
1
176
1
290
1
176
1
290
0
176
1
290
0
176
1
290
0
176
1
290
0
176
1
290
0
176
1
290
0
176
1
 90
50
176
1
 40
0.0
176
1
 40
1.0
176
1
 90
0
176
1
 62
18
420
0
176
1
 90
50
176
1
 90
3
176
1
 62
5
420
255
176
1
290
0
176
1
 90
50
176
1
 90
50
176
1
 90
50
176
1
290
0
176
1
 90
50
176
1
 62
256
176
0
 40
1.0
176
0
 90
2
176
1
  1
strokes_ogs.tif
176
1
290
0
176
1
 40
1.0
176
1
 40
1.0
176
1
  0
VISUALSTYLE
  5
5F
102
{ACAD_REACTORS
330
16
102
}
330
16
100
AcDbVisualStyle
  2
Dim
 70
11
177
3
291
1
 70
58
 90
2
176
1
 90
2
176
1
 90
0
176
1
 90
2
176
1
 40
0.6
176
1
 40
30.0
176
1
 62
7
420
16777215
176
1
 90
1
176
1
 90
4
176
1
 62
7
176
1
 62
257
176
1
 90
1
176
1
 90
1
176
1
 40
1.0
176
1
 90
8
176
1
 62
7
176
1
 40
1.0
176
1
 90
1
176
1
 90
6
176
1
 90
2
176
1
 62
7
176
1
 90
5
176
1
 90
0
176
1
 90
0
176
1
290
0
176
1
 90
1
176
1
 40
0.0
176
1
 90
0
176
1
290
0
176
1
290
1
176
1
290
1
176
1
290
0
176
1
290
0
176
1
290
0
176
1
290
0
176
1
290
0
176
1
290
0
176
1
 90
50
176
1
 40
0.0
176
1
 40
1.0
176
1
 90
0
176
1
 62
18
420
0
176
1
 90
50
176
1
 90
3
176
1
 62
5
420
255
176
1
290
0
176
1
 90
50
176
1
 90
50
176
1
 90
50
176
1
290
0
176
1
 90
50
176
1
 62
256
176
0
 40
1.0
176
0
 90
2
176
1
  1
strokes_ogs.tif
176
1
290
0
176
1
 40
1.0
176
1
 40
1.0
176
1
  0
VISUALSTYLE
  5
60
102
{ACAD_REACTORS
330
16
102
}
330
16
100
AcDbVisualStyle
  2
EdgeColorOff
 70
22
177
3
291
1
 70
58
 90
2
176
1
 90
2
176
1
 90
0
176
1
 90
2
176
1
 40
0.6
176
1
 40
30.0
176
1
 62
7
420
16777215
176
1
 90
1
176
1
 90
4
176
1
 62
7
176
1
 62
257
176
1
 90
1
176
1
 90
1
176
1
 40
1.0
176
1
 90
8
176
1
 62
7
176
1
 40
1.0
176
1
 90
1
176
1
 90
6
176
1
 90
2
176
1
 62
7
176
1
 90
5
176
1
 90
0
176
1
 90
0
176
1
290
0
176
1
 90
1
176
1
 40
0.0
176
1
 90
0
176
1
290
0
176
1
290
1
176
1
290
1
176
1
290
0
176
1
290
0
176
1
290
0
176
1
290
0
176
1
290
0
176
1
290
0
176
1
 90
50
176
1
 40
0.0
176
1
 40
1.0
176
1
 90
0
176
1
 62
18
420
0
176
1
 90
50
176
1
 90
3
176
1
 62
5
420
255
176
1
290
0
176
1
 90
50
176
1
 90
50
176
1
 90
50
176
1
290
0
176
1
 90
50
176
1
 62
256
176
0
 40
1.0
176
0
 90
2
176
1
  1
strokes_ogs.tif
176
1
290
0
176
1
 40
1.0
176
1
 40
1.0
176
1
  0
VISUALSTYLE
  5
61
102
{ACAD_REACTORS
330
16
102
}
330
16
100
AcDbVisualStyle
  2
Facepattern
 70
15
177
3
291
1
 70
58
 90
2
176
1
 90
2
176
1
 90
0
176
1
 90
2
176
1
 40
0.6
176
1
 40
30.0
176
1
 62
7
420
16777215
176
1
 90
1
176
1
 90
4
176
1
 62
7
176
1
 62
257
176
1
 90
1
176
1
 90
1
176
1
 40
1.0
176
1
 90
8
176
1
 62
7
176
1
 40
1.0
176
1
 90
1
176
1
 90
6
176
1
 90
2
176
1
 62
7
176
1
 90
5
176
1
 90
0
176
1
 90
0
176
1
290
0
176
1
 90
1
176
1
 40
0.0
176
1
 90
0
176
1
290
0
176
1
290
1
176
1
290
1
176
1
290
0
176
1
290
0
176
1
290
0
176
1
290
0
176
1
290
0
176
1
290
0
176
1
 90
50
176
1
 40
0.0
176
1
 40
1.0
176
1
 90
0
176
1
 62
18
420
0
176
1
 90
50
176
1
 90
3
176
1
 62
5
420
255
176
1
290
0
176
1
 90
50
176
1
 90
50
176
1
 90
50
176
1
290
0
176
1
 90
50
176
1
 62
256
176
0
 40
1.0
176
0
 90
2
176
1
  1
strokes_ogs.tif
176
1
290
0
176
1
 40
1.0
176
1
 40
1.0
176
1
  0
VISUALSTYLE
  5
62
102
{ACAD_REACTORS
330
16
102
}
330
16
100
AcDbVisualStyle
  2
Flat
 70
0
177
3
291
1
 70
58
 90
2
176
1
 90
2
176
1
 90
0
176
1
 90
2
176
1
 40
0.6
176
1
 40
30.0
176
1
 62
7
420
16777215
176
1
 90
1
176
1
 90
4
176
1
 62
7
176
1
 62
257
176
1
 90
1
176
1
 90
1
176
1
 40
1.0
176
1
 90
8
176
1
 62
7
176
1
 40
1.0
176
1
 90
1
176
1
 90
6
176
1
 90
2
176
1
 62
7
176
1
 90
5
176
1
 90
0
176
1
 90
0
176
1
290
0
176
1
 90
1
176
1
 40
0.0
176
1
 90
0
176
1
290
0
176
1
290
1
176
1
290
1
176
1
290
0
176
1
290
0
176
1
290
0
176
1
290
0
176
1
290
0
176
1
290
0
176
1
 90
50
176
1
 40
0.0
176
1
 40
1.0
176
1
 90
0
176
1
 62
18
420
0
176
1
 90
50
176
1
 90
3
176
1
 62
5
420
255
176
1
290
0
176
1
 90
50
176
1
 90
50
176
1
 90
50
176
1
290
0
176
1
 90
50
176
1
 62
256
176
0
 40
1.0
176
0
 90
2
176
1
  1
strokes_ogs.tif
176
1
290
0
176
1
 40
1.0
176
1
 40
1.0
176
1
  0
VISUALSTYLE
  5
63
102
{ACAD_REACTORS
330
16
102
}
330
16
100
AcDbVisualStyle
  2
FlatWithEdges
 70
1
177
3
291
1
 70
58
 90
2
176
1
 90
2
176
1
 90
0
176
1
 90
2
176
1
 40
0.6
176
1
 40
30.0
176
1
 62
7
420
16777215
176
1
 90
1
176
1
 90
4
176
1
 62
7
176
1
 62
257
176
1
 90
1
176
1
 90
1
176
1
 40
1.0
176
1
 90
8
176
1
 62
7
176
1
 40
1.0
176
1
 90
1
176
1
 90
6
176
1
 90
2
176
1
 62
7
176
1
 90
5
176
1
 90
0
176
1
 90
0
176
1
290
0
176
1
 90
1
176
1
 40
0.0
176
1
 90
0
176
1
290
0
176
1
290
1
176
1
290
1
176
1
290
0
176
1
290
0
176
1
290
0
176
1
290
0
176
1
290
0
176
1
290
0
176
1
 90
50
176
1
 40
0.0
176
1
 40
1.0
176
1
 90
0
176
1
 62
18
420
0
176
1
 90
50
176
1
 90
3
176
1
 62
5
420
255
176
1
290
0
176
1
 90
50
176
1
 90
50
176
1
 90
50
176
1
290
0
176
1
 90
50
176
1
 62
256
176
0
 40
1.0
176
0
 90
2
176
1
  1
strokes_ogs.tif
176
1
290
0
176
1
 40
1.0
176
1
 40
1.0
176
1
  0
VISUALSTYLE
  5
64
102
{ACAD_REACTORS
330
16
102
}
330
16
100
AcDbVisualStyle
  2
Gouraud
 70
2
177
3
291
1
 70
58
 90
2
176
1
 90
2
176
1
 90
0
176
1
 90
2
176
1
 40
0.6
176
1
 40
30.0
176
1
 62
7
420
16777215
176
1
 90
1
176
1
 90
4
176
1
 62
7
176
1
 62
257
176
1
 90
1
176
1
 90
1
176
1
 40
1.0
176
1
 90
8
176
1
 62
7
176
1
 40
1.0
176
1
 90
1
176
1
 90
6
176
1
 90
2
176
1
 62
7
176
1
 90
5
176
1
 90
0
176
1
 90
0
176
1
290
0
176
1
 90
1
176
1
 40
0.0
176
1
 90
0
176
1
290
0
176
1
290
1
176
1
290
1
176
1
290
0
176
1
290
0
176
1
290
0
176
1
290
0
176
1
290
0
176
1
290
0
176
1
 90
50
176
1
 40
0.0
176
1
 40
1.0
176
1
 90
0
176
1
 62
18
420
0
176
1
 90
50
176
1
 90
3
176
1
 62
5
420
255
176
1
290
0
176
1
 90
50
176
1
 90
50
176
1
 90
50
176
1
290
0
176
1
 90
50
176
1
 62
256
176
0
 40
1.0
176
0
 90
2
176
1
  1
strokes_ogs.tif
176
1
290
0
176
1
 40
1.0
176
1
 40
1.0
176
1
  0
VISUALSTYLE
  5
65
102
{ACAD_REACTORS
330
16
102
}
330
16
100
AcDbVisualStyle
  2
GouraudWithEdges
 70
3
177
3
291
1
 70
58
 90
2
176
1
 90
2
176
1
 90
0
176
1
 90
2
176
1
 40
0.6
176
1
 40
30.0
176
1
 62
7
420
16777215
176
1
 90
1
176
1
 90
4
176
1
 62
7
176
1
 62
257
176
1
 90
1
176
1
 90
1
176
1
 40
1.0
176
1
 90
8
176
1
 62
7
176
1
 40
1.0
176
1
 90
1
176
1
 90
6
176
1
 90
2
176
1
 62
7
176
1
 90
5
176
1
 90
0
176
1
 90
0
176
1
290
0
176
1
 90
1
176
1
 40
0.0
176
1
 90
0
176
1
290
0
176
1
290
1
176
1
290
1
176
1
290
0
176
1
290
0
176
1
290
0
176
1
290
0
176
1
290
0
176
1
290
0
176
1
 90
50
176
1
 40
0.0
176
1
 40
1.0
176
1
 90
0
176
1
 62
18
420
0
176
1
 90
50
176
1
 90
3
176
1
 62
5
420
255
176
1
290
0
176
1
 90
50
176
1
 90
50
176
1
 90
50
176
1
290
0
176
1
 90
50
176
1
 62
256
176
0
 40
1.0
176
0
 90
2
176
1
  1
strokes_ogs.tif
176
1
290
0
176
1
 40
1.0
176
1
 40
1.0
176
1
  0
VISUALSTYLE
  5
66
102
{ACAD_REACTORS
330
16
102
}
330
16
100
AcDbVisualStyle
  2
Hidden
 70
6
177
3
291
0
 70
58
 90
2
176
1
 90
2
176
1
 90
0
176
1
 90
1
176
1
 40
0.6
176
1
 40
30.0
176
1
 62
7
420
16777215
176
1
 90
1
176
1
 90
4
176
1
 62
7
176
1
 62
257
176
1
 90
1
176
1
 90
1
176
1
 40
1.0
176
1
 90
8
176
1
 62
7
176
1
 40
1.0
176
1
 90
1
176
1
 90
6
176
1
 90
2
176
1
 62
7
176
1
 90
5
176
1
 90
0
176
1
 90
0
176
1
290
0
176
1
 90
1
176
1
 40
0.0
176
1
 90
0
176
1
290
0
176
1
290
1
176
1
290
1
176
1
290
0
176
1
290
0
176
1
290
0
176
1
290
0
176
1
290
0
176
1
290
0
176
1
 90
50
176
1
 40
0.0
176
1
 40
1.0
176
1
 90
0
176
1
 62
18
420
0
176
1
 90
50
176
1
 90
3
176
1
 62
5
420
255
176
1
290
0
176
1
 90
50
176
1
 90
50
176
1
 90
50
176
1
290
0
176
1
 90
50
176
1
 62
256
176
0
 40
1.0
176
0
 90
2
176
1
  1
strokes_ogs.tif
176
1
290
0
176
1
 40
1.0
176
1
 40
1.0
176
1
  0
VISUALSTYLE
  5
67
102
{ACAD_REACTORS
330
16
102
}
330
16
100
AcDbVisualStyle
  2
JitterOff
 70
20
177
3
291
1
 70
58
 90
2
176
1
 90
2
176
1
 90
0
176
1
 90
2
176
1
 40
0.6
176
1
 40
30.0
176
1
 62
7
420
16777215
176
1
 90
1
176
1
 90
4
176
1
 62
7
176
1
 62
257
176
1
 90
1
176
1
 90
1
176
1
 40
1.0
176
1
 90
8
176
1
 62
7
176
1
 40
1.0
176
1
 90
1
176
1
 90
6
176
1
 90
2
176
1
 62
7
176
1
 90
5
176
1
 90
0
176
1
 90
0
176
1
290
0
176
1
 90
1
176
1
 40
0.0
176
1
 90
0
176
1
290
0
176
1
290
1
176
1
290
1
176
1
290
0
176
1
290
0
176
1
290
0
176
1
290
0
176
1
290
0
176
1
290
0
176
1
 90
50
176
1
 40
0.0
176
1
 40
1.0
176
1
 90
0
176
1
 62
18
420
0
176
1
 90
50
176
1
 90
3
176
1
 62
5
420
255
176
1
290
0
176
1
 90
50
176
1
 90
50
176
1
 90
50
176
1
290
0
176
1
 90
50
176
1
 62
256
176
0
 40
1.0
176
0
 90
2
176
1
  1
strokes_ogs.tif
176
1
290
0
176
1
 40
1.0
176
1
 40
1.0
176
1
  0
VISUALSTYLE
  5
68
102
{ACAD_REACTORS
330
16
102
}
330
16
100
AcDbVisualStyle
  2
Linepattern
 70
14
177
3
291
1
 70
58
 90
2
176
1
 90
2
176
1
 90
0
176
1
 90
2
176
1
 40
0.6
176
1
 40
30.0
176
1
 62
7
420
16777215
176
1
 90
1
176
1
 90
4
176
1
 62
7
176
1
 62
257
176
1
 90
1
176
1
 90
1
176
1
 40
1.0
176
1
 90
8
176
1
 62
7
176
1
 40
1.0
176
1
 90
1
176
1
 90
6
176
1
 90
2
176
1
 62
7
176
1
 90
5
176
1
 90
0
176
1
 90
0
176
1
290
0
176
1
 90
1
176
1
 40
0.0
176
1
 90
0
176
1
290
0
176
1
290
1
176
1
290
1
176
1
290
0
176
1
290
0
176
1
290
0
176
1
290
0
176
1
290
0
176
1
290
0
176
1
 90
50
176
1
 40
0.0
176
1
 40
1.0
176
1
 90
0
176
1
 62
18
420
0
176
1
 90
50
176
1
 90
3
176
1
 62
5
420
255
176
1
290
0
176
1
 90
50
176
1
 90
50
176
1
 90
50
176
1
290
0
176
1
 90
50
176
1
 62
256
176
0
 40
1.0
176
0
 90
2
176
1
  1
strokes_ogs.tif
176
1
290
0
176
1
 40
1.0
176
1
 40
1.0
176
1
  0
VISUALSTYLE
  5
69
102
{ACAD_REACTORS
330
16
102
}
330
16
100
AcDbVisualStyle
  2
Modeling
 70
10
177
3
291
0
 70
58
 90
2
176
1
 90
2
176
1
 90
0
176
1
 90
2
176
1
 40
0.6
176
1
 40
30.0
176
1
 62
7
420
16777215
176
1
 90
1
176
1
 90
4
176
1
 62
7
176
1
 62
257
176
1
 90
1
176
1
 90
1
176
1
 40
1.0
176
1
 90
8
176
1
 62
7
176
1
 40
1.0
176
1
 90
1
176
1
 90
6
176
1
 90
2
176
1
 62
7
176
1
 90
5
176
1
 90
0
176
1
 90
0
176
1
290
0
176
1
 90
1
176
1
 40
0.0
176
1
 90
0
176
1
290
0
176
1
290
1
176
1
290
1
176
1
290
0
176
1
290
0
176
1
290
0
176
1
290
0
176
1
290
0
176
1
290
0
176
1
 90
50
176
1
 40
0.0
176
1
 40
1.0
176
1
 90
0
176
1
 62
18
420
0
176
1
 90
50
176
1
 90
3
176
1
 62
5
420
255
176
1
290
0
176
1
 90
50
176
1
 90
50
176
1
 90
50
176
1
290
0
176
1
 90
50
176
1
 62
256
176
0
 40
1.0
176
0
 90
2
176
1
  1
strokes_ogs.tif
176
1
290
0
176
1
 40
1.0
176
1
 40
1.0
176
1
  0
VISUALSTYLE
  5
6A
102
{ACAD_REACTORS
330
16
102
}
330
16
100
AcDbVisualStyle
  2
OverhangOff
 70
21
177
3
291
1
 70
58
 90
2
176
1
 90
2
176
1
 90
0
176
1
 90
2
176
1
 40
0.6
176
1
 40
30.0
176
1
 62
7
420
16777215
176
1
 90
1
176
1
 90
4
176
1
 62
7
176
1
 62
257
176
1
 90
1
176
1
 90
1
176
1
 40
1.0
176
1
 90
8
176
1
 62
7
176
1
 40
1.0
176
1
 90
1
176
1
 90
6
176
1
 90
2
176
1
 62
7
176
1
 90
5
176
1
 90
0
176
1
 90
0
176
1
290
0
176
1
 90
1
176
1
 40
0.0
176
1
 90
0
176
1
290
0
176
1
290
1
176
1
290
1
176
1
290
0
176
1
290
0
176
1
290
0
176
1
290
0
176
1
290
0
176
1
290
0
176
1
 90
50
176
1
 40
0.0
176
1
 40
1.0
176
1
 90
0
176
1
 62
18
420
0
176
1
 90
50
176
1
 90
3
176
1
 62
5
420
255
176
1
290
0
176
1
 90
50
176
1
 90
50
176
1
 90
50
176
1
290
0
176
1
 90
50
176
1
 62
256
176
0
 40
1.0
176
0
 90
2
176
1
  1
strokes_ogs.tif
176
1
290
0
176
1
 40
1.0
176
1
 40
1.0
176
1
  0
VISUALSTYLE
  5
6B
102
{ACAD_REACTORS
330
16
102
}
330
16
100
AcDbVisualStyle
  2
Realistic
 70
8
177
3
291
0
 70
58
 90
2
176
1
 90
2
176
1
 90
0
176
1
 90
2
176
1
 40
0.6
176
1
 40
30.0
176
1
 62
7
420
16777215
176
1
 90
1
176
1
 90
4
176
1
 62
7
176
1
 62
257
176
1
 90
1
176
1
 90
1
176
1
 40
1.0
176
1
 90
8
176
1
 62
7
176
1
 40
1.0
176
1
 90
1
176
1
 90
6
176
1
 90
2
176
1
 62
7
176
1
 90
5
176
1
 90
0
176
1
 90
0
176
1
290
0
176
1
 90
1
176
1
 40
0.0
176
1
 90
0
176
1
290
0
176
1
290
1
176
1
290
1
176
1
290
0
176
1
290
0
176
1
290
0
176
1
290
0
176
1
290
0
176
1
290
0
176
1
 90
50
176
1
 40
0.0
176
1
 40
1.0
176
1
 90
0
176
1
 62
18
420
0
176
1
 90
50
176
1
 90
3
176
1
 62
5
420
255
176
1
290
0
176
1
 90
50
176
1
 90
50
176
1
 90
50
176
1
290
0
176
1
 90
50
176
1
 62
256
176
0
 40
1.0
176
0
 90
2
176
1
  1
strokes_ogs.tif
176
1
290
0
176
1
 40
1.0
176
1
 40
1.0
176
1
  0
VISUALSTYLE
  5
6C
102
{ACAD_REACTORS
330
16
102
}
330
16
100
AcDbVisualStyle
  2
Shaded
 70
27
177
3
291
0
 70
58
 90
2
176
1
 90
2
176
1
 90
0
176
1
 90
2
176
1
 40
0.6
176
1
 40
30.0
176
1
 62
7
420
16777215
176
1
 90
1
176
1
 90
4
176
1
 62
7
176
1
 62
257
176
1
 90
1
176
1
 90
1
176
1
 40
1.0
176
1
 90
8
176
1
 62
7
176
1
 40
1.0
176
1
 90
1
176
1
 90
6
176
1
 90
2
176
1
 62
7
176
1
 90
5
176
1
 90
0
176
1
 90
0
176
1
290
0
176
1
 90
1
176
1
 40
0.0
176
1
 90
0
176
1
290
0
176
1
290
1
176
1
290
1
176
1
290
0
176
1
290
0
176
1
290
0
176
1
290
0
176
1
290
0
176
1
290
0
176
1
 90
50
176
1
 40
0.0
176
1
 40
1.0
176
1
 90
0
176
1
 62
18
420
0
176
1
 90
50
176
1
 90
3
176
1
 62
5
420
255
176
1
290
0
176
1
 90
50
176
1
 90
50
176
1
 90
50
176
1
290
0
176
1
 90
50
176
1
 62
256
176
0
 40
1.0
176
0
 90
2
176
1
  1
strokes_ogs.tif
176
1
290
0
176
1
 40
1.0
176
1
 40
1.0
176
1
  0
VISUALSTYLE
  5
6D
102
{ACAD_REACTORS
330
16
102
}
330
16
100
AcDbVisualStyle
  2
Shaded with edges
 70
26
177
3
291
0
 70
58
 90
2
176
1
 90
2
176
1
 90
0
176
1
 90
2
176
1
 40
0.6
176
1
 40
30.0
176
1
 62
7
420
16777215
176
1
 90
1
176
1
 90
4
176
1
 62
7
176
1
 62
257
176
1
 90
1
176
1
 90
1
176
1
 40
1.0
176
1
 90
8
176
1
 62
7
176
1
 40
1.0
176
1
 90
1
176
1
 90
6
176
1
 90
2
176
1
 62
7
176
1
 90
5
176
1
 90
0
176
1
 90
0
176
1
290
0
176
1
 90
1
176
1
 40
0.0
176
1
 90
0
176
1
290
0
176
1
290
1
176
1
290
1
176
1
290
0
176
1
290
0
176
1
290
0
176
1
290
0
176
1
290
0
176
1
290
0
176
1
 90
50
176
1
 40
0.0
176
1
 40
1.0
176
1
 90
0
176
1
 62
18
420
0
176
1
 90
50
176
1
 90
3
176
1
 62
5
420
255
176
1
290
0
176
1
 90
50
176
1
 90
50
176
1
 90
50
176
1
290
0
176
1
 90
50
176
1
 62
256
176
0
 40
1.0
176
0
 90
2
176
1
  1
strokes_ogs.tif
176
1
290
0
176
1
 40
1.0
176
1
 40
1.0
176
1
  0
VISUALSTYLE
  5
6E
102
{ACAD_REACTORS
330
16
102
}
330
16
100
AcDbVisualStyle
  2
Shades of Gray
 70
23
177
3
291
0
 70
58
 90
2
176
1
 90
2
176
1
 90
0
176
1
 90
2
176
1
 40
0.6
176
1
 40
30.0
176
1
 62
7
420
16777215
176
1
 90
1
176
1
 90
4
176
1
 62
7
176
1
 62
257
176
1
 90
1
176
1
 90
1
176
1
 40
1.0
176
1
 90
8
176
1
 62
7
176
1
 40
1.0
176
1
 90
1
176
1
 90
6
176
1
 90
2
176
1
 62
7
176
1
 90
5
176
1
 90
0
176
1
 90
0
176
1
290
0
176
1
 90
1
176
1
 40
0.0
176
1
 90
0
176
1
290
0
176
1
290
1
176
1
290
1
176
1
290
0
176
1
290
0
176
1
290
0
176
1
290
0
176
1
290
0
176
1
290
0
176
1
 90
50
176
1
 40
0.0
176
1
 40
1.0
176
1
 90
0
176
1
 62
18
420
0
176
1
 90
50
176
1
 90
3
176
1
 62
5
420
255
176
1
290
0
176
1
 90
50
176
1
 90
50
176
1
 90
50
176
1
290
0
176
1
 90
50
176
1
 62
256
176
0
 40
1.0
176
0
 90
2
176
1
  1
strokes_ogs.tif
176
1
290
0
176
1
 40
1.0
176
1
 40
1.0
176
1
  0
VISUALSTYLE
  5
6F
102
{ACAD_REACTORS
330
16
102
}
330
16
100
AcDbVisualStyle
  2
Sketchy
 70
24
177
3
291
0
 70
58
 90
2
176
1
 90
2
176
1
 90
0
176
1
 90
1
176
1
 40
0.6
176
1
 40
30.0
176
1
 62
7
420
16777215
176
1
 90
1
176
1
 90
4
176
1
 62
7
176
1
 62
257
176
1
 90
1
176
1
 90
1
176
1
 40
1.0
176
1
 90
8
176
1
 62
7
176
1
 40
1.0
176
1
 90
1
176
1
 90
6
176
1
 90
2
176
1
 62
7
176
1
 90
5
176
1
 90
0
176
1
 90
0
176
1
290
0
176
1
 90
1
176
1
 40
0.0
176
1
 90
0
176
1
290
0
176
1
290
1
176
1
290
1
176
1
290
0
176
1
290
0
176
1
290
0
176
1
290
0
176
1
290
0
176
1
290
0
176
1
 90
50
176
1
 40
0.0
176
1
 40
1.0
176
1
 90
0
176
1
 62
18
420
0
176
1
 90
50
176
1
 90
3
176
1
 62
5
420
255
176
1
290
0
176
1
 90
50
176
1
 90
50
176
1
 90
50
176
1
290
0
176
1
 90
50
176
1
 62
256
176
0
 40
1.0
176
0
 90
2
176
1
  1
strokes_ogs.tif
176
1
290
0
176
1
 40
1.0
176
1
 40
1.0
176
1
  0
VISUALSTYLE
  5
70
102
{ACAD_REACTORS
330
16
102
}
330
16
100
AcDbVisualStyle
  2
Thicken
 70
13
177
3
291
1
 70
58
 90
2
176
1
 90
2
176
1
 90
0
176
1
 90
2
176
1
 40
0.6
176
1
 40
30.0
176
1
 62
7
420
16777215
176
1
 90
1
176
1
 90
4
176
1
 62
7
176
1
 62
257
176
1
 90
1
176
1
 90
1
176
1
 40
1.0
176
1
 90
8
176
1
 62
7
176
1
 40
1.0
176
1
 90
1
176
1
 90
6
176
1
 90
2
176
1
 62
7
176
1
 90
5
176
1
 90
0
176
1
 90
0
176
1
290
0
176
1
 90
1
176
1
 40
0.0
176
1
 90
0
176
1
290
0
176
1
290
1
176
1
290
1
176
1
290
0
176
1
290
0
176
1
290
0
176
1
290
0
176
1
290
0
176
1
290
0
176
1
 90
50
176
1
 40
0.0
176
1
 40
1.0
176
1
 90
0
176
1
 62
18
420
0
176
1
 90
50
176
1
 90
3
176
1
 62
5
420
255
176
1
290
0
176
1
 90
50
176
1
 90
50
176
1
 90
50
176
1
290
0
176
1
 90
50
176
1
 62
256
176
0
 40
1.0
176
0
 90
2
176
1
  1
strokes_ogs.tif
176
1
290
0
176
1
 40
1.0
176
1
 40
1.0
176
1
  0
VISUALSTYLE
  5
71
102
{ACAD_REACTORS
330
16
102
}
330
16
100
AcDbVisualStyle
  2
Wireframe
 70
5
177
3
291
0
 70
58
 90
2
176
1
 90
2
176
1
 90
0
176
1
 90
0
176
1
 40
0.6
176
1
 40
30.0
176
1
 62
7
420
16777215
176
1
 90
1
176
1
 90
4
176
1
 62
7
176
1
 62
257
176
1
 90
1
176
1
 90
1
176
1
 40
1.0
176
1
 90
8
176
1
 62
7
176
1
 40
1.0
176
1
 90
1
176
1
 90
6
176
1
 90
2
176
1
 62
7
176
1
 90
5
176
1
 90
0
176
1
 90
0
176
1
290
0
176
1
 90
1
176
1
 40
0.0
176
1
 90
0
176
1
290
0
176
1
290
1
176
1
290
1
176
1
290
0
176
1
290
0
176
1
290
0
176
1
290
0
176
1
290
0
176
1
290
0
176
1
 90
50
176
1
 40
0.0
176
1
 40
1.0
176
1
 90
0
176
1
 62
18
420
0
176
1
 90
50
176
1
 90
3
176
1
 62
5
420
255
176
1
290
0
176
1
 90
50
176
1
 90
50
176
1
 90
50
176
1
290
0
176
1
 90
50
176
1
 62
256
176
0
 40
1.0
176
0
 90
2
176
1
  1
strokes_ogs.tif
176
1
290
0
176
1
 40
1.0
176
1
 40
1.0
176
1
  0
VISUALSTYLE
  5
72
102
{ACAD_REACTORS
330
16
102
}
330
16
100
AcDbVisualStyle
  2
X-Ray
 70
25
177
3
291
0
 70
58
 90
2
176
1
 90
2
176
1
 90
0
176
1
 90
2
176
1
 40
0.5
176
1
 40
30.0
176
1
 62
7
420
16777215
176
1
 90
1
176
1
 90
4
176
1
 62
7
176
1
 62
257
176
1
 90
1
176
1
 90
1
176
1
 40
1.0
176
1
 90
8
176
1
 62
7
176
1
 40
1.0
176
1
 90
1
176
1
 90
6
176
1
 90
2
176
1
 62
7
176
1
 90
5
176
1
 90
0
176
1
 90
0
176
1
290
0
176
1
 90
1
176
1
 40
0.0
176
1
 90
0
176
1
290
0
176
1
290
1
176
1
290
1
176
1
290
0
176
1
290
0
176
1
290
0
176
1
290
0
176
1
290
0
176
1
290
0
176
1
 90
50
176
1
 40
0.0
176
1
 40
1.0
176
1
 90
0
176
1
 62
18
420
0
176
1
 90
50
176
1
 90
3
176
1
 62
5
420
255
176
1
290
0
176
1
 90
50
176
1
 90
50
176
1
 90
50
176
1
290
0
176
1
 90
50
176
1
 62
256
176
0
 40
1.0
176
0
 90
2
176
1
  1
strokes_ogs.tif
176
1
290
0
176
1
 40
1.0
176
1
 40
1.0
176
1
  0
DICTIONARYVAR
  5
280
330
2D
100
DictionaryVariables
280
0
  1
1.4.4 @ 2026-10-04T18:58:31.966174+00:00
  0
ENDSEC
  0
EOF
