  0
SECTION
  2
HEADER
  9
$ACADVER
  1
AC1032
  9
$ACADMAINTVER
 90
4
  9
$DWGCODEPAGE
  3
ANSI_1252
  9
$LASTSAVEDBY
  1
ezdxf
  9
$REQUIREDVERSIONS
160
0
  9
$INSBASE
 10
0.0
 20
0.0
 30
0.0
  9
$EXTMIN
 10
1e+20
 20
1e+20
 30
1e+20
  9
$EXTMAX
 10
-1e+20
 20
-1e+20
 30
-1e+20
  9
$LIMMIN
 10
0.0
 20
0.0
  9
$LIMMAX
 10
420.0
 20
297.0
  9
$ORTHOMODE
 70
0
  9
$REGENMODE
 70
1
  9
$FILLMODE
 70
1
  9
$QTEXTMODE
 70
0
  9
$MIRRTEXT
 70
1
  9
$LTSCALE
 40
1.0
  9
$ATTMODE
 70
1
  9
$TEXTSIZE
 40
2.5
  9
$TRACEWID
 40
1.0
  9
$TEXTSTYLE
  7
OpenSans
  9
$CLAYER
  8
0
  9
$CELTYPE
  6
ByLayer
  9
$CECOLOR
 62
256
  9
$CELTSCALE
 40
1.0
  9
$DISPSILH
 70
0
  9
$DIMSCALE
 40
1.0
  9
$DIMASZ
 40
0.175
  9
$DIMEXO
 40
0.125
  9
$DIMDLI
 40
3.75
  9
$DIMRND
 40
0.0
  9
$DIMDLE
 40
0.0
  9
$DIMEXE
 40
0.375
  9
$DIMTP
 40
0.0
  9
$DIMTM
 40
0.0
  9
$DIMTXT
 40
0.25
  9
$DIMCEN
 40
2.5
  9
$DIMTSZ
 40
0.0
  9
$DIMTOL
 70
0
  9
$DIMLIM
 70
0
  9
$DIMTIH
 70
0
  9
$DIMTOH
 70
0
  9
$DIMSE1
 70
0
  9
$DIMSE2
 70
0
  9
$DIMTAD
 70
1
  9
$DIMZIN
 70
12
  9
$DIMBLK
  1
ARCHTICK
  9
$DIMASO
 70
1
  9
$DIMSHO
 70
1
  9
$DIMPOST
  1

  9
$DIMAPOST
  1

  9
$DIMALT
 70
0
  9
$DIMALTD
 70
3
  9
$DIMALTF
 40
0.03937007874
  9
$DIMLFAC
 40
100.0
  9
$DIMTOFL
 70
1
  9
$DIMTVP
 40
0.0
  9
$DIMTIX
 70
0
  9
$DIMSOXD
 70
0
  9
$DIMSAH
 70
0
  9
$DIMBLK1
  1

  9
$DIMBLK2
  1

  9
$DIMSTYLE
  2
EZDXF
  9
$DIMCLRD
 70
0
  9
$DIMCLRE
 70
0
  9
$DIMCLRT
 70
0
  9
$DIMTFAC
 40
0.5
  9
$DIMGAP
 40
0.1
  9
$DIMJUST
 70
0
  9
$DIMSD1
 70
0
  9
$DIMSD2
 70
0
  9
$DIMTOLJ
 70
0
  9
$DIMTZIN
 70
8
  9
$DIMALTZ
 70
0
  9
$DIMALTTZ
 70
0
  9
$DIMUPT
 70
1
  9
$DIMDEC
 70
2
  9
$DIMTDEC
 70
2
  9
$DIMALTU
 70
2
  9
$DIMALTTD
 70
3
  9
$DIMTXSTY
  7
OpenSansCondensed-Light
  9
$DIMAUNIT
 70
0
  9
$DIMADEC
 70
2
  9
$DIMALTRND
 40
0.0
  9
$DIMAZIN
 70
3
  9
$DIMDSEP
 70
46
  9
$DIMATFIT
 70
3
  9
$DIMFRAC
 70
0
  9
$DIMLDRBLK
  1

  9
$DIMLUNIT
 70
2
  9
$DIMLWD
 70
-2
  9
$DIMLWE
 70
-2
  9
$DIMTMOVE
 70
2
  9
$DIMFXL
 40
1.0
  9
$DIMFXLON
 70
0
  9
$DIMJOGANG
 40
0.785398163397
  9
$DIMTFILL
 70
0
  9
$DIMTFILLCLR
 70
0
  9
$DIMARCSYM
 70
0
  9
$DIMLTYPE
  6

  9
$DIMLTEX1
  6

  9
$DIMLTEX2
  6

  9
$DIMTXTDIRECTION
 70
0
  9
$LUNITS
 70
2
  9
$LUPREC
 70
4
  9
$SKETCHINC
 40
1.0
  9
$FILLETRAD
 40
10.0
  9
$AUNITS
 70
0
  9
$AUPREC
 70
2
  9
$MENU
  1
.
  9
$ELEVATION
 40
0.0
  9
$PELEVATION
 40
0.0
  9
$THICKNESS
 40
0.0
  9
$LIMCHECK
 70
0
  9
$CHAMFERA
 40
0.0
  9
$CHAMFERB
 40
0.0
  9
$CHAMFERC
 40
0.0
  9
$CHAMFERD
 40
0.0
  9
$SKPOLY
 70
0
  9
$TDCREATE
 40
2461318.7629166665
  9
$TDUCREATE
 40
2458532.153996898
  9
$TDUPDATE
 40
2461318.7629166665
  9
$TDUUPDATE
 40
2458532.1544311
  9
$TDINDWG
 40
0.0
  9
$TDUSRTIMER
 40
0.0
  9
$USRTIMER
 70
1
  9
$ANGBASE
 50
0.0
  9
$ANGDIR
 70
0
  9
$PDMODE
 70
0
  9
$PDSIZE
 40
0.0
  9
$PLINEWID
 40
0.0
  9
$SPLFRAME
 70
0
  9
$SPLINETYPE
 70
6
  9
$SPLINESEGS
 70
8
  9
$HANDSEED
  5
22C
  9
$SURFTAB1
 70
6
  9
$SURFTAB2
 70
6
  9
$SURFTYPE
 70
6
  9
$SURFU
 70
6
  9
$SURFV
 70
6
  9
$UCSBASE
  2

  9
$UCSNAME
  2

  9
$UCSORG
 10
0.0
 20
0.0
 30
0.0
  9
$UCSXDIR
 10
1.0
 20
0.0
 30
0.0
  9
$UCSYDIR
 10
0.0
 20
1.0
 30
0.0
  9
$UCSORTHOREF
  2

  9
$UCSORTHOVIEW
 70
0
  9
$UCSORGTOP
 10
0.0
 20
0.0
 30
0.0
  9
$UCSORGBOTTOM
 10
0.0
 20
0.0
 30
0.0
  9
$UCSORGLEFT
 10
0.0
 20
0.0
 30
0.0
  9
$UCSORGRIGHT
 10
0.0
 20
0.0
 30
0.0
  9
$UCSORGFRONT
 10
0.0
 20
0.0
 30
0.0
  9
$UCSORGBACK
 10
0.0
 20
0.0
 30
0.0
  9
$PUCSBASE
  2

  9
$PUCSNAME
  2

  9
$PUCSORG
 10
0.0
 20
0.0
 30
0.0
  9
$PUCSXDIR
 10
1.0
 20
0.0
 30
0.0
  9
$PUCSYDIR
 10
0.0
 20
1.0
 30
0.0
  9
$PUCSORTHOREF
  2

  9
$PUCSORTHOVIEW
 70
0
  9
$PUCSORGTOP
 10
0.0
 20
0.0
 30
0.0
  9
$PUCSORGBOTTOM
 10
0.0
 20
0.0
 30
0.0
  9
$PUCSORGLEFT
 10
0.0
 20
0.0
 30
0.0
  9
$PUCSORGRIGHT
 10
0.0
 20
0.0
 30
0.0
  9
$PUCSORGFRONT
 10
0.0
 20
0.0
 30
0.0
  9
$PUCSORGBACK
 10
0.0
 20
0.0
 30
0.0
  9
$USERI1
 70
0
  9
$USERI2
 70
0
  9
$USERI3
 70
0
  9
$USERI4
 70
0
  9
$USERI5
 70
0
  9
$USERR1
 40
0.0
  9
$USERR2
 40
0.0
  9
$USERR3
 40
0.0
  9
$USERR4
 40
0.0
  9
$USERR5
 40
0.0
  9
$WORLDVIEW
 70
1
  9
$SHADEDGE
 70
3
  9
$SHADEDIF
 70
70
  9
$TILEMODE
 70
1
  9
$MAXACTVP
 70
64
  9
$PINSBASE
 10
0.0
 20
0.0
 30
0.0
  9
$PLIMCHECK
 70
0
  9
$PEXTMIN
 10
1e+20
 20
1e+20
 30
1e+20
  9
$PEXTMAX
 10
-1e+20
 20
-1e+20
 30
-1e+20
  9
$PLIMMIN
 10
0.0
 20
0.0
  9
$PLIMMAX
 10
420.0
 20
297.0
  9
$UNITMODE
 70
0
  9
$VISRETAIN
 70
1
  9
$PLINEGEN
 70
0
  9
$PSLTSCALE
 70
1
  9
$TREEDEPTH
 70
3020
  9
$CMLSTYLE
  2
Standard
  9
$CMLJUST
 70
0
  9
$CMLSCALE
 40
20.0
  9
$PROXYGRAPHICS
 70
1
  9
$MEASUREMENT
 70
1
  9
$CELWEIGHT
370
-1
  9
$ENDCAPS
280
0
  9
$JOINSTYLE
280
0
  9
$LWDISPLAY
290
0
  9
$INSUNITS
 70
6
  9
$HYPERLINKBASE
  1

  9
$STYLESHEET
  1

  9
$XEDIT
290
1
  9
$CEPSNTYPE
380
0
  9
$PSTYLEMODE
290
1
  9
$FINGERPRINTGUID
  2
{83EA74B9-6261-4A3F-AB1D-BFA98EDAFD6F}
  9
$VERSIONGUID
  2
{DEEAA6FC-FD73-4AF1-9A28-25300F790142}
  9
$EXTNAMES
290
1
  9
$PSVPSCALE
 40
0.0
  9
$OLESTARTUP
290
0
  9
$SORTENTS
280
127
  9
$INDEXCTL
280
0
  9
$HIDETEXT
280
1
  9
$XCLIPFRAME
280
1
  9
$HALOGAP
280
0
  9
$OBSCOLOR
 70
257
  9
$OBSLTYPE
280
0
  9
$INTERSECTIONDISPLAY
280
0
  9
$INTERSECTIONCOLOR
 70
257
  9
$DIMASSOC
280
2
  9
$PROJECTNAME
  1

  9
$CAMERADISPLAY
290
0
  9
$LENSLENGTH
 40
50.0
  9
$CAMERAHEIGHT
 40
0.0
  9
$STEPSPERSEC
 40
24.0
  9
$STEPSIZE
 40
100.0
  9
$3DDWFPREC
 40
2.0
  9
$PSOLWIDTH
 40
0.005
  9
$PSOLHEIGHT
 40
0.08
  9
$LOFTANG1
 40
1.570796326795
  9
$LOFTANG2
 40
1.570796326795
  9
$LOFTMAG1
 40
0.0
  9
$LOFTMAG2
 40
0.0
  9
$LOFTPARAM
 70
7
  9
$LOFTNORMALS
280
1
  9
$LATITUDE
 40
37.795
  9
$LONGITUDE
 40
-122.394
  9
$NORTHDIRECTION
 40
0.0
  9
$TIMEZONE
 70
-8000
  9
$LIGHTGLYPHDISPLAY
280
1
  9
$TILEMODELIGHTSYNCH
280
1
  9
$CMATERIAL
347
20
  9
$SOLIDHIST
280
0
  9
$SHOWHIST
280
1
  9
$DWFFRAME
280
2
  9
$DGNFRAME
280
2
  9
$REALWORLDSCALE
290
1
  9
$INTERFERECOLOR
 62
256
  9
$CSHADOW
280
0
  9
$SHADOWPLANELOCATION
 40
0.0
  0
ENDSEC
  0
SECTION
  2
CLASSES
  0
CLASS
  1
ACDBDICTIONARYWDFLT
  2
AcDbDictionaryWithDefault
  3
ObjectDBX Classes
 90
0
 91
0
280
0
281
0
  0
CLASS
  1
SUN
  2
AcDbSun
  3
SCENEOE
 90
1153
 91
0
280
0
281
0
  0
CLASS
  1
VISUALSTYLE
  2
AcDbVisualStyle
  3
ObjectDBX Classes
 90
4095
 91
0
280
0
281
0
  0
CLASS
  1
MATERIAL
  2
AcDbMaterial
  3
ObjectDBX Classes
 90
1153
 91
0
280
0
281
0
  0
CLASS
  1
SCALE
  2
AcDbScale
  3
ObjectDBX Classes
 90
1153
 91
0
280
0
281
0
  0
CLASS
  1
TABLESTYLE
  2
AcDbTableStyle
  3
ObjectDBX Classes
 90
4095
 91
0
280
0
281
0
  0
CLASS
  1
MLEADERSTYLE
  2
AcDbMLeaderStyle
  3
ACDB_MLEADERSTYLE_CLASS
 90
4095
 91
0
280
0
281
0
  0
CLASS
  1
DICTIONARYVAR
  2
AcDbDictionaryVar
  3
ObjectDBX Classes
 90
0
 91
0
280
0
281
0
  0
CLASS
  1
CELLSTYLEMAP
  2
AcDbCellStyleMap
  3
ObjectDBX Classes
 90
1152
 91
0
280
0
281
0
  0
CLASS
  1
MENTALRAYRENDERSETTINGS
  2
AcDbMentalRayRenderSettings
  3
SCENEOE
 90
1024
 91
0
280
0
281
0
  0
CLASS
  1
ACDBDETAILVIEWSTYLE
  2
AcDbDetailViewStyle
  3
ObjectDBX Classes
 90
1025
 91
0
280
0
281
0
  0
CLASS
  1
ACDBSECTIONVIEWSTYLE
  2
AcDbSectionViewStyle
  3
ObjectDBX Classes
 90
1025
 91
0
280
0
281
0
  0
CLASS
  1
RASTERVARIABLES
  2
AcDbRasterVariables
  3
ISM
 90
0
 91
0
280
0
281
0
  0
CLASS
  1
ACDBPLACEHOLDER
  2
AcDbPlaceHolder
  3
ObjectDBX Classes
 90
0
 91
0
280
0
281
0
  0
CLASS
  1
LAYOUT
  2
AcDbLayout
  3
ObjectDBX Classes
 90
0
 91
0
280
0
281
0
  0
ENDSEC
  0
SECTION
  2
TABLES
  0
TABLE
  2
VPORT
  5
8
330
0
100
AcDbSymbolTable
 70
1
  0
VPORT
  5
23
330
8
100
AcDbSymbolTableRecord
100
AcDbViewportTableRecord
  2
*Active
 70
0
 10
0.0
 20
0.0
 11
1.0
 21
1.0
 12
0.0
 22
0.0
 13
0.0
 23
0.0
 14
0.5
 24
0.5
 15
0.5
 25
0.5
 16
0.0
 26
0.0
 36
1.0
 17
0.0
 27
0.0
 37
0.0
 40
1000.0
 41
1.34
 42
50.0
 43
0.0
 44
0.0
 50
0.0
 51
0.0
 71
0
 72
1000
 73
1
 74
3
 75
0
 76
0
 77
0
 78
0
281
0
 65
0
146
0.0
  0
ENDTAB
  0
TABLE
  2
LTYPE
  5
2
330
0
100
AcDbSymbolTable
 70
21
  0
LTYPE
  5
24
330
2
100
AcDbSymbolTableRecord
100
AcDbLinetypeTableRecord
  2
ByBlock
 70
0
  3

 72
65
 73
0
 40
0.0
  0
LTYPE
  5
25
330
2
100
AcDbSymbolTableRecord
100
AcDbLinetypeTableRecord
  2
ByLayer
 70
0
  3

 72
65
 73
0
 40
0.0
  0
LTYPE
  5
26
330
2
100
AcDbSymbolTableRecord
100
AcDbLinetypeTableRecord
  2
Continuous
 70
0
  3

 72
65
 73
0
 40
0.0
  0
LTYPE
  5
2F
330
2
100
AcDbSymbolTableRecord
100
AcDbLinetypeTableRecord
  2
CENTER
 70
0
  3
Center ____ _ ____ _ ____ _ ____ _ ____ _ ____
 72
65
 73
4
 40
5.08
 49
3.175
 74
0
 49
-0.635
 74
0
 49
0.635
 74
0
 49
-0.635
 74
0
  0
LTYPE
  5
30
330
2
100
AcDbSymbolTableRecord
100
AcDbLinetypeTableRecord
  2
CENTERX2
 70
0
  3
Center (2x) ________  __  ________  __  ________
 72
65
 73
4
 40
8.89
 49
6.35
 74
0
 49
-0.635
 74
0
 49
1.27
 74
0
 49
-0.635
 74
0
  0
LTYPE
  5
31
330
2
100
AcDbSymbolTableRecord
100
AcDbLinetypeTableRecord
  2
CENTER2
 70
0
  3
Center (.5x) ____ _ ____ _ ____ _ ____ _ ____
 72
65
 73
4
 40
2.54
 49
1.587
 74
0
 49
-0.318
 74
0
 49
0.318
 74
0
 49
-0.318
 74
0
  0
LTYPE
  5
32
330
2
100
AcDbSymbolTableRecord
100
AcDbLinetypeTableRecord
  2
DASHED
 70
0
  3
Dashed __ __ __ __ __ __ __ __ __ __ __ __ __ _
 72
65
 73
2
 40
1.524
 49
1.27
 74
0
 49
-0.254
 74
0
  0
LTYPE
  5
33
330
2
100
AcDbSymbolTableRecord
100
AcDbLinetypeTableRecord
  2
DASHEDX2
 70
0
  3
Dashed (2x) ____  ____  ____  ____  ____  ____
 72
65
 73
2
 40
3.048
 49
2.54
 74
0
 49
-0.508
 74
0
  0
LTYPE
  5
34
330
2
100
AcDbSymbolTableRecord
100
AcDbLinetypeTableRecord
  2
DASHED2
 70
0
  3
Dashed (.5x) _ _ _ _ _ _ _ _ _ _ _ _ _ _
 72
65
 73
2
 40
0.762
 49
0.635
 74
0
 49
-0.127
 74
0
  0
LTYPE
  5
35
330
2
100
AcDbSymbolTableRecord
100
AcDbLinetypeTableRecord
  2
PHANTOM
 70
0
  3
Phantom ______  __  __  ______  __  __  ______
 72
65
 73
6
 40
6.35
 49
3.175
 74
0
 49
-0.635
 74
0
 49
0.635
 74
0
 49
-0.635
 74
0
 49
0.635
 74
0
 49
-0.635
 74
0
  0
LTYPE
  5
36
330
2
100
AcDbSymbolTableRecord
100
AcDbLinetypeTableRecord
  2
PHANTOMX2
 70
0
  3
Phantom (2x)____________    ____    ____    ____________
 72
65
 73
6
 40
10.795
 49
6.35
 74
0
 49
-0.635
 74
0
 49
1.27
 74
0
 49
-0.635
 74
0
 49
1.27
 74
0
 49
-0.635
 74
0
  0
LTYPE
  5
37
330
2
100
AcDbSymbolTableRecord
100
AcDbLinetypeTableRecord
  2
PHANTOM2
 70
0
  3
Phantom (.5x) ___ _ _ ___ _ _ ___ _ _ ___ _ _ ___
 72
65
 73
6
 40
3.175
 49
1.587
 74
0
 49
-0.318
 74
0
 49
0.318
 74
0
 49
-0.318
 74
0
 49
0.318
 74
0
 49
-0.318
 74
0
  0
LTYPE
  5
38
330
2
100
AcDbSymbolTableRecord
100
AcDbLinetypeTableRecord
  2
DASHDOT
 70
0
  3
Dash dot __ . __ . __ . __ . __ . __ . __ . __
 72
65
 73
4
 40
3.556
 49
2.54
 74
0
 49
-0.508
 74
0
 49
0.0
 74
0
 49
-0.508
 74
0
  0
LTYPE
  5
39
330
2
100
AcDbSymbolTableRecord
100
AcDbLinetypeTableRecord
  2
DASHDOTX2
 70
0
  3
Dash dot (2x) ____  .  ____  .  ____  .  ____
 72
65
 73
4
 40
6.096
 49
5.08
 74
0
 49
-0.508
 74
0
 49
0.0
 74
0
 49
-0.508
 74
0
  0
LTYPE
  5
3A
330
2
100
AcDbSymbolTableRecord
100
AcDbLinetypeTableRecord
  2
DASHDOT2
 70
0
  3
Dash dot (.5x) _ . _ . _ . _ . _ . _ . _ . _
 72
65
 73
4
 40
1.778
 49
1.27
 74
0
 49
-0.254
 74
0
 49
0.0
 74
0
 49
-0.254
 74
0
  0
LTYPE
  5
3B
330
2
100
AcDbSymbolTableRecord
100
AcDbLinetypeTableRecord
  2
DOT
 70
0
  3
Dot .  .  .  .  .  .  .  .  .  .  .  .  .  .  .  .
 72
65
 73
2
 40
0.508
 49
0.0
 74
0
 49
-0.508
 74
0
  0
LTYPE
  5
3C
330
2
100
AcDbSymbolTableRecord
100
AcDbLinetypeTableRecord
  2
DOTX2
 70
0
  3
Dot (2x) .    .    .    .    .    .    .    . 
 72
65
 73
2
 40
1.016
 49
0.0
 74
0
 49
-1.016
 74
0
  0
LTYPE
  5
3D
330
2
100
AcDbSymbolTableRecord
100
AcDbLinetypeTableRecord
  2
DOT2
 70
0
  3
Dot (.5) . . . . . . . . . . . . . . . . . . . 
 72
65
 73
2
 40
0.254
 49
0.0
 74
0
 49
-0.254
 74
0
  0
LTYPE
  5
3E
330
2
100
AcDbSymbolTableRecord
100
AcDbLinetypeTableRecord
  2
DIVIDE
 70
0
  3
Divide __ . . __ . . __ . . __ . . __ . . __
 72
65
 73
6
 40
4.064
 49
2.54
 74
0
 49
-0.508
 74
0
 49
0.0
 74
0
 49
-0.508
 74
0
 49
0.0
 74
0
 49
-0.508
 74
0
  0
LTYPE
  5
3F
330
2
100
AcDbSymbolTableRecord
100
AcDbLinetypeTableRecord
  2
DIVIDEX2
 70
0
  3
Divide (2x) ____  . .  ____  . .  ____  . .  ____
 72
65
 73
6
 40
6.604
 49
5.08
 74
0
 49
-0.508
 74
0
 49
0.0
 74
0
 49
-0.508
 74
0
 49
0.0
 74
0
 49
-0.508
 74
0
  0
LTYPE
  5
40
330
2
100
AcDbSymbolTableRecord
100
AcDbLinetypeTableRecord
  2
DIVIDE2
 70
0
  3
Divide(.5x) _ . _ . _ . _ . _ . _ . _ . _
 72
65
 73
6
 40
2.032
 49
1.27
 74
0
 49
-0.254
 74
0
 49
0.0
 74
0
 49
-0.254
 74
0
 49
0.0
 74
0
 49
-0.254
 74
0
  0
ENDTAB
  0
TABLE
  2
LAYER
  5
1
330
0
100
AcDbSymbolTable
 70
12
  0
LAYER
  5
27
330
1
100
AcDbSymbolTableRecord
100
AcDbLayerTableRecord
  2
0
 70
0
 62
7
  6
Continuous
370
-3
390
13
347
21
  0
LAYER
  5
28
330
1
100
AcDbSymbolTableRecord
100
AcDbLayerTableRecord
  2
Defpoints
 70
0
 62
7
  6
Continuous
290
0
370
-3
390
13
347
21
  0
LAYER
  5
8A
330
1
100
AcDbSymbolTableRecord
100
AcDbLayerTableRecord
  2
A-CUT
 70
0
 62
7
  6
Continuous
370
50
390
13
347
21
  0
LAYER
  5
8B
330
1
100
AcDbSymbolTableRecord
100
AcDbLayerTableRecord
  2
A-MAIN
 70
0
 62
7
  6
Continuous
370
35
390
13
347
21
  0
LAYER
  5
8C
330
1
100
AcDbSymbolTableRecord
100
AcDbLayerTableRecord
  2
A-THIN
 70
0
 62
8
  6
Continuous
370
18
390
13
347
21
  0
LAYER
  5
8D
330
1
100
AcDbSymbolTableRecord
100
AcDbLayerTableRecord
  2
A-HIDDEN
 70
0
 62
8
  6
DASHED
370
18
390
13
347
21
  0
LAYER
  5
8E
330
1
100
AcDbSymbolTableRecord
100
AcDbLayerTableRecord
  2
A-HATCH
 70
0
 62
8
  6
Continuous
370
9
390
13
347
21
  0
LAYER
  5
8F
330
1
100
AcDbSymbolTableRecord
100
AcDbLayerTableRecord
  2
A-TEXT
 70
0
 62
7
  6
Continuous
370
18
390
13
347
21
  0
LAYER
  5
90
330
1
100
AcDbSymbolTableRecord
100
AcDbLayerTableRecord
  2
A-DIMS
 70
0
 62
1
  6
Continuous
370
13
390
13
347
21
  0
LAYER
  5
91
330
1
100
AcDbSymbolTableRecord
100
AcDbLayerTableRecord
  2
A-FURN
 70
0
 62
9
  6
Continuous
370
13
390
13
347
21
  0
LAYER
  5
92
330
1
100
AcDbSymbolTableRecord
100
AcDbLayerTableRecord
  2
A-GRID
 70
0
 62
1
  6
Continuous
370
13
390
13
347
21
  0
LAYER
  5
93
330
1
100
AcDbSymbolTableRecord
100
AcDbLayerTableRecord
  2
A-SITE
 70
0
 62
3
  6
Continuous
370
18
390
13
347
21
  0
ENDTAB
  0
TABLE
  2
STYLE
  5
5
330
0
100
AcDbSymbolTable
 70
26
  0
STYLE
  5
29
330
5
100
AcDbSymbolTableRecord
100
AcDbTextStyleTableRecord
  2
Standard
 70
0
 40
0.0
 41
1.0
 50
0.0
 71
0
 42
2.5
  3
txt
  4

  0
STYLE
  5
41
330
5
100
AcDbSymbolTableRecord
100
AcDbTextStyleTableRecord
  2
OpenSans-Light
 70
0
 40
0.0
 41
1.0
 50
0.0
 71
0
 42
2.5
  3
OpenSans-Light.ttf
  4

  0
STYLE
  5
42
330
5
100
AcDbSymbolTableRecord
100
AcDbTextStyleTableRecord
  2
OpenSans-Light-Italic
 70
0
 40
0.0
 41
1.0
 50
0.0
 71
0
 42
2.5
  3
OpenSans-LightItalic.ttf
  4

  0
STYLE
  5
43
330
5
100
AcDbSymbolTableRecord
100
AcDbTextStyleTableRecord
  2
OpenSans
 70
0
 40
0.0
 41
1.0
 50
0.0
 71
0
 42
2.5
  3
OpenSans-Regular.ttf
  4

  0
STYLE
  5
44
330
5
100
AcDbSymbolTableRecord
100
AcDbTextStyleTableRecord
  2
OpenSans-Italic
 70
0
 40
0.0
 41
1.0
 50
0.0
 71
0
 42
2.5
  3
OpenSans-Italic.ttf
  4

  0
STYLE
  5
45
330
5
100
AcDbSymbolTableRecord
100
AcDbTextStyleTableRecord
  2
OpenSans-SemiBold
 70
0
 40
0.0
 41
1.0
 50
0.0
 71
0
 42
2.5
  3
OpenSans-SemiBold.ttf
  4

  0
STYLE
  5
46
330
5
100
AcDbSymbolTableRecord
100
AcDbTextStyleTableRecord
  2
OpenSans-SemiBoldItalic
 70
0
 40
0.0
 41
1.0
 50
0.0
 71
0
 42
2.5
  3
OpenSans-SemiBoldItalic.ttf
  4

  0
STYLE
  5
47
330
5
100
AcDbSymbolTableRecord
100
AcDbTextStyleTableRecord
  2
OpenSans-Bold
 70
0
 40
0.0
 41
1.0
 50
0.0
 71
0
 42
2.5
  3
OpenSans-Bold.ttf
  4

  0
STYLE
  5
48
330
5
100
AcDbSymbolTableRecord
100
AcDbTextStyleTableRecord
  2
OpenSans-BoldItalic
 70
0
 40
0.0
 41
1.0
 50
0.0
 71
0
 42
2.5
  3
OpenSans-BoldItalic.ttf
  4

  0
STYLE
  5
49
330
5
100
AcDbSymbolTableRecord
100
AcDbTextStyleTableRecord
  2
OpenSans-ExtraBold
 70
0
 40
0.0
 41
1.0
 50
0.0
 71
0
 42
2.5
  3
OpenSans-ExtraBold.ttf
  4

  0
STYLE
  5
4A
330
5
100
AcDbSymbolTableRecord
100
AcDbTextStyleTableRecord
  2
OpenSans-ExtraBoldItalic
 70
0
 40
0.0
 41
1.0
 50
0.0
 71
0
 42
2.5
  3
OpenSans-ExtraBoldItalic.ttf
  4

  0
STYLE
  5
4B
330
5
100
AcDbSymbolTableRecord
100
AcDbTextStyleTableRecord
  2
OpenSansCondensed-Bold
 70
0
 40
0.0
 41
1.0
 50
0.0
 71
0
 42
2.5
  3
OpenSansCondensed-Bold.ttf
  4

  0
STYLE
  5
4C
330
5
100
AcDbSymbolTableRecord
100
AcDbTextStyleTableRecord
  2
OpenSansCondensed-Light
 70
0
 40
0.0
 41
1.0
 50
0.0
 71
0
 42
2.5
  3
OpenSansCondensed-Light.ttf
  4

  0
STYLE
  5
4D
330
5
100
AcDbSymbolTableRecord
100
AcDbTextStyleTableRecord
  2
OpenSansCondensed-Italic
 70
0
 40
0.0
 41
1.0
 50
0.0
 71
0
 42
2.5
  3
OpenSansCondensed-LightItalic.ttf
  4

  0
STYLE
  5
4E
330
5
100
AcDbSymbolTableRecord
100
AcDbTextStyleTableRecord
  2
LiberationSans
 70
0
 40
0.0
 41
1.0
 50
0.0
 71
0
 42
2.5
  3
LiberationSans-Regular.ttf
  4

  0
STYLE
  5
4F
330
5
100
AcDbSymbolTableRecord
100
AcDbTextStyleTableRecord
  2
LiberationSans-Bold
 70
0
 40
0.0
 41
1.0
 50
0.0
 71
0
 42
2.5
  3
LiberationSans-Bold.ttf
  4

  0
STYLE
  5
50
330
5
100
AcDbSymbolTableRecord
100
AcDbTextStyleTableRecord
  2
LiberationSans-BoldItalic
 70
0
 40
0.0
 41
1.0
 50
0.0
 71
0
 42
2.5
  3
LiberationSans-BoldItalic.ttf
  4

  0
STYLE
  5
51
330
5
100
AcDbSymbolTableRecord
100
AcDbTextStyleTableRecord
  2
LiberationSans-Italic
 70
0
 40
0.0
 41
1.0
 50
0.0
 71
0
 42
2.5
  3
LiberationSans-Italic.ttf
  4

  0
STYLE
  5
52
330
5
100
AcDbSymbolTableRecord
100
AcDbTextStyleTableRecord
  2
LiberationSerif
 70
0
 40
0.0
 41
1.0
 50
0.0
 71
0
 42
2.5
  3
LiberationSerif-Regular.ttf
  4

  0
STYLE
  5
53
330
5
100
AcDbSymbolTableRecord
100
AcDbTextStyleTableRecord
  2
LiberationSerif-Bold
 70
0
 40
0.0
 41
1.0
 50
0.0
 71
0
 42
2.5
  3
LiberationSerif-Bold.ttf
  4

  0
STYLE
  5
54
330
5
100
AcDbSymbolTableRecord
100
AcDbTextStyleTableRecord
  2
LiberationSerif-BoldItalic
 70
0
 40
0.0
 41
1.0
 50
0.0
 71
0
 42
2.5
  3
LiberationSerif-BoldItalic.ttf
  4

  0
STYLE
  5
55
330
5
100
AcDbSymbolTableRecord
100
AcDbTextStyleTableRecord
  2
LiberationSerif-Italic
 70
0
 40
0.0
 41
1.0
 50
0.0
 71
0
 42
2.5
  3
LiberationSerif-Italic.ttf
  4

  0
STYLE
  5
56
330
5
100
AcDbSymbolTableRecord
100
AcDbTextStyleTableRecord
  2
LiberationMono
 70
0
 40
0.0
 41
1.0
 50
0.0
 71
0
 42
2.5
  3
LiberationMono-Regular.ttf
  4

  0
STYLE
  5
57
330
5
100
AcDbSymbolTableRecord
100
AcDbTextStyleTableRecord
  2
LiberationMono-Bold
 70
0
 40
0.0
 41
1.0
 50
0.0
 71
0
 42
2.5
  3
LiberationMono-Bold.ttf
  4

  0
STYLE
  5
58
330
5
100
AcDbSymbolTableRecord
100
AcDbTextStyleTableRecord
  2
LiberationMono-BoldItalic
 70
0
 40
0.0
 41
1.0
 50
0.0
 71
0
 42
2.5
  3
LiberationMono-BoldItalic.ttf
  4

  0
STYLE
  5
59
330
5
100
AcDbSymbolTableRecord
100
AcDbTextStyleTableRecord
  2
LiberationMono-Italic
 70
0
 40
0.0
 41
1.0
 50
0.0
 71
0
 42
2.5
  3
LiberationMono-Italic.ttf
  4

  0
ENDTAB
  0
TABLE
  2
VIEW
  5
7
330
0
100
AcDbSymbolTable
 70
0
  0
ENDTAB
  0
TABLE
  2
UCS
  5
6
330
0
100
AcDbSymbolTable
 70
0
  0
ENDTAB
  0
TABLE
  2
APPID
  5
3
330
0
100
AcDbSymbolTable
 70
3
  0
APPID
  5
2A
330
3
100
AcDbSymbolTableRecord
100
AcDbRegAppTableRecord
  2
ACAD
 70
0
  0
APPID
  5
229
330
3
100
AcDbSymbolTableRecord
100
AcDbRegAppTableRecord
  2
HATCHBACKGROUNDCOLOR
 70
0
  0
APPID
  5
22A
330
3
100
AcDbSymbolTableRecord
100
AcDbRegAppTableRecord
  2
EZDXF
 70
0
  0
ENDTAB
  0
TABLE
  2
DIMSTYLE
  5
4
330
0
100
AcDbSymbolTable
 70
12
100
AcDbDimStyleTable
  0
DIMSTYLE
105
2B
330
4
100
AcDbSymbolTableRecord
100
AcDbDimStyleTableRecord
  2
Standard
 70
0
 40
1.0
 41
2.5
 42
0.625
 43
3.75
 44
1.25
 45
0.0
 46
0.0
 47
0.0
 48
0.0
 49
2.5
140
2.5
141
2.5
142
0.0
143
0.03937007874
144
1.0
145
0.0
146
1.0
147
0.625
148
0.0
 69
0
 70
0
 71
0
 72
0
 73
0
 74
0
 75
0
 76
0
 77
1
 78
8
 79
3
170
0
171
3
172
1
173
0
174
0
175
0
176
0
177
0
178
0
179
2
271
2
272
2
273
2
274
3
275
0
276
0
277
2
278
44
279
0
280
0
281
0
282
0
283
0
284
8
285
0
286
0
288
0
289
3
290
0
371
-2
372
-2
  0
DIMSTYLE
105
73
330
4
100
AcDbSymbolTableRecord
100
AcDbDimStyleTableRecord
  2
EZDXF
 70
0
 40
1.0
 41
0.175
 42
0.125
 43
3.75
 44
0.375
 45
0.0
 46
0.0
 47
0.0
 48
0.0
 49
2.5
140
0.25
141
2.5
142
0.0
143
0.03937007874
144
100.0
145
0.0
146
0.5
147
0.1
148
0.0
 69
0
 70
0
 71
0
 72
0
 73
0
 74
0
 75
0
 76
0
 77
1
 78
12
 79
3
170
0
171
3
172
1
173
0
174
0
175
0
176
0
177
0
178
0
179
2
271
2
272
2
273
2
274
3
275
0
276
0
277
2
278
46
279
2
280
0
281
0
282
0
283
0
284
8
285
0
286
0
288
1
289
3
290
0
340
4C
342
74
371
-2
372
-2
  0
DIMSTYLE
105
7C
330
4
100
AcDbSymbolTableRecord
100
AcDbDimStyleTableRecord
  2
EZ_M_100_H25_CM
 70
0
 40
1.0
 41
0.25
 42
0.125
 43
3.75
 44
0.375
 45
0.0
 46
0.0
 47
0.0
 48
0.0
 49
2.5
140
0.25
141
2.5
142
0.125
143
0.03937007874
144
100.0
145
0.0
146
0.5
147
0.1
148
0.0
 69
0
 70
0
 71
0
 72
0
 73
0
 74
0
 75
0
 76
0
 77
1
 78
12
 79
3
170
0
171
3
172
1
173
0
174
0
175
0
176
0
177
0
178
0
179
2
271
2
272
2
273
2
274
3
275
0
276
0
277
2
278
46
279
2
280
0
281
0
282
0
283
0
284
8
285
0
286
0
288
1
289
3
290
0
340
4C
371
-2
372
-2
  0
DIMSTYLE
105
7D
330
4
100
AcDbSymbolTableRecord
100
AcDbDimStyleTableRecord
  2
EZ_M_50_H25_CM
 70
0
 40
1.0
 41
0.125
 42
0.0625
 43
3.75
 44
0.1875
 45
0.0
 46
0.0
 47
0.0
 48
0.0
 49
2.5
140
0.125
141
2.5
142
0.0625
143
0.03937007874
144
100.0
145
0.0
146
0.5
147
0.05
148
0.0
 69
0
 70
0
 71
0
 72
0
 73
0
 74
0
 75
0
 76
0
 77
1
 78
12
 79
3
170
0
171
3
172
1
173
0
174
0
175
0
176
0
177
0
178
0
179
2
271
2
272
2
273
2
274
3
275
0
276
0
277
2
278
46
279
2
280
0
281
0
282
0
283
0
284
8
285
0
286
0
288
1
289
3
290
0
340
4C
371
-2
372
-2
  0
DIMSTYLE
105
7E
330
4
100
AcDbSymbolTableRecord
100
AcDbDimStyleTableRecord
  2
EZ_M_25_H25_CM
 70
0
 40
1.0
 41
0.0625
 42
0.03125
 43
3.75
 44
0.09375
 45
0.0
 46
0.0
 47
0.0
 48
0.0
 49
2.5
140
0.0625
141
2.5
142
0.03125
143
0.03937007874
144
100.0
145
0.0
146
0.5
147
0.025
148
0.0
 69
0
 70
0
 71
0
 72
0
 73
0
 74
0
 75
0
 76
0
 77
1
 78
12
 79
3
170
0
171
3
172
1
173
0
174
0
175
0
176
0
177
0
178
0
179
2
271
2
272
2
273
2
274
3
275
0
276
0
277
2
278
46
279
2
280
0
281
0
282
0
283
0
284
8
285
0
286
0
288
1
289
3
290
0
340
4C
371
-2
372
-2
  0
DIMSTYLE
105
7F
330
4
100
AcDbSymbolTableRecord
100
AcDbDimStyleTableRecord
  2
EZ_M_20_H25_CM
 70
0
 40
1.0
 41
0.05
 42
0.025
 43
3.75
 44
0.07500000000000001
 45
0.0
 46
0.0
 47
0.0
 48
0.0
 49
2.5
140
0.05
141
2.5
142
0.025
143
0.03937007874
144
100.0
145
0.0
146
0.5
147
0.020000000000000004
148
0.0
 69
0
 70
0
 71
0
 72
0
 73
0
 74
0
 75
0
 76
0
 77
1
 78
12
 79
3
170
0
171
3
172
1
173
0
174
0
175
0
176
0
177
0
178
0
179
2
271
2
272
2
273
2
274
3
275
0
276
0
277
2
278
46
279
2
280
0
281
0
282
0
283
0
284
8
285
0
286
0
288
1
289
3
290
0
340
4C
371
-2
372
-2
  0
DIMSTYLE
105
80
330
4
100
AcDbSymbolTableRecord
100
AcDbDimStyleTableRecord
  2
EZ_M_10_H25_CM
 70
0
 40
1.0
 41
0.025
 42
0.0125
 43
3.75
 44
0.037500000000000006
 45
0.0
 46
0.0
 47
0.0
 48
0.0
 49
2.5
140
0.025
141
2.5
142
0.0125
143
0.03937007874
144
100.0
145
0.0
146
0.5
147
0.010000000000000002
148
0.0
 69
0
 70
0
 71
0
 72
0
 73
0
 74
0
 75
0
 76
0
 77
1
 78
12
 79
3
170
0
171
3
172
1
173
0
174
0
175
0
176
0
177
0
178
0
179
2
271
2
272
2
273
2
274
3
275
0
276
0
277
2
278
46
279
2
280
0
281
0
282
0
283
0
284
8
285
0
286
0
288
1
289
3
290
0
340
4C
371
-2
372
-2
  0
DIMSTYLE
105
81
330
4
100
AcDbSymbolTableRecord
100
AcDbDimStyleTableRecord
  2
EZ_M_5_H25_CM
 70
0
 40
1.0
 41
0.0125
 42
0.00625
 43
3.75
 44
0.018750000000000003
 45
0.0
 46
0.0
 47
0.0
 48
0.0
 49
2.5
140
0.0125
141
2.5
142
0.00625
143
0.03937007874
144
100.0
145
0.0
146
0.5
147
0.005000000000000001
148
0.0
 69
0
 70
0
 71
0
 72
0
 73
0
 74
0
 75
0
 76
0
 77
1
 78
12
 79
3
170
0
171
3
172
1
173
0
174
0
175
0
176
0
177
0
178
0
179
2
271
2
272
2
273
2
274
3
275
0
276
0
277
2
278
46
279
2
280
0
281
0
282
0
283
0
284
8
285
0
286
0
288
1
289
3
290
0
340
4C
371
-2
372
-2
  0
DIMSTYLE
105
82
330
4
100
AcDbSymbolTableRecord
100
AcDbDimStyleTableRecord
  2
EZ_M_1_H25_CM
 70
0
 40
1.0
 41
0.0025
 42
0.00125
 43
3.75
 44
0.00375
 45
0.0
 46
0.0
 47
0.0
 48
0.0
 49
2.5
140
0.0025
141
2.5
142
0.00125
143
0.03937007874
144
100.0
145
0.0
146
0.5
147
0.001
148
0.0
 69
0
 70
0
 71
0
 72
0
 73
0
 74
0
 75
0
 76
0
 77
1
 78
12
 79
3
170
0
171
3
172
1
173
0
174
0
175
0
176
0
177
0
178
0
179
2
271
2
272
2
273
2
274
3
275
0
276
0
277
2
278
46
279
2
280
0
281
0
282
0
283
0
284
8
285
0
286
0
288
1
289
3
290
0
340
4C
371
-2
372
-2
  0
DIMSTYLE
105
83
330
4
100
AcDbSymbolTableRecord
100
AcDbDimStyleTableRecord
  2
EZ_RADIUS
 70
0
 40
1.0
 41
0.25
 42
0.125
 43
3.75
 44
0.375
 45
0.0
 46
0.0
 47
0.0
 48
0.0
 49
2.5
140
0.25
141
0.0
142
0.0
143
0.03937007874
144
100.0
145
0.0
146
0.5
147
0.1
148
0.0
 69
0
 70
0
 71
0
 72
0
 73
0
 74
0
 75
0
 76
0
 77
1
 78
12
 79
3
170
0
171
3
172
0
173
0
174
0
175
0
176
0
177
0
178
0
179
2
271
2
272
2
273
2
274
3
275
0
276
0
277
2
278
46
279
1
280
0
281
0
282
0
283
0
284
8
285
0
286
0
288
1
289
3
290
0
340
4C
342
84
371
-2
372
-2
  0
DIMSTYLE
105
88
330
4
100
AcDbSymbolTableRecord
100
AcDbDimStyleTableRecord
  2
EZ_RADIUS_INSIDE
 70
0
 40
1.0
 41
0.25
 42
0.125
 43
3.75
 44
0.375
 45
0.0
 46
0.0
 47
0.0
 48
0.0
 49
2.5
140
0.25
141
0.0
142
0.0
143
0.03937007874
144
100.0
145
0.0
146
0.5
147
0.1
148
0.0
 69
0
 70
0
 71
0
 72
0
 73
0
 74
0
 75
0
 76
0
 77
0
 78
12
 79
3
170
0
171
3
172
0
173
0
174
1
175
0
176
0
177
0
178
0
179
2
271
2
272
2
273
2
274
3
275
0
276
0
277
2
278
46
279
0
280
0
281
0
282
0
283
0
284
8
285
0
286
0
288
1
289
0
290
0
340
4C
342
84
371
-2
372
-2
  0
DIMSTYLE
105
89
330
4
100
AcDbSymbolTableRecord
100
AcDbDimStyleTableRecord
  2
EZ_CURVED
 70
0
 40
1.0
 41
0.25
 42
0.125
 43
3.75
 44
0.375
 45
0.0
 46
0.0
 47
0.0
 48
0.0
 49
2.5
140
0.25
141
2.5
142
0.0
143
0.03937007874
144
100.0
145
0.0
146
0.5
147
0.1
148
0.0
 69
0
 70
0
 71
0
 72
0
 73
0
 74
0
 75
0
 76
0
 77
1
 78
12
 79
2
 90
2
170
0
171
3
172
1
173
0
174
0
175
0
176
0
177
0
178
0
179
2
271
2
272
2
273
2
274
3
275
0
276
0
277
2
278
46
279
2
280
0
281
0
282
0
283
0
284
8
285
0
286
0
288
1
289
3
290
0
340
4C
371
-2
372
-2
  0
ENDTAB
  0
TABLE
  2
BLOCK_RECORD
  5
9
330
0
100
AcDbSymbolTable
 70
5
  0
BLOCK_RECORD
  5
17
330
9
100
AcDbSymbolTableRecord
100
AcDbBlockTableRecord
  2
*Model_Space
340
1A
 70
0
280
1
281
0
  0
BLOCK_RECORD
  5
1B
330
9
100
AcDbSymbolTableRecord
100
AcDbBlockTableRecord
  2
*Paper_Space
340
1E
 70
0
280
1
281
0
  0
BLOCK_RECORD
  5
74
330
9
100
AcDbSymbolTableRecord
100
AcDbBlockTableRecord
  2
_ARCHTICK
340
0
 70
0
280
1
281
0
  0
BLOCK_RECORD
  5
78
330
9
100
AcDbSymbolTableRecord
100
AcDbBlockTableRecord
  2
_CLOSEDFILLED
340
0
 70
0
280
1
281
0
  0
BLOCK_RECORD
  5
84
330
9
100
AcDbSymbolTableRecord
100
AcDbBlockTableRecord
  2
_CLOSEDBLANK
340
0
 70
0
280
1
281
0
  0
ENDTAB
  0
ENDSEC
  0
SECTION
  2
BLOCKS
  0
BLOCK
  5
18
330
17
100
AcDbEntity
  8
0
100
AcDbBlockBegin
  2
*Model_Space
 70
0
 10
0.0
 20
0.0
 30
0.0
  3
*Model_Space
  1

  0
ENDBLK
  5
19
330
17
100
AcDbEntity
  8
0
100
AcDbBlockEnd
  0
BLOCK
  5
1C
330
1B
100
AcDbEntity
  8
0
100
AcDbBlockBegin
  2
*Paper_Space
 70
0
 10
0.0
 20
0.0
 30
0.0
  3
*Paper_Space
  1

  0
ENDBLK
  5
1D
330
1B
100
AcDbEntity
  8
0
100
AcDbBlockEnd
  0
BLOCK
  5
75
330
74
100
AcDbEntity
  8
0
100
AcDbBlockBegin
  2
_ARCHTICK
 70
0
 10
0.0
 20
0.0
 30
0.0
  3
_ARCHTICK
  1

  0
LWPOLYLINE
  5
77
330
74
100
AcDbEntity
  8
0
  6
BYBLOCK
 62
0
100
AcDbPolyline
 90
2
 70
0
 43
0.15
 10
-0.5
 20
-0.5
 10
0.5
 20
0.5
  0
ENDBLK
  5
76
330
74
100
AcDbEntity
  8
0
100
AcDbBlockEnd
  0
BLOCK
  5
79
330
78
100
AcDbEntity
  8
0
100
AcDbBlockBegin
  2
_CLOSEDFILLED
 70
0
 10
0.0
 20
0.0
 30
0.0
  3
_CLOSEDFILLED
  1

  0
SOLID
  5
7B
330
78
100
AcDbEntity
  8
0
  6
BYBLOCK
 62
0
100
AcDbTrace
 10
-1.0
 20
0.16439898372402537
 30
0.0
 11
0.0
 21
0.0
 31
0.0
 12
-1.0
 22
-0.16439898372402537
 32
0.0
 13
-1.0
 23
-0.16439898372402537
 33
0.0
  0
ENDBLK
  5
7A
330
78
100
AcDbEntity
  8
0
100
AcDbBlockEnd
  0
BLOCK
  5
85
330
84
100
AcDbEntity
  8
0
100
AcDbBlockBegin
  2
_CLOSEDBLANK
 70
0
 10
0.0
 20
0.0
 30
0.0
  3
_CLOSEDBLANK
  1

  0
LWPOLYLINE
  5
87
330
84
100
AcDbEntity
  8
0
  6
BYBLOCK
 62
0
100
AcDbPolyline
 90
3
 70
1
 10
-1.0
 20
0.16439898372402537
 10
0.0
 20
0.0
 10
-1.0
 20
-0.16439898372402537
  0
ENDBLK
  5
86
330
84
100
AcDbEntity
  8
0
100
AcDbBlockEnd
  0
ENDSEC
  0
SECTION
  2
ENTITIES
  0
HATCH
  5
94
330
17
100
AcDbEntity
  8
A-HATCH
 62
7
100
AcDbHatch
 10
0.0
 20
0.0
 30
0.0
210
0.0
220
0.0
230
1.0
  2
LINE
 70
0
 71
0
 91
1
 92
3
 72
0
 73
1
 93
4
 10
13.0
 20
21.2
 10
24.8
 20
21.2
 10
24.8
 20
25.0
 10
13.0
 20
25.0
 97
0
 75
1
 76
1
 52
0.0
 41
0.15
 77
0
 78
1
 53
0.0
 43
0.0
 44
0.0
 45
0.0
 46
0.47625
 79
0
 98
0
  0
LWPOLYLINE
  5
95
330
17
100
AcDbEntity
  8
A-THIN
100
AcDbPolyline
 90
4
 70
1
 10
13.0
 20
21.2
 10
24.8
 20
21.2
 10
24.8
 20
25.0
 10
13.0
 20
25.0
  0
HATCH
  5
96
330
17
100
AcDbEntity
  8
A-HATCH
 62
7
100
AcDbHatch
 10
0.0
 20
0.0
 30
0.0
210
0.0
220
0.0
230
1.0
  2
GRASS
 70
0
 71
0
 91
1
 92
3
 72
0
 73
1
 93
4
 10
13.05
 20
21.2
 10
24.8
 20
21.2
 10
24.8
 20
21.8
 10
13.05
 20
21.8
 97
0
 75
1
 76
1
 52
0.0
 41
0.3
 77
0
 78
3
 53
90.0
 43
0.0
 44
0.0
 45
-5.388153672
 46
5.388153672
 79
2
 49
1.42875
 49
-9.347557344
 53
45.0
 43
0.0
 44
0.0
 45
-5.3881536726
 46
5.3881536726
 79
2
 49
1.42875
 49
-6.19125
 53
135.0
 43
0.0
 44
0.0
 45
-5.3881536726
 46
-5.3881536726
 79
2
 49
1.42875
 49
-6.19125
 98
0
  0
LWPOLYLINE
  5
97
330
17
100
AcDbEntity
  8
A-THIN
100
AcDbPolyline
 90
4
 70
1
 10
13.05
 20
21.2
 10
24.8
 20
21.2
 10
24.8
 20
21.8
 10
13.05
 20
21.8
  0
HATCH
  5
98
330
17
100
AcDbEntity
  8
A-HATCH
 62
7
100
AcDbHatch
 10
0.0
 20
0.0
 30
0.0
210
0.0
220
0.0
230
1.0
  2
LINE
 70
0
 71
0
 91
1
 92
3
 72
0
 73
1
 93
4
 10
6.3
 20
16.3
 10
12.7
 20
16.3
 10
12.7
 20
17.5
 10
6.3
 20
17.5
 97
0
 75
1
 76
1
 52
0.0
 41
0.15
 77
0
 78
1
 53
0.0
 43
0.0
 44
0.0
 45
0.0
 46
0.47625
 79
0
 98
0
  0
LWPOLYLINE
  5
99
330
17
100
AcDbEntity
  8
A-THIN
100
AcDbPolyline
 90
4
 70
1
 10
6.3
 20
16.3
 10
12.7
 20
16.3
 10
12.7
 20
17.5
 10
6.3
 20
17.5
  0
LWPOLYLINE
  5
9A
330
17
100
AcDbEntity
  8
A-FURN
100
AcDbPolyline
 90
4
 70
1
 10
7.9
 20
19.4
 10
9.9
 20
19.4
 10
9.9
 20
21.599999999999998
 10
7.9
 20
21.599999999999998
  0
LWPOLYLINE
  5
9B
330
17
100
AcDbEntity
  8
A-FURN
100
AcDbPolyline
 90
4
 70
1
 10
7.9
 20
21.52
 10
9.9
 20
21.52
 10
9.9
 20
21.599999999999998
 10
7.9
 20
21.599999999999998
  0
LWPOLYLINE
  5
9C
330
17
100
AcDbEntity
  8
A-FURN
100
AcDbPolyline
 90
28
 70
1
 10
8.8
 20
21.049999999999997
 10
8.818117333157177
 20
21.052385192159765
 10
8.835
 20
21.059378221735088
 10
8.849497474683059
 20
21.07050252531694
 10
8.86062177826491
 20
21.084999999999997
 10
8.867614807840235
 20
21.101882666842823
 10
8.870000000000001
 20
21.119999999999997
 10
8.870000000000001
 20
21.38
 10
8.867614807840235
 20
21.398117333157174
 10
8.86062177826491
 20
21.415
 10
8.849497474683059
 20
21.429497474683057
 10
8.835
 20
21.44062177826491
 10
8.818117333157177
 20
21.447614807840232
 10
8.8
 20
21.45
 10
8.15
 20
21.45
 10
8.131882666842824
 20
21.447614807840232
 10
8.115
 20
21.44062177826491
 10
8.100502525316942
 20
21.429497474683057
 10
8.089378221735089
 20
21.415
 10
8.082385192159766
 20
21.398117333157174
 10
8.08
 20
21.38
 10
8.08
 20
21.119999999999997
 10
8.082385192159766
 20
21.101882666842823
 10
8.089378221735089
 20
21.084999999999997
 10
8.100502525316942
 20
21.07050252531694
 10
8.115
 20
21.059378221735088
 10
8.131882666842824
 20
21.052385192159765
 10
8.15
 20
21.049999999999997
  0
LWPOLYLINE
  5
9D
330
17
100
AcDbEntity
  8
A-FURN
100
AcDbPolyline
 90
28
 70
1
 10
9.65
 20
21.049999999999997
 10
9.668117333157177
 20
21.052385192159765
 10
9.685
 20
21.059378221735088
 10
9.699497474683058
 20
21.07050252531694
 10
9.710621778264912
 20
21.084999999999997
 10
9.717614807840235
 20
21.101882666842823
 10
9.72
 20
21.119999999999997
 10
9.72
 20
21.38
 10
9.717614807840235
 20
21.398117333157174
 10
9.710621778264912
 20
21.415
 10
9.699497474683058
 20
21.429497474683057
 10
9.685
 20
21.44062177826491
 10
9.668117333157177
 20
21.447614807840232
 10
9.65
 20
21.45
 10
9.0
 20
21.45
 10
8.981882666842823
 20
21.447614807840232
 10
8.965
 20
21.44062177826491
 10
8.950502525316942
 20
21.429497474683057
 10
8.93937822173509
 20
21.415
 10
8.932385192159765
 20
21.398117333157174
 10
8.93
 20
21.38
 10
8.93
 20
21.119999999999997
 10
8.932385192159765
 20
21.101882666842823
 10
8.93937822173509
 20
21.084999999999997
 10
8.950502525316942
 20
21.07050252531694
 10
8.965
 20
21.059378221735088
 10
8.981882666842823
 20
21.052385192159765
 10
9.0
 20
21.049999999999997
  0
LWPOLYLINE
  5
9E
330
17
100
AcDbEntity
  8
A-FURN
100
AcDbPolyline
 90
2
 70
0
 10
7.9
 20
20.764
 10
9.9
 20
20.764
  0
LWPOLYLINE
  5
9F
330
17
100
AcDbEntity
  8
A-FURN
100
AcDbPolyline
 90
3
 70
0
 10
7.9
 20
20.764
 10
8.4
 20
20.5
 10
9.9
 20
20.764
  0
LWPOLYLINE
  5
A0
330
17
100
AcDbEntity
  8
A-FURN
100
AcDbPolyline
 90
28
 70
1
 10
10.55
 20
19.61
 10
10.548637033051563
 20
19.6203527618041
 10
10.544641016151377
 20
19.63
 10
10.538284271247463
 20
19.63828427124746
 10
10.530000000000001
 20
19.644641016151375
 10
10.520352761804102
 20
19.64863703305156
 10
10.510000000000002
 20
19.65
 10
10.09
 20
19.65
 10
10.0796472381959
 20
19.64863703305156
 10
10.07
 20
19.644641016151375
 10
10.061715728752539
 20
19.63828427124746
 10
10.055358983848624
 20
19.63
 10
10.051362966948439
 20
19.6203527618041
 10
10.05
 20
19.61
 10
10.05
 20
19.24
 10
10.051362966948439
 20
19.2296472381959
 10
10.055358983848624
 20
19.22
 10
10.061715728752539
 20
19.211715728752537
 10
10.07
 20
19.205358983848623
 10
10.0796472381959
 20
19.201362966948437
 10
10.09
 20
19.2
 10
10.510000000000002
 20
19.2
 10
10.520352761804102
 20
19.201362966948437
 10
10.530000000000001
 20
19.205358983848623
 10
10.538284271247463
 20
19.211715728752537
 10
10.544641016151377
 20
19.22
 10
10.548637033051563
 20
19.2296472381959
 10
10.55
 20
19.24
  0
LWPOLYLINE
  5
A1
330
17
100
AcDbEntity
  8
A-FURN
100
AcDbPolyline
 90
24
 70
1
 10
10.3
 20
19.537499999999998
 10
10.270882857425967
 20
19.53366665545752
 10
10.24375
 20
19.52242785792575
 10
10.220450487116514
 20
19.504549512883486
 10
10.202572142074251
 20
19.48125
 10
10.19133334454248
 20
19.454117142574034
 10
10.1875
 20
19.425
 10
10.19133334454248
 20
19.395882857425967
 10
10.202572142074251
 20
19.36875
 10
10.220450487116514
 20
19.345450487116512
 10
10.24375
 20
19.32757214207425
 10
10.270882857425967
 20
19.31633334454248
 10
10.3
 20
19.3125
 10
10.329117142574034
 20
19.31633334454248
 10
10.356250000000001
 20
19.32757214207425
 10
10.379549512883488
 20
19.345450487116512
 10
10.39742785792575
 20
19.36875
 10
10.408666655457521
 20
19.395882857425967
 10
10.412500000000001
 20
19.425
 10
10.408666655457521
 20
19.454117142574034
 10
10.39742785792575
 20
19.48125
 10
10.379549512883488
 20
19.504549512883486
 10
10.356250000000001
 20
19.52242785792575
 10
10.329117142574034
 20
19.53366665545752
  0
LWPOLYLINE
  5
A2
330
17
100
AcDbEntity
  8
A-FURN
100
AcDbPolyline
 90
28
 70
1
 10
10.55
 20
21.41
 10
10.548637033051563
 20
21.4203527618041
 10
10.544641016151377
 20
21.43
 10
10.538284271247463
 20
21.43828427124746
 10
10.530000000000001
 20
21.444641016151376
 10
10.520352761804102
 20
21.44863703305156
 10
10.510000000000002
 20
21.45
 10
10.09
 20
21.45
 10
10.0796472381959
 20
21.44863703305156
 10
10.07
 20
21.444641016151376
 10
10.061715728752539
 20
21.43828427124746
 10
10.055358983848624
 20
21.43
 10
10.051362966948439
 20
21.4203527618041
 10
10.05
 20
21.41
 10
10.05
 20
21.04
 10
10.051362966948439
 20
21.0296472381959
 10
10.055358983848624
 20
21.02
 10
10.061715728752539
 20
21.011715728752538
 10
10.07
 20
21.005358983848623
 10
10.0796472381959
 20
21.001362966948438
 10
10.09
 20
21.0
 10
10.510000000000002
 20
21.0
 10
10.520352761804102
 20
21.001362966948438
 10
10.530000000000001
 20
21.005358983848623
 10
10.538284271247463
 20
21.011715728752538
 10
10.544641016151377
 20
21.02
 10
10.548637033051563
 20
21.0296472381959
 10
10.55
 20
21.04
  0
LWPOLYLINE
  5
A3
330
17
100
AcDbEntity
  8
A-FURN
100
AcDbPolyline
 90
24
 70
1
 10
10.3
 20
21.3375
 10
10.270882857425967
 20
21.33366665545752
 10
10.24375
 20
21.32242785792575
 10
10.220450487116514
 20
21.304549512883487
 10
10.202572142074251
 20
21.28125
 10
10.19133334454248
 20
21.254117142574035
 10
10.1875
 20
21.225
 10
10.19133334454248
 20
21.195882857425968
 10
10.202572142074251
 20
21.16875
 10
10.220450487116514
 20
21.145450487116513
 10
10.24375
 20
21.12757214207425
 10
10.270882857425967
 20
21.11633334454248
 10
10.3
 20
21.1125
 10
10.329117142574034
 20
21.11633334454248
 10
10.356250000000001
 20
21.12757214207425
 10
10.379549512883488
 20
21.145450487116513
 10
10.39742785792575
 20
21.16875
 10
10.408666655457521
 20
21.195882857425968
 10
10.412500000000001
 20
21.225
 10
10.408666655457521
 20
21.254117142574035
 10
10.39742785792575
 20
21.28125
 10
10.379549512883488
 20
21.304549512883487
 10
10.356250000000001
 20
21.32242785792575
 10
10.329117142574034
 20
21.33366665545752
  0
LWPOLYLINE
  5
A4
330
17
100
AcDbEntity
  8
A-FURN
100
AcDbPolyline
 90
28
 70
1
 10
11.4
 20
18.18
 10
11.402725933896875
 20
18.1592944763918
 10
11.410717967697245
 20
18.14
 10
11.423431457505076
 20
18.123431457505077
 10
11.44
 20
18.110717967697244
 10
11.459294476391799
 20
18.102725933896874
 10
11.48
 20
18.1
 10
12.22
 20
18.1
 10
12.240705523608202
 20
18.102725933896874
 10
12.26
 20
18.110717967697244
 10
12.276568542494925
 20
18.123431457505077
 10
12.289282032302756
 20
18.14
 10
12.297274066103126
 20
18.1592944763918
 10
12.3
 20
18.18
 10
12.3
 20
18.92
 10
12.297274066103126
 20
18.9407055236082
 10
12.289282032302756
 20
18.96
 10
12.276568542494925
 20
18.976568542494924
 10
12.26
 20
18.989282032302754
 10
12.240705523608202
 20
18.997274066103124
 10
12.22
 20
19.0
 10
11.48
 20
19.0
 10
11.459294476391799
 20
18.997274066103124
 10
11.44
 20
18.989282032302754
 10
11.423431457505076
 20
18.976568542494924
 10
11.410717967697245
 20
18.96
 10
11.402725933896875
 20
18.9407055236082
 10
11.4
 20
18.92
  0
LWPOLYLINE
  5
A5
330
17
100
AcDbEntity
  8
A-FURN
100
AcDbPolyline
 90
4
 70
1
 10
12.1
 20
18.88
 10
12.1
 20
18.22
 10
12.3
 20
18.22
 10
12.3
 20
18.88
  0
LWPOLYLINE
  5
A6
330
17
100
AcDbEntity
  8
A-FURN
100
AcDbPolyline
 90
4
 70
1
 10
11.450000000000001
 20
19.0
 10
11.450000000000001
 20
18.88
 10
12.3
 20
18.88
 10
12.3
 20
19.0
  0
LWPOLYLINE
  5
A7
330
17
100
AcDbEntity
  8
A-FURN
100
AcDbPolyline
 90
4
 70
1
 10
11.450000000000001
 20
18.22
 10
11.450000000000001
 20
18.1
 10
12.3
 20
18.1
 10
12.3
 20
18.22
  0
LWPOLYLINE
  5
A8
330
17
100
AcDbEntity
  8
A-FURN
100
AcDbPolyline
 90
28
 70
1
 10
6.57
 20
23.8
 10
6.538941714587698
 20
23.79591109915469
 10
6.51
 20
23.783923048454135
 10
6.485147186257614
 20
23.764852813742387
 10
6.466076951545867
 20
23.740000000000002
 10
6.454088900845312
 20
23.711058285412303
 10
6.45
 20
23.68
 10
6.45
 20
22.12
 10
6.454088900845312
 20
22.088941714587698
 10
6.466076951545867
 20
22.060000000000002
 10
6.485147186257614
 20
22.035147186257614
 10
6.51
 20
22.01607695154587
 10
6.538941714587698
 20
22.00408890084531
 10
6.57
 20
22.0
 10
7.13
 20
22.0
 10
7.161058285412302
 20
22.00408890084531
 10
7.19
 20
22.01607695154587
 10
7.214852813742386
 20
22.035147186257614
 10
7.233923048454133
 20
22.060000000000002
 10
7.2459110991546885
 20
22.088941714587698
 10
7.25
 20
22.12
 10
7.25
 20
23.68
 10
7.2459110991546885
 20
23.711058285412303
 10
7.233923048454133
 20
23.740000000000002
 10
7.214852813742386
 20
23.764852813742387
 10
7.19
 20
23.783923048454135
 10
7.161058285412302
 20
23.79591109915469
 10
7.13
 20
23.8
  0
LWPOLYLINE
  5
A9
330
17
100
AcDbEntity
  8
A-FURN
100
AcDbPolyline
 90
28
 70
1
 10
6.7700000000000005
 20
23.73
 10
6.70529523872437
 20
23.721481456572267
 10
6.645
 20
23.69650635094611
 10
6.593223304703363
 20
23.65677669529664
 10
6.55349364905389
 20
23.605
 10
6.528518543427733
 20
23.544704761275632
 10
6.52
 20
23.48
 10
6.52
 20
22.32
 10
6.528518543427733
 20
22.255295238724372
 10
6.55349364905389
 20
22.195
 10
6.593223304703363
 20
22.143223304703362
 10
6.645
 20
22.103493649053892
 10
6.70529523872437
 20
22.078518543427734
 10
6.77
 20
22.07
 10
6.93
 20
22.07
 10
6.994704761275631
 20
22.078518543427734
 10
7.055
 20
22.103493649053892
 10
7.106776695296637
 20
22.143223304703362
 10
7.14650635094611
 20
22.195
 10
7.171481456572267
 20
22.255295238724372
 10
7.18
 20
22.32
 10
7.18
 20
23.48
 10
7.171481456572267
 20
23.544704761275632
 10
7.14650635094611
 20
23.605
 10
7.106776695296637
 20
23.65677669529664
 10
7.055
 20
23.69650635094611
 10
6.99470476127563
 20
23.721481456572267
 10
6.93
 20
23.73
  0
LWPOLYLINE
  5
AA
330
17
100
AcDbEntity
  8
A-FURN
100
AcDbPolyline
 90
24
 70
1
 10
6.82
 20
22.25
 10
6.821022225211328
 20
22.242235428646925
 10
6.824019237886467
 20
22.235
 10
6.828786796564404
 20
22.228786796564403
 10
6.835
 20
22.224019237886466
 10
6.842235428646925
 20
22.22102222521133
 10
6.85
 20
22.22
 10
6.8577645713530755
 20
22.22102222521133
 10
6.865
 20
22.224019237886466
 10
6.871213203435596
 20
22.228786796564403
 10
6.875980762113533
 20
22.235
 10
6.878977774788672
 20
22.242235428646925
 10
6.88
 20
22.25
 10
6.878977774788672
 20
22.257764571353075
 10
6.875980762113533
 20
22.265
 10
6.871213203435596
 20
22.271213203435597
 10
6.865
 20
22.275980762113534
 10
6.8577645713530755
 20
22.27897777478867
 10
6.85
 20
22.28
 10
6.842235428646925
 20
22.27897777478867
 10
6.835
 20
22.275980762113534
 10
6.828786796564404
 20
22.271213203435597
 10
6.824019237886467
 20
22.265
 10
6.821022225211328
 20
22.257764571353075
  0
LWPOLYLINE
  5
AB
330
17
100
AcDbEntity
  8
A-FURN
100
AcDbPolyline
 90
4
 70
1
 10
9.4
 20
24.8
 10
8.85
 20
24.8
 10
8.85
 20
22.6
 10
9.4
 20
22.6
  0
LWPOLYLINE
  5
AC
330
17
100
AcDbEntity
  8
A-FURN
100
AcDbPolyline
 90
24
 70
1
 10
9.18
 20
23.810000000000002
 10
9.182811119331152
 20
23.65056746821685
 10
9.191052904187783
 20
23.502000000000002
 10
9.204163690552111
 20
23.374422222789086
 10
9.22125
 20
23.276528351268787
 10
9.241147428779042
 20
23.214989691005933
 10
9.262500000000001
 20
23.194
 10
9.283852571220958
 20
23.214989691005933
 10
9.30375
 20
23.276528351268787
 10
9.320836309447891
 20
23.374422222789086
 10
9.333947095812217
 20
23.502000000000002
 10
9.342188880668848
 20
23.65056746821685
 10
9.345
 20
23.810000000000002
 10
9.342188880668848
 20
23.969432531783152
 10
9.333947095812217
 20
24.118000000000002
 10
9.320836309447891
 20
24.245577777210915
 10
9.30375
 20
24.343471648731214
 10
9.283852571220958
 20
24.40501030899407
 10
9.262500000000001
 20
24.426000000000002
 10
9.241147428779042
 20
24.40501030899407
 10
9.22125
 20
24.343471648731214
 10
9.204163690552111
 20
24.245577777210915
 10
9.191052904187783
 20
24.118000000000002
 10
9.182811119331152
 20
23.969432531783152
  0
LWPOLYLINE
  5
AD
330
17
100
AcDbEntity
  8
A-FURN
100
AcDbPolyline
 90
24
 70
1
 10
8.905000000000001
 20
23.810000000000002
 10
8.907811119331152
 20
23.65056746821685
 10
8.916052904187785
 20
23.502000000000002
 10
8.92916369055211
 20
23.374422222789086
 10
8.946250000000001
 20
23.276528351268787
 10
8.966147428779042
 20
23.214989691005933
 10
8.9875
 20
23.194
 10
9.008852571220958
 20
23.214989691005933
 10
9.02875
 20
23.276528351268787
 10
9.04583630944789
 20
23.374422222789086
 10
9.058947095812217
 20
23.502000000000002
 10
9.067188880668848
 20
23.65056746821685
 10
9.07
 20
23.810000000000002
 10
9.067188880668848
 20
23.969432531783152
 10
9.058947095812217
 20
24.118000000000002
 10
9.04583630944789
 20
24.245577777210915
 10
9.02875
 20
24.343471648731214
 10
9.008852571220958
 20
24.40501030899407
 10
8.9875
 20
24.426000000000002
 10
8.966147428779042
 20
24.40501030899407
 10
8.946250000000001
 20
24.343471648731214
 10
8.92916369055211
 20
24.245577777210915
 10
8.916052904187785
 20
24.118000000000002
 10
8.907811119331152
 20
23.969432531783152
  0
LWPOLYLINE
  5
AE
330
17
100
AcDbEntity
  8
A-FURN
100
AcDbPolyline
 90
4
 70
1
 10
8.0
 20
24.0
 10
8.0
 20
25.1
 10
6.4
 20
25.1
 10
6.4
 20
24.0
  0
LWPOLYLINE
  5
AF
330
17
100
AcDbEntity
  8
A-FURN
100
AcDbPolyline
 90
2
 70
0
 10
8.0
 20
24.0
 10
6.4
 20
25.1
  0
LWPOLYLINE
  5
B0
330
17
100
AcDbEntity
  8
A-FURN
100
AcDbPolyline
 90
2
 70
0
 10
8.0
 20
25.1
 10
6.4
 20
24.0
  0
LWPOLYLINE
  5
B1
330
17
100
AcDbEntity
  8
A-FURN
100
AcDbPolyline
 90
24
 70
1
 10
7.2
 20
24.6
 10
7.187059047744874
 20
24.598296291314455
 10
7.175
 20
24.593301270189222
 10
7.164644660940673
 20
24.585355339059326
 10
7.156698729810778
 20
24.575
 10
7.151703708685546
 20
24.562940952255126
 10
7.15
 20
24.55
 10
7.151703708685546
 20
24.537059047744876
 10
7.156698729810778
 20
24.525
 10
7.164644660940673
 20
24.51464466094067
 10
7.175
 20
24.50669872981078
 10
7.187059047744874
 20
24.501703708685547
 10
7.2
 20
24.5
 10
7.212940952255126
 20
24.501703708685547
 10
7.225
 20
24.50669872981078
 10
7.2353553390593275
 20
24.51464466094067
 10
7.243301270189222
 20
24.525
 10
7.248296291314453
 20
24.537059047744876
 10
7.25
 20
24.55
 10
7.248296291314453
 20
24.562940952255126
 10
7.243301270189222
 20
24.575
 10
7.2353553390593275
 20
24.585355339059326
 10
7.225
 20
24.593301270189222
 10
7.212940952255126
 20
24.598296291314455
  0
LWPOLYLINE
  5
B2
330
17
100
AcDbEntity
  8
A-FURN
100
AcDbPolyline
 90
4
 70
1
 10
8.58
 20
24.75
 10
8.58
 20
25.35
 10
8.4
 20
25.35
 10
8.4
 20
24.75
  0
LWPOLYLINE
  5
B3
330
17
100
AcDbEntity
  8
A-FURN
100
AcDbPolyline
 90
24
 70
1
 10
8.67
 20
25.32
 10
8.636353524136673
 20
25.31079997309805
 10
8.605
 20
25.283826859021797
 10
8.57807611844575
 20
25.240918830920368
 10
8.557416697508025
 20
25.185
 10
8.544429642582422
 20
25.11988114217768
 10
8.540000000000001
 20
25.05
 10
8.544429642582422
 20
24.98011885782232
 10
8.557416697508023
 20
24.915
 10
8.57807611844575
 20
24.859081169079634
 10
8.605
 20
24.8161731409782
 10
8.636353524136673
 20
24.789200026901952
 10
8.67
 20
24.78
 10
8.703646475863328
 20
24.789200026901952
 10
8.735000000000001
 20
24.8161731409782
 10
8.761923881554251
 20
24.859081169079634
 10
8.782583302491977
 20
24.915
 10
8.79557035741758
 20
24.98011885782232
 10
8.8
 20
25.05
 10
8.79557035741758
 20
25.11988114217768
 10
8.782583302491977
 20
25.185
 10
8.761923881554251
 20
25.240918830920368
 10
8.735000000000001
 20
25.283826859021797
 10
8.703646475863328
 20
25.31079997309805
  0
LWPOLYLINE
  5
B4
330
17
100
AcDbEntity
  8
A-FURN
100
AcDbPolyline
 90
4
 70
1
 10
10.299999999999999
 20
25.150000000000002
 10
9.7
 20
25.150000000000002
 10
9.7
 20
21.8
 10
10.299999999999999
 20
21.8
  0
LWPOLYLINE
  5
B5
330
17
100
AcDbEntity
  8
A-FURN
100
AcDbPolyline
 90
2
 70
0
 10
10.27
 20
23.475
 10
9.729999999999999
 20
23.475
  0
LWPOLYLINE
  5
B6
330
17
100
AcDbEntity
  8
A-FURN
100
AcDbPolyline
 90
2
 70
0
 10
10.299999999999999
 20
25.150000000000002
 10
10.299999999999999
 20
25.090000000000003
  0
LWPOLYLINE
  5
B7
330
17
100
AcDbEntity
  8
A-FURN
100
AcDbPolyline
 90
2
 70
0
 10
9.7
 20
25.150000000000002
 10
9.7
 20
25.090000000000003
  0
LWPOLYLINE
  5
B8
330
17
100
AcDbEntity
  8
A-FURN
100
AcDbPolyline
 90
2
 70
0
 10
10.239999999999998
 20
23.595000000000002
 10
10.219999999999999
 20
23.355000000000004
  0
LWPOLYLINE
  5
B9
330
17
100
AcDbEntity
  8
A-FURN
100
AcDbPolyline
 90
2
 70
0
 10
10.12
 20
23.595000000000002
 10
10.1
 20
23.355000000000004
  0
LWPOLYLINE
  5
BA
330
17
100
AcDbEntity
  8
A-FURN
100
AcDbPolyline
 90
2
 70
0
 10
9.999999999999998
 20
23.595000000000002
 10
9.979999999999999
 20
23.355000000000004
  0
LWPOLYLINE
  5
BB
330
17
100
AcDbEntity
  8
A-FURN
100
AcDbPolyline
 90
2
 70
0
 10
9.879999999999999
 20
23.595000000000002
 10
9.86
 20
23.355000000000004
  0
LWPOLYLINE
  5
BC
330
17
100
AcDbEntity
  8
A-FURN
100
AcDbPolyline
 90
2
 70
0
 10
9.759999999999998
 20
23.595000000000002
 10
9.739999999999998
 20
23.355000000000004
  0
LWPOLYLINE
  5
BD
330
17
100
AcDbEntity
  8
A-FURN
100
AcDbPolyline
 90
4
 70
1
 10
12.05
 20
21.8
 10
12.65
 20
21.8
 10
12.65
 20
25.1
 10
12.05
 20
25.1
  0
LWPOLYLINE
  5
BE
330
17
100
AcDbEntity
  8
A-FURN
100
AcDbPolyline
 90
2
 70
0
 10
12.08
 20
23.45
 10
12.620000000000001
 20
23.45
  0
LWPOLYLINE
  5
BF
330
17
100
AcDbEntity
  8
A-FURN
100
AcDbPolyline
 90
2
 70
0
 10
12.05
 20
21.8
 10
12.05
 20
21.86
  0
LWPOLYLINE
  5
C0
330
17
100
AcDbEntity
  8
A-FURN
100
AcDbPolyline
 90
2
 70
0
 10
12.65
 20
21.8
 10
12.65
 20
21.86
  0
LWPOLYLINE
  5
C1
330
17
100
AcDbEntity
  8
A-FURN
100
AcDbPolyline
 90
2
 70
0
 10
12.110000000000001
 20
23.330000000000002
 10
12.13
 20
23.57
  0
LWPOLYLINE
  5
C2
330
17
100
AcDbEntity
  8
A-FURN
100
AcDbPolyline
 90
2
 70
0
 10
12.23
 20
23.330000000000002
 10
12.25
 20
23.57
  0
LWPOLYLINE
  5
C3
330
17
100
AcDbEntity
  8
A-FURN
100
AcDbPolyline
 90
2
 70
0
 10
12.350000000000001
 20
23.330000000000002
 10
12.370000000000001
 20
23.57
  0
LWPOLYLINE
  5
C4
330
17
100
AcDbEntity
  8
A-FURN
100
AcDbPolyline
 90
2
 70
0
 10
12.47
 20
23.330000000000002
 10
12.49
 20
23.57
  0
LWPOLYLINE
  5
C5
330
17
100
AcDbEntity
  8
A-FURN
100
AcDbPolyline
 90
2
 70
0
 10
12.59
 20
23.330000000000002
 10
12.610000000000001
 20
23.57
  0
LWPOLYLINE
  5
C6
330
17
100
AcDbEntity
  8
A-FURN
100
AcDbPolyline
 90
28
 70
1
 10
11.55
 20
24.16
 10
11.548637033051563
 20
24.170352761804104
 10
11.544641016151377
 20
24.18
 10
11.538284271247463
 20
24.188284271247465
 10
11.530000000000001
 20
24.19464101615138
 10
11.520352761804102
 20
24.198637033051565
 10
11.510000000000002
 20
24.200000000000003
 10
10.690000000000001
 20
24.200000000000003
 10
10.6796472381959
 20
24.198637033051565
 10
10.67
 20
24.19464101615138
 10
10.661715728752538
 20
24.188284271247465
 10
10.655358983848624
 20
24.18
 10
10.651362966948438
 20
24.170352761804104
 10
10.65
 20
24.16
 10
10.65
 20
22.64
 10
10.651362966948438
 20
22.6296472381959
 10
10.655358983848624
 20
22.62
 10
10.661715728752538
 20
22.61171572875254
 10
10.67
 20
22.605358983848625
 10
10.6796472381959
 20
22.60136296694844
 10
10.690000000000001
 20
22.6
 10
11.510000000000002
 20
22.6
 10
11.520352761804102
 20
22.60136296694844
 10
11.530000000000001
 20
22.605358983848625
 10
11.538284271247463
 20
22.61171572875254
 10
11.544641016151377
 20
22.62
 10
11.548637033051563
 20
22.6296472381959
 10
11.55
 20
22.64
  0
LWPOLYLINE
  5
C7
330
17
100
AcDbEntity
  8
A-FURN
100
AcDbPolyline
 90
4
 70
1
 10
8.2
 20
29.4
 10
8.2
 20
31.4
 10
6.999999999999999
 20
31.4
 10
6.999999999999999
 20
29.4
  0
LWPOLYLINE
  5
C8
330
17
100
AcDbEntity
  8
A-FURN
100
AcDbPolyline
 90
4
 70
1
 10
7.079999999999999
 20
29.4
 10
7.079999999999999
 20
31.4
 10
6.999999999999999
 20
31.4
 10
6.999999999999999
 20
29.4
  0
LWPOLYLINE
  5
C9
330
17
100
AcDbEntity
  8
A-FURN
100
AcDbPolyline
 90
28
 70
1
 10
7.549999999999999
 20
31.15
 10
7.547614807840234
 20
31.168117333157173
 10
7.54062177826491
 20
31.185
 10
7.529497474683057
 20
31.199497474683056
 10
7.515
 20
31.21062177826491
 10
7.498117333157175
 20
31.217614807840235
 10
7.4799999999999995
 20
31.22
 10
7.219999999999999
 20
31.22
 10
7.201882666842823
 20
31.217614807840235
 10
7.185
 20
31.21062177826491
 10
7.170502525316941
 20
31.199497474683056
 10
7.159378221735088
 20
31.185
 10
7.152385192159764
 20
31.168117333157173
 10
7.1499999999999995
 20
31.15
 10
7.1499999999999995
 20
29.65
 10
7.152385192159764
 20
29.631882666842824
 10
7.159378221735088
 20
29.615
 10
7.170502525316941
 20
29.60050252531694
 10
7.185
 20
29.58937822173509
 10
7.201882666842823
 20
29.582385192159762
 10
7.219999999999999
 20
29.58
 10
7.4799999999999995
 20
29.58
 10
7.498117333157175
 20
29.582385192159762
 10
7.515
 20
29.58937822173509
 10
7.529497474683057
 20
29.60050252531694
 10
7.54062177826491
 20
29.615
 10
7.547614807840234
 20
29.631882666842824
 10
7.549999999999999
 20
29.65
  0
LWPOLYLINE
  5
CA
330
17
100
AcDbEntity
  8
A-FURN
100
AcDbPolyline
 90
2
 70
0
 10
7.4559999999999995
 20
29.4
 10
7.4559999999999995
 20
31.4
  0
LWPOLYLINE
  5
CB
330
17
100
AcDbEntity
  8
A-FURN
100
AcDbPolyline
 90
3
 70
0
 10
7.4559999999999995
 20
29.4
 10
7.6
 20
29.9
 10
7.4559999999999995
 20
31.4
  0
LWPOLYLINE
  5
CC
330
17
100
AcDbEntity
  8
A-FURN
100
AcDbPolyline
 90
4
 70
1
 10
9.0
 20
31.55
 10
9.0
 20
30.95
 10
10.6
 20
30.95
 10
10.6
 20
31.55
  0
LWPOLYLINE
  5
CD
330
17
100
AcDbEntity
  8
A-FURN
100
AcDbPolyline
 90
28
 70
1
 10
8.45
 20
31.1
 10
8.453407417371093
 20
31.074118095489748
 10
8.463397459621556
 20
31.05
 10
8.479289321881346
 20
31.029289321881347
 10
8.5
 20
31.013397459621558
 10
8.524118095489747
 20
31.003407417371093
 10
8.55
 20
31.0
 10
8.82
 20
31.0
 10
8.845881904510252
 20
31.003407417371093
 10
8.87
 20
31.013397459621558
 10
8.890710678118655
 20
31.029289321881347
 10
8.906602540378444
 20
31.05
 10
8.916592582628907
 20
31.074118095489748
 10
8.92
 20
31.1
 10
8.92
 20
31.400000000000002
 10
8.916592582628907
 20
31.425881904510252
 10
8.906602540378444
 20
31.45
 10
8.890710678118655
 20
31.470710678118657
 10
8.87
 20
31.486602540378446
 10
8.845881904510252
 20
31.496592582628907
 10
8.82
 20
31.5
 10
8.55
 20
31.5
 10
8.524118095489747
 20
31.496592582628907
 10
8.5
 20
31.486602540378446
 10
8.479289321881346
 20
31.470710678118657
 10
8.463397459621556
 20
31.45
 10
8.453407417371093
 20
31.425881904510252
 10
8.45
 20
31.400000000000002
  0
LWPOLYLINE
  5
CE
330
17
100
AcDbEntity
  8
A-FURN
100
AcDbPolyline
 90
4
 70
1
 10
8.75
 20
27.4
 10
8.75
 20
28.0
 10
6.55
 20
28.0
 10
6.55
 20
27.4
  0
LWPOLYLINE
  5
CF
330
17
100
AcDbEntity
  8
A-FURN
100
AcDbPolyline
 90
2
 70
0
 10
7.65
 20
27.43
 10
7.65
 20
27.97
  0
LWPOLYLINE
  5
D0
330
17
100
AcDbEntity
  8
A-FURN
100
AcDbPolyline
 90
2
 70
0
 10
8.75
 20
27.4
 10
8.69
 20
27.4
  0
LWPOLYLINE
  5
D1
330
17
100
AcDbEntity
  8
A-FURN
100
AcDbPolyline
 90
2
 70
0
 10
8.75
 20
28.0
 10
8.69
 20
28.0
  0
LWPOLYLINE
  5
D2
330
17
100
AcDbEntity
  8
A-FURN
100
AcDbPolyline
 90
2
 70
0
 10
7.77
 20
27.459999999999997
 10
7.529999999999999
 20
27.479999999999997
  0
LWPOLYLINE
  5
D3
330
17
100
AcDbEntity
  8
A-FURN
100
AcDbPolyline
 90
2
 70
0
 10
7.77
 20
27.58
 10
7.529999999999999
 20
27.599999999999998
  0
LWPOLYLINE
  5
D4
330
17
100
AcDbEntity
  8
A-FURN
100
AcDbPolyline
 90
2
 70
0
 10
7.77
 20
27.7
 10
7.529999999999999
 20
27.72
  0
LWPOLYLINE
  5
D5
330
17
100
AcDbEntity
  8
A-FURN
100
AcDbPolyline
 90
2
 70
0
 10
7.77
 20
27.82
 10
7.529999999999999
 20
27.84
  0
LWPOLYLINE
  5
D6
330
17
100
AcDbEntity
  8
A-FURN
100
AcDbPolyline
 90
2
 70
0
 10
7.77
 20
27.939999999999998
 10
7.529999999999999
 20
27.959999999999997
  0
LWPOLYLINE
  5
D7
330
17
100
AcDbEntity
  8
A-FURN
100
AcDbPolyline
 90
4
 70
1
 10
12.4
 20
29.0
 10
12.950000000000001
 20
29.0
 10
12.950000000000001
 20
30.2
 10
12.4
 20
30.2
  0
LWPOLYLINE
  5
D8
330
17
100
AcDbEntity
  8
A-FURN
100
AcDbPolyline
 90
24
 70
1
 10
12.84
 20
29.54
 10
12.834377761337697
 20
29.626963199154446
 10
12.817894191624433
 20
29.708
 10
12.791672618895781
 20
29.77758787847868
 10
12.7575
 20
29.830984535671572
 10
12.717705142441917
 20
29.864551077633127
 10
12.675
 20
29.876
 10
12.632294857558085
 20
29.864551077633127
 10
12.592500000000001
 20
29.830984535671572
 10
12.55832738110422
 20
29.77758787847868
 10
12.532105808375569
 20
29.708
 10
12.515622238662305
 20
29.626963199154446
 10
12.51
 20
29.54
 10
12.515622238662305
 20
29.453036800845553
 10
12.532105808375569
 20
29.372
 10
12.55832738110422
 20
29.30241212152132
 10
12.592500000000001
 20
29.24901546432843
 10
12.632294857558085
 20
29.215448922366875
 10
12.675
 20
29.204
 10
12.717705142441917
 20
29.215448922366875
 10
12.7575
 20
29.24901546432843
 10
12.791672618895781
 20
29.30241212152132
 10
12.817894191624433
 20
29.372
 10
12.834377761337697
 20
29.453036800845553
  0
LWPOLYLINE
  5
D9
330
17
100
AcDbEntity
  8
A-FURN
100
AcDbPolyline
 90
4
 70
1
 10
12.9
 20
30.4
 10
12.9
 20
31.599999999999998
 10
11.3
 20
31.599999999999998
 10
11.3
 20
30.4
  0
LWPOLYLINE
  5
DA
330
17
100
AcDbEntity
  8
A-FURN
100
AcDbPolyline
 90
2
 70
0
 10
12.9
 20
30.4
 10
11.3
 20
31.599999999999998
  0
LWPOLYLINE
  5
DB
330
17
100
AcDbEntity
  8
A-FURN
100
AcDbPolyline
 90
2
 70
0
 10
12.9
 20
31.599999999999998
 10
11.3
 20
30.4
  0
LWPOLYLINE
  5
DC
330
17
100
AcDbEntity
  8
A-FURN
100
AcDbPolyline
 90
24
 70
1
 10
12.1
 20
31.049999999999997
 10
12.087059047744875
 20
31.04829629131445
 10
12.075000000000001
 20
31.04330127018922
 10
12.064644660940672
 20
31.035355339059326
 10
12.056698729810778
 20
31.025
 10
12.051703708685547
 20
31.012940952255125
 10
12.05
 20
31.0
 10
12.051703708685547
 20
30.98705904774487
 10
12.056698729810778
 20
30.974999999999998
 10
12.064644660940672
 20
30.96464466094067
 10
12.075000000000001
 20
30.95669872981078
 10
12.087059047744875
 20
30.951703708685546
 10
12.1
 20
30.95
 10
12.112940952255126
 20
30.951703708685546
 10
12.125
 20
30.95669872981078
 10
12.135355339059327
 20
30.96464466094067
 10
12.143301270189223
 20
30.974999999999998
 10
12.148296291314454
 20
30.98705904774487
 10
12.15
 20
31.0
 10
12.148296291314454
 20
31.012940952255125
 10
12.143301270189223
 20
31.025
 10
12.135355339059327
 20
31.035355339059326
 10
12.125
 20
31.04330127018922
 10
12.112940952255126
 20
31.04829629131445
  0
LWPOLYLINE
  5
DD
330
17
100
AcDbEntity
  8
A-FURN
100
AcDbPolyline
 90
4
 70
1
 10
12.45
 20
27.82
 10
12.85
 20
27.82
 10
12.85
 20
28.0
 10
12.45
 20
28.0
  0
LWPOLYLINE
  5
DE
330
17
100
AcDbEntity
  8
A-FURN
100
AcDbPolyline
 90
24
 70
1
 10
12.83
 20
27.63
 10
12.823866648732032
 20
27.689528380373577
 10
12.805884572681197
 20
27.744999999999997
 10
12.777279220613577
 20
27.792634559672905
 10
12.739999999999998
 20
27.82918584287042
 10
12.696587428118454
 20
27.852162940046483
 10
12.649999999999999
 20
27.86
 10
12.603412571881545
 20
27.852162940046483
 10
12.559999999999999
 20
27.82918584287042
 10
12.52272077938642
 20
27.792634559672905
 10
12.4941154273188
 20
27.744999999999997
 10
12.476133351267967
 20
27.689528380373577
 10
12.469999999999999
 20
27.63
 10
12.476133351267967
 20
27.570471619626417
 10
12.4941154273188
 20
27.514999999999997
 10
12.52272077938642
 20
27.467365440327093
 10
12.559999999999999
 20
27.43081415712958
 10
12.603412571881545
 20
27.40783705995351
 10
12.649999999999999
 20
27.4
 10
12.696587428118454
 20
27.40783705995351
 10
12.739999999999998
 20
27.43081415712958
 10
12.777279220613577
 20
27.467365440327093
 10
12.805884572681197
 20
27.514999999999997
 10
12.823866648732032
 20
27.570471619626417
  0
LWPOLYLINE
  5
DF
330
17
100
AcDbEntity
  8
A-FURN
100
AcDbPolyline
 90
28
 70
1
 10
16.0
 20
25.66
 10
16.002044450422655
 20
25.64447085729385
 10
16.008038475772935
 20
25.630000000000003
 10
16.01757359312881
 20
25.617573593128807
 10
16.03
 20
25.608038475772936
 10
16.04447085729385
 20
25.602044450422657
 10
16.06
 20
25.6
 10
18.94
 20
25.6
 10
18.95552914270615
 20
25.602044450422657
 10
18.97
 20
25.608038475772936
 10
18.98242640687119
 20
25.617573593128807
 10
18.991961524227065
 20
25.630000000000003
 10
18.997955549577345
 20
25.64447085729385
 10
19.0
 20
25.66
 10
19.0
 20
26.490000000000002
 10
18.997955549577345
 20
26.505529142706152
 10
18.991961524227065
 20
26.52
 10
18.98242640687119
 20
26.532426406871192
 10
18.97
 20
26.541961524227066
 10
18.95552914270615
 20
26.547955549577345
 10
18.94
 20
26.55
 10
16.06
 20
26.55
 10
16.04447085729385
 20
26.547955549577345
 10
16.03
 20
26.541961524227066
 10
16.01757359312881
 20
26.532426406871192
 10
16.008038475772935
 20
26.52
 10
16.002044450422655
 20
26.505529142706152
 10
16.0
 20
26.490000000000002
  0
LWPOLYLINE
  5
E0
330
17
100
AcDbEntity
  8
A-FURN
100
AcDbPolyline
 90
4
 70
1
 10
18.78
 20
26.37
 10
18.78
 20
25.78
 10
19.0
 20
25.78
 10
19.0
 20
26.37
  0
LWPOLYLINE
  5
E1
330
17
100
AcDbEntity
  8
A-FURN
100
AcDbPolyline
 90
4
 70
1
 10
16.0
 20
26.55
 10
16.0
 20
26.37
 10
19.0
 20
26.37
 10
19.0
 20
26.55
  0
LWPOLYLINE
  5
E2
330
17
100
AcDbEntity
  8
A-FURN
100
AcDbPolyline
 90
4
 70
1
 10
16.0
 20
25.78
 10
16.0
 20
25.6
 10
19.0
 20
25.6
 10
19.0
 20
25.78
  0
LWPOLYLINE
  5
E3
330
17
100
AcDbEntity
  8
A-FURN
100
AcDbPolyline
 90
2
 70
0
 10
16.05
 20
26.075
 10
18.78
 20
26.075
  0
LWPOLYLINE
  5
E4
330
17
100
AcDbEntity
  8
A-FURN
100
AcDbPolyline
 90
4
 70
1
 10
17.400000000000002
 20
27.95
 10
17.400000000000002
 20
28.65
 10
15.800000000000002
 20
28.65
 10
15.800000000000002
 20
27.95
  0
LWPOLYLINE
  5
E5
330
17
100
AcDbEntity
  8
A-FURN
100
AcDbPolyline
 90
28
 70
1
 10
17.950000000000003
 20
28.45
 10
17.94659258262891
 20
28.475881904510253
 10
17.936602540378445
 20
28.5
 10
17.920710678118656
 20
28.520710678118654
 10
17.900000000000002
 20
28.536602540378443
 10
17.875881904510255
 20
28.546592582628907
 10
17.85
 20
28.55
 10
17.580000000000002
 20
28.55
 10
17.55411809548975
 20
28.546592582628907
 10
17.53
 20
28.536602540378443
 10
17.509289321881347
 20
28.520710678118654
 10
17.49339745962156
 20
28.5
 10
17.483407417371094
 20
28.475881904510253
 10
17.48
 20
28.45
 10
17.48
 20
28.15
 10
17.483407417371094
 20
28.12411809548975
 10
17.49339745962156
 20
28.099999999999998
 10
17.509289321881347
 20
28.079289321881344
 10
17.53
 20
28.063397459621555
 10
17.55411809548975
 20
28.053407417371094
 10
17.580000000000002
 20
28.05
 10
17.85
 20
28.05
 10
17.875881904510255
 20
28.053407417371094
 10
17.900000000000002
 20
28.063397459621555
 10
17.920710678118656
 20
28.079289321881344
 10
17.936602540378445
 20
28.099999999999998
 10
17.94659258262891
 20
28.12411809548975
 10
17.950000000000003
 20
28.15
  0
LWPOLYLINE
  5
E6
330
17
100
AcDbEntity
  8
A-FURN
100
AcDbPolyline
 90
28
 70
1
 10
19.22
 20
27.6
 10
19.2407055236082
 20
27.602725933896878
 10
19.259999999999998
 20
27.610717967697248
 10
19.27656854249492
 20
27.623431457505077
 10
19.289282032302754
 20
27.64
 10
19.297274066103125
 20
27.6592944763918
 10
19.299999999999997
 20
27.68
 10
19.299999999999997
 20
28.42
 10
19.297274066103125
 20
28.4407055236082
 10
19.289282032302754
 20
28.46
 10
19.27656854249492
 20
28.476568542494924
 10
19.259999999999998
 20
28.489282032302757
 10
19.2407055236082
 20
28.497274066103127
 10
19.22
 20
28.5
 10
18.479999999999997
 20
28.5
 10
18.459294476391797
 20
28.497274066103127
 10
18.439999999999998
 20
28.489282032302757
 10
18.423431457505075
 20
28.476568542494924
 10
18.410717967697245
 20
28.46
 10
18.402725933896875
 20
28.4407055236082
 10
18.4
 20
28.42
 10
18.4
 20
27.68
 10
18.402725933896875
 20
27.6592944763918
 10
18.410717967697245
 20
27.64
 10
18.423431457505075
 20
27.623431457505077
 10
18.439999999999998
 20
27.610717967697248
 10
18.459294476391797
 20
27.602725933896878
 10
18.479999999999997
 20
27.6
  0
LWPOLYLINE
  5
E7
330
17
100
AcDbEntity
  8
A-FURN
100
AcDbPolyline
 90
4
 70
1
 10
18.52
 20
28.3
 10
19.18
 20
28.3
 10
19.18
 20
28.5
 10
18.52
 20
28.5
  0
LWPOLYLINE
  5
E8
330
17
100
AcDbEntity
  8
A-FURN
100
AcDbPolyline
 90
4
 70
1
 10
18.4
 20
27.650000000000002
 10
18.52
 20
27.650000000000002
 10
18.52
 20
28.5
 10
18.4
 20
28.5
  0
LWPOLYLINE
  5
E9
330
17
100
AcDbEntity
  8
A-FURN
100
AcDbPolyline
 90
4
 70
1
 10
19.18
 20
27.650000000000002
 10
19.299999999999997
 20
27.650000000000002
 10
19.299999999999997
 20
28.5
 10
19.18
 20
28.5
  0
LWPOLYLINE
  5
EA
330
17
100
AcDbEntity
  8
A-FURN
100
AcDbPolyline
 90
4
 70
1
 10
17.7
 20
31.650000000000002
 10
17.7
 20
31.05
 10
19.5
 20
31.05
 10
19.5
 20
31.650000000000002
  0
LWPOLYLINE
  5
EB
330
17
100
AcDbEntity
  8
A-FURN
100
AcDbPolyline
 90
2
 70
0
 10
17.75
 20
31.650000000000002
 10
17.75
 20
31.05
  0
LWPOLYLINE
  5
EC
330
17
100
AcDbEntity
  8
A-FURN
100
AcDbPolyline
 90
4
 70
1
 10
22.2
 20
26.4
 10
23.8
 20
26.4
 10
23.8
 20
28.4
 10
22.2
 20
28.4
  0
LWPOLYLINE
  5
ED
330
17
100
AcDbEntity
  8
A-FURN
100
AcDbPolyline
 90
4
 70
1
 10
22.2
 20
28.32
 10
23.8
 20
28.32
 10
23.8
 20
28.4
 10
22.2
 20
28.4
  0
LWPOLYLINE
  5
EE
330
17
100
AcDbEntity
  8
A-FURN
100
AcDbPolyline
 90
28
 70
1
 10
22.9
 20
27.849999999999998
 10
22.918117333157177
 20
27.852385192159765
 10
22.935
 20
27.85937822173509
 10
22.949497474683056
 20
27.87050252531694
 10
22.96062177826491
 20
27.884999999999998
 10
22.967614807840235
 20
27.901882666842823
 10
22.97
 20
27.919999999999998
 10
22.97
 20
28.18
 10
22.967614807840235
 20
28.198117333157175
 10
22.96062177826491
 20
28.215
 10
22.949497474683056
 20
28.229497474683058
 10
22.935
 20
28.24062177826491
 10
22.918117333157177
 20
28.247614807840232
 10
22.9
 20
28.25
 10
22.45
 20
28.25
 10
22.431882666842824
 20
28.247614807840232
 10
22.415
 20
28.24062177826491
 10
22.40050252531694
 20
28.229497474683058
 10
22.38937822173509
 20
28.215
 10
22.382385192159763
 20
28.198117333157175
 10
22.38
 20
28.18
 10
22.38
 20
27.919999999999998
 10
22.382385192159763
 20
27.901882666842823
 10
22.38937822173509
 20
27.884999999999998
 10
22.40050252531694
 20
27.87050252531694
 10
22.415
 20
27.85937822173509
 10
22.431882666842824
 20
27.852385192159765
 10
22.45
 20
27.849999999999998
  0
LWPOLYLINE
  5
EF
330
17
100
AcDbEntity
  8
A-FURN
100
AcDbPolyline
 90
28
 70
1
 10
23.55
 20
27.849999999999998
 10
23.568117333157176
 20
27.852385192159765
 10
23.585
 20
27.85937822173509
 10
23.59949747468306
 20
27.87050252531694
 10
23.61062177826491
 20
27.884999999999998
 10
23.617614807840233
 20
27.901882666842823
 10
23.619999999999997
 20
27.919999999999998
 10
23.619999999999997
 20
28.18
 10
23.617614807840233
 20
28.198117333157175
 10
23.61062177826491
 20
28.215
 10
23.59949747468306
 20
28.229497474683058
 10
23.585
 20
28.24062177826491
 10
23.568117333157176
 20
28.247614807840232
 10
23.55
 20
28.25
 10
23.099999999999998
 20
28.25
 10
23.081882666842823
 20
28.247614807840232
 10
23.064999999999998
 20
28.24062177826491
 10
23.05050252531694
 20
28.229497474683058
 10
23.039378221735088
 20
28.215
 10
23.032385192159765
 20
28.198117333157175
 10
23.03
 20
28.18
 10
23.03
 20
27.919999999999998
 10
23.032385192159765
 20
27.901882666842823
 10
23.039378221735088
 20
27.884999999999998
 10
23.05050252531694
 20
27.87050252531694
 10
23.064999999999998
 20
27.85937822173509
 10
23.081882666842823
 20
27.852385192159765
 10
23.099999999999998
 20
27.849999999999998
  0
LWPOLYLINE
  5
F0
330
17
100
AcDbEntity
  8
A-FURN
100
AcDbPolyline
 90
2
 70
0
 10
22.2
 20
27.639999999999997
 10
23.8
 20
27.639999999999997
  0
LWPOLYLINE
  5
F1
330
17
100
AcDbEntity
  8
A-FURN
100
AcDbPolyline
 90
3
 70
0
 10
22.2
 20
27.639999999999997
 10
22.599999999999998
 20
27.4
 10
23.8
 20
27.639999999999997
  0
LWPOLYLINE
  5
F2
330
17
100
AcDbEntity
  8
A-FURN
100
AcDbPolyline
 90
4
 70
1
 10
19.8
 20
29.400000000000002
 10
19.8
 20
28.8
 10
23.2
 20
28.8
 10
23.2
 20
29.400000000000002
  0
LWPOLYLINE
  5
F3
330
17
100
AcDbEntity
  8
A-FURN
100
AcDbPolyline
 90
2
 70
0
 10
21.5
 20
29.37
 10
21.5
 20
28.830000000000002
  0
LWPOLYLINE
  5
F4
330
17
100
AcDbEntity
  8
A-FURN
100
AcDbPolyline
 90
2
 70
0
 10
19.8
 20
29.400000000000002
 10
19.86
 20
29.400000000000002
  0
LWPOLYLINE
  5
F5
330
17
100
AcDbEntity
  8
A-FURN
100
AcDbPolyline
 90
2
 70
0
 10
19.8
 20
28.8
 10
19.86
 20
28.8
  0
LWPOLYLINE
  5
F6
330
17
100
AcDbEntity
  8
A-FURN
100
AcDbPolyline
 90
2
 70
0
 10
21.380000000000003
 20
29.340000000000003
 10
21.62
 20
29.320000000000004
  0
LWPOLYLINE
  5
F7
330
17
100
AcDbEntity
  8
A-FURN
100
AcDbPolyline
 90
2
 70
0
 10
21.380000000000003
 20
29.220000000000002
 10
21.62
 20
29.200000000000003
  0
LWPOLYLINE
  5
F8
330
17
100
AcDbEntity
  8
A-FURN
100
AcDbPolyline
 90
2
 70
0
 10
21.380000000000003
 20
29.1
 10
21.62
 20
29.080000000000002
  0
LWPOLYLINE
  5
F9
330
17
100
AcDbEntity
  8
A-FURN
100
AcDbPolyline
 90
2
 70
0
 10
21.380000000000003
 20
28.98
 10
21.62
 20
28.96
  0
LWPOLYLINE
  5
FA
330
17
100
AcDbEntity
  8
A-FURN
100
AcDbPolyline
 90
2
 70
0
 10
21.380000000000003
 20
28.860000000000003
 10
21.62
 20
28.840000000000003
  0
LWPOLYLINE
  5
FB
330
17
100
AcDbEntity
  8
A-FURN
100
AcDbPolyline
 90
4
 70
1
 10
23.8
 20
28.2
 10
24.400000000000002
 20
28.2
 10
24.400000000000002
 20
29.3
 10
23.8
 20
29.3
  0
LWPOLYLINE
  5
FC
330
17
100
AcDbEntity
  8
A-FURN
100
AcDbPolyline
 90
28
 70
1
 10
24.25
 20
27.65
 10
24.275881904510253
 20
27.653407417371092
 10
24.3
 20
27.663397459621557
 10
24.320710678118655
 20
27.679289321881345
 10
24.336602540378443
 20
27.7
 10
24.346592582628908
 20
27.724118095489747
 10
24.35
 20
27.75
 10
24.35
 20
28.02
 10
24.346592582628908
 20
28.045881904510253
 10
24.336602540378443
 20
28.07
 10
24.320710678118655
 20
28.090710678118654
 10
24.3
 20
28.106602540378443
 10
24.275881904510253
 20
28.116592582628908
 10
24.25
 20
28.12
 10
23.95
 20
28.12
 10
23.92411809548975
 20
28.116592582628908
 10
23.900000000000002
 20
28.106602540378443
 10
23.879289321881345
 20
28.090710678118654
 10
23.863397459621556
 20
28.07
 10
23.853407417371095
 20
28.045881904510253
 10
23.85
 20
28.02
 10
23.85
 20
27.75
 10
23.853407417371095
 20
27.724118095489747
 10
23.863397459621556
 20
27.7
 10
23.879289321881345
 20
27.679289321881345
 10
23.900000000000002
 20
27.663397459621557
 10
23.92411809548975
 20
27.653407417371092
 10
23.95
 20
27.65
  0
LWPOLYLINE
  5
FD
330
17
100
AcDbEntity
  8
A-FURN
100
AcDbPolyline
 90
4
 70
1
 10
21.4
 20
29.6
 10
21.4
 20
30.150000000000002
 10
20.0
 20
30.150000000000002
 10
20.0
 20
29.6
  0
LWPOLYLINE
  5
FE
330
17
100
AcDbEntity
  8
A-FURN
100
AcDbPolyline
 90
24
 70
1
 10
20.77
 20
30.040000000000003
 10
20.66854293431981
 20
30.034377761337698
 10
20.573999999999998
 20
30.017894191624436
 10
20.492814141774872
 20
29.99167261889578
 10
20.4305180417165
 20
29.957500000000003
 10
20.391357076094685
 20
29.917705142441918
 10
20.378
 20
29.875
 10
20.391357076094685
 20
29.832294857558086
 10
20.4305180417165
 20
29.7925
 10
20.492814141774872
 20
29.75832738110422
 10
20.573999999999998
 20
29.732105808375568
 10
20.66854293431981
 20
29.715622238662306
 10
20.77
 20
29.71
 10
20.871457065680186
 20
29.715622238662306
 10
20.965999999999998
 20
29.732105808375568
 10
21.047185858225124
 20
29.75832738110422
 10
21.1094819582835
 20
29.7925
 10
21.148642923905314
 20
29.832294857558086
 10
21.162
 20
29.875
 10
21.148642923905314
 20
29.917705142441918
 10
21.1094819582835
 20
29.957500000000003
 10
21.047185858225124
 20
29.99167261889578
 10
20.965999999999998
 20
30.017894191624436
 10
20.871457065680186
 20
30.034377761337698
  0
LWPOLYLINE
  5
FF
330
17
100
AcDbEntity
  8
A-FURN
100
AcDbPolyline
 90
4
 70
1
 10
24.6
 20
30.3
 10
24.6
 20
31.6
 10
23.0
 20
31.6
 10
23.0
 20
30.3
  0
LWPOLYLINE
  5
100
330
17
100
AcDbEntity
  8
A-FURN
100
AcDbPolyline
 90
2
 70
0
 10
24.6
 20
30.3
 10
23.0
 20
31.6
  0
LWPOLYLINE
  5
101
330
17
100
AcDbEntity
  8
A-FURN
100
AcDbPolyline
 90
2
 70
0
 10
24.6
 20
31.6
 10
23.0
 20
30.3
  0
LWPOLYLINE
  5
102
330
17
100
AcDbEntity
  8
A-FURN
100
AcDbPolyline
 90
24
 70
1
 10
23.8
 20
31.0
 10
23.787059047744876
 20
30.998296291314453
 10
23.775000000000002
 20
30.99330127018922
 10
23.764644660940675
 20
30.98535533905933
 10
23.75669872981078
 20
30.975
 10
23.751703708685547
 20
30.962940952255128
 10
23.75
 20
30.95
 10
23.751703708685547
 20
30.937059047744874
 10
23.75669872981078
 20
30.925
 10
23.764644660940675
 20
30.914644660940674
 10
23.775000000000002
 20
30.906698729810778
 10
23.787059047744876
 20
30.90170370868555
 10
23.8
 20
30.900000000000002
 10
23.812940952255126
 20
30.90170370868555
 10
23.825000000000003
 20
30.906698729810778
 10
23.83535533905933
 20
30.914644660940674
 10
23.843301270189222
 20
30.925
 10
23.848296291314455
 20
30.937059047744874
 10
23.85
 20
30.95
 10
23.848296291314455
 20
30.962940952255128
 10
23.843301270189222
 20
30.975
 10
23.83535533905933
 20
30.98535533905933
 10
23.825000000000003
 20
30.99330127018922
 10
23.812940952255126
 20
30.998296291314453
  0
LWPOLYLINE
  5
103
330
17
100
AcDbEntity
  8
A-FURN
100
AcDbPolyline
 90
4
 70
1
 10
22.02
 20
31.650000000000002
 10
22.02
 20
31.05
 10
22.2
 20
31.05
 10
22.2
 20
31.650000000000002
  0
LWPOLYLINE
  5
104
330
17
100
AcDbEntity
  8
A-FURN
100
AcDbPolyline
 90
24
 70
1
 10
21.93
 20
31.080000000000002
 10
21.963646475863328
 20
31.089200026901953
 10
21.995
 20
31.116173140978205
 10
22.02192388155425
 20
31.159081169079634
 10
22.042583302491977
 20
31.215000000000003
 10
22.05557035741758
 20
31.280118857822323
 10
22.060000000000002
 20
31.35
 10
22.05557035741758
 20
31.419881142177683
 10
22.042583302491977
 20
31.485000000000003
 10
22.02192388155425
 20
31.54091883092037
 10
21.995
 20
31.5838268590218
 10
21.963646475863328
 20
31.61079997309805
 10
21.93
 20
31.62
 10
21.89635352413667
 20
31.61079997309805
 10
21.865000000000002
 20
31.5838268590218
 10
21.83807611844575
 20
31.54091883092037
 10
21.817416697508023
 20
31.485000000000003
 10
21.804429642582424
 20
31.419881142177683
 10
21.8
 20
31.35
 10
21.804429642582424
 20
31.280118857822323
 10
21.817416697508023
 20
31.215000000000003
 10
21.83807611844575
 20
31.159081169079634
 10
21.865000000000002
 20
31.116173140978205
 10
21.89635352413667
 20
31.089200026901953
  0
LWPOLYLINE
  5
105
330
17
100
AcDbEntity
  8
A-FURN
100
AcDbPolyline
 90
28
 70
1
 10
14.899999999999999
 20
23.540000000000003
 10
14.897955549577343
 20
23.555529142706153
 10
14.891961524227066
 20
23.57
 10
14.882426406871192
 20
23.582426406871193
 10
14.87
 20
23.591961524227067
 10
14.85552914270615
 20
23.597955549577346
 10
14.839999999999998
 20
23.6
 10
14.259999999999998
 20
23.6
 10
14.244470857293848
 20
23.597955549577346
 10
14.229999999999999
 20
23.591961524227067
 10
14.217573593128806
 20
23.582426406871193
 10
14.208038475772932
 20
23.57
 10
14.202044450422655
 20
23.555529142706153
 10
14.2
 20
23.540000000000003
 10
14.2
 20
21.66
 10
14.202044450422655
 20
21.64447085729385
 10
14.208038475772932
 20
21.630000000000003
 10
14.217573593128806
 20
21.61757359312881
 10
14.229999999999999
 20
21.608038475772936
 10
14.244470857293848
 20
21.602044450422657
 10
14.259999999999998
 20
21.6
 10
14.839999999999998
 20
21.6
 10
14.85552914270615
 20
21.602044450422657
 10
14.87
 20
21.608038475772936
 10
14.882426406871192
 20
21.61757359312881
 10
14.891961524227066
 20
21.630000000000003
 10
14.897955549577343
 20
21.64447085729385
 10
14.899999999999999
 20
21.66
  0
LWPOLYLINE
  5
106
330
17
100
AcDbEntity
  8
A-FURN
100
AcDbPolyline
 90
2
 70
0
 10
14.409999999999998
 20
21.6
 10
14.409999999999998
 20
23.6
  0
LWPOLYLINE
  5
107
330
17
100
AcDbEntity
  8
A-FURN
100
AcDbPolyline
 90
28
 70
1
 10
15.899999999999999
 20
23.540000000000003
 10
15.897955549577343
 20
23.555529142706153
 10
15.891961524227066
 20
23.57
 10
15.882426406871192
 20
23.582426406871193
 10
15.87
 20
23.591961524227067
 10
15.85552914270615
 20
23.597955549577346
 10
15.839999999999998
 20
23.6
 10
15.259999999999998
 20
23.6
 10
15.244470857293848
 20
23.597955549577346
 10
15.229999999999999
 20
23.591961524227067
 10
15.217573593128806
 20
23.582426406871193
 10
15.208038475772932
 20
23.57
 10
15.202044450422655
 20
23.555529142706153
 10
15.2
 20
23.540000000000003
 10
15.2
 20
21.66
 10
15.202044450422655
 20
21.64447085729385
 10
15.208038475772932
 20
21.630000000000003
 10
15.217573593128806
 20
21.61757359312881
 10
15.229999999999999
 20
21.608038475772936
 10
15.244470857293848
 20
21.602044450422657
 10
15.259999999999998
 20
21.6
 10
15.839999999999998
 20
21.6
 10
15.85552914270615
 20
21.602044450422657
 10
15.87
 20
21.608038475772936
 10
15.882426406871192
 20
21.61757359312881
 10
15.891961524227066
 20
21.630000000000003
 10
15.897955549577343
 20
21.64447085729385
 10
15.899999999999999
 20
21.66
  0
LWPOLYLINE
  5
108
330
17
100
AcDbEntity
  8
A-FURN
100
AcDbPolyline
 90
2
 70
0
 10
15.409999999999998
 20
21.6
 10
15.409999999999998
 20
23.6
  0
LWPOLYLINE
  5
109
330
17
100
AcDbEntity
  8
A-FURN
100
AcDbPolyline
 90
24
 70
1
 10
21.599999999999998
 20
24.0
 10
21.444708572938488
 20
23.979555495773443
 10
21.3
 20
23.919615242270662
 10
21.17573593128807
 20
23.82426406871193
 10
21.080384757729338
 20
23.7
 10
21.020444504226557
 20
23.555291427061512
 10
21.0
 20
23.400000000000002
 10
21.020444504226557
 20
23.24470857293849
 10
21.080384757729338
 20
23.1
 10
21.17573593128807
 20
22.97573593128807
 10
21.3
 20
22.880384757729338
 10
21.444708572938488
 20
22.82044450422656
 10
21.599999999999998
 20
22.8
 10
21.75529142706151
 20
22.82044450422656
 10
21.9
 20
22.880384757729338
 10
22.02426406871193
 20
22.97573593128807
 10
22.119615242270662
 20
23.1
 10
22.17955549577344
 20
23.24470857293849
 10
22.2
 20
23.400000000000002
 10
22.17955549577344
 20
23.555291427061512
 10
22.119615242270662
 20
23.7
 10
22.02426406871193
 20
23.82426406871193
 10
21.9
 20
23.919615242270662
 10
21.75529142706151
 20
23.979555495773443
  0
LWPOLYLINE
  5
10A
330
17
100
AcDbEntity
  8
A-FURN
100
AcDbPolyline
 90
24
 70
1
 10
20.963603896932106
 20
24.246396103067895
 10
20.909251897460578
 20
24.2392405265886
 10
20.858603896932106
 20
24.218261437862626
 10
20.815111472882933
 20
24.184888527117067
 10
20.781738562137374
 20
24.141396103067894
 10
20.7607594734114
 20
24.090748102539422
 10
20.753603896932105
 20
24.036396103067894
 10
20.7607594734114
 20
23.982044103596365
 10
20.781738562137374
 20
23.931396103067893
 10
20.815111472882933
 20
23.88790367901872
 10
20.858603896932106
 20
23.85453076827316
 10
20.909251897460578
 20
23.83355167954719
 10
20.963603896932106
 20
23.826396103067893
 10
21.017955896403635
 20
23.83355167954719
 10
21.068603896932107
 20
23.85453076827316
 10
21.11209632098128
 20
23.88790367901872
 10
21.14546923172684
 20
23.931396103067893
 10
21.16644832045281
 20
23.982044103596365
 10
21.173603896932107
 20
24.036396103067894
 10
21.16644832045281
 20
24.090748102539422
 10
21.14546923172684
 20
24.141396103067894
 10
21.11209632098128
 20
24.184888527117067
 10
21.068603896932107
 20
24.218261437862626
 10
21.017955896403635
 20
24.2392405265886
  0
LWPOLYLINE
  5
10B
330
17
100
AcDbEntity
  8
A-FURN
100
AcDbPolyline
 90
24
 70
1
 10
20.963603896932106
 20
22.973603896932108
 10
20.909251897460578
 20
22.966448320452812
 10
20.858603896932106
 20
22.94546923172684
 10
20.815111472882933
 20
22.912096320981284
 10
20.781738562137374
 20
22.868603896932107
 10
20.7607594734114
 20
22.81795589640364
 10
20.753603896932105
 20
22.763603896932107
 10
20.7607594734114
 20
22.70925189746058
 10
20.781738562137374
 20
22.658603896932107
 10
20.815111472882933
 20
22.615111472882933
 10
20.858603896932106
 20
22.581738562137375
 10
20.909251897460578
 20
22.560759473411405
 10
20.963603896932106
 20
22.55360389693211
 10
21.017955896403635
 20
22.560759473411405
 10
21.068603896932107
 20
22.581738562137375
 10
21.11209632098128
 20
22.615111472882933
 10
21.14546923172684
 20
22.658603896932107
 10
21.16644832045281
 20
22.70925189746058
 10
21.173603896932107
 20
22.763603896932107
 10
21.16644832045281
 20
22.81795589640364
 10
21.14546923172684
 20
22.868603896932107
 10
21.11209632098128
 20
22.912096320981284
 10
21.068603896932107
 20
22.94546923172684
 10
21.017955896403635
 20
22.966448320452812
  0
LWPOLYLINE
  5
10C
330
17
100
AcDbEntity
  8
A-FURN
100
AcDbPolyline
 90
24
 70
1
 10
22.236396103067893
 20
22.973603896932108
 10
22.18204410359636
 20
22.966448320452812
 10
22.131396103067893
 20
22.94546923172684
 10
22.087903679018716
 20
22.912096320981284
 10
22.05453076827316
 20
22.868603896932107
 10
22.033551679547188
 20
22.81795589640364
 10
22.026396103067892
 20
22.763603896932107
 10
22.033551679547188
 20
22.70925189746058
 10
22.05453076827316
 20
22.658603896932107
 10
22.087903679018716
 20
22.615111472882933
 10
22.131396103067893
 20
22.581738562137375
 10
22.18204410359636
 20
22.560759473411405
 10
22.236396103067893
 20
22.553603896932106
 10
22.29074810253942
 20
22.560759473411405
 10
22.341396103067893
 20
22.581738562137375
 10
22.384888527117067
 20
22.615111472882933
 10
22.418261437862625
 20
22.658603896932107
 10
22.439240526588595
 20
22.70925189746058
 10
22.44639610306789
 20
22.763603896932107
 10
22.439240526588595
 20
22.81795589640364
 10
22.418261437862625
 20
22.868603896932107
 10
22.384888527117067
 20
22.912096320981284
 10
22.341396103067893
 20
22.94546923172684
 10
22.29074810253942
 20
22.966448320452812
  0
LWPOLYLINE
  5
10D
330
17
100
AcDbEntity
  8
A-FURN
100
AcDbPolyline
 90
24
 70
1
 10
22.236396103067893
 20
24.246396103067895
 10
22.18204410359636
 20
24.2392405265886
 10
22.131396103067893
 20
24.218261437862626
 10
22.087903679018716
 20
24.184888527117067
 10
22.05453076827316
 20
24.141396103067894
 10
22.033551679547188
 20
24.090748102539422
 10
22.026396103067892
 20
24.036396103067894
 10
22.033551679547188
 20
23.982044103596365
 10
22.05453076827316
 20
23.931396103067893
 10
22.087903679018716
 20
23.88790367901872
 10
22.131396103067893
 20
23.85453076827316
 10
22.18204410359636
 20
23.83355167954719
 10
22.236396103067893
 20
23.826396103067893
 10
22.29074810253942
 20
23.83355167954719
 10
22.341396103067893
 20
23.85453076827316
 10
22.384888527117067
 20
23.88790367901872
 10
22.418261437862625
 20
23.931396103067893
 10
22.439240526588595
 20
23.982044103596365
 10
22.446396103067894
 20
24.036396103067894
 10
22.439240526588595
 20
24.090748102539422
 10
22.418261437862625
 20
24.141396103067894
 10
22.384888527117067
 20
24.184888527117067
 10
22.341396103067893
 20
24.218261437862626
 10
22.29074810253942
 20
24.2392405265886
  0
LWPOLYLINE
  5
10E
330
17
100
AcDbEntity
  8
A-THIN
100
AcDbPolyline
 90
4
 70
1
 10
13.2
 20
27.98
 10
14.299999999999999
 20
27.98
 10
14.299999999999999
 20
28.26
 10
13.2
 20
28.26
  0
LWPOLYLINE
  5
10F
330
17
100
AcDbEntity
  8
A-THIN
100
AcDbPolyline
 90
4
 70
1
 10
13.2
 20
28.26
 10
14.299999999999999
 20
28.26
 10
14.299999999999999
 20
28.54
 10
13.2
 20
28.54
  0
LWPOLYLINE
  5
110
330
17
100
AcDbEntity
  8
A-THIN
100
AcDbPolyline
 90
4
 70
1
 10
13.2
 20
28.54
 10
14.299999999999999
 20
28.54
 10
14.299999999999999
 20
28.82
 10
13.2
 20
28.82
  0
LWPOLYLINE
  5
111
330
17
100
AcDbEntity
  8
A-THIN
100
AcDbPolyline
 90
4
 70
1
 10
13.2
 20
28.82
 10
14.299999999999999
 20
28.82
 10
14.299999999999999
 20
29.1
 10
13.2
 20
29.1
  0
LWPOLYLINE
  5
112
330
17
100
AcDbEntity
  8
A-THIN
100
AcDbPolyline
 90
4
 70
1
 10
13.2
 20
29.1
 10
14.299999999999999
 20
29.1
 10
14.299999999999999
 20
29.38
 10
13.2
 20
29.38
  0
LWPOLYLINE
  5
113
330
17
100
AcDbEntity
  8
A-THIN
100
AcDbPolyline
 90
4
 70
1
 10
13.2
 20
29.38
 10
14.299999999999999
 20
29.38
 10
14.299999999999999
 20
29.66
 10
13.2
 20
29.66
  0
LWPOLYLINE
  5
114
330
17
100
AcDbEntity
  8
A-THIN
100
AcDbPolyline
 90
4
 70
1
 10
13.2
 20
29.66
 10
14.299999999999999
 20
29.66
 10
14.299999999999999
 20
29.94
 10
13.2
 20
29.94
  0
LWPOLYLINE
  5
115
330
17
100
AcDbEntity
  8
A-THIN
100
AcDbPolyline
 90
4
 70
1
 10
13.2
 20
29.94
 10
14.299999999999999
 20
29.94
 10
14.299999999999999
 20
30.22
 10
13.2
 20
30.22
  0
LWPOLYLINE
  5
116
330
17
100
AcDbEntity
  8
A-THIN
100
AcDbPolyline
 90
4
 70
1
 10
13.2
 20
30.22
 10
14.299999999999999
 20
30.22
 10
14.299999999999999
 20
30.5
 10
13.2
 20
30.5
  0
LWPOLYLINE
  5
117
330
17
100
AcDbEntity
  8
A-HIDDEN
100
AcDbPolyline
 90
4
 70
1
 10
13.2
 20
30.5
 10
15.499999999999998
 20
30.5
 10
15.499999999999998
 20
31.7
 10
13.2
 20
31.7
  0
LWPOLYLINE
  5
118
330
17
100
AcDbEntity
  8
A-HIDDEN
100
AcDbPolyline
 90
4
 70
1
 10
14.399999999999999
 20
30.22
 10
15.499999999999998
 20
30.22
 10
15.499999999999998
 20
30.5
 10
14.399999999999999
 20
30.5
  0
LWPOLYLINE
  5
119
330
17
100
AcDbEntity
  8
A-HIDDEN
100
AcDbPolyline
 90
4
 70
1
 10
14.399999999999999
 20
29.94
 10
15.499999999999998
 20
29.94
 10
15.499999999999998
 20
30.22
 10
14.399999999999999
 20
30.22
  0
LWPOLYLINE
  5
11A
330
17
100
AcDbEntity
  8
A-HIDDEN
100
AcDbPolyline
 90
4
 70
1
 10
14.399999999999999
 20
29.66
 10
15.499999999999998
 20
29.66
 10
15.499999999999998
 20
29.94
 10
14.399999999999999
 20
29.94
  0
LWPOLYLINE
  5
11B
330
17
100
AcDbEntity
  8
A-HIDDEN
100
AcDbPolyline
 90
4
 70
1
 10
14.399999999999999
 20
29.38
 10
15.499999999999998
 20
29.38
 10
15.499999999999998
 20
29.66
 10
14.399999999999999
 20
29.66
  0
LWPOLYLINE
  5
11C
330
17
100
AcDbEntity
  8
A-HIDDEN
100
AcDbPolyline
 90
4
 70
1
 10
14.399999999999999
 20
29.1
 10
15.499999999999998
 20
29.1
 10
15.499999999999998
 20
29.38
 10
14.399999999999999
 20
29.38
  0
LWPOLYLINE
  5
11D
330
17
100
AcDbEntity
  8
A-HIDDEN
100
AcDbPolyline
 90
4
 70
1
 10
14.399999999999999
 20
28.82
 10
15.499999999999998
 20
28.82
 10
15.499999999999998
 20
29.1
 10
14.399999999999999
 20
29.1
  0
LWPOLYLINE
  5
11E
330
17
100
AcDbEntity
  8
A-HIDDEN
100
AcDbPolyline
 90
4
 70
1
 10
14.399999999999999
 20
28.54
 10
15.499999999999998
 20
28.54
 10
15.499999999999998
 20
28.82
 10
14.399999999999999
 20
28.82
  0
LWPOLYLINE
  5
11F
330
17
100
AcDbEntity
  8
A-HIDDEN
100
AcDbPolyline
 90
4
 70
1
 10
14.399999999999999
 20
28.259999999999998
 10
15.499999999999998
 20
28.259999999999998
 10
15.499999999999998
 20
28.54
 10
14.399999999999999
 20
28.54
  0
LWPOLYLINE
  5
120
330
17
100
AcDbEntity
  8
A-HIDDEN
100
AcDbPolyline
 90
4
 70
1
 10
14.399999999999999
 20
27.98
 10
15.499999999999998
 20
27.98
 10
15.499999999999998
 20
28.259999999999998
 10
14.399999999999999
 20
28.259999999999998
  0
LWPOLYLINE
  5
121
330
17
100
AcDbEntity
  8
A-THIN
100
AcDbPolyline
 90
2
 70
0
 10
13.75
 20
28.080000000000002
 10
13.75
 20
30.0
  0
LWPOLYLINE
  5
122
330
17
100
AcDbEntity
  8
A-THIN
100
AcDbPolyline
 90
3
 70
1
 10
13.66
 20
29.82
 10
13.84
 20
29.82
 10
13.75
 20
30.0
  0
CIRCLE
  5
123
330
17
100
AcDbEntity
  8
A-THIN
100
AcDbCircle
 10
13.75
 20
28.080000000000002
 30
0.0
 40
0.05
  0
TEXT
  5
124
330
17
100
AcDbEntity
  8
A-TEXT
100
AcDbText
 10
13.75
 20
27.68
 30
0.0
 40
0.18
  1
עולה
 11
13.75
 21
27.68
 31
0.0
100
AcDbText
  0
LWPOLYLINE
  5
125
330
17
100
AcDbEntity
  8
A-THIN
100
AcDbPolyline
 90
4
 70
1
 10
14.399999999999999
 20
30.22
 10
15.499999999999998
 20
30.22
 10
15.499999999999998
 20
30.5
 10
14.399999999999999
 20
30.5
  0
LWPOLYLINE
  5
126
330
17
100
AcDbEntity
  8
A-THIN
100
AcDbPolyline
 90
4
 70
1
 10
14.399999999999999
 20
29.94
 10
15.499999999999998
 20
29.94
 10
15.499999999999998
 20
30.22
 10
14.399999999999999
 20
30.22
  0
LWPOLYLINE
  5
127
330
17
100
AcDbEntity
  8
A-THIN
100
AcDbPolyline
 90
4
 70
1
 10
14.399999999999999
 20
29.66
 10
15.499999999999998
 20
29.66
 10
15.499999999999998
 20
29.94
 10
14.399999999999999
 20
29.94
  0
LWPOLYLINE
  5
128
330
17
100
AcDbEntity
  8
A-THIN
100
AcDbPolyline
 90
4
 70
1
 10
14.399999999999999
 20
29.38
 10
15.499999999999998
 20
29.38
 10
15.499999999999998
 20
29.66
 10
14.399999999999999
 20
29.66
  0
LWPOLYLINE
  5
129
330
17
100
AcDbEntity
  8
A-THIN
100
AcDbPolyline
 90
4
 70
1
 10
14.399999999999999
 20
29.1
 10
15.499999999999998
 20
29.1
 10
15.499999999999998
 20
29.38
 10
14.399999999999999
 20
29.38
  0
LWPOLYLINE
  5
12A
330
17
100
AcDbEntity
  8
A-THIN
100
AcDbPolyline
 90
4
 70
1
 10
14.399999999999999
 20
28.82
 10
15.499999999999998
 20
28.82
 10
15.499999999999998
 20
29.1
 10
14.399999999999999
 20
29.1
  0
LWPOLYLINE
  5
12B
330
17
100
AcDbEntity
  8
A-THIN
100
AcDbPolyline
 90
4
 70
1
 10
14.399999999999999
 20
28.54
 10
15.499999999999998
 20
28.54
 10
15.499999999999998
 20
28.82
 10
14.399999999999999
 20
28.82
  0
LWPOLYLINE
  5
12C
330
17
100
AcDbEntity
  8
A-THIN
100
AcDbPolyline
 90
4
 70
1
 10
14.399999999999999
 20
28.259999999999998
 10
15.499999999999998
 20
28.259999999999998
 10
15.499999999999998
 20
28.54
 10
14.399999999999999
 20
28.54
  0
LWPOLYLINE
  5
12D
330
17
100
AcDbEntity
  8
A-THIN
100
AcDbPolyline
 90
4
 70
1
 10
14.399999999999999
 20
27.98
 10
15.499999999999998
 20
27.98
 10
15.499999999999998
 20
28.259999999999998
 10
14.399999999999999
 20
28.259999999999998
  0
LWPOLYLINE
  5
12E
330
17
100
AcDbEntity
  8
A-THIN
100
AcDbPolyline
 90
2
 70
0
 10
14.95
 20
28.080000000000002
 10
14.95
 20
30.2
  0
LWPOLYLINE
  5
12F
330
17
100
AcDbEntity
  8
A-THIN
100
AcDbPolyline
 90
3
 70
1
 10
14.86
 20
30.02
 10
15.04
 20
30.02
 10
14.95
 20
30.2
  0
TEXT
  5
130
330
17
100
AcDbEntity
  8
A-TEXT
100
AcDbText
 10
14.95
 20
27.68
 30
0.0
 40
0.18
  1
יורד
 11
14.95
 21
27.68
 31
0.0
100
AcDbText
  0
LINE
  5
131
330
17
100
AcDbEntity
  8
A-MAIN
100
AcDbLine
 10
14.35
 20
27.98
 30
0.0
 11
14.35
 21
30.5
 31
0.0
  0
LWPOLYLINE
  5
132
330
17
100
AcDbEntity
  8
A-THIN
100
AcDbPolyline
 90
4
 70
1
 10
15.95
 20
29.979999999999997
 10
17.25
 20
29.979999999999997
 10
17.25
 20
31.65
 10
15.95
 20
31.65
  0
LINE
  5
133
330
17
100
AcDbEntity
  8
A-THIN
100
AcDbLine
 10
15.95
 20
29.979999999999997
 30
0.0
 11
17.25
 21
31.65
 31
0.0
  0
LINE
  5
134
330
17
100
AcDbEntity
  8
A-THIN
100
AcDbLine
 10
17.25
 20
29.979999999999997
 30
0.0
 11
15.95
 21
31.65
 31
0.0
  0
TEXT
  5
135
330
17
100
AcDbEntity
  8
A-TEXT
100
AcDbText
 10
16.6
 20
31.049999999999997
 30
0.0
 40
0.18
  1
מעלית
 11
16.6
 21
31.049999999999997
 31
0.0
100
AcDbText
  0
LWPOLYLINE
  5
136
330
17
100
AcDbEntity
  8
A-THIN
100
AcDbPolyline
 90
5
 70
1
 10
25.0
 20
21.0
 10
25.0
 20
21.200000000000003
 10
13.0
 20
21.200000000000003
 10
13.0
 20
21.0
 10
25.0
 20
21.0
  0
LWPOLYLINE
  5
137
330
17
100
AcDbEntity
  8
A-THIN
100
AcDbPolyline
 90
5
 70
1
 10
25.0
 20
21.0
 10
25.0
 20
25.0
 10
24.799999999999997
 20
25.0
 10
24.799999999999997
 20
21.0
 10
25.0
 20
21.0
  0
HATCH
  5
138
330
17
100
AcDbEntity
  8
A-HATCH
 62
7
100
AcDbHatch
 10
0.0
 20
0.0
 30
0.0
210
0.0
220
0.0
230
1.0
  2
ANSI31
 70
0
 71
0
 91
1
 92
3
 72
0
 73
1
 93
5
 10
13.0
 20
16.299999999999997
 10
13.0
 20
16.099999999999998
 10
12.7
 20
16.099999999999998
 10
12.7
 20
16.299999999999997
 10
13.0
 20
16.299999999999997
 97
0
 75
1
 76
1
 52
0.0
 41
0.25
 77
0
 78
1
 53
45.0
 43
0.0
 44
0.0
 45
-0.5612660076
 46
0.5612660076
 79
0
 98
0
  0
HATCH
  5
139
330
17
100
AcDbEntity
  8
A-HATCH
 62
7
100
AcDbHatch
 10
0.0
 20
0.0
 30
0.0
210
0.0
220
0.0
230
1.0
  2
ANSI31
 70
0
 71
0
 91
1
 92
3
 72
0
 73
1
 93
5
 10
6.0
 20
16.099999999999998
 10
6.0
 20
16.299999999999997
 10
6.3
 20
16.299999999999997
 10
6.3
 20
16.099999999999998
 10
6.0
 20
16.099999999999998
 97
0
 75
1
 76
1
 52
0.0
 41
0.25
 77
0
 78
1
 53
45.0
 43
0.0
 44
0.0
 45
-0.5612660076
 46
0.5612660076
 79
0
 98
0
  0
LWPOLYLINE
  5
13A
330
17
100
AcDbEntity
  8
A-THIN
100
AcDbPolyline
 90
5
 70
1
 10
13.0
 20
16.099999999999998
 10
13.0
 20
15.999999999999998
 10
12.7
 20
15.999999999999998
 10
12.7
 20
16.099999999999998
 10
13.0
 20
16.099999999999998
  0
LWPOLYLINE
  5
13B
330
17
100
AcDbEntity
  8
A-THIN
100
AcDbPolyline
 90
5
 70
1
 10
6.0
 20
15.999999999999998
 10
6.0
 20
16.099999999999998
 10
6.3
 20
16.099999999999998
 10
6.3
 20
15.999999999999998
 10
6.0
 20
15.999999999999998
  0
HATCH
  5
13C
330
17
100
AcDbEntity
  8
A-HATCH
 62
7
100
AcDbHatch
 10
0.0
 20
0.0
 30
0.0
210
0.0
220
0.0
230
1.0
  2
ANSI31
 70
0
 71
0
 91
1
 92
3
 72
0
 73
1
 93
5
 10
12.7
 20
15.999999999999998
 10
12.7
 20
18.0
 10
12.9
 20
18.0
 10
12.9
 20
15.999999999999998
 10
12.7
 20
15.999999999999998
 97
0
 75
1
 76
1
 52
0.0
 41
0.25
 77
0
 78
1
 53
45.0
 43
0.0
 44
0.0
 45
-0.5612660076
 46
0.5612660076
 79
0
 98
0
  0
HATCH
  5
13D
330
17
100
AcDbEntity
  8
A-HATCH
 62
7
100
AcDbHatch
 10
0.0
 20
0.0
 30
0.0
210
0.0
220
0.0
230
1.0
  2
ANSI31
 70
0
 71
0
 91
1
 92
3
 72
0
 73
1
 93
5
 10
12.9
 20
25.299999999999997
 10
12.9
 20
24.8
 10
12.7
 20
24.8
 10
12.7
 20
25.299999999999997
 10
12.9
 20
25.299999999999997
 97
0
 75
1
 76
1
 52
0.0
 41
0.25
 77
0
 78
1
 53
45.0
 43
0.0
 44
0.0
 45
-0.5612660076
 46
0.5612660076
 79
0
 98
0
  0
HATCH
  5
13E
330
17
100
AcDbEntity
  8
A-HATCH
 62
7
100
AcDbHatch
 10
0.0
 20
0.0
 30
0.0
210
0.0
220
0.0
230
1.0
  2
ANSI31
 70
0
 71
0
 91
1
 92
3
 72
0
 73
1
 93
5
 10
12.9
 20
21.3
 10
12.7
 20
21.3
 10
12.7
 20
22.1
 10
12.9
 20
22.1
 10
12.9
 20
21.3
 97
0
 75
1
 76
1
 52
0.0
 41
0.25
 77
0
 78
1
 53
45.0
 43
0.0
 44
0.0
 45
-0.5612660076
 46
0.5612660076
 79
0
 98
0
  0
LWPOLYLINE
  5
13F
330
17
100
AcDbEntity
  8
A-THIN
100
AcDbPolyline
 90
5
 70
1
 10
12.9
 20
15.999999999999998
 10
12.9
 20
18.0
 10
13.0
 20
18.0
 10
13.0
 20
15.999999999999998
 10
12.9
 20
15.999999999999998
  0
LWPOLYLINE
  5
140
330
17
100
AcDbEntity
  8
A-THIN
100
AcDbPolyline
 90
5
 70
1
 10
13.0
 20
25.299999999999997
 10
13.0
 20
24.8
 10
12.9
 20
24.8
 10
12.9
 20
25.299999999999997
 10
13.0
 20
25.299999999999997
  0
LWPOLYLINE
  5
141
330
17
100
AcDbEntity
  8
A-THIN
100
AcDbPolyline
 90
5
 70
1
 10
13.0
 20
21.3
 10
12.9
 20
21.3
 10
12.9
 20
22.1
 10
13.0
 20
22.1
 10
13.0
 20
21.3
  0
HATCH
  5
142
330
17
100
AcDbEntity
  8
A-HATCH
 62
7
100
AcDbHatch
 10
0.0
 20
0.0
 30
0.0
210
0.0
220
0.0
230
1.0
  2
ANSI31
 70
0
 71
0
 91
1
 92
3
 72
0
 73
1
 93
5
 10
24.4
 20
25.099999999999998
 10
24.4
 20
25.299999999999997
 10
25.0
 20
25.299999999999997
 10
25.0
 20
25.099999999999998
 10
24.4
 20
25.099999999999998
 97
0
 75
1
 76
1
 52
0.0
 41
0.25
 77
0
 78
1
 53
45.0
 43
0.0
 44
0.0
 45
-0.5612660076
 46
0.5612660076
 79
0
 98
0
  0
HATCH
  5
143
330
17
100
AcDbEntity
  8
A-HATCH
 62
7
100
AcDbHatch
 10
0.0
 20
0.0
 30
0.0
210
0.0
220
0.0
230
1.0
  2
ANSI31
 70
0
 71
0
 91
1
 92
3
 72
0
 73
1
 93
5
 10
19.4
 20
25.099999999999998
 10
19.4
 20
25.299999999999997
 10
20.0
 20
25.299999999999997
 10
20.0
 20
25.099999999999998
 10
19.4
 20
25.099999999999998
 97
0
 75
1
 76
1
 52
0.0
 41
0.25
 77
0
 78
1
 53
45.0
 43
0.0
 44
0.0
 45
-0.5612660076
 46
0.5612660076
 79
0
 98
0
  0
HATCH
  5
144
330
17
100
AcDbEntity
  8
A-HATCH
 62
7
100
AcDbHatch
 10
0.0
 20
0.0
 30
0.0
210
0.0
220
0.0
230
1.0
  2
ANSI31
 70
0
 71
0
 91
1
 92
3
 72
0
 73
1
 93
5
 10
15.5
 20
25.299999999999997
 10
15.8
 20
25.299999999999997
 10
15.8
 20
25.099999999999998
 10
15.5
 20
25.099999999999998
 10
15.5
 20
25.299999999999997
 97
0
 75
1
 76
1
 52
0.0
 41
0.25
 77
0
 78
1
 53
45.0
 43
0.0
 44
0.0
 45
-0.5612660076
 46
0.5612660076
 79
0
 98
0
  0
HATCH
  5
145
330
17
100
AcDbEntity
  8
A-HATCH
 62
7
100
AcDbHatch
 10
0.0
 20
0.0
 30
0.0
210
0.0
220
0.0
230
1.0
  2
ANSI31
 70
0
 71
0
 91
1
 92
3
 72
0
 73
1
 93
5
 10
13.4
 20
25.299999999999997
 10
13.4
 20
25.099999999999998
 10
12.7
 20
25.099999999999998
 10
12.7
 20
25.299999999999997
 10
13.4
 20
25.299999999999997
 97
0
 75
1
 76
1
 52
0.0
 41
0.25
 77
0
 78
1
 53
45.0
 43
0.0
 44
0.0
 45
-0.5612660076
 46
0.5612660076
 79
0
 98
0
  0
LWPOLYLINE
  5
146
330
17
100
AcDbEntity
  8
A-THIN
100
AcDbPolyline
 90
5
 70
1
 10
24.4
 20
25.0
 10
24.4
 20
25.099999999999998
 10
25.0
 20
25.099999999999998
 10
25.0
 20
25.0
 10
24.4
 20
25.0
  0
LWPOLYLINE
  5
147
330
17
100
AcDbEntity
  8
A-THIN
100
AcDbPolyline
 90
5
 70
1
 10
19.4
 20
25.0
 10
19.4
 20
25.099999999999998
 10
20.0
 20
25.099999999999998
 10
20.0
 20
25.0
 10
19.4
 20
25.0
  0
LWPOLYLINE
  5
148
330
17
100
AcDbEntity
  8
A-THIN
100
AcDbPolyline
 90
5
 70
1
 10
15.5
 20
25.099999999999998
 10
15.8
 20
25.099999999999998
 10
15.8
 20
25.0
 10
15.5
 20
25.0
 10
15.5
 20
25.099999999999998
  0
LWPOLYLINE
  5
149
330
17
100
AcDbEntity
  8
A-THIN
100
AcDbPolyline
 90
5
 70
1
 10
13.4
 20
25.099999999999998
 10
13.4
 20
25.0
 10
12.7
 20
25.0
 10
12.7
 20
25.099999999999998
 10
13.4
 20
25.099999999999998
  0
HATCH
  5
14A
330
17
100
AcDbEntity
  8
A-HATCH
 62
7
100
AcDbHatch
 10
0.0
 20
0.0
 30
0.0
210
0.0
220
0.0
230
1.0
  2
ANSI31
 70
0
 71
0
 91
1
 92
3
 72
0
 73
1
 93
5
 10
24.900000000000002
 20
25.0
 10
24.700000000000003
 20
25.0
 10
24.700000000000003
 20
25.7
 10
24.900000000000002
 20
25.7
 10
24.900000000000002
 20
25.0
 97
0
 75
1
 76
1
 52
0.0
 41
0.25
 77
0
 78
1
 53
45.0
 43
0.0
 44
0.0
 45
-0.5612660076
 46
0.5612660076
 79
0
 98
0
  0
HATCH
  5
14B
330
17
100
AcDbEntity
  8
A-HATCH
 62
7
100
AcDbHatch
 10
0.0
 20
0.0
 30
0.0
210
0.0
220
0.0
230
1.0
  2
ANSI31
 70
0
 71
0
 91
1
 92
3
 72
0
 73
1
 93
5
 10
24.700000000000003
 20
32.0
 10
24.900000000000002
 20
32.0
 10
24.900000000000002
 20
28.7
 10
24.700000000000003
 20
28.7
 10
24.700000000000003
 20
32.0
 97
0
 75
1
 76
1
 52
0.0
 41
0.25
 77
0
 78
1
 53
45.0
 43
0.0
 44
0.0
 45
-0.5612660076
 46
0.5612660076
 79
0
 98
0
  0
LWPOLYLINE
  5
14C
330
17
100
AcDbEntity
  8
A-THIN
100
AcDbPolyline
 90
5
 70
1
 10
25.0
 20
25.0
 10
24.900000000000002
 20
25.0
 10
24.900000000000002
 20
25.7
 10
25.0
 20
25.7
 10
25.0
 20
25.0
  0
LWPOLYLINE
  5
14D
330
17
100
AcDbEntity
  8
A-THIN
100
AcDbPolyline
 90
5
 70
1
 10
24.900000000000002
 20
32.0
 10
25.0
 20
32.0
 10
25.0
 20
28.7
 10
24.900000000000002
 20
28.7
 10
24.900000000000002
 20
32.0
  0
HATCH
  5
14E
330
17
100
AcDbEntity
  8
A-HATCH
 62
7
100
AcDbHatch
 10
0.0
 20
0.0
 30
0.0
210
0.0
220
0.0
230
1.0
  2
ANSI31
 70
0
 71
0
 91
1
 92
3
 72
0
 73
1
 93
5
 10
19.2
 20
31.900000000000002
 10
22.3
 20
31.900000000000002
 10
22.3
 20
31.700000000000003
 10
19.2
 20
31.700000000000003
 10
19.2
 20
31.900000000000002
 97
0
 75
1
 76
1
 52
0.0
 41
0.25
 77
0
 78
1
 53
45.0
 43
0.0
 44
0.0
 45
-0.5612660076
 46
0.5612660076
 79
0
 98
0
  0
HATCH
  5
14F
330
17
100
AcDbEntity
  8
A-HATCH
 62
7
100
AcDbHatch
 10
0.0
 20
0.0
 30
0.0
210
0.0
220
0.0
230
1.0
  2
ANSI31
 70
0
 71
0
 91
1
 92
3
 72
0
 73
1
 93
5
 10
25.0
 20
31.900000000000002
 10
25.0
 20
31.700000000000003
 10
24.2
 20
31.700000000000003
 10
24.2
 20
31.900000000000002
 10
25.0
 20
31.900000000000002
 97
0
 75
1
 76
1
 52
0.0
 41
0.25
 77
0
 78
1
 53
45.0
 43
0.0
 44
0.0
 45
-0.5612660076
 46
0.5612660076
 79
0
 98
0
  0
HATCH
  5
150
330
17
100
AcDbEntity
  8
A-HATCH
 62
7
100
AcDbHatch
 10
0.0
 20
0.0
 30
0.0
210
0.0
220
0.0
230
1.0
  2
ANSI31
 70
0
 71
0
 91
1
 92
3
 72
0
 73
1
 93
5
 10
15.3
 20
31.900000000000002
 10
17.9
 20
31.900000000000002
 10
17.9
 20
31.700000000000003
 10
15.3
 20
31.700000000000003
 10
15.3
 20
31.900000000000002
 97
0
 75
1
 76
1
 52
0.0
 41
0.25
 77
0
 78
1
 53
45.0
 43
0.0
 44
0.0
 45
-0.5612660076
 46
0.5612660076
 79
0
 98
0
  0
HATCH
  5
151
330
17
100
AcDbEntity
  8
A-HATCH
 62
7
100
AcDbHatch
 10
0.0
 20
0.0
 30
0.0
210
0.0
220
0.0
230
1.0
  2
ANSI31
 70
0
 71
0
 91
1
 92
3
 72
0
 73
1
 93
5
 10
13.4
 20
31.900000000000002
 10
13.4
 20
31.700000000000003
 10
12.7
 20
31.700000000000003
 10
12.7
 20
31.900000000000002
 10
13.4
 20
31.900000000000002
 97
0
 75
1
 76
1
 52
0.0
 41
0.25
 77
0
 78
1
 53
45.0
 43
0.0
 44
0.0
 45
-0.5612660076
 46
0.5612660076
 79
0
 98
0
  0
HATCH
  5
152
330
17
100
AcDbEntity
  8
A-HATCH
 62
7
100
AcDbHatch
 10
0.0
 20
0.0
 30
0.0
210
0.0
220
0.0
230
1.0
  2
ANSI31
 70
0
 71
0
 91
1
 92
3
 72
0
 73
1
 93
5
 10
11.7
 20
31.700000000000003
 10
6.0
 20
31.700000000000003
 10
6.0
 20
31.900000000000002
 10
11.7
 20
31.900000000000002
 10
11.7
 20
31.700000000000003
 97
0
 75
1
 76
1
 52
0.0
 41
0.25
 77
0
 78
1
 53
45.0
 43
0.0
 44
0.0
 45
-0.5612660076
 46
0.5612660076
 79
0
 98
0
  0
LWPOLYLINE
  5
153
330
17
100
AcDbEntity
  8
A-THIN
100
AcDbPolyline
 90
5
 70
1
 10
19.2
 20
32.0
 10
22.3
 20
32.0
 10
22.3
 20
31.900000000000002
 10
19.2
 20
31.900000000000002
 10
19.2
 20
32.0
  0
LWPOLYLINE
  5
154
330
17
100
AcDbEntity
  8
A-THIN
100
AcDbPolyline
 90
5
 70
1
 10
25.0
 20
32.0
 10
25.0
 20
31.900000000000002
 10
24.2
 20
31.900000000000002
 10
24.2
 20
32.0
 10
25.0
 20
32.0
  0
LWPOLYLINE
  5
155
330
17
100
AcDbEntity
  8
A-THIN
100
AcDbPolyline
 90
5
 70
1
 10
15.3
 20
32.0
 10
17.9
 20
32.0
 10
17.9
 20
31.900000000000002
 10
15.3
 20
31.900000000000002
 10
15.3
 20
32.0
  0
LWPOLYLINE
  5
156
330
17
100
AcDbEntity
  8
A-THIN
100
AcDbPolyline
 90
5
 70
1
 10
13.4
 20
32.0
 10
13.4
 20
31.900000000000002
 10
12.7
 20
31.900000000000002
 10
12.7
 20
32.0
 10
13.4
 20
32.0
  0
LWPOLYLINE
  5
157
330
17
100
AcDbEntity
  8
A-THIN
100
AcDbPolyline
 90
5
 70
1
 10
11.7
 20
31.900000000000002
 10
6.0
 20
31.900000000000002
 10
6.0
 20
32.0
 10
11.7
 20
32.0
 10
11.7
 20
31.900000000000002
  0
HATCH
  5
158
330
17
100
AcDbEntity
  8
A-HATCH
 62
7
100
AcDbHatch
 10
0.0
 20
0.0
 30
0.0
210
0.0
220
0.0
230
1.0
  2
ANSI31
 70
0
 71
0
 91
1
 92
3
 72
0
 73
1
 93
5
 10
6.300000000000001
 20
17.9
 10
6.300000000000001
 20
15.999999999999998
 10
6.1000000000000005
 20
15.999999999999998
 10
6.1000000000000005
 20
17.9
 10
6.300000000000001
 20
17.9
 97
0
 75
1
 76
1
 52
0.0
 41
0.25
 77
0
 78
1
 53
45.0
 43
0.0
 44
0.0
 45
-0.5612660076
 46
0.5612660076
 79
0
 98
0
  0
HATCH
  5
159
330
17
100
AcDbEntity
  8
A-HATCH
 62
7
100
AcDbHatch
 10
0.0
 20
0.0
 30
0.0
210
0.0
220
0.0
230
1.0
  2
ANSI31
 70
0
 71
0
 91
1
 92
3
 72
0
 73
1
 93
5
 10
6.1000000000000005
 20
26.75
 10
6.1000000000000005
 20
28.6
 10
6.300000000000001
 20
28.6
 10
6.300000000000001
 20
26.75
 10
6.1000000000000005
 20
26.75
 97
0
 75
1
 76
1
 52
0.0
 41
0.25
 77
0
 78
1
 53
45.0
 43
0.0
 44
0.0
 45
-0.5612660076
 46
0.5612660076
 79
0
 98
0
  0
HATCH
  5
15A
330
17
100
AcDbEntity
  8
A-HATCH
 62
7
100
AcDbHatch
 10
0.0
 20
0.0
 30
0.0
210
0.0
220
0.0
230
1.0
  2
ANSI31
 70
0
 71
0
 91
1
 92
3
 72
0
 73
1
 93
5
 10
6.1000000000000005
 20
32.0
 10
6.300000000000001
 20
32.0
 10
6.300000000000001
 20
29.6
 10
6.1000000000000005
 20
29.6
 10
6.1000000000000005
 20
32.0
 97
0
 75
1
 76
1
 52
0.0
 41
0.25
 77
0
 78
1
 53
45.0
 43
0.0
 44
0.0
 45
-0.5612660076
 46
0.5612660076
 79
0
 98
0
  0
HATCH
  5
15B
330
17
100
AcDbEntity
  8
A-HATCH
 62
7
100
AcDbHatch
 10
0.0
 20
0.0
 30
0.0
210
0.0
220
0.0
230
1.0
  2
ANSI31
 70
0
 71
0
 91
1
 92
3
 72
0
 73
1
 93
5
 10
6.1000000000000005
 20
24.6
 10
6.1000000000000005
 20
25.5
 10
6.300000000000001
 20
25.5
 10
6.300000000000001
 20
24.6
 10
6.1000000000000005
 20
24.6
 97
0
 75
1
 76
1
 52
0.0
 41
0.25
 77
0
 78
1
 53
45.0
 43
0.0
 44
0.0
 45
-0.5612660076
 46
0.5612660076
 79
0
 98
0
  0
HATCH
  5
15C
330
17
100
AcDbEntity
  8
A-HATCH
 62
7
100
AcDbHatch
 10
0.0
 20
0.0
 30
0.0
210
0.0
220
0.0
230
1.0
  2
ANSI31
 70
0
 71
0
 91
1
 92
3
 72
0
 73
1
 93
5
 10
6.1000000000000005
 20
22.2
 10
6.300000000000001
 20
22.2
 10
6.300000000000001
 20
21.4
 10
6.1000000000000005
 20
21.4
 10
6.1000000000000005
 20
22.2
 97
0
 75
1
 76
1
 52
0.0
 41
0.25
 77
0
 78
1
 53
45.0
 43
0.0
 44
0.0
 45
-0.5612660076
 46
0.5612660076
 79
0
 98
0
  0
LWPOLYLINE
  5
15D
330
17
100
AcDbEntity
  8
A-THIN
100
AcDbPolyline
 90
5
 70
1
 10
6.1000000000000005
 20
17.9
 10
6.1000000000000005
 20
15.999999999999998
 10
6.0
 20
15.999999999999998
 10
6.0
 20
17.9
 10
6.1000000000000005
 20
17.9
  0
LWPOLYLINE
  5
15E
330
17
100
AcDbEntity
  8
A-THIN
100
AcDbPolyline
 90
5
 70
1
 10
6.0
 20
26.75
 10
6.0
 20
28.6
 10
6.1000000000000005
 20
28.6
 10
6.1000000000000005
 20
26.75
 10
6.0
 20
26.75
  0
LWPOLYLINE
  5
15F
330
17
100
AcDbEntity
  8
A-THIN
100
AcDbPolyline
 90
5
 70
1
 10
6.0
 20
32.0
 10
6.1000000000000005
 20
32.0
 10
6.1000000000000005
 20
29.6
 10
6.0
 20
29.6
 10
6.0
 20
32.0
  0
LWPOLYLINE
  5
160
330
17
100
AcDbEntity
  8
A-THIN
100
AcDbPolyline
 90
5
 70
1
 10
6.0
 20
24.6
 10
6.0
 20
25.5
 10
6.1000000000000005
 20
25.5
 10
6.1000000000000005
 20
24.6
 10
6.0
 20
24.6
  0
LWPOLYLINE
  5
161
330
17
100
AcDbEntity
  8
A-THIN
100
AcDbPolyline
 90
5
 70
1
 10
6.0
 20
22.2
 10
6.1000000000000005
 20
22.2
 10
6.1000000000000005
 20
21.4
 10
6.0
 20
21.4
 10
6.0
 20
22.2
  0
HATCH
  5
162
330
17
100
AcDbEntity
  8
A-HATCH
 62
7
100
AcDbHatch
 10
0.0
 20
0.0
 30
0.0
210
0.0
220
0.0
230
1.0
  2
ANSI37
 70
0
 71
0
 91
1
 92
3
 72
0
 73
1
 93
5
 10
12.7
 20
17.700000000000003
 10
12.7
 20
17.5
 10
12.6
 20
17.5
 10
12.6
 20
17.700000000000003
 10
12.7
 20
17.700000000000003
 97
0
 75
1
 76
1
 52
0.0
 41
0.2
 77
0
 78
2
 53
45.0
 43
0.0
 44
0.0
 45
-0.4490128061
 46
0.4490128061
 79
0
 53
135.0
 43
0.0
 44
0.0
 45
-0.4490128061
 46
-0.4490128061
 79
0
 98
0
  0
HATCH
  5
163
330
17
100
AcDbEntity
  8
A-HATCH
 62
7
100
AcDbHatch
 10
0.0
 20
0.0
 30
0.0
210
0.0
220
0.0
230
1.0
  2
ANSI37
 70
0
 71
0
 91
1
 92
3
 72
0
 73
1
 93
5
 10
6.3
 20
17.5
 10
6.3
 20
17.700000000000003
 10
6.4
 20
17.700000000000003
 10
6.4
 20
17.5
 10
6.3
 20
17.5
 97
0
 75
1
 76
1
 52
0.0
 41
0.2
 77
0
 78
2
 53
45.0
 43
0.0
 44
0.0
 45
-0.4490128061
 46
0.4490128061
 79
0
 53
135.0
 43
0.0
 44
0.0
 45
-0.4490128061
 46
-0.4490128061
 79
0
 98
0
  0
HATCH
  5
164
330
17
100
AcDbEntity
  8
A-HATCH
 62
7
100
AcDbHatch
 10
0.0
 20
0.0
 30
0.0
210
0.0
220
0.0
230
1.0
  2
ANSI37
 70
0
 71
0
 91
1
 92
3
 72
0
 73
1
 93
5
 10
12.7
 20
21.72
 10
12.7
 20
21.6
 10
12.4
 20
21.6
 10
12.4
 20
21.72
 10
12.7
 20
21.72
 97
0
 75
1
 76
1
 52
0.0
 41
0.2
 77
0
 78
2
 53
45.0
 43
0.0
 44
0.0
 45
-0.4490128061
 46
0.4490128061
 79
0
 53
135.0
 43
0.0
 44
0.0
 45
-0.4490128061
 46
-0.4490128061
 79
0
 98
0
  0
HATCH
  5
165
330
17
100
AcDbEntity
  8
A-HATCH
 62
7
100
AcDbHatch
 10
0.0
 20
0.0
 30
0.0
210
0.0
220
0.0
230
1.0
  2
ANSI37
 70
0
 71
0
 91
1
 92
3
 72
0
 73
1
 93
5
 10
6.3
 20
21.6
 10
6.3
 20
21.72
 10
10.6
 20
21.72
 10
10.6
 20
21.6
 10
6.3
 20
21.6
 97
0
 75
1
 76
1
 52
0.0
 41
0.2
 77
0
 78
2
 53
45.0
 43
0.0
 44
0.0
 45
-0.4490128061
 46
0.4490128061
 79
0
 53
135.0
 43
0.0
 44
0.0
 45
-0.4490128061
 46
-0.4490128061
 79
0
 98
0
  0
HATCH
  5
166
330
17
100
AcDbEntity
  8
A-HATCH
 62
7
100
AcDbHatch
 10
0.0
 20
0.0
 30
0.0
210
0.0
220
0.0
230
1.0
  2
ANSI37
 70
0
 71
0
 91
1
 92
3
 72
0
 73
1
 93
5
 10
9.620000000000001
 20
21.72
 10
9.5
 20
21.72
 10
9.5
 20
22.4
 10
9.620000000000001
 20
22.4
 10
9.620000000000001
 20
21.72
 97
0
 75
1
 76
1
 52
0.0
 41
0.2
 77
0
 78
2
 53
45.0
 43
0.0
 44
0.0
 45
-0.4490128061
 46
0.4490128061
 79
0
 53
135.0
 43
0.0
 44
0.0
 45
-0.4490128061
 46
-0.4490128061
 79
0
 98
0
  0
HATCH
  5
167
330
17
100
AcDbEntity
  8
A-HATCH
 62
7
100
AcDbHatch
 10
0.0
 20
0.0
 30
0.0
210
0.0
220
0.0
230
1.0
  2
ANSI37
 70
0
 71
0
 91
1
 92
3
 72
0
 73
1
 93
5
 10
9.5
 20
25.24
 10
9.620000000000001
 20
25.24
 10
9.620000000000001
 20
23.3
 10
9.5
 20
23.3
 10
9.5
 20
25.24
 97
0
 75
1
 76
1
 52
0.0
 41
0.2
 77
0
 78
2
 53
45.0
 43
0.0
 44
0.0
 45
-0.4490128061
 46
0.4490128061
 79
0
 53
135.0
 43
0.0
 44
0.0
 45
-0.4490128061
 46
-0.4490128061
 79
0
 98
0
  0
HATCH
  5
168
330
17
100
AcDbEntity
  8
A-HATCH
 62
7
100
AcDbHatch
 10
0.0
 20
0.0
 30
0.0
210
0.0
220
0.0
230
1.0
  2
ANSI37
 70
0
 71
0
 91
1
 92
3
 72
0
 73
1
 93
5
 10
13.3
 20
25.36
 10
13.3
 20
25.240000000000002
 10
12.4
 20
25.240000000000002
 10
12.4
 20
25.36
 10
13.3
 20
25.36
 97
0
 75
1
 76
1
 52
0.0
 41
0.2
 77
0
 78
2
 53
45.0
 43
0.0
 44
0.0
 45
-0.4490128061
 46
0.4490128061
 79
0
 53
135.0
 43
0.0
 44
0.0
 45
-0.4490128061
 46
-0.4490128061
 79
0
 98
0
  0
HATCH
  5
169
330
17
100
AcDbEntity
  8
A-HATCH
 62
7
100
AcDbHatch
 10
0.0
 20
0.0
 30
0.0
210
0.0
220
0.0
230
1.0
  2
ANSI37
 70
0
 71
0
 91
1
 92
3
 72
0
 73
1
 93
5
 10
6.3
 20
25.240000000000002
 10
6.3
 20
25.36
 10
11.5
 20
25.36
 10
11.5
 20
25.240000000000002
 10
6.3
 20
25.240000000000002
 97
0
 75
1
 76
1
 52
0.0
 41
0.2
 77
0
 78
2
 53
45.0
 43
0.0
 44
0.0
 45
-0.4490128061
 46
0.4490128061
 79
0
 53
135.0
 43
0.0
 44
0.0
 45
-0.4490128061
 46
-0.4490128061
 79
0
 98
0
  0
HATCH
  5
16A
330
17
100
AcDbEntity
  8
A-HATCH
 62
7
100
AcDbHatch
 10
0.0
 20
0.0
 30
0.0
210
0.0
220
0.0
230
1.0
  2
ANSI37
 70
0
 71
0
 91
1
 92
3
 72
0
 73
1
 93
5
 10
13.12
 20
27.02
 10
13.12
 20
26.900000000000002
 10
12.2
 20
26.900000000000002
 10
12.2
 20
27.02
 10
13.12
 20
27.02
 97
0
 75
1
 76
1
 52
0.0
 41
0.2
 77
0
 78
2
 53
45.0
 43
0.0
 44
0.0
 45
-0.4490128061
 46
0.4490128061
 79
0
 53
135.0
 43
0.0
 44
0.0
 45
-0.4490128061
 46
-0.4490128061
 79
0
 98
0
  0
HATCH
  5
16B
330
17
100
AcDbEntity
  8
A-HATCH
 62
7
100
AcDbHatch
 10
0.0
 20
0.0
 30
0.0
210
0.0
220
0.0
230
1.0
  2
ANSI37
 70
0
 71
0
 91
1
 92
3
 72
0
 73
1
 93
5
 10
6.3
 20
26.900000000000002
 10
6.3
 20
27.02
 10
11.4
 20
27.02
 10
11.4
 20
26.900000000000002
 10
6.3
 20
26.900000000000002
 97
0
 75
1
 76
1
 52
0.0
 41
0.2
 77
0
 78
2
 53
45.0
 43
0.0
 44
0.0
 45
-0.4490128061
 46
0.4490128061
 79
0
 53
135.0
 43
0.0
 44
0.0
 45
-0.4490128061
 46
-0.4490128061
 79
0
 98
0
  0
HATCH
  5
16C
330
17
100
AcDbEntity
  8
A-HATCH
 62
7
100
AcDbHatch
 10
0.0
 20
0.0
 30
0.0
210
0.0
220
0.0
230
1.0
  2
ANSI31
 70
0
 71
0
 91
1
 92
3
 72
0
 73
1
 93
5
 10
11.200000000000001
 20
26.96
 10
11.200000000000001
 20
31.7
 10
10.9
 20
31.7
 10
10.9
 20
26.96
 10
11.200000000000001
 20
26.96
 97
0
 75
1
 76
1
 52
0.0
 41
0.4
 77
0
 78
1
 53
45.0
 43
0.0
 44
0.0
 45
-0.8980256121
 46
0.8980256121
 79
0
 98
0
  0
HATCH
  5
16D
330
17
100
AcDbEntity
  8
A-HATCH
 62
7
100
AcDbHatch
 10
0.0
 20
0.0
 30
0.0
210
0.0
220
0.0
230
1.0
  2
ANSI31
 70
0
 71
0
 91
1
 92
3
 72
0
 73
1
 93
5
 10
10.9
 20
27.259999999999998
 10
10.9
 20
26.96
 10
9.8
 20
26.96
 10
9.8
 20
27.259999999999998
 10
10.9
 20
27.259999999999998
 97
0
 75
1
 76
1
 52
0.0
 41
0.4
 77
0
 78
1
 53
45.0
 43
0.0
 44
0.0
 45
-0.8980256121
 46
0.8980256121
 79
0
 98
0
  0
HATCH
  5
16E
330
17
100
AcDbEntity
  8
A-HATCH
 62
7
100
AcDbHatch
 10
0.0
 20
0.0
 30
0.0
210
0.0
220
0.0
230
1.0
  2
ANSI31
 70
0
 71
0
 91
1
 92
3
 72
0
 73
1
 93
5
 10
6.3
 20
26.96
 10
6.3
 20
27.259999999999998
 10
9.0
 20
27.259999999999998
 10
9.0
 20
26.96
 10
6.3
 20
26.96
 97
0
 75
1
 76
1
 52
0.0
 41
0.4
 77
0
 78
1
 53
45.0
 43
0.0
 44
0.0
 45
-0.8980256121
 46
0.8980256121
 79
0
 98
0
  0
HATCH
  5
16F
330
17
100
AcDbEntity
  8
A-HATCH
 62
7
100
AcDbHatch
 10
0.0
 20
0.0
 30
0.0
210
0.0
220
0.0
230
1.0
  2
ANSI37
 70
0
 71
0
 91
1
 92
3
 72
0
 73
1
 93
5
 10
13.120000000000001
 20
26.96
 10
13.120000000000001
 20
31.7
 10
13.0
 20
31.7
 10
13.0
 20
26.96
 10
13.120000000000001
 20
26.96
 97
0
 75
1
 76
1
 52
0.0
 41
0.2
 77
0
 78
2
 53
45.0
 43
0.0
 44
0.0
 45
-0.4490128061
 46
0.4490128061
 79
0
 53
135.0
 43
0.0
 44
0.0
 45
-0.4490128061
 46
-0.4490128061
 79
0
 98
0
  0
HATCH
  5
170
330
17
100
AcDbEntity
  8
A-HATCH
 62
7
100
AcDbHatch
 10
0.0
 20
0.0
 30
0.0
210
0.0
220
0.0
230
1.0
  2
ANSI37
 70
0
 71
0
 91
1
 92
3
 72
0
 73
1
 93
5
 10
17.619999999999997
 20
29.7
 10
17.619999999999997
 20
31.7
 10
17.5
 20
31.7
 10
17.5
 20
29.7
 10
17.619999999999997
 20
29.7
 97
0
 75
1
 76
1
 52
0.0
 41
0.2
 77
0
 78
2
 53
45.0
 43
0.0
 44
0.0
 45
-0.4490128061
 46
0.4490128061
 79
0
 53
135.0
 43
0.0
 44
0.0
 45
-0.4490128061
 46
-0.4490128061
 79
0
 98
0
  0
HATCH
  5
171
330
17
100
AcDbEntity
  8
A-HATCH
 62
7
100
AcDbHatch
 10
0.0
 20
0.0
 30
0.0
210
0.0
220
0.0
230
1.0
  2
ANSI37
 70
0
 71
0
 91
1
 92
3
 72
0
 73
1
 93
5
 10
19.72
 20
25.3
 10
19.6
 20
25.3
 10
19.6
 20
26.0
 10
19.72
 20
26.0
 10
19.72
 20
25.3
 97
0
 75
1
 76
1
 52
0.0
 41
0.2
 77
0
 78
2
 53
45.0
 43
0.0
 44
0.0
 45
-0.4490128061
 46
0.4490128061
 79
0
 53
135.0
 43
0.0
 44
0.0
 45
-0.4490128061
 46
-0.4490128061
 79
0
 98
0
  0
HATCH
  5
172
330
17
100
AcDbEntity
  8
A-HATCH
 62
7
100
AcDbHatch
 10
0.0
 20
0.0
 30
0.0
210
0.0
220
0.0
230
1.0
  2
ANSI37
 70
0
 71
0
 91
1
 92
3
 72
0
 73
1
 93
5
 10
19.6
 20
31.7
 10
19.72
 20
31.7
 10
19.72
 20
26.9
 10
19.6
 20
26.9
 10
19.6
 20
31.7
 97
0
 75
1
 76
1
 52
0.0
 41
0.2
 77
0
 78
2
 53
45.0
 43
0.0
 44
0.0
 45
-0.4490128061
 46
0.4490128061
 79
0
 53
135.0
 43
0.0
 44
0.0
 45
-0.4490128061
 46
-0.4490128061
 79
0
 98
0
  0
HATCH
  5
173
330
17
100
AcDbEntity
  8
A-HATCH
 62
7
100
AcDbHatch
 10
0.0
 20
0.0
 30
0.0
210
0.0
220
0.0
230
1.0
  2
ANSI37
 70
0
 71
0
 91
1
 92
3
 72
0
 73
1
 93
5
 10
19.66
 20
29.7
 10
19.66
 20
29.580000000000002
 10
19.1
 20
29.580000000000002
 10
19.1
 20
29.7
 10
19.66
 20
29.7
 97
0
 75
1
 76
1
 52
0.0
 41
0.2
 77
0
 78
2
 53
45.0
 43
0.0
 44
0.0
 45
-0.4490128061
 46
0.4490128061
 79
0
 53
135.0
 43
0.0
 44
0.0
 45
-0.4490128061
 46
-0.4490128061
 79
0
 98
0
  0
HATCH
  5
174
330
17
100
AcDbEntity
  8
A-HATCH
 62
7
100
AcDbHatch
 10
0.0
 20
0.0
 30
0.0
210
0.0
220
0.0
230
1.0
  2
ANSI37
 70
0
 71
0
 91
1
 92
3
 72
0
 73
1
 93
5
 10
17.56
 20
29.580000000000002
 10
17.56
 20
29.7
 10
18.3
 20
29.7
 10
18.3
 20
29.580000000000002
 10
17.56
 20
29.580000000000002
 97
0
 75
1
 76
1
 52
0.0
 41
0.2
 77
0
 78
2
 53
45.0
 43
0.0
 44
0.0
 45
-0.4490128061
 46
0.4490128061
 79
0
 53
135.0
 43
0.0
 44
0.0
 45
-0.4490128061
 46
-0.4490128061
 79
0
 98
0
  0
HATCH
  5
175
330
17
100
AcDbEntity
  8
A-HATCH
 62
7
100
AcDbHatch
 10
0.0
 20
0.0
 30
0.0
210
0.0
220
0.0
230
1.0
  2
ANSI37
 70
0
 71
0
 91
1
 92
3
 72
0
 73
1
 93
5
 10
24.7
 20
29.52
 10
24.7
 20
29.400000000000002
 10
24.0
 20
29.400000000000002
 10
24.0
 20
29.52
 10
24.7
 20
29.52
 97
0
 75
1
 76
1
 52
0.0
 41
0.2
 77
0
 78
2
 53
45.0
 43
0.0
 44
0.0
 45
-0.4490128061
 46
0.4490128061
 79
0
 53
135.0
 43
0.0
 44
0.0
 45
-0.4490128061
 46
-0.4490128061
 79
0
 98
0
  0
HATCH
  5
176
330
17
100
AcDbEntity
  8
A-HATCH
 62
7
100
AcDbHatch
 10
0.0
 20
0.0
 30
0.0
210
0.0
220
0.0
230
1.0
  2
ANSI37
 70
0
 71
0
 91
1
 92
3
 72
0
 73
1
 93
5
 10
19.72
 20
29.400000000000002
 10
19.72
 20
29.52
 10
23.2
 20
29.52
 10
23.2
 20
29.400000000000002
 10
19.72
 20
29.400000000000002
 97
0
 75
1
 76
1
 52
0.0
 41
0.2
 77
0
 78
2
 53
45.0
 43
0.0
 44
0.0
 45
-0.4490128061
 46
0.4490128061
 79
0
 53
135.0
 43
0.0
 44
0.0
 45
-0.4490128061
 46
-0.4490128061
 79
0
 98
0
  0
HATCH
  5
177
330
17
100
AcDbEntity
  8
A-HATCH
 62
7
100
AcDbHatch
 10
0.0
 20
0.0
 30
0.0
210
0.0
220
0.0
230
1.0
  2
ANSI31
 70
0
 71
0
 91
1
 92
3
 72
0
 73
1
 93
5
 10
15.899999999999999
 20
29.7
 10
15.899999999999999
 20
31.7
 10
15.7
 20
31.7
 10
15.7
 20
29.7
 10
15.899999999999999
 20
29.7
 97
0
 75
1
 76
1
 52
0.0
 41
0.4
 77
0
 78
1
 53
45.0
 43
0.0
 44
0.0
 45
-0.8980256121
 46
0.8980256121
 79
0
 98
0
  0
HATCH
  5
178
330
17
100
AcDbEntity
  8
A-HATCH
 62
7
100
AcDbHatch
 10
0.0
 20
0.0
 30
0.0
210
0.0
220
0.0
230
1.0
  2
ANSI31
 70
0
 71
0
 91
1
 92
3
 72
0
 73
1
 93
5
 10
17.5
 20
29.7
 10
17.5
 20
31.7
 10
17.299999999999997
 20
31.7
 10
17.299999999999997
 20
29.7
 10
17.5
 20
29.7
 97
0
 75
1
 76
1
 52
0.0
 41
0.4
 77
0
 78
1
 53
45.0
 43
0.0
 44
0.0
 45
-0.8980256121
 46
0.8980256121
 79
0
 98
0
  0
HATCH
  5
179
330
17
100
AcDbEntity
  8
A-HATCH
 62
7
100
AcDbHatch
 10
0.0
 20
0.0
 30
0.0
210
0.0
220
0.0
230
1.0
  2
ANSI31
 70
0
 71
0
 91
1
 92
3
 72
0
 73
1
 93
5
 10
16.3
 20
29.7
 10
16.3
 20
29.900000000000002
 10
15.7
 20
29.900000000000002
 10
15.7
 20
29.7
 10
16.3
 20
29.7
 97
0
 75
1
 76
1
 52
0.0
 41
0.4
 77
0
 78
1
 53
45.0
 43
0.0
 44
0.0
 45
-0.8980256121
 46
0.8980256121
 79
0
 98
0
  0
HATCH
  5
17A
330
17
100
AcDbEntity
  8
A-HATCH
 62
7
100
AcDbHatch
 10
0.0
 20
0.0
 30
0.0
210
0.0
220
0.0
230
1.0
  2
ANSI31
 70
0
 71
0
 91
1
 92
3
 72
0
 73
1
 93
5
 10
17.5
 20
29.7
 10
17.5
 20
29.900000000000002
 10
16.9
 20
29.900000000000002
 10
16.9
 20
29.7
 10
17.5
 20
29.7
 97
0
 75
1
 76
1
 52
0.0
 41
0.4
 77
0
 78
1
 53
45.0
 43
0.0
 44
0.0
 45
-0.8980256121
 46
0.8980256121
 79
0
 98
0
  0
LWPOLYLINE
  5
17B
330
17
100
AcDbEntity
  8
A-CUT
100
AcDbPolyline
 90
14
 70
1
 10
6.300000000000001
 20
17.700000000000003
 10
6.4
 20
17.700000000000003
 10
6.4
 20
17.5
 10
6.300000000000001
 20
17.5
 10
6.300000000000001
 20
15.999999999999998
 10
6.3
 20
15.999999999999998
 10
6.1000000000000005
 20
15.999999999999998
 10
6.0
 20
15.999999999999998
 10
6.0
 20
16.099999999999998
 10
6.0
 20
16.299999999999997
 10
6.0
 20
17.9
 10
6.1000000000000005
 20
17.9
 10
6.300000000000001
 20
17.9
 10
6.300000000000001
 20
17.700000000000003
  0
LWPOLYLINE
  5
17C
330
17
100
AcDbEntity
  8
A-CUT
100
AcDbPolyline
 90
15
 70
1
 10
6.1000000000000005
 20
21.4
 10
6.0
 20
21.4
 10
6.0
 20
22.2
 10
6.1000000000000005
 20
22.2
 10
6.300000000000001
 20
22.2
 10
6.300000000000001
 20
21.72
 10
9.5
 20
21.72
 10
9.5
 20
22.4
 10
9.620000000000001
 20
22.4
 10
9.620000000000001
 20
21.72
 10
10.6
 20
21.72
 10
10.6
 20
21.6
 10
6.300000000000001
 20
21.6
 10
6.300000000000001
 20
21.4
 10
6.1000000000000005
 20
21.4
  0
LWPOLYLINE
  5
17D
330
17
100
AcDbEntity
  8
A-CUT
100
AcDbPolyline
 90
5
 70
1
 10
9.620000000000001
 20
23.3
 10
9.5
 20
23.3
 10
9.5
 20
25.24
 10
9.620000000000001
 20
25.24
 10
9.620000000000001
 20
23.3
  0
LWPOLYLINE
  5
17E
330
17
100
AcDbEntity
  8
A-CUT
100
AcDbPolyline
 90
11
 70
1
 10
11.5
 20
25.240000000000002
 10
6.300000000000001
 20
25.240000000000002
 10
6.300000000000001
 20
24.6
 10
6.1000000000000005
 20
24.6
 10
6.0
 20
24.6
 10
6.0
 20
25.5
 10
6.1000000000000005
 20
25.5
 10
6.300000000000001
 20
25.5
 10
6.300000000000001
 20
25.36
 10
11.5
 20
25.36
 10
11.5
 20
25.240000000000002
  0
LWPOLYLINE
  5
17F
330
17
100
AcDbEntity
  8
A-CUT
100
AcDbPolyline
 90
19
 70
1
 10
11.4
 20
26.900000000000002
 10
6.300000000000001
 20
26.900000000000002
 10
6.300000000000001
 20
26.75
 10
6.1000000000000005
 20
26.75
 10
6.0
 20
26.75
 10
6.0
 20
28.6
 10
6.1000000000000005
 20
28.6
 10
6.300000000000001
 20
28.6
 10
6.300000000000001
 20
27.259999999999998
 10
9.0
 20
27.259999999999998
 10
9.0
 20
27.02
 10
9.8
 20
27.02
 10
9.8
 20
27.259999999999998
 10
10.9
 20
27.259999999999998
 10
10.9
 20
31.7
 10
11.200000000000001
 20
31.7
 10
11.200000000000001
 20
27.02
 10
11.4
 20
27.02
 10
11.4
 20
26.900000000000002
  0
LWPOLYLINE
  5
180
330
17
100
AcDbEntity
  8
A-CUT
100
AcDbPolyline
 90
13
 70
1
 10
6.0
 20
31.900000000000002
 10
6.0
 20
32.0
 10
6.1000000000000005
 20
32.0
 10
6.300000000000001
 20
32.0
 10
11.7
 20
32.0
 10
11.7
 20
31.900000000000002
 10
11.7
 20
31.700000000000003
 10
6.300000000000001
 20
31.700000000000003
 10
6.300000000000001
 20
29.6
 10
6.1000000000000005
 20
29.6
 10
6.0
 20
29.6
 10
6.0
 20
31.700000000000003
 10
6.0
 20
31.900000000000002
  0
LWPOLYLINE
  5
181
330
17
100
AcDbEntity
  8
A-CUT
100
AcDbPolyline
 90
15
 70
1
 10
12.7
 20
15.999999999999998
 10
12.7
 20
16.099999999999998
 10
12.7
 20
16.299999999999997
 10
12.7
 20
17.5
 10
12.6
 20
17.5
 10
12.6
 20
17.700000000000003
 10
12.7
 20
17.700000000000003
 10
12.7
 20
18.0
 10
12.9
 20
18.0
 10
13.0
 20
18.0
 10
13.0
 20
16.299999999999997
 10
13.0
 20
16.099999999999998
 10
13.0
 20
15.999999999999998
 10
12.9
 20
15.999999999999998
 10
12.7
 20
15.999999999999998
  0
LWPOLYLINE
  5
182
330
17
100
AcDbEntity
  8
A-CUT
100
AcDbPolyline
 90
11
 70
1
 10
12.9
 20
22.1
 10
13.0
 20
22.1
 10
13.0
 20
21.3
 10
12.9
 20
21.3
 10
12.7
 20
21.3
 10
12.7
 20
21.6
 10
12.4
 20
21.6
 10
12.4
 20
21.72
 10
12.7
 20
21.72
 10
12.7
 20
22.1
 10
12.9
 20
22.1
  0
LWPOLYLINE
  5
183
330
17
100
AcDbEntity
  8
A-CUT
100
AcDbPolyline
 90
15
 70
1
 10
12.7
 20
24.8
 10
12.7
 20
25.0
 10
12.7
 20
25.099999999999998
 10
12.7
 20
25.240000000000002
 10
12.4
 20
25.240000000000002
 10
12.4
 20
25.36
 10
13.3
 20
25.36
 10
13.3
 20
25.299999999999997
 10
13.4
 20
25.299999999999997
 10
13.4
 20
25.099999999999998
 10
13.4
 20
25.0
 10
13.0
 20
25.0
 10
13.0
 20
24.8
 10
12.9
 20
24.8
 10
12.7
 20
24.8
  0
LWPOLYLINE
  5
184
330
17
100
AcDbEntity
  8
A-CUT
100
AcDbPolyline
 90
7
 70
1
 10
15.8
 20
25.299999999999997
 10
15.8
 20
25.099999999999998
 10
15.8
 20
25.0
 10
15.5
 20
25.0
 10
15.5
 20
25.099999999999998
 10
15.5
 20
25.299999999999997
 10
15.8
 20
25.299999999999997
  0
LWPOLYLINE
  5
185
330
17
100
AcDbEntity
  8
A-CUT
100
AcDbPolyline
 90
9
 70
1
 10
13.120000000000001
 20
31.7
 10
13.120000000000001
 20
26.96
 10
13.12
 20
26.96
 10
13.12
 20
26.900000000000002
 10
12.2
 20
26.900000000000002
 10
12.2
 20
27.02
 10
13.0
 20
27.02
 10
13.0
 20
31.7
 10
13.120000000000001
 20
31.7
  0
LWPOLYLINE
  5
186
330
17
100
AcDbEntity
  8
A-CUT
100
AcDbPolyline
 90
9
 70
1
 10
15.7
 20
29.7
 10
15.7
 20
29.900000000000002
 10
15.7
 20
31.7
 10
15.899999999999999
 20
31.7
 10
15.899999999999999
 20
29.900000000000002
 10
16.3
 20
29.900000000000002
 10
16.3
 20
29.7
 10
15.899999999999999
 20
29.7
 10
15.7
 20
29.7
  0
LWPOLYLINE
  5
187
330
17
100
AcDbEntity
  8
A-CUT
100
AcDbPolyline
 90
7
 70
1
 10
13.4
 20
31.900000000000002
 10
13.4
 20
31.700000000000003
 10
12.7
 20
31.700000000000003
 10
12.7
 20
31.900000000000002
 10
12.7
 20
32.0
 10
13.4
 20
32.0
 10
13.4
 20
31.900000000000002
  0
LWPOLYLINE
  5
188
330
17
100
AcDbEntity
  8
A-CUT
100
AcDbPolyline
 90
7
 70
1
 10
17.9
 20
32.0
 10
17.9
 20
31.900000000000002
 10
17.9
 20
31.700000000000003
 10
15.3
 20
31.700000000000003
 10
15.3
 20
31.900000000000002
 10
15.3
 20
32.0
 10
17.9
 20
32.0
  0
LWPOLYLINE
  5
189
330
17
100
AcDbEntity
  8
A-CUT
100
AcDbPolyline
 90
7
 70
1
 10
20.0
 20
25.299999999999997
 10
20.0
 20
25.099999999999998
 10
20.0
 20
25.0
 10
19.4
 20
25.0
 10
19.4
 20
25.099999999999998
 10
19.4
 20
25.299999999999997
 10
20.0
 20
25.299999999999997
  0
LWPOLYLINE
  5
18A
330
17
100
AcDbEntity
  8
A-CUT
100
AcDbPolyline
 90
13
 70
1
 10
24.900000000000002
 20
25.0
 10
24.700000000000003
 20
25.0
 10
24.4
 20
25.0
 10
24.4
 20
25.099999999999998
 10
24.4
 20
25.299999999999997
 10
24.700000000000003
 20
25.299999999999997
 10
24.700000000000003
 20
25.7
 10
24.900000000000002
 20
25.7
 10
25.0
 20
25.7
 10
25.0
 20
25.299999999999997
 10
25.0
 20
25.099999999999998
 10
25.0
 20
25.0
 10
24.900000000000002
 20
25.0
  0
LWPOLYLINE
  5
18B
330
17
100
AcDbEntity
  8
A-CUT
100
AcDbPolyline
 90
5
 70
1
 10
19.6
 20
26.0
 10
19.72
 20
26.0
 10
19.72
 20
25.3
 10
19.6
 20
25.3
 10
19.6
 20
26.0
  0
LWPOLYLINE
  5
18C
330
17
100
AcDbEntity
  8
A-CUT
100
AcDbPolyline
 90
13
 70
1
 10
19.1
 20
29.7
 10
19.6
 20
29.7
 10
19.6
 20
31.7
 10
19.72
 20
31.7
 10
19.72
 20
29.52
 10
23.2
 20
29.52
 10
23.2
 20
29.400000000000002
 10
19.72
 20
29.400000000000002
 10
19.72
 20
26.9
 10
19.6
 20
26.9
 10
19.6
 20
29.580000000000002
 10
19.1
 20
29.580000000000002
 10
19.1
 20
29.7
  0
LWPOLYLINE
  5
18D
330
17
100
AcDbEntity
  8
A-CUT
100
AcDbPolyline
 90
5
 70
1
 10
24.0
 20
29.400000000000002
 10
24.0
 20
29.52
 10
24.7
 20
29.52
 10
24.7
 20
29.400000000000002
 10
24.0
 20
29.400000000000002
  0
LWPOLYLINE
  5
18E
330
17
100
AcDbEntity
  8
A-CUT
100
AcDbPolyline
 90
14
 70
1
 10
17.5
 20
29.7
 10
17.299999999999997
 20
29.7
 10
16.9
 20
29.7
 10
16.9
 20
29.900000000000002
 10
17.299999999999997
 20
29.900000000000002
 10
17.299999999999997
 20
31.7
 10
17.5
 20
31.7
 10
17.619999999999997
 20
31.7
 10
17.619999999999997
 20
29.7
 10
18.3
 20
29.7
 10
18.3
 20
29.580000000000002
 10
17.56
 20
29.580000000000002
 10
17.56
 20
29.7
 10
17.5
 20
29.7
  0
LWPOLYLINE
  5
18F
330
17
100
AcDbEntity
  8
A-CUT
100
AcDbPolyline
 90
13
 70
1
 10
24.2
 20
31.700000000000003
 10
24.2
 20
31.900000000000002
 10
24.2
 20
32.0
 10
24.700000000000003
 20
32.0
 10
24.900000000000002
 20
32.0
 10
25.0
 20
32.0
 10
25.0
 20
31.900000000000002
 10
25.0
 20
31.700000000000003
 10
25.0
 20
28.7
 10
24.900000000000002
 20
28.7
 10
24.700000000000003
 20
28.7
 10
24.700000000000003
 20
31.700000000000003
 10
24.2
 20
31.700000000000003
  0
LWPOLYLINE
  5
190
330
17
100
AcDbEntity
  8
A-CUT
100
AcDbPolyline
 90
7
 70
1
 10
22.3
 20
31.900000000000002
 10
22.3
 20
31.700000000000003
 10
19.2
 20
31.700000000000003
 10
19.2
 20
31.900000000000002
 10
19.2
 20
32.0
 10
22.3
 20
32.0
 10
22.3
 20
31.900000000000002
  0
LINE
  5
191
330
17
100
AcDbEntity
  8
A-HIDDEN
100
AcDbLine
 10
6.3
 20
16.15
 30
0.0
 11
12.7
 21
16.15
 31
0.0
  0
LINE
  5
192
330
17
100
AcDbEntity
  8
A-THIN
100
AcDbLine
 10
12.7
 20
18.0
 30
0.0
 11
12.7
 21
21.3
 31
0.0
  0
LINE
  5
193
330
17
100
AcDbEntity
  8
A-THIN
100
AcDbLine
 10
13.0
 20
18.0
 30
0.0
 11
13.0
 21
21.3
 31
0.0
  0
LINE
  5
194
330
17
100
AcDbEntity
  8
A-THIN
100
AcDbLine
 10
12.81
 20
18.0
 30
0.0
 11
12.81
 21
21.3
 31
0.0
  0
LINE
  5
195
330
17
100
AcDbEntity
  8
A-THIN
100
AcDbLine
 10
12.85
 20
18.0
 30
0.0
 11
12.85
 21
21.3
 31
0.0
  0
LINE
  5
196
330
17
100
AcDbEntity
  8
A-THIN
100
AcDbLine
 10
12.7
 20
22.1
 30
0.0
 11
12.7
 21
24.8
 31
0.0
  0
LINE
  5
197
330
17
100
AcDbEntity
  8
A-THIN
100
AcDbLine
 10
13.0
 20
22.1
 30
0.0
 11
13.0
 21
24.8
 31
0.0
  0
LINE
  5
198
330
17
100
AcDbEntity
  8
A-THIN
100
AcDbLine
 10
12.81
 20
22.1
 30
0.0
 11
12.81
 21
24.8
 31
0.0
  0
LINE
  5
199
330
17
100
AcDbEntity
  8
A-THIN
100
AcDbLine
 10
12.85
 20
22.1
 30
0.0
 11
12.85
 21
24.8
 31
0.0
  0
LINE
  5
19A
330
17
100
AcDbEntity
  8
A-THIN
100
AcDbLine
 10
13.4
 20
25.0
 30
0.0
 11
15.5
 21
25.0
 31
0.0
  0
LINE
  5
19B
330
17
100
AcDbEntity
  8
A-THIN
100
AcDbLine
 10
13.4
 20
25.299999999999997
 30
0.0
 11
15.5
 21
25.299999999999997
 31
0.0
  0
LINE
  5
19C
330
17
100
AcDbEntity
  8
A-THIN
100
AcDbLine
 10
13.4
 20
25.15
 30
0.0
 11
15.5
 21
25.15
 31
0.0
  0
LINE
  5
19D
330
17
100
AcDbEntity
  8
A-THIN
100
AcDbLine
 10
13.4
 20
25.189999999999998
 30
0.0
 11
15.5
 21
25.189999999999998
 31
0.0
  0
LINE
  5
19E
330
17
100
AcDbEntity
  8
A-THIN
100
AcDbLine
 10
15.8
 20
25.0
 30
0.0
 11
19.4
 21
25.0
 31
0.0
  0
LINE
  5
19F
330
17
100
AcDbEntity
  8
A-THIN
100
AcDbLine
 10
15.8
 20
25.299999999999997
 30
0.0
 11
19.4
 21
25.299999999999997
 31
0.0
  0
LINE
  5
1A0
330
17
100
AcDbEntity
  8
A-MAIN
100
AcDbLine
 10
15.8
 20
25.139999999999997
 30
0.0
 11
17.650000000000002
 21
25.139999999999997
 31
0.0
  0
LINE
  5
1A1
330
17
100
AcDbEntity
  8
A-MAIN
100
AcDbLine
 10
17.55
 20
25.2
 30
0.0
 11
19.4
 21
25.2
 31
0.0
  0
LINE
  5
1A2
330
17
100
AcDbEntity
  8
A-THIN
100
AcDbLine
 10
20.0
 20
25.0
 30
0.0
 11
24.4
 21
25.0
 31
0.0
  0
LINE
  5
1A3
330
17
100
AcDbEntity
  8
A-THIN
100
AcDbLine
 10
20.0
 20
25.299999999999997
 30
0.0
 11
24.4
 21
25.299999999999997
 31
0.0
  0
LINE
  5
1A4
330
17
100
AcDbEntity
  8
A-MAIN
100
AcDbLine
 10
20.0
 20
25.139999999999997
 30
0.0
 11
22.25
 21
25.139999999999997
 31
0.0
  0
LINE
  5
1A5
330
17
100
AcDbEntity
  8
A-MAIN
100
AcDbLine
 10
22.15
 20
25.2
 30
0.0
 11
24.4
 21
25.2
 31
0.0
  0
LINE
  5
1A6
330
17
100
AcDbEntity
  8
A-THIN
100
AcDbLine
 10
24.700000000000003
 20
25.7
 30
0.0
 11
24.700000000000003
 21
28.7
 31
0.0
  0
LINE
  5
1A7
330
17
100
AcDbEntity
  8
A-THIN
100
AcDbLine
 10
25.0
 20
25.7
 30
0.0
 11
25.0
 21
28.7
 31
0.0
  0
LINE
  5
1A8
330
17
100
AcDbEntity
  8
A-THIN
100
AcDbLine
 10
24.810000000000002
 20
25.7
 30
0.0
 11
24.810000000000002
 21
28.7
 31
0.0
  0
LINE
  5
1A9
330
17
100
AcDbEntity
  8
A-THIN
100
AcDbLine
 10
24.85
 20
25.7
 30
0.0
 11
24.85
 21
28.7
 31
0.0
  0
LINE
  5
1AA
330
17
100
AcDbEntity
  8
A-THIN
100
AcDbLine
 10
11.7
 20
31.700000000000003
 30
0.0
 11
12.7
 21
31.700000000000003
 31
0.0
  0
LINE
  5
1AB
330
17
100
AcDbEntity
  8
A-THIN
100
AcDbLine
 10
11.7
 20
32.0
 30
0.0
 11
12.7
 21
32.0
 31
0.0
  0
LINE
  5
1AC
330
17
100
AcDbEntity
  8
A-THIN
100
AcDbLine
 10
11.7
 20
31.810000000000002
 30
0.0
 11
12.7
 21
31.810000000000002
 31
0.0
  0
LINE
  5
1AD
330
17
100
AcDbEntity
  8
A-THIN
100
AcDbLine
 10
11.7
 20
31.85
 30
0.0
 11
12.7
 21
31.85
 31
0.0
  0
LINE
  5
1AE
330
17
100
AcDbEntity
  8
A-THIN
100
AcDbLine
 10
13.4
 20
31.700000000000003
 30
0.0
 11
15.3
 21
31.700000000000003
 31
0.0
  0
LINE
  5
1AF
330
17
100
AcDbEntity
  8
A-THIN
100
AcDbLine
 10
13.4
 20
32.0
 30
0.0
 11
15.3
 21
32.0
 31
0.0
  0
LINE
  5
1B0
330
17
100
AcDbEntity
  8
A-THIN
100
AcDbLine
 10
13.4
 20
31.810000000000002
 30
0.0
 11
15.3
 21
31.810000000000002
 31
0.0
  0
LINE
  5
1B1
330
17
100
AcDbEntity
  8
A-THIN
100
AcDbLine
 10
13.4
 20
31.85
 30
0.0
 11
15.3
 21
31.85
 31
0.0
  0
LINE
  5
1B2
330
17
100
AcDbEntity
  8
A-THIN
100
AcDbLine
 10
17.9
 20
31.700000000000003
 30
0.0
 11
19.2
 21
31.700000000000003
 31
0.0
  0
LINE
  5
1B3
330
17
100
AcDbEntity
  8
A-THIN
100
AcDbLine
 10
17.9
 20
32.0
 30
0.0
 11
19.2
 21
32.0
 31
0.0
  0
LINE
  5
1B4
330
17
100
AcDbEntity
  8
A-THIN
100
AcDbLine
 10
17.9
 20
31.810000000000002
 30
0.0
 11
19.2
 21
31.810000000000002
 31
0.0
  0
LINE
  5
1B5
330
17
100
AcDbEntity
  8
A-THIN
100
AcDbLine
 10
17.9
 20
31.85
 30
0.0
 11
19.2
 21
31.85
 31
0.0
  0
LINE
  5
1B6
330
17
100
AcDbEntity
  8
A-THIN
100
AcDbLine
 10
22.3
 20
31.700000000000003
 30
0.0
 11
24.2
 21
31.700000000000003
 31
0.0
  0
LINE
  5
1B7
330
17
100
AcDbEntity
  8
A-THIN
100
AcDbLine
 10
22.3
 20
32.0
 30
0.0
 11
24.2
 21
32.0
 31
0.0
  0
LINE
  5
1B8
330
17
100
AcDbEntity
  8
A-THIN
100
AcDbLine
 10
22.3
 20
31.810000000000002
 30
0.0
 11
24.2
 21
31.810000000000002
 31
0.0
  0
LINE
  5
1B9
330
17
100
AcDbEntity
  8
A-THIN
100
AcDbLine
 10
22.3
 20
31.85
 30
0.0
 11
24.2
 21
31.85
 31
0.0
  0
LINE
  5
1BA
330
17
100
AcDbEntity
  8
A-THIN
100
AcDbLine
 10
6.0
 20
17.9
 30
0.0
 11
6.0
 21
21.4
 31
0.0
  0
LINE
  5
1BB
330
17
100
AcDbEntity
  8
A-THIN
100
AcDbLine
 10
6.300000000000001
 20
17.9
 30
0.0
 11
6.300000000000001
 21
21.4
 31
0.0
  0
LINE
  5
1BC
330
17
100
AcDbEntity
  8
A-MAIN
100
AcDbLine
 10
6.140000000000001
 20
17.9
 30
0.0
 11
6.140000000000001
 21
19.7
 31
0.0
  0
LINE
  5
1BD
330
17
100
AcDbEntity
  8
A-MAIN
100
AcDbLine
 10
6.2
 20
19.599999999999998
 30
0.0
 11
6.2
 21
21.4
 31
0.0
  0
LINE
  5
1BE
330
17
100
AcDbEntity
  8
A-THIN
100
AcDbLine
 10
6.0
 20
22.2
 30
0.0
 11
6.0
 21
24.6
 31
0.0
  0
LINE
  5
1BF
330
17
100
AcDbEntity
  8
A-THIN
100
AcDbLine
 10
6.300000000000001
 20
22.2
 30
0.0
 11
6.300000000000001
 21
24.6
 31
0.0
  0
LINE
  5
1C0
330
17
100
AcDbEntity
  8
A-THIN
100
AcDbLine
 10
6.15
 20
22.2
 30
0.0
 11
6.15
 21
24.6
 31
0.0
  0
LINE
  5
1C1
330
17
100
AcDbEntity
  8
A-THIN
100
AcDbLine
 10
6.19
 20
22.2
 30
0.0
 11
6.19
 21
24.6
 31
0.0
  0
LINE
  5
1C2
330
17
100
AcDbEntity
  8
A-THIN
100
AcDbLine
 10
6.0
 20
25.5
 30
0.0
 11
6.0
 21
26.75
 31
0.0
  0
LINE
  5
1C3
330
17
100
AcDbEntity
  8
A-THIN
100
AcDbLine
 10
6.300000000000001
 20
25.5
 30
0.0
 11
6.300000000000001
 21
26.75
 31
0.0
  0
LINE
  5
1C4
330
17
100
AcDbEntity
  8
A-THIN
100
AcDbLine
 10
6.15
 20
25.5
 30
0.0
 11
6.15
 21
26.75
 31
0.0
  0
LINE
  5
1C5
330
17
100
AcDbEntity
  8
A-THIN
100
AcDbLine
 10
6.19
 20
25.5
 30
0.0
 11
6.19
 21
26.75
 31
0.0
  0
LINE
  5
1C6
330
17
100
AcDbEntity
  8
A-THIN
100
AcDbLine
 10
6.0
 20
28.6
 30
0.0
 11
6.0
 21
29.6
 31
0.0
  0
LINE
  5
1C7
330
17
100
AcDbEntity
  8
A-THIN
100
AcDbLine
 10
6.300000000000001
 20
28.6
 30
0.0
 11
6.300000000000001
 21
29.6
 31
0.0
  0
LINE
  5
1C8
330
17
100
AcDbEntity
  8
A-MAIN
100
AcDbLine
 10
6.17
 20
28.6
 30
0.0
 11
6.17
 21
29.6
 31
0.0
  0
LINE
  5
1C9
330
17
100
AcDbEntity
  8
A-MAIN
100
AcDbLine
 10
6.03
 20
28.55
 30
0.0
 11
6.03
 21
29.650000000000002
 31
0.0
  0
LINE
  5
1CA
330
17
100
AcDbEntity
  8
A-THIN
100
AcDbLine
 10
6.4
 20
17.5
 30
0.0
 11
12.6
 21
17.5
 31
0.0
  0
LINE
  5
1CB
330
17
100
AcDbEntity
  8
A-THIN
100
AcDbLine
 10
6.4
 20
17.700000000000003
 30
0.0
 11
12.6
 21
17.700000000000003
 31
0.0
  0
LINE
  5
1CC
330
17
100
AcDbEntity
  8
A-MAIN
100
AcDbLine
 10
6.4
 20
17.57
 30
0.0
 11
8.516666666666667
 21
17.57
 31
0.0
  0
LINE
  5
1CD
330
17
100
AcDbEntity
  8
A-MAIN
100
AcDbLine
 10
8.416666666666666
 20
17.630000000000003
 30
0.0
 11
10.583333333333334
 21
17.630000000000003
 31
0.0
  0
LINE
  5
1CE
330
17
100
AcDbEntity
  8
A-MAIN
100
AcDbLine
 10
10.483333333333333
 20
17.57
 30
0.0
 11
12.6
 21
17.57
 31
0.0
  0
LINE
  5
1CF
330
17
100
AcDbEntity
  8
A-HIDDEN
100
AcDbLine
 10
10.6
 20
21.66
 30
0.0
 11
12.4
 21
21.66
 31
0.0
  0
LINE
  5
1D0
330
17
100
AcDbEntity
  8
A-MAIN
100
AcDbLine
 10
9.5
 20
23.3
 30
0.0
 11
8.599999999999998
 21
23.3
 31
0.0
  0
ARC
  5
1D1
330
17
100
AcDbEntity
  8
A-THIN
100
AcDbCircle
 10
9.5
 20
23.3
 30
0.0
 40
0.9000000000000021
100
AcDbArc
 50
180.0
 51
270.0
  0
LINE
  5
1D2
330
17
100
AcDbEntity
  8
A-THIN
100
AcDbLine
 10
9.5
 20
22.4
 30
0.0
 11
9.620000000000001
 21
22.4
 31
0.0
  0
LINE
  5
1D3
330
17
100
AcDbEntity
  8
A-THIN
100
AcDbLine
 10
9.5
 20
23.3
 30
0.0
 11
9.620000000000001
 21
23.3
 31
0.0
  0
LINE
  5
1D4
330
17
100
AcDbEntity
  8
A-MAIN
100
AcDbLine
 10
11.5
 20
25.240000000000002
 30
0.0
 11
11.5
 21
24.340000000000003
 31
0.0
  0
ARC
  5
1D5
330
17
100
AcDbEntity
  8
A-THIN
100
AcDbCircle
 10
11.5
 20
25.240000000000002
 30
0.0
 40
0.9000000000000004
100
AcDbArc
 50
270.0
 51
360.0
  0
LINE
  5
1D6
330
17
100
AcDbEntity
  8
A-THIN
100
AcDbLine
 10
11.5
 20
25.240000000000002
 30
0.0
 11
11.5
 21
25.36
 31
0.0
  0
LINE
  5
1D7
330
17
100
AcDbEntity
  8
A-THIN
100
AcDbLine
 10
12.4
 20
25.240000000000002
 30
0.0
 11
12.4
 21
25.36
 31
0.0
  0
LINE
  5
1D8
330
17
100
AcDbEntity
  8
A-MAIN
100
AcDbLine
 10
11.4
 20
27.02
 30
0.0
 11
11.4
 21
27.82
 31
0.0
  0
ARC
  5
1D9
330
17
100
AcDbEntity
  8
A-THIN
100
AcDbCircle
 10
11.4
 20
27.02
 30
0.0
 40
0.7999999999999989
100
AcDbArc
 50
0.0
 51
90.0
  0
LINE
  5
1DA
330
17
100
AcDbEntity
  8
A-THIN
100
AcDbLine
 10
11.4
 20
26.900000000000002
 30
0.0
 11
11.4
 21
27.02
 31
0.0
  0
LINE
  5
1DB
330
17
100
AcDbEntity
  8
A-THIN
100
AcDbLine
 10
12.2
 20
26.900000000000002
 30
0.0
 11
12.2
 21
27.02
 31
0.0
  0
LINE
  5
1DC
330
17
100
AcDbEntity
  8
A-MAIN
100
AcDbLine
 10
9.8
 20
26.96
 30
0.0
 11
9.8
 21
26.16
 31
0.0
  0
ARC
  5
1DD
330
17
100
AcDbEntity
  8
A-THIN
100
AcDbCircle
 10
9.8
 20
26.96
 30
0.0
 40
0.8000000000000007
100
AcDbArc
 50
180.0
 51
270.0
  0
LINE
  5
1DE
330
17
100
AcDbEntity
  8
A-THIN
100
AcDbLine
 10
9.0
 20
26.96
 30
0.0
 11
9.0
 21
27.259999999999998
 31
0.0
  0
LINE
  5
1DF
330
17
100
AcDbEntity
  8
A-THIN
100
AcDbLine
 10
9.8
 20
26.96
 30
0.0
 11
9.8
 21
27.259999999999998
 31
0.0
  0
LINE
  5
1E0
330
17
100
AcDbEntity
  8
A-MAIN
100
AcDbLine
 10
19.72
 20
26.0
 30
0.0
 11
20.619999999999997
 21
26.0
 31
0.0
  0
ARC
  5
1E1
330
17
100
AcDbEntity
  8
A-THIN
100
AcDbCircle
 10
19.72
 20
26.0
 30
0.0
 40
0.8999999999999986
100
AcDbArc
 50
0.0
 51
90.0
  0
LINE
  5
1E2
330
17
100
AcDbEntity
  8
A-THIN
100
AcDbLine
 10
19.6
 20
26.0
 30
0.0
 11
19.72
 21
26.0
 31
0.0
  0
LINE
  5
1E3
330
17
100
AcDbEntity
  8
A-THIN
100
AcDbLine
 10
19.6
 20
26.9
 30
0.0
 11
19.72
 21
26.9
 31
0.0
  0
LINE
  5
1E4
330
17
100
AcDbEntity
  8
A-MAIN
100
AcDbLine
 10
18.3
 20
29.7
 30
0.0
 11
18.3
 21
30.5
 31
0.0
  0
ARC
  5
1E5
330
17
100
AcDbEntity
  8
A-THIN
100
AcDbCircle
 10
18.3
 20
29.7
 30
0.0
 40
0.8000000000000007
100
AcDbArc
 50
0.0
 51
90.0
  0
LINE
  5
1E6
330
17
100
AcDbEntity
  8
A-THIN
100
AcDbLine
 10
18.3
 20
29.580000000000002
 30
0.0
 11
18.3
 21
29.7
 31
0.0
  0
LINE
  5
1E7
330
17
100
AcDbEntity
  8
A-THIN
100
AcDbLine
 10
19.1
 20
29.580000000000002
 30
0.0
 11
19.1
 21
29.7
 31
0.0
  0
LINE
  5
1E8
330
17
100
AcDbEntity
  8
A-MAIN
100
AcDbLine
 10
24.0
 20
29.52
 30
0.0
 11
24.0
 21
30.32
 31
0.0
  0
ARC
  5
1E9
330
17
100
AcDbEntity
  8
A-THIN
100
AcDbCircle
 10
24.0
 20
29.52
 30
0.0
 40
0.8000000000000007
100
AcDbArc
 50
90.0
 51
180.0
  0
LINE
  5
1EA
330
17
100
AcDbEntity
  8
A-THIN
100
AcDbLine
 10
23.2
 20
29.400000000000002
 30
0.0
 11
23.2
 21
29.52
 31
0.0
  0
LINE
  5
1EB
330
17
100
AcDbEntity
  8
A-THIN
100
AcDbLine
 10
24.0
 20
29.400000000000002
 30
0.0
 11
24.0
 21
29.52
 31
0.0
  0
LINE
  5
1EC
330
17
100
AcDbEntity
  8
A-HIDDEN
100
AcDbLine
 10
6.15
 20
12.100000000000001
 30
0.0
 11
6.15
 21
32.6
 31
0.0
  0
LINE
  5
1ED
330
17
100
AcDbEntity
  8
A-HIDDEN
100
AcDbLine
 10
12.85
 20
12.100000000000001
 30
0.0
 11
12.85
 21
32.6
 31
0.0
  0
LINE
  5
1EE
330
17
100
AcDbEntity
  8
A-HIDDEN
100
AcDbLine
 10
19.06
 20
12.100000000000001
 30
0.0
 11
19.06
 21
32.6
 31
0.0
  0
LINE
  5
1EF
330
17
100
AcDbEntity
  8
A-HIDDEN
100
AcDbLine
 10
24.85
 20
12.100000000000001
 30
0.0
 11
24.85
 21
32.6
 31
0.0
  0
LINE
  5
1F0
330
17
100
AcDbEntity
  8
A-HIDDEN
100
AcDbLine
 10
2.0999999999999996
 20
16.15
 30
0.0
 11
25.6
 21
16.15
 31
0.0
  0
LINE
  5
1F1
330
17
100
AcDbEntity
  8
A-HIDDEN
100
AcDbLine
 10
2.0999999999999996
 20
21.15
 30
0.0
 11
25.6
 21
21.15
 31
0.0
  0
LINE
  5
1F2
330
17
100
AcDbEntity
  8
A-HIDDEN
100
AcDbLine
 10
2.0999999999999996
 20
25.15
 30
0.0
 11
25.6
 21
25.15
 31
0.0
  0
LINE
  5
1F3
330
17
100
AcDbEntity
  8
A-HIDDEN
100
AcDbLine
 10
2.0999999999999996
 20
31.85
 30
0.0
 11
25.6
 21
31.85
 31
0.0
  0
LINE
  5
1F4
330
17
100
AcDbEntity
  8
A-DIMS
100
AcDbLine
 10
6.0
 20
14.25
 30
0.0
 11
25.0
 21
14.25
 31
0.0
  0
LINE
  5
1F5
330
17
100
AcDbEntity
  8
A-DIMS
100
AcDbLine
 10
6.0
 20
15.7
 30
0.0
 11
6.0
 21
14.1
 31
0.0
  0
LINE
  5
1F6
330
17
100
AcDbEntity
  8
A-DIMS
100
AcDbLine
 10
6.3
 20
15.7
 30
0.0
 11
6.3
 21
14.1
 31
0.0
  0
LINE
  5
1F7
330
17
100
AcDbEntity
  8
A-DIMS
100
AcDbLine
 10
12.7
 20
15.7
 30
0.0
 11
12.7
 21
14.1
 31
0.0
  0
LINE
  5
1F8
330
17
100
AcDbEntity
  8
A-DIMS
100
AcDbLine
 10
13.0
 20
15.7
 30
0.0
 11
13.0
 21
14.1
 31
0.0
  0
LINE
  5
1F9
330
17
100
AcDbEntity
  8
A-DIMS
100
AcDbLine
 10
13.4
 20
15.7
 30
0.0
 11
13.4
 21
14.1
 31
0.0
  0
LINE
  5
1FA
330
17
100
AcDbEntity
  8
A-DIMS
100
AcDbLine
 10
15.5
 20
15.7
 30
0.0
 11
15.5
 21
14.1
 31
0.0
  0
LINE
  5
1FB
330
17
100
AcDbEntity
  8
A-DIMS
100
AcDbLine
 10
15.8
 20
15.7
 30
0.0
 11
15.8
 21
14.1
 31
0.0
  0
LINE
  5
1FC
330
17
100
AcDbEntity
  8
A-DIMS
100
AcDbLine
 10
19.4
 20
15.7
 30
0.0
 11
19.4
 21
14.1
 31
0.0
  0
LINE
  5
1FD
330
17
100
AcDbEntity
  8
A-DIMS
100
AcDbLine
 10
20.0
 20
15.7
 30
0.0
 11
20.0
 21
14.1
 31
0.0
  0
LINE
  5
1FE
330
17
100
AcDbEntity
  8
A-DIMS
100
AcDbLine
 10
24.4
 20
15.7
 30
0.0
 11
24.4
 21
14.1
 31
0.0
  0
LINE
  5
1FF
330
17
100
AcDbEntity
  8
A-DIMS
100
AcDbLine
 10
25.0
 20
15.7
 30
0.0
 11
25.0
 21
14.1
 31
0.0
  0
LINE
  5
200
330
17
100
AcDbEntity
  8
A-DIMS
100
AcDbLine
 10
6.0
 20
13.5
 30
0.0
 11
25.0
 21
13.5
 31
0.0
  0
LINE
  5
201
330
17
100
AcDbEntity
  8
A-DIMS
100
AcDbLine
 10
6.0
 20
12.75
 30
0.0
 11
25.0
 21
12.75
 31
0.0
  0
LINE
  5
202
330
17
100
AcDbEntity
  8
A-DIMS
100
AcDbLine
 10
6.0
 20
33.75
 30
0.0
 11
25.0
 21
33.75
 31
0.0
  0
LINE
  5
203
330
17
100
AcDbEntity
  8
A-DIMS
100
AcDbLine
 10
6.0
 20
32.3
 30
0.0
 11
6.0
 21
33.9
 31
0.0
  0
LINE
  5
204
330
17
100
AcDbEntity
  8
A-DIMS
100
AcDbLine
 10
11.7
 20
32.3
 30
0.0
 11
11.7
 21
33.9
 31
0.0
  0
LINE
  5
205
330
17
100
AcDbEntity
  8
A-DIMS
100
AcDbLine
 10
12.7
 20
32.3
 30
0.0
 11
12.7
 21
33.9
 31
0.0
  0
LINE
  5
206
330
17
100
AcDbEntity
  8
A-DIMS
100
AcDbLine
 10
13.4
 20
32.3
 30
0.0
 11
13.4
 21
33.9
 31
0.0
  0
LINE
  5
207
330
17
100
AcDbEntity
  8
A-DIMS
100
AcDbLine
 10
15.3
 20
32.3
 30
0.0
 11
15.3
 21
33.9
 31
0.0
  0
LINE
  5
208
330
17
100
AcDbEntity
  8
A-DIMS
100
AcDbLine
 10
17.9
 20
32.3
 30
0.0
 11
17.9
 21
33.9
 31
0.0
  0
LINE
  5
209
330
17
100
AcDbEntity
  8
A-DIMS
100
AcDbLine
 10
19.2
 20
32.3
 30
0.0
 11
19.2
 21
33.9
 31
0.0
  0
LINE
  5
20A
330
17
100
AcDbEntity
  8
A-DIMS
100
AcDbLine
 10
22.3
 20
32.3
 30
0.0
 11
22.3
 21
33.9
 31
0.0
  0
LINE
  5
20B
330
17
100
AcDbEntity
  8
A-DIMS
100
AcDbLine
 10
24.2
 20
32.3
 30
0.0
 11
24.2
 21
33.9
 31
0.0
  0
LINE
  5
20C
330
17
100
AcDbEntity
  8
A-DIMS
100
AcDbLine
 10
25.0
 20
32.3
 30
0.0
 11
25.0
 21
33.9
 31
0.0
  0
LINE
  5
20D
330
17
100
AcDbEntity
  8
A-DIMS
100
AcDbLine
 10
6.0
 20
34.5
 30
0.0
 11
25.0
 21
34.5
 31
0.0
  0
LINE
  5
20E
330
17
100
AcDbEntity
  8
A-DIMS
100
AcDbLine
 10
6.0
 20
35.25
 30
0.0
 11
25.0
 21
35.25
 31
0.0
  0
LINE
  5
20F
330
17
100
AcDbEntity
  8
A-DIMS
100
AcDbLine
 10
4.25
 20
16.0
 30
0.0
 11
4.25
 21
32.0
 31
0.0
  0
LINE
  5
210
330
17
100
AcDbEntity
  8
A-DIMS
100
AcDbLine
 10
5.7
 20
16.0
 30
0.0
 11
4.1
 21
16.0
 31
0.0
  0
LINE
  5
211
330
17
100
AcDbEntity
  8
A-DIMS
100
AcDbLine
 10
5.7
 20
17.9
 30
0.0
 11
4.1
 21
17.9
 31
0.0
  0
LINE
  5
212
330
17
100
AcDbEntity
  8
A-DIMS
100
AcDbLine
 10
5.7
 20
21.4
 30
0.0
 11
4.1
 21
21.4
 31
0.0
  0
LINE
  5
213
330
17
100
AcDbEntity
  8
A-DIMS
100
AcDbLine
 10
5.7
 20
22.2
 30
0.0
 11
4.1
 21
22.2
 31
0.0
  0
LINE
  5
214
330
17
100
AcDbEntity
  8
A-DIMS
100
AcDbLine
 10
5.7
 20
24.6
 30
0.0
 11
4.1
 21
24.6
 31
0.0
  0
LINE
  5
215
330
17
100
AcDbEntity
  8
A-DIMS
100
AcDbLine
 10
5.7
 20
25.5
 30
0.0
 11
4.1
 21
25.5
 31
0.0
  0
LINE
  5
216
330
17
100
AcDbEntity
  8
A-DIMS
100
AcDbLine
 10
5.7
 20
26.75
 30
0.0
 11
4.1
 21
26.75
 31
0.0
  0
LINE
  5
217
330
17
100
AcDbEntity
  8
A-DIMS
100
AcDbLine
 10
5.7
 20
28.6
 30
0.0
 11
4.1
 21
28.6
 31
0.0
  0
LINE
  5
218
330
17
100
AcDbEntity
  8
A-DIMS
100
AcDbLine
 10
5.7
 20
29.6
 30
0.0
 11
4.1
 21
29.6
 31
0.0
  0
LINE
  5
219
330
17
100
AcDbEntity
  8
A-DIMS
100
AcDbLine
 10
5.7
 20
32.0
 30
0.0
 11
4.1
 21
32.0
 31
0.0
  0
LINE
  5
21A
330
17
100
AcDbEntity
  8
A-DIMS
100
AcDbLine
 10
3.5
 20
16.0
 30
0.0
 11
3.5
 21
32.0
 31
0.0
  0
LINE
  5
21B
330
17
100
AcDbEntity
  8
A-DIMS
100
AcDbLine
 10
2.75
 20
16.0
 30
0.0
 11
2.75
 21
32.0
 31
0.0
  0
LINE
  5
21C
330
17
100
AcDbEntity
  8
A-DIMS
100
AcDbLine
 10
26.75
 20
16.0
 30
0.0
 11
26.75
 21
32.0
 31
0.0
  0
LINE
  5
21D
330
17
100
AcDbEntity
  8
A-DIMS
100
AcDbLine
 10
25.3
 20
16.0
 30
0.0
 11
26.9
 21
16.0
 31
0.0
  0
LINE
  5
21E
330
17
100
AcDbEntity
  8
A-DIMS
100
AcDbLine
 10
25.3
 20
18.0
 30
0.0
 11
26.9
 21
18.0
 31
0.0
  0
LINE
  5
21F
330
17
100
AcDbEntity
  8
A-DIMS
100
AcDbLine
 10
25.3
 20
21.3
 30
0.0
 11
26.9
 21
21.3
 31
0.0
  0
LINE
  5
220
330
17
100
AcDbEntity
  8
A-DIMS
100
AcDbLine
 10
25.3
 20
22.1
 30
0.0
 11
26.9
 21
22.1
 31
0.0
  0
LINE
  5
221
330
17
100
AcDbEntity
  8
A-DIMS
100
AcDbLine
 10
25.3
 20
24.8
 30
0.0
 11
26.9
 21
24.8
 31
0.0
  0
LINE
  5
222
330
17
100
AcDbEntity
  8
A-DIMS
100
AcDbLine
 10
25.3
 20
25.0
 30
0.0
 11
26.9
 21
25.0
 31
0.0
  0
LINE
  5
223
330
17
100
AcDbEntity
  8
A-DIMS
100
AcDbLine
 10
25.3
 20
25.3
 30
0.0
 11
26.9
 21
25.3
 31
0.0
  0
LINE
  5
224
330
17
100
AcDbEntity
  8
A-DIMS
100
AcDbLine
 10
25.3
 20
25.7
 30
0.0
 11
26.9
 21
25.7
 31
0.0
  0
LINE
  5
225
330
17
100
AcDbEntity
  8
A-DIMS
100
AcDbLine
 10
25.3
 20
28.7
 30
0.0
 11
26.9
 21
28.7
 31
0.0
  0
LINE
  5
226
330
17
100
AcDbEntity
  8
A-DIMS
100
AcDbLine
 10
25.3
 20
32.0
 30
0.0
 11
26.9
 21
32.0
 31
0.0
  0
LINE
  5
227
330
17
100
AcDbEntity
  8
A-DIMS
100
AcDbLine
 10
27.5
 20
16.0
 30
0.0
 11
27.5
 21
32.0
 31
0.0
  0
LINE
  5
228
330
17
100
AcDbEntity
  8
A-DIMS
100
AcDbLine
 10
28.25
 20
16.0
 30
0.0
 11
28.25
 21
32.0
 31
0.0
  0
ENDSEC
  0
SECTION
  2
OBJECTS
  0
DICTIONARY
  5
A
330
0
100
AcDbDictionary
281
1
  3
ACAD_COLOR
350
B
  3
ACAD_GROUP
350
C
  3
ACAD_LAYOUT
350
D
  3
ACAD_MATERIAL
350
E
  3
ACAD_MLEADERSTYLE
350
F
  3
ACAD_MLINESTYLE
350
10
  3
ACAD_PLOTSETTINGS
350
11
  3
ACAD_PLOTSTYLENAME
350
12
  3
ACAD_SCALELIST
350
14
  3
ACAD_TABLESTYLE
350
15
  3
ACAD_VISUALSTYLE
350
16
  3
EZDXF_META
350
2D
  0
DICTIONARY
  5
B
330
A
100
AcDbDictionary
281
1
  0
DICTIONARY
  5
C
330
A
100
AcDbDictionary
281
1
  0
DICTIONARY
  5
D
330
A
100
AcDbDictionary
281
1
  3
Model
350
1A
  3
Layout1
350
1E
  0
DICTIONARY
  5
E
330
A
100
AcDbDictionary
281
1
  3
ByBlock
350
1F
  3
ByLayer
350
20
  3
Global
350
21
  0
DICTIONARY
  5
F
330
A
100
AcDbDictionary
281
1
  3
Standard
350
2C
  0
DICTIONARY
  5
10
330
A
100
AcDbDictionary
281
1
  3
Standard
350
22
  0
DICTIONARY
  5
11
330
A
100
AcDbDictionary
281
1
  0
ACDBDICTIONARYWDFLT
  5
12
330
A
100
AcDbDictionary
281
1
  3
Normal
350
13
100
AcDbDictionaryWithDefault
340
13
  0
ACDBPLACEHOLDER
  5
13
330
12
  0
DICTIONARY
  5
14
330
A
100
AcDbDictionary
281
1
  0
DICTIONARY
  5
15
330
A
100
AcDbDictionary
281
1
  0
DICTIONARY
  5
16
330
A
100
AcDbDictionary
281
1
  3
2dWireframe
350
5A
  3
Basic
350
5B
  3
Brighten
350
5C
  3
ColorChange
350
5D
  3
Conceptual
350
5E
  3
Dim
350
5F
  3
EdgeColorOff
350
60
  3
Facepattern
350
61
  3
Flat
350
62
  3
FlatWithEdges
350
63
  3
Gouraud
350
64
  3
GouraudWithEdges
350
65
  3
Hidden
350
66
  3
JitterOff
350
67
  3
Linepattern
350
68
  3
Modeling
350
69
  3
OverhangOff
350
6A
  3
Realistic
350
6B
  3
Shaded
350
6C
  3
Shaded with edges
350
6D
  3
Shades of Gray
350
6E
  3
Sketchy
350
6F
  3
Thicken
350
70
  3
Wireframe
350
71
  3
X-Ray
350
72
  0
LAYOUT
  5
1A
330
D
100
AcDbPlotSettings
  1

  4
A3
  6

 40
7.5
 41
20.0
 42
7.5
 43
20.0
 44
420.0
 45
297.0
 46
0.0
 47
0.0
 48
0.0
 49
0.0
140
0.0
141
0.0
142
1.0
143
1.0
 70
1024
 72
1
 73
0
 74
5
  7

 75
16
 76
0
 77
2
 78
300
147
1.0
148
0.0
149
0.0
100
AcDbLayout
  1
Model
 70
1
 71
0
 10
0.0
 20
0.0
 11
420.0
 21
297.0
 12
0.0
 22
0.0
 32
0.0
 14
1e+20
 24
1e+20
 34
1e+20
 15
-1e+20
 25
-1e+20
 35
-1e+20
146
0.0
 13
0.0
 23
0.0
 33
0.0
 16
1.0
 26
0.0
 36
0.0
 17
0.0
 27
1.0
 37
0.0
 76
1
330
17
  0
LAYOUT
  5
1E
330
D
100
AcDbPlotSettings
  1

  4
A3
  6

 40
7.5
 41
20.0
 42
7.5
 43
20.0
 44
420.0
 45
297.0
 46
0.0
 47
0.0
 48
0.0
 49
0.0
140
0.0
141
0.0
142
1.0
143
1.0
 70
0
 72
1
 73
0
 74
5
  7

 75
16
 76
0
 77
2
 78
300
147
1.0
148
0.0
149
0.0
100
AcDbLayout
  1
Layout1
 70
1
 71
1
 10
0.0
 20
0.0
 11
420.0
 21
297.0
 12
0.0
 22
0.0
 32
0.0
 14
1e+20
 24
1e+20
 34
1e+20
 15
-1e+20
 25
-1e+20
 35
-1e+20
146
0.0
 13
0.0
 23
0.0
 33
0.0
 16
1.0
 26
0.0
 36
0.0
 17
0.0
 27
1.0
 37
0.0
 76
1
330
1B
  0
MATERIAL
  5
1F
102
{ACAD_REACTORS
330
E
102
}
330
E
100
AcDbMaterial
  1
ByBlock
  2

 70
0
 40
1.0
 71
1
 41
1.0
 91
-1023410177
 42
1.0
 72
1
  3

 73
1
 74
1
 75
1
 44
0.5
 73
0
 45
1.0
 46
1.0
 77
1
  4

 78
1
 79
1
170
1
 48
1.0
171
1
  6

172
1
173
1
174
1
140
1.0
141
1.0
175
1
  7

176
1
177
1
178
1
143
1.0
179
1
  8

270
1
271
1
272
1
145
1.0
146
1.0
273
1
  9

274
1
275
1
276
1
 42
1.0
 72
1
  3

 73
1
 74
1
 75
1
 94
63
  0
MATERIAL
  5
20
102
{ACAD_REACTORS
330
E
102
}
330
E
100
AcDbMaterial
  1
ByLayer
  2

 70
0
 40
1.0
 71
1
 41
1.0
 91
-1023410177
 42
1.0
 72
1
  3

 73
1
 74
1
 75
1
 44
0.5
 73
0
 45
1.0
 46
1.0
 77
1
  4

 78
1
 79
1
170
1
 48
1.0
171
1
  6

172
1
173
1
174
1
140
1.0
141
1.0
175
1
  7

176
1
177
1
178
1
143
1.0
179
1
  8

270
1
271
1
272
1
145
1.0
146
1.0
273
1
  9

274
1
275
1
276
1
 42
1.0
 72
1
  3

 73
1
 74
1
 75
1
 94
63
  0
MATERIAL
  5
21
102
{ACAD_REACTORS
330
E
102
}
330
E
100
AcDbMaterial
  1
Global
  2

 70
0
 40
1.0
 71
1
 41
1.0
 91
-1023410177
 42
1.0
 72
1
  3

 73
1
 74
1
 75
1
 44
0.5
 73
0
 45
1.0
 46
1.0
 77
1
  4

 78
1
 79
1
170
1
 48
1.0
171
1
  6

172
1
173
1
174
1
140
1.0
141
1.0
175
1
  7

176
1
177
1
178
1
143
1.0
179
1
  8

270
1
271
1
272
1
145
1.0
146
1.0
273
1
  9

274
1
275
1
276
1
 42
1.0
 72
1
  3

 73
1
 74
1
 75
1
 94
63
  0
MLINESTYLE
  5
22
102
{ACAD_REACTORS
330
10
102
}
330
10
100
AcDbMlineStyle
  2
Standard
 70
0
  3

 62
256
 51
90.0
 52
90.0
 71
2
 49
0.5
 62
256
  6
BYLAYER
 49
-0.5
 62
256
  6
BYLAYER
  0
MLEADERSTYLE
  5
2C
102
{ACAD_REACTORS
330
F
102
}
330
F
100
AcDbMLeaderStyle
179
2
170
2
171
1
172
0
 90
2
 40
0.0
 41
0.0
173
1
 91
-1056964608
 92
-2
290
1
 42
2.0
291
1
 43
8.0
  3
Standard
 44
4.0
300

342
29
174
1
175
1
176
0
178
1
 93
-1056964608
 45
4.0
292
0
297
0
 46
4.0
 94
-1056964608
 47
1.0
 49
1.0
140
1.0
294
1
141
0.0
177
0
142
1.0
295
0
296
0
143
3.75
271
0
272
9
273
9
  0
DICTIONARY
  5
2D
330
A
100
AcDbDictionary
280
1
281
1
  3
CREATED_BY_EZDXF
350
2E
  3
WRITTEN_BY_EZDXF
350
22B
  0
DICTIONARYVAR
  5
2E
330
2D
100
DictionaryVariables
280
0
  1
1.4.4 @ 2026-10-04T18:18:36.221350+00:00
  0
VISUALSTYLE
  5
5A
102
{ACAD_REACTORS
330
16
102
}
330
16
100
AcDbVisualStyle
  2
2dWireframe
 70
4
177
3
291
0
 70
58
 90
2
176
1
 90
2
176
1
 90
0
176
1
 90
0
176
1
 40
0.6
176
1
 40
30.0
176
1
 62
7
420
16777215
176
1
 90
1
176
1
 90
4
176
1
 62
7
176
1
 62
257
176
1
 90
1
176
1
 90
1
176
1
 40
1.0
176
1
 90
8
176
1
 62
7
176
1
 40
1.0
176
1
 90
1
176
1
 90
6
176
1
 90
2
176
1
 62
7
176
1
 90
5
176
1
 90
0
176
1
 90
0
176
1
290
0
176
1
 90
1
176
1
 40
0.0
176
1
 90
0
176
1
290
1
176
1
290
1
176
1
290
0
176
1
290
0
176
1
290
0
176
1
290
0
176
1
290
0
176
1
290
0
176
1
290
0
176
1
 90
50
176
1
 40
0.0
176
1
 40
1.0
176
1
 90
0
176
1
 62
18
420
0
176
1
 90
50
176
1
 90
3
176
1
 62
5
420
255
176
1
290
0
176
1
 90
50
176
1
 90
50
176
1
 90
50
176
1
290
0
176
1
 90
50
176
1
 62
256
176
0
 40
1.0
176
0
 90
2
176
1
  1
strokes_ogs.tif
176
1
290
0
176
1
 40
1.0
176
1
 40
1.0
176
1
  0
VISUALSTYLE
  5
5B
102
{ACAD_REACTORS
330
16
102
}
330
16
100
AcDbVisualStyle
  2
Basic
 70
7
177
3
291
1
 70
58
 90
2
176
1
 90
2
176
1
 90
0
176
1
 90
1
176
1
 40
0.6
176
1
 40
30.0
176
1
 62
7
420
16777215
176
1
 90
1
176
1
 90
4
176
1
 62
7
176
1
 62
257
176
1
 90
1
176
1
 90
1
176
1
 40
1.0
176
1
 90
8
176
1
 62
7
176
1
 40
1.0
176
1
 90
1
176
1
 90
6
176
1
 90
2
176
1
 62
7
176
1
 90
5
176
1
 90
0
176
1
 90
0
176
1
290
0
176
1
 90
1
176
1
 40
0.0
176
1
 90
0
176
1
290
0
176
1
290
1
176
1
290
1
176
1
290
0
176
1
290
0
176
1
290
0
176
1
290
0
176
1
290
0
176
1
290
0
176
1
 90
50
176
1
 40
0.0
176
1
 40
1.0
176
1
 90
0
176
1
 62
18
420
0
176
1
 90
50
176
1
 90
3
176
1
 62
5
420
255
176
1
290
0
176
1
 90
50
176
1
 90
50
176
1
 90
50
176
1
290
0
176
1
 90
50
176
1
 62
256
176
0
 40
1.0
176
0
 90
2
176
1
  1
strokes_ogs.tif
176
1
290
0
176
1
 40
1.0
176
1
 40
1.0
176
1
  0
VISUALSTYLE
  5
5C
102
{ACAD_REACTORS
330
16
102
}
330
16
100
AcDbVisualStyle
  2
Brighten
 70
12
177
3
291
1
 70
58
 90
2
176
1
 90
2
176
1
 90
0
176
1
 90
2
176
1
 40
0.6
176
1
 40
30.0
176
1
 62
7
420
16777215
176
1
 90
1
176
1
 90
4
176
1
 62
7
176
1
 62
257
176
1
 90
1
176
1
 90
1
176
1
 40
1.0
176
1
 90
8
176
1
 62
7
176
1
 40
1.0
176
1
 90
1
176
1
 90
6
176
1
 90
2
176
1
 62
7
176
1
 90
5
176
1
 90
0
176
1
 90
0
176
1
290
0
176
1
 90
1
176
1
 40
0.0
176
1
 90
0
176
1
290
0
176
1
290
1
176
1
290
1
176
1
290
0
176
1
290
0
176
1
290
0
176
1
290
0
176
1
290
0
176
1
290
0
176
1
 90
50
176
1
 40
0.0
176
1
 40
1.0
176
1
 90
0
176
1
 62
18
420
0
176
1
 90
50
176
1
 90
3
176
1
 62
5
420
255
176
1
290
0
176
1
 90
50
176
1
 90
50
176
1
 90
50
176
1
290
0
176
1
 90
50
176
1
 62
256
176
0
 40
1.0
176
0
 90
2
176
1
  1
strokes_ogs.tif
176
1
290
0
176
1
 40
1.0
176
1
 40
1.0
176
1
  0
VISUALSTYLE
  5
5D
102
{ACAD_REACTORS
330
16
102
}
330
16
100
AcDbVisualStyle
  2
ColorChange
 70
16
177
3
291
1
 70
58
 90
2
176
1
 90
2
176
1
 90
0
176
1
 90
2
176
1
 40
0.6
176
1
 40
30.0
176
1
 62
7
420
16777215
176
1
 90
1
176
1
 90
4
176
1
 62
7
176
1
 62
257
176
1
 90
1
176
1
 90
1
176
1
 40
1.0
176
1
 90
8
176
1
 62
7
176
1
 40
1.0
176
1
 90
1
176
1
 90
6
176
1
 90
2
176
1
 62
7
176
1
 90
5
176
1
 90
0
176
1
 90
0
176
1
290
0
176
1
 90
1
176
1
 40
0.0
176
1
 90
0
176
1
290
0
176
1
290
1
176
1
290
1
176
1
290
0
176
1
290
0
176
1
290
0
176
1
290
0
176
1
290
0
176
1
290
0
176
1
 90
50
176
1
 40
0.0
176
1
 40
1.0
176
1
 90
0
176
1
 62
18
420
0
176
1
 90
50
176
1
 90
3
176
1
 62
5
420
255
176
1
290
0
176
1
 90
50
176
1
 90
50
176
1
 90
50
176
1
290
0
176
1
 90
50
176
1
 62
256
176
0
 40
1.0
176
0
 90
2
176
1
  1
strokes_ogs.tif
176
1
290
0
176
1
 40
1.0
176
1
 40
1.0
176
1
  0
VISUALSTYLE
  5
5E
102
{ACAD_REACTORS
330
16
102
}
330
16
100
AcDbVisualStyle
  2
Conceptual
 70
9
177
3
291
0
 70
58
 90
2
176
1
 90
2
176
1
 90
0
176
1
 90
3
176
1
 40
0.6
176
1
 40
30.0
176
1
 62
7
420
16777215
176
1
 90
1
176
1
 90
4
176
1
 62
7
176
1
 62
257
176
1
 90
1
176
1
 90
1
176
1
 40
1.0
176
1
 90
8
176
1
 62
7
176
1
 40
1.0
176
1
 90
1
176
1
 90
6
176
1
 90
2
176
1
 62
7
176
1
 90
5
176
1
 90
0
176
1
 90
0
176
1
290
0
176
1
 90
1
176
1
 40
0.0
176
1
 90
0
176
1
290
0
176
1
290
1
176
1
290
1
176
1
290
0
176
1
290
0
176
1
290
0
176
1
290
0
176
1
290
0
176
1
290
0
176
1
 90
50
176
1
 40
0.0
176
1
 40
1.0
176
1
 90
0
176
1
 62
18
420
0
176
1
 90
50
176
1
 90
3
176
1
 62
5
420
255
176
1
290
0
176
1
 90
50
176
1
 90
50
176
1
 90
50
176
1
290
0
176
1
 90
50
176
1
 62
256
176
0
 40
1.0
176
0
 90
2
176
1
  1
strokes_ogs.tif
176
1
290
0
176
1
 40
1.0
176
1
 40
1.0
176
1
  0
VISUALSTYLE
  5
5F
102
{ACAD_REACTORS
330
16
102
}
330
16
100
AcDbVisualStyle
  2
Dim
 70
11
177
3
291
1
 70
58
 90
2
176
1
 90
2
176
1
 90
0
176
1
 90
2
176
1
 40
0.6
176
1
 40
30.0
176
1
 62
7
420
16777215
176
1
 90
1
176
1
 90
4
176
1
 62
7
176
1
 62
257
176
1
 90
1
176
1
 90
1
176
1
 40
1.0
176
1
 90
8
176
1
 62
7
176
1
 40
1.0
176
1
 90
1
176
1
 90
6
176
1
 90
2
176
1
 62
7
176
1
 90
5
176
1
 90
0
176
1
 90
0
176
1
290
0
176
1
 90
1
176
1
 40
0.0
176
1
 90
0
176
1
290
0
176
1
290
1
176
1
290
1
176
1
290
0
176
1
290
0
176
1
290
0
176
1
290
0
176
1
290
0
176
1
290
0
176
1
 90
50
176
1
 40
0.0
176
1
 40
1.0
176
1
 90
0
176
1
 62
18
420
0
176
1
 90
50
176
1
 90
3
176
1
 62
5
420
255
176
1
290
0
176
1
 90
50
176
1
 90
50
176
1
 90
50
176
1
290
0
176
1
 90
50
176
1
 62
256
176
0
 40
1.0
176
0
 90
2
176
1
  1
strokes_ogs.tif
176
1
290
0
176
1
 40
1.0
176
1
 40
1.0
176
1
  0
VISUALSTYLE
  5
60
102
{ACAD_REACTORS
330
16
102
}
330
16
100
AcDbVisualStyle
  2
EdgeColorOff
 70
22
177
3
291
1
 70
58
 90
2
176
1
 90
2
176
1
 90
0
176
1
 90
2
176
1
 40
0.6
176
1
 40
30.0
176
1
 62
7
420
16777215
176
1
 90
1
176
1
 90
4
176
1
 62
7
176
1
 62
257
176
1
 90
1
176
1
 90
1
176
1
 40
1.0
176
1
 90
8
176
1
 62
7
176
1
 40
1.0
176
1
 90
1
176
1
 90
6
176
1
 90
2
176
1
 62
7
176
1
 90
5
176
1
 90
0
176
1
 90
0
176
1
290
0
176
1
 90
1
176
1
 40
0.0
176
1
 90
0
176
1
290
0
176
1
290
1
176
1
290
1
176
1
290
0
176
1
290
0
176
1
290
0
176
1
290
0
176
1
290
0
176
1
290
0
176
1
 90
50
176
1
 40
0.0
176
1
 40
1.0
176
1
 90
0
176
1
 62
18
420
0
176
1
 90
50
176
1
 90
3
176
1
 62
5
420
255
176
1
290
0
176
1
 90
50
176
1
 90
50
176
1
 90
50
176
1
290
0
176
1
 90
50
176
1
 62
256
176
0
 40
1.0
176
0
 90
2
176
1
  1
strokes_ogs.tif
176
1
290
0
176
1
 40
1.0
176
1
 40
1.0
176
1
  0
VISUALSTYLE
  5
61
102
{ACAD_REACTORS
330
16
102
}
330
16
100
AcDbVisualStyle
  2
Facepattern
 70
15
177
3
291
1
 70
58
 90
2
176
1
 90
2
176
1
 90
0
176
1
 90
2
176
1
 40
0.6
176
1
 40
30.0
176
1
 62
7
420
16777215
176
1
 90
1
176
1
 90
4
176
1
 62
7
176
1
 62
257
176
1
 90
1
176
1
 90
1
176
1
 40
1.0
176
1
 90
8
176
1
 62
7
176
1
 40
1.0
176
1
 90
1
176
1
 90
6
176
1
 90
2
176
1
 62
7
176
1
 90
5
176
1
 90
0
176
1
 90
0
176
1
290
0
176
1
 90
1
176
1
 40
0.0
176
1
 90
0
176
1
290
0
176
1
290
1
176
1
290
1
176
1
290
0
176
1
290
0
176
1
290
0
176
1
290
0
176
1
290
0
176
1
290
0
176
1
 90
50
176
1
 40
0.0
176
1
 40
1.0
176
1
 90
0
176
1
 62
18
420
0
176
1
 90
50
176
1
 90
3
176
1
 62
5
420
255
176
1
290
0
176
1
 90
50
176
1
 90
50
176
1
 90
50
176
1
290
0
176
1
 90
50
176
1
 62
256
176
0
 40
1.0
176
0
 90
2
176
1
  1
strokes_ogs.tif
176
1
290
0
176
1
 40
1.0
176
1
 40
1.0
176
1
  0
VISUALSTYLE
  5
62
102
{ACAD_REACTORS
330
16
102
}
330
16
100
AcDbVisualStyle
  2
Flat
 70
0
177
3
291
1
 70
58
 90
2
176
1
 90
2
176
1
 90
0
176
1
 90
2
176
1
 40
0.6
176
1
 40
30.0
176
1
 62
7
420
16777215
176
1
 90
1
176
1
 90
4
176
1
 62
7
176
1
 62
257
176
1
 90
1
176
1
 90
1
176
1
 40
1.0
176
1
 90
8
176
1
 62
7
176
1
 40
1.0
176
1
 90
1
176
1
 90
6
176
1
 90
2
176
1
 62
7
176
1
 90
5
176
1
 90
0
176
1
 90
0
176
1
290
0
176
1
 90
1
176
1
 40
0.0
176
1
 90
0
176
1
290
0
176
1
290
1
176
1
290
1
176
1
290
0
176
1
290
0
176
1
290
0
176
1
290
0
176
1
290
0
176
1
290
0
176
1
 90
50
176
1
 40
0.0
176
1
 40
1.0
176
1
 90
0
176
1
 62
18
420
0
176
1
 90
50
176
1
 90
3
176
1
 62
5
420
255
176
1
290
0
176
1
 90
50
176
1
 90
50
176
1
 90
50
176
1
290
0
176
1
 90
50
176
1
 62
256
176
0
 40
1.0
176
0
 90
2
176
1
  1
strokes_ogs.tif
176
1
290
0
176
1
 40
1.0
176
1
 40
1.0
176
1
  0
VISUALSTYLE
  5
63
102
{ACAD_REACTORS
330
16
102
}
330
16
100
AcDbVisualStyle
  2
FlatWithEdges
 70
1
177
3
291
1
 70
58
 90
2
176
1
 90
2
176
1
 90
0
176
1
 90
2
176
1
 40
0.6
176
1
 40
30.0
176
1
 62
7
420
16777215
176
1
 90
1
176
1
 90
4
176
1
 62
7
176
1
 62
257
176
1
 90
1
176
1
 90
1
176
1
 40
1.0
176
1
 90
8
176
1
 62
7
176
1
 40
1.0
176
1
 90
1
176
1
 90
6
176
1
 90
2
176
1
 62
7
176
1
 90
5
176
1
 90
0
176
1
 90
0
176
1
290
0
176
1
 90
1
176
1
 40
0.0
176
1
 90
0
176
1
290
0
176
1
290
1
176
1
290
1
176
1
290
0
176
1
290
0
176
1
290
0
176
1
290
0
176
1
290
0
176
1
290
0
176
1
 90
50
176
1
 40
0.0
176
1
 40
1.0
176
1
 90
0
176
1
 62
18
420
0
176
1
 90
50
176
1
 90
3
176
1
 62
5
420
255
176
1
290
0
176
1
 90
50
176
1
 90
50
176
1
 90
50
176
1
290
0
176
1
 90
50
176
1
 62
256
176
0
 40
1.0
176
0
 90
2
176
1
  1
strokes_ogs.tif
176
1
290
0
176
1
 40
1.0
176
1
 40
1.0
176
1
  0
VISUALSTYLE
  5
64
102
{ACAD_REACTORS
330
16
102
}
330
16
100
AcDbVisualStyle
  2
Gouraud
 70
2
177
3
291
1
 70
58
 90
2
176
1
 90
2
176
1
 90
0
176
1
 90
2
176
1
 40
0.6
176
1
 40
30.0
176
1
 62
7
420
16777215
176
1
 90
1
176
1
 90
4
176
1
 62
7
176
1
 62
257
176
1
 90
1
176
1
 90
1
176
1
 40
1.0
176
1
 90
8
176
1
 62
7
176
1
 40
1.0
176
1
 90
1
176
1
 90
6
176
1
 90
2
176
1
 62
7
176
1
 90
5
176
1
 90
0
176
1
 90
0
176
1
290
0
176
1
 90
1
176
1
 40
0.0
176
1
 90
0
176
1
290
0
176
1
290
1
176
1
290
1
176
1
290
0
176
1
290
0
176
1
290
0
176
1
290
0
176
1
290
0
176
1
290
0
176
1
 90
50
176
1
 40
0.0
176
1
 40
1.0
176
1
 90
0
176
1
 62
18
420
0
176
1
 90
50
176
1
 90
3
176
1
 62
5
420
255
176
1
290
0
176
1
 90
50
176
1
 90
50
176
1
 90
50
176
1
290
0
176
1
 90
50
176
1
 62
256
176
0
 40
1.0
176
0
 90
2
176
1
  1
strokes_ogs.tif
176
1
290
0
176
1
 40
1.0
176
1
 40
1.0
176
1
  0
VISUALSTYLE
  5
65
102
{ACAD_REACTORS
330
16
102
}
330
16
100
AcDbVisualStyle
  2
GouraudWithEdges
 70
3
177
3
291
1
 70
58
 90
2
176
1
 90
2
176
1
 90
0
176
1
 90
2
176
1
 40
0.6
176
1
 40
30.0
176
1
 62
7
420
16777215
176
1
 90
1
176
1
 90
4
176
1
 62
7
176
1
 62
257
176
1
 90
1
176
1
 90
1
176
1
 40
1.0
176
1
 90
8
176
1
 62
7
176
1
 40
1.0
176
1
 90
1
176
1
 90
6
176
1
 90
2
176
1
 62
7
176
1
 90
5
176
1
 90
0
176
1
 90
0
176
1
290
0
176
1
 90
1
176
1
 40
0.0
176
1
 90
0
176
1
290
0
176
1
290
1
176
1
290
1
176
1
290
0
176
1
290
0
176
1
290
0
176
1
290
0
176
1
290
0
176
1
290
0
176
1
 90
50
176
1
 40
0.0
176
1
 40
1.0
176
1
 90
0
176
1
 62
18
420
0
176
1
 90
50
176
1
 90
3
176
1
 62
5
420
255
176
1
290
0
176
1
 90
50
176
1
 90
50
176
1
 90
50
176
1
290
0
176
1
 90
50
176
1
 62
256
176
0
 40
1.0
176
0
 90
2
176
1
  1
strokes_ogs.tif
176
1
290
0
176
1
 40
1.0
176
1
 40
1.0
176
1
  0
VISUALSTYLE
  5
66
102
{ACAD_REACTORS
330
16
102
}
330
16
100
AcDbVisualStyle
  2
Hidden
 70
6
177
3
291
0
 70
58
 90
2
176
1
 90
2
176
1
 90
0
176
1
 90
1
176
1
 40
0.6
176
1
 40
30.0
176
1
 62
7
420
16777215
176
1
 90
1
176
1
 90
4
176
1
 62
7
176
1
 62
257
176
1
 90
1
176
1
 90
1
176
1
 40
1.0
176
1
 90
8
176
1
 62
7
176
1
 40
1.0
176
1
 90
1
176
1
 90
6
176
1
 90
2
176
1
 62
7
176
1
 90
5
176
1
 90
0
176
1
 90
0
176
1
290
0
176
1
 90
1
176
1
 40
0.0
176
1
 90
0
176
1
290
0
176
1
290
1
176
1
290
1
176
1
290
0
176
1
290
0
176
1
290
0
176
1
290
0
176
1
290
0
176
1
290
0
176
1
 90
50
176
1
 40
0.0
176
1
 40
1.0
176
1
 90
0
176
1
 62
18
420
0
176
1
 90
50
176
1
 90
3
176
1
 62
5
420
255
176
1
290
0
176
1
 90
50
176
1
 90
50
176
1
 90
50
176
1
290
0
176
1
 90
50
176
1
 62
256
176
0
 40
1.0
176
0
 90
2
176
1
  1
strokes_ogs.tif
176
1
290
0
176
1
 40
1.0
176
1
 40
1.0
176
1
  0
VISUALSTYLE
  5
67
102
{ACAD_REACTORS
330
16
102
}
330
16
100
AcDbVisualStyle
  2
JitterOff
 70
20
177
3
291
1
 70
58
 90
2
176
1
 90
2
176
1
 90
0
176
1
 90
2
176
1
 40
0.6
176
1
 40
30.0
176
1
 62
7
420
16777215
176
1
 90
1
176
1
 90
4
176
1
 62
7
176
1
 62
257
176
1
 90
1
176
1
 90
1
176
1
 40
1.0
176
1
 90
8
176
1
 62
7
176
1
 40
1.0
176
1
 90
1
176
1
 90
6
176
1
 90
2
176
1
 62
7
176
1
 90
5
176
1
 90
0
176
1
 90
0
176
1
290
0
176
1
 90
1
176
1
 40
0.0
176
1
 90
0
176
1
290
0
176
1
290
1
176
1
290
1
176
1
290
0
176
1
290
0
176
1
290
0
176
1
290
0
176
1
290
0
176
1
290
0
176
1
 90
50
176
1
 40
0.0
176
1
 40
1.0
176
1
 90
0
176
1
 62
18
420
0
176
1
 90
50
176
1
 90
3
176
1
 62
5
420
255
176
1
290
0
176
1
 90
50
176
1
 90
50
176
1
 90
50
176
1
290
0
176
1
 90
50
176
1
 62
256
176
0
 40
1.0
176
0
 90
2
176
1
  1
strokes_ogs.tif
176
1
290
0
176
1
 40
1.0
176
1
 40
1.0
176
1
  0
VISUALSTYLE
  5
68
102
{ACAD_REACTORS
330
16
102
}
330
16
100
AcDbVisualStyle
  2
Linepattern
 70
14
177
3
291
1
 70
58
 90
2
176
1
 90
2
176
1
 90
0
176
1
 90
2
176
1
 40
0.6
176
1
 40
30.0
176
1
 62
7
420
16777215
176
1
 90
1
176
1
 90
4
176
1
 62
7
176
1
 62
257
176
1
 90
1
176
1
 90
1
176
1
 40
1.0
176
1
 90
8
176
1
 62
7
176
1
 40
1.0
176
1
 90
1
176
1
 90
6
176
1
 90
2
176
1
 62
7
176
1
 90
5
176
1
 90
0
176
1
 90
0
176
1
290
0
176
1
 90
1
176
1
 40
0.0
176
1
 90
0
176
1
290
0
176
1
290
1
176
1
290
1
176
1
290
0
176
1
290
0
176
1
290
0
176
1
290
0
176
1
290
0
176
1
290
0
176
1
 90
50
176
1
 40
0.0
176
1
 40
1.0
176
1
 90
0
176
1
 62
18
420
0
176
1
 90
50
176
1
 90
3
176
1
 62
5
420
255
176
1
290
0
176
1
 90
50
176
1
 90
50
176
1
 90
50
176
1
290
0
176
1
 90
50
176
1
 62
256
176
0
 40
1.0
176
0
 90
2
176
1
  1
strokes_ogs.tif
176
1
290
0
176
1
 40
1.0
176
1
 40
1.0
176
1
  0
VISUALSTYLE
  5
69
102
{ACAD_REACTORS
330
16
102
}
330
16
100
AcDbVisualStyle
  2
Modeling
 70
10
177
3
291
0
 70
58
 90
2
176
1
 90
2
176
1
 90
0
176
1
 90
2
176
1
 40
0.6
176
1
 40
30.0
176
1
 62
7
420
16777215
176
1
 90
1
176
1
 90
4
176
1
 62
7
176
1
 62
257
176
1
 90
1
176
1
 90
1
176
1
 40
1.0
176
1
 90
8
176
1
 62
7
176
1
 40
1.0
176
1
 90
1
176
1
 90
6
176
1
 90
2
176
1
 62
7
176
1
 90
5
176
1
 90
0
176
1
 90
0
176
1
290
0
176
1
 90
1
176
1
 40
0.0
176
1
 90
0
176
1
290
0
176
1
290
1
176
1
290
1
176
1
290
0
176
1
290
0
176
1
290
0
176
1
290
0
176
1
290
0
176
1
290
0
176
1
 90
50
176
1
 40
0.0
176
1
 40
1.0
176
1
 90
0
176
1
 62
18
420
0
176
1
 90
50
176
1
 90
3
176
1
 62
5
420
255
176
1
290
0
176
1
 90
50
176
1
 90
50
176
1
 90
50
176
1
290
0
176
1
 90
50
176
1
 62
256
176
0
 40
1.0
176
0
 90
2
176
1
  1
strokes_ogs.tif
176
1
290
0
176
1
 40
1.0
176
1
 40
1.0
176
1
  0
VISUALSTYLE
  5
6A
102
{ACAD_REACTORS
330
16
102
}
330
16
100
AcDbVisualStyle
  2
OverhangOff
 70
21
177
3
291
1
 70
58
 90
2
176
1
 90
2
176
1
 90
0
176
1
 90
2
176
1
 40
0.6
176
1
 40
30.0
176
1
 62
7
420
16777215
176
1
 90
1
176
1
 90
4
176
1
 62
7
176
1
 62
257
176
1
 90
1
176
1
 90
1
176
1
 40
1.0
176
1
 90
8
176
1
 62
7
176
1
 40
1.0
176
1
 90
1
176
1
 90
6
176
1
 90
2
176
1
 62
7
176
1
 90
5
176
1
 90
0
176
1
 90
0
176
1
290
0
176
1
 90
1
176
1
 40
0.0
176
1
 90
0
176
1
290
0
176
1
290
1
176
1
290
1
176
1
290
0
176
1
290
0
176
1
290
0
176
1
290
0
176
1
290
0
176
1
290
0
176
1
 90
50
176
1
 40
0.0
176
1
 40
1.0
176
1
 90
0
176
1
 62
18
420
0
176
1
 90
50
176
1
 90
3
176
1
 62
5
420
255
176
1
290
0
176
1
 90
50
176
1
 90
50
176
1
 90
50
176
1
290
0
176
1
 90
50
176
1
 62
256
176
0
 40
1.0
176
0
 90
2
176
1
  1
strokes_ogs.tif
176
1
290
0
176
1
 40
1.0
176
1
 40
1.0
176
1
  0
VISUALSTYLE
  5
6B
102
{ACAD_REACTORS
330
16
102
}
330
16
100
AcDbVisualStyle
  2
Realistic
 70
8
177
3
291
0
 70
58
 90
2
176
1
 90
2
176
1
 90
0
176
1
 90
2
176
1
 40
0.6
176
1
 40
30.0
176
1
 62
7
420
16777215
176
1
 90
1
176
1
 90
4
176
1
 62
7
176
1
 62
257
176
1
 90
1
176
1
 90
1
176
1
 40
1.0
176
1
 90
8
176
1
 62
7
176
1
 40
1.0
176
1
 90
1
176
1
 90
6
176
1
 90
2
176
1
 62
7
176
1
 90
5
176
1
 90
0
176
1
 90
0
176
1
290
0
176
1
 90
1
176
1
 40
0.0
176
1
 90
0
176
1
290
0
176
1
290
1
176
1
290
1
176
1
290
0
176
1
290
0
176
1
290
0
176
1
290
0
176
1
290
0
176
1
290
0
176
1
 90
50
176
1
 40
0.0
176
1
 40
1.0
176
1
 90
0
176
1
 62
18
420
0
176
1
 90
50
176
1
 90
3
176
1
 62
5
420
255
176
1
290
0
176
1
 90
50
176
1
 90
50
176
1
 90
50
176
1
290
0
176
1
 90
50
176
1
 62
256
176
0
 40
1.0
176
0
 90
2
176
1
  1
strokes_ogs.tif
176
1
290
0
176
1
 40
1.0
176
1
 40
1.0
176
1
  0
VISUALSTYLE
  5
6C
102
{ACAD_REACTORS
330
16
102
}
330
16
100
AcDbVisualStyle
  2
Shaded
 70
27
177
3
291
0
 70
58
 90
2
176
1
 90
2
176
1
 90
0
176
1
 90
2
176
1
 40
0.6
176
1
 40
30.0
176
1
 62
7
420
16777215
176
1
 90
1
176
1
 90
4
176
1
 62
7
176
1
 62
257
176
1
 90
1
176
1
 90
1
176
1
 40
1.0
176
1
 90
8
176
1
 62
7
176
1
 40
1.0
176
1
 90
1
176
1
 90
6
176
1
 90
2
176
1
 62
7
176
1
 90
5
176
1
 90
0
176
1
 90
0
176
1
290
0
176
1
 90
1
176
1
 40
0.0
176
1
 90
0
176
1
290
0
176
1
290
1
176
1
290
1
176
1
290
0
176
1
290
0
176
1
290
0
176
1
290
0
176
1
290
0
176
1
290
0
176
1
 90
50
176
1
 40
0.0
176
1
 40
1.0
176
1
 90
0
176
1
 62
18
420
0
176
1
 90
50
176
1
 90
3
176
1
 62
5
420
255
176
1
290
0
176
1
 90
50
176
1
 90
50
176
1
 90
50
176
1
290
0
176
1
 90
50
176
1
 62
256
176
0
 40
1.0
176
0
 90
2
176
1
  1
strokes_ogs.tif
176
1
290
0
176
1
 40
1.0
176
1
 40
1.0
176
1
  0
VISUALSTYLE
  5
6D
102
{ACAD_REACTORS
330
16
102
}
330
16
100
AcDbVisualStyle
  2
Shaded with edges
 70
26
177
3
291
0
 70
58
 90
2
176
1
 90
2
176
1
 90
0
176
1
 90
2
176
1
 40
0.6
176
1
 40
30.0
176
1
 62
7
420
16777215
176
1
 90
1
176
1
 90
4
176
1
 62
7
176
1
 62
257
176
1
 90
1
176
1
 90
1
176
1
 40
1.0
176
1
 90
8
176
1
 62
7
176
1
 40
1.0
176
1
 90
1
176
1
 90
6
176
1
 90
2
176
1
 62
7
176
1
 90
5
176
1
 90
0
176
1
 90
0
176
1
290
0
176
1
 90
1
176
1
 40
0.0
176
1
 90
0
176
1
290
0
176
1
290
1
176
1
290
1
176
1
290
0
176
1
290
0
176
1
290
0
176
1
290
0
176
1
290
0
176
1
290
0
176
1
 90
50
176
1
 40
0.0
176
1
 40
1.0
176
1
 90
0
176
1
 62
18
420
0
176
1
 90
50
176
1
 90
3
176
1
 62
5
420
255
176
1
290
0
176
1
 90
50
176
1
 90
50
176
1
 90
50
176
1
290
0
176
1
 90
50
176
1
 62
256
176
0
 40
1.0
176
0
 90
2
176
1
  1
strokes_ogs.tif
176
1
290
0
176
1
 40
1.0
176
1
 40
1.0
176
1
  0
VISUALSTYLE
  5
6E
102
{ACAD_REACTORS
330
16
102
}
330
16
100
AcDbVisualStyle
  2
Shades of Gray
 70
23
177
3
291
0
 70
58
 90
2
176
1
 90
2
176
1
 90
0
176
1
 90
2
176
1
 40
0.6
176
1
 40
30.0
176
1
 62
7
420
16777215
176
1
 90
1
176
1
 90
4
176
1
 62
7
176
1
 62
257
176
1
 90
1
176
1
 90
1
176
1
 40
1.0
176
1
 90
8
176
1
 62
7
176
1
 40
1.0
176
1
 90
1
176
1
 90
6
176
1
 90
2
176
1
 62
7
176
1
 90
5
176
1
 90
0
176
1
 90
0
176
1
290
0
176
1
 90
1
176
1
 40
0.0
176
1
 90
0
176
1
290
0
176
1
290
1
176
1
290
1
176
1
290
0
176
1
290
0
176
1
290
0
176
1
290
0
176
1
290
0
176
1
290
0
176
1
 90
50
176
1
 40
0.0
176
1
 40
1.0
176
1
 90
0
176
1
 62
18
420
0
176
1
 90
50
176
1
 90
3
176
1
 62
5
420
255
176
1
290
0
176
1
 90
50
176
1
 90
50
176
1
 90
50
176
1
290
0
176
1
 90
50
176
1
 62
256
176
0
 40
1.0
176
0
 90
2
176
1
  1
strokes_ogs.tif
176
1
290
0
176
1
 40
1.0
176
1
 40
1.0
176
1
  0
VISUALSTYLE
  5
6F
102
{ACAD_REACTORS
330
16
102
}
330
16
100
AcDbVisualStyle
  2
Sketchy
 70
24
177
3
291
0
 70
58
 90
2
176
1
 90
2
176
1
 90
0
176
1
 90
1
176
1
 40
0.6
176
1
 40
30.0
176
1
 62
7
420
16777215
176
1
 90
1
176
1
 90
4
176
1
 62
7
176
1
 62
257
176
1
 90
1
176
1
 90
1
176
1
 40
1.0
176
1
 90
8
176
1
 62
7
176
1
 40
1.0
176
1
 90
1
176
1
 90
6
176
1
 90
2
176
1
 62
7
176
1
 90
5
176
1
 90
0
176
1
 90
0
176
1
290
0
176
1
 90
1
176
1
 40
0.0
176
1
 90
0
176
1
290
0
176
1
290
1
176
1
290
1
176
1
290
0
176
1
290
0
176
1
290
0
176
1
290
0
176
1
290
0
176
1
290
0
176
1
 90
50
176
1
 40
0.0
176
1
 40
1.0
176
1
 90
0
176
1
 62
18
420
0
176
1
 90
50
176
1
 90
3
176
1
 62
5
420
255
176
1
290
0
176
1
 90
50
176
1
 90
50
176
1
 90
50
176
1
290
0
176
1
 90
50
176
1
 62
256
176
0
 40
1.0
176
0
 90
2
176
1
  1
strokes_ogs.tif
176
1
290
0
176
1
 40
1.0
176
1
 40
1.0
176
1
  0
VISUALSTYLE
  5
70
102
{ACAD_REACTORS
330
16
102
}
330
16
100
AcDbVisualStyle
  2
Thicken
 70
13
177
3
291
1
 70
58
 90
2
176
1
 90
2
176
1
 90
0
176
1
 90
2
176
1
 40
0.6
176
1
 40
30.0
176
1
 62
7
420
16777215
176
1
 90
1
176
1
 90
4
176
1
 62
7
176
1
 62
257
176
1
 90
1
176
1
 90
1
176
1
 40
1.0
176
1
 90
8
176
1
 62
7
176
1
 40
1.0
176
1
 90
1
176
1
 90
6
176
1
 90
2
176
1
 62
7
176
1
 90
5
176
1
 90
0
176
1
 90
0
176
1
290
0
176
1
 90
1
176
1
 40
0.0
176
1
 90
0
176
1
290
0
176
1
290
1
176
1
290
1
176
1
290
0
176
1
290
0
176
1
290
0
176
1
290
0
176
1
290
0
176
1
290
0
176
1
 90
50
176
1
 40
0.0
176
1
 40
1.0
176
1
 90
0
176
1
 62
18
420
0
176
1
 90
50
176
1
 90
3
176
1
 62
5
420
255
176
1
290
0
176
1
 90
50
176
1
 90
50
176
1
 90
50
176
1
290
0
176
1
 90
50
176
1
 62
256
176
0
 40
1.0
176
0
 90
2
176
1
  1
strokes_ogs.tif
176
1
290
0
176
1
 40
1.0
176
1
 40
1.0
176
1
  0
VISUALSTYLE
  5
71
102
{ACAD_REACTORS
330
16
102
}
330
16
100
AcDbVisualStyle
  2
Wireframe
 70
5
177
3
291
0
 70
58
 90
2
176
1
 90
2
176
1
 90
0
176
1
 90
0
176
1
 40
0.6
176
1
 40
30.0
176
1
 62
7
420
16777215
176
1
 90
1
176
1
 90
4
176
1
 62
7
176
1
 62
257
176
1
 90
1
176
1
 90
1
176
1
 40
1.0
176
1
 90
8
176
1
 62
7
176
1
 40
1.0
176
1
 90
1
176
1
 90
6
176
1
 90
2
176
1
 62
7
176
1
 90
5
176
1
 90
0
176
1
 90
0
176
1
290
0
176
1
 90
1
176
1
 40
0.0
176
1
 90
0
176
1
290
0
176
1
290
1
176
1
290
1
176
1
290
0
176
1
290
0
176
1
290
0
176
1
290
0
176
1
290
0
176
1
290
0
176
1
 90
50
176
1
 40
0.0
176
1
 40
1.0
176
1
 90
0
176
1
 62
18
420
0
176
1
 90
50
176
1
 90
3
176
1
 62
5
420
255
176
1
290
0
176
1
 90
50
176
1
 90
50
176
1
 90
50
176
1
290
0
176
1
 90
50
176
1
 62
256
176
0
 40
1.0
176
0
 90
2
176
1
  1
strokes_ogs.tif
176
1
290
0
176
1
 40
1.0
176
1
 40
1.0
176
1
  0
VISUALSTYLE
  5
72
102
{ACAD_REACTORS
330
16
102
}
330
16
100
AcDbVisualStyle
  2
X-Ray
 70
25
177
3
291
0
 70
58
 90
2
176
1
 90
2
176
1
 90
0
176
1
 90
2
176
1
 40
0.5
176
1
 40
30.0
176
1
 62
7
420
16777215
176
1
 90
1
176
1
 90
4
176
1
 62
7
176
1
 62
257
176
1
 90
1
176
1
 90
1
176
1
 40
1.0
176
1
 90
8
176
1
 62
7
176
1
 40
1.0
176
1
 90
1
176
1
 90
6
176
1
 90
2
176
1
 62
7
176
1
 90
5
176
1
 90
0
176
1
 90
0
176
1
290
0
176
1
 90
1
176
1
 40
0.0
176
1
 90
0
176
1
290
0
176
1
290
1
176
1
290
1
176
1
290
0
176
1
290
0
176
1
290
0
176
1
290
0
176
1
290
0
176
1
290
0
176
1
 90
50
176
1
 40
0.0
176
1
 40
1.0
176
1
 90
0
176
1
 62
18
420
0
176
1
 90
50
176
1
 90
3
176
1
 62
5
420
255
176
1
290
0
176
1
 90
50
176
1
 90
50
176
1
 90
50
176
1
290
0
176
1
 90
50
176
1
 62
256
176
0
 40
1.0
176
0
 90
2
176
1
  1
strokes_ogs.tif
176
1
290
0
176
1
 40
1.0
176
1
 40
1.0
176
1
  0
DICTIONARYVAR
  5
22B
330
2D
100
DictionaryVariables
280
0
  1
1.4.4 @ 2026-10-04T18:18:36.262808+00:00
  0
ENDSEC
  0
EOF
