  0
SECTION
  2
HEADER
  9
$ACADVER
  1
AC1032
  9
$ACADMAINTVER
 90
4
  9
$DWGCODEPAGE
  3
ANSI_1252
  9
$LASTSAVEDBY
  1
ezdxf
  9
$REQUIREDVERSIONS
160
0
  9
$INSBASE
 10
0.0
 20
0.0
 30
0.0
  9
$EXTMIN
 10
1e+20
 20
1e+20
 30
1e+20
  9
$EXTMAX
 10
-1e+20
 20
-1e+20
 30
-1e+20
  9
$LIMMIN
 10
0.0
 20
0.0
  9
$LIMMAX
 10
420.0
 20
297.0
  9
$ORTHOMODE
 70
0
  9
$REGENMODE
 70
1
  9
$FILLMODE
 70
1
  9
$QTEXTMODE
 70
0
  9
$MIRRTEXT
 70
1
  9
$LTSCALE
 40
1.0
  9
$ATTMODE
 70
1
  9
$TEXTSIZE
 40
2.5
  9
$TRACEWID
 40
1.0
  9
$TEXTSTYLE
  7
OpenSans
  9
$CLAYER
  8
0
  9
$CELTYPE
  6
ByLayer
  9
$CECOLOR
 62
256
  9
$CELTSCALE
 40
1.0
  9
$DISPSILH
 70
0
  9
$DIMSCALE
 40
1.0
  9
$DIMASZ
 40
0.175
  9
$DIMEXO
 40
0.125
  9
$DIMDLI
 40
3.75
  9
$DIMRND
 40
0.0
  9
$DIMDLE
 40
0.0
  9
$DIMEXE
 40
0.375
  9
$DIMTP
 40
0.0
  9
$DIMTM
 40
0.0
  9
$DIMTXT
 40
0.25
  9
$DIMCEN
 40
2.5
  9
$DIMTSZ
 40
0.0
  9
$DIMTOL
 70
0
  9
$DIMLIM
 70
0
  9
$DIMTIH
 70
0
  9
$DIMTOH
 70
0
  9
$DIMSE1
 70
0
  9
$DIMSE2
 70
0
  9
$DIMTAD
 70
1
  9
$DIMZIN
 70
12
  9
$DIMBLK
  1
ARCHTICK
  9
$DIMASO
 70
1
  9
$DIMSHO
 70
1
  9
$DIMPOST
  1

  9
$DIMAPOST
  1

  9
$DIMALT
 70
0
  9
$DIMALTD
 70
3
  9
$DIMALTF
 40
0.03937007874
  9
$DIMLFAC
 40
100.0
  9
$DIMTOFL
 70
1
  9
$DIMTVP
 40
0.0
  9
$DIMTIX
 70
0
  9
$DIMSOXD
 70
0
  9
$DIMSAH
 70
0
  9
$DIMBLK1
  1

  9
$DIMBLK2
  1

  9
$DIMSTYLE
  2
EZDXF
  9
$DIMCLRD
 70
0
  9
$DIMCLRE
 70
0
  9
$DIMCLRT
 70
0
  9
$DIMTFAC
 40
0.5
  9
$DIMGAP
 40
0.1
  9
$DIMJUST
 70
0
  9
$DIMSD1
 70
0
  9
$DIMSD2
 70
0
  9
$DIMTOLJ
 70
0
  9
$DIMTZIN
 70
8
  9
$DIMALTZ
 70
0
  9
$DIMALTTZ
 70
0
  9
$DIMUPT
 70
1
  9
$DIMDEC
 70
2
  9
$DIMTDEC
 70
2
  9
$DIMALTU
 70
2
  9
$DIMALTTD
 70
3
  9
$DIMTXSTY
  7
OpenSansCondensed-Light
  9
$DIMAUNIT
 70
0
  9
$DIMADEC
 70
2
  9
$DIMALTRND
 40
0.0
  9
$DIMAZIN
 70
3
  9
$DIMDSEP
 70
46
  9
$DIMATFIT
 70
3
  9
$DIMFRAC
 70
0
  9
$DIMLDRBLK
  1

  9
$DIMLUNIT
 70
2
  9
$DIMLWD
 70
-2
  9
$DIMLWE
 70
-2
  9
$DIMTMOVE
 70
2
  9
$DIMFXL
 40
1.0
  9
$DIMFXLON
 70
0
  9
$DIMJOGANG
 40
0.785398163397
  9
$DIMTFILL
 70
0
  9
$DIMTFILLCLR
 70
0
  9
$DIMARCSYM
 70
0
  9
$DIMLTYPE
  6

  9
$DIMLTEX1
  6

  9
$DIMLTEX2
  6

  9
$DIMTXTDIRECTION
 70
0
  9
$LUNITS
 70
2
  9
$LUPREC
 70
4
  9
$SKETCHINC
 40
1.0
  9
$FILLETRAD
 40
10.0
  9
$AUNITS
 70
0
  9
$AUPREC
 70
2
  9
$MENU
  1
.
  9
$ELEVATION
 40
0.0
  9
$PELEVATION
 40
0.0
  9
$THICKNESS
 40
0.0
  9
$LIMCHECK
 70
0
  9
$CHAMFERA
 40
0.0
  9
$CHAMFERB
 40
0.0
  9
$CHAMFERC
 40
0.0
  9
$CHAMFERD
 40
0.0
  9
$SKPOLY
 70
0
  9
$TDCREATE
 40
2461318.760462963
  9
$TDUCREATE
 40
2458532.153996898
  9
$TDUPDATE
 40
2461318.760462963
  9
$TDUUPDATE
 40
2458532.1544311
  9
$TDINDWG
 40
0.0
  9
$TDUSRTIMER
 40
0.0
  9
$USRTIMER
 70
1
  9
$ANGBASE
 50
0.0
  9
$ANGDIR
 70
0
  9
$PDMODE
 70
0
  9
$PDSIZE
 40
0.0
  9
$PLINEWID
 40
0.0
  9
$SPLFRAME
 70
0
  9
$SPLINETYPE
 70
6
  9
$SPLINESEGS
 70
8
  9
$HANDSEED
  5
200
  9
$SURFTAB1
 70
6
  9
$SURFTAB2
 70
6
  9
$SURFTYPE
 70
6
  9
$SURFU
 70
6
  9
$SURFV
 70
6
  9
$UCSBASE
  2

  9
$UCSNAME
  2

  9
$UCSORG
 10
0.0
 20
0.0
 30
0.0
  9
$UCSXDIR
 10
1.0
 20
0.0
 30
0.0
  9
$UCSYDIR
 10
0.0
 20
1.0
 30
0.0
  9
$UCSORTHOREF
  2

  9
$UCSORTHOVIEW
 70
0
  9
$UCSORGTOP
 10
0.0
 20
0.0
 30
0.0
  9
$UCSORGBOTTOM
 10
0.0
 20
0.0
 30
0.0
  9
$UCSORGLEFT
 10
0.0
 20
0.0
 30
0.0
  9
$UCSORGRIGHT
 10
0.0
 20
0.0
 30
0.0
  9
$UCSORGFRONT
 10
0.0
 20
0.0
 30
0.0
  9
$UCSORGBACK
 10
0.0
 20
0.0
 30
0.0
  9
$PUCSBASE
  2

  9
$PUCSNAME
  2

  9
$PUCSORG
 10
0.0
 20
0.0
 30
0.0
  9
$PUCSXDIR
 10
1.0
 20
0.0
 30
0.0
  9
$PUCSYDIR
 10
0.0
 20
1.0
 30
0.0
  9
$PUCSORTHOREF
  2

  9
$PUCSORTHOVIEW
 70
0
  9
$PUCSORGTOP
 10
0.0
 20
0.0
 30
0.0
  9
$PUCSORGBOTTOM
 10
0.0
 20
0.0
 30
0.0
  9
$PUCSORGLEFT
 10
0.0
 20
0.0
 30
0.0
  9
$PUCSORGRIGHT
 10
0.0
 20
0.0
 30
0.0
  9
$PUCSORGFRONT
 10
0.0
 20
0.0
 30
0.0
  9
$PUCSORGBACK
 10
0.0
 20
0.0
 30
0.0
  9
$USERI1
 70
0
  9
$USERI2
 70
0
  9
$USERI3
 70
0
  9
$USERI4
 70
0
  9
$USERI5
 70
0
  9
$USERR1
 40
0.0
  9
$USERR2
 40
0.0
  9
$USERR3
 40
0.0
  9
$USERR4
 40
0.0
  9
$USERR5
 40
0.0
  9
$WORLDVIEW
 70
1
  9
$SHADEDGE
 70
3
  9
$SHADEDIF
 70
70
  9
$TILEMODE
 70
1
  9
$MAXACTVP
 70
64
  9
$PINSBASE
 10
0.0
 20
0.0
 30
0.0
  9
$PLIMCHECK
 70
0
  9
$PEXTMIN
 10
1e+20
 20
1e+20
 30
1e+20
  9
$PEXTMAX
 10
-1e+20
 20
-1e+20
 30
-1e+20
  9
$PLIMMIN
 10
0.0
 20
0.0
  9
$PLIMMAX
 10
420.0
 20
297.0
  9
$UNITMODE
 70
0
  9
$VISRETAIN
 70
1
  9
$PLINEGEN
 70
0
  9
$PSLTSCALE
 70
1
  9
$TREEDEPTH
 70
3020
  9
$CMLSTYLE
  2
Standard
  9
$CMLJUST
 70
0
  9
$CMLSCALE
 40
20.0
  9
$PROXYGRAPHICS
 70
1
  9
$MEASUREMENT
 70
1
  9
$CELWEIGHT
370
-1
  9
$ENDCAPS
280
0
  9
$JOINSTYLE
280
0
  9
$LWDISPLAY
290
0
  9
$INSUNITS
 70
6
  9
$HYPERLINKBASE
  1

  9
$STYLESHEET
  1

  9
$XEDIT
290
1
  9
$CEPSNTYPE
380
0
  9
$PSTYLEMODE
290
1
  9
$FINGERPRINTGUID
  2
{6F22ED97-9F84-4F7E-B58D-797FDAC9027A}
  9
$VERSIONGUID
  2
{825D346C-194A-424C-802C-D70A93B1FC89}
  9
$EXTNAMES
290
1
  9
$PSVPSCALE
 40
0.0
  9
$OLESTARTUP
290
0
  9
$SORTENTS
280
127
  9
$INDEXCTL
280
0
  9
$HIDETEXT
280
1
  9
$XCLIPFRAME
280
1
  9
$HALOGAP
280
0
  9
$OBSCOLOR
 70
257
  9
$OBSLTYPE
280
0
  9
$INTERSECTIONDISPLAY
280
0
  9
$INTERSECTIONCOLOR
 70
257
  9
$DIMASSOC
280
2
  9
$PROJECTNAME
  1

  9
$CAMERADISPLAY
290
0
  9
$LENSLENGTH
 40
50.0
  9
$CAMERAHEIGHT
 40
0.0
  9
$STEPSPERSEC
 40
24.0
  9
$STEPSIZE
 40
100.0
  9
$3DDWFPREC
 40
2.0
  9
$PSOLWIDTH
 40
0.005
  9
$PSOLHEIGHT
 40
0.08
  9
$LOFTANG1
 40
1.570796326795
  9
$LOFTANG2
 40
1.570796326795
  9
$LOFTMAG1
 40
0.0
  9
$LOFTMAG2
 40
0.0
  9
$LOFTPARAM
 70
7
  9
$LOFTNORMALS
280
1
  9
$LATITUDE
 40
37.795
  9
$LONGITUDE
 40
-122.394
  9
$NORTHDIRECTION
 40
0.0
  9
$TIMEZONE
 70
-8000
  9
$LIGHTGLYPHDISPLAY
280
1
  9
$TILEMODELIGHTSYNCH
280
1
  9
$CMATERIAL
347
20
  9
$SOLIDHIST
280
0
  9
$SHOWHIST
280
1
  9
$DWFFRAME
280
2
  9
$DGNFRAME
280
2
  9
$REALWORLDSCALE
290
1
  9
$INTERFERECOLOR
 62
256
  9
$CSHADOW
280
0
  9
$SHADOWPLANELOCATION
 40
0.0
  0
ENDSEC
  0
SECTION
  2
CLASSES
  0
CLASS
  1
ACDBDICTIONARYWDFLT
  2
AcDbDictionaryWithDefault
  3
ObjectDBX Classes
 90
0
 91
0
280
0
281
0
  0
CLASS
  1
SUN
  2
AcDbSun
  3
SCENEOE
 90
1153
 91
0
280
0
281
0
  0
CLASS
  1
VISUALSTYLE
  2
AcDbVisualStyle
  3
ObjectDBX Classes
 90
4095
 91
0
280
0
281
0
  0
CLASS
  1
MATERIAL
  2
AcDbMaterial
  3
ObjectDBX Classes
 90
1153
 91
0
280
0
281
0
  0
CLASS
  1
SCALE
  2
AcDbScale
  3
ObjectDBX Classes
 90
1153
 91
0
280
0
281
0
  0
CLASS
  1
TABLESTYLE
  2
AcDbTableStyle
  3
ObjectDBX Classes
 90
4095
 91
0
280
0
281
0
  0
CLASS
  1
MLEADERSTYLE
  2
AcDbMLeaderStyle
  3
ACDB_MLEADERSTYLE_CLASS
 90
4095
 91
0
280
0
281
0
  0
CLASS
  1
DICTIONARYVAR
  2
AcDbDictionaryVar
  3
ObjectDBX Classes
 90
0
 91
0
280
0
281
0
  0
CLASS
  1
CELLSTYLEMAP
  2
AcDbCellStyleMap
  3
ObjectDBX Classes
 90
1152
 91
0
280
0
281
0
  0
CLASS
  1
MENTALRAYRENDERSETTINGS
  2
AcDbMentalRayRenderSettings
  3
SCENEOE
 90
1024
 91
0
280
0
281
0
  0
CLASS
  1
ACDBDETAILVIEWSTYLE
  2
AcDbDetailViewStyle
  3
ObjectDBX Classes
 90
1025
 91
0
280
0
281
0
  0
CLASS
  1
ACDBSECTIONVIEWSTYLE
  2
AcDbSectionViewStyle
  3
ObjectDBX Classes
 90
1025
 91
0
280
0
281
0
  0
CLASS
  1
RASTERVARIABLES
  2
AcDbRasterVariables
  3
ISM
 90
0
 91
0
280
0
281
0
  0
CLASS
  1
ACDBPLACEHOLDER
  2
AcDbPlaceHolder
  3
ObjectDBX Classes
 90
0
 91
0
280
0
281
0
  0
CLASS
  1
LAYOUT
  2
AcDbLayout
  3
ObjectDBX Classes
 90
0
 91
0
280
0
281
0
  0
ENDSEC
  0
SECTION
  2
TABLES
  0
TABLE
  2
VPORT
  5
8
330
0
100
AcDbSymbolTable
 70
1
  0
VPORT
  5
23
330
8
100
AcDbSymbolTableRecord
100
AcDbViewportTableRecord
  2
*Active
 70
0
 10
0.0
 20
0.0
 11
1.0
 21
1.0
 12
0.0
 22
0.0
 13
0.0
 23
0.0
 14
0.5
 24
0.5
 15
0.5
 25
0.5
 16
0.0
 26
0.0
 36
1.0
 17
0.0
 27
0.0
 37
0.0
 40
1000.0
 41
1.34
 42
50.0
 43
0.0
 44
0.0
 50
0.0
 51
0.0
 71
0
 72
1000
 73
1
 74
3
 75
0
 76
0
 77
0
 78
0
281
0
 65
0
146
0.0
  0
ENDTAB
  0
TABLE
  2
LTYPE
  5
2
330
0
100
AcDbSymbolTable
 70
21
  0
LTYPE
  5
24
330
2
100
AcDbSymbolTableRecord
100
AcDbLinetypeTableRecord
  2
ByBlock
 70
0
  3

 72
65
 73
0
 40
0.0
  0
LTYPE
  5
25
330
2
100
AcDbSymbolTableRecord
100
AcDbLinetypeTableRecord
  2
ByLayer
 70
0
  3

 72
65
 73
0
 40
0.0
  0
LTYPE
  5
26
330
2
100
AcDbSymbolTableRecord
100
AcDbLinetypeTableRecord
  2
Continuous
 70
0
  3

 72
65
 73
0
 40
0.0
  0
LTYPE
  5
2F
330
2
100
AcDbSymbolTableRecord
100
AcDbLinetypeTableRecord
  2
CENTER
 70
0
  3
Center ____ _ ____ _ ____ _ ____ _ ____ _ ____
 72
65
 73
4
 40
5.08
 49
3.175
 74
0
 49
-0.635
 74
0
 49
0.635
 74
0
 49
-0.635
 74
0
  0
LTYPE
  5
30
330
2
100
AcDbSymbolTableRecord
100
AcDbLinetypeTableRecord
  2
CENTERX2
 70
0
  3
Center (2x) ________  __  ________  __  ________
 72
65
 73
4
 40
8.89
 49
6.35
 74
0
 49
-0.635
 74
0
 49
1.27
 74
0
 49
-0.635
 74
0
  0
LTYPE
  5
31
330
2
100
AcDbSymbolTableRecord
100
AcDbLinetypeTableRecord
  2
CENTER2
 70
0
  3
Center (.5x) ____ _ ____ _ ____ _ ____ _ ____
 72
65
 73
4
 40
2.54
 49
1.587
 74
0
 49
-0.318
 74
0
 49
0.318
 74
0
 49
-0.318
 74
0
  0
LTYPE
  5
32
330
2
100
AcDbSymbolTableRecord
100
AcDbLinetypeTableRecord
  2
DASHED
 70
0
  3
Dashed __ __ __ __ __ __ __ __ __ __ __ __ __ _
 72
65
 73
2
 40
1.524
 49
1.27
 74
0
 49
-0.254
 74
0
  0
LTYPE
  5
33
330
2
100
AcDbSymbolTableRecord
100
AcDbLinetypeTableRecord
  2
DASHEDX2
 70
0
  3
Dashed (2x) ____  ____  ____  ____  ____  ____
 72
65
 73
2
 40
3.048
 49
2.54
 74
0
 49
-0.508
 74
0
  0
LTYPE
  5
34
330
2
100
AcDbSymbolTableRecord
100
AcDbLinetypeTableRecord
  2
DASHED2
 70
0
  3
Dashed (.5x) _ _ _ _ _ _ _ _ _ _ _ _ _ _
 72
65
 73
2
 40
0.762
 49
0.635
 74
0
 49
-0.127
 74
0
  0
LTYPE
  5
35
330
2
100
AcDbSymbolTableRecord
100
AcDbLinetypeTableRecord
  2
PHANTOM
 70
0
  3
Phantom ______  __  __  ______  __  __  ______
 72
65
 73
6
 40
6.35
 49
3.175
 74
0
 49
-0.635
 74
0
 49
0.635
 74
0
 49
-0.635
 74
0
 49
0.635
 74
0
 49
-0.635
 74
0
  0
LTYPE
  5
36
330
2
100
AcDbSymbolTableRecord
100
AcDbLinetypeTableRecord
  2
PHANTOMX2
 70
0
  3
Phantom (2x)____________    ____    ____    ____________
 72
65
 73
6
 40
10.795
 49
6.35
 74
0
 49
-0.635
 74
0
 49
1.27
 74
0
 49
-0.635
 74
0
 49
1.27
 74
0
 49
-0.635
 74
0
  0
LTYPE
  5
37
330
2
100
AcDbSymbolTableRecord
100
AcDbLinetypeTableRecord
  2
PHANTOM2
 70
0
  3
Phantom (.5x) ___ _ _ ___ _ _ ___ _ _ ___ _ _ ___
 72
65
 73
6
 40
3.175
 49
1.587
 74
0
 49
-0.318
 74
0
 49
0.318
 74
0
 49
-0.318
 74
0
 49
0.318
 74
0
 49
-0.318
 74
0
  0
LTYPE
  5
38
330
2
100
AcDbSymbolTableRecord
100
AcDbLinetypeTableRecord
  2
DASHDOT
 70
0
  3
Dash dot __ . __ . __ . __ . __ . __ . __ . __
 72
65
 73
4
 40
3.556
 49
2.54
 74
0
 49
-0.508
 74
0
 49
0.0
 74
0
 49
-0.508
 74
0
  0
LTYPE
  5
39
330
2
100
AcDbSymbolTableRecord
100
AcDbLinetypeTableRecord
  2
DASHDOTX2
 70
0
  3
Dash dot (2x) ____  .  ____  .  ____  .  ____
 72
65
 73
4
 40
6.096
 49
5.08
 74
0
 49
-0.508
 74
0
 49
0.0
 74
0
 49
-0.508
 74
0
  0
LTYPE
  5
3A
330
2
100
AcDbSymbolTableRecord
100
AcDbLinetypeTableRecord
  2
DASHDOT2
 70
0
  3
Dash dot (.5x) _ . _ . _ . _ . _ . _ . _ . _
 72
65
 73
4
 40
1.778
 49
1.27
 74
0
 49
-0.254
 74
0
 49
0.0
 74
0
 49
-0.254
 74
0
  0
LTYPE
  5
3B
330
2
100
AcDbSymbolTableRecord
100
AcDbLinetypeTableRecord
  2
DOT
 70
0
  3
Dot .  .  .  .  .  .  .  .  .  .  .  .  .  .  .  .
 72
65
 73
2
 40
0.508
 49
0.0
 74
0
 49
-0.508
 74
0
  0
LTYPE
  5
3C
330
2
100
AcDbSymbolTableRecord
100
AcDbLinetypeTableRecord
  2
DOTX2
 70
0
  3
Dot (2x) .    .    .    .    .    .    .    . 
 72
65
 73
2
 40
1.016
 49
0.0
 74
0
 49
-1.016
 74
0
  0
LTYPE
  5
3D
330
2
100
AcDbSymbolTableRecord
100
AcDbLinetypeTableRecord
  2
DOT2
 70
0
  3
Dot (.5) . . . . . . . . . . . . . . . . . . . 
 72
65
 73
2
 40
0.254
 49
0.0
 74
0
 49
-0.254
 74
0
  0
LTYPE
  5
3E
330
2
100
AcDbSymbolTableRecord
100
AcDbLinetypeTableRecord
  2
DIVIDE
 70
0
  3
Divide __ . . __ . . __ . . __ . . __ . . __
 72
65
 73
6
 40
4.064
 49
2.54
 74
0
 49
-0.508
 74
0
 49
0.0
 74
0
 49
-0.508
 74
0
 49
0.0
 74
0
 49
-0.508
 74
0
  0
LTYPE
  5
3F
330
2
100
AcDbSymbolTableRecord
100
AcDbLinetypeTableRecord
  2
DIVIDEX2
 70
0
  3
Divide (2x) ____  . .  ____  . .  ____  . .  ____
 72
65
 73
6
 40
6.604
 49
5.08
 74
0
 49
-0.508
 74
0
 49
0.0
 74
0
 49
-0.508
 74
0
 49
0.0
 74
0
 49
-0.508
 74
0
  0
LTYPE
  5
40
330
2
100
AcDbSymbolTableRecord
100
AcDbLinetypeTableRecord
  2
DIVIDE2
 70
0
  3
Divide(.5x) _ . _ . _ . _ . _ . _ . _ . _
 72
65
 73
6
 40
2.032
 49
1.27
 74
0
 49
-0.254
 74
0
 49
0.0
 74
0
 49
-0.254
 74
0
 49
0.0
 74
0
 49
-0.254
 74
0
  0
ENDTAB
  0
TABLE
  2
LAYER
  5
1
330
0
100
AcDbSymbolTable
 70
12
  0
LAYER
  5
27
330
1
100
AcDbSymbolTableRecord
100
AcDbLayerTableRecord
  2
0
 70
0
 62
7
  6
Continuous
370
-3
390
13
347
21
  0
LAYER
  5
28
330
1
100
AcDbSymbolTableRecord
100
AcDbLayerTableRecord
  2
Defpoints
 70
0
 62
7
  6
Continuous
290
0
370
-3
390
13
347
21
  0
LAYER
  5
8A
330
1
100
AcDbSymbolTableRecord
100
AcDbLayerTableRecord
  2
A-CUT
 70
0
 62
7
  6
Continuous
370
50
390
13
347
21
  0
LAYER
  5
8B
330
1
100
AcDbSymbolTableRecord
100
AcDbLayerTableRecord
  2
A-MAIN
 70
0
 62
7
  6
Continuous
370
35
390
13
347
21
  0
LAYER
  5
8C
330
1
100
AcDbSymbolTableRecord
100
AcDbLayerTableRecord
  2
A-THIN
 70
0
 62
8
  6
Continuous
370
18
390
13
347
21
  0
LAYER
  5
8D
330
1
100
AcDbSymbolTableRecord
100
AcDbLayerTableRecord
  2
A-HIDDEN
 70
0
 62
8
  6
DASHED
370
18
390
13
347
21
  0
LAYER
  5
8E
330
1
100
AcDbSymbolTableRecord
100
AcDbLayerTableRecord
  2
A-HATCH
 70
0
 62
8
  6
Continuous
370
9
390
13
347
21
  0
LAYER
  5
8F
330
1
100
AcDbSymbolTableRecord
100
AcDbLayerTableRecord
  2
A-TEXT
 70
0
 62
7
  6
Continuous
370
18
390
13
347
21
  0
LAYER
  5
90
330
1
100
AcDbSymbolTableRecord
100
AcDbLayerTableRecord
  2
A-DIMS
 70
0
 62
1
  6
Continuous
370
13
390
13
347
21
  0
LAYER
  5
91
330
1
100
AcDbSymbolTableRecord
100
AcDbLayerTableRecord
  2
A-FURN
 70
0
 62
9
  6
Continuous
370
13
390
13
347
21
  0
LAYER
  5
92
330
1
100
AcDbSymbolTableRecord
100
AcDbLayerTableRecord
  2
A-GRID
 70
0
 62
1
  6
Continuous
370
13
390
13
347
21
  0
LAYER
  5
93
330
1
100
AcDbSymbolTableRecord
100
AcDbLayerTableRecord
  2
A-SITE
 70
0
 62
3
  6
Continuous
370
18
390
13
347
21
  0
ENDTAB
  0
TABLE
  2
STYLE
  5
5
330
0
100
AcDbSymbolTable
 70
26
  0
STYLE
  5
29
330
5
100
AcDbSymbolTableRecord
100
AcDbTextStyleTableRecord
  2
Standard
 70
0
 40
0.0
 41
1.0
 50
0.0
 71
0
 42
2.5
  3
txt
  4

  0
STYLE
  5
41
330
5
100
AcDbSymbolTableRecord
100
AcDbTextStyleTableRecord
  2
OpenSans-Light
 70
0
 40
0.0
 41
1.0
 50
0.0
 71
0
 42
2.5
  3
OpenSans-Light.ttf
  4

  0
STYLE
  5
42
330
5
100
AcDbSymbolTableRecord
100
AcDbTextStyleTableRecord
  2
OpenSans-Light-Italic
 70
0
 40
0.0
 41
1.0
 50
0.0
 71
0
 42
2.5
  3
OpenSans-LightItalic.ttf
  4

  0
STYLE
  5
43
330
5
100
AcDbSymbolTableRecord
100
AcDbTextStyleTableRecord
  2
OpenSans
 70
0
 40
0.0
 41
1.0
 50
0.0
 71
0
 42
2.5
  3
OpenSans-Regular.ttf
  4

  0
STYLE
  5
44
330
5
100
AcDbSymbolTableRecord
100
AcDbTextStyleTableRecord
  2
OpenSans-Italic
 70
0
 40
0.0
 41
1.0
 50
0.0
 71
0
 42
2.5
  3
OpenSans-Italic.ttf
  4

  0
STYLE
  5
45
330
5
100
AcDbSymbolTableRecord
100
AcDbTextStyleTableRecord
  2
OpenSans-SemiBold
 70
0
 40
0.0
 41
1.0
 50
0.0
 71
0
 42
2.5
  3
OpenSans-SemiBold.ttf
  4

  0
STYLE
  5
46
330
5
100
AcDbSymbolTableRecord
100
AcDbTextStyleTableRecord
  2
OpenSans-SemiBoldItalic
 70
0
 40
0.0
 41
1.0
 50
0.0
 71
0
 42
2.5
  3
OpenSans-SemiBoldItalic.ttf
  4

  0
STYLE
  5
47
330
5
100
AcDbSymbolTableRecord
100
AcDbTextStyleTableRecord
  2
OpenSans-Bold
 70
0
 40
0.0
 41
1.0
 50
0.0
 71
0
 42
2.5
  3
OpenSans-Bold.ttf
  4

  0
STYLE
  5
48
330
5
100
AcDbSymbolTableRecord
100
AcDbTextStyleTableRecord
  2
OpenSans-BoldItalic
 70
0
 40
0.0
 41
1.0
 50
0.0
 71
0
 42
2.5
  3
OpenSans-BoldItalic.ttf
  4

  0
STYLE
  5
49
330
5
100
AcDbSymbolTableRecord
100
AcDbTextStyleTableRecord
  2
OpenSans-ExtraBold
 70
0
 40
0.0
 41
1.0
 50
0.0
 71
0
 42
2.5
  3
OpenSans-ExtraBold.ttf
  4

  0
STYLE
  5
4A
330
5
100
AcDbSymbolTableRecord
100
AcDbTextStyleTableRecord
  2
OpenSans-ExtraBoldItalic
 70
0
 40
0.0
 41
1.0
 50
0.0
 71
0
 42
2.5
  3
OpenSans-ExtraBoldItalic.ttf
  4

  0
STYLE
  5
4B
330
5
100
AcDbSymbolTableRecord
100
AcDbTextStyleTableRecord
  2
OpenSansCondensed-Bold
 70
0
 40
0.0
 41
1.0
 50
0.0
 71
0
 42
2.5
  3
OpenSansCondensed-Bold.ttf
  4

  0
STYLE
  5
4C
330
5
100
AcDbSymbolTableRecord
100
AcDbTextStyleTableRecord
  2
OpenSansCondensed-Light
 70
0
 40
0.0
 41
1.0
 50
0.0
 71
0
 42
2.5
  3
OpenSansCondensed-Light.ttf
  4

  0
STYLE
  5
4D
330
5
100
AcDbSymbolTableRecord
100
AcDbTextStyleTableRecord
  2
OpenSansCondensed-Italic
 70
0
 40
0.0
 41
1.0
 50
0.0
 71
0
 42
2.5
  3
OpenSansCondensed-LightItalic.ttf
  4

  0
STYLE
  5
4E
330
5
100
AcDbSymbolTableRecord
100
AcDbTextStyleTableRecord
  2
LiberationSans
 70
0
 40
0.0
 41
1.0
 50
0.0
 71
0
 42
2.5
  3
LiberationSans-Regular.ttf
  4

  0
STYLE
  5
4F
330
5
100
AcDbSymbolTableRecord
100
AcDbTextStyleTableRecord
  2
LiberationSans-Bold
 70
0
 40
0.0
 41
1.0
 50
0.0
 71
0
 42
2.5
  3
LiberationSans-Bold.ttf
  4

  0
STYLE
  5
50
330
5
100
AcDbSymbolTableRecord
100
AcDbTextStyleTableRecord
  2
LiberationSans-BoldItalic
 70
0
 40
0.0
 41
1.0
 50
0.0
 71
0
 42
2.5
  3
LiberationSans-BoldItalic.ttf
  4

  0
STYLE
  5
51
330
5
100
AcDbSymbolTableRecord
100
AcDbTextStyleTableRecord
  2
LiberationSans-Italic
 70
0
 40
0.0
 41
1.0
 50
0.0
 71
0
 42
2.5
  3
LiberationSans-Italic.ttf
  4

  0
STYLE
  5
52
330
5
100
AcDbSymbolTableRecord
100
AcDbTextStyleTableRecord
  2
LiberationSerif
 70
0
 40
0.0
 41
1.0
 50
0.0
 71
0
 42
2.5
  3
LiberationSerif-Regular.ttf
  4

  0
STYLE
  5
53
330
5
100
AcDbSymbolTableRecord
100
AcDbTextStyleTableRecord
  2
LiberationSerif-Bold
 70
0
 40
0.0
 41
1.0
 50
0.0
 71
0
 42
2.5
  3
LiberationSerif-Bold.ttf
  4

  0
STYLE
  5
54
330
5
100
AcDbSymbolTableRecord
100
AcDbTextStyleTableRecord
  2
LiberationSerif-BoldItalic
 70
0
 40
0.0
 41
1.0
 50
0.0
 71
0
 42
2.5
  3
LiberationSerif-BoldItalic.ttf
  4

  0
STYLE
  5
55
330
5
100
AcDbSymbolTableRecord
100
AcDbTextStyleTableRecord
  2
LiberationSerif-Italic
 70
0
 40
0.0
 41
1.0
 50
0.0
 71
0
 42
2.5
  3
LiberationSerif-Italic.ttf
  4

  0
STYLE
  5
56
330
5
100
AcDbSymbolTableRecord
100
AcDbTextStyleTableRecord
  2
LiberationMono
 70
0
 40
0.0
 41
1.0
 50
0.0
 71
0
 42
2.5
  3
LiberationMono-Regular.ttf
  4

  0
STYLE
  5
57
330
5
100
AcDbSymbolTableRecord
100
AcDbTextStyleTableRecord
  2
LiberationMono-Bold
 70
0
 40
0.0
 41
1.0
 50
0.0
 71
0
 42
2.5
  3
LiberationMono-Bold.ttf
  4

  0
STYLE
  5
58
330
5
100
AcDbSymbolTableRecord
100
AcDbTextStyleTableRecord
  2
LiberationMono-BoldItalic
 70
0
 40
0.0
 41
1.0
 50
0.0
 71
0
 42
2.5
  3
LiberationMono-BoldItalic.ttf
  4

  0
STYLE
  5
59
330
5
100
AcDbSymbolTableRecord
100
AcDbTextStyleTableRecord
  2
LiberationMono-Italic
 70
0
 40
0.0
 41
1.0
 50
0.0
 71
0
 42
2.5
  3
LiberationMono-Italic.ttf
  4

  0
ENDTAB
  0
TABLE
  2
VIEW
  5
7
330
0
100
AcDbSymbolTable
 70
0
  0
ENDTAB
  0
TABLE
  2
UCS
  5
6
330
0
100
AcDbSymbolTable
 70
0
  0
ENDTAB
  0
TABLE
  2
APPID
  5
3
330
0
100
AcDbSymbolTable
 70
3
  0
APPID
  5
2A
330
3
100
AcDbSymbolTableRecord
100
AcDbRegAppTableRecord
  2
ACAD
 70
0
  0
APPID
  5
1FD
330
3
100
AcDbSymbolTableRecord
100
AcDbRegAppTableRecord
  2
HATCHBACKGROUNDCOLOR
 70
0
  0
APPID
  5
1FE
330
3
100
AcDbSymbolTableRecord
100
AcDbRegAppTableRecord
  2
EZDXF
 70
0
  0
ENDTAB
  0
TABLE
  2
DIMSTYLE
  5
4
330
0
100
AcDbSymbolTable
 70
12
100
AcDbDimStyleTable
  0
DIMSTYLE
105
2B
330
4
100
AcDbSymbolTableRecord
100
AcDbDimStyleTableRecord
  2
Standard
 70
0
 40
1.0
 41
2.5
 42
0.625
 43
3.75
 44
1.25
 45
0.0
 46
0.0
 47
0.0
 48
0.0
 49
2.5
140
2.5
141
2.5
142
0.0
143
0.03937007874
144
1.0
145
0.0
146
1.0
147
0.625
148
0.0
 69
0
 70
0
 71
0
 72
0
 73
0
 74
0
 75
0
 76
0
 77
1
 78
8
 79
3
170
0
171
3
172
1
173
0
174
0
175
0
176
0
177
0
178
0
179
2
271
2
272
2
273
2
274
3
275
0
276
0
277
2
278
44
279
0
280
0
281
0
282
0
283
0
284
8
285
0
286
0
288
0
289
3
290
0
371
-2
372
-2
  0
DIMSTYLE
105
73
330
4
100
AcDbSymbolTableRecord
100
AcDbDimStyleTableRecord
  2
EZDXF
 70
0
 40
1.0
 41
0.175
 42
0.125
 43
3.75
 44
0.375
 45
0.0
 46
0.0
 47
0.0
 48
0.0
 49
2.5
140
0.25
141
2.5
142
0.0
143
0.03937007874
144
100.0
145
0.0
146
0.5
147
0.1
148
0.0
 69
0
 70
0
 71
0
 72
0
 73
0
 74
0
 75
0
 76
0
 77
1
 78
12
 79
3
170
0
171
3
172
1
173
0
174
0
175
0
176
0
177
0
178
0
179
2
271
2
272
2
273
2
274
3
275
0
276
0
277
2
278
46
279
2
280
0
281
0
282
0
283
0
284
8
285
0
286
0
288
1
289
3
290
0
340
4C
342
74
371
-2
372
-2
  0
DIMSTYLE
105
7C
330
4
100
AcDbSymbolTableRecord
100
AcDbDimStyleTableRecord
  2
EZ_M_100_H25_CM
 70
0
 40
1.0
 41
0.25
 42
0.125
 43
3.75
 44
0.375
 45
0.0
 46
0.0
 47
0.0
 48
0.0
 49
2.5
140
0.25
141
2.5
142
0.125
143
0.03937007874
144
100.0
145
0.0
146
0.5
147
0.1
148
0.0
 69
0
 70
0
 71
0
 72
0
 73
0
 74
0
 75
0
 76
0
 77
1
 78
12
 79
3
170
0
171
3
172
1
173
0
174
0
175
0
176
0
177
0
178
0
179
2
271
2
272
2
273
2
274
3
275
0
276
0
277
2
278
46
279
2
280
0
281
0
282
0
283
0
284
8
285
0
286
0
288
1
289
3
290
0
340
4C
371
-2
372
-2
  0
DIMSTYLE
105
7D
330
4
100
AcDbSymbolTableRecord
100
AcDbDimStyleTableRecord
  2
EZ_M_50_H25_CM
 70
0
 40
1.0
 41
0.125
 42
0.0625
 43
3.75
 44
0.1875
 45
0.0
 46
0.0
 47
0.0
 48
0.0
 49
2.5
140
0.125
141
2.5
142
0.0625
143
0.03937007874
144
100.0
145
0.0
146
0.5
147
0.05
148
0.0
 69
0
 70
0
 71
0
 72
0
 73
0
 74
0
 75
0
 76
0
 77
1
 78
12
 79
3
170
0
171
3
172
1
173
0
174
0
175
0
176
0
177
0
178
0
179
2
271
2
272
2
273
2
274
3
275
0
276
0
277
2
278
46
279
2
280
0
281
0
282
0
283
0
284
8
285
0
286
0
288
1
289
3
290
0
340
4C
371
-2
372
-2
  0
DIMSTYLE
105
7E
330
4
100
AcDbSymbolTableRecord
100
AcDbDimStyleTableRecord
  2
EZ_M_25_H25_CM
 70
0
 40
1.0
 41
0.0625
 42
0.03125
 43
3.75
 44
0.09375
 45
0.0
 46
0.0
 47
0.0
 48
0.0
 49
2.5
140
0.0625
141
2.5
142
0.03125
143
0.03937007874
144
100.0
145
0.0
146
0.5
147
0.025
148
0.0
 69
0
 70
0
 71
0
 72
0
 73
0
 74
0
 75
0
 76
0
 77
1
 78
12
 79
3
170
0
171
3
172
1
173
0
174
0
175
0
176
0
177
0
178
0
179
2
271
2
272
2
273
2
274
3
275
0
276
0
277
2
278
46
279
2
280
0
281
0
282
0
283
0
284
8
285
0
286
0
288
1
289
3
290
0
340
4C
371
-2
372
-2
  0
DIMSTYLE
105
7F
330
4
100
AcDbSymbolTableRecord
100
AcDbDimStyleTableRecord
  2
EZ_M_20_H25_CM
 70
0
 40
1.0
 41
0.05
 42
0.025
 43
3.75
 44
0.07500000000000001
 45
0.0
 46
0.0
 47
0.0
 48
0.0
 49
2.5
140
0.05
141
2.5
142
0.025
143
0.03937007874
144
100.0
145
0.0
146
0.5
147
0.020000000000000004
148
0.0
 69
0
 70
0
 71
0
 72
0
 73
0
 74
0
 75
0
 76
0
 77
1
 78
12
 79
3
170
0
171
3
172
1
173
0
174
0
175
0
176
0
177
0
178
0
179
2
271
2
272
2
273
2
274
3
275
0
276
0
277
2
278
46
279
2
280
0
281
0
282
0
283
0
284
8
285
0
286
0
288
1
289
3
290
0
340
4C
371
-2
372
-2
  0
DIMSTYLE
105
80
330
4
100
AcDbSymbolTableRecord
100
AcDbDimStyleTableRecord
  2
EZ_M_10_H25_CM
 70
0
 40
1.0
 41
0.025
 42
0.0125
 43
3.75
 44
0.037500000000000006
 45
0.0
 46
0.0
 47
0.0
 48
0.0
 49
2.5
140
0.025
141
2.5
142
0.0125
143
0.03937007874
144
100.0
145
0.0
146
0.5
147
0.010000000000000002
148
0.0
 69
0
 70
0
 71
0
 72
0
 73
0
 74
0
 75
0
 76
0
 77
1
 78
12
 79
3
170
0
171
3
172
1
173
0
174
0
175
0
176
0
177
0
178
0
179
2
271
2
272
2
273
2
274
3
275
0
276
0
277
2
278
46
279
2
280
0
281
0
282
0
283
0
284
8
285
0
286
0
288
1
289
3
290
0
340
4C
371
-2
372
-2
  0
DIMSTYLE
105
81
330
4
100
AcDbSymbolTableRecord
100
AcDbDimStyleTableRecord
  2
EZ_M_5_H25_CM
 70
0
 40
1.0
 41
0.0125
 42
0.00625
 43
3.75
 44
0.018750000000000003
 45
0.0
 46
0.0
 47
0.0
 48
0.0
 49
2.5
140
0.0125
141
2.5
142
0.00625
143
0.03937007874
144
100.0
145
0.0
146
0.5
147
0.005000000000000001
148
0.0
 69
0
 70
0
 71
0
 72
0
 73
0
 74
0
 75
0
 76
0
 77
1
 78
12
 79
3
170
0
171
3
172
1
173
0
174
0
175
0
176
0
177
0
178
0
179
2
271
2
272
2
273
2
274
3
275
0
276
0
277
2
278
46
279
2
280
0
281
0
282
0
283
0
284
8
285
0
286
0
288
1
289
3
290
0
340
4C
371
-2
372
-2
  0
DIMSTYLE
105
82
330
4
100
AcDbSymbolTableRecord
100
AcDbDimStyleTableRecord
  2
EZ_M_1_H25_CM
 70
0
 40
1.0
 41
0.0025
 42
0.00125
 43
3.75
 44
0.00375
 45
0.0
 46
0.0
 47
0.0
 48
0.0
 49
2.5
140
0.0025
141
2.5
142
0.00125
143
0.03937007874
144
100.0
145
0.0
146
0.5
147
0.001
148
0.0
 69
0
 70
0
 71
0
 72
0
 73
0
 74
0
 75
0
 76
0
 77
1
 78
12
 79
3
170
0
171
3
172
1
173
0
174
0
175
0
176
0
177
0
178
0
179
2
271
2
272
2
273
2
274
3
275
0
276
0
277
2
278
46
279
2
280
0
281
0
282
0
283
0
284
8
285
0
286
0
288
1
289
3
290
0
340
4C
371
-2
372
-2
  0
DIMSTYLE
105
83
330
4
100
AcDbSymbolTableRecord
100
AcDbDimStyleTableRecord
  2
EZ_RADIUS
 70
0
 40
1.0
 41
0.25
 42
0.125
 43
3.75
 44
0.375
 45
0.0
 46
0.0
 47
0.0
 48
0.0
 49
2.5
140
0.25
141
0.0
142
0.0
143
0.03937007874
144
100.0
145
0.0
146
0.5
147
0.1
148
0.0
 69
0
 70
0
 71
0
 72
0
 73
0
 74
0
 75
0
 76
0
 77
1
 78
12
 79
3
170
0
171
3
172
0
173
0
174
0
175
0
176
0
177
0
178
0
179
2
271
2
272
2
273
2
274
3
275
0
276
0
277
2
278
46
279
1
280
0
281
0
282
0
283
0
284
8
285
0
286
0
288
1
289
3
290
0
340
4C
342
84
371
-2
372
-2
  0
DIMSTYLE
105
88
330
4
100
AcDbSymbolTableRecord
100
AcDbDimStyleTableRecord
  2
EZ_RADIUS_INSIDE
 70
0
 40
1.0
 41
0.25
 42
0.125
 43
3.75
 44
0.375
 45
0.0
 46
0.0
 47
0.0
 48
0.0
 49
2.5
140
0.25
141
0.0
142
0.0
143
0.03937007874
144
100.0
145
0.0
146
0.5
147
0.1
148
0.0
 69
0
 70
0
 71
0
 72
0
 73
0
 74
0
 75
0
 76
0
 77
0
 78
12
 79
3
170
0
171
3
172
0
173
0
174
1
175
0
176
0
177
0
178
0
179
2
271
2
272
2
273
2
274
3
275
0
276
0
277
2
278
46
279
0
280
0
281
0
282
0
283
0
284
8
285
0
286
0
288
1
289
0
290
0
340
4C
342
84
371
-2
372
-2
  0
DIMSTYLE
105
89
330
4
100
AcDbSymbolTableRecord
100
AcDbDimStyleTableRecord
  2
EZ_CURVED
 70
0
 40
1.0
 41
0.25
 42
0.125
 43
3.75
 44
0.375
 45
0.0
 46
0.0
 47
0.0
 48
0.0
 49
2.5
140
0.25
141
2.5
142
0.0
143
0.03937007874
144
100.0
145
0.0
146
0.5
147
0.1
148
0.0
 69
0
 70
0
 71
0
 72
0
 73
0
 74
0
 75
0
 76
0
 77
1
 78
12
 79
2
 90
2
170
0
171
3
172
1
173
0
174
0
175
0
176
0
177
0
178
0
179
2
271
2
272
2
273
2
274
3
275
0
276
0
277
2
278
46
279
2
280
0
281
0
282
0
283
0
284
8
285
0
286
0
288
1
289
3
290
0
340
4C
371
-2
372
-2
  0
ENDTAB
  0
TABLE
  2
BLOCK_RECORD
  5
9
330
0
100
AcDbSymbolTable
 70
5
  0
BLOCK_RECORD
  5
17
330
9
100
AcDbSymbolTableRecord
100
AcDbBlockTableRecord
  2
*Model_Space
340
1A
 70
0
280
1
281
0
  0
BLOCK_RECORD
  5
1B
330
9
100
AcDbSymbolTableRecord
100
AcDbBlockTableRecord
  2
*Paper_Space
340
1E
 70
0
280
1
281
0
  0
BLOCK_RECORD
  5
74
330
9
100
AcDbSymbolTableRecord
100
AcDbBlockTableRecord
  2
_ARCHTICK
340
0
 70
0
280
1
281
0
  0
BLOCK_RECORD
  5
78
330
9
100
AcDbSymbolTableRecord
100
AcDbBlockTableRecord
  2
_CLOSEDFILLED
340
0
 70
0
280
1
281
0
  0
BLOCK_RECORD
  5
84
330
9
100
AcDbSymbolTableRecord
100
AcDbBlockTableRecord
  2
_CLOSEDBLANK
340
0
 70
0
280
1
281
0
  0
ENDTAB
  0
ENDSEC
  0
SECTION
  2
BLOCKS
  0
BLOCK
  5
18
330
17
100
AcDbEntity
  8
0
100
AcDbBlockBegin
  2
*Model_Space
 70
0
 10
0.0
 20
0.0
 30
0.0
  3
*Model_Space
  1

  0
ENDBLK
  5
19
330
17
100
AcDbEntity
  8
0
100
AcDbBlockEnd
  0
BLOCK
  5
1C
330
1B
100
AcDbEntity
  8
0
100
AcDbBlockBegin
  2
*Paper_Space
 70
0
 10
0.0
 20
0.0
 30
0.0
  3
*Paper_Space
  1

  0
ENDBLK
  5
1D
330
1B
100
AcDbEntity
  8
0
100
AcDbBlockEnd
  0
BLOCK
  5
75
330
74
100
AcDbEntity
  8
0
100
AcDbBlockBegin
  2
_ARCHTICK
 70
0
 10
0.0
 20
0.0
 30
0.0
  3
_ARCHTICK
  1

  0
LWPOLYLINE
  5
77
330
74
100
AcDbEntity
  8
0
  6
BYBLOCK
 62
0
100
AcDbPolyline
 90
2
 70
0
 43
0.15
 10
-0.5
 20
-0.5
 10
0.5
 20
0.5
  0
ENDBLK
  5
76
330
74
100
AcDbEntity
  8
0
100
AcDbBlockEnd
  0
BLOCK
  5
79
330
78
100
AcDbEntity
  8
0
100
AcDbBlockBegin
  2
_CLOSEDFILLED
 70
0
 10
0.0
 20
0.0
 30
0.0
  3
_CLOSEDFILLED
  1

  0
SOLID
  5
7B
330
78
100
AcDbEntity
  8
0
  6
BYBLOCK
 62
0
100
AcDbTrace
 10
-1.0
 20
0.16439898372402537
 30
0.0
 11
0.0
 21
0.0
 31
0.0
 12
-1.0
 22
-0.16439898372402537
 32
0.0
 13
-1.0
 23
-0.16439898372402537
 33
0.0
  0
ENDBLK
  5
7A
330
78
100
AcDbEntity
  8
0
100
AcDbBlockEnd
  0
BLOCK
  5
85
330
84
100
AcDbEntity
  8
0
100
AcDbBlockBegin
  2
_CLOSEDBLANK
 70
0
 10
0.0
 20
0.0
 30
0.0
  3
_CLOSEDBLANK
  1

  0
LWPOLYLINE
  5
87
330
84
100
AcDbEntity
  8
0
  6
BYBLOCK
 62
0
100
AcDbPolyline
 90
3
 70
1
 10
-1.0
 20
0.16439898372402537
 10
0.0
 20
0.0
 10
-1.0
 20
-0.16439898372402537
  0
ENDBLK
  5
86
330
84
100
AcDbEntity
  8
0
100
AcDbBlockEnd
  0
ENDSEC
  0
SECTION
  2
ENTITIES
  0
HATCH
  5
94
330
17
100
AcDbEntity
  8
A-HATCH
 62
7
100
AcDbHatch
 10
0.0
 20
0.0
 30
0.0
210
0.0
220
0.0
230
1.0
  2
LINE
 70
0
 71
0
 91
1
 92
3
 72
0
 73
1
 93
4
 10
6.0
 20
16.0
 10
13.0
 20
16.0
 10
13.0
 20
21.0
 10
6.0
 20
21.0
 97
0
 75
1
 76
1
 52
0.0
 41
0.15
 77
0
 78
1
 53
0.0
 43
0.0
 44
0.0
 45
0.0
 46
0.47625
 79
0
 98
0
  0
LWPOLYLINE
  5
95
330
17
100
AcDbEntity
  8
A-THIN
100
AcDbPolyline
 90
4
 70
1
 10
6.0
 20
16.0
 10
13.0
 20
16.0
 10
13.0
 20
21.0
 10
6.0
 20
21.0
  0
HATCH
  5
96
330
17
100
AcDbEntity
  8
A-HATCH
 62
7
100
AcDbHatch
 10
0.0
 20
0.0
 30
0.0
210
0.0
220
0.0
230
1.0
  2
LINE
 70
0
 71
0
 91
1
 92
3
 72
0
 73
1
 93
4
 10
13.0
 20
19.6
 10
21.8
 20
19.6
 10
21.8
 20
21.0
 10
13.0
 20
21.0
 97
0
 75
1
 76
1
 52
0.0
 41
0.15
 77
0
 78
1
 53
0.0
 43
0.0
 44
0.0
 45
0.0
 46
0.47625
 79
0
 98
0
  0
LWPOLYLINE
  5
97
330
17
100
AcDbEntity
  8
A-THIN
100
AcDbPolyline
 90
4
 70
1
 10
13.0
 20
19.6
 10
21.8
 20
19.6
 10
21.8
 20
21.0
 10
13.0
 20
21.0
  0
HATCH
  5
98
330
17
100
AcDbEntity
  8
A-HATCH
 62
7
100
AcDbHatch
 10
0.0
 20
0.0
 30
0.0
210
0.0
220
0.0
230
1.0
  2
NET
 70
0
 71
0
 91
1
 92
3
 72
0
 73
1
 93
4
 10
21.8
 20
16.8
 10
25.0
 20
16.8
 10
25.0
 20
21.0
 10
21.8
 20
21.0
 97
0
 75
1
 76
1
 52
0.0
 41
0.6
 77
0
 78
2
 53
0.0
 43
0.0
 44
0.0
 45
0.0
 46
1.905
 79
0
 53
90.0
 43
0.0
 44
0.0
 45
-1.905
 46
0.0
 79
0
 98
0
  0
LWPOLYLINE
  5
99
330
17
100
AcDbEntity
  8
A-THIN
100
AcDbPolyline
 90
4
 70
1
 10
21.8
 20
16.8
 10
25.0
 20
16.8
 10
25.0
 20
21.0
 10
21.8
 20
21.0
  0
LWPOLYLINE
  5
9A
330
17
100
AcDbEntity
  8
A-THIN
100
AcDbPolyline
 90
4
 70
1
 10
14.0
 20
17.0
 10
21.5
 20
17.0
 10
21.5
 20
19.6
 10
14.0
 20
19.6
  0
LINE
  5
9B
330
17
100
AcDbEntity
  8
A-THIN
100
AcDbLine
 10
14.0
 20
17.0
 30
0.0
 11
21.5
 21
19.6
 31
0.0
  0
LINE
  5
9C
330
17
100
AcDbEntity
  8
A-THIN
100
AcDbLine
 10
14.0
 20
19.6
 30
0.0
 11
21.5
 21
17.0
 31
0.0
  0
TEXT
  5
9D
330
17
100
AcDbEntity
  8
A-TEXT
100
AcDbText
 10
17.75
 20
18.1
 30
0.0
 40
0.2
  1
חלל פטיו שקוע
 11
17.75
 21
18.1
 31
0.0
100
AcDbText
  0
HATCH
  5
9E
330
17
100
AcDbEntity
  8
A-HATCH
 62
7
100
AcDbHatch
 10
0.0
 20
0.0
 30
0.0
210
0.0
220
0.0
230
1.0
  2
AR-RROOF
 70
0
 71
0
 91
1
 92
3
 72
0
 73
1
 93
4
 10
8.0
 20
9.5
 10
22.0
 20
9.5
 10
22.0
 20
13.5
 10
8.0
 20
13.5
 97
0
 75
1
 76
1
 52
0.0
 41
0.05
 77
0
 78
3
 53
0.0
 43
0.0
 44
0.0
 45
2.794
 46
1.27
 79
4
 49
19.05
 49
-2.54
 49
6.35
 49
-1.27
 53
0.0
 43
1.6891
 44
0.635
 45
-1.27
 46
1.6891
 79
4
 49
3.81
 49
-0.4191
 49
7.62
 49
-0.9525
 53
0.0
 43
0.635
 44
1.0795
 45
6.604
 46
0.8509
 79
4
 49
10.16
 49
-1.778
 49
5.08
 49
-1.27
 98
0
  0
LWPOLYLINE
  5
9F
330
17
100
AcDbEntity
  8
A-THIN
100
AcDbPolyline
 90
4
 70
1
 10
8.0
 20
9.5
 10
22.0
 20
9.5
 10
22.0
 20
13.5
 10
8.0
 20
13.5
  0
LWPOLYLINE
  5
A0
330
17
100
AcDbEntity
  8
A-THIN
100
AcDbPolyline
 90
4
 70
1
 10
6.5
 20
13.5
 10
24.5
 20
13.5
 10
24.5
 20
16.7
 10
6.5
 20
16.7
  0
TEXT
  5
A1
330
17
100
AcDbEntity
  8
A-TEXT
100
AcDbText
 10
15.0
 20
11.4
 30
0.0
 40
0.22000000000000003
  1
בריכת שחייה 14.00×4.00
 11
15.0
 21
11.4
 31
0.0
100
AcDbText
  0
HATCH
  5
A2
330
17
100
AcDbEntity
  8
A-HATCH
 62
7
100
AcDbHatch
 10
0.0
 20
0.0
 30
0.0
210
0.0
220
0.0
230
1.0
  2
NET
 70
0
 71
0
 91
1
 92
3
 72
0
 73
1
 93
4
 10
25.0
 20
28.8
 10
27.6
 20
28.8
 10
27.6
 20
30.8
 10
25.0
 20
30.8
 97
0
 75
1
 76
1
 52
0.0
 41
0.6
 77
0
 78
2
 53
0.0
 43
0.0
 44
0.0
 45
0.0
 46
1.905
 79
0
 53
90.0
 43
0.0
 44
0.0
 45
-1.905
 46
0.0
 79
0
 98
0
  0
LWPOLYLINE
  5
A3
330
17
100
AcDbEntity
  8
A-THIN
100
AcDbPolyline
 90
4
 70
1
 10
25.0
 20
28.8
 10
27.6
 20
28.8
 10
27.6
 20
30.8
 10
25.0
 20
30.8
  0
LWPOLYLINE
  5
A4
330
17
100
AcDbEntity
  8
A-FURN
100
AcDbPolyline
 90
6
 70
1
 10
11.2
 20
23.2
 10
11.2
 20
24.2
 10
7.999999999999999
 20
24.2
 10
7.999999999999999
 20
26.2
 10
6.999999999999999
 20
26.2
 10
6.999999999999999
 20
23.2
  0
LWPOLYLINE
  5
A5
330
17
100
AcDbEntity
  8
A-FURN
100
AcDbPolyline
 90
3
 70
0
 10
11.149999999999999
 20
23.419999999999998
 10
7.219999999999999
 20
23.419999999999998
 10
7.219999999999999
 20
26.15
  0
LWPOLYLINE
  5
A6
330
17
100
AcDbEntity
  8
A-FURN
100
AcDbPolyline
 90
2
 70
0
 10
7.949999999999999
 20
24.4
 10
7.219999999999999
 20
24.4
  0
LWPOLYLINE
  5
A7
330
17
100
AcDbEntity
  8
A-FURN
100
AcDbPolyline
 90
2
 70
0
 10
7.949999999999999
 20
25.299999999999997
 10
7.219999999999999
 20
25.299999999999997
  0
LWPOLYLINE
  5
A8
330
17
100
AcDbEntity
  8
A-FURN
100
AcDbPolyline
 90
2
 70
0
 10
7.999999999999999
 20
23.45
 10
7.999999999999999
 20
24.2
  0
LWPOLYLINE
  5
A9
330
17
100
AcDbEntity
  8
A-FURN
100
AcDbPolyline
 90
28
 70
1
 10
11.38
 20
23.099999999999998
 10
11.3592944763918
 20
23.09727406610312
 10
11.340000000000002
 20
23.08928203230275
 10
11.323431457505077
 20
23.076568542494922
 10
11.310717967697245
 20
23.06
 10
11.302725933896875
 20
23.0407055236082
 10
11.3
 20
23.02
 10
11.3
 20
22.279999999999998
 10
11.302725933896875
 20
22.259294476391798
 10
11.310717967697245
 20
22.24
 10
11.323431457505077
 20
22.223431457505075
 10
11.340000000000002
 20
22.210717967697242
 10
11.3592944763918
 20
22.202725933896872
 10
11.38
 20
22.2
 10
12.120000000000001
 20
22.2
 10
12.140705523608203
 20
22.202725933896872
 10
12.160000000000002
 20
22.210717967697242
 10
12.176568542494925
 20
22.223431457505075
 10
12.189282032302756
 20
22.24
 10
12.197274066103127
 20
22.259294476391798
 10
12.200000000000001
 20
22.279999999999998
 10
12.200000000000001
 20
23.02
 10
12.197274066103127
 20
23.0407055236082
 10
12.189282032302756
 20
23.06
 10
12.176568542494925
 20
23.076568542494922
 10
12.160000000000002
 20
23.08928203230275
 10
12.140705523608203
 20
23.09727406610312
 10
12.120000000000001
 20
23.099999999999998
  0
LWPOLYLINE
  5
AA
330
17
100
AcDbEntity
  8
A-FURN
100
AcDbPolyline
 90
4
 70
1
 10
12.080000000000002
 20
22.4
 10
11.420000000000002
 20
22.4
 10
11.420000000000002
 20
22.2
 10
12.080000000000002
 20
22.2
  0
LWPOLYLINE
  5
AB
330
17
100
AcDbEntity
  8
A-FURN
100
AcDbPolyline
 90
4
 70
1
 10
12.200000000000001
 20
23.049999999999997
 10
12.080000000000002
 20
23.049999999999997
 10
12.080000000000002
 20
22.2
 10
12.200000000000001
 20
22.2
  0
LWPOLYLINE
  5
AC
330
17
100
AcDbEntity
  8
A-FURN
100
AcDbPolyline
 90
4
 70
1
 10
11.420000000000002
 20
23.049999999999997
 10
11.3
 20
23.049999999999997
 10
11.3
 20
22.2
 10
11.420000000000002
 20
22.2
  0
LWPOLYLINE
  5
AD
330
17
100
AcDbEntity
  8
A-FURN
100
AcDbPolyline
 90
28
 70
1
 10
11.38
 20
24.5
 10
11.3592944763918
 20
24.497274066103124
 10
11.340000000000002
 20
24.489282032302754
 10
11.323431457505077
 20
24.476568542494924
 10
11.310717967697245
 20
24.46
 10
11.302725933896875
 20
24.4407055236082
 10
11.3
 20
24.42
 10
11.3
 20
23.68
 10
11.302725933896875
 20
23.6592944763918
 10
11.310717967697245
 20
23.64
 10
11.323431457505077
 20
23.623431457505077
 10
11.340000000000002
 20
23.610717967697244
 10
11.3592944763918
 20
23.602725933896874
 10
11.38
 20
23.6
 10
12.120000000000001
 20
23.6
 10
12.140705523608203
 20
23.602725933896874
 10
12.160000000000002
 20
23.610717967697244
 10
12.176568542494925
 20
23.623431457505077
 10
12.189282032302756
 20
23.64
 10
12.197274066103127
 20
23.6592944763918
 10
12.200000000000001
 20
23.68
 10
12.200000000000001
 20
24.42
 10
12.197274066103127
 20
24.4407055236082
 10
12.189282032302756
 20
24.46
 10
12.176568542494925
 20
24.476568542494924
 10
12.160000000000002
 20
24.489282032302754
 10
12.140705523608203
 20
24.497274066103124
 10
12.120000000000001
 20
24.5
  0
LWPOLYLINE
  5
AE
330
17
100
AcDbEntity
  8
A-FURN
100
AcDbPolyline
 90
4
 70
1
 10
12.080000000000002
 20
23.8
 10
11.420000000000002
 20
23.8
 10
11.420000000000002
 20
23.6
 10
12.080000000000002
 20
23.6
  0
LWPOLYLINE
  5
AF
330
17
100
AcDbEntity
  8
A-FURN
100
AcDbPolyline
 90
4
 70
1
 10
12.200000000000001
 20
24.45
 10
12.080000000000002
 20
24.45
 10
12.080000000000002
 20
23.6
 10
12.200000000000001
 20
23.6
  0
LWPOLYLINE
  5
B0
330
17
100
AcDbEntity
  8
A-FURN
100
AcDbPolyline
 90
4
 70
1
 10
11.420000000000002
 20
24.45
 10
11.3
 20
24.45
 10
11.3
 20
23.6
 10
11.420000000000002
 20
23.6
  0
LWPOLYLINE
  5
B1
330
17
100
AcDbEntity
  8
A-FURN
100
AcDbPolyline
 90
28
 70
1
 10
10.2
 20
25.26
 10
10.198637033051561
 20
25.2703527618041
 10
10.194641016151376
 20
25.28
 10
10.188284271247461
 20
25.288284271247463
 10
10.18
 20
25.294641016151377
 10
10.1703527618041
 20
25.298637033051563
 10
10.16
 20
25.3
 10
8.639999999999999
 20
25.3
 10
8.629647238195899
 20
25.298637033051563
 10
8.62
 20
25.294641016151377
 10
8.611715728752538
 20
25.288284271247463
 10
8.605358983848621
 20
25.28
 10
8.601362966948436
 20
25.2703527618041
 10
8.6
 20
25.26
 10
8.6
 20
24.34
 10
8.601362966948436
 20
24.3296472381959
 10
8.605358983848621
 20
24.32
 10
8.611715728752538
 20
24.31171572875254
 10
8.62
 20
24.305358983848624
 10
8.629647238195899
 20
24.30136296694844
 10
8.639999999999999
 20
24.3
 10
10.16
 20
24.3
 10
10.1703527618041
 20
24.30136296694844
 10
10.18
 20
24.305358983848624
 10
10.188284271247461
 20
24.31171572875254
 10
10.194641016151376
 20
24.32
 10
10.198637033051561
 20
24.3296472381959
 10
10.2
 20
24.34
  0
LWPOLYLINE
  5
B2
330
17
100
AcDbEntity
  8
A-FURN
100
AcDbPolyline
 90
4
 70
1
 10
12.2
 20
22.0
 10
12.2
 20
26.2
 10
7.3999999999999995
 20
26.2
 10
7.3999999999999995
 20
22.0
  0
LWPOLYLINE
  5
B3
330
17
100
AcDbEntity
  8
A-FURN
100
AcDbPolyline
 90
4
 70
1
 10
8.45
 20
31.650000000000002
 10
8.45
 20
31.1
 10
10.85
 20
31.1
 10
10.85
 20
31.650000000000002
  0
LWPOLYLINE
  5
B4
330
17
100
AcDbEntity
  8
A-FURN
100
AcDbPolyline
 90
4
 70
1
 10
8.51
 20
31.450000000000003
 10
8.51
 20
31.3
 10
9.649999999999999
 20
31.3
 10
9.649999999999999
 20
31.450000000000003
  0
LWPOLYLINE
  5
B5
330
17
100
AcDbEntity
  8
A-FURN
100
AcDbPolyline
 90
11
 70
0
 10
8.569999999999999
 20
31.35
 10
8.69
 20
31.355
 10
8.569999999999999
 20
31.360000000000003
 10
8.69
 20
31.365000000000002
 10
8.569999999999999
 20
31.37
 10
8.69
 20
31.375000000000004
 10
8.569999999999999
 20
31.380000000000003
 10
8.69
 20
31.385
 10
8.569999999999999
 20
31.39
 10
8.69
 20
31.395000000000003
 10
8.569999999999999
 20
31.400000000000002
  0
LWPOLYLINE
  5
B6
330
17
100
AcDbEntity
  8
A-FURN
100
AcDbPolyline
 90
28
 70
1
 10
10.8
 20
29.34
 10
10.797955549577345
 20
29.35552914270615
 10
10.791961524227068
 20
29.369999999999997
 10
10.782426406871194
 20
29.38242640687119
 10
10.770000000000001
 20
29.391961524227064
 10
10.755529142706152
 20
29.397955549577343
 10
10.74
 20
29.4
 10
7.66
 20
29.4
 10
7.644470857293849
 20
29.397955549577343
 10
7.630000000000001
 20
29.391961524227064
 10
7.6175735931288076
 20
29.38242640687119
 10
7.6080384757729345
 20
29.369999999999997
 10
7.602044450422657
 20
29.35552914270615
 10
7.6000000000000005
 20
29.34
 10
7.6000000000000005
 20
28.459999999999997
 10
7.602044450422657
 20
28.444470857293847
 10
7.6080384757729345
 20
28.43
 10
7.6175735931288076
 20
28.417573593128807
 10
7.630000000000001
 20
28.408038475772933
 10
7.644470857293849
 20
28.402044450422654
 10
7.66
 20
28.4
 10
10.74
 20
28.4
 10
10.755529142706152
 20
28.402044450422654
 10
10.770000000000001
 20
28.408038475772933
 10
10.782426406871194
 20
28.417573593128807
 10
10.791961524227068
 20
28.43
 10
10.797955549577345
 20
28.444470857293847
 10
10.8
 20
28.459999999999997
  0
LWPOLYLINE
  5
B7
330
17
100
AcDbEntity
  8
A-FURN
100
AcDbPolyline
 90
4
 70
1
 10
7.82
 20
28.58
 10
7.82
 20
29.22
 10
7.6000000000000005
 20
29.22
 10
7.6000000000000005
 20
28.58
  0
LWPOLYLINE
  5
B8
330
17
100
AcDbEntity
  8
A-FURN
100
AcDbPolyline
 90
4
 70
1
 10
10.8
 20
28.4
 10
10.8
 20
28.58
 10
7.6000000000000005
 20
28.58
 10
7.6000000000000005
 20
28.4
  0
LWPOLYLINE
  5
B9
330
17
100
AcDbEntity
  8
A-FURN
100
AcDbPolyline
 90
4
 70
1
 10
10.8
 20
29.22
 10
10.8
 20
29.4
 10
7.6000000000000005
 20
29.4
 10
7.6000000000000005
 20
29.22
  0
LWPOLYLINE
  5
BA
330
17
100
AcDbEntity
  8
A-FURN
100
AcDbPolyline
 90
2
 70
0
 10
10.75
 20
28.9
 10
7.82
 20
28.9
  0
LWPOLYLINE
  5
BB
330
17
100
AcDbEntity
  8
A-FURN
100
AcDbPolyline
 90
6
 70
1
 10
11.0
 20
28.6
 10
11.0
 20
30.5
 10
11.825
 20
30.5
 10
12.35
 20
30.025000000000002
 10
12.5
 20
29.265
 10
11.975
 20
28.6
  0
LWPOLYLINE
  5
BC
330
17
100
AcDbEntity
  8
A-FURN
100
AcDbPolyline
 90
4
 70
1
 10
11.18
 20
28.650000000000002
 10
11.18
 20
30.450000000000003
 10
11.03
 20
30.450000000000003
 10
11.03
 20
28.650000000000002
  0
LWPOLYLINE
  5
BD
330
17
100
AcDbEntity
  8
A-FURN
100
AcDbPolyline
 90
28
 70
1
 10
6.39
 20
25.2
 10
6.379647238195899
 20
25.19863703305156
 10
6.37
 20
25.194641016151376
 10
6.361715728752538
 20
25.18828427124746
 10
6.355358983848622
 20
25.18
 10
6.351362966948437
 20
25.1703527618041
 10
6.35
 20
25.16
 10
6.35
 20
22.439999999999998
 10
6.351362966948437
 20
22.429647238195898
 10
6.355358983848622
 20
22.419999999999998
 10
6.361715728752538
 20
22.411715728752537
 10
6.37
 20
22.405358983848622
 10
6.379647238195899
 20
22.401362966948437
 10
6.39
 20
22.4
 10
6.76
 20
22.4
 10
6.770352761804101
 20
22.401362966948437
 10
6.78
 20
22.405358983848622
 10
6.788284271247462
 20
22.411715728752537
 10
6.7946410161513775
 20
22.419999999999998
 10
6.798637033051563
 20
22.429647238195898
 10
6.8
 20
22.439999999999998
 10
6.8
 20
25.16
 10
6.798637033051563
 20
25.1703527618041
 10
6.7946410161513775
 20
25.18
 10
6.788284271247462
 20
25.18828427124746
 10
6.78
 20
25.194641016151376
 10
6.770352761804101
 20
25.19863703305156
 10
6.76
 20
25.2
  0
LWPOLYLINE
  5
BE
330
17
100
AcDbEntity
  8
A-FURN
100
AcDbPolyline
 90
4
 70
1
 10
17.8
 20
22.6
 10
17.8
 20
23.8
 10
14.4
 20
23.8
 10
14.4
 20
22.6
  0
LWPOLYLINE
  5
BF
330
17
100
AcDbEntity
  8
A-FURN
100
AcDbPolyline
 90
28
 70
1
 10
18.330000000000002
 20
23.360000000000003
 10
18.327955549577347
 20
23.375529142706153
 10
18.321961524227067
 20
23.39
 10
18.312426406871193
 20
23.402426406871193
 10
18.3
 20
23.411961524227067
 10
18.285529142706153
 20
23.417955549577346
 10
18.27
 20
23.42
 10
17.970000000000002
 20
23.42
 10
17.95447085729385
 20
23.417955549577346
 10
17.94
 20
23.411961524227067
 10
17.92757359312881
 20
23.402426406871193
 10
17.918038475772935
 20
23.39
 10
17.912044450422655
 20
23.375529142706153
 10
17.91
 20
23.360000000000003
 10
17.91
 20
23.040000000000003
 10
17.912044450422655
 20
23.02447085729385
 10
17.918038475772935
 20
23.01
 10
17.92757359312881
 20
22.99757359312881
 10
17.94
 20
22.988038475772935
 10
17.95447085729385
 20
22.982044450422656
 10
17.970000000000002
 20
22.98
 10
18.27
 20
22.98
 10
18.285529142706153
 20
22.982044450422656
 10
18.3
 20
22.988038475772935
 10
18.312426406871193
 20
22.99757359312881
 10
18.321961524227067
 20
23.01
 10
18.327955549577347
 20
23.02447085729385
 10
18.330000000000002
 20
23.040000000000003
  0
LWPOLYLINE
  5
C0
330
17
100
AcDbEntity
  8
A-FURN
100
AcDbPolyline
 90
2
 70
0
 10
18.330000000000002
 20
23.0
 10
18.330000000000002
 20
23.400000000000002
  0
LWPOLYLINE
  5
C1
330
17
100
AcDbEntity
  8
A-FURN
100
AcDbPolyline
 90
28
 70
1
 10
14.290000000000001
 20
23.360000000000003
 10
14.287955549577346
 20
23.375529142706153
 10
14.281961524227068
 20
23.39
 10
14.272426406871194
 20
23.402426406871193
 10
14.260000000000002
 20
23.411961524227067
 10
14.245529142706152
 20
23.417955549577346
 10
14.23
 20
23.42
 10
13.930000000000001
 20
23.42
 10
13.91447085729385
 20
23.417955549577346
 10
13.900000000000002
 20
23.411961524227067
 10
13.887573593128808
 20
23.402426406871193
 10
13.878038475772936
 20
23.39
 10
13.872044450422656
 20
23.375529142706153
 10
13.870000000000001
 20
23.360000000000003
 10
13.870000000000001
 20
23.040000000000003
 10
13.872044450422656
 20
23.02447085729385
 10
13.878038475772936
 20
23.01
 10
13.887573593128808
 20
22.99757359312881
 10
13.900000000000002
 20
22.988038475772935
 10
13.91447085729385
 20
22.982044450422656
 10
13.930000000000001
 20
22.98
 10
14.23
 20
22.98
 10
14.245529142706152
 20
22.982044450422656
 10
14.260000000000002
 20
22.988038475772935
 10
14.272426406871194
 20
22.99757359312881
 10
14.281961524227068
 20
23.01
 10
14.287955549577346
 20
23.02447085729385
 10
14.290000000000001
 20
23.040000000000003
  0
LWPOLYLINE
  5
C2
330
17
100
AcDbEntity
  8
A-FURN
100
AcDbPolyline
 90
2
 70
0
 10
13.870000000000001
 20
23.0
 10
13.870000000000001
 20
23.400000000000002
  0
LWPOLYLINE
  5
C3
330
17
100
AcDbEntity
  8
A-FURN
100
AcDbPolyline
 90
28
 70
1
 10
16.32
 20
22.43
 10
16.317955549577345
 20
22.445529142706153
 10
16.311961524227065
 20
22.46
 10
16.302426406871195
 20
22.472426406871193
 10
16.29
 20
22.481961524227067
 10
16.27552914270615
 20
22.487955549577347
 10
16.26
 20
22.490000000000002
 10
15.940000000000001
 20
22.490000000000002
 10
15.92447085729385
 20
22.487955549577347
 10
15.91
 20
22.481961524227067
 10
15.897573593128808
 20
22.472426406871193
 10
15.888038475772934
 20
22.46
 10
15.882044450422656
 20
22.445529142706153
 10
15.88
 20
22.43
 10
15.88
 20
22.130000000000003
 10
15.882044450422656
 20
22.11447085729385
 10
15.888038475772934
 20
22.1
 10
15.897573593128808
 20
22.08757359312881
 10
15.91
 20
22.078038475772935
 10
15.92447085729385
 20
22.072044450422656
 10
15.940000000000001
 20
22.07
 10
16.26
 20
22.07
 10
16.27552914270615
 20
22.072044450422656
 10
16.29
 20
22.078038475772935
 10
16.302426406871195
 20
22.08757359312881
 10
16.311961524227065
 20
22.1
 10
16.317955549577345
 20
22.11447085729385
 10
16.32
 20
22.130000000000003
  0
LWPOLYLINE
  5
C4
330
17
100
AcDbEntity
  8
A-FURN
100
AcDbPolyline
 90
28
 70
1
 10
16.32
 20
24.270000000000003
 10
16.317955549577345
 20
24.285529142706153
 10
16.311961524227065
 20
24.3
 10
16.302426406871195
 20
24.312426406871193
 10
16.29
 20
24.321961524227067
 10
16.27552914270615
 20
24.327955549577347
 10
16.26
 20
24.330000000000002
 10
15.940000000000001
 20
24.330000000000002
 10
15.92447085729385
 20
24.327955549577347
 10
15.91
 20
24.321961524227067
 10
15.897573593128808
 20
24.312426406871193
 10
15.888038475772934
 20
24.3
 10
15.882044450422656
 20
24.285529142706153
 10
15.88
 20
24.270000000000003
 10
15.88
 20
23.970000000000002
 10
15.882044450422656
 20
23.95447085729385
 10
15.888038475772934
 20
23.94
 10
15.897573593128808
 20
23.92757359312881
 10
15.91
 20
23.918038475772935
 10
15.92447085729385
 20
23.91204445042266
 10
15.940000000000001
 20
23.91
 10
16.26
 20
23.91
 10
16.27552914270615
 20
23.91204445042266
 10
16.29
 20
23.918038475772935
 10
16.302426406871195
 20
23.92757359312881
 10
16.311961524227065
 20
23.94
 10
16.317955549577345
 20
23.95447085729385
 10
16.32
 20
23.970000000000002
  0
LWPOLYLINE
  5
C5
330
17
100
AcDbEntity
  8
A-FURN
100
AcDbPolyline
 90
4
 70
1
 10
24.7
 20
22.6
 10
24.7
 20
25.6
 10
22.3
 20
25.6
 10
22.3
 20
22.6
  0
LWPOLYLINE
  5
C6
330
17
100
AcDbEntity
  8
A-FURN
100
AcDbPolyline
 90
2
 70
0
 10
24.65
 20
22.6
 10
24.65
 20
25.6
  0
LWPOLYLINE
  5
C7
330
17
100
AcDbEntity
  8
A-FURN
100
AcDbPolyline
 90
28
 70
1
 10
24.599999999999998
 20
23.810000000000002
 10
24.598637033051563
 20
23.820352761804102
 10
24.594641016151378
 20
23.830000000000002
 10
24.58828427124746
 20
23.838284271247463
 10
24.58
 20
23.844641016151378
 10
24.5703527618041
 20
23.848637033051563
 10
24.56
 20
23.85
 10
22.439999999999998
 20
23.85
 10
22.429647238195898
 20
23.848637033051563
 10
22.419999999999998
 20
23.844641016151378
 10
22.411715728752537
 20
23.838284271247463
 10
22.405358983848622
 20
23.830000000000002
 10
22.401362966948437
 20
23.820352761804102
 10
22.4
 20
23.810000000000002
 10
22.4
 20
23.19
 10
22.401362966948437
 20
23.1796472381959
 10
22.405358983848622
 20
23.17
 10
22.411715728752537
 20
23.16171572875254
 10
22.419999999999998
 20
23.155358983848625
 10
22.429647238195898
 20
23.15136296694844
 10
22.439999999999998
 20
23.150000000000002
 10
24.56
 20
23.150000000000002
 10
24.5703527618041
 20
23.15136296694844
 10
24.58
 20
23.155358983848625
 10
24.58828427124746
 20
23.16171572875254
 10
24.594641016151378
 20
23.17
 10
24.598637033051563
 20
23.1796472381959
 10
24.599999999999998
 20
23.19
  0
LWPOLYLINE
  5
C8
330
17
100
AcDbEntity
  8
A-FURN
100
AcDbPolyline
 90
24
 70
1
 10
23.619999999999997
 20
24.69
 10
23.599294476391798
 20
24.68727406610313
 10
23.58
 20
24.67928203230276
 10
23.563431457505075
 20
24.666568542494925
 10
23.550717967697246
 20
24.650000000000002
 10
23.542725933896875
 20
24.630705523608203
 10
23.54
 20
24.610000000000003
 10
23.542725933896875
 20
24.5892944763918
 10
23.550717967697246
 20
24.57
 10
23.563431457505075
 20
24.553431457505077
 10
23.58
 20
24.540717967697248
 10
23.599294476391798
 20
24.532725933896877
 10
23.619999999999997
 20
24.53
 10
23.6407055236082
 20
24.532725933896877
 10
23.66
 20
24.540717967697248
 10
23.676568542494923
 20
24.553431457505077
 10
23.689282032302753
 20
24.57
 10
23.697274066103123
 20
24.5892944763918
 10
23.7
 20
24.610000000000003
 10
23.697274066103123
 20
24.630705523608203
 10
23.689282032302753
 20
24.650000000000002
 10
23.676568542494923
 20
24.666568542494925
 10
23.66
 20
24.67928203230276
 10
23.6407055236082
 20
24.68727406610313
  0
LWPOLYLINE
  5
C9
330
17
100
AcDbEntity
  8
A-FURN
100
AcDbPolyline
 90
24
 70
1
 10
23.619999999999997
 20
24.990000000000002
 10
23.599294476391798
 20
24.987274066103126
 10
23.58
 20
24.979282032302756
 10
23.563431457505075
 20
24.966568542494926
 10
23.550717967697246
 20
24.950000000000003
 10
23.542725933896875
 20
24.930705523608204
 10
23.54
 20
24.91
 10
23.542725933896875
 20
24.8892944763918
 10
23.550717967697246
 20
24.87
 10
23.563431457505075
 20
24.853431457505078
 10
23.58
 20
24.840717967697245
 10
23.599294476391798
 20
24.832725933896874
 10
23.619999999999997
 20
24.830000000000002
 10
23.6407055236082
 20
24.832725933896874
 10
23.66
 20
24.840717967697245
 10
23.676568542494923
 20
24.853431457505078
 10
23.689282032302753
 20
24.87
 10
23.697274066103123
 20
24.8892944763918
 10
23.7
 20
24.91
 10
23.697274066103123
 20
24.930705523608204
 10
23.689282032302753
 20
24.950000000000003
 10
23.676568542494923
 20
24.966568542494926
 10
23.66
 20
24.979282032302756
 10
23.6407055236082
 20
24.987274066103126
  0
LWPOLYLINE
  5
CA
330
17
100
AcDbEntity
  8
A-FURN
100
AcDbPolyline
 90
24
 70
1
 10
23.38
 20
24.69
 10
23.3592944763918
 20
24.68727406610313
 10
23.34
 20
24.67928203230276
 10
23.323431457505077
 20
24.666568542494925
 10
23.310717967697244
 20
24.650000000000002
 10
23.302725933896873
 20
24.630705523608203
 10
23.3
 20
24.610000000000003
 10
23.302725933896873
 20
24.5892944763918
 10
23.310717967697244
 20
24.57
 10
23.323431457505077
 20
24.553431457505077
 10
23.34
 20
24.540717967697248
 10
23.3592944763918
 20
24.532725933896877
 10
23.38
 20
24.53
 10
23.400705523608202
 20
24.532725933896877
 10
23.419999999999998
 20
24.540717967697248
 10
23.436568542494925
 20
24.553431457505077
 10
23.449282032302754
 20
24.57
 10
23.457274066103125
 20
24.5892944763918
 10
23.46
 20
24.610000000000003
 10
23.457274066103125
 20
24.630705523608203
 10
23.449282032302754
 20
24.650000000000002
 10
23.436568542494925
 20
24.666568542494925
 10
23.419999999999998
 20
24.67928203230276
 10
23.400705523608202
 20
24.68727406610313
  0
LWPOLYLINE
  5
CB
330
17
100
AcDbEntity
  8
A-FURN
100
AcDbPolyline
 90
24
 70
1
 10
23.38
 20
24.990000000000002
 10
23.3592944763918
 20
24.987274066103126
 10
23.34
 20
24.979282032302756
 10
23.323431457505077
 20
24.966568542494926
 10
23.310717967697244
 20
24.950000000000003
 10
23.302725933896873
 20
24.930705523608204
 10
23.3
 20
24.91
 10
23.302725933896873
 20
24.8892944763918
 10
23.310717967697244
 20
24.87
 10
23.323431457505077
 20
24.853431457505078
 10
23.34
 20
24.840717967697245
 10
23.3592944763918
 20
24.832725933896874
 10
23.38
 20
24.830000000000002
 10
23.400705523608202
 20
24.832725933896874
 10
23.419999999999998
 20
24.840717967697245
 10
23.436568542494925
 20
24.853431457505078
 10
23.449282032302754
 20
24.87
 10
23.457274066103125
 20
24.8892944763918
 10
23.46
 20
24.91
 10
23.457274066103125
 20
24.930705523608204
 10
23.449282032302754
 20
24.950000000000003
 10
23.436568542494925
 20
24.966568542494926
 10
23.419999999999998
 20
24.979282032302756
 10
23.400705523608202
 20
24.987274066103126
  0
LWPOLYLINE
  5
CC
330
17
100
AcDbEntity
  8
A-FURN
100
AcDbPolyline
 90
4
 70
1
 10
21.0
 20
22.6
 10
21.0
 20
25.400000000000002
 10
19.9
 20
25.400000000000002
 10
19.9
 20
22.6
  0
LWPOLYLINE
  5
CD
330
17
100
AcDbEntity
  8
A-FURN
100
AcDbPolyline
 90
4
 70
1
 10
20.95
 20
22.650000000000002
 10
20.95
 20
25.35
 10
19.95
 20
25.35
 10
19.95
 20
22.650000000000002
  0
LWPOLYLINE
  5
CE
330
17
100
AcDbEntity
  8
A-FURN
100
AcDbPolyline
 90
28
 70
1
 10
20.4
 20
24.36
 10
20.398637033051564
 20
24.370352761804103
 10
20.39464101615138
 20
24.380000000000003
 10
20.38828427124746
 20
24.388284271247464
 10
20.38
 20
24.39464101615138
 10
20.3703527618041
 20
24.398637033051564
 10
20.36
 20
24.400000000000002
 10
20.06
 20
24.400000000000002
 10
20.0496472381959
 20
24.398637033051564
 10
20.04
 20
24.39464101615138
 10
20.031715728752538
 20
24.388284271247464
 10
20.025358983848623
 20
24.380000000000003
 10
20.021362966948438
 20
24.370352761804103
 10
20.02
 20
24.36
 10
20.02
 20
23.64
 10
20.021362966948438
 20
23.6296472381959
 10
20.025358983848623
 20
23.62
 10
20.031715728752538
 20
23.61171572875254
 10
20.04
 20
23.605358983848625
 10
20.0496472381959
 20
23.60136296694844
 10
20.06
 20
23.6
 10
20.36
 20
23.6
 10
20.3703527618041
 20
23.60136296694844
 10
20.38
 20
23.605358983848625
 10
20.38828427124746
 20
23.61171572875254
 10
20.39464101615138
 20
23.62
 10
20.398637033051564
 20
23.6296472381959
 10
20.4
 20
23.64
  0
LWPOLYLINE
  5
CF
330
17
100
AcDbEntity
  8
A-FURN
100
AcDbPolyline
 90
24
 70
1
 10
19.96
 20
24.025000000000002
 10
19.953529523872437
 20
24.02414814565723
 10
19.9475
 20
24.021650635094613
 10
19.942322330470336
 20
24.017677669529665
 10
19.93834936490539
 20
24.012500000000003
 10
19.935851854342772
 20
24.006470476127564
 10
19.935
 20
24.0
 10
19.935851854342772
 20
23.99352952387244
 10
19.93834936490539
 20
23.9875
 10
19.942322330470336
 20
23.98232233047034
 10
19.9475
 20
23.97834936490539
 10
19.953529523872437
 20
23.975851854342775
 10
19.96
 20
23.975
 10
19.96647047612756
 20
23.975851854342775
 10
19.9725
 20
23.97834936490539
 10
19.977677669529662
 20
23.98232233047034
 10
19.98165063509461
 20
23.9875
 10
19.984148145657226
 20
23.99352952387244
 10
19.985
 20
24.0
 10
19.984148145657226
 20
24.006470476127564
 10
19.98165063509461
 20
24.012500000000003
 10
19.977677669529662
 20
24.017677669529665
 10
19.9725
 20
24.021650635094613
 10
19.96647047612756
 20
24.02414814565723
  0
LWPOLYLINE
  5
D0
330
17
100
AcDbEntity
  8
A-FURN
100
AcDbPolyline
 90
24
 70
1
 10
21.3
 20
23.130000000000003
 10
21.253412571881547
 20
23.123866648732033
 10
21.21
 20
23.1058845726812
 10
21.17272077938642
 20
23.07727922061358
 10
21.144115427318802
 20
23.040000000000003
 10
21.126133351267967
 20
22.996587428118456
 10
21.12
 20
22.950000000000003
 10
21.126133351267967
 20
22.903412571881546
 10
21.144115427318802
 20
22.860000000000003
 10
21.17272077938642
 20
22.822720779386422
 10
21.21
 20
22.794115427318804
 10
21.253412571881547
 20
22.77613335126797
 10
21.3
 20
22.770000000000003
 10
21.346587428118454
 20
22.77613335126797
 10
21.39
 20
22.794115427318804
 10
21.427279220613578
 20
22.822720779386422
 10
21.4558845726812
 20
22.860000000000003
 10
21.47386664873203
 20
22.903412571881546
 10
21.48
 20
22.950000000000003
 10
21.47386664873203
 20
22.996587428118456
 10
21.4558845726812
 20
23.040000000000003
 10
21.427279220613578
 20
23.07727922061358
 10
21.39
 20
23.1058845726812
 10
21.346587428118454
 20
23.123866648732033
  0
LWPOLYLINE
  5
D1
330
17
100
AcDbEntity
  8
A-FURN
100
AcDbPolyline
 90
24
 70
1
 10
21.3
 20
23.830000000000002
 10
21.253412571881547
 20
23.823866648732032
 10
21.21
 20
23.8058845726812
 10
21.17272077938642
 20
23.77727922061358
 10
21.144115427318802
 20
23.740000000000002
 10
21.126133351267967
 20
23.696587428118455
 10
21.12
 20
23.650000000000002
 10
21.126133351267967
 20
23.60341257188155
 10
21.144115427318802
 20
23.560000000000002
 10
21.17272077938642
 20
23.52272077938642
 10
21.21
 20
23.494115427318803
 10
21.253412571881547
 20
23.47613335126797
 10
21.3
 20
23.470000000000002
 10
21.346587428118454
 20
23.47613335126797
 10
21.39
 20
23.494115427318803
 10
21.427279220613578
 20
23.52272077938642
 10
21.4558845726812
 20
23.560000000000002
 10
21.47386664873203
 20
23.60341257188155
 10
21.48
 20
23.650000000000002
 10
21.47386664873203
 20
23.696587428118455
 10
21.4558845726812
 20
23.740000000000002
 10
21.427279220613578
 20
23.77727922061358
 10
21.39
 20
23.8058845726812
 10
21.346587428118454
 20
23.823866648732032
  0
LWPOLYLINE
  5
D2
330
17
100
AcDbEntity
  8
A-FURN
100
AcDbPolyline
 90
24
 70
1
 10
21.3
 20
24.53
 10
21.253412571881547
 20
24.523866648732035
 10
21.21
 20
24.5058845726812
 10
21.17272077938642
 20
24.477279220613582
 10
21.144115427318802
 20
24.44
 10
21.126133351267967
 20
24.396587428118455
 10
21.12
 20
24.35
 10
21.126133351267967
 20
24.303412571881548
 10
21.144115427318802
 20
24.26
 10
21.17272077938642
 20
24.22272077938642
 10
21.21
 20
24.194115427318803
 10
21.253412571881547
 20
24.176133351267968
 10
21.3
 20
24.17
 10
21.346587428118454
 20
24.176133351267968
 10
21.39
 20
24.194115427318803
 10
21.427279220613578
 20
24.22272077938642
 10
21.4558845726812
 20
24.26
 10
21.47386664873203
 20
24.303412571881548
 10
21.48
 20
24.35
 10
21.47386664873203
 20
24.396587428118455
 10
21.4558845726812
 20
24.44
 10
21.427279220613578
 20
24.47727922061358
 10
21.39
 20
24.5058845726812
 10
21.346587428118454
 20
24.523866648732035
  0
LWPOLYLINE
  5
D3
330
17
100
AcDbEntity
  8
A-FURN
100
AcDbPolyline
 90
24
 70
1
 10
21.3
 20
25.23
 10
21.253412571881547
 20
25.223866648732034
 10
21.21
 20
25.2058845726812
 10
21.17272077938642
 20
25.17727922061358
 10
21.144115427318802
 20
25.14
 10
21.126133351267967
 20
25.096587428118454
 10
21.12
 20
25.05
 10
21.126133351267967
 20
25.003412571881547
 10
21.144115427318802
 20
24.96
 10
21.17272077938642
 20
24.922720779386424
 10
21.21
 20
24.894115427318802
 10
21.253412571881547
 20
24.876133351267967
 10
21.3
 20
24.87
 10
21.346587428118454
 20
24.876133351267967
 10
21.39
 20
24.894115427318802
 10
21.427279220613578
 20
24.922720779386424
 10
21.4558845726812
 20
24.96
 10
21.47386664873203
 20
25.003412571881547
 10
21.48
 20
25.05
 10
21.47386664873203
 20
25.096587428118454
 10
21.4558845726812
 20
25.14
 10
21.427279220613578
 20
25.17727922061358
 10
21.39
 20
25.2058845726812
 10
21.346587428118454
 20
25.223866648732034
  0
LWPOLYLINE
  5
D4
330
17
100
AcDbEntity
  8
A-FURN
100
AcDbPolyline
 90
4
 70
1
 10
22.2
 20
25.0
 10
22.2
 20
25.62
 10
19.2
 20
25.62
 10
19.2
 20
25.0
  0
LWPOLYLINE
  5
D5
330
17
100
AcDbEntity
  8
A-FURN
100
AcDbPolyline
 90
2
 70
0
 10
22.15
 20
25.0
 10
22.15
 20
25.62
  0
LWPOLYLINE
  5
D6
330
17
100
AcDbEntity
  8
A-FURN
100
AcDbPolyline
 90
4
 70
1
 10
24.2
 20
25.0
 10
24.2
 20
25.62
 10
22.4
 20
25.62
 10
22.4
 20
25.0
  0
LWPOLYLINE
  5
D7
330
17
100
AcDbEntity
  8
A-FURN
100
AcDbPolyline
 90
2
 70
0
 10
24.2
 20
25.0
 10
22.4
 20
25.62
  0
LWPOLYLINE
  5
D8
330
17
100
AcDbEntity
  8
A-FURN
100
AcDbPolyline
 90
2
 70
0
 10
24.2
 20
25.62
 10
22.4
 20
25.0
  0
LWPOLYLINE
  5
D9
330
17
100
AcDbEntity
  8
A-FURN
100
AcDbPolyline
 90
4
 70
1
 10
24.6
 20
27.05
 10
24.6
 20
27.650000000000002
 10
21.1
 20
27.650000000000002
 10
21.1
 20
27.05
  0
LWPOLYLINE
  5
DA
330
17
100
AcDbEntity
  8
A-FURN
100
AcDbPolyline
 90
2
 70
0
 10
24.55
 20
27.05
 10
24.55
 20
27.650000000000002
  0
LWPOLYLINE
  5
DB
330
17
100
AcDbEntity
  8
A-FURN
100
AcDbPolyline
 90
4
 70
1
 10
19.599999999999998
 20
26.58
 10
19.2
 20
26.58
 10
19.2
 20
26.4
 10
19.599999999999998
 20
26.4
  0
LWPOLYLINE
  5
DC
330
17
100
AcDbEntity
  8
A-FURN
100
AcDbPolyline
 90
24
 70
1
 10
19.22
 20
26.77
 10
19.226133351267965
 20
26.71047161962642
 10
19.2441154273188
 20
26.655
 10
19.272720779386418
 20
26.607365440327094
 10
19.31
 20
26.57081415712958
 10
19.353412571881545
 20
26.547837059953515
 10
19.4
 20
26.54
 10
19.446587428118452
 20
26.547837059953515
 10
19.49
 20
26.57081415712958
 10
19.527279220613575
 20
26.607365440327094
 10
19.555884572681197
 20
26.655
 10
19.57386664873203
 20
26.71047161962642
 10
19.58
 20
26.77
 10
19.57386664873203
 20
26.82952838037358
 10
19.555884572681197
 20
26.885
 10
19.527279220613575
 20
26.932634559672906
 10
19.49
 20
26.96918584287042
 10
19.446587428118452
 20
26.992162940046487
 10
19.4
 20
27.0
 10
19.353412571881545
 20
26.992162940046487
 10
19.31
 20
26.96918584287042
 10
19.272720779386418
 20
26.932634559672906
 10
19.2441154273188
 20
26.885
 10
19.226133351267965
 20
26.82952838037358
  0
LWPOLYLINE
  5
DD
330
17
100
AcDbEntity
  8
A-FURN
100
AcDbPolyline
 90
4
 70
1
 10
20.3
 20
27.65
 10
20.3
 20
27.2
 10
20.900000000000002
 20
27.2
 10
20.900000000000002
 20
27.65
  0
LWPOLYLINE
  5
DE
330
17
100
AcDbEntity
  8
A-FURN
100
AcDbPolyline
 90
24
 70
1
 10
20.6
 20
27.2675
 10
20.646587428118455
 20
27.27286668235947
 10
20.69
 20
27.28860099890395
 10
20.72727922061358
 20
27.31363068196312
 10
20.7558845726812
 20
27.346249999999998
 10
20.77386664873203
 20
27.384236000396353
 10
20.78
 20
27.424999999999997
 10
20.77386664873203
 20
27.465763999603645
 10
20.7558845726812
 20
27.50375
 10
20.72727922061358
 20
27.53636931803688
 10
20.69
 20
27.56139900109605
 10
20.646587428118455
 20
27.577133317640527
 10
20.6
 20
27.5825
 10
20.553412571881548
 20
27.577133317640527
 10
20.51
 20
27.56139900109605
 10
20.47272077938642
 20
27.53636931803688
 10
20.444115427318803
 20
27.50375
 10
20.426133351267968
 20
27.465763999603645
 10
20.42
 20
27.424999999999997
 10
20.426133351267968
 20
27.384236000396353
 10
20.444115427318803
 20
27.346249999999998
 10
20.47272077938642
 20
27.31363068196312
 10
20.51
 20
27.28860099890395
 10
20.553412571881548
 20
27.27286668235947
  0
LWPOLYLINE
  5
DF
330
17
100
AcDbEntity
  8
A-FURN
100
AcDbPolyline
 90
4
 70
1
 10
19.3
 20
31.650000000000002
 10
19.3
 20
31.05
 10
22.900000000000002
 20
31.05
 10
22.900000000000002
 20
31.650000000000002
  0
LWPOLYLINE
  5
E0
330
17
100
AcDbEntity
  8
A-FURN
100
AcDbPolyline
 90
2
 70
0
 10
21.1
 20
31.62
 10
21.1
 20
31.080000000000002
  0
LWPOLYLINE
  5
E1
330
17
100
AcDbEntity
  8
A-FURN
100
AcDbPolyline
 90
2
 70
0
 10
19.3
 20
31.650000000000002
 10
19.36
 20
31.650000000000002
  0
LWPOLYLINE
  5
E2
330
17
100
AcDbEntity
  8
A-FURN
100
AcDbPolyline
 90
2
 70
0
 10
19.3
 20
31.05
 10
19.36
 20
31.05
  0
LWPOLYLINE
  5
E3
330
17
100
AcDbEntity
  8
A-FURN
100
AcDbPolyline
 90
2
 70
0
 10
20.98
 20
31.590000000000003
 10
21.22
 20
31.570000000000004
  0
LWPOLYLINE
  5
E4
330
17
100
AcDbEntity
  8
A-FURN
100
AcDbPolyline
 90
2
 70
0
 10
20.98
 20
31.470000000000002
 10
21.22
 20
31.450000000000003
  0
LWPOLYLINE
  5
E5
330
17
100
AcDbEntity
  8
A-FURN
100
AcDbPolyline
 90
2
 70
0
 10
20.98
 20
31.35
 10
21.22
 20
31.330000000000002
  0
LWPOLYLINE
  5
E6
330
17
100
AcDbEntity
  8
A-FURN
100
AcDbPolyline
 90
2
 70
0
 10
20.98
 20
31.23
 10
21.22
 20
31.21
  0
LWPOLYLINE
  5
E7
330
17
100
AcDbEntity
  8
A-FURN
100
AcDbPolyline
 90
2
 70
0
 10
20.98
 20
31.110000000000003
 10
21.22
 20
31.090000000000003
  0
LWPOLYLINE
  5
E8
330
17
100
AcDbEntity
  8
A-FURN
100
AcDbPolyline
 90
28
 70
1
 10
23.0
 20
31.189999999999998
 10
23.001362966948438
 20
31.179647238195898
 10
23.005358983848623
 20
31.169999999999998
 10
23.011715728752538
 20
31.161715728752537
 10
23.02
 20
31.155358983848622
 10
23.0296472381959
 20
31.151362966948437
 10
23.04
 20
31.15
 10
24.46
 20
31.15
 10
24.4703527618041
 20
31.151362966948437
 10
24.48
 20
31.155358983848622
 10
24.488284271247462
 20
31.161715728752537
 10
24.494641016151377
 20
31.169999999999998
 10
24.498637033051562
 20
31.179647238195898
 10
24.5
 20
31.189999999999998
 10
24.5
 20
31.56
 10
24.498637033051562
 20
31.5703527618041
 10
24.494641016151377
 20
31.58
 10
24.488284271247462
 20
31.58828427124746
 10
24.48
 20
31.594641016151375
 10
24.4703527618041
 20
31.59863703305156
 10
24.46
 20
31.599999999999998
 10
23.04
 20
31.599999999999998
 10
23.0296472381959
 20
31.59863703305156
 10
23.02
 20
31.594641016151375
 10
23.011715728752538
 20
31.58828427124746
 10
23.005358983848623
 20
31.58
 10
23.001362966948438
 20
31.5703527618041
 10
23.0
 20
31.56
  0
LWPOLYLINE
  5
E9
330
17
100
AcDbEntity
  8
A-FURN
100
AcDbPolyline
 90
4
 70
1
 10
17.62
 20
30.3
 10
17.62
 20
29.75
 10
19.0
 20
29.75
 10
19.0
 20
30.3
  0
LWPOLYLINE
  5
EA
330
17
100
AcDbEntity
  8
A-FURN
100
AcDbPolyline
 90
2
 70
0
 10
18.310000000000002
 20
30.27
 10
18.310000000000002
 20
29.78
  0
LWPOLYLINE
  5
EB
330
17
100
AcDbEntity
  8
A-FURN
100
AcDbPolyline
 90
2
 70
0
 10
17.62
 20
30.3
 10
17.68
 20
30.3
  0
LWPOLYLINE
  5
EC
330
17
100
AcDbEntity
  8
A-FURN
100
AcDbPolyline
 90
2
 70
0
 10
17.62
 20
29.75
 10
17.68
 20
29.75
  0
LWPOLYLINE
  5
ED
330
17
100
AcDbEntity
  8
A-FURN
100
AcDbPolyline
 90
2
 70
0
 10
18.19
 20
30.240000000000002
 10
18.43
 20
30.220000000000002
  0
LWPOLYLINE
  5
EE
330
17
100
AcDbEntity
  8
A-FURN
100
AcDbPolyline
 90
2
 70
0
 10
18.19
 20
30.12
 10
18.43
 20
30.1
  0
LWPOLYLINE
  5
EF
330
17
100
AcDbEntity
  8
A-FURN
100
AcDbPolyline
 90
2
 70
0
 10
18.19
 20
30.0
 10
18.43
 20
29.98
  0
LWPOLYLINE
  5
F0
330
17
100
AcDbEntity
  8
A-FURN
100
AcDbPolyline
 90
2
 70
0
 10
18.19
 20
29.88
 10
18.43
 20
29.86
  0
LWPOLYLINE
  5
F1
330
17
100
AcDbEntity
  8
A-FURN
100
AcDbPolyline
 90
4
 70
1
 10
11.0
 20
18.4
 10
11.0
 20
19.5
 10
8.0
 20
19.5
 10
8.0
 20
18.4
  0
LWPOLYLINE
  5
F2
330
17
100
AcDbEntity
  8
A-FURN
100
AcDbPolyline
 90
28
 70
1
 10
11.53
 20
19.11
 10
11.527955549577344
 20
19.12552914270615
 10
11.521961524227066
 20
19.139999999999997
 10
11.512426406871192
 20
19.152426406871193
 10
11.5
 20
19.161961524227063
 10
11.48552914270615
 20
19.167955549577343
 10
11.47
 20
19.169999999999998
 10
11.17
 20
19.169999999999998
 10
11.154470857293848
 20
19.167955549577343
 10
11.14
 20
19.161961524227063
 10
11.127573593128806
 20
19.152426406871193
 10
11.118038475772934
 20
19.139999999999997
 10
11.112044450422657
 20
19.12552914270615
 10
11.11
 20
19.11
 10
11.11
 20
18.79
 10
11.112044450422657
 20
18.774470857293846
 10
11.118038475772934
 20
18.759999999999998
 10
11.127573593128806
 20
18.747573593128806
 10
11.14
 20
18.73803847577293
 10
11.154470857293848
 20
18.732044450422656
 10
11.17
 20
18.729999999999997
 10
11.47
 20
18.729999999999997
 10
11.48552914270615
 20
18.732044450422656
 10
11.5
 20
18.73803847577293
 10
11.512426406871192
 20
18.747573593128806
 10
11.521961524227066
 20
18.759999999999998
 10
11.527955549577344
 20
18.774470857293846
 10
11.53
 20
18.79
  0
LWPOLYLINE
  5
F3
330
17
100
AcDbEntity
  8
A-FURN
100
AcDbPolyline
 90
2
 70
0
 10
11.53
 20
18.75
 10
11.53
 20
19.15
  0
LWPOLYLINE
  5
F4
330
17
100
AcDbEntity
  8
A-FURN
100
AcDbPolyline
 90
28
 70
1
 10
7.890000000000001
 20
19.11
 10
7.887955549577344
 20
19.12552914270615
 10
7.881961524227066
 20
19.139999999999997
 10
7.8724264068711935
 20
19.152426406871193
 10
7.86
 20
19.161961524227063
 10
7.845529142706152
 20
19.167955549577343
 10
7.83
 20
19.169999999999998
 10
7.53
 20
19.169999999999998
 10
7.5144708572938494
 20
19.167955549577343
 10
7.5
 20
19.161961524227063
 10
7.487573593128808
 20
19.152426406871193
 10
7.478038475772934
 20
19.139999999999997
 10
7.472044450422656
 20
19.12552914270615
 10
7.470000000000001
 20
19.11
 10
7.470000000000001
 20
18.79
 10
7.472044450422656
 20
18.774470857293846
 10
7.478038475772934
 20
18.759999999999998
 10
7.487573593128808
 20
18.747573593128806
 10
7.5
 20
18.73803847577293
 10
7.5144708572938494
 20
18.732044450422656
 10
7.53
 20
18.729999999999997
 10
7.83
 20
18.729999999999997
 10
7.845529142706152
 20
18.732044450422656
 10
7.859999999999999
 20
18.73803847577293
 10
7.8724264068711935
 20
18.747573593128806
 10
7.881961524227066
 20
18.759999999999998
 10
7.887955549577344
 20
18.774470857293846
 10
7.890000000000001
 20
18.79
  0
LWPOLYLINE
  5
F5
330
17
100
AcDbEntity
  8
A-FURN
100
AcDbPolyline
 90
2
 70
0
 10
7.470000000000001
 20
18.75
 10
7.470000000000001
 20
19.15
  0
LWPOLYLINE
  5
F6
330
17
100
AcDbEntity
  8
A-FURN
100
AcDbPolyline
 90
28
 70
1
 10
9.72
 20
18.229999999999997
 10
9.717955549577344
 20
18.24552914270615
 10
9.711961524227066
 20
18.259999999999998
 10
9.702426406871194
 20
18.27242640687119
 10
9.69
 20
18.281961524227064
 10
9.675529142706152
 20
18.287955549577344
 10
9.66
 20
18.29
 10
9.34
 20
18.29
 10
9.324470857293848
 20
18.287955549577344
 10
9.31
 20
18.281961524227064
 10
9.297573593128806
 20
18.27242640687119
 10
9.288038475772934
 20
18.259999999999998
 10
9.282044450422656
 20
18.24552914270615
 10
9.28
 20
18.229999999999997
 10
9.28
 20
17.93
 10
9.282044450422656
 20
17.914470857293846
 10
9.288038475772934
 20
17.9
 10
9.297573593128806
 20
17.887573593128806
 10
9.31
 20
17.878038475772932
 10
9.324470857293848
 20
17.872044450422653
 10
9.34
 20
17.869999999999997
 10
9.66
 20
17.869999999999997
 10
9.675529142706152
 20
17.872044450422653
 10
9.69
 20
17.878038475772932
 10
9.702426406871194
 20
17.887573593128806
 10
9.711961524227066
 20
17.9
 10
9.717955549577344
 20
17.914470857293846
 10
9.72
 20
17.93
  0
LWPOLYLINE
  5
F7
330
17
100
AcDbEntity
  8
A-FURN
100
AcDbPolyline
 90
28
 70
1
 10
9.72
 20
19.97
 10
9.717955549577344
 20
19.98552914270615
 10
9.711961524227066
 20
20.0
 10
9.702426406871194
 20
20.012426406871192
 10
9.69
 20
20.021961524227066
 10
9.675529142706152
 20
20.027955549577342
 10
9.66
 20
20.029999999999998
 10
9.34
 20
20.029999999999998
 10
9.324470857293848
 20
20.027955549577342
 10
9.31
 20
20.021961524227066
 10
9.297573593128806
 20
20.012426406871192
 10
9.288038475772934
 20
20.0
 10
9.282044450422656
 20
19.98552914270615
 10
9.28
 20
19.97
 10
9.28
 20
19.669999999999998
 10
9.282044450422656
 20
19.65447085729385
 10
9.288038475772934
 20
19.64
 10
9.297573593128806
 20
19.627573593128805
 10
9.31
 20
19.618038475772934
 10
9.324470857293848
 20
19.612044450422655
 10
9.34
 20
19.61
 10
9.66
 20
19.61
 10
9.675529142706152
 20
19.612044450422655
 10
9.69
 20
19.618038475772934
 10
9.702426406871194
 20
19.627573593128805
 10
9.711961524227066
 20
19.64
 10
9.717955549577344
 20
19.65447085729385
 10
9.72
 20
19.669999999999998
  0
LWPOLYLINE
  5
F8
330
17
100
AcDbEntity
  8
A-FURN
100
AcDbPolyline
 90
28
 70
1
 10
9.7
 20
12.94
 10
9.697955549577344
 20
12.955529142706151
 10
9.691961524227066
 20
12.97
 10
9.682426406871192
 20
12.982426406871193
 10
9.67
 20
12.991961524227067
 10
9.65552914270615
 20
12.997955549577345
 10
9.639999999999999
 20
13.0
 10
9.059999999999999
 20
13.0
 10
9.044470857293849
 20
12.997955549577345
 10
9.03
 20
12.991961524227067
 10
9.017573593128807
 20
12.982426406871193
 10
9.008038475772933
 20
12.97
 10
9.002044450422655
 20
12.955529142706151
 10
9.0
 20
12.94
 10
9.0
 20
11.06
 10
9.002044450422655
 20
11.044470857293849
 10
9.008038475772933
 20
11.03
 10
9.017573593128807
 20
11.017573593128807
 10
9.03
 20
11.008038475772933
 10
9.044470857293849
 20
11.002044450422655
 10
9.059999999999999
 20
11.0
 10
9.639999999999999
 20
11.0
 10
9.65552914270615
 20
11.002044450422655
 10
9.67
 20
11.008038475772933
 10
9.682426406871192
 20
11.017573593128807
 10
9.691961524227066
 20
11.03
 10
9.697955549577344
 20
11.044470857293849
 10
9.7
 20
11.06
  0
LWPOLYLINE
  5
F9
330
17
100
AcDbEntity
  8
A-FURN
100
AcDbPolyline
 90
2
 70
0
 10
9.209999999999999
 20
11.0
 10
9.209999999999999
 20
13.0
  0
LWPOLYLINE
  5
FA
330
17
100
AcDbEntity
  8
A-THIN
100
AcDbPolyline
 90
4
 70
1
 10
13.2
 20
27.7
 10
14.299999999999999
 20
27.7
 10
14.299999999999999
 20
27.98
 10
13.2
 20
27.98
  0
LWPOLYLINE
  5
FB
330
17
100
AcDbEntity
  8
A-THIN
100
AcDbPolyline
 90
4
 70
1
 10
13.2
 20
27.98
 10
14.299999999999999
 20
27.98
 10
14.299999999999999
 20
28.259999999999998
 10
13.2
 20
28.259999999999998
  0
LWPOLYLINE
  5
FC
330
17
100
AcDbEntity
  8
A-THIN
100
AcDbPolyline
 90
4
 70
1
 10
13.2
 20
28.259999999999998
 10
14.299999999999999
 20
28.259999999999998
 10
14.299999999999999
 20
28.54
 10
13.2
 20
28.54
  0
LWPOLYLINE
  5
FD
330
17
100
AcDbEntity
  8
A-THIN
100
AcDbPolyline
 90
4
 70
1
 10
13.2
 20
28.54
 10
14.299999999999999
 20
28.54
 10
14.299999999999999
 20
28.82
 10
13.2
 20
28.82
  0
LWPOLYLINE
  5
FE
330
17
100
AcDbEntity
  8
A-THIN
100
AcDbPolyline
 90
4
 70
1
 10
13.2
 20
28.82
 10
14.299999999999999
 20
28.82
 10
14.299999999999999
 20
29.099999999999998
 10
13.2
 20
29.099999999999998
  0
LWPOLYLINE
  5
FF
330
17
100
AcDbEntity
  8
A-THIN
100
AcDbPolyline
 90
4
 70
1
 10
13.2
 20
29.099999999999998
 10
14.299999999999999
 20
29.099999999999998
 10
14.299999999999999
 20
29.38
 10
13.2
 20
29.38
  0
LWPOLYLINE
  5
100
330
17
100
AcDbEntity
  8
A-THIN
100
AcDbPolyline
 90
4
 70
1
 10
13.2
 20
29.38
 10
14.299999999999999
 20
29.38
 10
14.299999999999999
 20
29.66
 10
13.2
 20
29.66
  0
LWPOLYLINE
  5
101
330
17
100
AcDbEntity
  8
A-THIN
100
AcDbPolyline
 90
4
 70
1
 10
13.2
 20
29.66
 10
14.299999999999999
 20
29.66
 10
14.299999999999999
 20
29.939999999999998
 10
13.2
 20
29.939999999999998
  0
LWPOLYLINE
  5
102
330
17
100
AcDbEntity
  8
A-THIN
100
AcDbPolyline
 90
4
 70
1
 10
13.2
 20
29.939999999999998
 10
14.299999999999999
 20
29.939999999999998
 10
14.299999999999999
 20
30.22
 10
13.2
 20
30.22
  0
LWPOLYLINE
  5
103
330
17
100
AcDbEntity
  8
A-HIDDEN
100
AcDbPolyline
 90
4
 70
1
 10
13.2
 20
30.22
 10
14.299999999999999
 20
30.22
 10
14.299999999999999
 20
30.5
 10
13.2
 20
30.5
  0
LWPOLYLINE
  5
104
330
17
100
AcDbEntity
  8
A-THIN
100
AcDbPolyline
 90
6
 70
0
 10
13.149999999999999
 20
29.97
 10
13.6
 20
29.97
 10
13.75
 20
30.169999999999998
 10
13.799999999999999
 20
29.77
 10
13.95
 20
29.97
 10
14.35
 20
29.97
  0
LWPOLYLINE
  5
105
330
17
100
AcDbEntity
  8
A-HIDDEN
100
AcDbPolyline
 90
4
 70
1
 10
13.2
 20
30.5
 10
15.499999999999998
 20
30.5
 10
15.499999999999998
 20
31.7
 10
13.2
 20
31.7
  0
LWPOLYLINE
  5
106
330
17
100
AcDbEntity
  8
A-HIDDEN
100
AcDbPolyline
 90
4
 70
1
 10
14.399999999999999
 20
30.22
 10
15.499999999999998
 20
30.22
 10
15.499999999999998
 20
30.5
 10
14.399999999999999
 20
30.5
  0
LWPOLYLINE
  5
107
330
17
100
AcDbEntity
  8
A-HIDDEN
100
AcDbPolyline
 90
4
 70
1
 10
14.399999999999999
 20
29.94
 10
15.499999999999998
 20
29.94
 10
15.499999999999998
 20
30.22
 10
14.399999999999999
 20
30.22
  0
LWPOLYLINE
  5
108
330
17
100
AcDbEntity
  8
A-HIDDEN
100
AcDbPolyline
 90
4
 70
1
 10
14.399999999999999
 20
29.66
 10
15.499999999999998
 20
29.66
 10
15.499999999999998
 20
29.94
 10
14.399999999999999
 20
29.94
  0
LWPOLYLINE
  5
109
330
17
100
AcDbEntity
  8
A-HIDDEN
100
AcDbPolyline
 90
4
 70
1
 10
14.399999999999999
 20
29.38
 10
15.499999999999998
 20
29.38
 10
15.499999999999998
 20
29.66
 10
14.399999999999999
 20
29.66
  0
LWPOLYLINE
  5
10A
330
17
100
AcDbEntity
  8
A-HIDDEN
100
AcDbPolyline
 90
4
 70
1
 10
14.399999999999999
 20
29.1
 10
15.499999999999998
 20
29.1
 10
15.499999999999998
 20
29.38
 10
14.399999999999999
 20
29.38
  0
LWPOLYLINE
  5
10B
330
17
100
AcDbEntity
  8
A-HIDDEN
100
AcDbPolyline
 90
4
 70
1
 10
14.399999999999999
 20
28.82
 10
15.499999999999998
 20
28.82
 10
15.499999999999998
 20
29.1
 10
14.399999999999999
 20
29.1
  0
LWPOLYLINE
  5
10C
330
17
100
AcDbEntity
  8
A-HIDDEN
100
AcDbPolyline
 90
4
 70
1
 10
14.399999999999999
 20
28.54
 10
15.499999999999998
 20
28.54
 10
15.499999999999998
 20
28.82
 10
14.399999999999999
 20
28.82
  0
LWPOLYLINE
  5
10D
330
17
100
AcDbEntity
  8
A-HIDDEN
100
AcDbPolyline
 90
4
 70
1
 10
14.399999999999999
 20
28.259999999999998
 10
15.499999999999998
 20
28.259999999999998
 10
15.499999999999998
 20
28.54
 10
14.399999999999999
 20
28.54
  0
LWPOLYLINE
  5
10E
330
17
100
AcDbEntity
  8
A-HIDDEN
100
AcDbPolyline
 90
4
 70
1
 10
14.399999999999999
 20
27.98
 10
15.499999999999998
 20
27.98
 10
15.499999999999998
 20
28.259999999999998
 10
14.399999999999999
 20
28.259999999999998
  0
LWPOLYLINE
  5
10F
330
17
100
AcDbEntity
  8
A-THIN
100
AcDbPolyline
 90
2
 70
0
 10
13.75
 20
27.8
 10
13.75
 20
29.72
  0
LWPOLYLINE
  5
110
330
17
100
AcDbEntity
  8
A-THIN
100
AcDbPolyline
 90
3
 70
1
 10
13.66
 20
29.54
 10
13.84
 20
29.54
 10
13.75
 20
29.72
  0
CIRCLE
  5
111
330
17
100
AcDbEntity
  8
A-THIN
100
AcDbCircle
 10
13.75
 20
27.8
 30
0.0
 40
0.05
  0
TEXT
  5
112
330
17
100
AcDbEntity
  8
A-TEXT
100
AcDbText
 10
13.75
 20
27.4
 30
0.0
 40
0.18
  1
עולה
 11
13.75
 21
27.4
 31
0.0
100
AcDbText
  0
LWPOLYLINE
  5
113
330
17
100
AcDbEntity
  8
A-THIN
100
AcDbPolyline
 90
4
 70
1
 10
14.399999999999999
 20
30.22
 10
15.499999999999998
 20
30.22
 10
15.499999999999998
 20
30.5
 10
14.399999999999999
 20
30.5
  0
LWPOLYLINE
  5
114
330
17
100
AcDbEntity
  8
A-THIN
100
AcDbPolyline
 90
4
 70
1
 10
14.399999999999999
 20
29.94
 10
15.499999999999998
 20
29.94
 10
15.499999999999998
 20
30.22
 10
14.399999999999999
 20
30.22
  0
LWPOLYLINE
  5
115
330
17
100
AcDbEntity
  8
A-THIN
100
AcDbPolyline
 90
4
 70
1
 10
14.399999999999999
 20
29.66
 10
15.499999999999998
 20
29.66
 10
15.499999999999998
 20
29.94
 10
14.399999999999999
 20
29.94
  0
LWPOLYLINE
  5
116
330
17
100
AcDbEntity
  8
A-THIN
100
AcDbPolyline
 90
4
 70
1
 10
14.399999999999999
 20
29.38
 10
15.499999999999998
 20
29.38
 10
15.499999999999998
 20
29.66
 10
14.399999999999999
 20
29.66
  0
LWPOLYLINE
  5
117
330
17
100
AcDbEntity
  8
A-THIN
100
AcDbPolyline
 90
4
 70
1
 10
14.399999999999999
 20
29.1
 10
15.499999999999998
 20
29.1
 10
15.499999999999998
 20
29.38
 10
14.399999999999999
 20
29.38
  0
LWPOLYLINE
  5
118
330
17
100
AcDbEntity
  8
A-THIN
100
AcDbPolyline
 90
4
 70
1
 10
14.399999999999999
 20
28.82
 10
15.499999999999998
 20
28.82
 10
15.499999999999998
 20
29.1
 10
14.399999999999999
 20
29.1
  0
LWPOLYLINE
  5
119
330
17
100
AcDbEntity
  8
A-THIN
100
AcDbPolyline
 90
4
 70
1
 10
14.399999999999999
 20
28.54
 10
15.499999999999998
 20
28.54
 10
15.499999999999998
 20
28.82
 10
14.399999999999999
 20
28.82
  0
LWPOLYLINE
  5
11A
330
17
100
AcDbEntity
  8
A-THIN
100
AcDbPolyline
 90
4
 70
1
 10
14.399999999999999
 20
28.259999999999998
 10
15.499999999999998
 20
28.259999999999998
 10
15.499999999999998
 20
28.54
 10
14.399999999999999
 20
28.54
  0
LWPOLYLINE
  5
11B
330
17
100
AcDbEntity
  8
A-THIN
100
AcDbPolyline
 90
4
 70
1
 10
14.399999999999999
 20
27.98
 10
15.499999999999998
 20
27.98
 10
15.499999999999998
 20
28.259999999999998
 10
14.399999999999999
 20
28.259999999999998
  0
LWPOLYLINE
  5
11C
330
17
100
AcDbEntity
  8
A-THIN
100
AcDbPolyline
 90
2
 70
0
 10
14.95
 20
28.080000000000002
 10
14.95
 20
30.2
  0
LWPOLYLINE
  5
11D
330
17
100
AcDbEntity
  8
A-THIN
100
AcDbPolyline
 90
3
 70
1
 10
14.86
 20
30.02
 10
15.04
 20
30.02
 10
14.95
 20
30.2
  0
TEXT
  5
11E
330
17
100
AcDbEntity
  8
A-TEXT
100
AcDbText
 10
14.95
 20
27.68
 30
0.0
 40
0.18
  1
יורד
 11
14.95
 21
27.68
 31
0.0
100
AcDbText
  0
LINE
  5
11F
330
17
100
AcDbEntity
  8
A-MAIN
100
AcDbLine
 10
14.35
 20
27.7
 30
0.0
 11
14.35
 21
30.5
 31
0.0
  0
LWPOLYLINE
  5
120
330
17
100
AcDbEntity
  8
A-THIN
100
AcDbPolyline
 90
4
 70
1
 10
15.95
 20
29.979999999999997
 10
17.25
 20
29.979999999999997
 10
17.25
 20
31.65
 10
15.95
 20
31.65
  0
LINE
  5
121
330
17
100
AcDbEntity
  8
A-THIN
100
AcDbLine
 10
15.95
 20
29.979999999999997
 30
0.0
 11
17.25
 21
31.65
 31
0.0
  0
LINE
  5
122
330
17
100
AcDbEntity
  8
A-THIN
100
AcDbLine
 10
17.25
 20
29.979999999999997
 30
0.0
 11
15.95
 21
31.65
 31
0.0
  0
TEXT
  5
123
330
17
100
AcDbEntity
  8
A-TEXT
100
AcDbText
 10
16.6
 20
31.049999999999997
 30
0.0
 40
0.18
  1
מעלית
 11
16.6
 21
31.049999999999997
 31
0.0
100
AcDbText
  0
HATCH
  5
124
330
17
100
AcDbEntity
  8
A-HATCH
 62
7
100
AcDbHatch
 10
0.0
 20
0.0
 30
0.0
210
0.0
220
0.0
230
1.0
  2
ANSI31
 70
0
 71
0
 91
1
 92
3
 72
0
 73
1
 93
5
 10
21.8
 20
21.299999999999997
 10
22.3
 20
21.299999999999997
 10
22.3
 20
21.099999999999998
 10
21.8
 20
21.099999999999998
 10
21.8
 20
21.299999999999997
 97
0
 75
1
 76
1
 52
0.0
 41
0.25
 77
0
 78
1
 53
45.0
 43
0.0
 44
0.0
 45
-0.5612660076
 46
0.5612660076
 79
0
 98
0
  0
HATCH
  5
125
330
17
100
AcDbEntity
  8
A-HATCH
 62
7
100
AcDbHatch
 10
0.0
 20
0.0
 30
0.0
210
0.0
220
0.0
230
1.0
  2
ANSI31
 70
0
 71
0
 91
1
 92
3
 72
0
 73
1
 93
5
 10
25.15
 20
21.299999999999997
 10
25.15
 20
21.099999999999998
 10
24.4
 20
21.099999999999998
 10
24.4
 20
21.299999999999997
 10
25.15
 20
21.299999999999997
 97
0
 75
1
 76
1
 52
0.0
 41
0.25
 77
0
 78
1
 53
45.0
 43
0.0
 44
0.0
 45
-0.5612660076
 46
0.5612660076
 79
0
 98
0
  0
HATCH
  5
126
330
17
100
AcDbEntity
  8
A-HATCH
 62
7
100
AcDbHatch
 10
0.0
 20
0.0
 30
0.0
210
0.0
220
0.0
230
1.0
  2
ANSI31
 70
0
 71
0
 91
1
 92
3
 72
0
 73
1
 93
5
 10
18.8
 20
21.299999999999997
 10
19.4
 20
21.299999999999997
 10
19.4
 20
21.099999999999998
 10
18.8
 20
21.099999999999998
 10
18.8
 20
21.299999999999997
 97
0
 75
1
 76
1
 52
0.0
 41
0.25
 77
0
 78
1
 53
45.0
 43
0.0
 44
0.0
 45
-0.5612660076
 46
0.5612660076
 79
0
 98
0
  0
HATCH
  5
127
330
17
100
AcDbEntity
  8
A-HATCH
 62
7
100
AcDbHatch
 10
0.0
 20
0.0
 30
0.0
210
0.0
220
0.0
230
1.0
  2
ANSI31
 70
0
 71
0
 91
1
 92
3
 72
0
 73
1
 93
5
 10
13.3
 20
21.299999999999997
 10
13.3
 20
21.099999999999998
 10
12.7
 20
21.099999999999998
 10
12.7
 20
21.299999999999997
 10
13.3
 20
21.299999999999997
 97
0
 75
1
 76
1
 52
0.0
 41
0.25
 77
0
 78
1
 53
45.0
 43
0.0
 44
0.0
 45
-0.5612660076
 46
0.5612660076
 79
0
 98
0
  0
HATCH
  5
128
330
17
100
AcDbEntity
  8
A-HATCH
 62
7
100
AcDbHatch
 10
0.0
 20
0.0
 30
0.0
210
0.0
220
0.0
230
1.0
  2
ANSI31
 70
0
 71
0
 91
1
 92
3
 72
0
 73
1
 93
5
 10
6.45
 20
21.099999999999998
 10
5.85
 20
21.099999999999998
 10
5.85
 20
21.299999999999997
 10
6.45
 20
21.299999999999997
 10
6.45
 20
21.099999999999998
 97
0
 75
1
 76
1
 52
0.0
 41
0.25
 77
0
 78
1
 53
45.0
 43
0.0
 44
0.0
 45
-0.5612660076
 46
0.5612660076
 79
0
 98
0
  0
HATCH
  5
129
330
17
100
AcDbEntity
  8
A-HATCH
 62
7
100
AcDbHatch
 10
0.0
 20
0.0
 30
0.0
210
0.0
220
0.0
230
1.0
  2
ANSI32
 70
0
 71
0
 91
1
 92
3
 72
0
 73
1
 93
5
 10
21.8
 20
21.099999999999998
 10
22.3
 20
21.099999999999998
 10
22.3
 20
21.0
 10
21.8
 20
21.0
 10
21.8
 20
21.099999999999998
 97
0
 75
1
 76
1
 52
0.0
 41
0.2
 77
0
 78
2
 53
45.0
 43
0.0
 44
0.0
 45
-1.3470384182
 46
1.3470384182
 79
0
 53
45.0
 43
0.8980256106
 44
0.0
 45
-1.3470384182
 46
1.3470384182
 79
0
 98
0
  0
LWPOLYLINE
  5
12A
330
17
100
AcDbEntity
  8
A-THIN
100
AcDbPolyline
 90
5
 70
1
 10
21.8
 20
21.099999999999998
 10
22.3
 20
21.099999999999998
 10
22.3
 20
21.0
 10
21.8
 20
21.0
 10
21.8
 20
21.099999999999998
  0
HATCH
  5
12B
330
17
100
AcDbEntity
  8
A-HATCH
 62
7
100
AcDbHatch
 10
0.0
 20
0.0
 30
0.0
210
0.0
220
0.0
230
1.0
  2
ANSI32
 70
0
 71
0
 91
1
 92
3
 72
0
 73
1
 93
5
 10
25.15
 20
21.099999999999998
 10
25.15
 20
21.0
 10
24.4
 20
21.0
 10
24.4
 20
21.099999999999998
 10
25.15
 20
21.099999999999998
 97
0
 75
1
 76
1
 52
0.0
 41
0.2
 77
0
 78
2
 53
45.0
 43
0.0
 44
0.0
 45
-1.3470384182
 46
1.3470384182
 79
0
 53
45.0
 43
0.8980256106
 44
0.0
 45
-1.3470384182
 46
1.3470384182
 79
0
 98
0
  0
LWPOLYLINE
  5
12C
330
17
100
AcDbEntity
  8
A-THIN
100
AcDbPolyline
 90
5
 70
1
 10
25.15
 20
21.099999999999998
 10
25.15
 20
21.0
 10
24.4
 20
21.0
 10
24.4
 20
21.099999999999998
 10
25.15
 20
21.099999999999998
  0
HATCH
  5
12D
330
17
100
AcDbEntity
  8
A-HATCH
 62
7
100
AcDbHatch
 10
0.0
 20
0.0
 30
0.0
210
0.0
220
0.0
230
1.0
  2
ANSI32
 70
0
 71
0
 91
1
 92
3
 72
0
 73
1
 93
5
 10
18.8
 20
21.099999999999998
 10
19.4
 20
21.099999999999998
 10
19.4
 20
21.0
 10
18.8
 20
21.0
 10
18.8
 20
21.099999999999998
 97
0
 75
1
 76
1
 52
0.0
 41
0.2
 77
0
 78
2
 53
45.0
 43
0.0
 44
0.0
 45
-1.3470384182
 46
1.3470384182
 79
0
 53
45.0
 43
0.8980256106
 44
0.0
 45
-1.3470384182
 46
1.3470384182
 79
0
 98
0
  0
LWPOLYLINE
  5
12E
330
17
100
AcDbEntity
  8
A-THIN
100
AcDbPolyline
 90
5
 70
1
 10
18.8
 20
21.099999999999998
 10
19.4
 20
21.099999999999998
 10
19.4
 20
21.0
 10
18.8
 20
21.0
 10
18.8
 20
21.099999999999998
  0
HATCH
  5
12F
330
17
100
AcDbEntity
  8
A-HATCH
 62
7
100
AcDbHatch
 10
0.0
 20
0.0
 30
0.0
210
0.0
220
0.0
230
1.0
  2
ANSI32
 70
0
 71
0
 91
1
 92
3
 72
0
 73
1
 93
5
 10
13.3
 20
21.099999999999998
 10
13.3
 20
21.0
 10
12.7
 20
21.0
 10
12.7
 20
21.099999999999998
 10
13.3
 20
21.099999999999998
 97
0
 75
1
 76
1
 52
0.0
 41
0.2
 77
0
 78
2
 53
45.0
 43
0.0
 44
0.0
 45
-1.3470384182
 46
1.3470384182
 79
0
 53
45.0
 43
0.8980256106
 44
0.0
 45
-1.3470384182
 46
1.3470384182
 79
0
 98
0
  0
LWPOLYLINE
  5
130
330
17
100
AcDbEntity
  8
A-THIN
100
AcDbPolyline
 90
5
 70
1
 10
13.3
 20
21.099999999999998
 10
13.3
 20
21.0
 10
12.7
 20
21.0
 10
12.7
 20
21.099999999999998
 10
13.3
 20
21.099999999999998
  0
HATCH
  5
131
330
17
100
AcDbEntity
  8
A-HATCH
 62
7
100
AcDbHatch
 10
0.0
 20
0.0
 30
0.0
210
0.0
220
0.0
230
1.0
  2
ANSI32
 70
0
 71
0
 91
1
 92
3
 72
0
 73
1
 93
5
 10
6.45
 20
21.0
 10
5.85
 20
21.0
 10
5.85
 20
21.099999999999998
 10
6.45
 20
21.099999999999998
 10
6.45
 20
21.0
 97
0
 75
1
 76
1
 52
0.0
 41
0.2
 77
0
 78
2
 53
45.0
 43
0.0
 44
0.0
 45
-1.3470384182
 46
1.3470384182
 79
0
 53
45.0
 43
0.8980256106
 44
0.0
 45
-1.3470384182
 46
1.3470384182
 79
0
 98
0
  0
LWPOLYLINE
  5
132
330
17
100
AcDbEntity
  8
A-THIN
100
AcDbPolyline
 90
5
 70
1
 10
6.45
 20
21.0
 10
5.85
 20
21.0
 10
5.85
 20
21.099999999999998
 10
6.45
 20
21.099999999999998
 10
6.45
 20
21.0
  0
HATCH
  5
133
330
17
100
AcDbEntity
  8
A-HATCH
 62
7
100
AcDbHatch
 10
0.0
 20
0.0
 30
0.0
210
0.0
220
0.0
230
1.0
  2
ANSI31
 70
0
 71
0
 91
1
 92
3
 72
0
 73
1
 93
5
 10
24.900000000000002
 20
22.0
 10
24.900000000000002
 20
20.85
 10
24.700000000000003
 20
20.85
 10
24.700000000000003
 20
22.0
 10
24.900000000000002
 20
22.0
 97
0
 75
1
 76
1
 52
0.0
 41
0.25
 77
0
 78
1
 53
45.0
 43
0.0
 44
0.0
 45
-0.5612660076
 46
0.5612660076
 79
0
 98
0
  0
HATCH
  5
134
330
17
100
AcDbEntity
  8
A-HATCH
 62
7
100
AcDbHatch
 10
0.0
 20
0.0
 30
0.0
210
0.0
220
0.0
230
1.0
  2
ANSI31
 70
0
 71
0
 91
1
 92
3
 72
0
 73
1
 93
5
 10
24.700000000000003
 20
30.5
 10
24.700000000000003
 20
30.6
 10
24.900000000000002
 20
30.6
 10
24.900000000000002
 20
30.5
 10
24.700000000000003
 20
30.5
 97
0
 75
1
 76
1
 52
0.0
 41
0.25
 77
0
 78
1
 53
45.0
 43
0.0
 44
0.0
 45
-0.5612660076
 46
0.5612660076
 79
0
 98
0
  0
HATCH
  5
135
330
17
100
AcDbEntity
  8
A-HATCH
 62
7
100
AcDbHatch
 10
0.0
 20
0.0
 30
0.0
210
0.0
220
0.0
230
1.0
  2
ANSI31
 70
0
 71
0
 91
1
 92
3
 72
0
 73
1
 93
5
 10
24.700000000000003
 20
32.15
 10
24.900000000000002
 20
32.15
 10
24.900000000000002
 20
31.5
 10
24.700000000000003
 20
31.5
 10
24.700000000000003
 20
32.15
 97
0
 75
1
 76
1
 52
0.0
 41
0.25
 77
0
 78
1
 53
45.0
 43
0.0
 44
0.0
 45
-0.5612660076
 46
0.5612660076
 79
0
 98
0
  0
HATCH
  5
136
330
17
100
AcDbEntity
  8
A-HATCH
 62
7
100
AcDbHatch
 10
0.0
 20
0.0
 30
0.0
210
0.0
220
0.0
230
1.0
  2
ANSI31
 70
0
 71
0
 91
1
 92
3
 72
0
 73
1
 93
5
 10
24.700000000000003
 20
27.1
 10
24.700000000000003
 20
29.1
 10
24.900000000000002
 20
29.1
 10
24.900000000000002
 20
27.1
 10
24.700000000000003
 20
27.1
 97
0
 75
1
 76
1
 52
0.0
 41
0.25
 77
0
 78
1
 53
45.0
 43
0.0
 44
0.0
 45
-0.5612660076
 46
0.5612660076
 79
0
 98
0
  0
HATCH
  5
137
330
17
100
AcDbEntity
  8
A-HATCH
 62
7
100
AcDbHatch
 10
0.0
 20
0.0
 30
0.0
210
0.0
220
0.0
230
1.0
  2
ANSI31
 70
0
 71
0
 91
1
 92
3
 72
0
 73
1
 93
5
 10
24.700000000000003
 20
26.2
 10
24.900000000000002
 20
26.2
 10
24.900000000000002
 20
25.0
 10
24.700000000000003
 20
25.0
 10
24.700000000000003
 20
26.2
 97
0
 75
1
 76
1
 52
0.0
 41
0.25
 77
0
 78
1
 53
45.0
 43
0.0
 44
0.0
 45
-0.5612660076
 46
0.5612660076
 79
0
 98
0
  0
HATCH
  5
138
330
17
100
AcDbEntity
  8
A-HATCH
 62
7
100
AcDbHatch
 10
0.0
 20
0.0
 30
0.0
210
0.0
220
0.0
230
1.0
  2
ANSI32
 70
0
 71
0
 91
1
 92
3
 72
0
 73
1
 93
5
 10
25.0
 20
22.0
 10
25.0
 20
20.85
 10
24.900000000000002
 20
20.85
 10
24.900000000000002
 20
22.0
 10
25.0
 20
22.0
 97
0
 75
1
 76
1
 52
0.0
 41
0.2
 77
0
 78
2
 53
45.0
 43
0.0
 44
0.0
 45
-1.3470384182
 46
1.3470384182
 79
0
 53
45.0
 43
0.8980256106
 44
0.0
 45
-1.3470384182
 46
1.3470384182
 79
0
 98
0
  0
LWPOLYLINE
  5
139
330
17
100
AcDbEntity
  8
A-THIN
100
AcDbPolyline
 90
5
 70
1
 10
25.0
 20
22.0
 10
25.0
 20
20.85
 10
24.900000000000002
 20
20.85
 10
24.900000000000002
 20
22.0
 10
25.0
 20
22.0
  0
HATCH
  5
13A
330
17
100
AcDbEntity
  8
A-HATCH
 62
7
100
AcDbHatch
 10
0.0
 20
0.0
 30
0.0
210
0.0
220
0.0
230
1.0
  2
ANSI32
 70
0
 71
0
 91
1
 92
3
 72
0
 73
1
 93
5
 10
24.900000000000002
 20
30.5
 10
24.900000000000002
 20
30.6
 10
25.0
 20
30.6
 10
25.0
 20
30.5
 10
24.900000000000002
 20
30.5
 97
0
 75
1
 76
1
 52
0.0
 41
0.2
 77
0
 78
2
 53
45.0
 43
0.0
 44
0.0
 45
-1.3470384182
 46
1.3470384182
 79
0
 53
45.0
 43
0.8980256106
 44
0.0
 45
-1.3470384182
 46
1.3470384182
 79
0
 98
0
  0
LWPOLYLINE
  5
13B
330
17
100
AcDbEntity
  8
A-THIN
100
AcDbPolyline
 90
5
 70
1
 10
24.900000000000002
 20
30.5
 10
24.900000000000002
 20
30.6
 10
25.0
 20
30.6
 10
25.0
 20
30.5
 10
24.900000000000002
 20
30.5
  0
HATCH
  5
13C
330
17
100
AcDbEntity
  8
A-HATCH
 62
7
100
AcDbHatch
 10
0.0
 20
0.0
 30
0.0
210
0.0
220
0.0
230
1.0
  2
ANSI32
 70
0
 71
0
 91
1
 92
3
 72
0
 73
1
 93
5
 10
24.900000000000002
 20
32.15
 10
25.0
 20
32.15
 10
25.0
 20
31.5
 10
24.900000000000002
 20
31.5
 10
24.900000000000002
 20
32.15
 97
0
 75
1
 76
1
 52
0.0
 41
0.2
 77
0
 78
2
 53
45.0
 43
0.0
 44
0.0
 45
-1.3470384182
 46
1.3470384182
 79
0
 53
45.0
 43
0.8980256106
 44
0.0
 45
-1.3470384182
 46
1.3470384182
 79
0
 98
0
  0
LWPOLYLINE
  5
13D
330
17
100
AcDbEntity
  8
A-THIN
100
AcDbPolyline
 90
5
 70
1
 10
24.900000000000002
 20
32.15
 10
25.0
 20
32.15
 10
25.0
 20
31.5
 10
24.900000000000002
 20
31.5
 10
24.900000000000002
 20
32.15
  0
HATCH
  5
13E
330
17
100
AcDbEntity
  8
A-HATCH
 62
7
100
AcDbHatch
 10
0.0
 20
0.0
 30
0.0
210
0.0
220
0.0
230
1.0
  2
ANSI32
 70
0
 71
0
 91
1
 92
3
 72
0
 73
1
 93
5
 10
24.900000000000002
 20
27.1
 10
24.900000000000002
 20
29.1
 10
25.0
 20
29.1
 10
25.0
 20
27.1
 10
24.900000000000002
 20
27.1
 97
0
 75
1
 76
1
 52
0.0
 41
0.2
 77
0
 78
2
 53
45.0
 43
0.0
 44
0.0
 45
-1.3470384182
 46
1.3470384182
 79
0
 53
45.0
 43
0.8980256106
 44
0.0
 45
-1.3470384182
 46
1.3470384182
 79
0
 98
0
  0
LWPOLYLINE
  5
13F
330
17
100
AcDbEntity
  8
A-THIN
100
AcDbPolyline
 90
5
 70
1
 10
24.900000000000002
 20
27.1
 10
24.900000000000002
 20
29.1
 10
25.0
 20
29.1
 10
25.0
 20
27.1
 10
24.900000000000002
 20
27.1
  0
HATCH
  5
140
330
17
100
AcDbEntity
  8
A-HATCH
 62
7
100
AcDbHatch
 10
0.0
 20
0.0
 30
0.0
210
0.0
220
0.0
230
1.0
  2
ANSI32
 70
0
 71
0
 91
1
 92
3
 72
0
 73
1
 93
5
 10
24.900000000000002
 20
26.2
 10
25.0
 20
26.2
 10
25.0
 20
25.0
 10
24.900000000000002
 20
25.0
 10
24.900000000000002
 20
26.2
 97
0
 75
1
 76
1
 52
0.0
 41
0.2
 77
0
 78
2
 53
45.0
 43
0.0
 44
0.0
 45
-1.3470384182
 46
1.3470384182
 79
0
 53
45.0
 43
0.8980256106
 44
0.0
 45
-1.3470384182
 46
1.3470384182
 79
0
 98
0
  0
LWPOLYLINE
  5
141
330
17
100
AcDbEntity
  8
A-THIN
100
AcDbPolyline
 90
5
 70
1
 10
24.900000000000002
 20
26.2
 10
25.0
 20
26.2
 10
25.0
 20
25.0
 10
24.900000000000002
 20
25.0
 10
24.900000000000002
 20
26.2
  0
HATCH
  5
142
330
17
100
AcDbEntity
  8
A-HATCH
 62
7
100
AcDbHatch
 10
0.0
 20
0.0
 30
0.0
210
0.0
220
0.0
230
1.0
  2
ANSI31
 70
0
 71
0
 91
1
 92
3
 72
0
 73
1
 93
5
 10
15.3
 20
31.900000000000002
 10
19.6
 20
31.900000000000002
 10
19.6
 20
31.700000000000003
 10
15.3
 20
31.700000000000003
 10
15.3
 20
31.900000000000002
 97
0
 75
1
 76
1
 52
0.0
 41
0.25
 77
0
 78
1
 53
45.0
 43
0.0
 44
0.0
 45
-0.5612660076
 46
0.5612660076
 79
0
 98
0
  0
HATCH
  5
143
330
17
100
AcDbEntity
  8
A-HATCH
 62
7
100
AcDbHatch
 10
0.0
 20
0.0
 30
0.0
210
0.0
220
0.0
230
1.0
  2
ANSI31
 70
0
 71
0
 91
1
 92
3
 72
0
 73
1
 93
5
 10
25.15
 20
31.900000000000002
 10
25.15
 20
31.700000000000003
 10
24.4
 20
31.700000000000003
 10
24.4
 20
31.900000000000002
 10
25.15
 20
31.900000000000002
 97
0
 75
1
 76
1
 52
0.0
 41
0.25
 77
0
 78
1
 53
45.0
 43
0.0
 44
0.0
 45
-0.5612660076
 46
0.5612660076
 79
0
 98
0
  0
HATCH
  5
144
330
17
100
AcDbEntity
  8
A-HATCH
 62
7
100
AcDbHatch
 10
0.0
 20
0.0
 30
0.0
210
0.0
220
0.0
230
1.0
  2
ANSI31
 70
0
 71
0
 91
1
 92
3
 72
0
 73
1
 93
5
 10
12.1
 20
31.900000000000002
 10
13.4
 20
31.900000000000002
 10
13.4
 20
31.700000000000003
 10
12.1
 20
31.700000000000003
 10
12.1
 20
31.900000000000002
 97
0
 75
1
 76
1
 52
0.0
 41
0.25
 77
0
 78
1
 53
45.0
 43
0.0
 44
0.0
 45
-0.5612660076
 46
0.5612660076
 79
0
 98
0
  0
HATCH
  5
145
330
17
100
AcDbEntity
  8
A-HATCH
 62
7
100
AcDbHatch
 10
0.0
 20
0.0
 30
0.0
210
0.0
220
0.0
230
1.0
  2
ANSI31
 70
0
 71
0
 91
1
 92
3
 72
0
 73
1
 93
5
 10
11.5
 20
31.900000000000002
 10
11.5
 20
31.700000000000003
 10
7.8
 20
31.700000000000003
 10
7.8
 20
31.900000000000002
 10
11.5
 20
31.900000000000002
 97
0
 75
1
 76
1
 52
0.0
 41
0.25
 77
0
 78
1
 53
45.0
 43
0.0
 44
0.0
 45
-0.5612660076
 46
0.5612660076
 79
0
 98
0
  0
HATCH
  5
146
330
17
100
AcDbEntity
  8
A-HATCH
 62
7
100
AcDbHatch
 10
0.0
 20
0.0
 30
0.0
210
0.0
220
0.0
230
1.0
  2
ANSI31
 70
0
 71
0
 91
1
 92
3
 72
0
 73
1
 93
5
 10
7.2
 20
31.700000000000003
 10
5.85
 20
31.700000000000003
 10
5.85
 20
31.900000000000002
 10
7.2
 20
31.900000000000002
 10
7.2
 20
31.700000000000003
 97
0
 75
1
 76
1
 52
0.0
 41
0.25
 77
0
 78
1
 53
45.0
 43
0.0
 44
0.0
 45
-0.5612660076
 46
0.5612660076
 79
0
 98
0
  0
HATCH
  5
147
330
17
100
AcDbEntity
  8
A-HATCH
 62
7
100
AcDbHatch
 10
0.0
 20
0.0
 30
0.0
210
0.0
220
0.0
230
1.0
  2
ANSI32
 70
0
 71
0
 91
1
 92
3
 72
0
 73
1
 93
5
 10
15.3
 20
32.0
 10
19.6
 20
32.0
 10
19.6
 20
31.900000000000002
 10
15.3
 20
31.900000000000002
 10
15.3
 20
32.0
 97
0
 75
1
 76
1
 52
0.0
 41
0.2
 77
0
 78
2
 53
45.0
 43
0.0
 44
0.0
 45
-1.3470384182
 46
1.3470384182
 79
0
 53
45.0
 43
0.8980256106
 44
0.0
 45
-1.3470384182
 46
1.3470384182
 79
0
 98
0
  0
LWPOLYLINE
  5
148
330
17
100
AcDbEntity
  8
A-THIN
100
AcDbPolyline
 90
5
 70
1
 10
15.3
 20
32.0
 10
19.6
 20
32.0
 10
19.6
 20
31.900000000000002
 10
15.3
 20
31.900000000000002
 10
15.3
 20
32.0
  0
HATCH
  5
149
330
17
100
AcDbEntity
  8
A-HATCH
 62
7
100
AcDbHatch
 10
0.0
 20
0.0
 30
0.0
210
0.0
220
0.0
230
1.0
  2
ANSI32
 70
0
 71
0
 91
1
 92
3
 72
0
 73
1
 93
5
 10
25.15
 20
32.0
 10
25.15
 20
31.900000000000002
 10
24.4
 20
31.900000000000002
 10
24.4
 20
32.0
 10
25.15
 20
32.0
 97
0
 75
1
 76
1
 52
0.0
 41
0.2
 77
0
 78
2
 53
45.0
 43
0.0
 44
0.0
 45
-1.3470384182
 46
1.3470384182
 79
0
 53
45.0
 43
0.8980256106
 44
0.0
 45
-1.3470384182
 46
1.3470384182
 79
0
 98
0
  0
LWPOLYLINE
  5
14A
330
17
100
AcDbEntity
  8
A-THIN
100
AcDbPolyline
 90
5
 70
1
 10
25.15
 20
32.0
 10
25.15
 20
31.900000000000002
 10
24.4
 20
31.900000000000002
 10
24.4
 20
32.0
 10
25.15
 20
32.0
  0
HATCH
  5
14B
330
17
100
AcDbEntity
  8
A-HATCH
 62
7
100
AcDbHatch
 10
0.0
 20
0.0
 30
0.0
210
0.0
220
0.0
230
1.0
  2
ANSI32
 70
0
 71
0
 91
1
 92
3
 72
0
 73
1
 93
5
 10
12.1
 20
32.0
 10
13.4
 20
32.0
 10
13.4
 20
31.900000000000002
 10
12.1
 20
31.900000000000002
 10
12.1
 20
32.0
 97
0
 75
1
 76
1
 52
0.0
 41
0.2
 77
0
 78
2
 53
45.0
 43
0.0
 44
0.0
 45
-1.3470384182
 46
1.3470384182
 79
0
 53
45.0
 43
0.8980256106
 44
0.0
 45
-1.3470384182
 46
1.3470384182
 79
0
 98
0
  0
LWPOLYLINE
  5
14C
330
17
100
AcDbEntity
  8
A-THIN
100
AcDbPolyline
 90
5
 70
1
 10
12.1
 20
32.0
 10
13.4
 20
32.0
 10
13.4
 20
31.900000000000002
 10
12.1
 20
31.900000000000002
 10
12.1
 20
32.0
  0
HATCH
  5
14D
330
17
100
AcDbEntity
  8
A-HATCH
 62
7
100
AcDbHatch
 10
0.0
 20
0.0
 30
0.0
210
0.0
220
0.0
230
1.0
  2
ANSI32
 70
0
 71
0
 91
1
 92
3
 72
0
 73
1
 93
5
 10
11.5
 20
32.0
 10
11.5
 20
31.900000000000002
 10
7.8
 20
31.900000000000002
 10
7.8
 20
32.0
 10
11.5
 20
32.0
 97
0
 75
1
 76
1
 52
0.0
 41
0.2
 77
0
 78
2
 53
45.0
 43
0.0
 44
0.0
 45
-1.3470384182
 46
1.3470384182
 79
0
 53
45.0
 43
0.8980256106
 44
0.0
 45
-1.3470384182
 46
1.3470384182
 79
0
 98
0
  0
LWPOLYLINE
  5
14E
330
17
100
AcDbEntity
  8
A-THIN
100
AcDbPolyline
 90
5
 70
1
 10
11.5
 20
32.0
 10
11.5
 20
31.900000000000002
 10
7.8
 20
31.900000000000002
 10
7.8
 20
32.0
 10
11.5
 20
32.0
  0
HATCH
  5
14F
330
17
100
AcDbEntity
  8
A-HATCH
 62
7
100
AcDbHatch
 10
0.0
 20
0.0
 30
0.0
210
0.0
220
0.0
230
1.0
  2
ANSI32
 70
0
 71
0
 91
1
 92
3
 72
0
 73
1
 93
5
 10
7.2
 20
31.900000000000002
 10
5.85
 20
31.900000000000002
 10
5.85
 20
32.0
 10
7.2
 20
32.0
 10
7.2
 20
31.900000000000002
 97
0
 75
1
 76
1
 52
0.0
 41
0.2
 77
0
 78
2
 53
45.0
 43
0.0
 44
0.0
 45
-1.3470384182
 46
1.3470384182
 79
0
 53
45.0
 43
0.8980256106
 44
0.0
 45
-1.3470384182
 46
1.3470384182
 79
0
 98
0
  0
LWPOLYLINE
  5
150
330
17
100
AcDbEntity
  8
A-THIN
100
AcDbPolyline
 90
5
 70
1
 10
7.2
 20
31.900000000000002
 10
5.85
 20
31.900000000000002
 10
5.85
 20
32.0
 10
7.2
 20
32.0
 10
7.2
 20
31.900000000000002
  0
HATCH
  5
151
330
17
100
AcDbEntity
  8
A-HATCH
 62
7
100
AcDbHatch
 10
0.0
 20
0.0
 30
0.0
210
0.0
220
0.0
230
1.0
  2
ANSI31
 70
0
 71
0
 91
1
 92
3
 72
0
 73
1
 93
5
 10
6.1000000000000005
 20
20.85
 10
6.1000000000000005
 20
21.45
 10
6.300000000000001
 20
21.45
 10
6.300000000000001
 20
20.85
 10
6.1000000000000005
 20
20.85
 97
0
 75
1
 76
1
 52
0.0
 41
0.25
 77
0
 78
1
 53
45.0
 43
0.0
 44
0.0
 45
-0.5612660076
 46
0.5612660076
 79
0
 98
0
  0
HATCH
  5
152
330
17
100
AcDbEntity
  8
A-HATCH
 62
7
100
AcDbHatch
 10
0.0
 20
0.0
 30
0.0
210
0.0
220
0.0
230
1.0
  2
ANSI31
 70
0
 71
0
 91
1
 92
3
 72
0
 73
1
 93
5
 10
6.300000000000001
 20
32.15
 10
6.300000000000001
 20
29.6
 10
6.1000000000000005
 20
29.6
 10
6.1000000000000005
 20
32.15
 10
6.300000000000001
 20
32.15
 97
0
 75
1
 76
1
 52
0.0
 41
0.25
 77
0
 78
1
 53
45.0
 43
0.0
 44
0.0
 45
-0.5612660076
 46
0.5612660076
 79
0
 98
0
  0
HATCH
  5
153
330
17
100
AcDbEntity
  8
A-HATCH
 62
7
100
AcDbHatch
 10
0.0
 20
0.0
 30
0.0
210
0.0
220
0.0
230
1.0
  2
ANSI31
 70
0
 71
0
 91
1
 92
3
 72
0
 73
1
 93
5
 10
6.300000000000001
 20
25.6
 10
6.1000000000000005
 20
25.6
 10
6.1000000000000005
 20
26.4
 10
6.300000000000001
 20
26.4
 10
6.300000000000001
 20
25.6
 97
0
 75
1
 76
1
 52
0.0
 41
0.25
 77
0
 78
1
 53
45.0
 43
0.0
 44
0.0
 45
-0.5612660076
 46
0.5612660076
 79
0
 98
0
  0
HATCH
  5
154
330
17
100
AcDbEntity
  8
A-HATCH
 62
7
100
AcDbHatch
 10
0.0
 20
0.0
 30
0.0
210
0.0
220
0.0
230
1.0
  2
ANSI32
 70
0
 71
0
 91
1
 92
3
 72
0
 73
1
 93
5
 10
6.0
 20
20.85
 10
6.0
 20
21.45
 10
6.1000000000000005
 20
21.45
 10
6.1000000000000005
 20
20.85
 10
6.0
 20
20.85
 97
0
 75
1
 76
1
 52
0.0
 41
0.2
 77
0
 78
2
 53
45.0
 43
0.0
 44
0.0
 45
-1.3470384182
 46
1.3470384182
 79
0
 53
45.0
 43
0.8980256106
 44
0.0
 45
-1.3470384182
 46
1.3470384182
 79
0
 98
0
  0
LWPOLYLINE
  5
155
330
17
100
AcDbEntity
  8
A-THIN
100
AcDbPolyline
 90
5
 70
1
 10
6.0
 20
20.85
 10
6.0
 20
21.45
 10
6.1000000000000005
 20
21.45
 10
6.1000000000000005
 20
20.85
 10
6.0
 20
20.85
  0
HATCH
  5
156
330
17
100
AcDbEntity
  8
A-HATCH
 62
7
100
AcDbHatch
 10
0.0
 20
0.0
 30
0.0
210
0.0
220
0.0
230
1.0
  2
ANSI32
 70
0
 71
0
 91
1
 92
3
 72
0
 73
1
 93
5
 10
6.1000000000000005
 20
32.15
 10
6.1000000000000005
 20
29.6
 10
6.0
 20
29.6
 10
6.0
 20
32.15
 10
6.1000000000000005
 20
32.15
 97
0
 75
1
 76
1
 52
0.0
 41
0.2
 77
0
 78
2
 53
45.0
 43
0.0
 44
0.0
 45
-1.3470384182
 46
1.3470384182
 79
0
 53
45.0
 43
0.8980256106
 44
0.0
 45
-1.3470384182
 46
1.3470384182
 79
0
 98
0
  0
LWPOLYLINE
  5
157
330
17
100
AcDbEntity
  8
A-THIN
100
AcDbPolyline
 90
5
 70
1
 10
6.1000000000000005
 20
32.15
 10
6.1000000000000005
 20
29.6
 10
6.0
 20
29.6
 10
6.0
 20
32.15
 10
6.1000000000000005
 20
32.15
  0
HATCH
  5
158
330
17
100
AcDbEntity
  8
A-HATCH
 62
7
100
AcDbHatch
 10
0.0
 20
0.0
 30
0.0
210
0.0
220
0.0
230
1.0
  2
ANSI32
 70
0
 71
0
 91
1
 92
3
 72
0
 73
1
 93
5
 10
6.1000000000000005
 20
25.6
 10
6.0
 20
25.6
 10
6.0
 20
26.4
 10
6.1000000000000005
 20
26.4
 10
6.1000000000000005
 20
25.6
 97
0
 75
1
 76
1
 52
0.0
 41
0.2
 77
0
 78
2
 53
45.0
 43
0.0
 44
0.0
 45
-1.3470384182
 46
1.3470384182
 79
0
 53
45.0
 43
0.8980256106
 44
0.0
 45
-1.3470384182
 46
1.3470384182
 79
0
 98
0
  0
LWPOLYLINE
  5
159
330
17
100
AcDbEntity
  8
A-THIN
100
AcDbPolyline
 90
5
 70
1
 10
6.1000000000000005
 20
25.6
 10
6.0
 20
25.6
 10
6.0
 20
26.4
 10
6.1000000000000005
 20
26.4
 10
6.1000000000000005
 20
25.6
  0
HATCH
  5
15A
330
17
100
AcDbEntity
  8
A-HATCH
 62
7
100
AcDbHatch
 10
0.0
 20
0.0
 30
0.0
210
0.0
220
0.0
230
1.0
  2
ANSI31
 70
0
 71
0
 91
1
 92
3
 72
0
 73
1
 93
5
 10
13.0
 20
25.15
 10
13.0
 20
31.7
 10
12.7
 20
31.7
 10
12.7
 20
25.15
 10
13.0
 20
25.15
 97
0
 75
1
 76
1
 52
0.0
 41
0.4
 77
0
 78
1
 53
45.0
 43
0.0
 44
0.0
 45
-0.8980256121
 46
0.8980256121
 79
0
 98
0
  0
HATCH
  5
15B
330
17
100
AcDbEntity
  8
A-HATCH
 62
7
100
AcDbHatch
 10
0.0
 20
0.0
 30
0.0
210
0.0
220
0.0
230
1.0
  2
ANSI37
 70
0
 71
0
 91
1
 92
3
 72
0
 73
1
 93
5
 10
19.119999999999997
 20
25.15
 10
19.0
 20
25.15
 10
19.0
 20
26.3
 10
19.119999999999997
 20
26.3
 10
19.119999999999997
 20
25.15
 97
0
 75
1
 76
1
 52
0.0
 41
0.2
 77
0
 78
2
 53
45.0
 43
0.0
 44
0.0
 45
-0.4490128061
 46
0.4490128061
 79
0
 53
135.0
 43
0.0
 44
0.0
 45
-0.4490128061
 46
-0.4490128061
 79
0
 98
0
  0
HATCH
  5
15C
330
17
100
AcDbEntity
  8
A-HATCH
 62
7
100
AcDbHatch
 10
0.0
 20
0.0
 30
0.0
210
0.0
220
0.0
230
1.0
  2
ANSI37
 70
0
 71
0
 91
1
 92
3
 72
0
 73
1
 93
5
 10
19.0
 20
27.76
 10
19.119999999999997
 20
27.76
 10
19.119999999999997
 20
27.1
 10
19.0
 20
27.1
 10
19.0
 20
27.76
 97
0
 75
1
 76
1
 52
0.0
 41
0.2
 77
0
 78
2
 53
45.0
 43
0.0
 44
0.0
 45
-0.4490128061
 46
0.4490128061
 79
0
 53
135.0
 43
0.0
 44
0.0
 45
-0.4490128061
 46
-0.4490128061
 79
0
 98
0
  0
HATCH
  5
15D
330
17
100
AcDbEntity
  8
A-HATCH
 62
7
100
AcDbHatch
 10
0.0
 20
0.0
 30
0.0
210
0.0
220
0.0
230
1.0
  2
ANSI37
 70
0
 71
0
 91
1
 92
3
 72
0
 73
1
 93
5
 10
24.7
 20
25.25
 10
24.7
 20
25.049999999999997
 10
24.5
 20
25.049999999999997
 10
24.5
 20
25.25
 10
24.7
 20
25.25
 97
0
 75
1
 76
1
 52
0.0
 41
0.2
 77
0
 78
2
 53
45.0
 43
0.0
 44
0.0
 45
-0.4490128061
 46
0.4490128061
 79
0
 53
135.0
 43
0.0
 44
0.0
 45
-0.4490128061
 46
-0.4490128061
 79
0
 98
0
  0
HATCH
  5
15E
330
17
100
AcDbEntity
  8
A-HATCH
 62
7
100
AcDbHatch
 10
0.0
 20
0.0
 30
0.0
210
0.0
220
0.0
230
1.0
  2
ANSI37
 70
0
 71
0
 91
1
 92
3
 72
0
 73
1
 93
5
 10
19.06
 20
25.049999999999997
 10
19.06
 20
25.25
 10
23.7
 20
25.25
 10
23.7
 20
25.049999999999997
 10
19.06
 20
25.049999999999997
 97
0
 75
1
 76
1
 52
0.0
 41
0.2
 77
0
 78
2
 53
45.0
 43
0.0
 44
0.0
 45
-0.4490128061
 46
0.4490128061
 79
0
 53
135.0
 43
0.0
 44
0.0
 45
-0.4490128061
 46
-0.4490128061
 79
0
 98
0
  0
HATCH
  5
15F
330
17
100
AcDbEntity
  8
A-HATCH
 62
7
100
AcDbHatch
 10
0.0
 20
0.0
 30
0.0
210
0.0
220
0.0
230
1.0
  2
ANSI37
 70
0
 71
0
 91
1
 92
3
 72
0
 73
1
 93
5
 10
21.02
 20
25.25
 10
21.02
 20
27.76
 10
20.900000000000002
 20
27.76
 10
20.900000000000002
 20
25.25
 10
21.02
 20
25.25
 97
0
 75
1
 76
1
 52
0.0
 41
0.2
 77
0
 78
2
 53
45.0
 43
0.0
 44
0.0
 45
-0.4490128061
 46
0.4490128061
 79
0
 53
135.0
 43
0.0
 44
0.0
 45
-0.4490128061
 46
-0.4490128061
 79
0
 98
0
  0
HATCH
  5
160
330
17
100
AcDbEntity
  8
A-HATCH
 62
7
100
AcDbHatch
 10
0.0
 20
0.0
 30
0.0
210
0.0
220
0.0
230
1.0
  2
ANSI37
 70
0
 71
0
 91
1
 92
3
 72
0
 73
1
 93
5
 10
24.7
 20
27.700000000000003
 10
24.7
 20
27.82
 10
19.12
 20
27.82
 10
19.12
 20
27.700000000000003
 10
24.7
 20
27.700000000000003
 97
0
 75
1
 76
1
 52
0.0
 41
0.2
 77
0
 78
2
 53
45.0
 43
0.0
 44
0.0
 45
-0.4490128061
 46
0.4490128061
 79
0
 53
135.0
 43
0.0
 44
0.0
 45
-0.4490128061
 46
-0.4490128061
 79
0
 98
0
  0
HATCH
  5
161
330
17
100
AcDbEntity
  8
A-HATCH
 62
7
100
AcDbHatch
 10
0.0
 20
0.0
 30
0.0
210
0.0
220
0.0
230
1.0
  2
ANSI37
 70
0
 71
0
 91
1
 92
3
 72
0
 73
1
 93
5
 10
17.619999999999997
 20
29.7
 10
17.619999999999997
 20
31.7
 10
17.5
 20
31.7
 10
17.5
 20
29.7
 10
17.619999999999997
 20
29.7
 97
0
 75
1
 76
1
 52
0.0
 41
0.2
 77
0
 78
2
 53
45.0
 43
0.0
 44
0.0
 45
-0.4490128061
 46
0.4490128061
 79
0
 53
135.0
 43
0.0
 44
0.0
 45
-0.4490128061
 46
-0.4490128061
 79
0
 98
0
  0
HATCH
  5
162
330
17
100
AcDbEntity
  8
A-HATCH
 62
7
100
AcDbHatch
 10
0.0
 20
0.0
 30
0.0
210
0.0
220
0.0
230
1.0
  2
ANSI31
 70
0
 71
0
 91
1
 92
3
 72
0
 73
1
 93
5
 10
15.899999999999999
 20
29.7
 10
15.899999999999999
 20
31.7
 10
15.7
 20
31.7
 10
15.7
 20
29.7
 10
15.899999999999999
 20
29.7
 97
0
 75
1
 76
1
 52
0.0
 41
0.4
 77
0
 78
1
 53
45.0
 43
0.0
 44
0.0
 45
-0.8980256121
 46
0.8980256121
 79
0
 98
0
  0
HATCH
  5
163
330
17
100
AcDbEntity
  8
A-HATCH
 62
7
100
AcDbHatch
 10
0.0
 20
0.0
 30
0.0
210
0.0
220
0.0
230
1.0
  2
ANSI31
 70
0
 71
0
 91
1
 92
3
 72
0
 73
1
 93
5
 10
17.5
 20
29.7
 10
17.5
 20
31.7
 10
17.299999999999997
 20
31.7
 10
17.299999999999997
 20
29.7
 10
17.5
 20
29.7
 97
0
 75
1
 76
1
 52
0.0
 41
0.4
 77
0
 78
1
 53
45.0
 43
0.0
 44
0.0
 45
-0.8980256121
 46
0.8980256121
 79
0
 98
0
  0
HATCH
  5
164
330
17
100
AcDbEntity
  8
A-HATCH
 62
7
100
AcDbHatch
 10
0.0
 20
0.0
 30
0.0
210
0.0
220
0.0
230
1.0
  2
ANSI31
 70
0
 71
0
 91
1
 92
3
 72
0
 73
1
 93
5
 10
16.3
 20
29.7
 10
16.3
 20
29.900000000000002
 10
15.7
 20
29.900000000000002
 10
15.7
 20
29.7
 10
16.3
 20
29.7
 97
0
 75
1
 76
1
 52
0.0
 41
0.4
 77
0
 78
1
 53
45.0
 43
0.0
 44
0.0
 45
-0.8980256121
 46
0.8980256121
 79
0
 98
0
  0
HATCH
  5
165
330
17
100
AcDbEntity
  8
A-HATCH
 62
7
100
AcDbHatch
 10
0.0
 20
0.0
 30
0.0
210
0.0
220
0.0
230
1.0
  2
ANSI31
 70
0
 71
0
 91
1
 92
3
 72
0
 73
1
 93
5
 10
17.5
 20
29.7
 10
17.5
 20
29.900000000000002
 10
16.9
 20
29.900000000000002
 10
16.9
 20
29.7
 10
17.5
 20
29.7
 97
0
 75
1
 76
1
 52
0.0
 41
0.4
 77
0
 78
1
 53
45.0
 43
0.0
 44
0.0
 45
-0.8980256121
 46
0.8980256121
 79
0
 98
0
  0
LWPOLYLINE
  5
166
330
17
100
AcDbEntity
  8
A-CUT
100
AcDbPolyline
 90
17
 70
1
 10
5.85
 20
21.099999999999998
 10
5.85
 20
21.299999999999997
 10
6.0
 20
21.299999999999997
 10
6.0
 20
21.45
 10
6.1000000000000005
 20
21.45
 10
6.300000000000001
 20
21.45
 10
6.300000000000001
 20
21.299999999999997
 10
6.45
 20
21.299999999999997
 10
6.45
 20
21.099999999999998
 10
6.45
 20
21.0
 10
6.300000000000001
 20
21.0
 10
6.300000000000001
 20
20.85
 10
6.1000000000000005
 20
20.85
 10
6.0
 20
20.85
 10
6.0
 20
21.0
 10
5.85
 20
21.0
 10
5.85
 20
21.099999999999998
  0
LWPOLYLINE
  5
167
330
17
100
AcDbEntity
  8
A-CUT
100
AcDbPolyline
 90
9
 70
1
 10
12.7
 20
21.099999999999998
 10
12.7
 20
21.299999999999997
 10
13.0
 20
21.299999999999997
 10
13.3
 20
21.299999999999997
 10
13.3
 20
21.099999999999998
 10
13.3
 20
21.0
 10
13.0
 20
21.0
 10
12.7
 20
21.0
 10
12.7
 20
21.099999999999998
  0
LWPOLYLINE
  5
168
330
17
100
AcDbEntity
  8
A-CUT
100
AcDbPolyline
 90
9
 70
1
 10
13.0
 20
31.7
 10
13.0
 20
25.299999999999997
 10
13.0
 20
25.15
 10
13.0
 20
25.0
 10
12.7
 20
25.0
 10
12.7
 20
25.15
 10
12.7
 20
25.299999999999997
 10
12.7
 20
31.7
 10
13.0
 20
31.7
  0
LWPOLYLINE
  5
169
330
17
100
AcDbEntity
  8
A-CUT
100
AcDbPolyline
 90
7
 70
1
 10
6.1000000000000005
 20
25.6
 10
6.0
 20
25.6
 10
6.0
 20
26.4
 10
6.1000000000000005
 20
26.4
 10
6.300000000000001
 20
26.4
 10
6.300000000000001
 20
25.6
 10
6.1000000000000005
 20
25.6
  0
LWPOLYLINE
  5
16A
330
17
100
AcDbEntity
  8
A-CUT
100
AcDbPolyline
 90
17
 70
1
 10
6.300000000000001
 20
32.0
 10
7.2
 20
32.0
 10
7.2
 20
31.900000000000002
 10
7.2
 20
31.700000000000003
 10
6.300000000000001
 20
31.700000000000003
 10
6.300000000000001
 20
29.6
 10
6.1000000000000005
 20
29.6
 10
6.0
 20
29.6
 10
6.0
 20
31.700000000000003
 10
5.85
 20
31.700000000000003
 10
5.85
 20
31.900000000000002
 10
5.85
 20
32.0
 10
6.0
 20
32.0
 10
6.0
 20
32.15
 10
6.1000000000000005
 20
32.15
 10
6.300000000000001
 20
32.15
 10
6.300000000000001
 20
32.0
  0
LWPOLYLINE
  5
16B
330
17
100
AcDbEntity
  8
A-CUT
100
AcDbPolyline
 90
7
 70
1
 10
7.8
 20
31.700000000000003
 10
7.8
 20
31.900000000000002
 10
7.8
 20
32.0
 10
11.5
 20
32.0
 10
11.5
 20
31.900000000000002
 10
11.5
 20
31.700000000000003
 10
7.8
 20
31.700000000000003
  0
LWPOLYLINE
  5
16C
330
17
100
AcDbEntity
  8
A-CUT
100
AcDbPolyline
 90
7
 70
1
 10
12.1
 20
32.0
 10
13.4
 20
32.0
 10
13.4
 20
31.900000000000002
 10
13.4
 20
31.700000000000003
 10
12.1
 20
31.700000000000003
 10
12.1
 20
31.900000000000002
 10
12.1
 20
32.0
  0
LWPOLYLINE
  5
16D
330
17
100
AcDbEntity
  8
A-CUT
100
AcDbPolyline
 90
11
 70
1
 10
18.91
 20
21.299999999999997
 10
19.209999999999997
 20
21.299999999999997
 10
19.4
 20
21.299999999999997
 10
19.4
 20
21.099999999999998
 10
19.4
 20
21.0
 10
19.209999999999997
 20
21.0
 10
18.91
 20
21.0
 10
18.8
 20
21.0
 10
18.8
 20
21.099999999999998
 10
18.8
 20
21.299999999999997
 10
18.91
 20
21.299999999999997
  0
LWPOLYLINE
  5
16E
330
17
100
AcDbEntity
  8
A-CUT
100
AcDbPolyline
 90
21
 70
1
 10
18.91
 20
25.299999999999997
 10
19.0
 20
25.299999999999997
 10
19.0
 20
26.3
 10
19.119999999999997
 20
26.3
 10
19.119999999999997
 20
25.299999999999997
 10
19.209999999999997
 20
25.299999999999997
 10
19.209999999999997
 20
25.25
 10
20.900000000000002
 20
25.25
 10
20.900000000000002
 20
27.700000000000003
 10
19.12
 20
27.700000000000003
 10
19.12
 20
27.82
 10
24.7
 20
27.82
 10
24.7
 20
27.700000000000003
 10
21.02
 20
27.700000000000003
 10
21.02
 20
25.25
 10
23.7
 20
25.25
 10
23.7
 20
25.049999999999997
 10
19.209999999999997
 20
25.049999999999997
 10
19.209999999999997
 20
25.0
 10
18.91
 20
25.0
 10
18.91
 20
25.299999999999997
  0
LWPOLYLINE
  5
16F
330
17
100
AcDbEntity
  8
A-CUT
100
AcDbPolyline
 90
5
 70
1
 10
19.119999999999997
 20
27.76
 10
19.119999999999997
 20
27.1
 10
19.0
 20
27.1
 10
19.0
 20
27.76
 10
19.119999999999997
 20
27.76
  0
LWPOLYLINE
  5
170
330
17
100
AcDbEntity
  8
A-CUT
100
AcDbPolyline
 90
10
 70
1
 10
17.619999999999997
 20
31.7
 10
17.619999999999997
 20
29.7
 10
17.5
 20
29.7
 10
17.299999999999997
 20
29.7
 10
16.9
 20
29.7
 10
16.9
 20
29.900000000000002
 10
17.299999999999997
 20
29.900000000000002
 10
17.299999999999997
 20
31.7
 10
17.5
 20
31.7
 10
17.619999999999997
 20
31.7
  0
LWPOLYLINE
  5
171
330
17
100
AcDbEntity
  8
A-CUT
100
AcDbPolyline
 90
9
 70
1
 10
15.899999999999999
 20
29.7
 10
15.7
 20
29.7
 10
15.7
 20
29.900000000000002
 10
15.7
 20
31.7
 10
15.899999999999999
 20
31.7
 10
15.899999999999999
 20
29.900000000000002
 10
16.3
 20
29.900000000000002
 10
16.3
 20
29.7
 10
15.899999999999999
 20
29.7
  0
LWPOLYLINE
  5
172
330
17
100
AcDbEntity
  8
A-CUT
100
AcDbPolyline
 90
7
 70
1
 10
19.6
 20
31.900000000000002
 10
19.6
 20
31.700000000000003
 10
15.3
 20
31.700000000000003
 10
15.3
 20
31.900000000000002
 10
15.3
 20
32.0
 10
19.6
 20
32.0
 10
19.6
 20
31.900000000000002
  0
LWPOLYLINE
  5
173
330
17
100
AcDbEntity
  8
A-CUT
100
AcDbPolyline
 90
7
 70
1
 10
22.3
 20
21.299999999999997
 10
22.3
 20
21.099999999999998
 10
22.3
 20
21.0
 10
21.8
 20
21.0
 10
21.8
 20
21.099999999999998
 10
21.8
 20
21.299999999999997
 10
22.3
 20
21.299999999999997
  0
LWPOLYLINE
  5
174
330
17
100
AcDbEntity
  8
A-CUT
100
AcDbPolyline
 90
17
 70
1
 10
24.4
 20
21.299999999999997
 10
24.700000000000003
 20
21.299999999999997
 10
24.700000000000003
 20
22.0
 10
24.900000000000002
 20
22.0
 10
25.0
 20
22.0
 10
25.0
 20
21.299999999999997
 10
25.15
 20
21.299999999999997
 10
25.15
 20
21.099999999999998
 10
25.15
 20
21.0
 10
25.0
 20
21.0
 10
25.0
 20
20.85
 10
24.900000000000002
 20
20.85
 10
24.700000000000003
 20
20.85
 10
24.700000000000003
 20
21.0
 10
24.4
 20
21.0
 10
24.4
 20
21.099999999999998
 10
24.4
 20
21.299999999999997
  0
LWPOLYLINE
  5
175
330
17
100
AcDbEntity
  8
A-CUT
100
AcDbPolyline
 90
5
 70
1
 10
24.5
 20
25.049999999999997
 10
24.5
 20
25.25
 10
24.7
 20
25.25
 10
24.7
 20
25.049999999999997
 10
24.5
 20
25.049999999999997
  0
LWPOLYLINE
  5
176
330
17
100
AcDbEntity
  8
A-CUT
100
AcDbPolyline
 90
7
 70
1
 10
24.900000000000002
 20
26.2
 10
25.0
 20
26.2
 10
25.0
 20
25.0
 10
24.900000000000002
 20
25.0
 10
24.700000000000003
 20
25.0
 10
24.700000000000003
 20
26.2
 10
24.900000000000002
 20
26.2
  0
LWPOLYLINE
  5
177
330
17
100
AcDbEntity
  8
A-CUT
100
AcDbPolyline
 90
7
 70
1
 10
24.900000000000002
 20
29.1
 10
25.0
 20
29.1
 10
25.0
 20
27.1
 10
24.900000000000002
 20
27.1
 10
24.700000000000003
 20
27.1
 10
24.700000000000003
 20
29.1
 10
24.900000000000002
 20
29.1
  0
LWPOLYLINE
  5
178
330
17
100
AcDbEntity
  8
A-CUT
100
AcDbPolyline
 90
7
 70
1
 10
24.700000000000003
 20
30.5
 10
24.700000000000003
 20
30.6
 10
24.900000000000002
 20
30.6
 10
25.0
 20
30.6
 10
25.0
 20
30.5
 10
24.900000000000002
 20
30.5
 10
24.700000000000003
 20
30.5
  0
LWPOLYLINE
  5
179
330
17
100
AcDbEntity
  8
A-CUT
100
AcDbPolyline
 90
17
 70
1
 10
24.700000000000003
 20
31.700000000000003
 10
24.4
 20
31.700000000000003
 10
24.4
 20
31.900000000000002
 10
24.4
 20
32.0
 10
24.700000000000003
 20
32.0
 10
24.700000000000003
 20
32.15
 10
24.900000000000002
 20
32.15
 10
25.0
 20
32.15
 10
25.0
 20
32.0
 10
25.15
 20
32.0
 10
25.15
 20
31.900000000000002
 10
25.15
 20
31.700000000000003
 10
25.0
 20
31.700000000000003
 10
25.0
 20
31.5
 10
24.900000000000002
 20
31.5
 10
24.700000000000003
 20
31.5
 10
24.700000000000003
 20
31.700000000000003
  0
LINE
  5
17A
330
17
100
AcDbEntity
  8
A-THIN
100
AcDbLine
 10
6.45
 20
21.0
 30
0.0
 11
12.7
 21
21.0
 31
0.0
  0
LINE
  5
17B
330
17
100
AcDbEntity
  8
A-THIN
100
AcDbLine
 10
6.45
 20
21.299999999999997
 30
0.0
 11
12.7
 21
21.299999999999997
 31
0.0
  0
LINE
  5
17C
330
17
100
AcDbEntity
  8
A-MAIN
100
AcDbLine
 10
6.45
 20
21.139999999999997
 30
0.0
 11
8.583333333333334
 21
21.139999999999997
 31
0.0
  0
LINE
  5
17D
330
17
100
AcDbEntity
  8
A-MAIN
100
AcDbLine
 10
8.483333333333333
 20
21.2
 30
0.0
 11
10.666666666666668
 21
21.2
 31
0.0
  0
LINE
  5
17E
330
17
100
AcDbEntity
  8
A-MAIN
100
AcDbLine
 10
10.566666666666666
 20
21.139999999999997
 30
0.0
 11
12.7
 21
21.139999999999997
 31
0.0
  0
LINE
  5
17F
330
17
100
AcDbEntity
  8
A-THIN
100
AcDbLine
 10
13.3
 20
21.0
 30
0.0
 11
18.8
 21
21.0
 31
0.0
  0
LINE
  5
180
330
17
100
AcDbEntity
  8
A-THIN
100
AcDbLine
 10
13.3
 20
21.299999999999997
 30
0.0
 11
18.8
 21
21.299999999999997
 31
0.0
  0
LINE
  5
181
330
17
100
AcDbEntity
  8
A-MAIN
100
AcDbLine
 10
13.3
 20
21.139999999999997
 30
0.0
 11
16.1
 21
21.139999999999997
 31
0.0
  0
LINE
  5
182
330
17
100
AcDbEntity
  8
A-MAIN
100
AcDbLine
 10
16.0
 20
21.2
 30
0.0
 11
18.8
 21
21.2
 31
0.0
  0
LINE
  5
183
330
17
100
AcDbEntity
  8
A-THIN
100
AcDbLine
 10
19.4
 20
21.0
 30
0.0
 11
21.8
 21
21.0
 31
0.0
  0
LINE
  5
184
330
17
100
AcDbEntity
  8
A-THIN
100
AcDbLine
 10
19.4
 20
21.299999999999997
 30
0.0
 11
21.8
 21
21.299999999999997
 31
0.0
  0
LINE
  5
185
330
17
100
AcDbEntity
  8
A-MAIN
100
AcDbLine
 10
19.4
 20
21.139999999999997
 30
0.0
 11
20.650000000000002
 21
21.139999999999997
 31
0.0
  0
LINE
  5
186
330
17
100
AcDbEntity
  8
A-MAIN
100
AcDbLine
 10
20.55
 20
21.2
 30
0.0
 11
21.8
 21
21.2
 31
0.0
  0
LINE
  5
187
330
17
100
AcDbEntity
  8
A-THIN
100
AcDbLine
 10
22.3
 20
21.0
 30
0.0
 11
24.4
 21
21.0
 31
0.0
  0
LINE
  5
188
330
17
100
AcDbEntity
  8
A-THIN
100
AcDbLine
 10
22.3
 20
21.299999999999997
 30
0.0
 11
24.4
 21
21.299999999999997
 31
0.0
  0
LINE
  5
189
330
17
100
AcDbEntity
  8
A-THIN
100
AcDbLine
 10
22.3
 20
21.15
 30
0.0
 11
24.4
 21
21.15
 31
0.0
  0
LINE
  5
18A
330
17
100
AcDbEntity
  8
A-THIN
100
AcDbLine
 10
22.3
 20
21.189999999999998
 30
0.0
 11
24.4
 21
21.189999999999998
 31
0.0
  0
LINE
  5
18B
330
17
100
AcDbEntity
  8
A-THIN
100
AcDbLine
 10
24.700000000000003
 20
22.0
 30
0.0
 11
24.700000000000003
 21
25.0
 31
0.0
  0
LINE
  5
18C
330
17
100
AcDbEntity
  8
A-THIN
100
AcDbLine
 10
25.0
 20
22.0
 30
0.0
 11
25.0
 21
25.0
 31
0.0
  0
LINE
  5
18D
330
17
100
AcDbEntity
  8
A-THIN
100
AcDbLine
 10
24.810000000000002
 20
22.0
 30
0.0
 11
24.810000000000002
 21
25.0
 31
0.0
  0
LINE
  5
18E
330
17
100
AcDbEntity
  8
A-THIN
100
AcDbLine
 10
24.85
 20
22.0
 30
0.0
 11
24.85
 21
25.0
 31
0.0
  0
LINE
  5
18F
330
17
100
AcDbEntity
  8
A-MAIN
100
AcDbLine
 10
25.0
 20
27.1
 30
0.0
 11
25.900000000000002
 21
27.1
 31
0.0
  0
ARC
  5
190
330
17
100
AcDbEntity
  8
A-THIN
100
AcDbCircle
 10
25.0
 20
27.1
 30
0.0
 40
0.9000000000000021
100
AcDbArc
 50
270.0
 51
360.0
  0
LINE
  5
191
330
17
100
AcDbEntity
  8
A-THIN
100
AcDbLine
 10
24.700000000000003
 20
26.2
 30
0.0
 11
25.0
 21
26.2
 31
0.0
  0
LINE
  5
192
330
17
100
AcDbEntity
  8
A-THIN
100
AcDbLine
 10
24.700000000000003
 20
27.1
 30
0.0
 11
25.0
 21
27.1
 31
0.0
  0
LINE
  5
193
330
17
100
AcDbEntity
  8
A-MAIN
100
AcDbLine
 10
24.85
 20
29.352
 30
0.0
 11
23.741117151420152
 21
29.649124263777693
 31
0.0
  0
ARC
  5
194
330
17
100
AcDbEntity
  8
A-THIN
100
AcDbCircle
 10
24.85
 20
29.352
 30
0.0
 40
1.1479999999999997
100
AcDbArc
 50
90.0
 51
165.00000000000003
  0
LINE
  5
195
330
17
100
AcDbEntity
  8
A-MAIN
100
AcDbLine
 10
24.85
 20
29.352
 30
0.0
 11
25.093413308224847
 21
29.286777600634167
 31
0.0
  0
LINE
  5
196
330
17
100
AcDbEntity
  8
A-THIN
100
AcDbLine
 10
24.700000000000003
 20
30.6
 30
0.0
 11
24.700000000000003
 21
31.5
 31
0.0
  0
LINE
  5
197
330
17
100
AcDbEntity
  8
A-THIN
100
AcDbLine
 10
25.0
 20
30.6
 30
0.0
 11
25.0
 21
31.5
 31
0.0
  0
LINE
  5
198
330
17
100
AcDbEntity
  8
A-THIN
100
AcDbLine
 10
24.810000000000002
 20
30.6
 30
0.0
 11
24.810000000000002
 21
31.5
 31
0.0
  0
LINE
  5
199
330
17
100
AcDbEntity
  8
A-THIN
100
AcDbLine
 10
24.85
 20
30.6
 30
0.0
 11
24.85
 21
31.5
 31
0.0
  0
LINE
  5
19A
330
17
100
AcDbEntity
  8
A-THIN
100
AcDbLine
 10
7.2
 20
31.700000000000003
 30
0.0
 11
7.8
 21
31.700000000000003
 31
0.0
  0
LINE
  5
19B
330
17
100
AcDbEntity
  8
A-THIN
100
AcDbLine
 10
7.2
 20
32.0
 30
0.0
 11
7.8
 21
32.0
 31
0.0
  0
LINE
  5
19C
330
17
100
AcDbEntity
  8
A-THIN
100
AcDbLine
 10
7.2
 20
31.810000000000002
 30
0.0
 11
7.8
 21
31.810000000000002
 31
0.0
  0
LINE
  5
19D
330
17
100
AcDbEntity
  8
A-THIN
100
AcDbLine
 10
7.2
 20
31.85
 30
0.0
 11
7.8
 21
31.85
 31
0.0
  0
LINE
  5
19E
330
17
100
AcDbEntity
  8
A-THIN
100
AcDbLine
 10
11.5
 20
31.700000000000003
 30
0.0
 11
12.1
 21
31.700000000000003
 31
0.0
  0
LINE
  5
19F
330
17
100
AcDbEntity
  8
A-THIN
100
AcDbLine
 10
11.5
 20
32.0
 30
0.0
 11
12.1
 21
32.0
 31
0.0
  0
LINE
  5
1A0
330
17
100
AcDbEntity
  8
A-THIN
100
AcDbLine
 10
11.5
 20
31.810000000000002
 30
0.0
 11
12.1
 21
31.810000000000002
 31
0.0
  0
LINE
  5
1A1
330
17
100
AcDbEntity
  8
A-THIN
100
AcDbLine
 10
11.5
 20
31.85
 30
0.0
 11
12.1
 21
31.85
 31
0.0
  0
LINE
  5
1A2
330
17
100
AcDbEntity
  8
A-THIN
100
AcDbLine
 10
13.4
 20
31.700000000000003
 30
0.0
 11
15.3
 21
31.700000000000003
 31
0.0
  0
LINE
  5
1A3
330
17
100
AcDbEntity
  8
A-THIN
100
AcDbLine
 10
13.4
 20
32.0
 30
0.0
 11
15.3
 21
32.0
 31
0.0
  0
LINE
  5
1A4
330
17
100
AcDbEntity
  8
A-THIN
100
AcDbLine
 10
13.4
 20
31.810000000000002
 30
0.0
 11
15.3
 21
31.810000000000002
 31
0.0
  0
LINE
  5
1A5
330
17
100
AcDbEntity
  8
A-THIN
100
AcDbLine
 10
13.4
 20
31.85
 30
0.0
 11
15.3
 21
31.85
 31
0.0
  0
LINE
  5
1A6
330
17
100
AcDbEntity
  8
A-THIN
100
AcDbLine
 10
19.6
 20
31.700000000000003
 30
0.0
 11
24.4
 21
31.700000000000003
 31
0.0
  0
LINE
  5
1A7
330
17
100
AcDbEntity
  8
A-THIN
100
AcDbLine
 10
19.6
 20
32.0
 30
0.0
 11
24.4
 21
32.0
 31
0.0
  0
LINE
  5
1A8
330
17
100
AcDbEntity
  8
A-THIN
100
AcDbLine
 10
19.6
 20
31.810000000000002
 30
0.0
 11
24.4
 21
31.810000000000002
 31
0.0
  0
LINE
  5
1A9
330
17
100
AcDbEntity
  8
A-THIN
100
AcDbLine
 10
19.6
 20
31.85
 30
0.0
 11
24.4
 21
31.85
 31
0.0
  0
LINE
  5
1AA
330
17
100
AcDbEntity
  8
A-THIN
100
AcDbLine
 10
6.0
 20
21.45
 30
0.0
 11
6.0
 21
25.6
 31
0.0
  0
LINE
  5
1AB
330
17
100
AcDbEntity
  8
A-THIN
100
AcDbLine
 10
6.300000000000001
 20
21.45
 30
0.0
 11
6.300000000000001
 21
25.6
 31
0.0
  0
LINE
  5
1AC
330
17
100
AcDbEntity
  8
A-MAIN
100
AcDbLine
 10
6.140000000000001
 20
21.45
 30
0.0
 11
6.140000000000001
 21
23.575
 31
0.0
  0
LINE
  5
1AD
330
17
100
AcDbEntity
  8
A-MAIN
100
AcDbLine
 10
6.2
 20
23.474999999999998
 30
0.0
 11
6.2
 21
25.6
 31
0.0
  0
LINE
  5
1AE
330
17
100
AcDbEntity
  8
A-THIN
100
AcDbLine
 10
6.0
 20
26.4
 30
0.0
 11
6.0
 21
29.6
 31
0.0
  0
LINE
  5
1AF
330
17
100
AcDbEntity
  8
A-THIN
100
AcDbLine
 10
6.300000000000001
 20
26.4
 30
0.0
 11
6.300000000000001
 21
29.6
 31
0.0
  0
LINE
  5
1B0
330
17
100
AcDbEntity
  8
A-THIN
100
AcDbLine
 10
6.15
 20
26.4
 30
0.0
 11
6.15
 21
29.6
 31
0.0
  0
LINE
  5
1B1
330
17
100
AcDbEntity
  8
A-THIN
100
AcDbLine
 10
6.19
 20
26.4
 30
0.0
 11
6.19
 21
29.6
 31
0.0
  0
LINE
  5
1B2
330
17
100
AcDbEntity
  8
A-MAIN
100
AcDbLine
 10
19.119999999999997
 20
26.3
 30
0.0
 11
19.919999999999998
 21
26.3
 31
0.0
  0
ARC
  5
1B3
330
17
100
AcDbEntity
  8
A-THIN
100
AcDbCircle
 10
19.119999999999997
 20
26.3
 30
0.0
 40
0.8000000000000007
100
AcDbArc
 50
0.0
 51
90.0
  0
LINE
  5
1B4
330
17
100
AcDbEntity
  8
A-THIN
100
AcDbLine
 10
19.0
 20
26.3
 30
0.0
 11
19.119999999999997
 21
26.3
 31
0.0
  0
LINE
  5
1B5
330
17
100
AcDbEntity
  8
A-THIN
100
AcDbLine
 10
19.0
 20
27.1
 30
0.0
 11
19.119999999999997
 21
27.1
 31
0.0
  0
LINE
  5
1B6
330
17
100
AcDbEntity
  8
A-MAIN
100
AcDbLine
 10
24.5
 20
25.25
 30
0.0
 11
24.5
 21
26.05
 31
0.0
  0
ARC
  5
1B7
330
17
100
AcDbEntity
  8
A-THIN
100
AcDbCircle
 10
24.5
 20
25.25
 30
0.0
 40
0.8000000000000007
100
AcDbArc
 50
90.0
 51
180.0
  0
LINE
  5
1B8
330
17
100
AcDbEntity
  8
A-THIN
100
AcDbLine
 10
23.7
 20
25.049999999999997
 30
0.0
 11
23.7
 21
25.25
 31
0.0
  0
LINE
  5
1B9
330
17
100
AcDbEntity
  8
A-THIN
100
AcDbLine
 10
24.5
 20
25.049999999999997
 30
0.0
 11
24.5
 21
25.25
 31
0.0
  0
LWPOLYLINE
  5
1BA
330
17
100
AcDbEntity
  8
A-HIDDEN
100
AcDbPolyline
 90
5
 70
1
 10
13.0
 20
16.0
 10
6.0
 20
16.0
 10
6.0
 20
21.0
 10
13.0
 20
21.0
 10
13.0
 20
16.0
  0
LWPOLYLINE
  5
1BB
330
17
100
AcDbEntity
  8
A-HIDDEN
100
AcDbPolyline
 90
4
 70
1
 10
24.9
 20
28.4
 10
27.2
 20
28.4
 10
27.2
 20
31.8
 10
24.9
 20
31.8
  0
LWPOLYLINE
  5
1BC
330
17
100
AcDbEntity
  8
A-HIDDEN
100
AcDbPolyline
 90
4
 70
1
 10
25.3
 20
15.8
 10
29.8
 20
15.8
 10
29.8
 20
21.8
 10
25.3
 20
21.8
  0
LWPOLYLINE
  5
1BD
330
17
100
AcDbEntity
  8
A-HIDDEN
100
AcDbPolyline
 90
4
 70
1
 10
21.8
 20
16.8
 10
25.0
 20
16.8
 10
25.0
 20
21.0
 10
21.8
 20
21.0
  0
LINE
  5
1BE
330
17
100
AcDbEntity
  8
A-HIDDEN
100
AcDbLine
 10
6.15
 20
16.25
 30
0.0
 11
6.15
 21
32.6
 31
0.0
  0
LINE
  5
1BF
330
17
100
AcDbEntity
  8
A-HIDDEN
100
AcDbLine
 10
12.85
 20
16.25
 30
0.0
 11
12.85
 21
32.6
 31
0.0
  0
LINE
  5
1C0
330
17
100
AcDbEntity
  8
A-HIDDEN
100
AcDbLine
 10
19.06
 20
16.25
 30
0.0
 11
19.06
 21
32.6
 31
0.0
  0
LINE
  5
1C1
330
17
100
AcDbEntity
  8
A-HIDDEN
100
AcDbLine
 10
24.85
 20
16.25
 30
0.0
 11
24.85
 21
32.6
 31
0.0
  0
LINE
  5
1C2
330
17
100
AcDbEntity
  8
A-HIDDEN
100
AcDbLine
 10
1.2499999999999996
 20
21.15
 30
0.0
 11
25.6
 21
21.15
 31
0.0
  0
LINE
  5
1C3
330
17
100
AcDbEntity
  8
A-HIDDEN
100
AcDbLine
 10
1.2499999999999996
 20
25.15
 30
0.0
 11
25.6
 21
25.15
 31
0.0
  0
LINE
  5
1C4
330
17
100
AcDbEntity
  8
A-HIDDEN
100
AcDbLine
 10
1.2499999999999996
 20
31.85
 30
0.0
 11
25.6
 21
31.85
 31
0.0
  0
LINE
  5
1C5
330
17
100
AcDbEntity
  8
A-DIMS
100
AcDbLine
 10
5.85
 20
19.25
 30
0.0
 11
25.15
 21
19.25
 31
0.0
  0
LINE
  5
1C6
330
17
100
AcDbEntity
  8
A-DIMS
100
AcDbLine
 10
5.85
 20
20.7
 30
0.0
 11
5.85
 21
19.1
 31
0.0
  0
LINE
  5
1C7
330
17
100
AcDbEntity
  8
A-DIMS
100
AcDbLine
 10
6.0
 20
20.7
 30
0.0
 11
6.0
 21
19.1
 31
0.0
  0
LINE
  5
1C8
330
17
100
AcDbEntity
  8
A-DIMS
100
AcDbLine
 10
6.45
 20
20.7
 30
0.0
 11
6.45
 21
19.1
 31
0.0
  0
LINE
  5
1C9
330
17
100
AcDbEntity
  8
A-DIMS
100
AcDbLine
 10
12.7
 20
20.7
 30
0.0
 11
12.7
 21
19.1
 31
0.0
  0
LINE
  5
1CA
330
17
100
AcDbEntity
  8
A-DIMS
100
AcDbLine
 10
13.3
 20
20.7
 30
0.0
 11
13.3
 21
19.1
 31
0.0
  0
LINE
  5
1CB
330
17
100
AcDbEntity
  8
A-DIMS
100
AcDbLine
 10
18.8
 20
20.7
 30
0.0
 11
18.8
 21
19.1
 31
0.0
  0
LINE
  5
1CC
330
17
100
AcDbEntity
  8
A-DIMS
100
AcDbLine
 10
19.4
 20
20.7
 30
0.0
 11
19.4
 21
19.1
 31
0.0
  0
LINE
  5
1CD
330
17
100
AcDbEntity
  8
A-DIMS
100
AcDbLine
 10
21.8
 20
20.7
 30
0.0
 11
21.8
 21
19.1
 31
0.0
  0
LINE
  5
1CE
330
17
100
AcDbEntity
  8
A-DIMS
100
AcDbLine
 10
22.3
 20
20.7
 30
0.0
 11
22.3
 21
19.1
 31
0.0
  0
LINE
  5
1CF
330
17
100
AcDbEntity
  8
A-DIMS
100
AcDbLine
 10
24.4
 20
20.7
 30
0.0
 11
24.4
 21
19.1
 31
0.0
  0
LINE
  5
1D0
330
17
100
AcDbEntity
  8
A-DIMS
100
AcDbLine
 10
25.0
 20
20.7
 30
0.0
 11
25.0
 21
19.1
 31
0.0
  0
LINE
  5
1D1
330
17
100
AcDbEntity
  8
A-DIMS
100
AcDbLine
 10
25.15
 20
20.7
 30
0.0
 11
25.15
 21
19.1
 31
0.0
  0
LINE
  5
1D2
330
17
100
AcDbEntity
  8
A-DIMS
100
AcDbLine
 10
6.0
 20
18.5
 30
0.0
 11
25.0
 21
18.5
 31
0.0
  0
LINE
  5
1D3
330
17
100
AcDbEntity
  8
A-DIMS
100
AcDbLine
 10
6.0
 20
17.75
 30
0.0
 11
25.0
 21
17.75
 31
0.0
  0
LINE
  5
1D4
330
17
100
AcDbEntity
  8
A-DIMS
100
AcDbLine
 10
5.85
 20
33.75
 30
0.0
 11
25.15
 21
33.75
 31
0.0
  0
LINE
  5
1D5
330
17
100
AcDbEntity
  8
A-DIMS
100
AcDbLine
 10
5.85
 20
32.3
 30
0.0
 11
5.85
 21
33.9
 31
0.0
  0
LINE
  5
1D6
330
17
100
AcDbEntity
  8
A-DIMS
100
AcDbLine
 10
6.0
 20
32.3
 30
0.0
 11
6.0
 21
33.9
 31
0.0
  0
LINE
  5
1D7
330
17
100
AcDbEntity
  8
A-DIMS
100
AcDbLine
 10
7.2
 20
32.3
 30
0.0
 11
7.2
 21
33.9
 31
0.0
  0
LINE
  5
1D8
330
17
100
AcDbEntity
  8
A-DIMS
100
AcDbLine
 10
7.8
 20
32.3
 30
0.0
 11
7.8
 21
33.9
 31
0.0
  0
LINE
  5
1D9
330
17
100
AcDbEntity
  8
A-DIMS
100
AcDbLine
 10
11.5
 20
32.3
 30
0.0
 11
11.5
 21
33.9
 31
0.0
  0
LINE
  5
1DA
330
17
100
AcDbEntity
  8
A-DIMS
100
AcDbLine
 10
12.1
 20
32.3
 30
0.0
 11
12.1
 21
33.9
 31
0.0
  0
LINE
  5
1DB
330
17
100
AcDbEntity
  8
A-DIMS
100
AcDbLine
 10
13.4
 20
32.3
 30
0.0
 11
13.4
 21
33.9
 31
0.0
  0
LINE
  5
1DC
330
17
100
AcDbEntity
  8
A-DIMS
100
AcDbLine
 10
15.3
 20
32.3
 30
0.0
 11
15.3
 21
33.9
 31
0.0
  0
LINE
  5
1DD
330
17
100
AcDbEntity
  8
A-DIMS
100
AcDbLine
 10
19.6
 20
32.3
 30
0.0
 11
19.6
 21
33.9
 31
0.0
  0
LINE
  5
1DE
330
17
100
AcDbEntity
  8
A-DIMS
100
AcDbLine
 10
24.4
 20
32.3
 30
0.0
 11
24.4
 21
33.9
 31
0.0
  0
LINE
  5
1DF
330
17
100
AcDbEntity
  8
A-DIMS
100
AcDbLine
 10
25.0
 20
32.3
 30
0.0
 11
25.0
 21
33.9
 31
0.0
  0
LINE
  5
1E0
330
17
100
AcDbEntity
  8
A-DIMS
100
AcDbLine
 10
25.15
 20
32.3
 30
0.0
 11
25.15
 21
33.9
 31
0.0
  0
LINE
  5
1E1
330
17
100
AcDbEntity
  8
A-DIMS
100
AcDbLine
 10
6.0
 20
34.5
 30
0.0
 11
25.0
 21
34.5
 31
0.0
  0
LINE
  5
1E2
330
17
100
AcDbEntity
  8
A-DIMS
100
AcDbLine
 10
6.0
 20
35.25
 30
0.0
 11
25.0
 21
35.25
 31
0.0
  0
LINE
  5
1E3
330
17
100
AcDbEntity
  8
A-DIMS
100
AcDbLine
 10
4.25
 20
20.85
 30
0.0
 11
4.25
 21
32.15
 31
0.0
  0
LINE
  5
1E4
330
17
100
AcDbEntity
  8
A-DIMS
100
AcDbLine
 10
5.7
 20
20.85
 30
0.0
 11
4.1
 21
20.85
 31
0.0
  0
LINE
  5
1E5
330
17
100
AcDbEntity
  8
A-DIMS
100
AcDbLine
 10
5.7
 20
21.0
 30
0.0
 11
4.1
 21
21.0
 31
0.0
  0
LINE
  5
1E6
330
17
100
AcDbEntity
  8
A-DIMS
100
AcDbLine
 10
5.7
 20
21.45
 30
0.0
 11
4.1
 21
21.45
 31
0.0
  0
LINE
  5
1E7
330
17
100
AcDbEntity
  8
A-DIMS
100
AcDbLine
 10
5.7
 20
25.6
 30
0.0
 11
4.1
 21
25.6
 31
0.0
  0
LINE
  5
1E8
330
17
100
AcDbEntity
  8
A-DIMS
100
AcDbLine
 10
5.7
 20
26.4
 30
0.0
 11
4.1
 21
26.4
 31
0.0
  0
LINE
  5
1E9
330
17
100
AcDbEntity
  8
A-DIMS
100
AcDbLine
 10
5.7
 20
29.6
 30
0.0
 11
4.1
 21
29.6
 31
0.0
  0
LINE
  5
1EA
330
17
100
AcDbEntity
  8
A-DIMS
100
AcDbLine
 10
5.7
 20
32.0
 30
0.0
 11
4.1
 21
32.0
 31
0.0
  0
LINE
  5
1EB
330
17
100
AcDbEntity
  8
A-DIMS
100
AcDbLine
 10
5.7
 20
32.15
 30
0.0
 11
4.1
 21
32.15
 31
0.0
  0
LINE
  5
1EC
330
17
100
AcDbEntity
  8
A-DIMS
100
AcDbLine
 10
3.5
 20
21.0
 30
0.0
 11
3.5
 21
32.0
 31
0.0
  0
LINE
  5
1ED
330
17
100
AcDbEntity
  8
A-DIMS
100
AcDbLine
 10
2.75
 20
21.0
 30
0.0
 11
2.75
 21
32.0
 31
0.0
  0
LINE
  5
1EE
330
17
100
AcDbEntity
  8
A-DIMS
100
AcDbLine
 10
26.75
 20
20.85
 30
0.0
 11
26.75
 21
32.15
 31
0.0
  0
LINE
  5
1EF
330
17
100
AcDbEntity
  8
A-DIMS
100
AcDbLine
 10
25.3
 20
20.85
 30
0.0
 11
26.9
 21
20.85
 31
0.0
  0
LINE
  5
1F0
330
17
100
AcDbEntity
  8
A-DIMS
100
AcDbLine
 10
25.3
 20
21.0
 30
0.0
 11
26.9
 21
21.0
 31
0.0
  0
LINE
  5
1F1
330
17
100
AcDbEntity
  8
A-DIMS
100
AcDbLine
 10
25.3
 20
22.0
 30
0.0
 11
26.9
 21
22.0
 31
0.0
  0
LINE
  5
1F2
330
17
100
AcDbEntity
  8
A-DIMS
100
AcDbLine
 10
25.3
 20
25.0
 30
0.0
 11
26.9
 21
25.0
 31
0.0
  0
LINE
  5
1F3
330
17
100
AcDbEntity
  8
A-DIMS
100
AcDbLine
 10
25.3
 20
26.2
 30
0.0
 11
26.9
 21
26.2
 31
0.0
  0
LINE
  5
1F4
330
17
100
AcDbEntity
  8
A-DIMS
100
AcDbLine
 10
25.3
 20
27.1
 30
0.0
 11
26.9
 21
27.1
 31
0.0
  0
LINE
  5
1F5
330
17
100
AcDbEntity
  8
A-DIMS
100
AcDbLine
 10
25.3
 20
29.1
 30
0.0
 11
26.9
 21
29.1
 31
0.0
  0
LINE
  5
1F6
330
17
100
AcDbEntity
  8
A-DIMS
100
AcDbLine
 10
25.3
 20
30.5
 30
0.0
 11
26.9
 21
30.5
 31
0.0
  0
LINE
  5
1F7
330
17
100
AcDbEntity
  8
A-DIMS
100
AcDbLine
 10
25.3
 20
30.6
 30
0.0
 11
26.9
 21
30.6
 31
0.0
  0
LINE
  5
1F8
330
17
100
AcDbEntity
  8
A-DIMS
100
AcDbLine
 10
25.3
 20
31.5
 30
0.0
 11
26.9
 21
31.5
 31
0.0
  0
LINE
  5
1F9
330
17
100
AcDbEntity
  8
A-DIMS
100
AcDbLine
 10
25.3
 20
32.0
 30
0.0
 11
26.9
 21
32.0
 31
0.0
  0
LINE
  5
1FA
330
17
100
AcDbEntity
  8
A-DIMS
100
AcDbLine
 10
25.3
 20
32.15
 30
0.0
 11
26.9
 21
32.15
 31
0.0
  0
LINE
  5
1FB
330
17
100
AcDbEntity
  8
A-DIMS
100
AcDbLine
 10
27.5
 20
21.0
 30
0.0
 11
27.5
 21
32.0
 31
0.0
  0
LINE
  5
1FC
330
17
100
AcDbEntity
  8
A-DIMS
100
AcDbLine
 10
28.25
 20
21.0
 30
0.0
 11
28.25
 21
32.0
 31
0.0
  0
ENDSEC
  0
SECTION
  2
OBJECTS
  0
DICTIONARY
  5
A
330
0
100
AcDbDictionary
281
1
  3
ACAD_COLOR
350
B
  3
ACAD_GROUP
350
C
  3
ACAD_LAYOUT
350
D
  3
ACAD_MATERIAL
350
E
  3
ACAD_MLEADERSTYLE
350
F
  3
ACAD_MLINESTYLE
350
10
  3
ACAD_PLOTSETTINGS
350
11
  3
ACAD_PLOTSTYLENAME
350
12
  3
ACAD_SCALELIST
350
14
  3
ACAD_TABLESTYLE
350
15
  3
ACAD_VISUALSTYLE
350
16
  3
EZDXF_META
350
2D
  0
DICTIONARY
  5
B
330
A
100
AcDbDictionary
281
1
  0
DICTIONARY
  5
C
330
A
100
AcDbDictionary
281
1
  0
DICTIONARY
  5
D
330
A
100
AcDbDictionary
281
1
  3
Model
350
1A
  3
Layout1
350
1E
  0
DICTIONARY
  5
E
330
A
100
AcDbDictionary
281
1
  3
ByBlock
350
1F
  3
ByLayer
350
20
  3
Global
350
21
  0
DICTIONARY
  5
F
330
A
100
AcDbDictionary
281
1
  3
Standard
350
2C
  0
DICTIONARY
  5
10
330
A
100
AcDbDictionary
281
1
  3
Standard
350
22
  0
DICTIONARY
  5
11
330
A
100
AcDbDictionary
281
1
  0
ACDBDICTIONARYWDFLT
  5
12
330
A
100
AcDbDictionary
281
1
  3
Normal
350
13
100
AcDbDictionaryWithDefault
340
13
  0
ACDBPLACEHOLDER
  5
13
330
12
  0
DICTIONARY
  5
14
330
A
100
AcDbDictionary
281
1
  0
DICTIONARY
  5
15
330
A
100
AcDbDictionary
281
1
  0
DICTIONARY
  5
16
330
A
100
AcDbDictionary
281
1
  3
2dWireframe
350
5A
  3
Basic
350
5B
  3
Brighten
350
5C
  3
ColorChange
350
5D
  3
Conceptual
350
5E
  3
Dim
350
5F
  3
EdgeColorOff
350
60
  3
Facepattern
350
61
  3
Flat
350
62
  3
FlatWithEdges
350
63
  3
Gouraud
350
64
  3
GouraudWithEdges
350
65
  3
Hidden
350
66
  3
JitterOff
350
67
  3
Linepattern
350
68
  3
Modeling
350
69
  3
OverhangOff
350
6A
  3
Realistic
350
6B
  3
Shaded
350
6C
  3
Shaded with edges
350
6D
  3
Shades of Gray
350
6E
  3
Sketchy
350
6F
  3
Thicken
350
70
  3
Wireframe
350
71
  3
X-Ray
350
72
  0
LAYOUT
  5
1A
330
D
100
AcDbPlotSettings
  1

  4
A3
  6

 40
7.5
 41
20.0
 42
7.5
 43
20.0
 44
420.0
 45
297.0
 46
0.0
 47
0.0
 48
0.0
 49
0.0
140
0.0
141
0.0
142
1.0
143
1.0
 70
1024
 72
1
 73
0
 74
5
  7

 75
16
 76
0
 77
2
 78
300
147
1.0
148
0.0
149
0.0
100
AcDbLayout
  1
Model
 70
1
 71
0
 10
0.0
 20
0.0
 11
420.0
 21
297.0
 12
0.0
 22
0.0
 32
0.0
 14
1e+20
 24
1e+20
 34
1e+20
 15
-1e+20
 25
-1e+20
 35
-1e+20
146
0.0
 13
0.0
 23
0.0
 33
0.0
 16
1.0
 26
0.0
 36
0.0
 17
0.0
 27
1.0
 37
0.0
 76
1
330
17
  0
LAYOUT
  5
1E
330
D
100
AcDbPlotSettings
  1

  4
A3
  6

 40
7.5
 41
20.0
 42
7.5
 43
20.0
 44
420.0
 45
297.0
 46
0.0
 47
0.0
 48
0.0
 49
0.0
140
0.0
141
0.0
142
1.0
143
1.0
 70
0
 72
1
 73
0
 74
5
  7

 75
16
 76
0
 77
2
 78
300
147
1.0
148
0.0
149
0.0
100
AcDbLayout
  1
Layout1
 70
1
 71
1
 10
0.0
 20
0.0
 11
420.0
 21
297.0
 12
0.0
 22
0.0
 32
0.0
 14
1e+20
 24
1e+20
 34
1e+20
 15
-1e+20
 25
-1e+20
 35
-1e+20
146
0.0
 13
0.0
 23
0.0
 33
0.0
 16
1.0
 26
0.0
 36
0.0
 17
0.0
 27
1.0
 37
0.0
 76
1
330
1B
  0
MATERIAL
  5
1F
102
{ACAD_REACTORS
330
E
102
}
330
E
100
AcDbMaterial
  1
ByBlock
  2

 70
0
 40
1.0
 71
1
 41
1.0
 91
-1023410177
 42
1.0
 72
1
  3

 73
1
 74
1
 75
1
 44
0.5
 73
0
 45
1.0
 46
1.0
 77
1
  4

 78
1
 79
1
170
1
 48
1.0
171
1
  6

172
1
173
1
174
1
140
1.0
141
1.0
175
1
  7

176
1
177
1
178
1
143
1.0
179
1
  8

270
1
271
1
272
1
145
1.0
146
1.0
273
1
  9

274
1
275
1
276
1
 42
1.0
 72
1
  3

 73
1
 74
1
 75
1
 94
63
  0
MATERIAL
  5
20
102
{ACAD_REACTORS
330
E
102
}
330
E
100
AcDbMaterial
  1
ByLayer
  2

 70
0
 40
1.0
 71
1
 41
1.0
 91
-1023410177
 42
1.0
 72
1
  3

 73
1
 74
1
 75
1
 44
0.5
 73
0
 45
1.0
 46
1.0
 77
1
  4

 78
1
 79
1
170
1
 48
1.0
171
1
  6

172
1
173
1
174
1
140
1.0
141
1.0
175
1
  7

176
1
177
1
178
1
143
1.0
179
1
  8

270
1
271
1
272
1
145
1.0
146
1.0
273
1
  9

274
1
275
1
276
1
 42
1.0
 72
1
  3

 73
1
 74
1
 75
1
 94
63
  0
MATERIAL
  5
21
102
{ACAD_REACTORS
330
E
102
}
330
E
100
AcDbMaterial
  1
Global
  2

 70
0
 40
1.0
 71
1
 41
1.0
 91
-1023410177
 42
1.0
 72
1
  3

 73
1
 74
1
 75
1
 44
0.5
 73
0
 45
1.0
 46
1.0
 77
1
  4

 78
1
 79
1
170
1
 48
1.0
171
1
  6

172
1
173
1
174
1
140
1.0
141
1.0
175
1
  7

176
1
177
1
178
1
143
1.0
179
1
  8

270
1
271
1
272
1
145
1.0
146
1.0
273
1
  9

274
1
275
1
276
1
 42
1.0
 72
1
  3

 73
1
 74
1
 75
1
 94
63
  0
MLINESTYLE
  5
22
102
{ACAD_REACTORS
330
10
102
}
330
10
100
AcDbMlineStyle
  2
Standard
 70
0
  3

 62
256
 51
90.0
 52
90.0
 71
2
 49
0.5
 62
256
  6
BYLAYER
 49
-0.5
 62
256
  6
BYLAYER
  0
MLEADERSTYLE
  5
2C
102
{ACAD_REACTORS
330
F
102
}
330
F
100
AcDbMLeaderStyle
179
2
170
2
171
1
172
0
 90
2
 40
0.0
 41
0.0
173
1
 91
-1056964608
 92
-2
290
1
 42
2.0
291
1
 43
8.0
  3
Standard
 44
4.0
300

342
29
174
1
175
1
176
0
178
1
 93
-1056964608
 45
4.0
292
0
297
0
 46
4.0
 94
-1056964608
 47
1.0
 49
1.0
140
1.0
294
1
141
0.0
177
0
142
1.0
295
0
296
0
143
3.75
271
0
272
9
273
9
  0
DICTIONARY
  5
2D
330
A
100
AcDbDictionary
280
1
281
1
  3
CREATED_BY_EZDXF
350
2E
  3
WRITTEN_BY_EZDXF
350
1FF
  0
DICTIONARYVAR
  5
2E
330
2D
100
DictionaryVariables
280
0
  1
1.4.4 @ 2026-10-04T18:15:04.438762+00:00
  0
VISUALSTYLE
  5
5A
102
{ACAD_REACTORS
330
16
102
}
330
16
100
AcDbVisualStyle
  2
2dWireframe
 70
4
177
3
291
0
 70
58
 90
2
176
1
 90
2
176
1
 90
0
176
1
 90
0
176
1
 40
0.6
176
1
 40
30.0
176
1
 62
7
420
16777215
176
1
 90
1
176
1
 90
4
176
1
 62
7
176
1
 62
257
176
1
 90
1
176
1
 90
1
176
1
 40
1.0
176
1
 90
8
176
1
 62
7
176
1
 40
1.0
176
1
 90
1
176
1
 90
6
176
1
 90
2
176
1
 62
7
176
1
 90
5
176
1
 90
0
176
1
 90
0
176
1
290
0
176
1
 90
1
176
1
 40
0.0
176
1
 90
0
176
1
290
1
176
1
290
1
176
1
290
0
176
1
290
0
176
1
290
0
176
1
290
0
176
1
290
0
176
1
290
0
176
1
290
0
176
1
 90
50
176
1
 40
0.0
176
1
 40
1.0
176
1
 90
0
176
1
 62
18
420
0
176
1
 90
50
176
1
 90
3
176
1
 62
5
420
255
176
1
290
0
176
1
 90
50
176
1
 90
50
176
1
 90
50
176
1
290
0
176
1
 90
50
176
1
 62
256
176
0
 40
1.0
176
0
 90
2
176
1
  1
strokes_ogs.tif
176
1
290
0
176
1
 40
1.0
176
1
 40
1.0
176
1
  0
VISUALSTYLE
  5
5B
102
{ACAD_REACTORS
330
16
102
}
330
16
100
AcDbVisualStyle
  2
Basic
 70
7
177
3
291
1
 70
58
 90
2
176
1
 90
2
176
1
 90
0
176
1
 90
1
176
1
 40
0.6
176
1
 40
30.0
176
1
 62
7
420
16777215
176
1
 90
1
176
1
 90
4
176
1
 62
7
176
1
 62
257
176
1
 90
1
176
1
 90
1
176
1
 40
1.0
176
1
 90
8
176
1
 62
7
176
1
 40
1.0
176
1
 90
1
176
1
 90
6
176
1
 90
2
176
1
 62
7
176
1
 90
5
176
1
 90
0
176
1
 90
0
176
1
290
0
176
1
 90
1
176
1
 40
0.0
176
1
 90
0
176
1
290
0
176
1
290
1
176
1
290
1
176
1
290
0
176
1
290
0
176
1
290
0
176
1
290
0
176
1
290
0
176
1
290
0
176
1
 90
50
176
1
 40
0.0
176
1
 40
1.0
176
1
 90
0
176
1
 62
18
420
0
176
1
 90
50
176
1
 90
3
176
1
 62
5
420
255
176
1
290
0
176
1
 90
50
176
1
 90
50
176
1
 90
50
176
1
290
0
176
1
 90
50
176
1
 62
256
176
0
 40
1.0
176
0
 90
2
176
1
  1
strokes_ogs.tif
176
1
290
0
176
1
 40
1.0
176
1
 40
1.0
176
1
  0
VISUALSTYLE
  5
5C
102
{ACAD_REACTORS
330
16
102
}
330
16
100
AcDbVisualStyle
  2
Brighten
 70
12
177
3
291
1
 70
58
 90
2
176
1
 90
2
176
1
 90
0
176
1
 90
2
176
1
 40
0.6
176
1
 40
30.0
176
1
 62
7
420
16777215
176
1
 90
1
176
1
 90
4
176
1
 62
7
176
1
 62
257
176
1
 90
1
176
1
 90
1
176
1
 40
1.0
176
1
 90
8
176
1
 62
7
176
1
 40
1.0
176
1
 90
1
176
1
 90
6
176
1
 90
2
176
1
 62
7
176
1
 90
5
176
1
 90
0
176
1
 90
0
176
1
290
0
176
1
 90
1
176
1
 40
0.0
176
1
 90
0
176
1
290
0
176
1
290
1
176
1
290
1
176
1
290
0
176
1
290
0
176
1
290
0
176
1
290
0
176
1
290
0
176
1
290
0
176
1
 90
50
176
1
 40
0.0
176
1
 40
1.0
176
1
 90
0
176
1
 62
18
420
0
176
1
 90
50
176
1
 90
3
176
1
 62
5
420
255
176
1
290
0
176
1
 90
50
176
1
 90
50
176
1
 90
50
176
1
290
0
176
1
 90
50
176
1
 62
256
176
0
 40
1.0
176
0
 90
2
176
1
  1
strokes_ogs.tif
176
1
290
0
176
1
 40
1.0
176
1
 40
1.0
176
1
  0
VISUALSTYLE
  5
5D
102
{ACAD_REACTORS
330
16
102
}
330
16
100
AcDbVisualStyle
  2
ColorChange
 70
16
177
3
291
1
 70
58
 90
2
176
1
 90
2
176
1
 90
0
176
1
 90
2
176
1
 40
0.6
176
1
 40
30.0
176
1
 62
7
420
16777215
176
1
 90
1
176
1
 90
4
176
1
 62
7
176
1
 62
257
176
1
 90
1
176
1
 90
1
176
1
 40
1.0
176
1
 90
8
176
1
 62
7
176
1
 40
1.0
176
1
 90
1
176
1
 90
6
176
1
 90
2
176
1
 62
7
176
1
 90
5
176
1
 90
0
176
1
 90
0
176
1
290
0
176
1
 90
1
176
1
 40
0.0
176
1
 90
0
176
1
290
0
176
1
290
1
176
1
290
1
176
1
290
0
176
1
290
0
176
1
290
0
176
1
290
0
176
1
290
0
176
1
290
0
176
1
 90
50
176
1
 40
0.0
176
1
 40
1.0
176
1
 90
0
176
1
 62
18
420
0
176
1
 90
50
176
1
 90
3
176
1
 62
5
420
255
176
1
290
0
176
1
 90
50
176
1
 90
50
176
1
 90
50
176
1
290
0
176
1
 90
50
176
1
 62
256
176
0
 40
1.0
176
0
 90
2
176
1
  1
strokes_ogs.tif
176
1
290
0
176
1
 40
1.0
176
1
 40
1.0
176
1
  0
VISUALSTYLE
  5
5E
102
{ACAD_REACTORS
330
16
102
}
330
16
100
AcDbVisualStyle
  2
Conceptual
 70
9
177
3
291
0
 70
58
 90
2
176
1
 90
2
176
1
 90
0
176
1
 90
3
176
1
 40
0.6
176
1
 40
30.0
176
1
 62
7
420
16777215
176
1
 90
1
176
1
 90
4
176
1
 62
7
176
1
 62
257
176
1
 90
1
176
1
 90
1
176
1
 40
1.0
176
1
 90
8
176
1
 62
7
176
1
 40
1.0
176
1
 90
1
176
1
 90
6
176
1
 90
2
176
1
 62
7
176
1
 90
5
176
1
 90
0
176
1
 90
0
176
1
290
0
176
1
 90
1
176
1
 40
0.0
176
1
 90
0
176
1
290
0
176
1
290
1
176
1
290
1
176
1
290
0
176
1
290
0
176
1
290
0
176
1
290
0
176
1
290
0
176
1
290
0
176
1
 90
50
176
1
 40
0.0
176
1
 40
1.0
176
1
 90
0
176
1
 62
18
420
0
176
1
 90
50
176
1
 90
3
176
1
 62
5
420
255
176
1
290
0
176
1
 90
50
176
1
 90
50
176
1
 90
50
176
1
290
0
176
1
 90
50
176
1
 62
256
176
0
 40
1.0
176
0
 90
2
176
1
  1
strokes_ogs.tif
176
1
290
0
176
1
 40
1.0
176
1
 40
1.0
176
1
  0
VISUALSTYLE
  5
5F
102
{ACAD_REACTORS
330
16
102
}
330
16
100
AcDbVisualStyle
  2
Dim
 70
11
177
3
291
1
 70
58
 90
2
176
1
 90
2
176
1
 90
0
176
1
 90
2
176
1
 40
0.6
176
1
 40
30.0
176
1
 62
7
420
16777215
176
1
 90
1
176
1
 90
4
176
1
 62
7
176
1
 62
257
176
1
 90
1
176
1
 90
1
176
1
 40
1.0
176
1
 90
8
176
1
 62
7
176
1
 40
1.0
176
1
 90
1
176
1
 90
6
176
1
 90
2
176
1
 62
7
176
1
 90
5
176
1
 90
0
176
1
 90
0
176
1
290
0
176
1
 90
1
176
1
 40
0.0
176
1
 90
0
176
1
290
0
176
1
290
1
176
1
290
1
176
1
290
0
176
1
290
0
176
1
290
0
176
1
290
0
176
1
290
0
176
1
290
0
176
1
 90
50
176
1
 40
0.0
176
1
 40
1.0
176
1
 90
0
176
1
 62
18
420
0
176
1
 90
50
176
1
 90
3
176
1
 62
5
420
255
176
1
290
0
176
1
 90
50
176
1
 90
50
176
1
 90
50
176
1
290
0
176
1
 90
50
176
1
 62
256
176
0
 40
1.0
176
0
 90
2
176
1
  1
strokes_ogs.tif
176
1
290
0
176
1
 40
1.0
176
1
 40
1.0
176
1
  0
VISUALSTYLE
  5
60
102
{ACAD_REACTORS
330
16
102
}
330
16
100
AcDbVisualStyle
  2
EdgeColorOff
 70
22
177
3
291
1
 70
58
 90
2
176
1
 90
2
176
1
 90
0
176
1
 90
2
176
1
 40
0.6
176
1
 40
30.0
176
1
 62
7
420
16777215
176
1
 90
1
176
1
 90
4
176
1
 62
7
176
1
 62
257
176
1
 90
1
176
1
 90
1
176
1
 40
1.0
176
1
 90
8
176
1
 62
7
176
1
 40
1.0
176
1
 90
1
176
1
 90
6
176
1
 90
2
176
1
 62
7
176
1
 90
5
176
1
 90
0
176
1
 90
0
176
1
290
0
176
1
 90
1
176
1
 40
0.0
176
1
 90
0
176
1
290
0
176
1
290
1
176
1
290
1
176
1
290
0
176
1
290
0
176
1
290
0
176
1
290
0
176
1
290
0
176
1
290
0
176
1
 90
50
176
1
 40
0.0
176
1
 40
1.0
176
1
 90
0
176
1
 62
18
420
0
176
1
 90
50
176
1
 90
3
176
1
 62
5
420
255
176
1
290
0
176
1
 90
50
176
1
 90
50
176
1
 90
50
176
1
290
0
176
1
 90
50
176
1
 62
256
176
0
 40
1.0
176
0
 90
2
176
1
  1
strokes_ogs.tif
176
1
290
0
176
1
 40
1.0
176
1
 40
1.0
176
1
  0
VISUALSTYLE
  5
61
102
{ACAD_REACTORS
330
16
102
}
330
16
100
AcDbVisualStyle
  2
Facepattern
 70
15
177
3
291
1
 70
58
 90
2
176
1
 90
2
176
1
 90
0
176
1
 90
2
176
1
 40
0.6
176
1
 40
30.0
176
1
 62
7
420
16777215
176
1
 90
1
176
1
 90
4
176
1
 62
7
176
1
 62
257
176
1
 90
1
176
1
 90
1
176
1
 40
1.0
176
1
 90
8
176
1
 62
7
176
1
 40
1.0
176
1
 90
1
176
1
 90
6
176
1
 90
2
176
1
 62
7
176
1
 90
5
176
1
 90
0
176
1
 90
0
176
1
290
0
176
1
 90
1
176
1
 40
0.0
176
1
 90
0
176
1
290
0
176
1
290
1
176
1
290
1
176
1
290
0
176
1
290
0
176
1
290
0
176
1
290
0
176
1
290
0
176
1
290
0
176
1
 90
50
176
1
 40
0.0
176
1
 40
1.0
176
1
 90
0
176
1
 62
18
420
0
176
1
 90
50
176
1
 90
3
176
1
 62
5
420
255
176
1
290
0
176
1
 90
50
176
1
 90
50
176
1
 90
50
176
1
290
0
176
1
 90
50
176
1
 62
256
176
0
 40
1.0
176
0
 90
2
176
1
  1
strokes_ogs.tif
176
1
290
0
176
1
 40
1.0
176
1
 40
1.0
176
1
  0
VISUALSTYLE
  5
62
102
{ACAD_REACTORS
330
16
102
}
330
16
100
AcDbVisualStyle
  2
Flat
 70
0
177
3
291
1
 70
58
 90
2
176
1
 90
2
176
1
 90
0
176
1
 90
2
176
1
 40
0.6
176
1
 40
30.0
176
1
 62
7
420
16777215
176
1
 90
1
176
1
 90
4
176
1
 62
7
176
1
 62
257
176
1
 90
1
176
1
 90
1
176
1
 40
1.0
176
1
 90
8
176
1
 62
7
176
1
 40
1.0
176
1
 90
1
176
1
 90
6
176
1
 90
2
176
1
 62
7
176
1
 90
5
176
1
 90
0
176
1
 90
0
176
1
290
0
176
1
 90
1
176
1
 40
0.0
176
1
 90
0
176
1
290
0
176
1
290
1
176
1
290
1
176
1
290
0
176
1
290
0
176
1
290
0
176
1
290
0
176
1
290
0
176
1
290
0
176
1
 90
50
176
1
 40
0.0
176
1
 40
1.0
176
1
 90
0
176
1
 62
18
420
0
176
1
 90
50
176
1
 90
3
176
1
 62
5
420
255
176
1
290
0
176
1
 90
50
176
1
 90
50
176
1
 90
50
176
1
290
0
176
1
 90
50
176
1
 62
256
176
0
 40
1.0
176
0
 90
2
176
1
  1
strokes_ogs.tif
176
1
290
0
176
1
 40
1.0
176
1
 40
1.0
176
1
  0
VISUALSTYLE
  5
63
102
{ACAD_REACTORS
330
16
102
}
330
16
100
AcDbVisualStyle
  2
FlatWithEdges
 70
1
177
3
291
1
 70
58
 90
2
176
1
 90
2
176
1
 90
0
176
1
 90
2
176
1
 40
0.6
176
1
 40
30.0
176
1
 62
7
420
16777215
176
1
 90
1
176
1
 90
4
176
1
 62
7
176
1
 62
257
176
1
 90
1
176
1
 90
1
176
1
 40
1.0
176
1
 90
8
176
1
 62
7
176
1
 40
1.0
176
1
 90
1
176
1
 90
6
176
1
 90
2
176
1
 62
7
176
1
 90
5
176
1
 90
0
176
1
 90
0
176
1
290
0
176
1
 90
1
176
1
 40
0.0
176
1
 90
0
176
1
290
0
176
1
290
1
176
1
290
1
176
1
290
0
176
1
290
0
176
1
290
0
176
1
290
0
176
1
290
0
176
1
290
0
176
1
 90
50
176
1
 40
0.0
176
1
 40
1.0
176
1
 90
0
176
1
 62
18
420
0
176
1
 90
50
176
1
 90
3
176
1
 62
5
420
255
176
1
290
0
176
1
 90
50
176
1
 90
50
176
1
 90
50
176
1
290
0
176
1
 90
50
176
1
 62
256
176
0
 40
1.0
176
0
 90
2
176
1
  1
strokes_ogs.tif
176
1
290
0
176
1
 40
1.0
176
1
 40
1.0
176
1
  0
VISUALSTYLE
  5
64
102
{ACAD_REACTORS
330
16
102
}
330
16
100
AcDbVisualStyle
  2
Gouraud
 70
2
177
3
291
1
 70
58
 90
2
176
1
 90
2
176
1
 90
0
176
1
 90
2
176
1
 40
0.6
176
1
 40
30.0
176
1
 62
7
420
16777215
176
1
 90
1
176
1
 90
4
176
1
 62
7
176
1
 62
257
176
1
 90
1
176
1
 90
1
176
1
 40
1.0
176
1
 90
8
176
1
 62
7
176
1
 40
1.0
176
1
 90
1
176
1
 90
6
176
1
 90
2
176
1
 62
7
176
1
 90
5
176
1
 90
0
176
1
 90
0
176
1
290
0
176
1
 90
1
176
1
 40
0.0
176
1
 90
0
176
1
290
0
176
1
290
1
176
1
290
1
176
1
290
0
176
1
290
0
176
1
290
0
176
1
290
0
176
1
290
0
176
1
290
0
176
1
 90
50
176
1
 40
0.0
176
1
 40
1.0
176
1
 90
0
176
1
 62
18
420
0
176
1
 90
50
176
1
 90
3
176
1
 62
5
420
255
176
1
290
0
176
1
 90
50
176
1
 90
50
176
1
 90
50
176
1
290
0
176
1
 90
50
176
1
 62
256
176
0
 40
1.0
176
0
 90
2
176
1
  1
strokes_ogs.tif
176
1
290
0
176
1
 40
1.0
176
1
 40
1.0
176
1
  0
VISUALSTYLE
  5
65
102
{ACAD_REACTORS
330
16
102
}
330
16
100
AcDbVisualStyle
  2
GouraudWithEdges
 70
3
177
3
291
1
 70
58
 90
2
176
1
 90
2
176
1
 90
0
176
1
 90
2
176
1
 40
0.6
176
1
 40
30.0
176
1
 62
7
420
16777215
176
1
 90
1
176
1
 90
4
176
1
 62
7
176
1
 62
257
176
1
 90
1
176
1
 90
1
176
1
 40
1.0
176
1
 90
8
176
1
 62
7
176
1
 40
1.0
176
1
 90
1
176
1
 90
6
176
1
 90
2
176
1
 62
7
176
1
 90
5
176
1
 90
0
176
1
 90
0
176
1
290
0
176
1
 90
1
176
1
 40
0.0
176
1
 90
0
176
1
290
0
176
1
290
1
176
1
290
1
176
1
290
0
176
1
290
0
176
1
290
0
176
1
290
0
176
1
290
0
176
1
290
0
176
1
 90
50
176
1
 40
0.0
176
1
 40
1.0
176
1
 90
0
176
1
 62
18
420
0
176
1
 90
50
176
1
 90
3
176
1
 62
5
420
255
176
1
290
0
176
1
 90
50
176
1
 90
50
176
1
 90
50
176
1
290
0
176
1
 90
50
176
1
 62
256
176
0
 40
1.0
176
0
 90
2
176
1
  1
strokes_ogs.tif
176
1
290
0
176
1
 40
1.0
176
1
 40
1.0
176
1
  0
VISUALSTYLE
  5
66
102
{ACAD_REACTORS
330
16
102
}
330
16
100
AcDbVisualStyle
  2
Hidden
 70
6
177
3
291
0
 70
58
 90
2
176
1
 90
2
176
1
 90
0
176
1
 90
1
176
1
 40
0.6
176
1
 40
30.0
176
1
 62
7
420
16777215
176
1
 90
1
176
1
 90
4
176
1
 62
7
176
1
 62
257
176
1
 90
1
176
1
 90
1
176
1
 40
1.0
176
1
 90
8
176
1
 62
7
176
1
 40
1.0
176
1
 90
1
176
1
 90
6
176
1
 90
2
176
1
 62
7
176
1
 90
5
176
1
 90
0
176
1
 90
0
176
1
290
0
176
1
 90
1
176
1
 40
0.0
176
1
 90
0
176
1
290
0
176
1
290
1
176
1
290
1
176
1
290
0
176
1
290
0
176
1
290
0
176
1
290
0
176
1
290
0
176
1
290
0
176
1
 90
50
176
1
 40
0.0
176
1
 40
1.0
176
1
 90
0
176
1
 62
18
420
0
176
1
 90
50
176
1
 90
3
176
1
 62
5
420
255
176
1
290
0
176
1
 90
50
176
1
 90
50
176
1
 90
50
176
1
290
0
176
1
 90
50
176
1
 62
256
176
0
 40
1.0
176
0
 90
2
176
1
  1
strokes_ogs.tif
176
1
290
0
176
1
 40
1.0
176
1
 40
1.0
176
1
  0
VISUALSTYLE
  5
67
102
{ACAD_REACTORS
330
16
102
}
330
16
100
AcDbVisualStyle
  2
JitterOff
 70
20
177
3
291
1
 70
58
 90
2
176
1
 90
2
176
1
 90
0
176
1
 90
2
176
1
 40
0.6
176
1
 40
30.0
176
1
 62
7
420
16777215
176
1
 90
1
176
1
 90
4
176
1
 62
7
176
1
 62
257
176
1
 90
1
176
1
 90
1
176
1
 40
1.0
176
1
 90
8
176
1
 62
7
176
1
 40
1.0
176
1
 90
1
176
1
 90
6
176
1
 90
2
176
1
 62
7
176
1
 90
5
176
1
 90
0
176
1
 90
0
176
1
290
0
176
1
 90
1
176
1
 40
0.0
176
1
 90
0
176
1
290
0
176
1
290
1
176
1
290
1
176
1
290
0
176
1
290
0
176
1
290
0
176
1
290
0
176
1
290
0
176
1
290
0
176
1
 90
50
176
1
 40
0.0
176
1
 40
1.0
176
1
 90
0
176
1
 62
18
420
0
176
1
 90
50
176
1
 90
3
176
1
 62
5
420
255
176
1
290
0
176
1
 90
50
176
1
 90
50
176
1
 90
50
176
1
290
0
176
1
 90
50
176
1
 62
256
176
0
 40
1.0
176
0
 90
2
176
1
  1
strokes_ogs.tif
176
1
290
0
176
1
 40
1.0
176
1
 40
1.0
176
1
  0
VISUALSTYLE
  5
68
102
{ACAD_REACTORS
330
16
102
}
330
16
100
AcDbVisualStyle
  2
Linepattern
 70
14
177
3
291
1
 70
58
 90
2
176
1
 90
2
176
1
 90
0
176
1
 90
2
176
1
 40
0.6
176
1
 40
30.0
176
1
 62
7
420
16777215
176
1
 90
1
176
1
 90
4
176
1
 62
7
176
1
 62
257
176
1
 90
1
176
1
 90
1
176
1
 40
1.0
176
1
 90
8
176
1
 62
7
176
1
 40
1.0
176
1
 90
1
176
1
 90
6
176
1
 90
2
176
1
 62
7
176
1
 90
5
176
1
 90
0
176
1
 90
0
176
1
290
0
176
1
 90
1
176
1
 40
0.0
176
1
 90
0
176
1
290
0
176
1
290
1
176
1
290
1
176
1
290
0
176
1
290
0
176
1
290
0
176
1
290
0
176
1
290
0
176
1
290
0
176
1
 90
50
176
1
 40
0.0
176
1
 40
1.0
176
1
 90
0
176
1
 62
18
420
0
176
1
 90
50
176
1
 90
3
176
1
 62
5
420
255
176
1
290
0
176
1
 90
50
176
1
 90
50
176
1
 90
50
176
1
290
0
176
1
 90
50
176
1
 62
256
176
0
 40
1.0
176
0
 90
2
176
1
  1
strokes_ogs.tif
176
1
290
0
176
1
 40
1.0
176
1
 40
1.0
176
1
  0
VISUALSTYLE
  5
69
102
{ACAD_REACTORS
330
16
102
}
330
16
100
AcDbVisualStyle
  2
Modeling
 70
10
177
3
291
0
 70
58
 90
2
176
1
 90
2
176
1
 90
0
176
1
 90
2
176
1
 40
0.6
176
1
 40
30.0
176
1
 62
7
420
16777215
176
1
 90
1
176
1
 90
4
176
1
 62
7
176
1
 62
257
176
1
 90
1
176
1
 90
1
176
1
 40
1.0
176
1
 90
8
176
1
 62
7
176
1
 40
1.0
176
1
 90
1
176
1
 90
6
176
1
 90
2
176
1
 62
7
176
1
 90
5
176
1
 90
0
176
1
 90
0
176
1
290
0
176
1
 90
1
176
1
 40
0.0
176
1
 90
0
176
1
290
0
176
1
290
1
176
1
290
1
176
1
290
0
176
1
290
0
176
1
290
0
176
1
290
0
176
1
290
0
176
1
290
0
176
1
 90
50
176
1
 40
0.0
176
1
 40
1.0
176
1
 90
0
176
1
 62
18
420
0
176
1
 90
50
176
1
 90
3
176
1
 62
5
420
255
176
1
290
0
176
1
 90
50
176
1
 90
50
176
1
 90
50
176
1
290
0
176
1
 90
50
176
1
 62
256
176
0
 40
1.0
176
0
 90
2
176
1
  1
strokes_ogs.tif
176
1
290
0
176
1
 40
1.0
176
1
 40
1.0
176
1
  0
VISUALSTYLE
  5
6A
102
{ACAD_REACTORS
330
16
102
}
330
16
100
AcDbVisualStyle
  2
OverhangOff
 70
21
177
3
291
1
 70
58
 90
2
176
1
 90
2
176
1
 90
0
176
1
 90
2
176
1
 40
0.6
176
1
 40
30.0
176
1
 62
7
420
16777215
176
1
 90
1
176
1
 90
4
176
1
 62
7
176
1
 62
257
176
1
 90
1
176
1
 90
1
176
1
 40
1.0
176
1
 90
8
176
1
 62
7
176
1
 40
1.0
176
1
 90
1
176
1
 90
6
176
1
 90
2
176
1
 62
7
176
1
 90
5
176
1
 90
0
176
1
 90
0
176
1
290
0
176
1
 90
1
176
1
 40
0.0
176
1
 90
0
176
1
290
0
176
1
290
1
176
1
290
1
176
1
290
0
176
1
290
0
176
1
290
0
176
1
290
0
176
1
290
0
176
1
290
0
176
1
 90
50
176
1
 40
0.0
176
1
 40
1.0
176
1
 90
0
176
1
 62
18
420
0
176
1
 90
50
176
1
 90
3
176
1
 62
5
420
255
176
1
290
0
176
1
 90
50
176
1
 90
50
176
1
 90
50
176
1
290
0
176
1
 90
50
176
1
 62
256
176
0
 40
1.0
176
0
 90
2
176
1
  1
strokes_ogs.tif
176
1
290
0
176
1
 40
1.0
176
1
 40
1.0
176
1
  0
VISUALSTYLE
  5
6B
102
{ACAD_REACTORS
330
16
102
}
330
16
100
AcDbVisualStyle
  2
Realistic
 70
8
177
3
291
0
 70
58
 90
2
176
1
 90
2
176
1
 90
0
176
1
 90
2
176
1
 40
0.6
176
1
 40
30.0
176
1
 62
7
420
16777215
176
1
 90
1
176
1
 90
4
176
1
 62
7
176
1
 62
257
176
1
 90
1
176
1
 90
1
176
1
 40
1.0
176
1
 90
8
176
1
 62
7
176
1
 40
1.0
176
1
 90
1
176
1
 90
6
176
1
 90
2
176
1
 62
7
176
1
 90
5
176
1
 90
0
176
1
 90
0
176
1
290
0
176
1
 90
1
176
1
 40
0.0
176
1
 90
0
176
1
290
0
176
1
290
1
176
1
290
1
176
1
290
0
176
1
290
0
176
1
290
0
176
1
290
0
176
1
290
0
176
1
290
0
176
1
 90
50
176
1
 40
0.0
176
1
 40
1.0
176
1
 90
0
176
1
 62
18
420
0
176
1
 90
50
176
1
 90
3
176
1
 62
5
420
255
176
1
290
0
176
1
 90
50
176
1
 90
50
176
1
 90
50
176
1
290
0
176
1
 90
50
176
1
 62
256
176
0
 40
1.0
176
0
 90
2
176
1
  1
strokes_ogs.tif
176
1
290
0
176
1
 40
1.0
176
1
 40
1.0
176
1
  0
VISUALSTYLE
  5
6C
102
{ACAD_REACTORS
330
16
102
}
330
16
100
AcDbVisualStyle
  2
Shaded
 70
27
177
3
291
0
 70
58
 90
2
176
1
 90
2
176
1
 90
0
176
1
 90
2
176
1
 40
0.6
176
1
 40
30.0
176
1
 62
7
420
16777215
176
1
 90
1
176
1
 90
4
176
1
 62
7
176
1
 62
257
176
1
 90
1
176
1
 90
1
176
1
 40
1.0
176
1
 90
8
176
1
 62
7
176
1
 40
1.0
176
1
 90
1
176
1
 90
6
176
1
 90
2
176
1
 62
7
176
1
 90
5
176
1
 90
0
176
1
 90
0
176
1
290
0
176
1
 90
1
176
1
 40
0.0
176
1
 90
0
176
1
290
0
176
1
290
1
176
1
290
1
176
1
290
0
176
1
290
0
176
1
290
0
176
1
290
0
176
1
290
0
176
1
290
0
176
1
 90
50
176
1
 40
0.0
176
1
 40
1.0
176
1
 90
0
176
1
 62
18
420
0
176
1
 90
50
176
1
 90
3
176
1
 62
5
420
255
176
1
290
0
176
1
 90
50
176
1
 90
50
176
1
 90
50
176
1
290
0
176
1
 90
50
176
1
 62
256
176
0
 40
1.0
176
0
 90
2
176
1
  1
strokes_ogs.tif
176
1
290
0
176
1
 40
1.0
176
1
 40
1.0
176
1
  0
VISUALSTYLE
  5
6D
102
{ACAD_REACTORS
330
16
102
}
330
16
100
AcDbVisualStyle
  2
Shaded with edges
 70
26
177
3
291
0
 70
58
 90
2
176
1
 90
2
176
1
 90
0
176
1
 90
2
176
1
 40
0.6
176
1
 40
30.0
176
1
 62
7
420
16777215
176
1
 90
1
176
1
 90
4
176
1
 62
7
176
1
 62
257
176
1
 90
1
176
1
 90
1
176
1
 40
1.0
176
1
 90
8
176
1
 62
7
176
1
 40
1.0
176
1
 90
1
176
1
 90
6
176
1
 90
2
176
1
 62
7
176
1
 90
5
176
1
 90
0
176
1
 90
0
176
1
290
0
176
1
 90
1
176
1
 40
0.0
176
1
 90
0
176
1
290
0
176
1
290
1
176
1
290
1
176
1
290
0
176
1
290
0
176
1
290
0
176
1
290
0
176
1
290
0
176
1
290
0
176
1
 90
50
176
1
 40
0.0
176
1
 40
1.0
176
1
 90
0
176
1
 62
18
420
0
176
1
 90
50
176
1
 90
3
176
1
 62
5
420
255
176
1
290
0
176
1
 90
50
176
1
 90
50
176
1
 90
50
176
1
290
0
176
1
 90
50
176
1
 62
256
176
0
 40
1.0
176
0
 90
2
176
1
  1
strokes_ogs.tif
176
1
290
0
176
1
 40
1.0
176
1
 40
1.0
176
1
  0
VISUALSTYLE
  5
6E
102
{ACAD_REACTORS
330
16
102
}
330
16
100
AcDbVisualStyle
  2
Shades of Gray
 70
23
177
3
291
0
 70
58
 90
2
176
1
 90
2
176
1
 90
0
176
1
 90
2
176
1
 40
0.6
176
1
 40
30.0
176
1
 62
7
420
16777215
176
1
 90
1
176
1
 90
4
176
1
 62
7
176
1
 62
257
176
1
 90
1
176
1
 90
1
176
1
 40
1.0
176
1
 90
8
176
1
 62
7
176
1
 40
1.0
176
1
 90
1
176
1
 90
6
176
1
 90
2
176
1
 62
7
176
1
 90
5
176
1
 90
0
176
1
 90
0
176
1
290
0
176
1
 90
1
176
1
 40
0.0
176
1
 90
0
176
1
290
0
176
1
290
1
176
1
290
1
176
1
290
0
176
1
290
0
176
1
290
0
176
1
290
0
176
1
290
0
176
1
290
0
176
1
 90
50
176
1
 40
0.0
176
1
 40
1.0
176
1
 90
0
176
1
 62
18
420
0
176
1
 90
50
176
1
 90
3
176
1
 62
5
420
255
176
1
290
0
176
1
 90
50
176
1
 90
50
176
1
 90
50
176
1
290
0
176
1
 90
50
176
1
 62
256
176
0
 40
1.0
176
0
 90
2
176
1
  1
strokes_ogs.tif
176
1
290
0
176
1
 40
1.0
176
1
 40
1.0
176
1
  0
VISUALSTYLE
  5
6F
102
{ACAD_REACTORS
330
16
102
}
330
16
100
AcDbVisualStyle
  2
Sketchy
 70
24
177
3
291
0
 70
58
 90
2
176
1
 90
2
176
1
 90
0
176
1
 90
1
176
1
 40
0.6
176
1
 40
30.0
176
1
 62
7
420
16777215
176
1
 90
1
176
1
 90
4
176
1
 62
7
176
1
 62
257
176
1
 90
1
176
1
 90
1
176
1
 40
1.0
176
1
 90
8
176
1
 62
7
176
1
 40
1.0
176
1
 90
1
176
1
 90
6
176
1
 90
2
176
1
 62
7
176
1
 90
5
176
1
 90
0
176
1
 90
0
176
1
290
0
176
1
 90
1
176
1
 40
0.0
176
1
 90
0
176
1
290
0
176
1
290
1
176
1
290
1
176
1
290
0
176
1
290
0
176
1
290
0
176
1
290
0
176
1
290
0
176
1
290
0
176
1
 90
50
176
1
 40
0.0
176
1
 40
1.0
176
1
 90
0
176
1
 62
18
420
0
176
1
 90
50
176
1
 90
3
176
1
 62
5
420
255
176
1
290
0
176
1
 90
50
176
1
 90
50
176
1
 90
50
176
1
290
0
176
1
 90
50
176
1
 62
256
176
0
 40
1.0
176
0
 90
2
176
1
  1
strokes_ogs.tif
176
1
290
0
176
1
 40
1.0
176
1
 40
1.0
176
1
  0
VISUALSTYLE
  5
70
102
{ACAD_REACTORS
330
16
102
}
330
16
100
AcDbVisualStyle
  2
Thicken
 70
13
177
3
291
1
 70
58
 90
2
176
1
 90
2
176
1
 90
0
176
1
 90
2
176
1
 40
0.6
176
1
 40
30.0
176
1
 62
7
420
16777215
176
1
 90
1
176
1
 90
4
176
1
 62
7
176
1
 62
257
176
1
 90
1
176
1
 90
1
176
1
 40
1.0
176
1
 90
8
176
1
 62
7
176
1
 40
1.0
176
1
 90
1
176
1
 90
6
176
1
 90
2
176
1
 62
7
176
1
 90
5
176
1
 90
0
176
1
 90
0
176
1
290
0
176
1
 90
1
176
1
 40
0.0
176
1
 90
0
176
1
290
0
176
1
290
1
176
1
290
1
176
1
290
0
176
1
290
0
176
1
290
0
176
1
290
0
176
1
290
0
176
1
290
0
176
1
 90
50
176
1
 40
0.0
176
1
 40
1.0
176
1
 90
0
176
1
 62
18
420
0
176
1
 90
50
176
1
 90
3
176
1
 62
5
420
255
176
1
290
0
176
1
 90
50
176
1
 90
50
176
1
 90
50
176
1
290
0
176
1
 90
50
176
1
 62
256
176
0
 40
1.0
176
0
 90
2
176
1
  1
strokes_ogs.tif
176
1
290
0
176
1
 40
1.0
176
1
 40
1.0
176
1
  0
VISUALSTYLE
  5
71
102
{ACAD_REACTORS
330
16
102
}
330
16
100
AcDbVisualStyle
  2
Wireframe
 70
5
177
3
291
0
 70
58
 90
2
176
1
 90
2
176
1
 90
0
176
1
 90
0
176
1
 40
0.6
176
1
 40
30.0
176
1
 62
7
420
16777215
176
1
 90
1
176
1
 90
4
176
1
 62
7
176
1
 62
257
176
1
 90
1
176
1
 90
1
176
1
 40
1.0
176
1
 90
8
176
1
 62
7
176
1
 40
1.0
176
1
 90
1
176
1
 90
6
176
1
 90
2
176
1
 62
7
176
1
 90
5
176
1
 90
0
176
1
 90
0
176
1
290
0
176
1
 90
1
176
1
 40
0.0
176
1
 90
0
176
1
290
0
176
1
290
1
176
1
290
1
176
1
290
0
176
1
290
0
176
1
290
0
176
1
290
0
176
1
290
0
176
1
290
0
176
1
 90
50
176
1
 40
0.0
176
1
 40
1.0
176
1
 90
0
176
1
 62
18
420
0
176
1
 90
50
176
1
 90
3
176
1
 62
5
420
255
176
1
290
0
176
1
 90
50
176
1
 90
50
176
1
 90
50
176
1
290
0
176
1
 90
50
176
1
 62
256
176
0
 40
1.0
176
0
 90
2
176
1
  1
strokes_ogs.tif
176
1
290
0
176
1
 40
1.0
176
1
 40
1.0
176
1
  0
VISUALSTYLE
  5
72
102
{ACAD_REACTORS
330
16
102
}
330
16
100
AcDbVisualStyle
  2
X-Ray
 70
25
177
3
291
0
 70
58
 90
2
176
1
 90
2
176
1
 90
0
176
1
 90
2
176
1
 40
0.5
176
1
 40
30.0
176
1
 62
7
420
16777215
176
1
 90
1
176
1
 90
4
176
1
 62
7
176
1
 62
257
176
1
 90
1
176
1
 90
1
176
1
 40
1.0
176
1
 90
8
176
1
 62
7
176
1
 40
1.0
176
1
 90
1
176
1
 90
6
176
1
 90
2
176
1
 62
7
176
1
 90
5
176
1
 90
0
176
1
 90
0
176
1
290
0
176
1
 90
1
176
1
 40
0.0
176
1
 90
0
176
1
290
0
176
1
290
1
176
1
290
1
176
1
290
0
176
1
290
0
176
1
290
0
176
1
290
0
176
1
290
0
176
1
290
0
176
1
 90
50
176
1
 40
0.0
176
1
 40
1.0
176
1
 90
0
176
1
 62
18
420
0
176
1
 90
50
176
1
 90
3
176
1
 62
5
420
255
176
1
290
0
176
1
 90
50
176
1
 90
50
176
1
 90
50
176
1
290
0
176
1
 90
50
176
1
 62
256
176
0
 40
1.0
176
0
 90
2
176
1
  1
strokes_ogs.tif
176
1
290
0
176
1
 40
1.0
176
1
 40
1.0
176
1
  0
DICTIONARYVAR
  5
1FF
330
2D
100
DictionaryVariables
280
0
  1
1.4.4 @ 2026-10-04T18:15:04.474235+00:00
  0
ENDSEC
  0
EOF
